<svg width="46" height="57" viewBox="0 0 46 57" fill="none" xmlns="http://www.w3.org/2000/svg">
<path opacity="0.04" fill-rule="evenodd" clip-rule="evenodd" d="M30.9499 22.4312C34.6511 24.2658 38.6394 21.2127 40.1829 17.001C41.8769 12.5084 40.5927 7.95009 37.1075 6.16744C33.5085 4.31449 29.6736 6.63886 28.1486 10.8715C26.5159 14.9239 27.3327 20.5996 30.9499 22.4312ZM44.7785 29.3506C44.2665 27.4774 43.1294 25.9337 41.5818 24.9954C38.1708 22.9456 34.2816 24.5905 32.3371 28.8921C30.4628 32.897 31.0152 38.4326 34.5587 40.5736C38.0947 42.6978 42.3897 39.9828 44.1179 35.9798C45.1152 33.7822 45.3437 31.4259 44.7785 29.3506ZM18.1668 17.6927C16.6322 17.3204 15.3391 16.2519 14.4353 14.6544C11.0508 8.70045 14.6735 -1.30609 21.3211 0.315881C27.7309 1.91991 27.7772 11.6449 23.3888 15.9666C21.8512 17.487 19.954 18.1166 18.1668 17.6927ZM23.2385 24.6506C16.5543 22.2856 5.9246 35.994 4.10429 41.3798C2.02123 48.9829 8.75762 51.8162 15.1632 54.092L15.1742 54.0961C15.6758 54.2702 16.1727 54.4482 16.6645 54.6243C20.8716 56.1309 24.7066 57.5042 27.8927 55.2184C29.0492 54.3284 29.8904 52.9567 30.3982 51.1248C31.6178 45.5865 29.8329 27.1647 23.2385 24.6506ZM13.4964 22.0222C13.1692 24.7347 12.0059 27.1374 10.2963 28.6221C8.95254 29.7935 7.35731 30.2965 5.81299 30.0468C1.85692 29.3943 -0.276575 24.3108 0.344 19.8833C0.651746 17.4161 1.63934 15.3411 3.14246 14.0324C4.50073 12.8523 6.20555 12.3478 7.93295 12.6373C11.7425 13.2496 14.0802 17.2023 13.4964 22.0222Z" fill="#04A427"/>
</svg>
