<svg width="109" height="78" viewBox="0 0 109 78" fill="none" xmlns="http://www.w3.org/2000/svg">
<path opacity="0.07" fill-rule="evenodd" clip-rule="evenodd" d="M23.7873 17.1938C26.1072 18.3438 28.6071 16.4301 29.5745 13.7902C30.6364 10.9742 29.8314 8.11706 27.6469 6.9997C25.391 5.83827 22.9873 7.29518 22.0315 9.94819C21.0081 12.4882 21.5201 16.0458 23.7873 17.1938ZM32.4551 21.53C32.1342 20.3558 31.4214 19.3882 30.4514 18.8001C28.3133 17.5153 25.8756 18.5463 24.6568 21.2426C23.482 23.7528 23.8282 27.2226 26.0493 28.5645C28.2657 29.896 30.9578 28.1942 32.041 25.6851C32.6661 24.3077 32.8093 22.8307 32.4551 21.53ZM15.7749 14.2238C14.8131 13.9904 14.0025 13.3207 13.436 12.3193C11.3146 8.58741 13.5854 2.31532 17.752 3.33197C21.7697 4.33737 21.7987 10.433 19.048 13.1418C18.0843 14.0948 16.8952 14.4895 15.7749 14.2238ZM18.9534 18.585C14.7637 17.1026 8.10103 25.695 6.96007 29.0708C5.6544 33.8364 9.87676 35.6123 13.8918 37.0388L13.8987 37.0414C14.2131 37.1505 14.5245 37.2621 14.8328 37.3725C17.4698 38.3168 19.8735 39.1776 21.8706 37.7449C22.5955 37.187 23.1228 36.3272 23.4411 35.179C24.2055 31.7076 23.0867 20.1608 18.9534 18.585ZM12.8473 16.9389C12.6422 18.6391 11.913 20.1451 10.8414 21.0757C9.99915 21.8099 8.99927 22.1252 8.03129 21.9687C5.55163 21.5597 4.21435 18.3734 4.60333 15.5982C4.79623 14.0518 5.41525 12.7512 6.3574 11.9309C7.20876 11.1912 8.27734 10.875 9.36007 11.0564C11.7479 11.4402 13.2132 13.9178 12.8473 16.9389Z" fill="#04A427"/>
<path opacity="0.07" fill-rule="evenodd" clip-rule="evenodd" d="M94.0729 51.8941C96.1136 51.0573 96.7257 48.1688 96.0065 45.8541C95.2582 43.365 93.3128 42.1064 91.3738 42.8726C89.3677 43.6591 88.5864 46.195 89.3194 48.5101C89.9531 50.7995 92.0664 52.6966 94.0729 51.8941ZM101.719 48.797C100.926 48.2732 99.9901 48.1432 99.0828 48.4255C97.0888 49.0549 96.0716 51.3453 96.6608 53.8647C97.184 56.2372 99.1487 58.1906 101.224 57.5413C103.291 56.8885 104.13 54.0043 103.55 51.6941C103.251 50.4054 102.597 49.3783 101.719 48.797ZM87.5289 55.4194C86.8053 55.9197 85.9574 56.0432 85.0964 55.7936C81.8812 54.8697 80.155 49.3891 83.2923 47.2253C86.3301 45.1547 89.4166 48.9763 89.0468 52.5346C88.9192 53.7838 88.3685 54.8328 87.5289 55.4194ZM91.7264 56.0269C88.3402 57.9127 88.4667 67.8116 89.447 70.7067C91.023 74.5885 94.5776 72.8657 97.8257 71.0622L97.8313 71.0592C98.0842 70.9165 98.3365 70.7772 98.5862 70.6393L98.5865 70.6391C100.724 69.4593 102.672 68.3839 103.209 66.1369C103.385 65.2974 103.284 64.4008 102.907 63.463C101.641 60.7611 95.1242 54.238 91.7264 56.0269ZM87.0505 59.0978C87.777 60.3072 88.0756 61.7469 87.8688 63.0546C87.7076 64.0842 87.2362 64.9558 86.5475 65.5087C84.7791 66.9199 82.3326 65.8122 81.1808 63.8016C80.5239 62.6973 80.2594 61.4611 80.4401 60.3101C80.6043 59.271 81.1185 58.3525 81.8921 57.7381C83.5899 56.3728 85.7604 56.9478 87.0505 59.0978Z" fill="#04A427"/>
</svg>
