<svg width="130" height="77" viewBox="0 0 130 77" fill="none" xmlns="http://www.w3.org/2000/svg">
<path opacity="0.05" fill-rule="evenodd" clip-rule="evenodd" d="M31.3619 22.5312C34.4025 24.0385 37.679 21.5303 38.947 18.0703C40.3387 14.3795 39.2837 10.6348 36.4206 9.1703C33.4639 7.64808 30.3134 9.55759 29.0606 13.0348C27.7193 16.3639 28.3904 21.0266 31.3619 22.5312ZM42.7224 28.2157C42.3018 26.6768 41.3676 25.4086 40.0963 24.6378C37.294 22.9538 34.099 24.3051 32.5016 27.839C30.9618 31.1291 31.4156 35.6767 34.3266 37.4356C37.2315 39.1806 40.7599 36.9502 42.1797 33.6617C42.999 31.8563 43.1867 29.9205 42.7224 28.2157ZM20.8604 18.6385C19.5997 18.3326 18.5374 17.4549 17.7949 16.1425C15.0145 11.2512 17.9907 3.03067 23.4517 4.36315C28.7175 5.68089 28.7556 13.6701 25.1504 17.2205C23.8872 18.4695 22.3287 18.9868 20.8604 18.6385ZM25.0269 24.3545C19.5357 22.4116 10.8032 33.6734 9.30784 38.0978C7.59657 44.3439 13.1306 46.6715 18.393 48.5411L18.402 48.5445C18.814 48.6876 19.2222 48.8337 19.6263 48.9784C23.0825 50.2161 26.2329 51.3444 28.8504 49.4665C29.8005 48.7353 30.4916 47.6085 30.9087 46.1035C31.9106 41.5538 30.4443 26.4199 25.0269 24.3545ZM17.0235 22.1961C16.7547 24.4244 15.799 26.3982 14.3945 27.618C13.2906 28.5803 11.9801 28.9935 10.7114 28.7884C7.46146 28.2523 5.70875 24.0762 6.21857 20.4389C6.47139 18.412 7.28271 16.7074 8.51755 15.6323C9.63339 14.6628 11.0339 14.2484 12.453 14.4862C15.5826 14.9892 17.5031 18.2364 17.0235 22.1961Z" fill="#04A427"/>
<path opacity="0.05" fill-rule="evenodd" clip-rule="evenodd" d="M115.747 52.9482C117.638 52.1728 118.205 49.4963 117.539 47.3515C116.846 45.045 115.043 43.8787 113.246 44.5887C111.387 45.3175 110.663 47.6673 111.343 49.8125C111.93 51.9339 113.888 53.6918 115.747 52.9482ZM122.832 50.0764C122.097 49.591 121.23 49.4705 120.389 49.7321C118.541 50.3153 117.599 52.4377 118.145 54.7721C118.63 56.9706 120.45 58.7806 122.373 58.179C124.288 57.5741 125.066 54.9015 124.528 52.7608C124.251 51.5667 123.646 50.615 122.832 50.0764ZM109.683 56.2139C109.013 56.6775 108.227 56.7919 107.429 56.5606C104.45 55.7045 102.851 50.6261 105.758 48.6211C108.573 46.7024 111.433 50.2435 111.09 53.5408C110.972 54.6983 110.461 55.6703 109.683 56.2139ZM113.574 56.7752C110.436 58.5225 110.553 67.695 111.462 70.3777C112.922 73.9746 116.216 72.3782 119.226 70.7071L119.231 70.7043C119.465 70.572 119.699 70.4429 119.931 70.3151C121.911 69.2218 123.716 68.2253 124.214 66.1432C124.377 65.3654 124.284 64.5345 123.934 63.6655C122.761 61.1619 116.722 55.1175 113.574 56.7752ZM109.24 59.6239C109.913 60.7446 110.19 62.0787 109.998 63.2904C109.849 64.2444 109.412 65.0521 108.774 65.5644C107.135 66.8721 104.868 65.8456 103.801 63.9826C103.192 62.9593 102.947 61.8138 103.114 60.7472C103.267 59.7844 103.743 58.9333 104.46 58.364C106.033 57.0989 108.044 57.6317 109.24 59.6239Z" fill="#04A427"/>
</svg>
