<svg width="198" height="90" viewBox="0 0 198 90" fill="none" xmlns="http://www.w3.org/2000/svg">
<path opacity="0.09" fill-rule="evenodd" clip-rule="evenodd" d="M38.778 28.5219C42.5339 30.3837 46.5812 27.2854 48.1475 23.0114C49.8666 18.4524 48.5633 13.8267 45.0267 12.0177C41.3744 10.1374 37.4828 12.4961 35.9353 16.7913C34.2785 20.9036 35.1074 26.6632 38.778 28.5219ZM52.8132 35.5446C52.2936 33.6437 51.1397 32.0772 49.5693 31.125C46.1078 29.0449 42.1611 30.7141 40.1879 35.0793C38.2859 39.1435 38.8464 44.7609 42.4423 46.9335C46.0306 49.0891 50.3891 46.334 52.1428 42.2718C53.1549 40.0417 53.3868 37.6506 52.8132 35.5446ZM25.8059 23.7157C24.2486 23.3378 22.9364 22.2536 22.0192 20.6324C18.5847 14.5905 22.261 4.436 29.0068 6.08194C35.5114 7.70969 35.5584 17.5784 31.105 21.964C29.5448 23.5069 27.6195 24.1458 25.8059 23.7157ZM30.9537 30.7741C24.1707 28.3741 13.3839 42.2852 11.5367 47.7506C9.42282 55.4661 16.2588 58.3413 22.7591 60.6508L22.7703 60.6549C23.2792 60.8316 23.7835 61.0122 24.2826 61.1909C28.5519 62.7198 32.4435 64.1134 35.6767 61.7938C36.8504 60.8906 37.704 59.4987 38.2193 57.6396C39.4569 52.0195 37.6456 33.3254 30.9537 30.7741ZM21.0673 28.1078C20.7353 30.8604 19.5547 33.2985 17.8199 34.8052C16.4563 35.9939 14.8374 36.5044 13.2703 36.251C9.25575 35.5888 7.09071 30.4302 7.72046 25.9372C8.03275 23.4335 9.03494 21.3279 10.5603 19.9998C11.9386 18.8023 13.6687 18.2904 15.4216 18.5842C19.2874 19.2054 21.6597 23.2166 21.0673 28.1078Z" fill="#04A427"/>
<path opacity="0.04" fill-rule="evenodd" clip-rule="evenodd" d="M162.865 36.992C167.635 35.2408 169.065 29.1959 167.384 24.3519C165.635 19.1428 161.089 16.5088 156.557 18.1123C151.869 19.7582 150.043 25.0652 151.756 29.9102C153.237 34.7013 158.176 38.6715 162.865 36.992ZM180.736 30.5026C178.882 29.4063 176.694 29.1342 174.573 29.725C169.913 31.0422 167.536 35.8355 168.913 41.1078C170.136 46.073 174.727 50.1609 179.577 48.8021C184.407 47.4361 186.37 41.4 185.014 36.5654C184.314 33.8684 182.787 31.719 180.736 30.5026ZM147.572 44.3623C145.881 45.4094 143.899 45.6679 141.887 45.1453C134.373 43.212 130.338 31.7424 137.671 27.2142C144.77 22.8809 151.984 30.8785 151.119 38.3252C150.821 40.9394 149.534 43.1348 147.572 44.3623ZM157.383 45.637C149.469 49.5834 149.765 70.2992 152.056 76.3581C155.739 84.4817 164.047 80.8763 171.638 77.102L171.651 77.0957C172.242 76.7968 172.832 76.5052 173.416 76.2166C178.411 73.7476 182.963 71.497 184.219 66.7946C184.63 65.0378 184.395 63.1613 183.513 61.1988C180.555 55.5443 165.324 41.8931 157.383 45.637ZM146.455 52.0648C148.153 54.5958 148.85 57.6088 148.367 60.3454C147.99 62.5 146.889 64.3242 145.279 65.4813C141.146 68.4346 135.428 66.1163 132.736 61.9088C131.201 59.5977 130.583 57.0107 131.005 54.6019C131.389 52.4273 132.591 50.5051 134.399 49.2193C138.367 46.3621 143.439 47.5654 146.455 52.0648Z" fill="#04A427"/>
</svg>
