<svg width="102" height="42" viewBox="0 0 102 42" fill="none" xmlns="http://www.w3.org/2000/svg">
<path opacity="0.07" fill-rule="evenodd" clip-rule="evenodd" d="M88.9343 18.5901C90.7047 17.8642 91.2356 15.3584 90.6117 13.3505C89.9625 11.1911 88.2749 10.0993 86.5929 10.764C84.8525 11.4463 84.1747 13.6462 84.8107 15.6545C85.3604 17.6406 87.1937 19.2863 88.9343 18.5901ZM95.5662 15.9025C94.8781 15.4481 94.066 15.3353 93.2789 15.5801C91.5491 16.1262 90.6667 18.1131 91.1778 20.2987C91.6317 22.3569 93.3361 24.0514 95.1362 23.4882C96.9292 22.9219 97.6577 20.4198 97.1543 18.4157C96.8945 17.2977 96.3279 16.4067 95.5662 15.9025ZM83.2563 21.6467C82.6286 22.0808 81.8931 22.1879 81.1461 21.9713C78.3569 21.1699 76.8595 16.4154 79.5811 14.5384C82.2164 12.7421 84.8939 16.0573 84.5731 19.1442C84.4624 20.2278 83.9847 21.1379 83.2563 21.6467ZM86.8991 22.1748C83.9615 23.8107 84.0713 32.398 84.9217 34.9096C86.2889 38.2771 89.3725 36.7825 92.1902 35.218L92.1951 35.2154C92.4145 35.0915 92.6334 34.9707 92.85 34.8511L92.8503 34.8509C94.7042 33.8275 96.394 32.8945 96.8601 30.9453C97.0128 30.217 96.9256 29.4392 96.5982 28.6256C95.5003 26.2817 89.8467 20.6229 86.8991 22.1748ZM82.8414 24.8374C83.4716 25.8866 83.7306 27.1356 83.5512 28.27C83.4114 29.1631 83.0025 29.9193 82.405 30.3989C80.8709 31.6232 78.7486 30.6622 77.7494 28.918C77.1796 27.96 76.95 26.8876 77.1069 25.8891C77.2493 24.9877 77.6954 24.1909 78.3665 23.6579C79.8393 22.4735 81.7222 22.9723 82.8414 24.8374Z" fill="#04A427"/>
<path opacity="0.04" fill-rule="evenodd" clip-rule="evenodd" d="M25.69 17.027C28.1957 18.1392 30.8958 16.2884 31.9407 13.7352C33.0876 11.0117 32.2182 8.24841 29.8587 7.16774C27.4221 6.04446 24.8259 7.45352 23.7935 10.0194C22.6881 12.476 23.2411 15.9167 25.69 17.027ZM35.0538 21.2239C34.7072 20.0884 33.9374 19.1526 32.8896 18.5837C30.5803 17.3411 27.9473 18.3383 26.6309 20.946C25.362 23.3738 25.736 26.7296 28.1349 28.0275C30.5289 29.3152 33.4366 27.6693 34.6066 25.2426C35.2818 23.9104 35.4365 22.482 35.0538 21.2239ZM17.0355 14.1547C15.9966 13.929 15.1211 13.2813 14.5092 12.3128C12.2179 8.70344 14.6705 2.63735 19.1709 3.62061C23.5104 4.59299 23.5418 10.4884 20.5708 13.1083C19.5298 14.03 18.2454 14.4116 17.0355 14.1547ZM20.4703 18.3731C15.9451 16.9393 8.7487 25.2496 7.51635 28.5145C6.1061 33.1236 10.6667 34.8412 15.0033 36.2208L15.0108 36.2233C15.3501 36.3288 15.6862 36.4366 16.0189 36.5433L16.0197 36.5435C18.8679 37.4568 21.4642 38.2894 23.6212 36.9037C24.4042 36.3641 24.9737 35.5326 25.3174 34.422C26.1431 31.0647 24.9347 19.8972 20.4703 18.3731ZM13.8749 16.7816C13.6534 18.426 12.8658 19.8825 11.7084 20.7826C10.7987 21.4927 9.71871 21.7976 8.6732 21.6462C5.99492 21.2507 4.55053 18.169 4.97067 15.485C5.17901 13.9893 5.84762 12.7315 6.86524 11.9381C7.78479 11.2227 8.93896 10.9169 10.1084 11.0924C12.6875 11.4636 14.2701 13.8597 13.8749 16.7816Z" fill="#04A427"/>
</svg>
