<svg width="316" height="341" viewBox="0 0 316 341" fill="none" xmlns="http://www.w3.org/2000/svg">
<path opacity="0.04" fill-rule="evenodd" clip-rule="evenodd" d="M283.806 37.4143C289.779 39.8632 296.104 35.5303 298.485 29.6536C301.102 23.3837 298.943 17.0984 293.319 14.7161C287.509 12.2392 281.414 15.5582 279.063 21.4634C276.535 27.1215 277.969 34.9675 283.806 37.4143ZM306.125 46.6557C305.263 44.0724 303.407 41.9616 300.906 40.7004C295.394 37.9459 289.197 40.3244 286.175 46.3359C283.259 51.9344 284.265 59.5929 289.992 62.4704C295.706 65.3248 302.53 61.4527 305.212 55.8607C306.762 52.7894 307.076 49.5177 306.125 46.6557ZM263.215 31.1723C260.747 30.6952 258.651 29.2471 257.167 27.0558C251.612 18.8895 257.199 4.92821 267.889 7.00756C278.197 9.06808 278.485 22.546 271.546 28.6473C269.115 30.7937 266.088 31.7145 263.215 31.1723ZM271.497 40.6843C260.732 37.576 243.996 56.8461 241.197 64.357C238.025 74.9479 248.884 78.704 259.2 81.6958L259.218 81.7011C260.026 81.9298 260.826 82.1638 261.618 82.3954L261.618 82.3954C268.394 84.3768 274.571 86.183 279.627 82.9339C281.461 81.6709 282.779 79.7484 283.553 77.1964C285.386 69.4893 282.121 44.0016 271.497 40.6843ZM255.826 37.2916C255.361 41.0595 253.55 44.4191 250.842 46.5204C248.714 48.1781 246.169 48.9158 243.688 48.6089C237.333 47.8049 233.802 40.8132 234.699 34.6608C235.139 31.2334 236.676 28.3324 239.056 26.4803C241.207 24.8103 243.929 24.0678 246.703 24.4252C252.823 25.177 256.656 30.5962 255.826 37.2916Z" fill="#04A427"/>
<path opacity="0.07" fill-rule="evenodd" clip-rule="evenodd" d="M71.0776 152.831C77.9937 155.901 85.4464 150.793 88.3305 143.745C91.496 136.228 89.0963 128.601 82.5839 125.619C75.8587 122.518 68.6928 126.407 65.8432 133.489C62.7923 140.27 64.3186 149.767 71.0776 152.831ZM96.9186 164.414C95.9618 161.279 93.837 158.697 90.9452 157.127C84.5713 153.697 77.3039 156.449 73.6705 163.647C70.1681 170.348 71.2003 179.61 77.8217 183.192C84.4292 186.746 92.4548 182.204 95.6842 175.506C97.5478 171.829 97.9747 167.886 96.9186 164.414ZM47.1893 144.905C44.3217 144.282 41.9054 142.494 40.2165 139.821C33.8923 129.859 40.6617 113.116 53.0833 115.83C65.0608 118.514 65.1474 134.786 56.947 142.017C54.074 144.561 50.5288 145.614 47.1893 144.905ZM56.667 156.547C44.1768 152.589 24.3141 175.527 20.9126 184.538C17.0202 197.26 29.6079 202 41.5775 205.808L41.598 205.815C42.5352 206.106 43.4638 206.404 44.3828 206.699C52.2442 209.22 59.4102 211.518 65.3638 207.693C67.525 206.204 69.0968 203.909 70.0456 200.843C72.3245 191.577 68.9892 160.753 56.667 156.547ZM38.4642 152.152C37.8528 156.691 35.679 160.711 32.4844 163.195C29.9735 165.155 26.9926 165.997 24.1069 165.579C16.7145 164.487 12.7279 155.981 13.8875 148.573C14.4625 144.445 16.308 140.973 19.1167 138.783C21.6548 136.809 24.8404 135.965 28.0682 136.449C35.1867 137.474 39.555 144.087 38.4642 152.152Z" fill="#04A427"/>
<path opacity="0.05" fill-rule="evenodd" clip-rule="evenodd" d="M186.539 273.251C192.623 271.017 194.448 263.307 192.304 257.128C190.073 250.483 184.273 247.123 178.493 249.169C172.512 251.268 170.183 258.038 172.368 264.218C174.257 270.329 180.558 275.393 186.539 273.251ZM209.332 264.974C206.967 263.576 204.176 263.229 201.472 263.982C195.527 265.663 192.495 271.777 194.251 278.502C195.811 284.836 201.668 290.05 207.854 288.317C214.016 286.574 216.52 278.875 214.789 272.708C213.897 269.268 211.95 266.526 209.332 264.974ZM167.031 282.652C164.874 283.988 162.346 284.317 159.779 283.651C150.194 281.185 145.048 266.554 154.401 260.778C163.457 255.251 172.659 265.452 171.556 274.951C171.176 278.286 169.534 281.086 167.031 282.652ZM179.545 284.279C169.45 289.313 169.828 315.737 172.75 323.466C177.448 333.828 188.045 329.229 197.728 324.415L197.745 324.407C198.499 324.025 199.252 323.653 199.997 323.285C206.368 320.136 212.175 317.265 213.777 311.267C214.301 309.026 214.002 306.632 212.876 304.129C209.103 296.916 189.675 279.503 179.545 284.279ZM165.604 292.477C167.77 295.705 168.66 299.549 168.044 303.039C167.563 305.788 166.158 308.115 164.105 309.591C158.833 313.358 151.539 310.401 148.105 305.034C146.147 302.086 145.359 298.786 145.897 295.713C146.387 292.939 147.92 290.487 150.226 288.847C155.288 285.203 161.758 286.737 165.604 292.477Z" fill="#04A427"/>
</svg>
