<svg width="38" height="38" viewBox="0 0 38 38" fill="none" xmlns="http://www.w3.org/2000/svg">
<path d="M-2055 -711H251V-713H-2055V-711ZM252 -710V22039H254V-710H252ZM251 22040H-2055V22042H251V22040ZM-2056 22039V-710H-2058V22039H-2056ZM-2055 22040C-2055.55 22040 -2056 22039.6 -2056 22039H-2058C-2058 22040.7 -2056.66 22042 -2055 22042V22040ZM252 22039C252 22039.6 251.552 22040 251 22040V22042C252.657 22042 254 22040.7 254 22039H252ZM251 -711C251.552 -711 252 -710.552 252 -710H254C254 -711.657 252.657 -713 251 -713V-711ZM-2055 -713C-2056.66 -713 -2058 -711.656 -2058 -710H-2056C-2056 -710.552 -2055.55 -711 -2055 -711V-713Z" fill="black" fill-opacity="0.1"/>
<path d="M32.8765 16.217C32.8765 26.372 18.9382 35.85 18.9382 35.85C18.9382 35.85 5 26.372 5 16.217C5 12.4464 6.46849 8.83027 9.08242 6.16407C11.6963 3.49786 15.2416 2 18.9382 2C22.6349 2 26.1802 3.49786 28.7941 6.16407C31.408 8.83027 32.8765 12.4464 32.8765 16.217Z" stroke="#04A427" stroke-width="2.65625" stroke-linecap="round" stroke-linejoin="round"/>
<path d="M18.9368 19.5962C20.7696 19.5962 22.2554 18.0807 22.2554 16.2112C22.2554 14.3417 20.7696 12.8262 18.9368 12.8262C17.104 12.8262 15.6182 14.3417 15.6182 16.2112C15.6182 18.0807 17.104 19.5962 18.9368 19.5962Z" fill="#04A427" stroke="#04A427" stroke-width="2.65625" stroke-linecap="round" stroke-linejoin="round"/>
</svg>
