<svg width="106" height="156" viewBox="0 0 106 156" fill="none" xmlns="http://www.w3.org/2000/svg">
<path opacity="0.06" fill-rule="evenodd" clip-rule="evenodd" d="M73.6074 20.7344C75.3496 17.6383 73.2369 13.3774 70.0157 11.1715C66.5833 8.77431 62.8679 9.12781 61.1837 12.0331C59.4349 15.0312 60.9814 19.0157 64.2207 21.2083C67.3086 23.4677 71.8741 23.7532 73.6074 20.7344ZM80.1682 9.17819C78.6426 9.30885 77.3299 10.08 76.4657 11.3431C74.5753 14.1305 75.5786 18.0406 78.84 20.635C81.8716 23.1098 86.3055 23.6148 88.2785 20.7212C90.2375 17.8315 88.4168 13.3483 85.3755 11.0094C83.7096 9.68037 81.8582 9.03534 80.1682 9.17819ZM68.8586 31.7191C68.4443 33.0742 67.4965 34.0774 66.1592 34.6222C61.174 36.6674 53.5172 31.4676 55.3191 25.5993C57.0884 19.9481 64.8062 21.6926 67.8942 26.5578C68.981 28.2635 69.3334 30.1392 68.8586 31.7191ZM74.7702 28.2961C72.376 34.0619 82.4261 46.442 86.5571 49.1204C92.4267 52.4502 95.1964 46.7221 97.4982 41.1983L97.5023 41.1888C97.6792 40.7557 97.8588 40.3277 98.0366 39.904L98.0368 39.9035C99.558 36.2777 100.945 32.9727 99.3785 29.5971C98.7621 28.3606 97.7392 27.3282 96.3254 26.5204C92.0268 24.3712 77.2756 22.641 74.7702 28.2961ZM71.9306 36.8488C74.0569 37.6509 75.8726 39.1717 76.9178 41.0304C77.7428 42.4922 78.0182 44.0645 77.7004 45.4512C76.8761 49.001 72.6783 50.0458 69.2144 48.6563C67.2811 47.9174 65.7117 46.6199 64.7901 44.985C63.9594 43.5081 63.6914 41.834 64.0549 40.2848C64.8358 36.8635 68.1525 35.4214 71.9306 36.8488Z" fill="#04A427"/>
<path opacity="0.06" fill-rule="evenodd" clip-rule="evenodd" d="M36.0615 113.429C40.1415 112.564 41.3879 107.649 39.9726 103.347C38.5007 98.7284 34.6291 95.9228 30.7527 96.6937C26.7422 97.4802 25.1609 101.722 26.6039 106.029C27.8487 110.261 32.05 114.244 36.0615 113.429ZM51.3473 110.249C49.7688 109.087 47.9015 108.576 46.0884 108.802C42.1034 109.315 40.0536 113.054 41.2076 117.678C42.2314 122.023 46.1355 126.061 50.2824 125.537C54.4129 125.005 56.1139 120.165 54.9757 115.913C54.3892 113.548 53.0946 111.539 51.3473 110.249ZM22.9708 117.683C21.5223 118.349 19.8292 118.313 18.1129 117.613C11.7041 115.018 8.30643 104.825 14.5865 101.946C20.6671 99.2024 26.794 106.875 26.0251 113.045C25.7597 115.212 24.6515 116.899 22.9708 117.683ZM31.3432 120.016C24.5688 122.329 24.7358 139.841 26.6671 145.246C29.7788 152.572 36.8879 150.597 43.3858 148.388L43.3971 148.384C43.9033 148.208 44.4083 148.038 44.908 147.869C49.1833 146.428 53.0803 145.114 54.1719 141.308C54.5304 139.879 54.3376 138.266 53.5924 136.497C51.0899 131.348 38.1398 117.877 31.3432 120.016ZM21.9837 124.036C23.4233 126.389 24.0067 129.02 23.5826 131.266C23.2521 133.036 22.3038 134.433 20.9244 135.202C17.3829 137.163 12.5099 134.473 10.2286 130.579C8.9272 128.432 8.40985 126.17 8.78061 124.193C9.11725 122.408 10.1514 120.94 11.7006 120.088C15.1009 118.187 19.4275 119.853 21.9837 124.036Z" fill="#04A427"/>
</svg>
