<svg width="1440" height="2360" fill="none" xmlns="http://www.w3.org/2000/svg"><path opacity=".04" fill-rule="evenodd" clip-rule="evenodd" d="M483.368 44.898c7.167 2.938 14.757-2.261 17.615-9.313 3.14-7.524.55-15.066-6.2-17.925-6.971-2.972-14.285 1.01-17.107 8.097-3.033 6.79-1.313 16.204 5.692 19.14Zm26.781 11.09c-1.034-3.1-3.262-5.632-6.263-7.145-6.615-3.306-14.051-.452-17.678 6.762-3.499 6.718-2.291 15.909 4.581 19.362 6.856 3.425 15.045-1.222 18.264-7.932 1.86-3.686 2.237-7.612 1.096-11.046Zm-51.493-18.581c-2.961-.573-5.476-2.31-7.256-4.94-6.666-9.8.037-26.553 12.865-24.058 12.371 2.473 12.716 18.646 4.389 25.968-2.917 2.576-6.549 3.68-9.998 3.03Zm9.938 11.418c-12.918-3.73-33.001 19.394-36.36 28.407-3.806 12.71 9.225 17.217 21.605 20.807l.021.006c.969.275 1.929.555 2.88.833 8.131 2.378 15.543 4.546 21.611.647 2.201-1.516 3.782-3.823 4.711-6.885 2.199-9.249-1.719-39.834-14.468-43.815ZM449.79 44.75c-.558 4.522-2.732 8.553-5.981 11.075-2.553 1.989-5.608 2.874-8.585 2.506-7.626-.965-11.863-9.355-10.786-16.738.527-4.113 2.372-7.594 5.228-9.817 2.582-2.004 5.847-2.895 9.177-2.466 7.343.903 11.943 7.406 10.947 15.44Z" fill="#04A427"/><path opacity=".03" fill-rule="evenodd" clip-rule="evenodd" d="M388.947 453.384c7.615-1.419 11.17-9.905 9.745-17.379-1.444-8.024-7.711-12.955-14.932-11.695-7.469 1.285-11.453 8.598-9.979 16.082 1.135 7.349 7.688 14.325 15.166 12.992Zm28.513-5.212c-2.55-2.043-5.796-2.963-9.138-2.606-7.35.811-12.049 7.243-11.182 15.271.705 7.542 6.705 14.607 14.351 13.78 7.619-.842 11.977-9.188 11.041-16.571-.437-4.106-2.25-7.608-5.072-9.874Zm-53.336 12.325c-2.798 1.126-5.854 1.03-8.776-.213-10.916-4.616-14.373-22.327-2.243-27.189 11.733-4.634 20.797 8.766 17.774 19.433-1.053 3.747-3.505 6.645-6.755 7.969Zm14.542 4.201c-12.876 3.874-17.202 34.194-15.135 43.588 3.697 12.741 17.089 9.459 29.436 5.759l.022-.006c.963-.295 1.922-.58 2.871-.862v-.001c8.121-2.413 15.523-4.613 18.505-11.18 1.027-2.467 1.104-5.263.223-8.34-3.169-8.962-23.053-32.53-35.922-28.958Zm-18.007 6.778c1.984 4.101 2.345 8.667.983 12.548-1.066 3.056-3.152 5.457-5.852 6.763-6.93 3.326-15.041-1.423-18.141-8.21-1.789-3.741-2.128-7.666-.934-11.083 1.082-3.083 3.342-5.603 6.372-7.05 6.658-3.225 14.05-.257 17.572 7.032Z" fill="#04A427"/><path opacity=".07" fill-rule="evenodd" clip-rule="evenodd" d="M228.095 209.807c8.3 3.683 17.243-2.447 20.704-10.903 3.798-9.021.919-18.173-6.896-21.753-8.07-3.72-16.67.947-20.089 9.445-3.661 8.137-1.829 19.533 6.281 23.211Zm31.01 13.896c-1.148-3.762-3.698-6.861-7.168-8.745-7.648-4.116-16.369-.813-20.729 7.824-4.203 8.041-2.965 19.156 4.981 23.455 7.929 4.265 17.56-1.187 21.435-9.224 2.236-4.412 2.749-9.144 1.481-13.31Zm-59.676-23.41c-3.441-.747-6.34-2.893-8.367-6.1-7.589-11.955.534-32.047 15.44-28.79 14.373 3.221 14.477 22.747 4.637 31.425-3.448 3.052-7.702 4.316-11.71 3.465Zm11.373 13.971c-14.988-4.748-38.823 22.776-42.905 33.59-4.671 15.266 10.434 20.955 24.798 25.524l.024.009c1.124.349 2.238.706 3.34 1.059l.002.001c9.434 3.025 18.033 5.783 25.177 1.193 2.594-1.787 4.48-4.541 5.618-8.219 2.735-11.12-1.267-48.109-16.054-53.157Zm-21.843-5.277c-.733 5.446-3.342 10.27-7.176 13.251-3.013 2.352-6.59 3.362-10.053 2.861-8.87-1.31-13.654-11.517-12.263-20.407.69-4.954 2.905-9.12 6.275-11.748 3.046-2.369 6.869-3.382 10.742-2.801 8.542 1.23 13.784 9.166 12.475 18.844Z" fill="#04A427"/><path opacity=".04" fill-rule="evenodd" clip-rule="evenodd" d="M286.095 1828.2c8.3 3.69 17.243-2.44 20.704-10.9 3.798-9.02.919-18.17-6.896-21.75-8.07-3.72-16.669.94-20.089 9.44-3.661 8.14-1.829 19.54 6.281 23.21Zm31.01 13.9c-1.148-3.76-3.697-6.86-7.168-8.75-7.648-4.11-16.369-.81-20.729 7.83-4.203 8.04-2.965 19.15 4.981 23.45 7.929 4.27 17.56-1.18 21.435-9.22 2.236-4.41 2.749-9.14 1.481-13.31Zm-59.676-23.41c-3.441-.75-6.34-2.89-8.367-6.1-7.589-11.96.534-32.05 15.44-28.79 14.373 3.22 14.477 22.75 4.637 31.42-3.448 3.06-7.702 4.32-11.71 3.47Zm11.373 13.97c-14.988-4.75-38.823 22.78-42.905 33.59-4.671 15.27 10.434 20.96 24.798 25.52l.024.01c1.124.35 2.238.71 3.34 1.06h.002c9.434 3.03 18.033 5.79 25.177 1.2 2.594-1.79 4.48-4.54 5.619-8.22 2.734-11.12-1.268-48.11-16.055-53.16Zm-21.843-5.28c-.733 5.45-3.342 10.27-7.176 13.25-3.013 2.36-6.59 3.37-10.052 2.87-8.871-1.31-13.655-11.52-12.264-20.41.69-4.96 2.905-9.12 6.275-11.75 3.046-2.37 6.869-3.38 10.742-2.8 8.542 1.23 13.784 9.17 12.475 18.84Z" fill="#04A427"/><path opacity=".09" fill-rule="evenodd" clip-rule="evenodd" d="M184.842 2191.09c5.544 2.75 11.518-1.83 13.83-8.14 2.537-6.72.613-13.55-4.607-16.22-5.391-2.78-11.135.7-13.419 7.04-2.445 6.07-1.222 14.57 4.196 17.32Zm20.714 10.36c-.767-2.8-2.47-5.11-4.788-6.52-5.109-3.07-10.935-.61-13.847 5.84-2.808 6-1.98 14.29 3.327 17.49 5.297 3.19 11.73-.88 14.318-6.88 1.494-3.29 1.837-6.82.99-9.93Zm-39.862-17.46c-2.299-.56-4.235-2.16-5.589-4.55-5.07-8.92.357-23.91 10.314-21.48 9.6 2.41 9.67 16.97 3.097 23.45-2.303 2.27-5.145 3.22-7.822 2.58Zm7.597 10.42c-10.012-3.54-25.934 16.99-28.66 25.06-3.12 11.39 6.97 15.63 16.565 19.04l.016.01c.751.26 1.495.52 2.232.79 6.302 2.25 12.046 4.31 16.818.89 1.733-1.34 2.993-3.39 3.753-6.13 1.827-8.3-.847-35.89-10.724-39.66Zm-14.591-3.94c-.49 4.07-2.233 7.67-4.794 9.89-2.012 1.76-4.402 2.51-6.715 2.13-5.925-.97-9.121-8.59-8.192-15.22.461-3.69 1.941-6.8 4.192-8.76 2.035-1.77 4.588-2.53 7.175-2.09 5.707.91 9.208 6.84 8.334 14.05Z" fill="#04A427"/><path opacity=".05" fill-rule="evenodd" clip-rule="evenodd" d="M366.652 354.308c7.301-2.68 9.49-11.933 6.917-19.348-2.677-7.973-9.636-12.005-16.573-9.551-7.176 2.52-9.972 10.643-7.349 18.059 2.267 7.334 9.827 13.411 17.005 10.84Zm27.352-9.933c-2.837-1.678-6.187-2.094-9.432-1.19-7.134 2.016-10.772 9.353-8.665 17.424 1.872 7.6 8.9 13.857 16.324 11.777 7.394-2.091 10.398-11.33 8.322-18.731-1.071-4.128-3.408-7.418-6.549-9.28Zm-50.762 21.215c-2.589 1.603-5.622 1.998-8.702 1.198-11.502-2.959-17.678-20.515-6.454-27.447 10.867-6.633 21.909 5.609 20.586 17.008-.456 4.001-2.426 7.362-5.43 9.241Zm15.018 1.949c-12.114 6.041-11.661 37.75-8.154 47.025 5.638 12.434 18.354 6.915 29.974 1.138l.02-.009c.905-.458 1.808-.904 2.702-1.346 7.645-3.779 14.614-7.224 16.536-14.422.63-2.689.27-5.562-1.08-8.566-4.528-8.655-27.842-29.551-39.998-23.82Zm-16.73 9.839c2.599 3.874 3.667 8.487 2.927 12.675-.576 3.298-2.262 6.091-4.726 7.862-6.327 4.52-15.079.972-19.199-5.469-2.35-3.537-3.297-7.497-2.65-11.184a12.783 12.783 0 0 1 5.195-8.239c6.073-4.374 13.838-2.532 18.453 4.355Z" fill="#04A427"/><path opacity=".04" fill-rule="evenodd" clip-rule="evenodd" d="M395.652 2015.31c7.301-2.68 9.49-11.94 6.918-19.35-2.677-7.97-9.637-12.01-16.573-9.55-7.177 2.52-9.972 10.64-7.35 18.06 2.267 7.33 9.827 13.41 17.005 10.84Zm27.352-9.93c-2.837-1.68-6.186-2.1-9.432-1.2-7.133 2.02-10.772 9.36-8.665 17.43 1.872 7.6 8.901 13.86 16.324 11.78 7.394-2.09 10.398-11.33 8.322-18.73-1.071-4.13-3.408-7.42-6.549-9.28Zm-50.762 21.21c-2.588 1.6-5.622 2-8.702 1.2-11.502-2.96-17.677-20.52-6.454-27.45 10.868-6.63 21.909 5.61 20.586 17.01-.456 4-2.426 7.36-5.43 9.24Zm15.019 1.95c-12.114 6.04-11.662 37.75-8.155 47.02 5.638 12.44 18.355 6.92 29.974 1.14l.02-.01c.906-.45 1.809-.9 2.702-1.34 7.645-3.78 14.614-7.23 16.536-14.43.63-2.68.27-5.56-1.08-8.56-4.528-8.66-27.842-29.55-39.997-23.82Zm-16.731 9.84c2.599 3.87 3.668 8.48 2.928 12.67-.577 3.3-2.263 6.09-4.727 7.87-6.327 4.52-15.079.97-19.199-5.47-2.35-3.54-3.296-7.5-2.65-11.19a12.791 12.791 0 0 1 5.195-8.24c6.073-4.37 13.838-2.53 18.453 4.36Z" fill="#04A427"/><path opacity=".07" fill-rule="evenodd" clip-rule="evenodd" d="M273.387 2298.99c4.877-2 6.34-8.9 4.621-14.43-1.788-5.95-6.437-8.96-11.07-7.12-4.794 1.88-6.662 7.94-4.91 13.47 1.514 5.47 6.565 10 11.359 8.08Zm18.271-7.4c-1.895-1.26-4.132-1.57-6.3-.89-4.765 1.5-7.196 6.98-5.788 13 1.25 5.67 5.945 10.33 10.904 8.78 4.939-1.56 6.946-8.45 5.559-13.97-.716-3.08-2.277-5.54-4.375-6.92Zm-33.908 15.82c-1.729 1.2-3.755 1.49-5.813.9-7.683-2.21-11.808-15.31-4.311-20.48 7.259-4.95 14.635 4.18 13.751 12.69-.305 2.98-1.621 5.49-3.627 6.89Zm10.033 1.46c-8.092 4.5-7.79 28.16-5.448 35.08 3.767 9.27 12.261 5.15 20.023.84h.013c.605-.34 1.208-.68 1.805-1.01 5.107-2.82 9.762-5.39 11.046-10.76.42-2 .18-4.14-.722-6.39-3.024-6.45-18.598-22.04-26.717-17.76Zm-11.176 7.33c1.736 2.89 2.449 6.33 1.955 9.46-.385 2.46-1.512 4.54-3.157 5.86-4.226 3.38-10.073.73-12.825-4.08-1.57-2.63-2.202-5.59-1.77-8.34.392-2.48 1.621-4.68 3.47-6.15 4.057-3.26 9.244-1.88 12.327 3.25ZM1136.47 1983.34c2.36-4.84-.97-11.01-5.81-13.96-5.15-3.22-10.55-2.27-12.84 2.29-2.38 4.7.11 10.51 4.97 13.44 4.64 3.05 11.33 2.97 13.68-1.77Zm8.9-18.1c-2.22.37-4.09 1.67-5.28 3.67-2.59 4.4-.9 10.16 4.02 13.7 4.57 3.37 11.07 3.63 13.78-.94 2.69-4.56-.23-11.09-4.81-14.27-2.51-1.81-5.25-2.57-7.71-2.16Zm-15.19 35.15c-.53 2.08-1.85 3.7-3.77 4.67-7.16 3.63-18.65-3.32-16.36-12.34 2.25-8.69 13.62-6.94 18.42.02 1.69 2.44 2.31 5.22 1.71 7.65Zm8.43-5.81c-3.16 8.93 12.25 26.41 18.44 29.97 8.76 4.34 12.47-4.58 15.51-13.14v-.01c.23-.68.47-1.34.71-2 2.01-5.62 3.84-10.74 1.35-15.64-.97-1.78-2.53-3.22-4.64-4.28-6.4-2.74-28.04-3.68-31.37 5.1Zm-3.64 13.17c3.15.97 5.89 3.05 7.52 5.72 1.3 2.11 1.79 4.44 1.41 6.56-1 5.43-7.07 7.47-12.21 5.77-2.86-.89-5.23-2.67-6.67-5.02-1.3-2.13-1.79-4.61-1.35-6.98.94-5.23 5.7-7.77 11.3-6.05ZM1275.05 2002.22c5.91-1.76 7.44-9.29 5.12-15.6-2.42-6.77-8.23-10.55-13.85-8.96-5.81 1.64-7.87 8.19-5.51 14.5 2.07 6.22 8.43 11.73 14.24 10.06Zm22.14-6.5c-2.37-1.57-5.13-2.13-7.76-1.59-5.79 1.22-8.57 7.07-6.61 13.89 1.75 6.42 7.69 12.04 13.71 10.79 6-1.26 8.2-8.73 6.29-14.99-1-3.49-3-6.36-5.63-8.1Zm-41 14.36c-2.08 1.16-4.55 1.3-7.1.44-9.51-3.18-15.07-18.11-6.07-23.14 8.72-4.81 18.12 6.03 17.36 15.39-.26 3.28-1.78 5.94-4.19 7.31Zm12.36 2.56c-9.75 4.24-8.48 30.54-5.34 38.45 4.97 10.66 15.23 6.89 24.59 2.84l.02-.01c.73-.32 1.46-.63 2.18-.94 6.15-2.65 11.77-5.06 13.14-10.91.44-2.18.06-4.59-1.13-7.16-3.96-7.46-23.66-26.24-33.46-22.27Zm-13.43 7.1c2.24 3.37 3.25 7.26 2.76 10.68-.38 2.7-1.68 4.91-3.65 6.22-5.06 3.34-12.33-.15-15.89-5.75-2.03-3.08-2.91-6.42-2.49-9.43.39-2.72 1.81-5.04 4.02-6.5 4.86-3.24 11.27-1.22 15.25 4.78Z" fill="#04A427"/></svg>