<svg width="1200" height="1945" fill="none" xmlns="http://www.w3.org/2000/svg"><path opacity=".04" fill-rule="evenodd" clip-rule="evenodd" d="M402.806 37.415c5.973 2.45 12.298-1.884 14.679-7.76 2.617-6.27.458-12.556-5.166-14.938-5.81-2.477-11.905.842-14.256 6.747-2.528 5.659-1.094 13.504 4.743 15.951Zm22.319 9.242c-.862-2.584-2.718-4.694-5.219-5.956-5.512-2.754-11.709-.376-14.731 5.636-2.916 5.598-1.91 13.257 3.817 16.134 5.714 2.855 12.538-1.017 15.22-6.61 1.55-3.07 1.864-6.342.913-9.204Zm-42.91-15.484c-2.468-.477-4.564-1.925-6.048-4.116-5.555-8.167.032-22.128 10.722-20.048 10.308 2.06 10.596 15.538 3.657 21.64-2.431 2.146-5.458 3.066-8.331 2.524Zm8.282 9.512c-10.765-3.108-27.501 16.162-30.3 23.673-3.172 10.59 7.687 14.347 18.003 17.339l.018.005c.808.229 1.608.463 2.4.694 6.776 1.982 12.953 3.788 18.009.539 1.834-1.263 3.152-3.186 3.926-5.738 1.833-7.707-1.432-33.194-12.056-36.512Zm-15.671-3.392c-.465 3.767-2.276 7.127-4.984 9.228-2.128 1.658-4.673 2.396-7.154 2.089-6.355-.804-9.886-7.796-8.989-13.948.44-3.428 1.977-6.329 4.357-8.18 2.151-1.67 4.873-2.413 7.647-2.056 6.12.752 9.953 6.171 9.123 12.867Z" fill="#04A427"/><path opacity=".03" fill-rule="evenodd" clip-rule="evenodd" d="M324.121 377.819c6.346-1.182 9.309-8.254 8.122-14.482-1.204-6.687-6.426-10.796-12.444-9.746-6.224 1.071-9.544 7.165-8.316 13.402.946 6.124 6.407 11.938 12.638 10.826Zm23.761-4.343c-2.125-1.703-4.829-2.469-7.615-2.172-6.124.677-10.04 6.037-9.318 12.726.588 6.285 5.588 12.173 11.959 11.483 6.349-.701 9.981-7.656 9.201-13.809-.364-3.421-1.875-6.34-4.227-8.228Zm-44.445 10.273c-2.332.938-4.878.859-7.314-.177-9.096-3.847-11.977-18.606-1.869-22.658 9.778-3.862 17.331 7.305 14.812 16.194-.878 3.122-2.921 5.538-5.629 6.641Zm12.117 3.499c-10.729 3.229-14.335 28.496-12.612 36.324 3.081 10.617 14.241 7.882 24.53 4.799l.018-.005a293.87 293.87 0 0 1 2.393-.719c6.767-2.011 12.936-3.845 15.421-9.317.855-2.056.92-4.386.185-6.95-2.641-7.468-19.21-27.109-29.935-24.132Zm-15.005 5.651c1.653 3.417 1.954 7.223.819 10.457-.888 2.547-2.627 4.547-4.877 5.635-5.775 2.772-12.534-1.186-15.117-6.841-1.491-3.118-1.773-6.389-.778-9.236.901-2.57 2.784-4.67 5.309-5.875 5.549-2.688 11.709-.215 14.644 5.86Z" fill="#04A427"/><path opacity=".07" fill-rule="evenodd" clip-rule="evenodd" d="M190.078 152.832c6.916 3.07 14.368-2.039 17.252-9.086 3.166-7.517.766-15.144-5.746-18.127-6.725-3.1-13.891.789-16.741 7.871-3.051 6.781-1.524 16.277 5.235 19.342Zm25.841 11.582c-.957-3.134-3.082-5.717-5.974-7.287-6.374-3.43-13.641-.677-17.275 6.52-3.502 6.701-2.47 15.964 4.152 19.546 6.607 3.554 14.633-.989 17.862-7.686 1.864-3.678 2.291-7.62 1.235-11.093Zm-49.73-19.508c-2.867-.623-5.284-2.411-6.973-5.084-6.324-9.962.446-26.705 12.867-23.991 11.978 2.683 12.064 18.955 3.864 26.187-2.873 2.544-6.418 3.597-9.758 2.888Zm9.478 11.641c-12.49-3.957-32.353 18.98-35.754 27.992-3.893 12.721 8.695 17.462 20.664 21.27l.021.007c.937.291 1.866.589 2.785.884 7.861 2.521 15.027 4.818 20.981.994 2.161-1.489 3.733-3.785 4.682-6.85 2.279-9.266-1.057-40.09-13.379-44.297Zm-18.203-4.394c-.611 4.538-2.785 8.559-5.98 11.043-2.511 1.96-5.491 2.801-8.377 2.384-7.392-1.092-11.379-9.598-10.22-17.006.576-4.128 2.421-7.6 5.23-9.79a11.653 11.653 0 0 1 8.951-2.334c7.119 1.024 11.487 7.638 10.396 15.703Z" fill="#04A427"/><path opacity=".04" fill-rule="evenodd" clip-rule="evenodd" d="M238.41 1501.5c6.916 3.07 14.368-2.04 17.253-9.09 3.165-7.51.765-15.14-5.747-18.12-6.725-3.11-13.891.78-16.741 7.87-3.051 6.78-1.524 16.27 5.235 19.34Zm25.841 11.58a12.38 12.38 0 0 0-5.974-7.29c-6.374-3.43-13.641-.67-17.274 6.52-3.503 6.7-2.471 15.97 4.151 19.55 6.607 3.55 14.633-.99 17.862-7.69 1.864-3.67 2.291-7.62 1.235-11.09Zm-49.73-19.51c-2.867-.62-5.284-2.41-6.972-5.08-6.325-9.96.445-26.71 12.866-23.99 11.978 2.68 12.064 18.95 3.864 26.18-2.873 2.55-6.418 3.6-9.758 2.89Zm9.478 11.64c-12.49-3.95-32.353 18.98-35.754 27.99-3.893 12.73 8.695 17.47 20.665 21.28h.02c.937.29 1.866.59 2.785.89 7.861 2.52 15.027 4.81 20.981.99 2.161-1.49 3.733-3.78 4.682-6.85 2.279-9.27-1.057-40.09-13.379-44.3Zm-18.203-4.39c-.611 4.54-2.785 8.56-5.98 11.04-2.511 1.96-5.491 2.8-8.377 2.39-7.392-1.1-11.379-9.6-10.219-17.01.575-4.13 2.42-7.6 5.229-9.79a11.642 11.642 0 0 1 8.951-2.33c7.119 1.02 11.487 7.63 10.396 15.7Z" fill="#04A427"/><path opacity=".09" fill-rule="evenodd" clip-rule="evenodd" d="M154.031 1803.9c4.62 2.29 9.598-1.52 11.525-6.78 2.114-5.6.511-11.29-3.839-13.52-4.492-2.31-9.279.59-11.182 5.87-2.038 5.06-1.019 12.15 3.496 14.43Zm17.263 8.64c-.639-2.34-2.058-4.26-3.99-5.44-4.258-2.55-9.112-.5-11.539 4.87-2.34 5-1.65 11.91 2.773 14.58 4.413 2.65 9.774-.74 11.931-5.73 1.245-2.75 1.53-5.69.825-8.28Zm-33.219-14.55c-1.915-.47-3.529-1.8-4.657-3.79-4.225-7.43.297-19.92 8.594-17.9 8.001 2 8.059 14.14 2.581 19.54-1.919 1.89-4.287 2.68-6.518 2.15Zm6.331 8.68c-8.343-2.95-21.611 14.16-23.883 20.88-2.6 9.49 5.808 13.03 13.804 15.87l.013.01c.627.21 1.247.44 1.861.65 5.251 1.89 10.038 3.6 14.015.75 1.443-1.11 2.493-2.83 3.127-5.11 1.522-6.92-.706-29.91-8.937-33.05Zm-12.16-3.28c-.408 3.39-1.86 6.39-3.994 8.24-1.677 1.46-3.669 2.09-5.596 1.78-4.938-.82-7.601-7.16-6.827-12.69.385-3.08 1.617-5.67 3.493-7.3 1.696-1.47 3.824-2.1 5.98-1.74 4.755.76 7.673 5.7 6.944 11.71Z" fill="#04A427"/><path opacity=".05" fill-rule="evenodd" clip-rule="evenodd" d="M305.539 273.251c6.084-2.233 7.909-9.944 5.765-16.123-2.231-6.645-8.031-10.004-13.811-7.959-5.981 2.099-8.31 8.869-6.125 15.049 1.889 6.111 8.19 11.176 14.171 9.033Zm22.793-8.276c-2.365-1.399-5.156-1.746-7.86-.992-5.945 1.68-8.977 7.794-7.221 14.52 1.56 6.333 7.417 11.547 13.603 9.814 6.162-1.742 8.666-9.442 6.935-15.609-.892-3.44-2.839-6.182-5.457-7.733Zm-42.301 17.677c-2.157 1.336-4.685 1.666-7.252.999-9.585-2.466-14.731-17.096-5.378-22.872 9.056-5.528 18.258 4.674 17.155 14.173-.38 3.334-2.022 6.135-4.525 7.7Zm12.514 1.627c-10.095 5.034-9.717 31.459-6.795 39.187 4.698 10.362 15.295 5.763 24.978.949l.017-.008c.754-.381 1.507-.753 2.252-1.121 6.371-3.15 12.178-6.021 13.78-12.019.524-2.241.225-4.634-.901-7.138-3.773-7.213-23.201-24.626-33.331-19.85Zm-13.941 8.198c2.166 3.229 3.056 7.072 2.44 10.563-.481 2.748-1.886 5.075-3.939 6.551-5.272 3.767-12.566.81-16-4.557-1.958-2.948-2.746-6.248-2.208-9.321a10.66 10.66 0 0 1 4.329-6.865c5.062-3.645 11.532-2.11 15.378 3.629Z" fill="#04A427"/><path opacity=".04" fill-rule="evenodd" clip-rule="evenodd" d="M329.707 1657.42c6.083-2.23 7.908-9.94 5.764-16.12-2.231-6.65-8.031-10.01-13.811-7.96-5.981 2.1-8.31 8.87-6.125 15.05 1.889 6.11 8.19 11.17 14.172 9.03Zm22.793-8.28c-2.364-1.39-5.155-1.74-7.86-.99-5.945 1.68-8.977 7.8-7.221 14.52 1.56 6.34 7.417 11.55 13.603 9.82 6.162-1.75 8.666-9.45 6.936-15.61-.893-3.44-2.84-6.18-5.458-7.74Zm-42.302 17.68c-2.157 1.34-4.685 1.67-7.251 1-9.586-2.46-14.732-17.09-5.379-22.87 9.056-5.53 18.258 4.67 17.155 14.17-.38 3.34-2.022 6.14-4.525 7.7Zm12.515 1.63c-10.095 5.03-9.717 31.46-6.795 39.19 4.698 10.36 15.295 5.76 24.978.94h.017c.755-.38 1.507-.76 2.252-1.12 6.371-3.15 12.178-6.02 13.78-12.02.524-2.24.225-4.64-.9-7.14-3.773-7.21-23.202-24.63-33.332-19.85Zm-13.941 8.2c2.166 3.23 3.056 7.07 2.44 10.56-.481 2.75-1.886 5.07-3.939 6.55-5.272 3.77-12.566.81-15.999-4.56-1.959-2.94-2.747-6.24-2.208-9.32a10.65 10.65 0 0 1 4.328-6.86c5.062-3.65 11.532-2.11 15.378 3.63Z" fill="#04A427"/><path opacity=".07" fill-rule="evenodd" clip-rule="evenodd" d="M227.821 1893.82c4.064-1.66 5.282-7.41 3.85-12.02-1.49-4.96-5.364-7.47-9.225-5.94-3.995 1.56-5.551 6.61-4.091 11.22 1.261 4.56 5.47 8.34 9.466 6.74Zm15.225-6.17c-1.579-1.04-3.444-1.3-5.25-.74-3.971 1.26-5.997 5.82-4.823 10.83 1.042 4.73 4.954 8.62 9.086 7.33 4.116-1.3 5.788-7.05 4.633-11.65-.596-2.56-1.897-4.61-3.646-5.77Zm-28.257 13.19c-1.441 1-3.129 1.24-4.844.74-6.402-1.84-9.84-12.75-3.592-17.06 6.049-4.12 12.196 3.49 11.459 10.57-.254 2.49-1.351 4.58-3.023 5.75Zm8.36 1.21c-6.743 3.76-6.491 23.47-4.539 29.23 3.139 7.73 10.217 4.3 16.685.71h.011c.504-.29 1.007-.57 1.504-.84h.001c4.255-2.35 8.134-4.49 9.204-8.97.351-1.67.151-3.45-.601-5.32-2.52-5.38-15.498-18.37-22.265-14.81Zm-9.312 6.12c1.447 2.4 2.041 5.27 1.629 7.88-.321 2.05-1.259 3.78-2.631 4.88-3.522 2.81-8.393.61-10.687-3.4-1.308-2.2-1.835-4.66-1.475-6.95.327-2.07 1.351-3.9 2.891-5.12 3.381-2.72 7.704-1.58 10.273 2.71Z" fill="#04A427"/><path fill="#D9D9D9" d="M421.668 175.834h5.833v1.667h-5.833z"/><path opacity=".07" fill-rule="evenodd" clip-rule="evenodd" d="M942.892 1604.29c1.969-4.05-.81-9.18-4.838-11.64-4.294-2.68-8.798-1.89-10.705 1.9-1.982 3.92.095 8.77 4.144 11.21 3.868 2.54 9.438 2.47 11.399-1.47Zm7.419-15.09c-1.85.31-3.41 1.39-4.4 3.06-2.164 3.67-.752 8.47 3.344 11.41 3.81 2.82 9.23 3.03 11.489-.78 2.243-3.8-.192-9.24-4.007-11.89-2.092-1.5-4.377-2.14-6.426-1.8Zm-12.661 29.29c-.438 1.74-1.542 3.08-3.143 3.89-5.966 3.03-15.537-2.76-13.631-10.28 1.876-7.25 11.353-5.78 15.348.02 1.406 2.03 1.927 4.35 1.426 6.37Zm7.026-4.84c-2.632 7.44 10.203 22.01 15.361 24.97 7.305 3.62 10.395-3.81 12.926-10.94l.004-.02c.195-.56.392-1.11.588-1.66 1.674-4.68 3.199-8.95 1.129-13.03-.811-1.49-2.106-2.69-3.866-3.57-5.336-2.28-23.37-3.07-26.142 4.25Zm-3.037 10.97c2.627.81 4.911 2.54 6.273 4.77 1.076 1.76 1.488 3.7 1.169 5.47-.83 4.52-5.887 6.22-10.17 4.81-2.388-.75-4.361-2.23-5.563-4.19-1.083-1.77-1.491-3.84-1.124-5.81.783-4.36 4.748-6.48 9.415-5.05ZM1058.38 1620.01c4.92-1.47 6.2-7.74 4.27-13-2.02-5.64-6.87-8.79-11.55-7.46-4.84 1.36-6.56 6.82-4.59 12.08 1.72 5.18 7.03 9.77 11.87 8.38Zm18.45-5.42c-1.98-1.31-4.28-1.77-6.47-1.32-4.83 1.02-7.14 5.89-5.51 11.58 1.46 5.34 6.41 10.03 11.43 8.99 5-1.06 6.83-7.28 5.24-12.49-.83-2.91-2.51-5.31-4.69-6.76Zm-34.17 11.98c-1.73.97-3.79 1.08-5.91.36-7.93-2.65-12.56-15.09-5.06-19.29 7.26-4 15.09 5.03 14.46 12.83-.22 2.74-1.48 4.96-3.49 6.1Zm10.3 2.13c-8.13 3.53-7.07 25.45-4.45 32.04 4.14 8.88 12.7 5.74 20.49 2.36h.02c.61-.27 1.21-.53 1.81-.79 5.13-2.21 9.81-4.22 10.95-9.09.37-1.82.06-3.82-.94-5.97-3.29-6.21-19.71-21.87-27.88-18.55Zm-11.19 5.91c1.87 2.81 2.71 6.05 2.3 8.91-.32 2.24-1.4 4.08-3.04 5.18-4.22 2.78-10.28-.13-13.24-4.79-1.69-2.57-2.43-5.35-2.08-7.86.32-2.27 1.51-4.21 3.35-5.42 4.05-2.7 9.4-1.02 12.71 3.98Z" fill="#04A427"/></svg>