<svg width="1920" height="2828" fill="none" xmlns="http://www.w3.org/2000/svg"><path opacity=".04" fill-rule="evenodd" clip-rule="evenodd" d="M483.368 44.898c7.167 2.938 14.757-2.261 17.615-9.313 3.14-7.524.55-15.066-6.2-17.925-6.971-2.972-14.285 1.01-17.107 8.097-3.033 6.79-1.313 16.204 5.692 19.14Zm26.781 11.09c-1.034-3.1-3.262-5.632-6.263-7.145-6.615-3.306-14.051-.452-17.678 6.762-3.499 6.718-2.291 15.909 4.581 19.362 6.856 3.425 15.045-1.222 18.264-7.932 1.86-3.686 2.237-7.612 1.096-11.046Zm-51.493-18.581c-2.961-.573-5.476-2.31-7.256-4.94-6.666-9.8.037-26.553 12.865-24.058 12.371 2.473 12.716 18.646 4.389 25.968-2.917 2.576-6.549 3.68-9.998 3.03Zm9.938 11.418c-12.918-3.73-33.001 19.394-36.36 28.407-3.806 12.71 9.225 17.217 21.605 20.807l.021.006c.969.275 1.929.555 2.88.833 8.131 2.378 15.543 4.546 21.611.647 2.201-1.516 3.782-3.823 4.711-6.885 2.199-9.249-1.719-39.834-14.468-43.815ZM449.79 44.75c-.558 4.522-2.732 8.553-5.981 11.075-2.553 1.989-5.608 2.874-8.585 2.506-7.626-.965-11.863-9.355-10.786-16.738.527-4.113 2.372-7.594 5.228-9.817 2.582-2.004 5.847-2.895 9.177-2.466 7.343.903 11.943 7.406 10.947 15.44Z" fill="#04A427"/><path opacity=".03" fill-rule="evenodd" clip-rule="evenodd" d="M388.948 453.384c7.614-1.419 11.17-9.905 9.745-17.379-1.444-8.024-7.711-12.955-14.932-11.695-7.469 1.285-11.453 8.598-9.979 16.082 1.135 7.349 7.688 14.325 15.166 12.992Zm28.513-5.212c-2.55-2.043-5.796-2.963-9.138-2.606-7.35.811-12.049 7.243-11.182 15.271.705 7.542 6.705 14.607 14.351 13.78 7.619-.842 11.977-9.188 11.041-16.571-.437-4.106-2.25-7.608-5.072-9.874Zm-53.336 12.325c-2.798 1.126-5.854 1.03-8.776-.213-10.916-4.616-14.373-22.327-2.243-27.189 11.733-4.634 20.797 8.766 17.774 19.433-1.053 3.747-3.505 6.645-6.755 7.969Zm14.542 4.201c-12.876 3.874-17.202 34.194-15.135 43.588 3.697 12.741 17.089 9.459 29.436 5.759l.022-.006c.963-.295 1.922-.58 2.871-.862v-.001c8.121-2.413 15.523-4.613 18.505-11.18 1.027-2.467 1.104-5.263.223-8.34-3.169-8.962-23.053-32.53-35.922-28.958Zm-18.007 6.778c1.984 4.101 2.345 8.667.983 12.548-1.066 3.056-3.152 5.457-5.853 6.763-6.929 3.326-15.04-1.423-18.14-8.21-1.789-3.741-2.128-7.666-.934-11.083 1.082-3.083 3.341-5.603 6.371-7.05 6.659-3.225 14.051-.257 17.573 7.032Z" fill="#04A427"/><path opacity=".07" fill-rule="evenodd" clip-rule="evenodd" d="M228.095 209.806c8.3 3.684 17.243-2.446 20.704-10.903 3.798-9.02.919-18.173-6.896-21.752-8.07-3.72-16.67.947-20.089 9.445-3.661 8.137-1.829 19.533 6.281 23.21Zm31.01 13.896c-1.148-3.761-3.698-6.861-7.168-8.745-7.648-4.115-16.369-.813-20.729 7.824-4.203 8.042-2.965 19.156 4.981 23.455 7.929 4.265 17.56-1.186 21.435-9.223 2.236-4.413 2.749-9.144 1.481-13.311Zm-59.676-23.409c-3.441-.748-6.34-2.893-8.367-6.101-7.589-11.954.534-32.046 15.44-28.789 14.373 3.22 14.477 22.747 4.637 31.424-3.448 3.053-7.702 4.317-11.71 3.466Zm11.373 13.971c-14.988-4.749-38.823 22.776-42.905 33.59-4.671 15.265 10.434 20.954 24.798 25.524l.024.008c1.124.35 2.238.707 3.34 1.06l.002.001c9.434 3.025 18.033 5.782 25.177 1.193 2.594-1.787 4.48-4.542 5.618-8.22 2.735-11.12-1.267-48.108-16.054-53.156Zm-21.843-5.278c-.733 5.447-3.342 10.271-7.176 13.252-3.013 2.352-6.59 3.362-10.053 2.86-8.87-1.31-13.654-11.517-12.263-20.406.69-4.954 2.905-9.12 6.275-11.748 3.046-2.37 6.869-3.382 10.742-2.801 8.542 1.229 13.784 9.166 12.475 18.843Z" fill="#04A427"/><path opacity=".04" fill-rule="evenodd" clip-rule="evenodd" d="M286.095 1828.2c8.3 3.69 17.243-2.44 20.704-10.9 3.798-9.02.919-18.17-6.896-21.75-8.07-3.72-16.669.94-20.089 9.44-3.661 8.14-1.829 19.54 6.281 23.21Zm31.01 13.9c-1.148-3.76-3.697-6.86-7.168-8.75-7.648-4.11-16.369-.81-20.729 7.83-4.203 8.04-2.965 19.15 4.981 23.45 7.929 4.27 17.56-1.18 21.435-9.22 2.236-4.41 2.749-9.14 1.481-13.31Zm-59.676-23.41c-3.441-.75-6.34-2.89-8.367-6.1-7.589-11.96.534-32.05 15.44-28.79 14.373 3.22 14.477 22.75 4.637 31.42-3.448 3.06-7.702 4.32-11.71 3.47Zm11.373 13.97c-14.988-4.75-38.823 22.78-42.905 33.59-4.671 15.27 10.434 20.95 24.798 25.52l.024.01c1.124.35 2.238.71 3.34 1.06h.002c9.434 3.03 18.033 5.79 25.177 1.2 2.594-1.79 4.48-4.55 5.619-8.22 2.734-11.12-1.268-48.11-16.055-53.16Zm-21.843-5.28c-.733 5.45-3.342 10.27-7.176 13.25-3.013 2.36-6.59 3.37-10.052 2.86-8.871-1.31-13.655-11.51-12.264-20.4.69-4.96 2.905-9.12 6.275-11.75 3.046-2.37 6.869-3.38 10.742-2.8 8.542 1.23 13.784 9.16 12.475 18.84Z" fill="#04A427"/><path opacity=".07" fill-rule="evenodd" clip-rule="evenodd" d="M263.841 2633.69c5.544 2.75 11.518-1.82 13.83-8.13 2.537-6.73.614-13.56-4.607-16.23-5.391-2.77-11.135.71-13.419 7.05-2.445 6.07-1.222 14.57 4.196 17.31Zm20.714 10.37c-.767-2.81-2.47-5.12-4.788-6.52-5.109-3.07-10.935-.61-13.847 5.83-2.808 6-1.98 14.29 3.327 17.5 5.297 3.18 11.73-.89 14.318-6.88 1.494-3.29 1.837-6.82.99-9.93Zm-39.862-17.46c-2.299-.56-4.235-2.16-5.589-4.55-5.07-8.92.357-23.91 10.314-21.48 9.601 2.4 9.67 16.97 3.097 23.44-2.303 2.28-5.145 3.22-7.822 2.59Zm7.597 10.42c-10.012-3.55-25.934 16.99-28.66 25.05-3.12 11.39 6.97 15.64 16.565 19.05h.016c.751.26 1.496.53 2.232.79 6.302 2.26 12.046 4.32 16.818.89 1.733-1.33 2.993-3.38 3.753-6.13 1.827-8.29-.847-35.89-10.724-39.65Zm-14.591-3.94c-.49 4.06-2.233 7.66-4.794 9.89-2.012 1.75-4.402 2.5-6.715 2.13-5.925-.98-9.121-8.59-8.192-15.22.461-3.7 1.941-6.81 4.192-8.77 2.035-1.76 4.588-2.52 7.176-2.09 5.706.92 9.207 6.84 8.333 14.06ZM1488.01 2339.6c5.87-1.84 7.76-8.6 5.82-14.09-2.02-5.9-7.52-8.99-13.1-7.31-5.76 1.72-8.12 7.64-6.14 13.13 1.7 5.43 7.65 10.03 13.42 8.27Zm21.99-6.81c-2.24-1.28-4.91-1.65-7.51-1.04-5.73 1.35-8.75 6.68-7.19 12.64 1.38 5.62 6.9 10.34 12.86 8.94 5.94-1.4 8.48-8.13 6.93-13.6-.79-3.06-2.61-5.51-5.09-6.94Zm-40.86 14.67c-2.09 1.13-4.52 1.37-6.96.73-9.14-2.38-13.81-15.39-4.74-20.28 8.78-4.68 17.41 4.51 16.18 12.86-.42 2.93-2.05 5.37-4.48 6.69Zm11.97 1.7c-9.77 4.22-9.89 27.52-7.23 34.4 4.32 9.23 14.56 5.4 23.92 1.37l.02-.01c.73-.32 1.46-.63 2.18-.94 6.16-2.64 11.78-5.04 13.42-10.29.54-1.97.3-4.08-.73-6.31-3.49-6.44-21.79-22.21-31.58-18.22Zm-13.51 6.93c2.02 2.89 2.8 6.3 2.14 9.36-.51 2.41-1.89 4.43-3.89 5.69-5.12 3.21-12.05.44-15.25-4.36-1.82-2.64-2.52-5.57-1.94-8.26.51-2.44 2.03-4.57 4.27-5.96 4.91-3.1 11.09-1.61 14.67 3.53Z" fill="#04A427"/><path opacity=".05" fill-rule="evenodd" clip-rule="evenodd" d="M368.652 419.691c7.301-2.681 9.49-11.934 6.917-19.348-2.677-7.974-9.636-12.006-16.573-9.551-7.176 2.519-9.972 10.642-7.349 18.058 2.267 7.334 9.827 13.411 17.005 10.841Zm27.352-9.933c-2.837-1.679-6.187-2.095-9.432-1.191-7.134 2.016-10.772 9.354-8.665 17.424 1.872 7.6 8.9 13.857 16.324 11.777 7.394-2.091 10.398-11.33 8.322-18.73-1.071-4.129-3.408-7.419-6.549-9.28Zm-50.762 21.214c-2.589 1.603-5.622 1.999-8.702 1.199-11.502-2.96-17.678-20.516-6.454-27.447 10.867-6.633 21.909 5.609 20.586 17.007-.456 4.002-2.426 7.362-5.43 9.241Zm15.018 1.949c-12.114 6.041-11.661 37.751-8.154 47.025 5.638 12.435 18.354 6.916 29.974 1.139l.02-.01c.905-.458 1.808-.904 2.702-1.346 7.645-3.779 14.614-7.224 16.536-14.422.63-2.689.27-5.561-1.08-8.565-4.528-8.656-27.842-29.551-39.998-23.821Zm-16.73 9.84c2.599 3.874 3.667 8.486 2.927 12.675-.576 3.298-2.262 6.09-4.726 7.861-6.327 4.521-15.079.972-19.199-5.468-2.35-3.538-3.297-7.498-2.65-11.185a12.783 12.783 0 0 1 5.195-8.239c6.073-4.373 13.838-2.532 18.453 4.356Z" fill="#04A427"/><path opacity=".04" fill-rule="evenodd" clip-rule="evenodd" d="M426.652 2038.09c7.301-2.68 9.49-11.94 6.918-19.35-2.677-7.97-9.637-12.01-16.573-9.55-7.177 2.52-9.972 10.64-7.35 18.06 2.267 7.33 9.827 13.41 17.005 10.84Zm27.352-9.94c-2.837-1.67-6.186-2.09-9.432-1.19-7.133 2.02-10.772 9.36-8.665 17.43 1.872 7.6 8.901 13.85 16.324 11.78 7.394-2.1 10.398-11.34 8.322-18.74-1.071-4.12-3.408-7.41-6.549-9.28Zm-50.762 21.22c-2.588 1.6-5.622 2-8.702 1.2-11.502-2.96-17.677-20.52-6.454-27.45 10.868-6.63 21.909 5.61 20.586 17.01-.456 4-2.426 7.36-5.43 9.24Zm15.019 1.95c-12.114 6.04-11.662 37.75-8.155 47.02 5.638 12.44 18.355 6.92 29.974 1.14l.02-.01c.906-.46 1.809-.9 2.702-1.34 7.645-3.78 14.614-7.23 16.536-14.43.63-2.69.27-5.56-1.08-8.56-4.528-8.66-27.842-29.55-39.997-23.82Zm-16.731 9.84c2.599 3.87 3.668 8.48 2.928 12.67-.577 3.3-2.263 6.09-4.727 7.86-6.327 4.52-15.079.98-19.199-5.46-2.35-3.54-3.296-7.5-2.65-11.19a12.791 12.791 0 0 1 5.195-8.24c6.073-4.37 13.838-2.53 18.453 4.36Z" fill="#04A427"/><path opacity=".07" fill-rule="evenodd" clip-rule="evenodd" d="M352.387 2741.6c4.877-2 6.34-8.9 4.621-14.43-1.788-5.95-6.437-8.96-11.07-7.13-4.794 1.88-6.662 7.94-4.91 13.47 1.514 5.47 6.565 10.01 11.359 8.09Zm18.271-7.41c-1.895-1.25-4.132-1.56-6.3-.89-4.765 1.51-7.196 6.98-5.788 13 1.25 5.67 5.945 10.34 10.904 8.79 4.939-1.56 6.946-8.46 5.559-13.98-.716-3.08-2.277-5.53-4.375-6.92Zm-33.908 15.83c-1.729 1.19-3.755 1.49-5.813.89-7.683-2.21-11.808-15.3-4.311-20.48 7.259-4.94 14.635 4.19 13.751 12.69-.305 2.99-1.621 5.49-3.627 6.9Zm10.033 1.45c-8.092 4.51-7.79 28.16-5.448 35.08 3.767 9.28 12.261 5.16 20.023.85l.013-.01c.605-.34 1.208-.67 1.805-1 5.107-2.82 9.762-5.39 11.046-10.76.42-2.01.18-4.15-.722-6.39-3.024-6.46-18.598-22.04-26.717-17.77Zm-11.176 7.34c1.736 2.89 2.449 6.33 1.955 9.45-.385 2.46-1.512 4.55-3.157 5.87-4.226 3.37-10.073.72-12.825-4.08-1.57-2.64-2.202-5.59-1.77-8.34.392-2.49 1.621-4.68 3.47-6.15 4.057-3.26 9.244-1.89 12.327 3.25ZM1629.81 2355.24c4.12-3.48 4.02-10.01 1.24-14.22-2.93-4.54-7.91-5.5-11.84-2.26-4.07 3.35-4.53 9.29-1.71 13.49 2.57 4.22 8.25 6.37 12.31 2.99Zm15.47-12.96c-2.04-.42-4.19.11-6.07 1.47-4.12 3.01-5.23 8.64-2.63 13.38 2.37 4.49 7.74 6.89 12.04 3.77 4.27-3.12 4.68-9.84 2.21-14.15-1.32-2.43-3.3-4.01-5.55-4.47Zm-28.26 25.86c-1.36 1.66-3.19 2.64-5.23 2.85-7.64.82-14.27-9.12-8.38-16.29 5.72-6.9 14.54-1.57 15.52 6.15.35 2.71-.34 5.36-1.91 7.29Zm9.66-2.31c-6.58 6.81-1.27 27.31 2.39 32.5 5.49 6.74 12.53.12 18.85-6.4l.02-.01c.49-.51.98-1.02 1.47-1.52 4.16-4.27 7.95-8.17 8.01-13.3-.04-1.9-.72-3.68-2.04-5.31-4.19-4.55-22.03-12.57-28.7-5.96Zm-8.86 10.38c2.24 1.9 3.64 4.64 3.84 7.54.16 2.28-.44 4.49-1.7 6.23-3.22 4.44-9.24 4.22-12.83 1.02-2.02-1.74-3.24-4.09-3.42-6.64-.17-2.3.51-4.65 1.93-6.59 3.08-4.29 8.21-4.94 12.18-1.56Z" fill="#04A427"/></svg>