<svg width="768" height="2255" fill="none" xmlns="http://www.w3.org/2000/svg"><path opacity=".04" fill-rule="evenodd" clip-rule="evenodd" d="M440.939 501.986c3.775 1.385 7.633-1.404 9-5.063 1.505-3.906.031-7.726-3.527-9.078-3.674-1.406-7.409.756-8.756 4.432-1.463 3.528-.409 8.322 3.283 9.709Zm14.113 5.231c-.59-1.57-1.791-2.831-3.377-3.556-3.495-1.582-7.313.003-9.076 3.758-1.706 3.5-.922 8.186 2.709 9.84 3.622 1.64 7.801-.876 9.361-4.366.905-1.919 1.034-3.936.383-5.676Zm-27.082-8.657c-1.55-.244-2.887-1.092-3.857-2.409-3.631-4.908-.429-13.6 6.282-12.536 6.473 1.06 6.926 9.338 2.721 13.226-1.473 1.368-3.343 1.995-5.146 1.719Zm5.355 5.682c-6.779-1.695-16.828 10.483-18.422 15.156-1.764 6.572 5.087 8.663 11.583 10.296l.012.003c.508.124 1.012.252 1.511.379 4.268 1.082 8.158 2.068 11.246-.03 1.119-.812 1.902-2.02 2.333-3.604.987-4.774-1.567-20.373-8.263-22.2Zm-9.842-1.774c-.214 2.325-1.276 4.426-2.922 5.772-1.294 1.061-2.867 1.565-4.421 1.426-3.981-.367-6.326-4.593-5.891-8.393.204-2.115 1.105-3.929 2.552-5.114 1.308-1.07 2.991-1.581 4.729-1.416 3.833.339 6.335 3.593 5.953 7.725Z" fill="#04A427"/><path opacity=".03" fill-rule="evenodd" clip-rule="evenodd" d="M324.12 365.317c6.346-1.165 9.309-8.132 8.121-14.268-1.203-6.587-6.426-10.635-12.444-9.601-6.223 1.055-9.543 7.059-8.315 13.203.946 6.033 6.407 11.76 12.638 10.666Zm23.76-4.281c-2.126-1.678-4.83-2.432-7.615-2.14-6.125.667-10.041 5.947-9.318 12.537.587 6.192 5.587 11.992 11.959 11.313 6.348-.691 9.981-7.543 9.2-13.604-.364-3.37-1.874-6.246-4.226-8.106Zm-44.444 10.12c-2.332.924-4.879.845-7.314-.175-9.097-3.79-11.977-18.33-1.869-22.322 9.778-3.803 17.331 7.197 14.812 15.955-.878 3.075-2.921 5.455-5.629 6.542Zm12.117 3.448c-10.73 3.18-14.335 28.072-12.612 35.784 3.081 10.46 14.24 7.765 24.53 4.728l.018-.005c.801-.243 1.6-.476 2.39-.708h.003c6.767-1.982 12.935-3.788 15.42-9.179.856-2.025.92-4.321.186-6.846-2.641-7.358-19.211-26.707-29.935-23.774Zm-15.007 5.567c1.654 3.367 1.954 7.115.82 10.301-.889 2.509-2.627 4.48-4.877 5.552-5.775 2.731-12.534-1.169-15.118-6.74-1.49-3.071-1.773-6.293-.778-9.098.901-2.532 2.785-4.601 5.31-5.788 5.548-2.648 11.708-.212 14.643 5.773Z" fill="#04A427"/><path opacity=".07" fill-rule="evenodd" clip-rule="evenodd" d="M189.169 19.872c3.039 1.33 6.314-.882 7.582-3.934 1.391-3.254.336-6.556-2.526-7.848-2.955-1.342-6.105.342-7.357 3.408-1.341 2.936-.67 7.048 2.301 8.374Zm11.356 5.014a5.373 5.373 0 0 0-2.626-3.155c-2.801-1.485-5.995-.293-7.592 2.823-1.539 2.902-1.085 6.912 1.825 8.463 2.904 1.538 6.431-.428 7.85-3.328.819-1.592 1.007-3.3.543-4.803Zm-21.856-8.448c-1.26-.27-2.322-1.043-3.064-2.2-2.78-4.314.195-11.563 5.655-10.388 5.263 1.162 5.302 8.207 1.698 11.338-1.263 1.101-2.821 1.557-4.289 1.25Zm4.165 5.042c-5.49-1.714-14.219 8.217-15.714 12.119-1.711 5.508 3.821 7.56 9.082 9.209l.009.003c.412.126.82.255 1.224.383 3.455 1.09 6.604 2.086 9.221.43.949-.645 1.64-1.639 2.057-2.966 1.002-4.012-.464-17.357-5.879-19.178Zm-8-1.904c-.269 1.965-1.224 3.706-2.628 4.781-1.103.849-2.413 1.213-3.682 1.033-3.248-.473-5.001-4.156-4.491-7.363.253-1.788 1.064-3.29 2.298-4.239a5.178 5.178 0 0 1 3.934-1.01c3.129.443 5.049 3.306 4.569 6.798Z" fill="#04A427"/><path opacity=".05" fill-rule="evenodd" clip-rule="evenodd" d="M311.596 31.675c2.326-.84 3.023-3.744 2.204-6.07-.853-2.503-3.07-3.768-5.279-2.998-2.286.79-3.177 3.34-2.341 5.667.722 2.301 3.13 4.208 5.416 3.401Zm8.713-3.113a3.88 3.88 0 0 0-3.005-.373c-2.272.632-3.431 2.935-2.76 5.467.597 2.385 2.835 4.349 5.2 3.696 2.355-.656 3.312-3.556 2.651-5.878-.341-1.295-1.086-2.328-2.086-2.912Zm-16.17 6.66c-.825.503-1.791.627-2.772.376-3.664-.928-5.631-6.438-2.056-8.613 3.462-2.081 6.979 1.76 6.557 5.337-.145 1.256-.773 2.31-1.729 2.9Zm4.783.609c-3.859 1.895-3.714 11.845-2.597 14.756 1.795 3.902 5.846 2.17 9.547.357l.007-.003c.288-.144.576-.284.86-.422 2.435-1.186 4.655-2.267 5.267-4.526.201-.844.086-1.745-.344-2.688-1.442-2.716-8.868-9.273-12.74-7.474Zm-5.327 3.087c.828 1.216 1.168 2.663.932 3.978-.183 1.035-.721 1.91-1.505 2.466-2.015 1.42-4.803.306-6.116-1.715-.748-1.11-1.05-2.353-.844-3.51a4.005 4.005 0 0 1 1.655-2.586c1.935-1.372 4.408-.794 5.878 1.367Z" fill="#04A427"/><path opacity=".09" fill-rule="evenodd" clip-rule="evenodd" d="M521.108 1558.52c3.756 1.86 7.803-1.23 9.37-5.51 1.719-4.56.415-9.18-3.121-10.99-3.653-1.88-7.544.48-9.092 4.77-1.656 4.11-.828 9.87 2.843 11.73Zm14.035 7.02c-.519-1.9-1.673-3.46-3.244-4.41-3.461-2.09-7.408-.42-9.381 3.95-1.902 4.06-1.342 9.68 2.254 11.85 3.589 2.16 7.947-.6 9.701-4.66 1.012-2.23 1.244-4.62.67-6.73Zm-27.007-11.82c-1.557-.38-2.87-1.47-3.787-3.09-3.434-6.04.242-16.19 6.988-14.55 6.504 1.63 6.551 11.5 2.098 15.88-1.56 1.55-3.485 2.19-5.299 1.76Zm5.148 7.05c-6.783-2.4-17.57 11.52-19.417 16.98-2.114 7.72 4.722 10.59 11.222 12.9h.011c.509.18 1.014.36 1.513.54 4.269 1.53 8.161 2.92 11.394.6 1.173-.9 2.027-2.29 2.542-4.15 1.238-5.62-.573-24.31-7.265-26.87Zm-9.887-2.66c-.332 2.75-1.512 5.19-3.247 6.7-1.364 1.18-2.982 1.69-4.55 1.44-4.014-.66-6.179-5.82-5.549-10.31.312-2.51 1.314-4.61 2.839-5.94 1.379-1.2 3.109-1.71 4.862-1.42 3.865.63 6.238 4.64 5.645 9.53Z" fill="#04A427"/><path opacity=".04" fill-rule="evenodd" clip-rule="evenodd" d="M645.195 1566.99c4.77-1.75 6.2-7.79 4.519-12.64-1.748-5.21-6.295-7.84-10.827-6.24-4.688 1.65-6.514 6.96-4.801 11.8 1.481 4.79 6.42 8.76 11.109 7.08Zm17.871-6.49c-1.854-1.09-4.042-1.37-6.163-.77-4.66 1.31-7.037 6.11-5.66 11.38 1.223 4.96 5.814 9.05 10.664 7.69 4.831-1.36 6.793-7.4 5.437-12.23-.7-2.7-2.226-4.85-4.278-6.07Zm-33.164 13.86c-1.691 1.05-3.673 1.31-5.685.79-7.514-1.94-11.549-13.41-4.216-17.94 7.099-4.33 14.313 3.67 13.449 11.12-.299 2.61-1.586 4.8-3.548 6.03Zm9.811 1.28c-7.914 3.94-7.618 24.66-5.327 30.72 3.683 8.12 11.991 4.52 19.582.74h.013c.591-.3 1.181-.59 1.765-.88 4.995-2.47 9.547-4.72 10.803-9.43.411-1.75.176-3.63-.706-5.59-2.958-5.66-18.189-19.31-26.13-15.56Zm-10.928 6.42c1.698 2.54 2.395 5.55 1.912 8.29-.377 2.15-1.478 3.97-3.088 5.13-4.133 2.95-9.851.64-12.543-3.57-1.535-2.31-2.153-4.9-1.731-7.31a8.372 8.372 0 0 1 3.394-5.38c3.968-2.86 9.041-1.65 12.056 2.84Z" fill="#04A427"/><path opacity=".07" fill-rule="evenodd" clip-rule="evenodd" d="M686.483 1957.75c4.064-1.66 5.282-7.41 3.85-12.02-1.49-4.96-5.364-7.47-9.225-5.94-3.995 1.57-5.551 6.62-4.091 11.23 1.262 4.56 5.47 8.33 9.466 6.73Zm15.226-6.17c-1.58-1.04-3.444-1.3-5.251-.74-3.971 1.26-5.997 5.82-4.823 10.84 1.042 4.72 4.954 8.61 9.086 7.32 4.116-1.3 5.789-7.05 4.633-11.65-.596-2.56-1.897-4.61-3.645-5.77Zm-28.258 13.19c-1.441 1-3.129 1.24-4.844.75-6.402-1.84-9.84-12.76-3.592-17.07 6.049-4.12 12.196 3.49 11.459 10.58-.254 2.48-1.351 4.57-3.023 5.74Zm8.36 1.21c-6.743 3.76-6.491 23.47-4.539 29.24 3.139 7.73 10.217 4.29 16.685.7h.012c.503-.29 1.006-.56 1.503-.84h.001c4.255-2.35 8.134-4.49 9.204-8.96.351-1.68.151-3.46-.601-5.33-2.52-5.38-15.498-18.37-22.265-14.81Zm-9.312 6.12c1.447 2.41 2.041 5.27 1.629 7.88-.321 2.05-1.259 3.78-2.631 4.88-3.521 2.81-8.393.61-10.687-3.4-1.308-2.2-1.835-4.66-1.475-6.95.327-2.07 1.351-3.9 2.892-5.12 3.381-2.72 7.703-1.57 10.272 2.71Z" fill="#04A427"/><path opacity=".04" fill-rule="evenodd" clip-rule="evenodd" d="M541.306 1954.17c5.752 2.56 11.951-1.69 14.349-7.55 2.633-6.26.637-12.6-4.779-15.08-5.593-2.58-11.553.66-13.923 6.55-2.537 5.64-1.268 13.53 4.353 16.08Zm21.493 9.63c-.796-2.6-2.563-4.75-4.968-6.06-5.302-2.85-11.346-.56-14.368 5.43-2.913 5.57-2.054 13.27 3.453 16.25 5.495 2.96 12.17-.82 14.856-6.39 1.55-3.06 1.905-6.34 1.027-9.23Zm-41.359-16.22c-2.385-.52-4.395-2-5.8-4.23-5.259-8.28.371-22.21 10.702-19.95 9.961 2.23 10.033 15.76 3.213 21.78-2.39 2.11-5.338 2.99-8.115 2.4Zm7.882 9.68c-10.388-3.29-26.908 15.79-29.736 23.28-3.238 10.58 7.231 14.53 17.186 17.69l.017.01c.78.24 1.552.49 2.316.73 6.539 2.1 12.498 4.01 17.45.83 1.797-1.24 3.105-3.15 3.894-5.7 1.895-7.7-.879-33.34-11.127-36.84Zm-15.139-3.65c-.509 3.77-2.317 7.12-4.974 9.18-2.088 1.63-4.567 2.33-6.967 1.99-6.148-.91-9.464-7.99-8.499-14.15.478-3.43 2.013-6.32 4.349-8.14a9.71 9.71 0 0 1 7.445-1.94c5.92.85 9.553 6.35 8.646 13.06Z" fill="#04A427"/></svg>