<svg width="83" height="73" fill="none" xmlns="http://www.w3.org/2000/svg"><path d="M23.048 38.564c.721-1.68 1.512-3.562 1.173-5.142-.232-1.08-1.175-2.047-2.227-2.673-.29-.173-.642-.346-1.078-.332-.102.003-.218.014-.276.104-.278.437-.036 1.967-.025 2.088.335 3.664.656 7.921 3.499 10.602.552.52 1.915 1.86 3.067 1.776 1.274-.092 1.463-2.404 1.197-2.823-.731-1.154-4.47 1.97-5.15 2.555a9.04 9.04 0 0 0-.35.323c-.186.178-.16.165.099.012 1.495-.884 2.916-1.962 4.253-2.97 2.273-1.716 4.69-3.5 6.607-5.437.465-.47.67-.772.579-1.226-.093-.459-1.375-.946-1.54-.05-.134.727.036 1.457.312 2.073.15.332.695 1.056.987.682.826-1.057.732-2.92.765-3.875.052-1.494-.139-2.905-.3-4.345-.077-.685.96 1.029 1.368 1.584 1.692 2.306 3.505 4.597 4.75 7.127.562 1.14 1.18 2.368-1.039 3.321-1.993.857-4.564 1.321-6.557 1.342-4.53.047-5.308-2.725-3.98-5.894 1.455-3.472 3.65-6.905 5.265-10.368 1.25-2.682 2.292-5.369 2.852-8.044.143-.682.464-2.565-.15-1.949-.306.308.185.61.312.9.958 2.212 1.931 4.417 2.922 6.614.263.584.529 1.167.798 1.748.128.276.243.557.392.823.025.044.065.145.127.103.262-.173.342-1.749.357-1.841.063-.383-.032-2.882.84-1.194 2.68 5.182 4.54 10.839 6.695 16.23 2.082 5.214 4.663 10.478 5.865 16.03.185.853.427 1.57-1 1.8-1.639.265-3.16-.08-4.407-.545-2.91-1.081-3.59-3.364-3.258-6.04.27-2.159 1.09-4.375 1.633-6.556.292-1.173.41-2.301.58-3.459" stroke="#04A427" stroke-width=".673" stroke-linecap="round"/><path d="M41.539 30.395c-.313-.422-1.95-2.117-3.078-1.269-.606.457-.966 1.299-1.19 1.837-.449 1.073-.226 2.088.862 2.61 1.789.857 3.051-2.747 3.066-2.744.698.148 1.263.796 1.812-.081 2.485-3.972 3.794-8.52 3.831-12.412.012-1.183-.217-3.191-2.072-3.398-.773-.086.794.912 1.242 1.337 4.655 4.416 8.629 9.248 13.035 13.819.72.748 1.25.659-.314 1.372-4.157 1.896-8.355 3.762-12.615 5.438-2.5.984-5.975 2.502-8.655 2.527-1.355.012-2.047-.664-1.977-1.69.16-2.345 2.065-5.154 3.435-7.43 1.625-2.697 3.53-5.345 5.146-8.042.63-1.053 1.142-2.08 1.26-3.135.115-1.03-.125-.818.11-1.817.65-2.781 2.403-7.97 7.349-8.302 1.019-.068 1.968.103 2.872.27.401.073 1.022.13 1.25.4.48.563-.477 2.244-.714 2.762-2.642 5.773-6.037 11.502-8.555 17.281-.285.653.346.63.909.851 3.09 1.218 5.154 3.74 7.204 5.738a118.19 118.19 0 0 1 4.51 4.635c.14.15.272.304.408.456.15.168.22.36.212.036-.298-10.32-.275-20.723-.963-30.956-.195-2.897-.572-5.712-.942-8.558-.096-.74.158-.098.253.094 1.419 2.87 2.028 6.077 3.28 9.017.688 1.61 1.453 3.009 3.096 4.06.738.473 1.59.797 2.39 1.206.525.267-.096 1.558-.17 2.003-.342 2.035-.247 3.81.17 5.666" stroke="#04A427" stroke-width=".673" stroke-linecap="round"/><path d="M67.911 24.033c-.434-1.077.533-2.409 1.192-3.559.296-.516.818-.868 1.211-1.343.084-.1.096-.22.236-.277M15.824 40.568c-1.171-1.207-4.931.652-5.942 1.799-2.804 3.18-.387 6.547 1.551 8.557 2.7 2.8 6.862 5.712 12.042 6.106.89.067 2.111.177 3.104-.373.943-.522 1.178-1.396 1.378-2.071.716-2.42.09-4.521-.861-6.51-.52-1.084-1.092-2.297-1.935-3.232-.211-.235-.35-.007-.569.195" stroke="#04A427" stroke-width=".673" stroke-linecap="round"/></svg>