<svg width="72" height="65" fill="none" xmlns="http://www.w3.org/2000/svg"><path d="M71.42 13.921c.29-.427.31-.987.062-1.435a1.463 1.463 0 0 0-1.28-.742h-8.805a9.906 9.906 0 0 0-3.83.783c-.092.04-.175.071-.257.112-1.383.63-2.591 1.648-3.5 2.94l-1.548 2.29c-.196-.05-.361-.091-.392-.102-.196-.05-.392-.091-.588-.132-.052-.01-.093-.02-.135-.03A68.166 68.166 0 0 0 46.1 2.942 3.58 3.58 0 0 0 43.56.978a37.692 37.692 0 0 0-6.699-.712H35.85c-.247 0-.485 0-.732.01-.238 0-.475.01-.723.02-.227.01-.464.02-.702.041-.227.02-.454.03-.681.051-.227.02-.444.03-.671.061-.217.02-.434.05-.65.071-.207.02-.424.051-.63.082-.206.03-.403.05-.61.091l-.587.092c-.186.03-.382.06-.568.102-.072.01-.134.02-.207.04l-.31.061c-.34.082-.794.245-1.259.59a3.401 3.401 0 0 0-.99 1.16c-.021.041-.042.092-.063.133-.051.112-.103.213-.154.325l-.155.336c-.052.112-.114.224-.165.336-.052.122-.114.234-.166.356-.051.122-.113.244-.165.356-.051.122-.113.244-.165.366-.051.123-.113.255-.165.377-.062.122-.113.254-.165.387-.052.132-.114.264-.165.396a4.813 4.813 0 0 0-.165.407c-.062.143-.114.275-.176.407-.052.143-.113.285-.165.428-.052.142-.114.285-.165.427-.052.143-.114.285-.165.438-.062.142-.114.295-.165.437a8.075 8.075 0 0 0-.166.458c-.062.153-.113.305-.165.458-.052.153-.113.315-.165.468-.052.153-.114.316-.165.478-.052.163-.114.326-.165.489-.052.163-.114.325-.165.488-.052.163-.104.336-.155.499-.052.173-.104.336-.155.508l-.155.52-.155.518c-.051.184-.103.356-.155.53-.051.183-.103.356-.155.539-.051.183-.103.366-.144.55-.052.182-.103.366-.144.549-.052.183-.093.366-.145.56-.052.193-.093.376-.134.57-.041.192-.093.386-.134.569-.01.061-.021.112-.042.173-.31.071-.784.183-1.197.275l-1.559-2.27a8.688 8.688 0 0 0-3.747-3.042 9.833 9.833 0 0 0-3.83-.783H2.2a1.45 1.45 0 0 0-1.28.742 1.402 1.402 0 0 0 .051 1.435l5.595 8.578c-.062.03-.124.061-.196.092a3.378 3.378 0 0 0-1.91 2.411 36.754 36.754 0 0 0-.722 6.665 31.925 31.925 0 0 0 .062 2.88c.03.447.062.895.103 1.343.041.427.093.844.144 1.272.01.111.031.223.042.335v.01c.04.285.082.57.134.855.02.102.03.214.051.316 0 .01 0 .02.01.04 0 .03.011.061.011.082.114.417.31.977.692 1.567a5.73 5.73 0 0 0 1.538 1.607c.062.031.134.061.196.092l.588.275.145.071c.237.112.485.214.733.326.247.111.505.213.763.325.269.112.537.224.795.326.279.112.558.224.826.325l.867.336c.3.112.599.224.898.326.31.112.62.224.93.325.32.112.64.224.96.326.33.112.66.214.99.316.34.111.681.213 1.022.315.351.102.702.203 1.063.305.361.102.723.204 1.084.295.372.102.743.194 1.115.285l1.146.275c.196.04.392.081.578.132a68.346 68.346 0 0 0 5.027 14.632 3.65 3.65 0 0 0 2.59 2.005c1.9.376 4.14.661 6.659.702a33.245 33.245 0 0 0 2.921-.061c.454-.03.908-.061 1.362-.102.434-.04.857-.092 1.29-.142.403-.051.816-.112 1.219-.173.382-.061.753-.123 1.135-.204.114-.02.217-.04.32-.061a2.898 2.898 0 0 0 1.383-.682 2.9 2.9 0 0 0 .424-.488c.072-.143.144-.285.216-.438.021-.05.052-.102.073-.152v-.01c.082-.163.154-.326.237-.489l.217-.458c.03-.071.072-.142.103-.224.114-.234.217-.478.33-.712.114-.254.227-.498.33-.753.114-.264.228-.519.341-.783.114-.275.227-.54.34-.814l.342-.855.34-.885c.114-.306.227-.61.33-.916.114-.316.228-.631.33-.946.114-.326.218-.652.331-.977.114-.336.217-.672.32-1.018l.31-1.038c.103-.356.206-.712.3-1.068.102-.366.195-.733.288-1.099l.279-1.13c.052-.203.093-.407.144-.61a70.27 70.27 0 0 0 15.195-5.139 2.925 2.925 0 0 0 1.63-2.065c.403-1.944.734-4.274.775-6.91l.01-.253V31.9c0-.244-.01-.479-.01-.723-.01-.234-.01-.468-.03-.702-.011-.234-.022-.458-.042-.692-.01-.224-.031-.447-.052-.671l-.062-.662c-.02-.213-.051-.427-.072-.64-.02-.204-.052-.418-.083-.621-.03-.204-.062-.397-.093-.6l-.092-.58a9.015 9.015 0 0 0-.104-.56c-.01-.082-.03-.163-.04-.245-.022-.101-.042-.203-.063-.305l-.062-.305v-.01a2.981 2.981 0 0 0-.567-1.038 3.569 3.569 0 0 0-.671-.6h-.01c-.094-.051-.187-.092-.28-.133l-.32-.152a1.478 1.478 0 0 0-.185-.082l5.594-8.659Zm-26.466 37.68-.052.1c-.082.184-.185.357-.289.54h-.01c-1.486 2.27-3.953 3.867-6.658 4.365-.103.02-.206.03-.31.051l-.237.03c-.031 0-.062.01-.093.01-.217.021-.434.042-.65.052-.114.01-.227.01-.34.01h-.486c-.052 0-.114 0-.165-.01-.093-.01-.186-.01-.29-.02-3.272-.316-6.203-2.646-8-5.424-.01-.01-.01-.01-.01-.02l-.02-.051-24.598-37.75h8.206a8.428 8.428 0 0 1 3.138.64l.217.092c1.094.499 2.054 1.313 2.777 2.33l3.251 4.742a8.572 8.572 0 0 1 .764-1.659c.113-.173.279-.427.3-.437a8.78 8.78 0 0 1 1.28-1.476c1.558-1.577 3.715-3.062 6.275-3.907 2.302-.753 8.33-2.157 14.503 1.231 1.92 1.059 3.51 2.687 4.635 4.325.01.01.02.03.041.05l.01.01c.475.652.981 1.456 1.425 2.402.083.173.155.356.237.54.217.518.382 1.007.527 1.475l4.934-7.285c.723-1.028 1.683-1.842 2.777-2.34l.216-.092a8.47 8.47 0 0 1 3.138-.642h8.217L44.954 51.6Z" fill="#0B5594"/><path d="M44.191 44.425a6.127 6.127 0 0 1-1.166 2.279c-.96 1.18-2.333 1.954-3.84 2.27-2.374.498-6.895.966-11.313-1.364-1.125-.59-3.469-1.862-5.162-4.57-2.931-4.67-1.538-9.747-1.238-10.754.764 1.75 2.405 4.752 5.729 6.96 1.053.691 5.316 2.737 9.28 2.136.815-.122 2.467-.732 2.797-2.31.248-1.16-.423-2.37-.681-2.706.495.071 2.766.427 4.376 2.452.238.305 2.013 2.615 1.218 5.607Z" fill="url('#paint0_linear_2_34192')"/><path d="M32.969 23.394c-.155-.234-.702-.153-1.249.183-.537.325-.857.794-.702 1.028.155.234.702.152 1.239-.173.547-.346.867-.804.712-1.038Zm17.775 3.113c-.124-.213-.268-.427-.413-.65-.041-.052-.082-.113-.124-.174a1.388 1.388 0 0 0-.154-.213l-.073-.102c-.113-.153-.227-.316-.361-.468a9.352 9.352 0 0 0-.3-.367 9.212 9.212 0 0 0-.495-.56v-.02c-.062-.223-.134-.447-.206-.681-.01-.02-.01-.051-.02-.072-.011-.01-.011-.03-.011-.04-.052-.153-.103-.306-.165-.448-.01-.03-.021-.05-.031-.081v-.01c-.073-.194-.155-.377-.217-.56 0 0 0-.01-.01-.02a10.63 10.63 0 0 0-.341-.682c-.95-1.77-2.622-3.908-4.965-5.19-5.729-3.144-11.334-1.841-13.47-1.14a14.493 14.493 0 0 0-3.944 2.026c-.103.08-.217.152-.32.234l-.093.06a10.26 10.26 0 0 0-1.641 1.557c-.031.041-.062.072-.093.112-.041.041-.072.092-.114.143a.312.312 0 0 0-.051.071s0 .01-.01.01c-.021.02-.032.04-.052.061-.062.082-.124.173-.196.265-.02.03-.041.05-.052.081-.03.04-.052.082-.082.122-.01.01-.021.03-.031.041-.021.03-.042.05-.062.081a124.652 124.652 0 0 0-.382.631c0 .01-.01.01-.01.02s-.01.01-.01.021l-.032.061-.03.061a.3.3 0 0 0-.042.081 9.348 9.348 0 0 0-.227.458c-.248.54-.423 1.059-.558 1.517a9.227 9.227 0 0 0-.155.63c-.051.255-.092.489-.123.703v.04a9.03 9.03 0 0 0 0 2.045 9.394 9.394 0 0 0 1.238 3.714c.362-.264.795-.396 1.91-.987.31-.162 1.084-.519 1.414-.692-.206-.56 0-1.19.475-1.567a23.372 23.372 0 0 0 1.6-1.414 18.11 18.11 0 0 0 1.455-1.618 6.388 6.388 0 0 1 2.22-1.79c.01 0 .01-.01.02-.01a7.457 7.457 0 0 1 2.21-.683c1.341-.254 6.822-1.18 12.252 2.076 4.119 2.473 5.987 6.004 6.648 7.428a16.54 16.54 0 0 0-1.776-4.11Zm.248 9.158c-.599-3.053-2.323-5.037-3.159-5.871-3.251-3.256-7.39-3.49-8.381-3.53a19.66 19.66 0 0 1 2.291-.296c1.26-.081 2.395-.03 3.355.081-1.084-.376-3.148-.936-5.678-.539-.206.03-.412.071-.608.112-1.26.265-2.437.804-3.51 1.516-1.868 1.242-3.54 1.78-4.604 2.035 0 0-2.89.692-4.407-.224-.073-.04-.145-.05-.29-.213-.598.335-1.166.692-1.785 1.048-.465.264-1.012.56-1.476.773.278.397.526.702.691.896 2.643 3.174 6.4 3.815 8.248 4.13 2.622.448 4.913.194 6.575-.182 3.2.172 5.977 2.085 7.112 4.863 1.363 3.378-.361 6.42-.588 6.808.774-.306 4.119-1.7 5.688-5.292 1.176-2.655.732-5.077.526-6.115Zm-27.974-5.942c-.237.06-.485.152-.691.163.134.234.278.447.402.63a5.23 5.23 0 0 1 .413-.417c.134-.122.96-.743 1.074-.814-.052.03-.847.356-1.198.438Z" fill="url('#paint1_linear_2_34192')"/><path d="M22.265 20.516c-.031.06-.062.112-.093.172.02-.04.041-.08.072-.131 0-.02.01-.031.02-.041ZM22.875 19.559c-.072.112-.154.213-.227.325.073-.112.155-.224.227-.325ZM23.288 19.008c-.073.092-.145.193-.227.285.082-.102.154-.204.227-.285Z" fill="#fff"/><defs><linearGradient id="paint0_linear_2_34192" x1=".276" y1="49.379" x2="39.776" y2="37.551" gradientUnits="userSpaceOnUse"><stop offset=".047" stop-color="#0B5594"/><stop offset=".59" stop-color="#0A7040"/><stop offset="1" stop-color="#DBB14F"/></linearGradient><linearGradient id="paint1_linear_2_34192" x1="25.719" y1="11.86" x2="50.038" y2="48.549" gradientUnits="userSpaceOnUse"><stop offset=".047" stop-color="#0B5594"/><stop offset=".59" stop-color="#0A7040"/><stop offset="1" stop-color="#DBB14F"/></linearGradient></defs></svg>