<svg width="51" height="47" fill="none" xmlns="http://www.w3.org/2000/svg"><path d="M50.807 9.817a.992.992 0 0 0 .044-1.032 1.051 1.051 0 0 0-.92-.534h-6.33c-.95.007-1.877.19-2.753.563-.066.03-.126.052-.185.08a6.276 6.276 0 0 0-2.516 2.115l-1.113 1.646c-.14-.037-.26-.066-.282-.073a8.68 8.68 0 0 0-.423-.096c-.037-.007-.067-.014-.096-.022a49.003 49.003 0 0 0-3.629-10.54A2.574 2.574 0 0 0 30.78.512 27.095 27.095 0 0 0 25.963 0h-.728c-.178 0-.348 0-.526.007-.171 0-.342.008-.52.015-.163.007-.334.015-.505.03-.163.014-.326.021-.49.036-.162.014-.318.022-.482.044-.155.014-.311.036-.467.05a9.575 9.575 0 0 0-.453.06c-.148.021-.29.036-.438.065l-.423.066c-.133.022-.274.044-.408.073a1.064 1.064 0 0 0-.148.03l-.223.043a2.468 2.468 0 0 0-.905.425c-.4.3-.616.643-.712.834-.015.029-.03.065-.045.095-.037.08-.074.153-.111.234l-.112.241c-.037.08-.081.161-.118.241-.037.088-.082.169-.119.256-.037.088-.082.176-.119.256-.037.088-.081.176-.119.264-.037.088-.081.183-.118.27-.045.088-.082.183-.119.278-.037.096-.082.19-.119.286-.044.095-.081.19-.118.292-.045.103-.082.198-.127.293-.037.102-.081.205-.118.307-.037.103-.082.205-.119.307-.037.103-.082.205-.119.315-.044.102-.081.212-.119.314-.044.11-.081.22-.118.33-.045.11-.082.22-.119.329-.037.11-.082.227-.119.336-.037.11-.081.227-.118.344-.038.117-.082.234-.12.351-.036.117-.08.234-.118.351l-.111.359c-.037.124-.074.241-.112.365l-.11.374-.112.373a25.5 25.5 0 0 1-.111.38c-.037.132-.075.256-.112.388-.037.131-.074.263-.104.395a7.799 7.799 0 0 0-.103.395c-.038.131-.067.263-.104.402a8.06 8.06 0 0 0-.097.41c-.03.139-.067.278-.096.41a.759.759 0 0 1-.03.124c-.223.05-.564.131-.86.197L12.82 11.01a6.245 6.245 0 0 0-2.694-2.187 7.067 7.067 0 0 0-2.753-.564h-6.33c-.386 0-.742.205-.92.534-.178.33-.163.725.037 1.032l4.022 6.166c-.044.022-.089.044-.14.066a2.429 2.429 0 0 0-1.374 1.734 26.423 26.423 0 0 0-.52 4.791 22.96 22.96 0 0 0 .045 2.07c.023.322.045.644.075.966.03.307.066.607.103.914.008.08.023.16.03.241v.008c.03.204.06.41.097.614.014.073.022.154.037.227 0 .007 0 .015.007.03 0 .021.008.043.008.058.081.3.222.702.497 1.126.37.578.809.951 1.105 1.156.045.022.097.044.141.066l.423.197.104.051c.171.08.35.154.527.235.178.08.364.153.55.234.192.08.385.16.57.234.201.08.401.16.594.234l.624.241c.215.08.43.161.645.234.223.08.445.161.668.234.23.08.46.161.69.234.238.08.475.154.713.227.245.08.49.154.734.227l.764.22c.26.072.52.146.78.212.267.073.534.139.801.204l.824.198c.14.029.282.058.415.095a49.13 49.13 0 0 0 3.614 10.519 2.623 2.623 0 0 0 1.863 1.44c1.365.271 2.976.476 4.786.505a23.846 23.846 0 0 0 2.1-.044c.327-.021.653-.043.98-.073.311-.029.616-.066.927-.102.29-.037.587-.08.876-.124.274-.044.542-.088.816-.147.082-.014.156-.029.23-.044l.097-.021c.207-.052.578-.176.898-.469.126-.117.23-.241.304-.35.052-.103.104-.206.156-.315.014-.037.037-.074.052-.11v-.007c.059-.117.11-.234.17-.352l.156-.329c.022-.05.052-.102.074-.16.082-.169.156-.344.238-.513.081-.182.163-.358.237-.54l.245-.564.245-.585.245-.615.245-.636c.081-.22.163-.44.237-.659.082-.226.163-.453.238-.68.081-.234.155-.468.237-.702.082-.241.156-.483.23-.731l.223-.747c.074-.256.148-.512.215-.768.074-.263.14-.526.208-.79l.2-.812c.037-.146.067-.292.104-.438a50.52 50.52 0 0 0 10.923-3.694 2.103 2.103 0 0 0 1.172-1.486c.29-1.397.527-3.072.557-4.966l.008-.183v-.534c0-.176-.008-.344-.008-.52-.007-.168-.007-.336-.022-.504-.008-.168-.015-.33-.03-.498a10.74 10.74 0 0 0-.037-.482l-.044-.476c-.015-.154-.038-.307-.052-.46a9.209 9.209 0 0 0-.06-.447l-.067-.431-.066-.417a6.4 6.4 0 0 0-.075-.403c-.007-.058-.022-.117-.03-.175l-.044-.22-.044-.22v-.006a2.144 2.144 0 0 0-.408-.747 2.562 2.562 0 0 0-.483-.431h-.007c-.067-.037-.134-.066-.2-.095-.075-.037-.156-.073-.23-.11-.045-.022-.09-.044-.134-.059l4.022-6.224ZM31.78 36.904l-.037.073c-.06.131-.133.256-.207.387h-.008c-1.069 1.632-2.842 2.78-4.786 3.138-.074.015-.149.022-.223.037l-.17.022c-.023 0-.045.007-.067.007-.156.015-.312.03-.468.037-.081.007-.163.007-.245.007h-.349c-.037 0-.081 0-.118-.007-.067-.008-.134-.008-.208-.015-2.352-.227-4.46-1.902-5.75-3.899-.008-.007-.008-.007-.008-.014l-.015-.037L1.437 9.502h5.9a6.058 6.058 0 0 1 2.256.46l.156.067a5.032 5.032 0 0 1 1.996 1.675l2.337 3.409c.126-.366.297-.776.55-1.193.081-.124.2-.307.215-.314.304-.447.63-.79.92-1.061a11.508 11.508 0 0 1 4.511-2.809c1.655-.541 5.989-1.55 10.426.885 1.38.76 2.523 1.931 3.332 3.109.008.007.015.022.03.037l.007.007c.342.468.705 1.046 1.024 1.726.06.124.112.256.171.388.156.373.275.724.379 1.06l3.547-5.237a4.992 4.992 0 0 1 1.996-1.682l.156-.066a6.089 6.089 0 0 1 2.255-.461h5.907L31.78 36.903Z" fill="url('#paint0_linear_2002_2983')"/><path d="M50.807 9.817a.992.992 0 0 0 .044-1.032 1.051 1.051 0 0 0-.92-.534h-6.33c-.95.007-1.877.19-2.753.563-.066.03-.126.052-.185.08a6.276 6.276 0 0 0-2.516 2.115l-1.113 1.646c-.14-.037-.26-.066-.282-.073a8.68 8.68 0 0 0-.423-.096c-.037-.007-.067-.014-.096-.022a49.003 49.003 0 0 0-3.629-10.54A2.574 2.574 0 0 0 30.78.512 27.095 27.095 0 0 0 25.963 0h-.728c-.178 0-.348 0-.526.007-.171 0-.342.008-.52.015-.163.007-.334.015-.505.03-.163.014-.326.021-.49.036-.162.014-.318.022-.482.044-.155.014-.311.036-.467.05a9.575 9.575 0 0 0-.453.06c-.148.021-.29.036-.438.065l-.423.066c-.133.022-.274.044-.408.073a1.064 1.064 0 0 0-.148.03l-.223.043a2.468 2.468 0 0 0-.905.425c-.4.3-.616.643-.712.834-.015.029-.03.065-.045.095-.037.08-.074.153-.111.234l-.112.241c-.037.08-.081.161-.118.241-.037.088-.082.169-.119.256-.037.088-.082.176-.119.256-.037.088-.081.176-.119.264-.037.088-.081.183-.118.27-.045.088-.082.183-.119.278-.037.096-.082.19-.119.286-.044.095-.081.19-.118.292-.045.103-.082.198-.127.293-.037.102-.081.205-.118.307-.037.103-.082.205-.119.307-.037.103-.082.205-.119.315-.044.102-.081.212-.119.314-.044.11-.081.22-.118.33-.045.11-.082.22-.119.329-.037.11-.082.227-.119.336-.037.11-.081.227-.118.344-.038.117-.082.234-.12.351-.036.117-.08.234-.118.351l-.111.359c-.037.124-.074.241-.112.365l-.11.374-.112.373a25.5 25.5 0 0 1-.111.38c-.037.132-.075.256-.112.388-.037.131-.074.263-.104.395a7.799 7.799 0 0 0-.103.395c-.038.131-.067.263-.104.402a8.06 8.06 0 0 0-.097.41c-.03.139-.067.278-.096.41a.759.759 0 0 1-.03.124c-.223.05-.564.131-.86.197L12.82 11.01a6.245 6.245 0 0 0-2.694-2.187 7.067 7.067 0 0 0-2.753-.564h-6.33c-.386 0-.742.205-.92.534-.178.33-.163.725.037 1.032l4.022 6.166c-.044.022-.089.044-.14.066a2.429 2.429 0 0 0-1.374 1.734 26.423 26.423 0 0 0-.52 4.791 22.96 22.96 0 0 0 .045 2.07c.023.322.045.644.075.966.03.307.066.607.103.914.008.08.023.16.03.241v.008c.03.204.06.41.097.614.014.073.022.154.037.227 0 .007 0 .015.007.03 0 .021.008.043.008.058.081.3.222.702.497 1.126.37.578.809.951 1.105 1.156.045.022.097.044.141.066l.423.197.104.051c.171.08.35.154.527.235.178.08.364.153.55.234.192.08.385.16.57.234.201.08.401.16.594.234l.624.241c.215.08.43.161.645.234.223.08.445.161.668.234.23.08.46.161.69.234.238.08.475.154.713.227.245.08.49.154.734.227l.764.22c.26.072.52.146.78.212.267.073.534.139.801.204l.824.198c.14.029.282.058.415.095a49.13 49.13 0 0 0 3.614 10.519 2.623 2.623 0 0 0 1.863 1.44c1.365.271 2.976.476 4.786.505a23.846 23.846 0 0 0 2.1-.044c.327-.021.653-.043.98-.073.311-.029.616-.066.927-.102.29-.037.587-.08.876-.124.274-.044.542-.088.816-.147.082-.014.156-.029.23-.044l.097-.021c.207-.052.578-.176.898-.469.126-.117.23-.241.304-.35.052-.103.104-.206.156-.315.014-.037.037-.074.052-.11v-.007c.059-.117.11-.234.17-.352l.156-.329c.022-.05.052-.102.074-.16.082-.169.156-.344.238-.513.081-.182.163-.358.237-.54l.245-.564.245-.585.245-.615.245-.636c.081-.22.163-.44.237-.659.082-.226.163-.453.238-.68.081-.234.155-.468.237-.702.082-.241.156-.483.23-.731l.223-.747c.074-.256.148-.512.215-.768.074-.263.14-.526.208-.79l.2-.812c.037-.146.067-.292.104-.438a50.52 50.52 0 0 0 10.923-3.694 2.103 2.103 0 0 0 1.172-1.486c.29-1.397.527-3.072.557-4.966l.008-.183v-.534c0-.176-.008-.344-.008-.52-.007-.168-.007-.336-.022-.504-.008-.168-.015-.33-.03-.498a10.74 10.74 0 0 0-.037-.482l-.044-.476c-.015-.154-.038-.307-.052-.46a9.209 9.209 0 0 0-.06-.447l-.067-.431-.066-.417a6.4 6.4 0 0 0-.075-.403c-.007-.058-.022-.117-.03-.175l-.044-.22-.044-.22v-.006a2.144 2.144 0 0 0-.408-.747 2.562 2.562 0 0 0-.483-.431h-.007c-.067-.037-.134-.066-.2-.095-.075-.037-.156-.073-.23-.11-.045-.022-.09-.044-.134-.059l4.022-6.224ZM31.78 36.904l-.037.073c-.06.131-.133.256-.207.387h-.008c-1.069 1.632-2.842 2.78-4.786 3.138-.074.015-.149.022-.223.037l-.17.022c-.023 0-.045.007-.067.007-.156.015-.312.03-.468.037-.081.007-.163.007-.245.007h-.349c-.037 0-.081 0-.118-.007-.067-.008-.134-.008-.208-.015-2.352-.227-4.46-1.902-5.75-3.899-.008-.007-.008-.007-.008-.014l-.015-.037L1.437 9.502h5.9a6.058 6.058 0 0 1 2.256.46l.156.067a5.032 5.032 0 0 1 1.996 1.675l2.337 3.409c.126-.366.297-.776.55-1.193.081-.124.2-.307.215-.314.304-.447.63-.79.92-1.061a11.508 11.508 0 0 1 4.511-2.809c1.655-.541 5.989-1.55 10.426.885 1.38.76 2.523 1.931 3.332 3.109.008.007.015.022.03.037l.007.007c.342.468.705 1.046 1.024 1.726.06.124.112.256.171.388.156.373.275.724.379 1.06l3.547-5.237a4.992 4.992 0 0 1 1.996-1.682l.156-.066a6.089 6.089 0 0 1 2.255-.461h5.907L31.78 36.903Z" fill="#06631B" fill-opacity=".75"/><path d="M31.232 31.746a4.405 4.405 0 0 1-.839 1.639c-.69.848-1.677 1.404-2.76 1.63-1.707.36-4.957.696-8.133-.98-.81-.424-2.494-1.338-3.71-3.284-2.108-3.357-1.106-7.007-.891-7.732.549 1.259 1.729 3.417 4.118 5.004.757.497 3.822 1.968 6.672 1.536.586-.088 1.773-.527 2.01-1.66.179-.834-.304-1.705-.49-1.946.357.051 1.99.307 3.147 1.763.17.22 1.447 1.88.876 4.03Z" fill="url('#paint1_linear_2002_2983')"/><path d="M31.232 31.746a4.405 4.405 0 0 1-.839 1.639c-.69.848-1.677 1.404-2.76 1.63-1.707.36-4.957.696-8.133-.98-.81-.424-2.494-1.338-3.71-3.284-2.108-3.357-1.106-7.007-.891-7.732.549 1.259 1.729 3.417 4.118 5.004.757.497 3.822 1.968 6.672 1.536.586-.088 1.773-.527 2.01-1.66.179-.834-.304-1.705-.49-1.946.357.051 1.99.307 3.147 1.763.17.22 1.447 1.88.876 4.03Z" fill="#06631B" fill-opacity=".75"/><path d="M23.165 16.625c-.112-.168-.505-.11-.898.132-.386.234-.616.57-.505.738.111.169.505.11.89-.124.394-.249.624-.578.513-.746Zm12.778 2.238c-.09-.153-.193-.307-.297-.468-.03-.037-.06-.08-.089-.124a1.002 1.002 0 0 0-.111-.154l-.052-.073c-.082-.11-.163-.227-.26-.337a6.654 6.654 0 0 0-.215-.263 6.631 6.631 0 0 0-.356-.402v-.015c-.045-.16-.097-.322-.149-.49-.007-.014-.007-.037-.015-.051-.007-.007-.007-.022-.007-.03a4.13 4.13 0 0 0-.119-.321c-.007-.022-.015-.037-.022-.059v-.007c-.052-.139-.111-.27-.156-.402 0 0 0-.008-.007-.015a7.659 7.659 0 0 0-.245-.49c-.683-1.273-1.885-2.809-3.57-3.73-4.118-2.26-8.147-1.325-9.683-.82a10.42 10.42 0 0 0-2.835 1.456c-.074.058-.156.11-.23.168l-.067.044a7.375 7.375 0 0 0-1.18 1.119c-.022.03-.044.051-.067.08-.03.03-.051.066-.081.103a.223.223 0 0 0-.037.051s0 .007-.008.007c-.015.015-.022.03-.037.044-.044.059-.089.125-.14.19-.016.022-.03.037-.038.059-.022.03-.037.059-.06.088-.007.007-.014.022-.021.03-.015.021-.03.036-.045.058l-.067.11-.208.343c0 .007-.007.007-.007.015 0 .007-.008.007-.008.014l-.022.044-.022.044a.219.219 0 0 0-.03.059c-.059.11-.111.22-.163.329-.178.387-.304.76-.4 1.09a6.568 6.568 0 0 0-.112.453 9.2 9.2 0 0 0-.089.505v.03c-.052.482-.06.972 0 1.47a6.753 6.753 0 0 0 .89 2.67c.26-.19.572-.286 1.373-.71.223-.117.78-.373 1.017-.497-.149-.403 0-.856.341-1.127.364-.293.75-.63 1.15-1.017.401-.395.75-.79 1.047-1.163.43-.541.972-.987 1.595-1.287.008 0 .008-.008.015-.008a5.358 5.358 0 0 1 1.588-.49c.965-.183 4.905-.848 8.808 1.493 2.961 1.777 4.304 4.315 4.78 5.34a11.89 11.89 0 0 0-1.277-2.956Zm.178 6.584c-.43-2.195-1.67-3.621-2.27-4.221-2.338-2.34-5.314-2.51-6.026-2.538a13.415 13.415 0 0 1 4.06-.154c-.78-.27-2.265-.673-4.083-.388a7.667 7.667 0 0 0-.437.08c-.906.191-1.752.579-2.523 1.09a10.298 10.298 0 0 1-3.31 1.464s-2.078.497-3.169-.161c-.052-.03-.104-.037-.207-.154-.43.242-.839.498-1.284.754-.334.19-.727.402-1.061.556.2.285.378.504.497.643 1.9 2.283 4.6 2.743 5.929 2.97 1.885.322 3.532.14 4.727-.132 2.3.125 4.296 1.5 5.113 3.497.98 2.428-.26 4.616-.423 4.894.556-.22 2.96-1.222 4.088-3.804.846-1.91.527-3.65.379-4.396Zm-20.11-4.272c-.17.044-.349.11-.497.117.096.168.2.322.29.453.073-.088.2-.212.296-.3.097-.087.69-.534.772-.585a6.881 6.881 0 0 1-.86.315Z" fill="url('#paint2_linear_2002_2983')"/><path d="M23.165 16.625c-.112-.168-.505-.11-.898.132-.386.234-.616.57-.505.738.111.169.505.11.89-.124.394-.249.624-.578.513-.746Zm12.778 2.238c-.09-.153-.193-.307-.297-.468-.03-.037-.06-.08-.089-.124a1.002 1.002 0 0 0-.111-.154l-.052-.073c-.082-.11-.163-.227-.26-.337a6.654 6.654 0 0 0-.215-.263 6.631 6.631 0 0 0-.356-.402v-.015c-.045-.16-.097-.322-.149-.49-.007-.014-.007-.037-.015-.051-.007-.007-.007-.022-.007-.03a4.13 4.13 0 0 0-.119-.321c-.007-.022-.015-.037-.022-.059v-.007c-.052-.139-.111-.27-.156-.402 0 0 0-.008-.007-.015a7.659 7.659 0 0 0-.245-.49c-.683-1.273-1.885-2.809-3.57-3.73-4.118-2.26-8.147-1.325-9.683-.82a10.42 10.42 0 0 0-2.835 1.456c-.074.058-.156.11-.23.168l-.067.044a7.375 7.375 0 0 0-1.18 1.119c-.022.03-.044.051-.067.08-.03.03-.051.066-.081.103a.223.223 0 0 0-.037.051s0 .007-.008.007c-.015.015-.022.03-.037.044-.044.059-.089.125-.14.19-.016.022-.03.037-.038.059-.022.03-.037.059-.06.088-.007.007-.014.022-.021.03-.015.021-.03.036-.045.058l-.067.11-.208.343c0 .007-.007.007-.007.015 0 .007-.008.007-.008.014l-.022.044-.022.044a.219.219 0 0 0-.03.059c-.059.11-.111.22-.163.329-.178.387-.304.76-.4 1.09a6.568 6.568 0 0 0-.112.453 9.2 9.2 0 0 0-.089.505v.03c-.052.482-.06.972 0 1.47a6.753 6.753 0 0 0 .89 2.67c.26-.19.572-.286 1.373-.71.223-.117.78-.373 1.017-.497-.149-.403 0-.856.341-1.127.364-.293.75-.63 1.15-1.017.401-.395.75-.79 1.047-1.163.43-.541.972-.987 1.595-1.287.008 0 .008-.008.015-.008a5.358 5.358 0 0 1 1.588-.49c.965-.183 4.905-.848 8.808 1.493 2.961 1.777 4.304 4.315 4.78 5.34a11.89 11.89 0 0 0-1.277-2.956Zm.178 6.584c-.43-2.195-1.67-3.621-2.27-4.221-2.338-2.34-5.314-2.51-6.026-2.538a13.415 13.415 0 0 1 4.06-.154c-.78-.27-2.265-.673-4.083-.388a7.667 7.667 0 0 0-.437.08c-.906.191-1.752.579-2.523 1.09a10.298 10.298 0 0 1-3.31 1.464s-2.078.497-3.169-.161c-.052-.03-.104-.037-.207-.154-.43.242-.839.498-1.284.754-.334.19-.727.402-1.061.556.2.285.378.504.497.643 1.9 2.283 4.6 2.743 5.929 2.97 1.885.322 3.532.14 4.727-.132 2.3.125 4.296 1.5 5.113 3.497.98 2.428-.26 4.616-.423 4.894.556-.22 2.96-1.222 4.088-3.804.846-1.91.527-3.65.379-4.396Zm-20.11-4.272c-.17.044-.349.11-.497.117.096.168.2.322.29.453.073-.088.2-.212.296-.3.097-.087.69-.534.772-.585a6.881 6.881 0 0 1-.86.315Z" fill="#06631B" fill-opacity=".75"/><path d="m15.47 14.559-.068.124c.015-.03.03-.059.052-.095 0-.015.008-.022.015-.03Z" fill="url('#paint3_linear_2002_2983')"/><path d="m15.47 14.559-.068.124c.015-.03.03-.059.052-.095 0-.015.008-.022.015-.03Z" fill="#06631B" fill-opacity=".75"/><path d="M15.907 13.867c-.052.08-.11.154-.163.234.052-.08.111-.16.163-.234Z" fill="url('#paint4_linear_2002_2983')"/><path d="M15.907 13.867c-.052.08-.11.154-.163.234.052-.08.111-.16.163-.234Z" fill="#06631B" fill-opacity=".75"/><path d="M16.204 13.475c-.052.065-.104.139-.163.204.06-.073.111-.146.163-.204Z" fill="url('#paint5_linear_2002_2983')"/><path d="M16.204 13.475c-.052.065-.104.139-.163.204.06-.073.111-.146.163-.204Z" fill="#06631B" fill-opacity=".75"/><defs><linearGradient id="paint0_linear_2002_2983" x1="7.605" y1="-3.212" x2="39.464" y2="52.398" gradientUnits="userSpaceOnUse"><stop offset=".59" stop-color="#fff"/></linearGradient><linearGradient id="paint1_linear_2002_2983" x1="16.995" y1="22.162" x2="24.492" y2="38.421" gradientUnits="userSpaceOnUse"><stop offset=".59" stop-color="#fff"/></linearGradient><linearGradient id="paint2_linear_2002_2983" x1="17.953" y1="8.334" x2="35.435" y2="34.709" gradientUnits="userSpaceOnUse"><stop offset=".59" stop-color="#fff"/></linearGradient><linearGradient id="paint3_linear_2002_2983" x1="15.412" y1="14.55" x2="15.511" y2="14.633" gradientUnits="userSpaceOnUse"><stop offset=".59" stop-color="#fff"/></linearGradient><linearGradient id="paint4_linear_2002_2983" x1="15.768" y1="13.851" x2="15.955" y2="14.056" gradientUnits="userSpaceOnUse"><stop offset=".59" stop-color="#fff"/></linearGradient><linearGradient id="paint5_linear_2002_2983" x1="16.065" y1="13.46" x2="16.226" y2="13.662" gradientUnits="userSpaceOnUse"><stop offset=".59" stop-color="#fff"/></linearGradient></defs></svg>