<svg width="32" height="32" fill="none" xmlns="http://www.w3.org/2000/svg"><path fill-rule="evenodd" clip-rule="evenodd" d="M29.032 8.857a1.389 1.389 0 0 0 .346-.237c.107-.107.194-.223.263-.381.01.24-.04.433-.133.621l-.01.02c.186.032.362.091.509.166a2.036 2.036 0 0 0-.53.097 1.17 1.17 0 0 0-.218.088c.063.143.093.274.096.396.007.246-.085.462-.253.66-.203.242-.53.459-.884.69-.493.323-1.018.705-1.576.909-.387.141-.757.225-1.098.339-.454.151-.852.359-1.151.893-.306.546-.318 1.062-.231 1.579.095.567.304 1.137.422 1.746a3.885 3.885 0 0 1-.27 2.4 2.27 2.27 0 0 1-.71.889c-.309.232-.646.41-1.013.532-.466.155-.99.206-1.47.1-.361-.08-.718-.21-1.04-.389-1.242-.688-1.478-1.838-1.344-3.078.123-1.146.57-2.367.725-3.303.082-.503.039-1.142-.186-1.666-.207-.483-.575-.868-1.163-.905a2.495 2.495 0 0 0-1.74.583c-.431.379-.664.927-.431 1.573.241.668.564 1.405.947 2.004.48.755 1.09 1.52 1.4 2.366.861 2.343-.245 5.5-2.633 6.45-.63.25-1.37.41-2.047.322-.855-.113-1.584-.578-2.155-1.227-.835-.946-1.335-2.281-1.419-3.416-.11-1.463.451-3.113.515-4.576.02-.472.045-.971-.029-1.42-.099-.6-.388-1.103-1.164-1.271-.77-.166-1.414-.005-1.813.4-.398.405-.541 1.042-.348 1.797.23.899.693 1.791 1.175 2.581.479.788.987 1.472 1.124 2.412.152 1.05-.03 2.206-.953 2.862a3.4 3.4 0 0 1-1.189.517c-.35.075-.853.081-1.211.047-.884-.085-1.475-.603-1.829-1.369-.308-.667-.377-1.4-.449-2.13-.066-.673-.133-1.341-.443-1.937-.284-.543-.752-.888-1.307-1.119a5.834 5.834 0 0 0-.698-.24c-.023-.006-.216-.05-.255-.064a.235.235 0 0 1-.161-.23c0-.01.042-.254.275-.236.1.008.607.063.664.069.743.078 1.504.416 2.005.983.569.643.774 1.381.908 2.136.124.695.183 1.403.468 2.049.142.323.446.483.776.528.358.05.75-.032 1.041-.21.416-.253.86-.7.697-1.262-.159-.55-.535-1.103-.95-1.648-.437-.576-.917-1.142-1.258-1.68-.501-.788-.834-1.993-.791-3.12.03-.77.235-1.503.666-2.052.664-.843 1.509-1.393 2.53-1.56.839-.138 1.765-.078 2.565.245.521.211.948.414 1.317.83.34.382.616.812.84 1.273.624 1.286.455 2.598.137 3.902-.299 1.228-.734 2.448-.666 3.634.078 1.357 1.59 2.024 2.75 1.452.577-.284.858-.847.932-1.447.077-.624-.069-1.294-.364-1.77-.373-.602-.727-1.306-1.107-1.902-1.357-2.134-2.174-4.69-.196-6.768.552-.58 1.662-1.178 2.427-1.302 2.047-.331 4.524.315 5.38 2.433.404.997.384 1.98.184 2.956-.192.937-.55 1.868-.835 2.8-.073.24-.145.658-.082 1.024.05.295.198.556.568.574.556.027 1.049-.36.979-.876-.172-1.263-.567-2.32-.33-3.597.182-.978.662-1.73 1.497-2.486.362-.328.732-.505 1.123-.79.146-.105.153-.249.2-.38a.854.854 0 0 1 .312-.43c.495-.357 1.659-.733 2.44-.77.224-.01.418.007.565.053a.623.623 0 0 1 .305.19l.06.074Zm-.273.447a.69.69 0 0 1 .117.337c.005.166-.092.3-.228.43-.18.174-.429.333-.692.505-.464.303-.954.668-1.478.86-.383.139-.75.222-1.085.334-.563.187-1.048.452-1.418 1.114-.367.654-.39 1.271-.286 1.892.096.572.305 1.146.424 1.758.143.735.07 1.424-.237 2.113a1.788 1.788 0 0 1-.56.702c-.267.2-.56.354-.876.46a2.326 2.326 0 0 1-1.216.086 3.43 3.43 0 0 1-.912-.339c-1.045-.58-1.212-1.563-1.099-2.608.123-1.137.569-2.348.722-3.276.096-.583.043-1.325-.218-1.933-.279-.648-.786-1.145-1.573-1.195-1.497-.095-3.26 1.12-2.653 2.798.253.7.593 1.471.993 2.1.464.725 1.056 1.458 1.355 2.272.779 2.118-.201 4.98-2.36 5.84-.556.22-1.21.37-1.808.292-.739-.098-1.363-.508-1.858-1.07-.766-.867-1.222-2.093-1.3-3.134-.108-1.445.453-3.074.516-4.519.023-.505.044-1.039-.035-1.518-.13-.79-.516-1.443-1.537-1.663-.96-.207-1.756.026-2.255.533-.5.509-.713 1.303-.47 2.252.241.944.724 1.882 1.23 2.712.444.73.932 1.358 1.058 2.23.127.878.015 1.855-.756 2.403-.289.206-.67.366-1.012.44-.307.066-.75.068-1.065.038-.699-.067-1.159-.487-1.439-1.093-.285-.618-.34-1.3-.407-1.977-.062-.641-.135-1.279-.38-1.863.228.43.336.89.42 1.358.13.731.2 1.476.5 2.157.213.484.655.742 1.15.81.466.065.977-.044 1.356-.276.582-.355 1.135-1.017.908-1.804-.173-.6-.576-1.21-1.028-1.805-.43-.565-.902-1.119-1.236-1.646-.457-.72-.756-1.819-.717-2.845.025-.665.192-1.3.564-1.774.586-.745 1.329-1.237 2.23-1.385.755-.123 1.589-.073 2.309.218.448.18.82.346 1.138.703.31.35.562.743.766 1.164.573 1.18.395 2.383.104 3.58-.312 1.274-.75 2.544-.68 3.774.099 1.706 1.983 2.574 3.44 1.856.73-.36 1.104-1.06 1.197-1.82.09-.734-.085-1.52-.433-2.08-.374-.604-.729-1.31-1.11-1.907-1.24-1.95-2.06-4.282-.252-6.18.49-.516 1.475-1.05 2.156-1.16 1.84-.297 4.09.236 4.859 2.14.366.904.34 1.795.158 2.68-.189.922-.543 1.839-.823 2.755-.09.292-.173.802-.097 1.246.088.513.373.94 1.017.972.868.042 1.588-.616 1.478-1.42-.165-1.21-.56-2.221-.334-3.444.163-.875.601-1.543 1.348-2.218.349-.316.707-.483 1.084-.757a.853.853 0 0 0 .31-.432c.046-.13.054-.273.2-.379.442-.318 1.484-.646 2.183-.679a1.42 1.42 0 0 1 .354.02c.053.011.099.02.123.05.054.064.098.124.136.183l.012.02.008.012Z" fill="#095119" stroke="#095119" stroke-width=".4"/></svg>