<svg width="38" height="38" fill="none" xmlns="http://www.w3.org/2000/svg"><path d="M-2055-711H251v-2h-2306v2Zm2307 1v22749h2V-710h-2Zm-1 22750h-2306v2H251v-2Zm-2307-1V-710h-2v22749h2Zm1 1c-.55 0-1-.4-1-1h-2c0 1.7 1.34 3 3 3v-2Zm2307-1c0 .6-.448 1-1 1v2c1.657 0 3-1.3 3-3h-2ZM251-711a1 1 0 0 1 1 1h2a3 3 0 0 0-3-3v2Zm-2306-2c-1.66 0-3 1.344-3 3h2c0-.552.45-1 1-1v-2Z" fill="#000" fill-opacity=".1"/><path d="M32.877 16.217c0 10.155-13.939 19.633-13.939 19.633S5 26.372 5 16.217c0-3.77 1.468-7.387 4.082-10.053A13.801 13.801 0 0 1 18.938 2c3.697 0 7.242 1.498 9.856 4.164a14.363 14.363 0 0 1 4.082 10.053Z" stroke="#04A427" stroke-width="2.656" stroke-linecap="round" stroke-linejoin="round"/><path d="M18.937 19.596c1.833 0 3.318-1.515 3.318-3.385 0-1.87-1.485-3.385-3.318-3.385s-3.319 1.516-3.319 3.385c0 1.87 1.486 3.385 3.319 3.385Z" fill="#04A427" stroke="#04A427" stroke-width="2.656" stroke-linecap="round" stroke-linejoin="round"/></svg>