<svg width="136" height="44" fill="none" xmlns="http://www.w3.org/2000/svg"><path d="M48.508 9.372a.948.948 0 0 0 .043-.984 1.004 1.004 0 0 0-.879-.51H41.63A6.801 6.801 0 0 0 39 8.416c-.063.028-.12.049-.177.076a5.992 5.992 0 0 0-2.401 2.019l-1.063 1.571c-.135-.035-.248-.063-.27-.07a8.393 8.393 0 0 0-.403-.09c-.036-.007-.064-.014-.092-.021a46.786 46.786 0 0 0-3.465-10.064A2.458 2.458 0 0 0 29.386.489 25.869 25.869 0 0 0 24.788 0h-.694c-.17 0-.333 0-.503.007-.163 0-.326.007-.496.014-.156.007-.319.014-.482.028-.156.014-.312.02-.468.035-.155.014-.304.02-.46.042-.149.014-.298.035-.446.049-.142.014-.29.035-.433.055-.141.021-.276.035-.418.063l-.404.063c-.127.021-.262.042-.39.07-.049.007-.091.014-.14.028l-.213.042a2.357 2.357 0 0 0-.865.405 2.335 2.335 0 0 0-.68.796c-.014.028-.028.063-.042.09-.036.078-.071.148-.107.224l-.106.23c-.035.078-.078.154-.113.231-.036.084-.078.161-.114.245-.035.084-.078.167-.113.244-.035.084-.078.168-.113.252-.036.083-.078.174-.114.258a2.996 2.996 0 0 0-.113.265c-.035.091-.078.182-.113.273-.043.09-.078.181-.114.28-.042.097-.078.188-.12.279-.036.097-.078.195-.114.293-.035.098-.078.195-.113.293-.035.098-.078.196-.113.3-.043.098-.078.203-.114.3-.042.106-.078.21-.113.315-.043.105-.078.21-.113.314-.036.105-.078.217-.114.322-.035.104-.078.216-.113.328-.036.112-.078.223-.114.335-.035.112-.077.224-.113.335-.035.112-.07.23-.106.343-.036.118-.071.23-.106.349l-.107.356a480.62 480.62 0 0 1-.212.72l-.107.37c-.035.125-.07.25-.099.377-.035.125-.07.25-.099.377-.035.125-.064.251-.1.384a7.9 7.9 0 0 0-.091.39c-.028.134-.064.266-.092.392a.72.72 0 0 1-.029.119c-.212.049-.538.125-.822.188l-1.07-1.557A5.963 5.963 0 0 0 9.67 8.423a6.748 6.748 0 0 0-2.629-.538H.997a.996.996 0 0 0-.879.51.962.962 0 0 0 .036.984l3.84 5.888a2.453 2.453 0 0 1-.135.063 2.319 2.319 0 0 0-1.31 1.655 25.229 25.229 0 0 0-.496 4.574 21.903 21.903 0 0 0 .043 1.977c.02.307.042.615.07.922.028.293.064.58.1.873.006.077.02.153.027.23v.007c.029.196.057.391.093.587.014.07.02.146.035.216 0 .007 0 .014.007.028 0 .021.007.042.007.056.078.287.213.67.475 1.076.354.551.772.908 1.056 1.103.042.021.092.042.134.063l.404.189.1.049c.162.076.332.146.502.223.17.077.347.147.524.223.185.077.369.154.546.224.191.077.383.154.567.223l.595.23c.205.078.41.154.616.224.213.077.425.154.638.224.22.077.44.154.659.223.227.077.453.147.68.217.234.077.468.146.701.216.241.07.482.14.73.21.248.07.496.14.744.202.255.07.51.133.765.196l.787.189c.134.027.269.055.397.09a46.903 46.903 0 0 0 3.45 10.043c.34.713.999 1.222 1.778 1.376a25.65 25.65 0 0 0 4.57.482 22.663 22.663 0 0 0 2.005-.042c.312-.02.623-.042.935-.07.298-.028.588-.063.886-.098.276-.035.56-.076.836-.118.262-.042.517-.084.78-.14a11.653 11.653 0 0 0 .31-.063 1.99 1.99 0 0 0 .858-.447c.12-.111.22-.23.29-.335.05-.098.1-.196.15-.3.014-.035.035-.07.049-.105v-.007c.057-.112.106-.224.163-.335l.149-.315c.021-.049.05-.097.07-.153.079-.16.15-.328.227-.49.078-.174.156-.341.227-.516.078-.181.156-.356.234-.538l.234-.558.233-.587.234-.608c.078-.21.156-.419.227-.628.078-.217.156-.433.227-.65.078-.223.148-.447.226-.67.078-.23.15-.461.22-.699l.213-.712c.07-.244.141-.489.205-.733.07-.252.135-.503.198-.755l.192-.775c.035-.14.063-.28.099-.419a48.235 48.235 0 0 0 10.429-3.527c.58-.272.992-.796 1.12-1.417.276-1.334.502-2.934.53-4.742l.008-.175v-.51c0-.168-.007-.328-.007-.496-.008-.16-.007-.321-.022-.482-.007-.16-.014-.314-.028-.475a9.923 9.923 0 0 0-.035-.46c-.015-.147-.029-.3-.043-.454-.014-.147-.035-.294-.05-.44a8.765 8.765 0 0 0-.056-.426l-.064-.413-.064-.398a6.238 6.238 0 0 0-.07-.384c-.008-.056-.022-.111-.029-.167l-.042-.21-.043-.21v-.006a2.047 2.047 0 0 0-.39-.713 2.45 2.45 0 0 0-.46-.412h-.007c-.064-.035-.128-.063-.191-.09-.071-.036-.15-.07-.22-.105a1.009 1.009 0 0 0-.128-.056l3.84-5.944ZM30.343 35.234l-.036.07c-.056.125-.127.244-.198.37h-.007c-1.02 1.557-2.714 2.654-4.57 2.996-.07.014-.142.021-.212.035l-.163.021c-.022 0-.043.007-.064.007a9.563 9.563 0 0 1-.447.035c-.078.007-.155.007-.233.007H24.08c-.036 0-.078 0-.114-.007-.064-.007-.127-.007-.198-.014-2.246-.217-4.258-1.816-5.49-3.722-.008-.007-.008-.007-.008-.014l-.014-.035L1.372 9.073h5.633c.737.006 1.488.16 2.154.44l.149.062c.75.342 1.41.9 1.905 1.6l2.232 3.254c.12-.35.284-.74.524-1.139.078-.118.192-.293.206-.3.29-.426.602-.754.878-1.013a10.987 10.987 0 0 1 4.308-2.681c1.58-.517 5.718-1.481 9.954.845 1.318.726 2.41 1.843 3.181 2.968.008.007.015.02.029.035l.007.007c.326.447.673.998.978 1.648.056.119.106.244.163.37.148.356.262.691.36 1.013l3.387-5a4.766 4.766 0 0 1 1.906-1.607l.15-.063a5.813 5.813 0 0 1 2.153-.44h5.64L30.343 35.234Z" fill="#0B5594"/><path d="M29.82 30.31a4.205 4.205 0 0 1-.801 1.565c-.66.81-1.602 1.34-2.636 1.557-1.63.342-4.733.664-7.765-.936-.772-.405-2.38-1.278-3.542-3.136-2.013-3.205-1.056-6.69-.85-7.381.524 1.2 1.65 3.261 3.931 4.777.723.474 3.65 1.878 6.37 1.466.56-.084 1.693-.503 1.92-1.585.17-.796-.29-1.628-.468-1.858.34.049 1.899.293 3.004 1.683.163.21 1.382 1.795.836 3.848Z" fill="url('#paint0_linear_900_3002')"/><path d="M22.118 15.873c-.106-.16-.482-.104-.857.126-.369.223-.589.545-.482.705.106.161.482.105.85-.118.375-.238.595-.552.489-.713Zm12.2 2.137c-.085-.146-.184-.293-.283-.447-.029-.034-.057-.076-.085-.118a.952.952 0 0 0-.107-.147l-.05-.07c-.077-.105-.155-.216-.247-.321a6.393 6.393 0 0 0-.206-.252 6.3 6.3 0 0 0-.34-.384v-.014c-.042-.153-.092-.307-.142-.468-.007-.014-.007-.034-.014-.048-.007-.007-.007-.021-.007-.028a3.898 3.898 0 0 0-.113-.308l-.021-.055v-.008c-.05-.132-.107-.258-.15-.384 0 0 0-.007-.006-.014a7.232 7.232 0 0 0-.234-.468c-.652-1.215-1.8-2.681-3.408-3.561-3.932-2.158-7.78-1.264-9.246-.782a9.947 9.947 0 0 0-2.706 1.39c-.071.055-.149.104-.22.16l-.064.042c-.326.244-.73.6-1.126 1.068-.021.028-.043.05-.064.077-.028.028-.05.063-.078.098a.215.215 0 0 0-.035.049s0 .007-.007.007c-.014.014-.021.028-.036.042-.042.056-.085.118-.134.181-.014.021-.029.035-.036.056-.021.028-.035.056-.056.084-.008.007-.015.021-.022.028-.014.02-.028.035-.042.056l-.064.105c-.064.104-.127.21-.198.328 0 .007-.007.007-.007.014s-.007.007-.007.014a5.47 5.47 0 0 0-.022.042l-.021.042a.203.203 0 0 0-.028.056c-.057.104-.107.209-.156.314-.17.37-.29.726-.383 1.04a6.398 6.398 0 0 0-.106.433 8.81 8.81 0 0 0-.085.482v.028c-.05.461-.057.929 0 1.404a6.45 6.45 0 0 0 .85 2.55c.248-.183.546-.273 1.31-.678.213-.112.745-.357.971-.475-.141-.384 0-.817.326-1.076.348-.28.716-.6 1.099-.97.382-.378.715-.755.998-1.111.411-.517.929-.943 1.524-1.23.007 0 .007-.006.014-.006a5.119 5.119 0 0 1 1.516-.468c.921-.175 4.683-.81 8.41 1.425 2.827 1.697 4.11 4.12 4.563 5.098a11.358 11.358 0 0 0-1.219-2.822Zm.17 6.286c-.41-2.095-1.594-3.457-2.168-4.03-2.232-2.235-5.073-2.395-5.753-2.423a12.818 12.818 0 0 1 3.875-.147 8.068 8.068 0 0 0-4.314-.293c-.865.181-1.672.552-2.41 1.04a9.832 9.832 0 0 1-3.159 1.397s-1.984.475-3.025-.153c-.05-.028-.1-.035-.199-.147-.41.23-.8.475-1.225.72a14.11 14.11 0 0 1-1.013.53c.19.272.36.482.474.615 1.814 2.179 4.393 2.619 5.661 2.835 1.8.307 3.373.133 4.513-.126 2.197.12 4.102 1.432 4.882 3.339.935 2.318-.248 4.407-.404 4.672.531-.21 2.827-1.166 3.904-3.632.807-1.822.503-3.485.361-4.197Zm-19.2-4.079c-.163.042-.333.105-.475.112.092.16.191.307.276.433.071-.084.192-.203.284-.286.092-.084.659-.51.737-.559-.036.021-.581.244-.822.3Z" fill="url('#paint1_linear_900_3002')"/><path d="M14.77 13.898c-.021.042-.043.077-.064.12a1.18 1.18 0 0 1 .05-.092c0-.014.007-.02.014-.028ZM15.188 13.242c-.05.077-.106.147-.156.224.05-.077.107-.154.156-.224ZM15.472 12.865c-.05.063-.099.133-.156.196.057-.07.107-.14.156-.196Z" fill="#fff"/><path d="M63.383 20.621c-.233 1.271-1.523 2.368-2.834 2.368h-3.62c-.142 0-.163-.014-.07-.14l6.198-10.329c.071-.07-.014-.23-.127-.23h-6.54c-.913 0-1.09-.07-1.02-.496.014-.056-.198-.091-.212-.035l-.716 3.073c-.014.07.177.104.213.056 1.006-2.068 2.31-2.298 6.036-2.298.163 0 .163.014.092.14l-6.291 10.364c-.071.09 0 .23.092.23 2.67 0 5.909 0 8.58.035.106 0 .163-.105.163-.175l.255-2.563c0-.076-.177-.076-.199 0ZM71.446 12.086c-2.905 0-6.305 1.886-6.305 5.72 0 3.108 2.238 5.72 5.675 5.72 3.4 0 6.291-2.564 6.291-5.846 0-2.835-2.132-5.594-5.66-5.594Zm-.035 11.007c-2.345 0-4.067-2.473-4.067-5.937 0-2.863 1.197-4.588 3.387-4.588 2.6 0 4.173 2.402 4.173 5.636 0 3.136-1.502 4.889-3.493 4.889ZM85.169 12.086c-2.905 0-6.306 1.886-6.306 5.72 0 3.108 2.24 5.72 5.682 5.72 3.401 0 6.292-2.564 6.292-5.846-.007-2.835-2.14-5.594-5.668-5.594Zm-.036 11.007c-2.345 0-4.066-2.473-4.066-5.937 0-2.863 1.197-4.588 3.386-4.588 2.6 0 4.173 2.402 4.173 5.636 0 3.136-1.502 4.889-3.493 4.889ZM107.728 12.283c-.609 0-.935.056-1.594.056-.9 0-1.381-.056-2.005-.056-.071 0-.071.21 0 .21.893 0 1.29.936.808 2.207l-2.31 6.09-2.147-4.47.659-1.746c.539-1.41 1.184-2.081 1.991-2.081.057 0 .057-.21 0-.21-.538 0-.807.056-1.395.056-1.077 0-.808-.056-1.162-.056-.071 0-.071.21 0 .21.595 0 .595.635.056 2.032l-.446 1.187-.787-1.64c-.623-1.307-.644-1.572 0-1.572.071 0 .071-.21 0-.21-.396 0-.821.056-2.168.056-.75 0-.75-.056-1.112-.056-.07 0-.07.21 0 .21.432 0 .772.475 1.148 1.257l1.99 4.148-1.126 2.913-3.223-6.747c-.624-1.306-.574-1.571.41-1.571.071 0 .071-.21 0-.21-.481 0-1.005.056-2.6.056-.892 0-.892-.056-1.31-.056-.071 0-.071.21 0 .21.68 0 .857.21 1.36 1.257l4.57 9.554c.035.09.361.09.397 0l1.806-4.784 2.296 4.784c.035.09.361.09.396 0l3.316-8.723c.503-1.292 1.325-2.081 2.204-2.081.028-.014.028-.224-.022-.224ZM112.957 23.108c-1.113 0-1.276-.196-1.276-1.223v-8.143c0-1.006.178-1.257 1.276-1.257.071 0 .071-.21 0-.21-.61 0-1.382.056-2.296.056-.857 0-1.665-.056-2.295-.056-.057 0-.057.21 0 .21 1.091 0 1.31.21 1.31 1.222v8.178c0 1.027-.212 1.223-1.31 1.223-.057 0-.057.209 0 .209.623 0 1.431-.035 2.295-.035.914 0 1.665.035 2.296.035.071 0 .071-.21 0-.21ZM122.968 20.105c-.447 1.662-1.92 2.717-3.777 2.717h-.609c-.878 0-1.02-.14-1.02-1.006V13.73c0-1.006.177-1.236 1.275-1.236.071 0 .071-.21 0-.21-.609 0-1.381.056-2.274.056-.857 0-1.701-.056-2.274-.056-.057 0-.057.21 0 .21 1.091 0 1.289.21 1.289 1.222v8.178c0 1.027-.198 1.222-1.289 1.222-.057 0-.057.21 0 .21h8.452c.198 0 .269-.07.269-.266 0-.922.092-2.137.163-2.912-.007-.077-.184-.112-.205-.042ZM129.096 12.246c-.737 0-1.885.09-2.756.09-.857 0-1.63-.055-2.26-.055-.071 0-.071.21 0 .21 1.077 0 1.275.21 1.275 1.222v8.178c0 1.027-.212 1.222-1.311 1.222-.056 0-.056.21 0 .21.624 0 1.432-.035 2.296-.035.949 0 2.239.104 3.011.104 3.21 0 5.909-2.241 5.909-5.775 0-3.038-2.452-5.37-6.164-5.37Zm.071 10.741c-1.502 0-1.828-.405-1.828-1.292v-7.947c0-.957.538-1.11 1.934-1.11 2.31 0 3.783 2.367 3.783 5.37 0 3.226-1.629 4.98-3.889 4.98Z" fill="#0A7040"/><path d="M126.128 29.662h-.411l.142.307-1.099 2.235h.404l.064-.118a.286.286 0 0 1 .078-.084.529.529 0 0 1 .156-.077c.064-.028.142-.042.227-.063.092-.014.191-.02.304-.02h.772l.163.362h.411l-1.211-2.542Zm0 1.809c-.177 0-.319.014-.425.042a.693.693 0 0 0-.227.098l.56-1.195.552 1.055h-.46Zm-2.735.363h-.042c-.029 0-.057 0-.093-.007-.035-.007-.063-.02-.099-.035a.555.555 0 0 1-.106-.084.965.965 0 0 1-.12-.146l-.454-.67.836-1.174h-.446l-.645.936a.579.579 0 0 1-.234.077c-.085.014-.163.02-.241.02h-.17v-1.033h-.368v2.5h.368v-1.096h.213c.064 0 .12-.007.184-.014s.12-.028.184-.05l.489.77a.97.97 0 0 0 .326.334c.05.028.106.042.156.05.057.006.106.013.17.013h.135v-.37c-.015-.02-.029-.02-.043-.02Zm-4.315-2.13v2.5h.362v-2.5h-.362Zm-2.139 0v.97a.521.521 0 0 1-.177.05c-.064.007-.121.014-.17.014-.057 0-.128-.007-.206-.014-.078-.007-.156-.014-.241-.028a2.207 2.207 0 0 1-.227-.028c-.07-.007-.12-.014-.155-.014-.057 0-.107.007-.163.014a.568.568 0 0 0-.156.049V29.69h-.369v2.5h.369v-1.103a.441.441 0 0 1 .156-.049c.056-.014.106-.014.163-.014.035 0 .092.007.155.014.071.007.142.014.227.028.078.007.163.014.241.028.078.007.149.014.206.014.049 0 .106-.007.17-.014a.614.614 0 0 0 .17-.05v1.167h.368v-2.5h-.361v-.007Zm-3.989 0v2.5h.361v-2.5h-.361Zm-3.677 0 .156.37h.29c-.014.126-.028.252-.049.384-.022.126-.043.252-.071.377a2.403 2.403 0 0 1-.284.691 1.016 1.016 0 0 1-.134.175c-.043.042-.078.077-.114.098a.378.378 0 0 1-.099.042c-.028.007-.064.007-.092.007h-.071v.37h.071c.035 0 .071 0 .12-.007.05-.007.1-.014.149-.028a.74.74 0 0 0 .156-.07.511.511 0 0 0 .149-.125c.099-.119.191-.259.262-.405.071-.154.128-.308.177-.475.05-.168.085-.335.121-.51.028-.175.049-.342.07-.503h.73v2.13h.369v-2.5h-1.906v-.021Zm-1.856 2.13h-.043c-.028 0-.064 0-.092-.007a.857.857 0 0 1-.099-.035.56.56 0 0 1-.107-.084 1.029 1.029 0 0 1-.12-.146l-.453-.67.836-1.174h-.447l-.644.936a.616.616 0 0 1-.234.077c-.085.014-.163.02-.241.02h-.17v-1.033h-.369v2.5h.369v-1.096h.212c.064 0 .121-.007.185-.014.063-.007.12-.028.184-.05l.489.77a.943.943 0 0 0 .326.334.443.443 0 0 0 .155.05c.057.006.107.013.17.013h.135v-.37c-.021-.02-.035-.02-.042-.02Zm-6.844-2.172h-.411l.141.307-1.098 2.235h.404l.064-.118a.283.283 0 0 1 .078-.084.536.536 0 0 1 .155-.077c.064-.028.142-.042.227-.063a2.02 2.02 0 0 1 .305-.02h.772l.163.362h.418l-1.218-2.542Zm0 1.809c-.178 0-.319.014-.426.042a.694.694 0 0 0-.226.098l.559-1.195.553 1.055h-.46Zm-3.203-1.767v.97a.522.522 0 0 1-.17.05c-.064.007-.12.014-.17.014-.057 0-.127-.007-.205-.014-.078-.007-.156-.014-.241-.028a2.201 2.201 0 0 1-.227-.028c-.07-.007-.12-.014-.156-.014-.056 0-.106.007-.163.014a.578.578 0 0 0-.156.049V29.69h-.368v2.5h.368v-1.103a.447.447 0 0 1 .156-.049c.057-.014.106-.014.163-.014.036 0 .092.007.156.014.07.007.142.014.227.028.078.007.163.014.24.028.079.007.15.014.206.014.05 0 .106-.007.17-.014a.601.601 0 0 0 .17-.05v1.167h.369v-2.5h-.369v-.007Zm-3.464.412a.62.62 0 0 0-.383-.363.845.845 0 0 0-.305-.049h-1.303v2.5h.368v-.963a.758.758 0 0 1 .241-.084c.085-.014.163-.021.248-.021h.446a.843.843 0 0 0 .305-.05.662.662 0 0 0 .234-.146.65.65 0 0 0 .149-.23.812.812 0 0 0 .05-.3.977.977 0 0 0-.05-.294Zm-.695.657h-.446c-.085 0-.163.006-.248.014a.786.786 0 0 0-.234.083v-.803h.935c.12 0 .213.028.277.077.063.049.092.14.092.265 0 .245-.128.364-.376.364Zm-4.017-1.11h-.41l.14.306-1.097 2.235h.404l.063-.118a.281.281 0 0 1 .078-.084.536.536 0 0 1 .156-.077c.064-.028.142-.042.227-.063.092-.014.191-.02.305-.02h.772l.163.362h.418l-1.219-2.542Zm0 1.808c-.177 0-.319.014-.418.042a.694.694 0 0 0-.227.098l.56-1.195.553 1.055h-.468Zm-3.202-1.767v.97a.523.523 0 0 1-.17.05c-.064.007-.12.014-.17.014-.057 0-.128-.007-.206-.014-.078-.007-.156-.014-.24-.028a2.2 2.2 0 0 1-.227-.028c-.071-.007-.12-.014-.156-.014-.057 0-.106.007-.163.014a.578.578 0 0 0-.156.049l.007-1.027h-.368v2.5h.368v-1.103a.447.447 0 0 1 .156-.049c.057-.014.106-.014.163-.014.035 0 .092.007.156.014.07.007.141.014.226.028.078.007.163.014.241.028.078.007.15.014.206.014.05 0 .106-.007.17-.014a.603.603 0 0 0 .17-.05v1.167h.368v-2.5h-.375v-.007Zm-3.989 0-1.488 1.928v-1.928h-.368v2.5h.368l1.488-1.927v1.927h.368v-2.5h-.368Zm-3.472.412a.623.623 0 0 0-.382-.363 1.03 1.03 0 0 0-.305-.049h-1.303v2.5h.368v-.963a.759.759 0 0 1 .24-.084c.086-.014.164-.021.249-.021h.446a.843.843 0 0 0 .305-.05.663.663 0 0 0 .234-.146.653.653 0 0 0 .148-.23.812.812 0 0 0 .057-.3.98.98 0 0 0-.057-.294Zm-.694.657h-.446c-.085 0-.163.006-.248.014a.787.787 0 0 0-.234.083v-.803h.928c.12 0 .213.028.276.077.064.049.093.14.093.265.007.245-.121.364-.369.364Zm-4.478 1.061V31.2a.762.762 0 0 1 .234-.077 1.4 1.4 0 0 1 .241-.021h.553v-.37h-.553c-.085 0-.163.007-.248.014a.528.528 0 0 0-.234.083v-.76h1.417v-.371h-1.785v2.5h1.934v-.37H73.36v.007Zm-4.024-2.13v.37h.907v2.13h.361v-2.13h.893v-.37h-2.16Zm-2.905 2.13V31.2a.764.764 0 0 1 .234-.077c.078-.014.163-.021.241-.021h.553v-.37h-.546c-.085 0-.163.007-.248.014a.528.528 0 0 0-.234.083v-.76h1.417v-.371h-1.785v2.5h1.934v-.37H66.43v.007Zm-2.033-.552a.878.878 0 0 0-.078-.181.535.535 0 0 0-.113-.133.67.67 0 0 0-.128-.084.402.402 0 0 0 .17-.202.775.775 0 0 0 0-.587.68.68 0 0 0-.156-.216.58.58 0 0 0-.24-.133 1.022 1.022 0 0 0-.298-.042h-1.282v2.5h1.289c.106 0 .212-.014.312-.035a.931.931 0 0 0 .283-.118.61.61 0 0 0 .276-.524.85.85 0 0 0-.035-.245Zm-1.75-1.208h.914c.113 0 .198.021.27.07.07.049.105.133.105.251 0 .12-.035.203-.099.259-.064.056-.156.084-.276.084h-.432c-.085 0-.163.007-.248.014a.787.787 0 0 0-.234.083v-.76Zm1.367 1.558a.289.289 0 0 1-.113.111.475.475 0 0 1-.149.063.638.638 0 0 1-.156.021h-.956V31.2a.784.784 0 0 1 .234-.084c.085-.014.163-.021.24-.021h.433c.064 0 .12.007.184.014a.557.557 0 0 1 .163.056c.05.028.085.063.113.111a.346.346 0 0 1 .043.182.224.224 0 0 1-.036.175Z" fill="#0B5594"/><defs><linearGradient id="paint0_linear_900_3002" x1="-.322" y1="33.711" x2="26.788" y2="25.593" gradientUnits="userSpaceOnUse"><stop offset=".047" stop-color="#0B5594"/><stop offset=".59" stop-color="#0A7040"/><stop offset="1" stop-color="#DBB14F"/></linearGradient><linearGradient id="paint1_linear_900_3002" x1="17.142" y1="7.957" x2="33.833" y2="33.139" gradientUnits="userSpaceOnUse"><stop offset=".047" stop-color="#0B5594"/><stop offset=".59" stop-color="#0A7040"/><stop offset="1" stop-color="#DBB14F"/></linearGradient></defs></svg>