<svg width="92" height="109" fill="none" xmlns="http://www.w3.org/2000/svg"><path opacity=".06" fill-rule="evenodd" clip-rule="evenodd" d="M62.603 43.65c7.471 3.522 15.522-2.338 18.638-10.422 3.42-8.623.827-17.372-6.208-20.793-7.265-3.557-15.006.904-18.084 9.028-3.296 7.779-1.647 18.672 5.654 22.188Zm27.915 13.284c-1.033-3.595-3.329-6.558-6.452-8.36-6.886-3.933-14.736-.776-18.661 7.48-3.784 7.687-2.669 18.312 4.484 22.421 7.138 4.077 15.807-1.134 19.296-8.817 2.013-4.218 2.474-8.74 1.333-12.724Zm-53.72-22.376c-3.097-.715-5.707-2.766-7.532-5.832-6.832-11.428.481-30.634 13.9-27.52 12.938 3.078 13.032 21.744 4.173 30.039-3.103 2.918-6.933 4.126-10.54 3.313ZM47.036 47.91C33.544 43.371 12.087 69.683 8.413 80.02c-4.205 14.593 9.393 20.031 22.323 24.399l.022.008c1.012.335 2.015.676 3.008 1.014 8.492 2.892 16.233 5.528 22.665 1.141 2.335-1.709 4.033-4.342 5.057-7.858 2.462-10.63-1.14-45.988-14.452-50.814Zm-19.664-5.044c-.66 5.206-3.009 9.818-6.46 12.668-2.712 2.248-5.932 3.213-9.05 2.734C3.878 57.016-.428 47.258.824 38.76c.621-4.735 2.615-8.718 5.65-11.23 2.74-2.265 6.182-3.233 9.669-2.677 7.69 1.175 12.409 8.762 11.23 18.013Z" fill="#04A427"/></svg>