<svg width="65" height="74" fill="none" xmlns="http://www.w3.org/2000/svg"><path opacity=".05" fill-rule="evenodd" clip-rule="evenodd" d="M37.834 23.093c5.59-1.575 7.165-8.398 5.093-14.128-2.16-6.156-7.57-9.607-12.883-8.18-5.498 1.46-7.552 7.397-5.442 13.131 1.836 5.65 7.734 10.675 13.232 9.177Zm20.949-5.814c-2.207-1.433-4.792-1.949-7.28-1.465-5.471 1.085-8.185 6.38-6.463 12.575 1.534 5.826 7.024 10.955 12.717 9.84 5.67-1.125 7.873-7.89 6.183-13.578-.875-3.168-2.715-5.783-5.157-7.372Zm-38.846 12.88c-1.974 1.048-4.306 1.162-6.688.375-8.897-2.92-13.867-16.49-5.306-21.023 8.29-4.33 16.945 5.54 16.065 14.029-.303 2.98-1.78 5.388-4.07 6.619Zm11.593 2.37c-9.258 3.81-8.524 27.675-5.71 34.859 4.495 9.689 14.223 6.308 23.104 2.667l.015-.006c.692-.29 1.381-.57 2.064-.848h.001c5.844-2.38 11.17-4.548 12.563-9.843.452-1.984.14-4.165-.937-6.505-3.593-6.78-21.806-23.897-31.1-20.323Zm-12.768 6.387c2.05 3.07 2.928 6.6 2.41 9.705-.405 2.445-1.67 4.442-3.546 5.624-4.819 3.017-11.604-.18-14.856-5.27C.917 46.173.14 43.139.593 40.406c.412-2.466 1.793-4.567 3.9-5.88 4.626-2.92 10.63-1.067 14.269 4.39Z" fill="#04A427"/></svg>