<svg width="29" height="36" fill="none" xmlns="http://www.w3.org/2000/svg"><path opacity=".07" fill-rule="evenodd" clip-rule="evenodd" d="M19.787 14.194c2.32 1.15 4.82-.764 5.788-3.404 1.061-2.816.256-5.673-1.928-6.79-2.256-1.162-4.66.295-5.615 2.948-1.024 2.54-.512 6.098 1.755 7.246Zm8.668 4.336c-.32-1.174-1.034-2.142-2.004-2.73-2.138-1.285-4.575-.254-5.794 2.443-1.175 2.51-.829 5.98 1.392 7.322 2.217 1.331 4.909-.37 5.992-2.88.625-1.377.768-2.854.414-4.155Zm-16.68-7.306c-.962-.234-1.773-.903-2.339-1.905-2.121-3.732.15-10.004 4.316-8.987 4.018 1.005 4.047 7.101 1.296 9.81-.964.953-2.153 1.348-3.273 1.082Zm3.178 4.361c-4.19-1.482-10.852 7.11-11.993 10.486-1.306 4.765 2.917 6.541 6.932 7.968l.007.002c.314.11.626.221.934.332 2.637.944 5.04 1.805 7.038.372.725-.558 1.252-1.418 1.57-2.566.765-3.471-.354-15.018-4.488-16.594Zm-6.106-1.646c-.205 1.7-.934 3.206-2.006 4.137-.842.734-1.842 1.05-2.81.893-2.48-.41-3.817-3.596-3.428-6.37.193-1.547.812-2.848 1.754-3.668.852-.74 1.92-1.056 3.003-.875 2.388.384 3.853 2.862 3.487 5.883Z" fill="#04A427"/></svg>