<svg width="46" height="58" fill="none" xmlns="http://www.w3.org/2000/svg"><path opacity=".06" fill-rule="evenodd" clip-rule="evenodd" d="M31.317 22.697c3.737 1.852 7.764-1.23 9.322-5.483 1.71-4.536.414-9.139-3.105-10.939-3.634-1.87-7.506.476-9.046 4.75-1.648 4.091-.824 9.822 2.829 11.671Zm13.964 6.988c-.517-1.891-1.665-3.45-3.228-4.398-3.444-2.07-7.37-.408-9.334 3.935-1.892 4.044-1.335 9.633 2.243 11.794 3.57 2.145 7.907-.596 9.652-4.638 1.007-2.219 1.238-4.598.667-6.693ZM18.41 17.913c-1.55-.376-2.855-1.455-3.768-3.068-3.417-6.012.24-16.115 6.953-14.477 6.472 1.62 6.518 11.438 2.087 15.802-1.552 1.535-3.468 2.17-5.272 1.743Zm5.12 7.023C16.78 22.548 6.047 36.39 4.21 41.827c-2.104 7.677 4.698 10.538 11.166 12.836l.01.004c.507.176 1.009.355 1.506.533 4.247 1.521 8.12 2.908 11.336.6 1.168-.898 2.017-2.283 2.53-4.133 1.232-5.592-.57-24.192-7.229-26.73Zm-9.835-2.653c-.33 2.74-1.505 5.165-3.231 6.664-1.357 1.183-2.967 1.69-4.527 1.439-3.994-.66-6.148-5.792-5.522-10.262.311-2.491 1.308-4.586 2.826-5.908 1.371-1.191 3.093-1.7 4.837-1.408 3.846.618 6.207 4.609 5.617 9.475Z" fill="#04A427"/></svg>