<svg width="41" height="41" fill="none" xmlns="http://www.w3.org/2000/svg"><path opacity=".05" fill-rule="evenodd" clip-rule="evenodd" d="M24.202 12.757c3.471-1.035 4.685-4.8 3.633-7.853-1.09-3.283-4.264-4.99-7.56-4.044-3.41.97-4.884 4.268-3.808 7.322.91 3.018 4.324 5.566 7.735 4.575Zm13.002-3.835c-1.293-.71-2.852-.908-4.39-.565-3.378.764-5.231 3.734-4.41 7.051.72 3.123 3.881 5.74 7.397 4.952 3.503-.793 5.098-4.545 4.278-7.588-.417-1.697-1.443-3.062-2.875-3.85Zm-24.186 8.249c-1.244.634-2.671.77-4.096.417C3.6 16.282 1.07 9.052 6.463 6.312c5.221-2.62 10.138 2.477 9.285 7.126-.295 1.632-1.286 2.99-2.73 3.733Zm6.987.92c-5.792 2.368-6.23 15.337-4.778 19.158 2.384 5.131 8.447 2.981 14.003.716l.01-.003c.432-.18.864-.355 1.29-.528h.001c3.655-1.481 6.986-2.831 8.033-5.758.35-1.094.24-2.272-.33-3.511-1.942-3.577-12.424-12.315-18.23-10.074Zm-8.031 3.887c1.137 1.605 1.542 3.5 1.11 5.206a5.114 5.114 0 0 1-2.372 3.175c-3.053 1.795-7.076.271-8.872-2.397C.813 26.497.45 24.87.829 23.367c.343-1.355 1.264-2.543 2.599-3.325 2.932-1.737 6.527-.919 8.546 1.936Z" fill="#04A427"/></svg>