<svg width="41" height="48" fill="none" xmlns="http://www.w3.org/2000/svg"><path opacity=".05" fill-rule="evenodd" clip-rule="evenodd" d="M27.668 19.14c3.284 1.549 6.823-1.027 8.192-4.58 1.503-3.79.364-7.636-2.728-9.14-3.194-1.563-6.596.398-7.95 3.969-1.448 3.418-.723 8.207 2.486 9.752Zm12.27 5.842c-.454-1.58-1.463-2.883-2.836-3.674-3.026-1.73-6.477-.342-8.202 3.287-1.663 3.379-1.173 8.049 1.971 9.855 3.138 1.792 6.948-.498 8.482-3.875.884-1.854 1.087-3.842.586-5.593Zm-23.611-9.838c-1.362-.315-2.509-1.216-3.31-2.564-3.003-5.023.21-13.464 6.108-12.096 5.688 1.353 5.729 9.557 1.835 13.203-1.364 1.283-3.047 1.814-4.633 1.457Zm4.5 5.871C14.895 19.02 5.464 30.585 3.85 35.128c-1.848 6.415 4.128 8.805 9.812 10.725l.01.003c.444.147.885.297 1.321.446 3.733 1.27 7.136 2.43 9.962.501 1.027-.75 1.773-1.908 2.223-3.453 1.082-4.673-.501-20.214-6.352-22.335ZM12.184 18.8c-.29 2.288-1.322 4.315-2.839 5.567-1.192.989-2.607 1.413-3.978 1.202-3.51-.55-5.402-4.839-4.852-8.574.273-2.081 1.15-3.832 2.483-4.936 1.205-.995 2.718-1.421 4.25-1.177 3.38.517 5.454 3.851 4.936 7.918Z" fill="#04A427"/></svg>