<svg width="46" height="57" fill="none" xmlns="http://www.w3.org/2000/svg"><path opacity=".04" fill-rule="evenodd" clip-rule="evenodd" d="M30.95 22.431c3.701 1.835 7.69-1.218 9.233-5.43 1.694-4.493.41-9.05-3.075-10.834-3.6-1.853-7.434.472-8.96 4.704-1.632 4.053-.815 9.729 2.802 11.56Zm13.829 6.92c-.513-1.874-1.65-3.417-3.197-4.356-3.411-2.05-7.3-.405-9.245 3.897-1.874 4.005-1.322 9.54 2.222 11.682 3.536 2.124 7.83-.591 9.559-4.594.997-2.198 1.226-4.554.66-6.63ZM18.167 17.693c-1.535-.373-2.828-1.441-3.732-3.039-3.384-5.954.239-15.96 6.886-14.338 6.41 1.604 6.456 11.329 2.068 15.65-1.538 1.521-3.435 2.15-5.222 1.727Zm5.071 6.958C16.554 22.286 5.925 35.994 4.104 41.38c-2.083 7.603 4.654 10.436 11.06 12.712l.01.004c.502.174.999.352 1.49.528 4.208 1.507 8.043 2.88 11.229.594 1.156-.89 1.997-2.261 2.505-4.093 1.22-5.538-.565-23.96-7.16-26.474Zm-9.742-2.629c-.327 2.713-1.49 5.115-3.2 6.6-1.343 1.172-2.939 1.675-4.483 1.425-3.956-.653-6.09-5.736-5.469-10.164.308-2.467 1.295-4.542 2.798-5.85 1.359-1.18 3.064-1.685 4.791-1.396 3.81.613 6.147 4.565 5.563 9.385Z" fill="#04A427"/></svg>