<svg width="62" height="76" fill="none" xmlns="http://www.w3.org/2000/svg"><path opacity=".02" fill-rule="evenodd" clip-rule="evenodd" d="M36.387 23.15c5.351-2.087 6.956-9.288 5.07-15.06C39.495 1.886 34.394-1.252 29.31.658c-5.26 1.96-7.309 8.283-5.387 14.055 1.662 5.708 7.203 10.438 12.464 8.437Zm20.047-7.732c-2.08-1.307-4.535-1.63-6.914-.927-5.228 1.57-7.895 7.28-6.35 13.561 1.372 5.916 6.523 10.786 11.964 9.167 5.42-1.628 7.621-8.819 6.1-14.579-.785-3.213-2.498-5.773-4.8-7.223ZM19.228 31.924c-1.897 1.248-4.12 1.556-6.378.933C4.42 30.554-.107 16.89 8.12 11.495c7.965-5.163 16.058 4.365 15.088 13.237-.335 3.115-1.779 5.73-3.98 7.192Zm11.008 1.522c-8.879 4.702-8.547 29.382-5.977 36.6 4.133 9.678 13.453 5.383 21.97.886l.014-.007c.664-.356 1.326-.704 1.98-1.048 5.604-2.941 10.712-5.623 12.12-11.225.462-2.093.199-4.328-.791-6.666-3.319-6.737-20.407-23-29.316-18.54Zm-12.263 7.66c1.905 3.015 2.688 6.604 2.146 9.865-.423 2.567-1.659 4.74-3.465 6.118-4.636 3.519-11.051.757-14.071-4.256C.86 50.08.167 46.998.64 44.128c.43-2.59 1.778-4.88 3.807-6.413 4.452-3.404 10.143-1.97 13.525 3.39Z" fill="#04A427"/></svg>