<svg width="64" height="77" fill="none" xmlns="http://www.w3.org/2000/svg"><path opacity=".05" fill-rule="evenodd" clip-rule="evenodd" d="M43.665 30.797c5.254 2.476 10.915-1.645 13.106-7.33 2.405-6.064.582-12.217-4.365-14.623-5.11-2.501-10.553.636-12.718 6.35-2.318 5.47-1.158 13.13 3.977 15.603Zm19.631 9.341c-.727-2.528-2.34-4.612-4.538-5.879-4.842-2.766-10.363-.546-13.123 5.26-2.66 5.406-1.877 12.878 3.154 15.768 5.02 2.867 11.116-.797 13.57-6.2 1.415-2.967 1.74-6.148.937-8.949ZM25.517 24.402c-2.178-.503-4.014-1.945-5.297-4.102-4.804-8.036.339-21.543 9.775-19.354 9.1 2.165 9.165 15.292 2.935 21.126-2.182 2.052-4.875 2.902-7.413 2.33Zm7.2 9.39C23.228 30.599 8.139 49.103 5.555 56.373 2.598 66.636 12.16 70.46 21.254 73.533l.015.005c.712.234 1.417.475 2.114.712h.002c5.972 2.034 11.416 3.888 15.939.802 1.642-1.2 2.836-3.052 3.557-5.525 1.73-7.476-.803-32.342-10.164-35.735Zm-13.828-3.547c-.465 3.661-2.116 6.904-4.543 8.908-1.908 1.581-4.172 2.26-6.364 1.923-5.616-.88-8.645-7.742-7.764-13.718.437-3.33 1.839-6.131 3.973-7.898 1.928-1.593 4.348-2.274 6.8-1.883 5.408.826 8.727 6.162 7.898 12.668Z" fill="#04A427"/></svg>