<svg width="76" height="94" fill="none" xmlns="http://www.w3.org/2000/svg"><path opacity=".06" fill-rule="evenodd" clip-rule="evenodd" d="M44.2 28.486c6.572-2.562 8.543-11.407 6.227-18.495-2.41-7.622-8.675-11.476-14.92-9.13-6.46 2.408-8.976 10.174-6.615 17.263 2.04 7.01 8.846 12.82 15.308 10.363Zm24.623-9.494c-2.555-1.604-5.57-2.002-8.491-1.138-6.422 1.928-9.697 8.942-7.8 16.656 1.685 7.265 8.012 13.247 14.695 11.259 6.655-2 9.36-10.831 7.491-17.905-.964-3.947-3.068-7.092-5.895-8.872Zm-45.698 20.28c-2.33 1.532-5.06 1.91-7.834 1.146C4.937 37.589-.622 20.806 9.481 14.18c9.783-6.34 19.723 5.362 18.532 16.258-.41 3.826-2.184 7.038-4.888 8.834Zm13.522 1.861c-10.905 5.775-10.497 36.087-7.34 44.953 5.075 11.886 16.522 6.61 26.983 1.088l.018-.009c.815-.437 1.627-.864 2.432-1.286 6.882-3.613 13.155-6.906 14.886-13.787.566-2.57.243-5.316-.973-8.188-4.076-8.274-25.063-28.249-36.006-22.77Zm-15.061 9.408c2.34 3.704 3.301 8.113 2.635 12.117-.519 3.153-2.037 5.822-4.255 7.515-5.695 4.321-13.574.93-17.283-5.228C.568 61.564-.284 57.778.298 54.254c.529-3.182 2.184-5.995 4.676-7.876 5.467-4.181 12.457-2.42 16.612 4.163Z" fill="#04A427"/></svg>