<svg width="301" height="256" fill="none" xmlns="http://www.w3.org/2000/svg"><path opacity=".45" fill-rule="evenodd" clip-rule="evenodd" d="M82.938 57.16c8.064 3.801 16.753-2.523 20.115-11.248 3.691-9.307.893-18.75-6.7-22.442-7.84-3.839-16.195.976-19.517 9.744-3.558 8.395-1.778 20.153 6.102 23.947Zm30.128 14.34c-1.115-3.881-3.592-7.08-6.964-9.023-7.431-4.246-15.904-.839-20.14 8.072-4.084 8.297-2.88 19.764 4.84 24.2 7.703 4.4 17.06-1.225 20.825-9.517 2.173-4.553 2.671-9.434 1.439-13.733ZM55.088 47.345c-3.344-.77-6.16-2.984-8.13-6.294-7.373-12.333.52-33.062 15.001-29.702 13.965 3.322 14.066 23.468 4.505 32.42-3.35 3.15-7.483 4.455-11.376 3.576Zm11.049 14.411c-14.562-4.9-37.72 23.499-41.686 34.655-4.538 15.751 10.138 21.62 24.093 26.334l.024.009c1.093.361 2.175.729 3.247 1.094 9.165 3.121 17.52 5.966 24.461 1.231 2.52-1.844 4.353-4.685 5.459-8.48 2.657-11.473-1.232-49.635-15.598-54.843Zm-21.223-5.443c-.712 5.619-3.247 10.596-6.971 13.672-2.928 2.426-6.403 3.468-9.768 2.95-8.618-1.35-13.266-11.882-11.914-21.053.67-5.111 2.822-9.41 6.096-12.12 2.96-2.445 6.674-3.49 10.437-2.89 8.3 1.268 13.392 9.456 12.12 19.44Z" fill="#04A427"/><path opacity=".4" fill-rule="evenodd" clip-rule="evenodd" d="M252.787 178.753c6.541-2.55 8.503-11.354 6.198-18.408-2.399-7.587-8.635-11.423-14.85-9.087-6.43 2.397-8.934 10.126-6.585 17.182 2.031 6.977 8.805 12.759 15.237 10.313Zm24.507-9.449c-2.543-1.596-5.543-1.993-8.452-1.132-6.391 1.918-9.651 8.899-7.763 16.577 1.677 7.232 7.975 13.185 14.626 11.206 6.625-1.989 9.317-10.78 7.456-17.821-.959-3.928-3.053-7.058-5.867-8.83Zm-45.483 20.183c-2.319 1.525-5.037 1.902-7.796 1.141-10.306-2.816-15.839-19.52-5.783-26.115 9.737-6.311 19.63 5.337 18.445 16.182-.409 3.807-2.174 7.005-4.866 8.792Zm13.457 1.857c-10.854 5.747-10.448 35.917-7.306 44.741 5.052 11.831 16.445 6.58 26.856 1.084l.018-.01c.811-.435 1.619-.859 2.419-1.279l.002-.001c6.85-3.596 13.094-6.873 14.816-13.722.564-2.558.242-5.291-.968-8.149-4.057-8.235-24.946-28.117-35.837-22.664Zm-14.99 9.36c2.329 3.686 3.286 8.074 2.623 12.06-.517 3.138-2.028 5.794-4.235 7.479-5.669 4.302-13.51.925-17.202-5.202-2.106-3.366-2.954-7.134-2.374-10.642.526-3.167 2.174-5.966 4.654-7.839 5.442-4.161 12.399-2.409 16.534 4.144Z" fill="#fff"/></svg>