<svg width="171" height="58" fill="none" xmlns="http://www.w3.org/2000/svg"><path opacity=".07" fill-rule="evenodd" clip-rule="evenodd" d="M31.165 19.872c3.039 1.329 6.314-.883 7.582-3.934 1.391-3.255.336-6.557-2.526-7.848-2.955-1.343-6.105.341-7.357 3.407-1.34 2.936-.67 7.048 2.3 8.375Zm11.357 5.014a5.37 5.37 0 0 0-2.625-3.155c-2.801-1.485-5.995-.293-7.592 2.823-1.54 2.901-1.086 6.911 1.824 8.462 2.904 1.54 6.431-.428 7.85-3.327.82-1.593 1.007-3.3.543-4.803ZM20.667 16.44c-1.26-.27-2.323-1.044-3.065-2.201-2.78-4.313.196-11.562 5.655-10.387 5.264 1.162 5.302 8.207 1.698 11.337-1.263 1.102-2.82 1.558-4.288 1.25Zm4.164 5.04c-5.49-1.713-14.219 8.218-15.714 12.12-1.71 5.507 3.822 7.56 9.082 9.209l.01.002a146 146 0 0 1 1.223.383c3.455 1.092 6.605 2.086 9.221.43.95-.644 1.64-1.638 2.058-2.965 1.001-4.012-.464-17.358-5.88-19.179Zm-7.999-1.903c-.268 1.965-1.224 3.706-2.628 4.782-1.103.848-2.413 1.213-3.682 1.032-3.248-.473-5-4.156-4.49-7.363.252-1.787 1.063-3.29 2.297-4.239a5.178 5.178 0 0 1 3.934-1.01c3.129.443 5.049 3.307 4.57 6.798Z" fill="#04A427"/><path opacity=".05" fill-rule="evenodd" clip-rule="evenodd" d="M153.594 31.68c2.326-.842 3.023-3.745 2.204-6.072-.853-2.502-3.07-3.767-5.279-2.997-2.286.79-3.177 3.34-2.341 5.667.722 2.301 3.13 4.208 5.416 3.401Zm8.712-3.116a3.878 3.878 0 0 0-3.004-.373c-2.273.632-3.432 2.935-2.76 5.467.596 2.385 2.835 4.349 5.199 3.696 2.355-.656 3.312-3.556 2.651-5.878-.341-1.295-1.085-2.328-2.086-2.912Zm-16.169 6.657c-.824.503-1.791.627-2.772.376-3.663-.929-5.63-6.438-2.055-8.613 3.461-2.082 6.978 1.76 6.557 5.337-.146 1.256-.773 2.31-1.73 2.9Zm4.783.61c-3.858 1.896-3.714 11.847-2.597 14.757 1.796 3.902 5.846 2.17 9.547.357l.007-.003c.288-.143.576-.283.86-.422 2.436-1.186 4.655-2.267 5.267-4.526.201-.843.087-1.745-.344-2.688-1.442-2.715-8.868-9.273-12.74-7.474Zm-5.328 3.089c.828 1.215 1.168 2.663.932 3.977-.183 1.035-.721 1.911-1.505 2.467-2.015 1.419-4.803.305-6.116-1.716-.748-1.11-1.05-2.353-.844-3.51a4.004 4.004 0 0 1 1.655-2.585c1.934-1.372 4.408-.794 5.878 1.367Z" fill="#04A427"/></svg>