<svg width="106" height="156" fill="none" xmlns="http://www.w3.org/2000/svg"><path opacity=".06" fill-rule="evenodd" clip-rule="evenodd" d="M73.607 20.734c1.743-3.096-.37-7.357-3.591-9.563-3.433-2.397-7.148-2.043-8.832.862-1.75 2.998-.203 6.983 3.037 9.175 3.088 2.26 7.653 2.545 9.386-.474Zm6.561-11.556a4.922 4.922 0 0 0-3.702 2.165c-1.89 2.787-.887 6.698 2.374 9.292 3.032 2.475 7.465 2.98 9.438.086 1.96-2.89.139-7.373-2.903-9.712-1.665-1.329-3.517-1.974-5.207-1.83ZM68.858 31.72c-.414 1.355-1.362 2.358-2.699 2.903-4.985 2.045-12.642-3.154-10.84-9.023 1.77-5.65 9.487-3.906 12.575.959 1.087 1.706 1.44 3.581.965 5.161Zm5.912-3.423c-2.394 5.766 7.656 18.146 11.787 20.824 5.87 3.33 8.64-2.398 10.941-7.922l.004-.01c.177-.432.357-.86.535-1.284 1.521-3.626 2.908-6.931 1.341-10.307-.616-1.236-1.639-2.269-3.053-3.077-4.298-2.149-19.05-3.879-21.555 1.776Zm-2.84 8.553c2.127.802 3.943 2.323 4.988 4.181.825 1.462 1.1 3.035.782 4.421-.824 3.55-5.022 4.595-8.486 3.205-1.933-.739-3.502-2.036-4.424-3.671-.83-1.477-1.099-3.151-.735-4.7.78-3.421 4.097-4.864 7.876-3.436ZM36.062 113.429c4.08-.865 5.326-5.78 3.91-10.082-1.471-4.619-5.343-7.424-9.22-6.653-4.01.786-5.591 5.028-4.148 9.335 1.245 4.232 5.446 8.215 9.458 7.4Zm15.285-3.18c-1.578-1.162-3.446-1.673-5.259-1.447-3.985.513-6.034 4.252-4.88 8.876 1.023 4.345 4.928 8.383 9.074 7.859 4.13-.532 5.832-5.372 4.694-9.624-.587-2.365-1.881-4.374-3.629-5.664Zm-28.376 7.434c-1.449.666-3.142.63-4.858-.07-6.409-2.595-9.807-12.788-3.527-15.667 6.081-2.744 12.208 4.929 11.44 11.099-.266 2.167-1.375 3.854-3.055 4.638Zm8.372 2.333c-6.774 2.313-6.607 19.825-4.676 25.23 3.112 7.326 10.22 5.351 16.719 3.142l.011-.004c.506-.176 1.011-.346 1.511-.515 4.275-1.441 8.172-2.755 9.264-6.561.358-1.429.166-3.042-.58-4.811-2.502-5.149-15.452-18.62-22.249-16.481Zm-9.36 4.02c1.44 2.353 2.024 4.984 1.6 7.23-.33 1.77-1.28 3.167-2.659 3.936-3.541 1.961-8.414-.729-10.695-4.623-1.302-2.147-1.82-4.409-1.448-6.386.336-1.785 1.37-3.253 2.92-4.105 3.4-1.901 7.726-.235 10.283 3.948Z" fill="#04A427"/></svg>