<svg width="316" height="341" fill="none" xmlns="http://www.w3.org/2000/svg"><path opacity=".04" fill-rule="evenodd" clip-rule="evenodd" d="M283.806 37.414c5.973 2.45 12.298-1.884 14.679-7.76 2.617-6.27.458-12.556-5.166-14.938-5.81-2.477-11.905.842-14.256 6.747-2.528 5.659-1.094 13.505 4.743 15.951Zm22.319 9.242c-.862-2.584-2.718-4.694-5.219-5.956-5.512-2.754-11.709-.376-14.731 5.636-2.916 5.598-1.91 13.257 3.817 16.134 5.714 2.855 12.538-1.017 15.22-6.61 1.55-3.07 1.864-6.342.913-9.204Zm-42.91-15.484c-2.468-.477-4.564-1.925-6.048-4.116-5.555-8.166.032-22.128 10.722-20.048 10.308 2.06 10.596 15.538 3.657 21.64-2.431 2.146-5.458 3.067-8.331 2.524Zm8.282 9.512c-10.765-3.108-27.501 16.162-30.3 23.673-3.172 10.59 7.687 14.347 18.003 17.339l.018.005c.808.229 1.608.463 2.4.694 6.776 1.982 12.953 3.788 18.009.539 1.834-1.263 3.152-3.186 3.926-5.738 1.833-7.707-1.432-33.194-12.056-36.512Zm-15.671-3.392c-.465 3.767-2.276 7.127-4.984 9.228-2.128 1.658-4.673 2.396-7.154 2.089-6.355-.804-9.886-7.796-8.989-13.948.44-3.428 1.977-6.329 4.357-8.18 2.151-1.67 4.873-2.413 7.647-2.056 6.12.752 9.953 6.171 9.123 12.867Z" fill="#04A427"/><path opacity=".07" fill-rule="evenodd" clip-rule="evenodd" d="M71.078 152.831c6.916 3.07 14.368-2.038 17.252-9.086 3.166-7.517.766-15.144-5.746-18.126-6.725-3.101-13.891.788-16.74 7.87-3.052 6.781-1.525 16.278 5.234 19.342Zm25.84 11.583c-.956-3.135-3.081-5.717-5.973-7.287-6.374-3.43-13.641-.678-17.274 6.52-3.503 6.701-2.47 15.963 4.15 19.545 6.608 3.554 14.634-.988 17.863-7.686 1.864-3.677 2.29-7.62 1.235-11.092ZM47.19 144.905c-2.867-.623-5.284-2.411-6.972-5.084-6.325-9.962.445-26.705 12.866-23.991 11.978 2.684 12.064 18.956 3.864 26.187-2.873 2.544-6.418 3.597-9.758 2.888Zm9.478 11.642c-12.49-3.958-32.353 18.98-35.754 27.991-3.893 12.722 8.695 17.462 20.665 21.27l.02.007c.937.291 1.866.589 2.785.884 7.861 2.521 15.027 4.819 20.98.994 2.162-1.489 3.734-3.784 4.683-6.85 2.278-9.266-1.057-40.09-13.379-44.296Zm-18.203-4.395c-.611 4.539-2.785 8.559-5.98 11.043-2.51 1.96-5.491 2.802-8.377 2.384-7.392-1.092-11.38-9.598-10.22-17.006.575-4.128 2.421-7.6 5.23-9.79a11.654 11.654 0 0 1 8.951-2.334c7.119 1.025 11.487 7.638 10.396 15.703Z" fill="#04A427"/><path opacity=".05" fill-rule="evenodd" clip-rule="evenodd" d="M186.539 273.251c6.084-2.234 7.909-9.944 5.765-16.123-2.231-6.645-8.031-10.005-13.811-7.959-5.981 2.099-8.31 8.869-6.125 15.049 1.889 6.111 8.19 11.175 14.171 9.033Zm22.793-8.277c-2.365-1.398-5.156-1.745-7.86-.992-5.945 1.681-8.977 7.795-7.221 14.52 1.56 6.334 7.417 11.548 13.603 9.815 6.162-1.743 8.666-9.442 6.935-15.609-.892-3.44-2.839-6.182-5.457-7.734Zm-42.301 17.678c-2.157 1.336-4.685 1.665-7.252.999-9.585-2.466-14.731-17.097-5.378-22.873 9.056-5.527 18.258 4.674 17.155 14.173-.38 3.335-2.022 6.135-4.525 7.701Zm12.514 1.627c-10.095 5.034-9.717 31.458-6.795 39.187 4.698 10.362 15.295 5.763 24.978.949l.017-.008a247.74 247.74 0 0 1 2.252-1.122c6.371-3.149 12.178-6.02 13.78-12.018.524-2.241.225-4.635-.901-7.138-3.773-7.213-23.201-24.626-33.331-19.85Zm-13.941 8.198c2.166 3.228 3.056 7.072 2.44 10.562-.481 2.749-1.886 5.076-3.939 6.552-5.272 3.767-12.566.81-16-4.557-1.958-2.948-2.746-6.248-2.208-9.321a10.659 10.659 0 0 1 4.329-6.866c5.062-3.644 11.532-2.11 15.378 3.63Z" fill="#04A427"/></svg>