<svg width="130" height="59" fill="none" xmlns="http://www.w3.org/2000/svg"><path opacity=".06" fill-rule="evenodd" clip-rule="evenodd" d="M29.813 28.527c2.908 1.37 6.04-.91 7.253-4.056 1.331-3.356.322-6.761-2.416-8.093-2.827-1.384-5.84.352-7.038 3.514-1.283 3.027-.64 7.267 2.2 8.635Zm10.866 5.17c-.402-1.4-1.295-2.553-2.511-3.254-2.68-1.531-5.735-.303-7.263 2.91-1.473 2.992-1.039 7.128 1.745 8.727 2.778 1.587 6.152-.441 7.51-3.432.784-1.641.963-3.401.52-4.952Zm-20.91-8.71c-1.205-.278-2.22-1.076-2.93-2.27-2.66-4.448.186-11.923 5.409-10.711 5.035 1.198 5.072 8.463 1.624 11.691-1.208 1.136-2.698 1.606-4.102 1.29Zm3.986 5.2C18.503 28.42 10.153 38.66 8.723 42.684c-1.637 5.68 3.655 7.796 8.688 9.496l.008.003a132 132 0 0 1 1.17.394h.001c3.305 1.126 6.318 2.152 8.821.444.909-.665 1.57-1.69 1.968-3.058.959-4.137-.444-17.898-5.624-19.776ZM16.1 28.22c-.257 2.027-1.17 3.821-2.514 4.93-1.056.876-2.309 1.251-3.522 1.065-3.108-.488-4.784-4.285-4.296-7.593.241-1.843 1.017-3.392 2.198-4.37 1.067-.882 2.407-1.258 3.763-1.042 2.993.457 4.83 3.41 4.371 7.01ZM110.819 15.684c2.558-.997 3.325-4.44 2.423-7.198-.938-2.966-3.376-4.466-5.806-3.553-2.514.937-3.494 3.96-2.575 6.718.794 2.729 3.443 4.99 5.958 4.033Zm9.583-3.694a3.996 3.996 0 0 0-3.304-.443c-2.5.75-3.775 3.48-3.036 6.483.656 2.828 3.118 5.155 5.719 4.382 2.59-.778 3.643-4.216 2.916-6.969-.376-1.536-1.194-2.76-2.295-3.453Zm-17.786 7.894c-.907.596-1.97.743-3.05.445-4.029-1.1-6.193-7.632-2.26-10.211 3.807-2.468 7.676 2.087 7.212 6.327-.16 1.49-.85 2.74-1.902 3.439Zm5.263.724c-4.244 2.247-4.086 14.045-2.857 17.495 1.975 4.626 6.431 2.573 10.502.424l.007-.004c.317-.17.633-.336.946-.5 2.679-1.407 5.12-2.688 5.794-5.366.22-1 .094-2.07-.379-3.187-1.586-3.22-9.754-10.994-14.013-8.862Zm-5.863 3.662c.911 1.441 1.285 3.157 1.026 4.715-.202 1.227-.793 2.266-1.656 2.925-2.217 1.682-5.283.362-6.727-2.034-.823-1.316-1.155-2.79-.928-4.161.206-1.239.85-2.333 1.82-3.066 2.128-1.627 4.848-.942 6.465 1.62Z" fill="#04A427"/></svg>