<svg width="102" height="42" fill="none" xmlns="http://www.w3.org/2000/svg"><path opacity=".07" fill-rule="evenodd" clip-rule="evenodd" d="M88.934 18.59c1.77-.726 2.302-3.232 1.678-5.24-.65-2.159-2.337-3.25-4.02-2.586-1.74.682-2.417 2.882-1.781 4.89.55 1.987 2.383 3.632 4.123 2.936Zm6.632-2.688a2.651 2.651 0 0 0-2.287-.322c-1.73.546-2.612 2.533-2.101 4.719.454 2.058 2.158 3.752 3.958 3.19 1.793-.567 2.522-3.07 2.018-5.073-.26-1.118-.826-2.01-1.588-2.514Zm-12.31 5.745c-.627.434-1.363.54-2.11.324-2.79-.801-4.287-5.556-1.565-7.433 2.635-1.796 5.313 1.52 4.992 4.606-.11 1.084-.588 1.994-1.317 2.503Zm3.643.528c-2.938 1.636-2.828 10.223-1.977 12.735 1.367 3.367 4.45 1.873 7.268.308l.005-.003.655-.364c1.854-1.023 3.544-1.956 4.01-3.906.153-.728.066-1.506-.262-2.32-1.098-2.343-6.751-8.002-9.699-6.45Zm-4.058 2.662c.63 1.05.89 2.299.71 3.433-.14.893-.549 1.65-1.146 2.129-1.534 1.224-3.656.263-4.656-1.481-.57-.958-.799-2.03-.642-3.029.142-.901.588-1.698 1.26-2.231 1.472-1.184 3.355-.686 4.474 1.18Z" fill="#04A427"/><path opacity=".04" fill-rule="evenodd" clip-rule="evenodd" d="M25.69 17.027c2.506 1.112 5.206-.739 6.25-3.292 1.148-2.723.278-5.487-2.081-6.567-2.437-1.124-5.033.286-6.066 2.851-1.105 2.457-.552 5.898 1.897 7.008Zm9.364 4.197a4.478 4.478 0 0 0-2.164-2.64c-2.31-1.243-4.943-.246-6.26 2.362-1.268 2.428-.894 5.784 1.505 7.081 2.394 1.288 5.302-.358 6.472-2.784.675-1.333.83-2.761.447-4.02Zm-18.019-7.07c-1.038-.225-1.914-.873-2.526-1.841-2.291-3.61.162-9.676 4.662-8.692 4.34.972 4.37 6.867 1.4 9.487-1.041.922-2.326 1.304-3.536 1.047Zm3.435 4.22C15.945 16.938 8.75 25.25 7.516 28.513c-1.41 4.61 3.15 6.327 7.487 7.707l.008.002c.34.106.675.214 1.008.32 2.849.914 5.445 1.746 7.602.36.783-.539 1.353-1.37 1.696-2.481.826-3.357-.382-14.525-4.847-16.049Zm-6.595-1.592c-.222 1.644-1.01 3.1-2.167 4-.91.71-1.99 1.016-3.035.864-2.678-.395-4.122-3.477-3.702-6.161.208-1.496.877-2.753 1.894-3.547a4.22 4.22 0 0 1 3.243-.846c2.58.372 4.162 2.768 3.767 5.69Z" fill="#04A427"/></svg>