<svg width="229" height="94" fill="none" xmlns="http://www.w3.org/2000/svg"><path opacity=".06" fill-rule="evenodd" clip-rule="evenodd" d="M53.5 33.752c6.052-1.22 7.901-8.155 5.802-14.223-2.184-6.516-7.928-10.474-13.679-9.386-5.95 1.11-8.296 7.094-6.155 13.17 1.847 5.97 8.08 11.588 14.031 10.439Zm22.677-4.487c-2.342-1.64-5.112-2.36-7.802-2.041-5.912.723-8.953 5.997-7.24 12.52 1.518 6.13 7.31 11.826 13.462 11.087 6.128-.75 8.652-7.578 6.963-13.577-.87-3.336-2.79-6.17-5.383-7.99ZM34.078 39.75c-2.149.94-4.66.889-7.207-.098-9.508-3.661-14.549-18.04-5.232-22.1 9.021-3.872 18.111 6.952 16.97 15.656-.393 3.057-2.038 5.437-4.531 6.542Zm12.423 3.293c-10.05 3.262-9.803 27.968-6.938 35.592 4.617 10.334 15.164 7.548 24.804 4.432l.017-.005c.75-.249 1.5-.489 2.24-.727h.001c6.343-2.034 12.124-3.887 13.744-9.255.532-2.017.246-4.292-.86-6.787-3.712-7.265-22.925-26.268-33.008-23.25Zm-13.887 5.669c2.136 3.32 3.002 7.031 2.372 10.2-.49 2.496-1.897 4.467-3.943 5.553-5.254 2.765-12.484-1.029-15.868-6.523-1.931-3.028-2.699-6.219-2.149-9.009.5-2.518 2.034-4.588 4.332-5.79 5.045-2.682 11.464-.331 15.256 5.569ZM180.749 29.868c2.585-4.368-.55-10.378-5.329-13.49-5.092-3.382-10.604-2.883-13.103 1.215-2.594 4.23-.3 9.85 4.506 12.944 4.581 3.187 11.355 3.59 13.926-.669Zm9.736-16.303c-2.264.184-4.211 1.272-5.493 3.054-2.805 3.932-1.316 9.448 3.522 13.108 4.498 3.49 11.076 4.203 14.003.121 2.906-4.076.205-10.4-4.307-13.7-2.471-1.875-5.218-2.785-7.725-2.583Zm-16.782 31.802c-.614 1.912-2.02 3.327-4.004 4.096-7.396 2.885-18.756-4.45-16.083-12.729 2.625-7.972 14.075-5.511 18.657 1.352 1.612 2.407 2.135 5.053 1.43 7.281Zm8.772-4.832c-3.552 8.134 11.358 25.599 17.487 29.377 8.708 4.697 12.817-3.383 16.232-11.176l.006-.013c.262-.61.528-1.214.792-1.812l.001-.001c2.256-5.115 4.314-9.777 1.99-14.54-.914-1.744-2.432-3.2-4.529-4.34-6.378-3.031-28.262-5.472-31.979 2.505ZM178.262 52.6c3.154 1.132 5.848 3.277 7.398 5.9 1.224 2.062 1.633 4.28 1.161 6.236-1.222 5.007-7.45 6.481-12.589 4.521-2.868-1.042-5.197-2.873-6.564-5.179-1.232-2.083-1.63-4.445-1.091-6.63 1.159-4.827 6.079-6.861 11.685-4.848Z" fill="#04A427"/></svg>