<svg width="84" height="34" fill="none" xmlns="http://www.w3.org/2000/svg"><path opacity=".06" fill-rule="evenodd" clip-rule="evenodd" d="M19.55 12.106c2.213-.446 2.888-2.98 2.121-5.197-.798-2.381-2.897-3.828-4.998-3.43-2.175.405-3.032 2.592-2.25 4.812.675 2.182 2.953 4.235 5.128 3.815Zm8.287-1.638c-.856-.6-1.868-.863-2.851-.746-2.16.264-3.272 2.191-2.646 4.575.555 2.24 2.672 4.322 4.92 4.052 2.24-.275 3.161-2.77 2.544-4.962-.318-1.219-1.02-2.255-1.967-2.92ZM12.452 14.3c-.785.343-1.703.325-2.633-.036-3.475-1.338-5.317-6.592-1.912-8.076 3.296-1.415 6.618 2.54 6.201 5.721-.144 1.117-.745 1.987-1.656 2.391Zm4.54 1.203c-3.672 1.192-3.582 10.22-2.535 13.007 1.687 3.776 5.541 2.758 9.064 1.619l.006-.002c.275-.09.549-.178.82-.265 2.317-.743 4.43-1.42 5.022-3.383.194-.736.09-1.568-.314-2.48-1.357-2.654-8.378-9.599-12.063-8.496Zm-5.074 2.071c.781 1.213 1.097 2.57.867 3.727-.179.913-.693 1.633-1.44 2.03-1.92 1.01-4.563-.376-5.8-2.384-.705-1.107-.986-2.273-.785-3.292a3.011 3.011 0 0 1 1.584-2.116c1.843-.98 4.189-.121 5.574 2.035ZM66.05 10.69c.945-1.597-.2-3.793-1.947-4.93-1.86-1.236-3.875-1.054-4.788.444-.948 1.545-.11 3.6 1.646 4.73 1.674 1.164 4.15 1.311 5.09-.245Zm3.558-5.958A2.697 2.697 0 0 0 67.6 5.848c-1.025 1.437-.48 3.453 1.287 4.79 1.644 1.276 4.048 1.536 5.117.044 1.063-1.49.075-3.8-1.573-5.006-.903-.685-1.907-1.018-2.823-.944Zm-6.133 11.621c-.225.699-.739 1.216-1.464 1.497-2.702 1.054-6.854-1.626-5.877-4.652.96-2.913 5.144-2.013 6.818.495.59.879.78 1.846.523 2.66Zm3.205-1.768c-1.298 2.972 4.15 9.354 6.39 10.735 3.183 1.717 4.684-1.236 5.932-4.084l.002-.005c.096-.223.194-.444.29-.662.825-1.87 1.577-3.573.728-5.313-.335-.638-.889-1.17-1.656-1.586-2.33-1.108-10.327-2-11.686.915Zm-1.54 4.41c1.154.413 2.138 1.197 2.705 2.156.447.753.596 1.564.424 2.279-.447 1.83-2.723 2.368-4.6 1.652-1.049-.381-1.9-1.05-2.4-1.893-.45-.761-.595-1.624-.398-2.423.423-1.763 2.222-2.507 4.27-1.771Z" fill="#04A427"/></svg>