<svg width="235" height="95" fill="none" xmlns="http://www.w3.org/2000/svg"><path opacity=".07" fill-rule="evenodd" clip-rule="evenodd" d="M204.989 42.679c4.064-1.667 5.282-7.419 3.85-12.028-1.49-4.957-5.364-7.463-9.225-5.938-3.995 1.567-5.551 6.617-4.091 11.227 1.261 4.559 5.47 8.337 9.466 6.739Zm15.225-6.172c-1.579-1.043-3.444-1.302-5.25-.74-3.971 1.254-5.997 5.815-4.823 10.832 1.042 4.725 4.954 8.615 9.086 7.322 4.116-1.3 5.788-7.044 4.633-11.644-.597-2.567-1.897-4.612-3.646-5.77Zm-28.257 13.187c-1.441.996-3.129 1.242-4.844.745-6.403-1.84-9.84-12.754-3.592-17.063 6.049-4.123 12.195 3.487 11.459 10.573-.254 2.488-1.351 4.577-3.023 5.745Zm8.36 1.212c-6.743 3.755-6.491 23.468-4.539 29.233 3.138 7.73 10.217 4.3 16.685.708l.011-.006c.504-.284 1.007-.561 1.504-.836 4.256-2.35 8.135-4.491 9.205-8.966.351-1.672.151-3.457-.601-5.325-2.52-5.38-15.498-18.37-22.265-14.808Zm-9.312 6.115c1.447 2.408 2.041 5.275 1.629 7.88-.321 2.05-1.259 3.785-2.631 4.886-3.522 2.81-8.394.605-10.687-3.4-1.308-2.198-1.835-4.66-1.475-6.952.327-2.07 1.351-3.899 2.891-5.122 3.381-2.719 7.704-1.574 10.273 2.708Z" fill="#04A427"/><path opacity=".04" fill-rule="evenodd" clip-rule="evenodd" d="M59.812 39.096c5.752 2.553 11.95-1.695 14.35-7.556 2.632-6.252.636-12.596-4.78-15.076-5.594-2.579-11.553.656-13.923 6.546-2.538 5.639-1.268 13.537 4.353 16.086Zm21.492 9.632a10.28 10.28 0 0 0-4.968-6.06c-5.3-2.853-11.345-.564-14.367 5.422-2.913 5.574-2.054 13.277 3.453 16.256 5.495 2.956 12.17-.822 14.856-6.392 1.55-3.059 1.905-6.338 1.026-9.226ZM39.945 32.504c-2.385-.518-4.394-2.005-5.799-4.228-5.26-8.286.37-22.21 10.701-19.953 9.962 2.232 10.034 15.765 3.214 21.779-2.39 2.116-5.338 2.992-8.116 2.402Zm7.883 9.683C37.44 38.895 20.92 57.972 18.09 65.466c-3.237 10.58 7.232 14.523 17.187 17.69l.017.005c.78.243 1.552.49 2.316.735 6.538 2.097 12.498 4.008 17.45.827 1.797-1.238 3.105-3.147 3.894-5.696 1.895-7.707-.879-33.343-11.127-36.842Zm-15.14-3.655c-.508 3.775-2.316 7.118-4.973 9.185-2.088 1.63-4.567 2.33-6.967 1.982-6.148-.908-9.464-7.982-8.5-14.143.479-3.434 2.014-6.321 4.35-8.142a9.69 9.69 0 0 1 7.444-1.942c5.92.852 9.554 6.353 8.647 13.06Z" fill="#04A427"/></svg>