<svg width="157" height="117" fill="none" xmlns="http://www.w3.org/2000/svg"><path opacity=".07" fill-rule="evenodd" clip-rule="evenodd" d="M37.95 27.43c3.7 1.835 7.689-1.218 9.232-5.43 1.694-4.493.41-9.051-3.075-10.834-3.599-1.853-7.434.472-8.959 4.704-1.633 4.053-.816 9.728 2.801 11.56Zm13.828 6.92c-.512-1.874-1.65-3.418-3.197-4.356-3.41-2.05-7.3-.405-9.244 3.897-1.875 4.005-1.322 9.54 2.221 11.681 3.536 2.125 7.831-.59 9.56-4.593.997-2.198 1.225-4.554.66-6.63ZM25.166 22.691c-1.534-.373-2.827-1.441-3.731-3.039-3.385-5.954.238-15.96 6.886-14.338 6.41 1.604 6.456 11.329 2.067 15.65-1.537 1.52-3.435 2.15-5.222 1.727Zm5.072 6.957c-6.684-2.365-17.314 11.344-19.134 16.73-2.083 7.603 4.653 10.436 11.059 12.712l.01.004c.502.174 1 .352 1.491.528 4.207 1.507 8.042 2.88 11.228.594 1.157-.89 1.998-2.261 2.506-4.093 1.22-5.539-.566-23.96-7.16-26.475Zm-9.742-2.626c-.327 2.712-1.49 5.115-3.2 6.6-1.344 1.171-2.94 1.674-4.483 1.425-3.957-.653-6.09-5.736-5.47-10.164.308-2.467 1.296-4.542 2.799-5.85 1.358-1.18 3.063-1.685 4.79-1.396 3.81.612 6.148 4.565 5.564 9.385ZM132.833 77.573c3.256-1.335 4.233-5.943 3.085-9.636-1.194-3.97-4.297-5.979-7.391-4.756-3.2 1.254-4.447 5.3-3.277 8.994 1.01 3.652 4.382 6.679 7.583 5.398Zm12.199-4.942a4.876 4.876 0 0 0-4.207-.593c-3.181 1.004-4.804 4.658-3.864 8.678.835 3.785 3.97 6.901 7.28 5.865 3.298-1.041 4.637-5.643 3.712-9.328-.478-2.056-1.52-3.695-2.921-4.622Zm-22.64 10.565c-1.154.798-2.507.995-3.88.597-5.13-1.474-7.884-10.218-2.879-13.67 4.847-3.304 9.771 2.793 9.181 8.47-.203 1.993-1.082 3.667-2.422 4.603Zm6.345-.418c-5.402 3.009-5.2 18.802-3.637 23.421 2.515 6.193 8.186 3.444 13.368.567l.009-.005c.403-.228.806-.45 1.205-.67 3.409-1.883 6.517-3.598 7.374-7.183.281-1.34.121-2.77-.482-4.266-2.019-4.31-12.416-14.718-17.837-11.864Zm-7.108 6.286c1.16 1.93 1.636 4.227 1.306 6.313-.257 1.643-1.009 3.034-2.108 3.916-2.821 2.251-6.725.484-8.562-2.724-1.048-1.762-1.47-3.734-1.182-5.57.262-1.658 1.082-3.123 2.317-4.104 2.708-2.178 6.171-1.26 8.229 2.17Z" fill="#04A427"/></svg>