<svg width="58" height="51" fill="none" xmlns="http://www.w3.org/2000/svg"><path opacity=".05" fill-rule="evenodd" clip-rule="evenodd" d="M16.913 11.626c1.65.778 3.427-.516 4.115-2.301.755-1.904.183-3.836-1.37-4.591-1.605-.785-3.314.2-3.994 1.993-.727 1.718-.363 4.123 1.249 4.9Zm6.163 2.934a3.097 3.097 0 0 0-1.425-1.846c-1.52-.868-3.253-.171-4.12 1.652-.835 1.697-.59 4.043.99 4.95 1.576.9 3.49-.25 4.26-1.947.445-.93.547-1.93.295-2.809Zm-11.86-4.94c-.685-.159-1.261-.612-1.664-1.289-1.508-2.523.106-6.764 3.07-6.076 2.856.68 2.877 4.801.92 6.633-.685.644-1.53.91-2.327.731Zm2.259 2.947c-2.98-1.002-7.717 4.807-8.528 7.09-.928 3.222 2.074 4.423 4.929 5.387l.005.002c.223.073.445.149.664.224 1.875.638 3.584 1.22 5.004.251.516-.377.89-.958 1.117-1.735.544-2.347-.252-10.154-3.191-11.219Zm-4.341-1.114c-.146 1.15-.665 2.168-1.427 2.797-.599.496-1.31.71-1.998.604-1.763-.277-2.714-2.431-2.437-4.307.137-1.046.577-1.925 1.247-2.48a2.66 2.66 0 0 1 2.135-.591c1.698.26 2.74 1.934 2.48 3.977ZM47.367 33.05c1.451-.566 1.886-2.519 1.375-4.084-.532-1.683-1.915-2.534-3.294-2.015-1.427.531-1.982 2.246-1.461 3.811.45 1.548 1.953 2.83 3.38 2.288Zm5.437-2.096a2.268 2.268 0 0 0-1.875-.251c-1.418.425-2.141 1.974-1.722 3.677.372 1.604 1.769 2.925 3.245 2.486 1.47-.441 2.066-2.391 1.654-3.953-.213-.872-.678-1.566-1.302-1.959Zm-10.09 4.477c-.515.338-1.117.422-1.73.253-2.286-.625-3.513-4.33-1.283-5.793 2.16-1.4 4.355 1.183 4.092 3.59-.09.844-.482 1.553-1.08 1.95Zm2.985.41c-2.408 1.276-2.318 7.969-1.62 9.926 1.12 2.625 3.647 1.46 5.957.24l.004-.002c.18-.096.36-.19.537-.283 1.52-.798 2.905-1.525 3.287-3.045.125-.567.053-1.173-.215-1.807-.9-1.827-5.534-6.238-7.95-5.028Zm-3.324 2.078c.516.817.728 1.79.581 2.675-.114.696-.45 1.285-.939 1.66-1.258.953-2.997.204-3.816-1.155-.467-.747-.655-1.582-.527-2.36a2.723 2.723 0 0 1 1.033-1.74c1.207-.923 2.75-.534 3.668.92Z" fill="#04A427"/></svg>