<svg width="57" height="129" fill="none" xmlns="http://www.w3.org/2000/svg"><path opacity=".07" fill-rule="evenodd" clip-rule="evenodd" d="M42.073 102.896c2.04-.837 2.653-3.725 1.934-6.04-.749-2.49-2.694-3.748-4.633-2.981-2.006.786-2.788 3.322-2.055 5.637.634 2.289 2.747 4.187 4.754 3.384Zm7.646-3.097a3.055 3.055 0 0 0-2.636-.372c-1.994.63-3.011 2.92-2.422 5.44.523 2.372 2.488 4.326 4.563 3.676 2.067-.652 2.906-3.537 2.326-5.847-.3-1.289-.953-2.316-1.83-2.897Zm-14.19 6.622c-.724.501-1.572.624-2.433.375-3.215-.924-4.941-6.405-1.804-8.569 3.038-2.07 6.125 1.751 5.755 5.31-.128 1.249-.678 2.298-1.518 2.884Zm4.197.608c-3.386 1.886-3.26 11.785-2.279 14.68 1.576 3.881 5.13 2.159 8.379.355l.005-.003c.253-.143.505-.282.755-.42 2.138-1.18 4.086-2.255 4.623-4.502.176-.84.075-1.736-.302-2.674-1.266-2.702-7.783-9.225-11.18-7.436Zm-4.675 3.071c.726 1.209 1.025 2.649.818 3.957-.161 1.029-.633 1.901-1.322 2.454-1.768 1.411-4.214.303-5.366-1.707-.657-1.105-.922-2.341-.74-3.492.163-1.039.678-1.958 1.451-2.572 1.698-1.365 3.868-.79 5.159 1.36Z" fill="#04A427"/><path opacity=".05" fill-rule="evenodd" clip-rule="evenodd" d="M31.176 22.535c3.041 1.507 6.317-1 7.585-4.46 1.392-3.692.337-7.436-2.526-8.9-2.957-1.523-6.107.386-7.36 3.864-1.341 3.329-.67 7.992 2.301 9.496Zm11.36 5.685c-.42-1.54-1.354-2.807-2.625-3.578-2.803-1.684-5.998-.333-7.595 3.2-1.54 3.291-1.086 7.839 1.825 9.598 2.905 1.745 6.433-.486 7.853-3.774.82-1.806 1.007-3.741.543-5.446Zm-21.861-9.578c-1.26-.305-2.323-1.183-3.066-2.496-2.78-4.89.196-13.111 5.657-11.779 5.266 1.318 5.304 9.307 1.699 12.857-1.263 1.25-2.822 1.767-4.29 1.418Zm4.166 5.716c-5.49-1.942-14.223 9.32-15.719 13.744-1.711 6.246 3.823 8.573 9.085 10.443l.01.003c.412.143.82.29 1.224.434 3.456 1.238 6.606 2.366 9.224.488.95-.73 1.641-1.858 2.058-3.363 1.002-4.55-.464-19.683-5.882-21.749ZM16.838 22.2c-.269 2.228-1.225 4.202-2.629 5.422-1.104.962-2.414 1.375-3.683 1.17-3.25-.536-5.003-4.712-4.493-8.35.253-2.026 1.064-3.73 2.299-4.806 1.116-.97 2.516-1.384 3.935-1.146 3.13.503 5.05 3.75 4.571 7.71Z" fill="#04A427"/></svg>