<svg width="82" height="38" fill="none" xmlns="http://www.w3.org/2000/svg"><path opacity=".06" fill-rule="evenodd" clip-rule="evenodd" d="M14.439 18.608c1.388.654 2.884-.435 3.463-1.937.636-1.603.154-3.229-1.153-3.865-1.35-.66-2.79.168-3.361 1.678-.613 1.446-.306 3.47 1.05 4.124Zm5.188 2.468a2.607 2.607 0 0 0-1.2-1.553c-1.28-.732-2.738-.145-3.468 1.39-.703 1.428-.496 3.403.834 4.167 1.326.758 2.938-.211 3.586-1.639.374-.784.46-1.624.248-2.365Zm-9.983-4.158c-.576-.133-1.061-.514-1.4-1.084-1.27-2.124.09-5.693 2.583-5.115 2.405.572 2.422 4.042.776 5.583-.577.543-1.289.767-1.96.616Zm1.902 2.482c-2.507-.844-6.495 4.046-7.178 5.967-.782 2.713 1.746 3.723 4.149 4.535l.004.002c.188.062.374.125.559.188 1.578.538 3.017 1.027 4.212.212.434-.317.75-.807.94-1.46.458-1.976-.212-8.547-2.686-9.444Zm-3.654-.938c-.123.968-.56 1.825-1.2 2.354-.505.418-1.103.598-1.683.508-1.484-.232-2.284-2.046-2.051-3.625.115-.88.486-1.62 1.05-2.087.51-.421 1.149-.601 1.797-.498 1.429.218 2.306 1.628 2.087 3.348ZM65.925 13.093c2.069-.807 2.69-3.591 1.96-5.823-.758-2.4-2.73-3.612-4.696-2.874-2.034.758-2.827 3.203-2.083 5.435.642 2.207 2.785 4.036 4.819 3.262Zm7.751-2.989a3.234 3.234 0 0 0-2.673-.358c-2.022.607-3.053 2.815-2.455 5.243.53 2.288 2.522 4.17 4.626 3.545 2.095-.63 2.946-3.41 2.358-5.637-.303-1.242-.966-2.232-1.856-2.793ZM59.291 16.49c-.733.482-1.593.601-2.466.36-3.26-.89-5.01-6.173-1.829-8.26 3.08-1.995 6.21 1.689 5.834 5.12-.13 1.203-.688 2.215-1.539 2.78Zm4.255.588c-3.433 1.818-3.304 11.36-2.31 14.151 1.597 3.742 5.2 2.082 8.494.343l.006-.003c.256-.137.512-.272.765-.405 2.167-1.137 4.142-2.174 4.686-4.34.179-.81.077-1.674-.306-2.578-1.283-2.604-7.89-8.893-11.335-7.168Zm-4.741 2.96c.736 1.166 1.039 2.554.83 3.815-.164.992-.642 1.833-1.34 2.366-1.793 1.36-4.273.292-5.441-1.646-.666-1.065-.934-2.256-.751-3.366.166-1.002.688-1.887 1.472-2.48 1.721-1.316 3.922-.761 5.23 1.311Z" fill="#04A427"/></svg>