<svg width="171" height="58" fill="none" xmlns="http://www.w3.org/2000/svg"><path opacity=".07" fill-rule="evenodd" clip-rule="evenodd" d="M31.165 20.172c3.04 1.349 6.315-.896 7.583-3.994 1.391-3.303.336-6.655-2.526-7.966-2.955-1.363-6.105.347-7.357 3.46-1.34 2.979-.67 7.153 2.3 8.5Zm11.357 5.09a5.432 5.432 0 0 0-2.625-3.203c-2.801-1.507-5.995-.298-7.592 2.865-1.54 2.945-1.086 7.016 1.824 8.59 2.904 1.563 6.431-.434 7.85-3.378.82-1.616 1.007-3.348.543-4.874Zm-21.855-8.575c-1.26-.274-2.323-1.06-3.065-2.234-2.78-4.378.196-11.737 5.655-10.544 5.264 1.18 5.302 8.33 1.698 11.509-1.263 1.118-2.82 1.58-4.288 1.269Zm4.165 5.116c-5.49-1.739-14.219 8.342-15.714 12.302-1.71 5.591 3.822 7.675 9.082 9.348l.01.003c.41.128.819.259 1.222.388h.001c3.455 1.108 6.605 2.118 9.221.438.95-.655 1.64-1.664 2.058-3.01 1.001-4.073-.465-17.62-5.88-19.469Zm-8-1.931c-.269 1.994-1.224 3.761-2.628 4.853-1.104.861-2.414 1.231-3.682 1.048-3.249-.48-5-4.218-4.491-7.474.253-1.814 1.064-3.34 2.298-4.303a5.12 5.12 0 0 1 3.934-1.025c3.129.45 5.048 3.357 4.57 6.9Z" fill="#04A427"/><path opacity=".05" fill-rule="evenodd" clip-rule="evenodd" d="M153.594 32.158c2.326-.854 3.023-3.801 2.204-6.163-.853-2.54-3.07-3.824-5.279-3.042-2.286.802-3.177 3.39-2.341 5.752.722 2.336 3.13 4.272 5.416 3.453Zm8.712-3.162a3.828 3.828 0 0 0-3.004-.38c-2.273.643-3.432 2.98-2.76 5.55.596 2.421 2.835 4.414 5.199 3.752 2.355-.666 3.312-3.61 2.651-5.966-.341-1.315-1.085-2.363-2.086-2.956Zm-16.169 6.756c-.824.511-1.791.637-2.772.382-3.663-.942-5.63-6.535-2.055-8.742 3.461-2.113 6.978 1.786 6.557 5.417-.146 1.275-.773 2.345-1.73 2.944Zm4.784.62c-3.859 1.925-3.714 12.025-2.597 14.98 1.796 3.96 5.846 2.203 9.547.362l.007-.003c.288-.145.576-.288.86-.428 2.436-1.204 4.655-2.302 5.267-4.594.201-.857.086-1.772-.344-2.729-1.442-2.757-8.868-9.413-12.74-7.587Zm-5.329 3.136c.828 1.233 1.168 2.703.932 4.037-.183 1.05-.721 1.94-1.505 2.504-2.015 1.44-4.803.31-6.116-1.742-.748-1.127-1.05-2.388-.844-3.563a4.071 4.071 0 0 1 1.655-2.624c1.934-1.393 4.408-.806 5.878 1.388Z" fill="#04A427"/></svg>