<svg width="335" height="327" fill="none" xmlns="http://www.w3.org/2000/svg"><path opacity=".06" fill-rule="evenodd" clip-rule="evenodd" d="M76.603 250.651c7.472 3.521 15.522-2.339 18.638-10.423 3.42-8.623.827-17.372-6.208-20.793-7.265-3.557-15.006.905-18.084 9.028-3.296 7.779-1.647 18.672 5.654 22.188Zm27.915 13.283c-1.033-3.595-3.329-6.558-6.452-8.359-6.886-3.935-14.736-.777-18.661 7.479-3.784 7.687-2.669 18.312 4.484 22.421 7.138 4.077 15.807-1.134 19.296-8.817 2.013-4.218 2.474-8.741 1.333-12.724Zm-53.72-22.376c-3.097-.715-5.707-2.766-7.532-5.832-6.832-11.428.481-30.634 13.9-27.521 12.938 3.079 13.032 21.745 4.173 30.04-3.103 2.918-6.933 4.126-10.54 3.313Zm10.238 13.352c-13.492-4.539-34.949 21.773-38.623 32.11-4.205 14.593 9.393 20.031 22.323 24.399l.022.008c1.012.335 2.015.676 3.008 1.014 8.492 2.892 16.233 5.528 22.665 1.141 2.335-1.709 4.032-4.342 5.057-7.858 2.462-10.63-1.14-45.988-14.452-50.814Zm-19.664-5.044c-.66 5.206-3.009 9.818-6.46 12.668-2.712 2.248-5.932 3.213-9.05 2.734-7.985-1.252-12.291-11.009-11.039-19.507.621-4.736 2.615-8.719 5.65-11.231 2.74-2.264 6.182-3.233 9.669-2.677 7.69 1.175 12.409 8.762 11.23 18.013ZM286.2 39.486c6.572-2.562 8.543-11.407 6.227-18.495-2.41-7.622-8.675-11.476-14.919-9.13-6.461 2.408-8.977 10.174-6.616 17.263 2.04 7.01 8.846 12.82 15.308 10.363Zm24.623-9.494c-2.555-1.604-5.569-2.002-8.491-1.138-6.422 1.928-9.698 8.941-7.8 16.656 1.685 7.265 8.012 13.247 14.695 11.259 6.656-2 9.36-10.831 7.491-17.905-.964-3.947-3.068-7.092-5.895-8.872Zm-45.698 20.28c-2.33 1.532-5.061 1.91-7.834 1.146-10.354-2.829-15.913-19.612-5.81-26.238 9.783-6.34 19.723 5.362 18.532 16.258-.411 3.826-2.184 7.038-4.888 8.834Zm13.522 1.861c-10.905 5.775-10.497 36.087-7.34 44.953 5.075 11.887 16.522 6.611 26.983 1.088l.018-.009c.815-.437 1.627-.864 2.432-1.286 6.882-3.613 13.155-6.906 14.886-13.787.566-2.57.243-5.316-.973-8.188-4.076-8.274-25.063-28.249-36.006-22.77Zm-15.061 9.408c2.34 3.704 3.301 8.112 2.635 12.117-.519 3.153-2.037 5.822-4.255 7.515-5.695 4.321-13.574.93-17.283-5.228-2.115-3.381-2.967-7.167-2.385-10.691.529-3.182 2.184-5.995 4.676-7.876 5.468-4.181 12.457-2.42 16.612 4.163Z" fill="#04A427"/></svg>