<svg width="338" height="244" fill="none" xmlns="http://www.w3.org/2000/svg"><path opacity=".05" fill-rule="evenodd" clip-rule="evenodd" d="M70.415 48.398c6.867 3.236 14.268-2.15 17.131-9.581 3.144-7.927.76-15.969-5.706-19.114-6.678-3.27-13.794.832-16.623 8.3-3.03 7.15-1.514 17.163 5.198 20.395Zm25.66 12.209c-.95-3.305-3.06-6.029-5.931-7.684-6.33-3.617-13.546-.715-17.154 6.875-3.478 7.066-2.453 16.832 4.122 20.61 6.562 3.748 14.53-1.043 17.738-8.105 1.85-3.877 2.274-8.035 1.225-11.696Zm-49.38-20.568c-2.848-.657-5.247-2.542-6.925-5.361-6.28-10.505.443-28.16 12.777-25.298 11.894 2.83 11.98 19.988 3.837 27.613-2.853 2.683-6.373 3.794-9.69 3.046Zm9.41 12.274C43.701 48.14 23.977 72.326 20.6 81.829c-3.866 13.414 8.634 18.413 20.52 22.428l.02.007c.93.308 1.853.622 2.765.932 7.806 2.659 14.922 5.082 20.834 1.049 2.146-1.571 3.707-3.991 4.65-7.223 2.262-9.771-1.05-42.273-13.286-46.71ZM38.03 47.677c-.607 4.786-2.766 9.025-5.938 11.645-2.493 2.066-5.453 2.954-8.319 2.513-7.34-1.151-11.299-10.12-10.147-17.932.57-4.353 2.403-8.014 5.192-10.323 2.52-2.082 5.684-2.972 8.889-2.461 7.069 1.08 11.406 8.054 10.323 16.558ZM293.5 172.296c6.041-2.355 7.852-10.486 5.723-17.001-2.215-7.007-7.974-10.549-13.714-8.393-5.938 2.214-8.251 9.352-6.081 15.869 1.876 6.444 8.132 11.784 14.072 9.525Zm22.632-8.726c-2.348-1.475-5.119-1.841-7.805-1.046-5.903 1.771-8.914 8.219-7.17 15.31 1.549 6.679 7.365 12.177 13.508 10.349 6.118-1.837 8.604-9.956 6.886-16.459-.886-3.627-2.82-6.518-5.419-8.154Zm-42.005 18.641c-2.142 1.409-4.652 1.756-7.201 1.053-9.518-2.6-14.628-18.027-5.34-24.118 8.992-5.828 18.129 4.929 17.034 14.945-.377 3.516-2.007 6.469-4.493 8.12Zm12.429 1.712c-10.024 5.308-9.65 33.172-6.748 41.321 4.666 10.927 15.188 6.078 24.803 1.001l.017-.008c.749-.402 1.496-.795 2.236-1.183 6.326-3.321 12.093-6.348 13.683-12.673.521-2.363.224-4.887-.894-7.526-3.746-7.606-23.039-25.967-33.097-20.932Zm-13.845 8.645c2.151 3.405 3.034 7.457 2.422 11.138-.477 2.898-1.872 5.352-3.911 6.908-5.235 3.973-12.478.854-15.887-4.805-1.945-3.108-2.728-6.588-2.193-9.828.486-2.925 2.008-5.51 4.299-7.24 5.026-3.843 11.451-2.224 15.27 3.827Z" fill="#fff"/></svg>