<svg width="198" height="90" fill="none" xmlns="http://www.w3.org/2000/svg"><path opacity=".09" fill-rule="evenodd" clip-rule="evenodd" d="M38.778 28.522c3.756 1.862 7.803-1.237 9.37-5.51 1.719-4.56.415-9.185-3.121-10.994-3.653-1.88-7.544.478-9.092 4.773-1.657 4.113-.828 9.872 2.843 11.73Zm14.035 7.023c-.52-1.901-1.673-3.468-3.244-4.42-3.461-2.08-7.408-.41-9.381 3.954-1.902 4.065-1.342 9.682 2.254 11.855 3.589 2.155 7.947-.6 9.7-4.662 1.013-2.23 1.245-4.621.671-6.727Zm-27.007-11.83c-1.557-.377-2.87-1.461-3.787-3.083-3.434-6.042.242-16.196 6.988-14.55 6.504 1.628 6.551 11.496 2.098 15.882-1.56 1.543-3.486 2.182-5.3 1.752Zm5.148 7.06c-6.783-2.4-17.57 11.51-19.417 16.976-2.114 7.715 4.722 10.59 11.222 12.9l.011.004c.51.177 1.014.357 1.513.536 4.269 1.529 8.16 2.922 11.394.603 1.173-.903 2.027-2.295 2.542-4.154 1.238-5.62-.573-24.315-7.265-26.866Zm-9.887-2.667c-.332 2.752-1.512 5.19-3.247 6.697-1.364 1.189-2.983 1.7-4.55 1.446-4.014-.662-6.18-5.82-5.55-10.314.313-2.504 1.315-4.61 2.84-5.937 1.379-1.198 3.109-1.71 4.862-1.416 3.865.621 6.238 4.633 5.645 9.524Z" fill="#04A427"/><path opacity=".04" fill-rule="evenodd" clip-rule="evenodd" d="M162.865 36.992c4.77-1.751 6.2-7.796 4.519-12.64-1.749-5.21-6.295-7.843-10.827-6.24-4.688 1.646-6.514 6.953-4.801 11.798 1.481 4.791 6.42 8.762 11.109 7.082Zm17.871-6.49c-1.854-1.096-4.042-1.368-6.163-.777-4.66 1.317-7.037 6.11-5.66 11.383 1.223 4.965 5.814 9.053 10.664 7.694 4.83-1.366 6.793-7.402 5.437-12.237-.7-2.697-2.227-4.846-4.278-6.062Zm-33.164 13.86c-1.691 1.047-3.673 1.306-5.685.783-7.514-1.933-11.549-13.403-4.216-17.93 7.099-4.334 14.313 3.663 13.448 11.11-.298 2.614-1.585 4.81-3.547 6.037Zm9.811 1.275c-7.914 3.946-7.618 24.662-5.327 30.721 3.683 8.124 11.991 4.518 19.582.744l.013-.006c.591-.3 1.181-.59 1.765-.88 4.995-2.468 9.547-4.719 10.803-9.421.411-1.757.176-3.634-.706-5.596-2.958-5.655-18.189-19.306-26.13-15.562Zm-10.928 6.428c1.698 2.53 2.395 5.544 1.912 8.28-.377 2.155-1.478 3.98-3.088 5.136-4.133 2.954-9.851.635-12.543-3.572-1.535-2.311-2.153-4.898-1.731-7.307a8.356 8.356 0 0 1 3.394-5.383c3.968-2.857 9.04-1.654 12.056 2.846Z" fill="#04A427"/></svg>