<svg width="229" height="99" fill="none" xmlns="http://www.w3.org/2000/svg"><path opacity=".06" fill-rule="evenodd" clip-rule="evenodd" d="M54.119 35.512c6.053-1.283 7.902-8.576 5.802-14.958-2.184-6.852-7.928-11.014-13.678-9.87-5.95 1.166-8.296 7.46-6.156 13.85 1.847 6.277 8.08 12.187 14.032 10.978Zm22.677-4.717c-2.341-1.725-5.112-2.482-7.802-2.147-5.912.76-8.953 6.307-7.24 13.167 1.518 6.447 7.31 12.437 13.463 11.66 6.127-.79 8.651-7.97 6.962-14.278-.87-3.508-2.79-6.49-5.383-8.402Zm-42.1 11.028c-2.148.989-4.66.935-7.206-.102-9.508-3.851-14.549-18.973-5.232-23.244 9.021-4.07 18.11 7.312 16.97 16.467-.394 3.214-2.038 5.717-4.531 6.88Zm12.424 3.462c-10.05 3.432-9.803 29.413-6.938 37.432 4.617 10.868 15.164 7.938 24.804 4.66l.016-.005c.752-.261 1.5-.514 2.242-.764 6.343-2.138 12.124-4.088 13.744-9.734.532-2.12.246-4.513-.86-7.137-3.713-7.64-22.925-27.625-33.008-24.452Zm-13.887 5.963c2.136 3.491 3.001 7.395 2.372 10.728-.49 2.624-1.897 4.697-3.943 5.839-5.255 2.909-12.484-1.081-15.868-6.86-1.931-3.184-2.699-6.54-2.149-9.474.5-2.648 2.034-4.825 4.332-6.09 5.045-2.82 11.464-.348 15.256 5.857ZM181.368 31.428c2.585-4.593-.55-10.915-5.329-14.187-5.092-3.556-10.604-3.032-13.103 1.278-2.594 4.448-.3 10.36 4.506 13.612 4.581 3.352 11.354 3.776 13.926-.703Zm9.736-17.145c-2.264.194-4.211 1.338-5.493 3.212-2.805 4.136-1.317 9.936 3.522 13.785 4.498 3.672 11.076 4.421 14.003.128 2.906-4.287.205-10.938-4.307-14.408-2.472-1.972-5.218-2.928-7.725-2.717ZM174.322 47.73c-.614 2.01-2.021 3.499-4.005 4.307-7.395 3.034-18.755-4.68-16.082-13.386 2.625-8.384 14.075-5.796 18.656 1.422 1.613 2.53 2.136 5.313 1.431 7.657Zm8.772-5.082c-3.552 8.554 11.358 26.921 17.486 30.895 8.708 4.94 12.818-3.558 16.232-11.753l.007-.014c.262-.643.529-1.279.793-1.907 2.256-5.38 4.314-10.283 1.99-15.29-.914-1.835-2.432-3.367-4.529-4.565-6.378-3.189-28.262-5.756-31.979 2.634Zm-4.214 12.69c3.155 1.19 5.849 3.446 7.399 6.204 1.224 2.169 1.633 4.501 1.161 6.559-1.222 5.266-7.45 6.816-12.589 4.755-2.868-1.097-5.197-3.021-6.564-5.447-1.232-2.191-1.63-4.675-1.091-6.973 1.159-5.076 6.079-7.215 11.684-5.098Z" fill="#04A427"/></svg>