<svg width="76" height="66" fill="none" xmlns="http://www.w3.org/2000/svg"><path opacity=".05" fill-rule="evenodd" clip-rule="evenodd" d="M22.108 15.196c2.157 1.016 4.48-.675 5.38-3.008.986-2.49.238-5.014-1.792-6.002-2.097-1.026-4.331.261-5.22 2.606-.95 2.245-.475 5.389 1.632 6.404Zm8.057 3.832a4.048 4.048 0 0 0-1.862-2.412c-1.987-1.136-4.253-.225-5.386 2.158-1.092 2.219-.77 5.285 1.295 6.471 2.06 1.177 4.562-.327 5.569-2.544.58-1.218.714-2.523.384-3.673ZM14.66 12.571c-.894-.206-1.647-.798-2.174-1.683-1.971-3.298.14-8.841 4.012-7.943 3.734.889 3.761 6.276 1.204 8.67-.895.842-2 1.19-3.042.956Zm2.956 3.852c-3.894-1.31-10.087 6.284-11.148 9.267-1.213 4.212 2.711 5.782 6.443 7.042l.007.003c.292.096.581.195.868.292 2.45.835 4.685 1.596 6.54.33.675-.494 1.165-1.254 1.46-2.268.711-3.068-.329-13.273-4.17-14.666Zm-5.676-1.455c-.19 1.503-.868 2.834-1.864 3.656-.783.65-1.712.928-2.612.79-2.305-.362-3.548-3.178-3.186-5.63.18-1.367.755-2.517 1.63-3.242A3.478 3.478 0 0 1 8.7 9.77c2.22.339 3.581 2.528 3.241 5.198ZM61.912 43.204c1.897-.74 2.465-3.292 1.797-5.338-.696-2.2-2.504-3.312-4.306-2.635-1.864.695-2.59 2.936-1.91 4.982.59 2.024 2.554 3.7 4.419 2.991Zm7.106-2.74a2.964 2.964 0 0 0-2.45-.329c-1.854.556-2.8 2.58-2.252 4.807.486 2.097 2.313 3.823 4.241 3.25 1.921-.577 2.702-3.126 2.162-5.168-.278-1.139-.885-2.047-1.701-2.56ZM55.83 46.316c-.673.442-1.46.551-2.261.33-2.989-.816-4.593-5.66-1.677-7.572 2.823-1.83 5.692 1.548 5.348 4.693-.118 1.104-.63 2.03-1.41 2.55Zm3.9.538c-3.146 1.667-3.029 10.415-2.118 12.974 1.465 3.43 4.769 1.908 7.788.314l.005-.003c.235-.126.47-.249.701-.37 1.987-1.044 3.798-1.994 4.297-3.98.164-.742.07-1.534-.28-2.363-1.177-2.388-7.234-8.153-10.392-6.572Zm-4.345 2.714c.675 1.069.953 2.341.76 3.497-.15.91-.587 1.68-1.227 2.169-1.644 1.247-3.918.268-4.988-1.51-.61-.975-.857-2.068-.689-3.085a3.56 3.56 0 0 1 1.35-2.273c1.578-1.206 3.595-.698 4.794 1.202Z" fill="#04A427"/></svg>