<svg width="176" height="153" fill="none" xmlns="http://www.w3.org/2000/svg"><path opacity=".06" fill-rule="evenodd" clip-rule="evenodd" d="M46.845 33.455c4.484 2.223 9.317-1.476 11.187-6.58 2.052-5.442.496-10.965-3.726-13.125-4.361-2.245-9.008.57-10.855 5.7-1.979 4.91-.989 11.786 3.394 14.005ZM63.6 41.841c-.62-2.27-1.998-4.14-3.874-5.277-4.133-2.484-8.845-.49-11.2 4.721-2.272 4.853-1.602 11.56 2.691 14.154 4.284 2.574 9.488-.716 11.582-5.566 1.209-2.663 1.485-5.518.8-8.032ZM31.356 27.716c-1.86-.451-3.426-1.746-4.522-3.681-4.1-7.214.29-19.338 8.343-17.373C42.944 8.605 43 20.388 37.683 25.625c-1.863 1.842-4.162 2.605-6.327 2.09Zm6.144 8.427c-8.099-2.866-20.978 13.744-23.184 20.27-2.523 9.211 5.638 12.644 13.4 15.402l.013.005c.608.21 1.21.426 1.806.64 5.097 1.825 9.744 3.49 13.604.72 1.401-1.079 2.42-2.74 3.036-4.96 1.477-6.71-.685-29.03-8.675-32.077ZM25.698 32.96c-.396 3.286-1.806 6.197-3.877 7.996-1.628 1.42-3.561 2.029-5.432 1.726-4.793-.79-7.378-6.95-6.626-12.314.372-2.99 1.569-5.503 3.39-7.089 1.646-1.43 3.711-2.041 5.804-1.69 4.616.741 7.449 5.53 6.741 11.37ZM146.618 103.609c3.945-1.618 5.128-7.201 3.738-11.676-1.446-4.811-5.207-7.244-8.955-5.763-3.878 1.52-5.388 6.422-3.971 10.897 1.225 4.426 5.31 8.093 9.188 6.542Zm14.78-5.992c-1.533-1.013-3.343-1.264-5.097-.718-3.854 1.216-5.82 5.644-4.682 10.514 1.012 4.586 4.81 8.362 8.821 7.107 3.995-1.262 5.618-6.837 4.497-11.303-.579-2.491-1.842-4.476-3.539-5.6Zm-27.43 12.8c-1.398.967-3.037 1.206-4.702.723-6.215-1.786-9.551-12.38-3.487-16.563 5.872-4.002 11.839 3.385 11.124 10.263-.247 2.415-1.311 4.443-2.935 5.577Zm8.116 1.177c-6.546 3.645-6.302 22.78-4.407 28.376 3.047 7.504 9.918 4.173 16.197.687l.01-.006c.49-.276.977-.545 1.46-.812 4.131-2.28 7.897-4.359 8.935-8.703.341-1.622.146-3.355-.583-5.168-2.447-5.223-15.044-17.833-21.612-14.374Zm-9.041 5.936c1.405 2.338 1.982 5.121 1.582 7.649-.311 1.99-1.223 3.675-2.554 4.744-3.418 2.728-8.148.587-10.374-3.3-1.27-2.134-1.781-4.524-1.432-6.749.318-2.009 1.312-3.784 2.807-4.972 3.282-2.639 7.478-1.528 9.971 2.628Z" fill="#04A427"/></svg>