<svg width="247" height="210" fill="none" xmlns="http://www.w3.org/2000/svg"><path opacity=".06" fill-rule="evenodd" clip-rule="evenodd" d="M67.95 46.841c6.596 3.11 13.704-2.064 16.455-9.202 3.019-7.613.73-15.337-5.481-18.358-6.414-3.14-13.249.799-15.966 7.972-2.91 6.867-1.454 16.485 4.992 19.588ZM92.595 58.57c-.912-3.175-2.939-5.79-5.697-7.38-6.079-3.474-13.01-.687-16.475 6.602-3.34 6.787-2.356 16.168 3.959 19.796 6.302 3.6 13.956-1.001 17.036-7.785 1.777-3.724 2.184-7.717 1.177-11.233ZM45.166 38.812c-2.735-.63-5.04-2.441-6.65-5.149-6.032-10.09.425-27.046 12.272-24.298 11.423 2.719 11.506 19.199 3.684 26.522-2.74 2.577-6.12 3.643-9.306 2.925Zm9.04 11.787c-11.913-4.008-30.857 19.222-34.1 28.349-3.713 12.884 8.292 17.685 19.708 21.542l.02.007c.893.295 1.779.596 2.655.895 7.498 2.553 14.333 4.88 20.01 1.006 2.062-1.508 3.561-3.832 4.466-6.937 2.173-9.385-1.008-40.602-12.76-44.862Zm-17.362-4.454c-.584 4.596-2.657 8.668-5.704 11.184-2.394 1.985-5.237 2.837-7.99 2.414-7.05-1.105-10.852-9.72-9.746-17.223.548-4.18 2.308-7.697 4.987-9.915 2.42-2 5.46-2.854 8.538-2.364 6.789 1.038 10.955 7.736 9.915 15.904ZM206.889 146.306c5.351-2.086 6.956-9.288 5.07-15.059-1.962-6.206-7.063-9.344-12.147-7.433-5.26 1.96-7.309 8.283-5.387 14.055 1.662 5.708 7.203 10.438 12.464 8.437Zm20.047-7.732c-2.08-1.306-4.535-1.63-6.914-.926-5.228 1.569-7.895 7.28-6.35 13.561 1.372 5.915 6.523 10.785 11.964 9.167 5.419-1.628 7.621-8.819 6.1-14.579-.786-3.213-2.498-5.774-4.8-7.223Zm-37.206 16.507c-1.897 1.248-4.121 1.556-6.378.933-8.431-2.303-12.957-15.968-4.731-21.362 7.966-5.163 16.059 4.365 15.089 13.237-.335 3.114-1.779 5.73-3.98 7.192Zm11.008 1.522c-8.879 4.701-8.547 29.381-5.977 36.6 4.133 9.678 13.453 5.382 21.97.886l.014-.008c.664-.356 1.326-.703 1.981-1.047 5.603-2.941 10.711-5.623 12.12-11.225.461-2.093.198-4.328-.792-6.667-3.319-6.736-20.407-23-29.316-18.539Zm-12.263 7.659c1.905 3.015 2.688 6.605 2.146 9.865-.423 2.567-1.659 4.741-3.465 6.119-4.637 3.519-11.051.757-14.071-4.256-1.723-2.753-2.416-5.836-1.942-8.705.43-2.591 1.778-4.881 3.807-6.413 4.452-3.404 10.142-1.97 13.525 3.39Z" fill="#04A427"/></svg>