<svg width="322" height="587" fill="none" xmlns="http://www.w3.org/2000/svg"><path opacity=".04" fill-rule="evenodd" clip-rule="evenodd" d="M158.095 55.203c8.3 3.683 17.243-2.447 20.704-10.903 3.798-9.02.919-18.173-6.896-21.752-8.07-3.721-16.669.946-20.089 9.445-3.661 8.136-1.829 19.532 6.281 23.21Zm31.01 13.896c-1.148-3.762-3.697-6.861-7.168-8.745-7.648-4.116-16.369-.813-20.729 7.824-4.203 8.041-2.965 19.156 4.981 23.455 7.929 4.265 17.56-1.187 21.435-9.224 2.236-4.413 2.749-9.144 1.481-13.31Zm-59.676-23.41c-3.441-.747-6.34-2.893-8.367-6.1-7.589-11.955.534-32.047 15.44-28.79 14.373 3.22 14.477 22.747 4.637 31.425-3.448 3.052-7.702 4.316-11.71 3.465Zm11.373 13.971c-14.988-4.748-38.823 22.776-42.905 33.59-4.671 15.266 10.434 20.955 24.798 25.524l.024.009c1.124.349 2.238.706 3.34 1.059l.002.001c9.434 3.025 18.033 5.783 25.177 1.193 2.594-1.787 4.48-4.541 5.619-8.219 2.734-11.12-1.268-48.109-16.055-53.157Zm-21.843-5.277c-.733 5.446-3.342 10.27-7.176 13.251-3.013 2.352-6.59 3.362-10.052 2.86-8.871-1.31-13.655-11.516-12.264-20.406.69-4.954 2.905-9.12 6.275-11.748 3.046-2.37 6.869-3.382 10.742-2.801 8.542 1.23 13.784 9.166 12.475 18.843Z" fill="#04A427"/><path opacity=".09" fill-rule="evenodd" clip-rule="evenodd" d="M56.842 418.088c5.544 2.748 11.518-1.825 13.83-8.134 2.537-6.729.614-13.557-4.607-16.227-5.39-2.775-11.135.706-13.419 7.046-2.445 6.07-1.222 14.571 4.196 17.315Zm20.714 10.366c-.767-2.806-2.47-5.118-4.788-6.524-5.11-3.07-10.935-.606-13.847 5.837-2.808 5.999-1.98 14.29 3.327 17.497 5.297 3.182 11.73-.885 14.319-6.881 1.493-3.291 1.836-6.821.989-9.929Zm-39.862-17.463c-2.299-.557-4.236-2.158-5.59-4.551-5.069-8.918.358-23.906 10.315-21.476 9.6 2.402 9.67 16.969 3.097 23.442-2.303 2.277-5.145 3.22-7.822 2.585Zm7.597 10.421c-10.012-3.543-25.933 16.99-28.66 25.057-3.12 11.389 6.97 15.633 16.565 19.041l.016.007c.751.26 1.495.527 2.232.791 6.302 2.256 12.046 4.313 16.818.89 1.733-1.334 2.992-3.388 3.753-6.132 1.827-8.295-.847-35.888-10.724-39.654ZM30.7 417.475c-.49 4.063-2.233 7.661-4.794 9.885-2.012 1.755-4.402 2.508-6.715 2.134-5.925-.977-9.121-8.591-8.192-15.223.461-3.696 1.94-6.804 4.192-8.764 2.035-1.767 4.588-2.523 7.175-2.089 5.707.917 9.208 6.837 8.334 14.057Z" fill="#04A427"/><path opacity=".04" fill-rule="evenodd" clip-rule="evenodd" d="M267.652 242.308c7.301-2.681 9.49-11.934 6.918-19.348-2.677-7.974-9.637-12.006-16.573-9.551-7.177 2.519-9.972 10.642-7.35 18.059 2.267 7.333 9.827 13.41 17.005 10.84Zm27.352-9.933c-2.837-1.678-6.186-2.095-9.432-1.191-7.133 2.017-10.772 9.354-8.665 17.424 1.872 7.6 8.901 13.858 16.324 11.778 7.394-2.091 10.398-11.331 8.322-18.731-1.071-4.128-3.408-7.418-6.549-9.28Zm-50.762 21.214c-2.588 1.603-5.622 1.999-8.702 1.199-11.502-2.959-17.677-20.516-6.454-27.447 10.868-6.633 21.909 5.609 20.586 17.008-.456 4.001-2.426 7.362-5.43 9.24Zm15.019 1.95c-12.114 6.04-11.662 37.75-8.155 47.024 5.638 12.435 18.355 6.916 29.974 1.139l.02-.01c.906-.457 1.809-.904 2.702-1.345 7.645-3.78 14.614-7.225 16.536-14.423.63-2.689.27-5.561-1.08-8.565-4.528-8.655-27.842-29.551-39.997-23.82Zm-16.731 9.839c2.599 3.874 3.668 8.486 2.928 12.675-.577 3.298-2.263 6.091-4.727 7.862-6.327 4.52-15.079.972-19.199-5.469-2.35-3.537-3.296-7.497-2.65-11.184a12.787 12.787 0 0 1 5.195-8.239c6.073-4.374 13.838-2.532 18.453 4.355Z" fill="#04A427"/><path opacity=".07" fill-rule="evenodd" clip-rule="evenodd" d="M145.387 525.994c4.877-2 6.34-8.903 4.621-14.434-1.788-5.948-6.437-8.956-11.07-7.125-4.794 1.88-6.662 7.94-4.91 13.472 1.514 5.471 6.565 10.004 11.359 8.087Zm18.271-7.409c-1.895-1.252-4.132-1.562-6.3-.888-4.765 1.504-7.196 6.978-5.788 12.998 1.25 5.67 5.945 10.338 10.904 8.786 4.939-1.56 6.946-8.452 5.559-13.973-.716-3.079-2.277-5.534-4.375-6.923Zm-33.908 15.826c-1.729 1.195-3.755 1.49-5.813.894-7.683-2.208-11.808-15.305-4.311-20.475 7.259-4.949 14.635 4.184 13.751 12.687-.305 2.985-1.621 5.492-3.627 6.894Zm10.033 1.454c-8.092 4.506-7.79 28.161-5.448 35.08 3.767 9.276 12.261 5.159 20.023.849l.013-.007c.605-.341 1.208-.674 1.805-1.004 5.107-2.819 9.762-5.389 11.046-10.759.42-2.006.18-4.149-.722-6.389-3.024-6.457-18.598-22.045-26.717-17.77Zm-11.176 7.338c1.736 2.89 2.449 6.331 1.955 9.455-.385 2.461-1.512 4.544-3.157 5.865-4.226 3.372-10.073.725-12.825-4.079-1.57-2.639-2.202-5.593-1.77-8.344.392-2.483 1.621-4.678 3.47-6.146 4.057-3.263 9.244-1.889 12.327 3.249Z" fill="#04A427"/></svg>