<svg width="120" height="104" fill="none" xmlns="http://www.w3.org/2000/svg"><path opacity=".05" fill-rule="evenodd" clip-rule="evenodd" d="M34.943 24.017c3.408 1.606 7.08-1.067 8.502-4.755 1.56-3.933.377-7.924-2.832-9.485-3.314-1.622-6.845.413-8.249 4.119-1.503 3.548-.751 8.517 2.58 10.12Zm12.735 6.058c-.471-1.64-1.519-2.992-2.944-3.813-3.14-1.795-6.721-.355-8.512 3.411-1.726 3.507-1.217 8.353 2.046 10.228 3.256 1.86 7.21-.518 8.802-4.022.918-1.924 1.128-3.987.608-5.804ZM23.173 19.87c-1.413-.326-2.604-1.262-3.436-2.66-3.117-5.213.219-13.974 6.34-12.554 5.902 1.404 5.945 9.919 1.904 13.702-1.416 1.332-3.163 1.883-4.808 1.512Zm4.67 6.09c-6.155-2.072-15.943 9.93-17.619 14.646-1.918 6.657 4.285 9.137 10.183 11.13l.01.004c.462.152.92.308 1.372.462 3.874 1.32 7.405 2.522 10.339.52 1.065-.779 1.84-1.98 2.307-3.584 1.123-4.849-.52-20.978-6.593-23.179Zm-8.97-2.302c-.301 2.375-1.372 4.479-2.947 5.779-1.237 1.025-2.706 1.466-4.128 1.247-3.642-.571-5.607-5.022-5.035-8.898.283-2.16 1.192-3.977 2.576-5.123 1.251-1.033 2.82-1.475 4.411-1.221 3.508.536 5.66 3.996 5.123 8.216ZM97.857 68.284c2.998-1.169 3.897-5.204 2.84-8.437-1.099-3.477-3.957-5.235-6.805-4.164-2.947 1.098-4.095 4.64-3.018 7.874.93 3.198 4.035 5.848 6.983 4.727Zm11.231-4.329c-1.165-.732-2.54-.913-3.873-.52-2.929.88-4.423 4.08-3.558 7.599.769 3.314 3.655 6.042 6.703 5.135 3.036-.912 4.27-4.94 3.417-8.167-.439-1.8-1.399-3.235-2.689-4.047Zm-20.844 9.25c-1.063.698-2.308.87-3.573.522-4.724-1.29-7.26-8.946-2.65-11.969 4.462-2.892 8.996 2.446 8.453 7.416-.188 1.745-.997 3.21-2.23 4.03Zm6.167.85c-4.975 2.634-4.789 16.461-3.349 20.505 2.315 5.422 7.537 3.016 12.308.497l.009-.005c.371-.199.742-.394 1.109-.586 3.14-1.648 6.001-3.15 6.79-6.29.259-1.172.111-2.424-.443-3.734-1.859-3.774-11.433-12.886-16.424-10.387Zm-6.87 4.29c1.067 1.689 1.506 3.7 1.202 5.526-.237 1.438-.929 2.656-1.94 3.428-2.599 1.971-6.192.424-7.885-2.384-.964-1.543-1.353-3.27-1.088-4.877.242-1.452.997-2.735 2.133-3.593 2.495-1.907 5.683-1.104 7.578 1.9Z" fill="#04A427"/></svg>