<svg width="184" height="36" fill="none" xmlns="http://www.w3.org/2000/svg"><path opacity=".06" fill-rule="evenodd" clip-rule="evenodd" d="M12.798 14.69c.945-1.597-.2-3.793-1.947-4.93-1.86-1.236-3.875-1.054-4.788.444-.948 1.545-.11 3.6 1.646 4.73 1.674 1.164 4.15 1.311 5.09-.245Zm3.557-5.958a2.697 2.697 0 0 0-2.007 1.116c-1.025 1.437-.48 3.453 1.287 4.79 1.644 1.276 4.048 1.536 5.118.044 1.062-1.49.075-3.8-1.574-5.006-.903-.685-1.907-1.018-2.823-.944Zm-6.132 11.621c-.225.699-.739 1.216-1.464 1.497-2.702 1.054-6.853-1.626-5.877-4.652.96-2.913 5.144-2.013 6.818.495.59.879.78 1.846.523 2.66Zm3.205-1.768c-1.298 2.972 4.151 9.354 6.39 10.735 3.183 1.717 4.684-1.236 5.932-4.084l.003-.005c.096-.223.193-.444.29-.662.824-1.87 1.576-3.573.727-5.313-.334-.638-.889-1.17-1.655-1.586-2.33-1.108-10.328-2-11.687.915Zm-1.539 4.41c1.153.413 2.137 1.197 2.704 2.156.447.753.596 1.564.424 2.279-.447 1.83-2.723 2.368-4.6 1.652-1.049-.381-1.9-1.05-2.4-1.893-.45-.761-.595-1.624-.398-2.423.424-1.763 2.222-2.507 4.27-1.771ZM167.551 11.047c2.212-.446 2.887-2.98 2.12-5.198-.798-2.38-2.897-3.827-4.998-3.43-2.175.406-3.032 2.593-2.25 4.813.675 2.181 2.953 4.235 5.128 3.815Zm8.286-1.639c-.856-.6-1.868-.862-2.851-.746-2.16.265-3.272 2.192-2.646 4.575.555 2.24 2.672 4.322 4.92 4.052 2.239-.274 3.161-2.77 2.544-4.961-.318-1.22-1.02-2.255-1.967-2.92Zm-15.385 3.832c-.785.344-1.703.325-2.633-.035-3.475-1.338-5.317-6.593-1.912-8.077 3.296-1.414 6.618 2.54 6.201 5.722-.144 1.117-.744 1.986-1.656 2.39Zm4.54 1.203c-3.672 1.193-3.582 10.22-2.535 13.007 1.687 3.776 5.541 2.758 9.064 1.62l.006-.002c.275-.091.549-.179.82-.266 2.317-.743 4.43-1.42 5.022-3.382.194-.737.09-1.569-.314-2.48-1.357-2.655-8.378-9.6-12.063-8.497Zm-5.073 2.071c.78 1.213 1.096 2.57.866 3.728-.179.912-.693 1.632-1.441 2.029-1.92 1.01-4.562-.376-5.799-2.384-.705-1.106-.986-2.272-.785-3.292a3.013 3.013 0 0 1 1.584-2.116c1.843-.98 4.189-.12 5.575 2.035Z" fill="#04A427"/></svg>