<svg width="201" height="117" fill="none" xmlns="http://www.w3.org/2000/svg"><path opacity=".06" fill-rule="evenodd" clip-rule="evenodd" d="M49.255 34.774c4.797 2.26 9.965-1.501 11.966-6.691 2.195-5.536.53-11.153-3.986-13.35-4.664-2.283-9.634.581-11.61 5.797-2.116 4.993-1.057 11.987 3.63 14.244Zm17.924 8.532c-.663-2.308-2.137-4.21-4.143-5.366-4.42-2.526-9.46-.5-11.98 4.801-2.43 4.935-1.713 11.757 2.879 14.395 4.582 2.617 10.148-.728 12.388-5.66 1.292-2.709 1.589-5.612.856-8.17ZM32.688 28.937c-1.989-.459-3.665-1.775-4.836-3.744-4.386-7.337.309-19.667 8.923-17.669 8.307 1.977 8.367 13.96 2.68 19.286-1.993 1.874-4.451 2.65-6.767 2.127Zm6.573 8.575C30.6 34.598 16.823 51.49 14.464 58.127c-2.699 9.369 6.03 12.86 14.332 15.665l.014.005c.65.214 1.294.433 1.932.65 5.452 1.857 10.422 3.55 14.55.733 1.5-1.097 2.59-2.787 3.248-5.045 1.58-6.824-.733-29.525-9.279-32.623Zm-12.624-3.24c-.424 3.342-1.931 6.303-4.147 8.132-1.741 1.444-3.808 2.064-5.81 1.756-5.127-.804-7.892-7.068-7.087-12.524.399-3.04 1.678-5.597 3.626-7.21 1.76-1.454 3.97-2.076 6.208-1.719 4.937.755 7.967 5.625 7.21 11.565ZM169.225 66.533c4.219-1.645 5.484-7.323 3.998-11.874-1.548-4.893-5.57-7.368-9.579-5.861-4.147 1.546-5.763 6.531-4.247 11.083 1.31 4.5 5.679 8.23 9.828 6.652Zm15.809-6.093c-1.64-1.03-3.575-1.285-5.451-.73-4.123 1.237-6.226 5.74-5.008 10.693 1.082 4.664 5.144 8.505 9.434 7.228 4.274-1.283 6.01-6.953 4.81-11.495-.619-2.534-1.969-4.553-3.785-5.696Zm-29.34 13.02c-1.496.983-3.249 1.226-5.029.735-6.648-1.816-10.217-12.59-3.73-16.844 6.28-4.071 12.662 3.442 11.897 10.438-.263 2.455-1.402 4.518-3.138 5.67Zm8.682 1.197c-7.001 3.707-6.74 23.168-4.713 28.86 3.258 7.631 10.608 4.244 17.323.698l.012-.006c.523-.28 1.044-.554 1.561-.825 4.419-2.32 8.446-4.434 9.557-8.852.364-1.65.156-3.413-.624-5.256-2.617-5.312-16.091-18.136-23.116-14.62Zm-9.67 6.036c1.502 2.378 2.119 5.208 1.692 7.779-.333 2.024-1.308 3.738-2.732 4.825-3.656 2.774-8.715.596-11.096-3.356-1.358-2.171-1.905-4.602-1.531-6.865.339-2.042 1.402-3.848 3.002-5.056 3.51-2.684 7.998-1.554 10.665 2.673Z" fill="#04A427"/></svg>