<svg width="109" height="78" fill="none" xmlns="http://www.w3.org/2000/svg"><path opacity=".07" fill-rule="evenodd" clip-rule="evenodd" d="M23.787 17.194c2.32 1.15 4.82-.764 5.788-3.404 1.061-2.816.256-5.673-1.928-6.79-2.256-1.162-4.66.295-5.615 2.948-1.024 2.54-.512 6.098 1.755 7.246Zm8.668 4.336c-.32-1.174-1.034-2.142-2.004-2.73-2.138-1.285-4.575-.254-5.794 2.443-1.175 2.51-.829 5.98 1.392 7.322 2.217 1.331 4.909-.37 5.992-2.88.625-1.377.768-2.854.414-4.155Zm-16.68-7.306c-.962-.234-1.773-.903-2.339-1.905-2.121-3.732.15-10.004 4.316-8.987 4.018 1.005 4.047 7.101 1.296 9.81-.964.953-2.153 1.348-3.273 1.082Zm3.178 4.361c-4.19-1.482-10.852 7.11-11.993 10.486-1.306 4.765 2.917 6.541 6.932 7.968l.007.002c.314.11.626.221.934.332 2.637.944 5.04 1.805 7.038.372.725-.558 1.252-1.418 1.57-2.566.765-3.471-.354-15.018-4.488-16.594Zm-6.106-1.646c-.205 1.7-.934 3.206-2.006 4.137-.842.734-1.842 1.05-2.81.893-2.48-.41-3.817-3.596-3.428-6.37.193-1.547.812-2.848 1.754-3.668.852-.74 1.92-1.056 3.003-.875 2.388.384 3.853 2.862 3.487 5.883ZM94.073 51.894c2.04-.837 2.653-3.725 1.934-6.04-.749-2.489-2.694-3.748-4.633-2.981-2.006.786-2.788 3.322-2.055 5.637.634 2.29 2.747 4.187 4.754 3.384Zm7.646-3.097a3.054 3.054 0 0 0-2.636-.371c-1.994.629-3.011 2.92-2.422 5.439.523 2.372 2.488 4.326 4.563 3.676 2.067-.652 2.906-3.537 2.326-5.847-.299-1.289-.953-2.316-1.831-2.897Zm-14.19 6.622c-.724.5-1.572.624-2.433.375-3.215-.924-4.941-6.405-1.804-8.569 3.038-2.07 6.125 1.751 5.755 5.31-.128 1.249-.678 2.298-1.518 2.884Zm4.197.608c-3.386 1.886-3.26 11.785-2.279 14.68 1.576 3.882 5.13 2.159 8.379.355l.005-.003c.253-.142.505-.282.755-.42 2.138-1.18 4.086-2.255 4.623-4.502.176-.84.075-1.736-.302-2.674-1.266-2.702-7.783-9.225-11.18-7.436Zm-4.675 3.07c.726 1.21 1.025 2.65.818 3.958-.161 1.03-.633 1.9-1.322 2.454-1.768 1.41-4.214.303-5.366-1.707-.657-1.105-.922-2.34-.74-3.492.163-1.039.677-1.958 1.451-2.572 1.698-1.365 3.868-.79 5.159 1.36Z" fill="#04A427"/></svg>