<svg width="130" height="77" fill="none" xmlns="http://www.w3.org/2000/svg"><path opacity=".05" fill-rule="evenodd" clip-rule="evenodd" d="M31.362 22.531c3.04 1.508 6.317-1 7.585-4.46 1.392-3.692.337-7.436-2.526-8.9-2.957-1.523-6.108.387-7.36 3.864-1.342 3.329-.67 7.992 2.3 9.496Zm11.36 5.685c-.42-1.54-1.354-2.807-2.626-3.578-2.802-1.684-5.997-.333-7.594 3.201-1.54 3.29-1.086 7.838 1.825 9.597 2.904 1.745 6.433-.486 7.853-3.774.819-1.806 1.007-3.741.542-5.446ZM20.86 18.638c-1.26-.305-2.323-1.183-3.065-2.496-2.78-4.89.196-13.111 5.657-11.779 5.265 1.318 5.304 9.307 1.698 12.858-1.263 1.248-2.821 1.766-4.29 1.418Zm4.167 5.716c-5.491-1.942-14.224 9.32-15.72 13.744-1.71 6.246 3.824 8.574 9.086 10.443l.009.004c.412.143.82.289 1.224.433 3.456 1.238 6.607 2.366 9.224.489.95-.732 1.642-1.858 2.059-3.364 1.002-4.55-.465-19.683-5.882-21.748Zm-8.004-2.158c-.268 2.228-1.224 4.202-2.628 5.422-1.104.962-2.415 1.376-3.684 1.17-3.25-.536-5.002-4.712-4.492-8.35.252-2.026 1.064-3.73 2.299-4.806 1.115-.97 2.516-1.384 3.935-1.146 3.13.503 5.05 3.75 4.57 7.71ZM115.747 52.948c1.891-.775 2.458-3.452 1.792-5.596-.693-2.307-2.496-3.473-4.293-2.763-1.859.729-2.583 3.078-1.903 5.224.587 2.12 2.545 3.879 4.404 3.135Zm7.085-2.872a2.83 2.83 0 0 0-2.443-.344c-1.848.583-2.79 2.706-2.244 5.04.485 2.199 2.305 4.009 4.228 3.407 1.915-.605 2.693-3.278 2.155-5.418-.277-1.194-.882-2.146-1.696-2.685Zm-13.149 6.138c-.67.464-1.456.578-2.254.347-2.979-.856-4.578-5.935-1.671-7.94 2.815-1.919 5.675 1.622 5.332 4.92-.118 1.157-.629 2.13-1.407 2.673Zm3.891.561c-3.138 1.748-3.021 10.92-2.112 13.603 1.46 3.597 4.754 2 7.764.33l.005-.004c.234-.132.468-.261.7-.389 1.98-1.093 3.785-2.09 4.283-4.172.163-.778.07-1.609-.28-2.477-1.173-2.504-7.212-8.548-10.36-6.89Zm-4.334 2.849c.673 1.12.95 2.455.758 3.666-.149.954-.586 1.762-1.224 2.274-1.639 1.308-3.906.282-4.973-1.581-.609-1.024-.854-2.17-.687-3.236.153-.963.629-1.814 1.346-2.383 1.573-1.265 3.584-.732 4.78 1.26Z" fill="#04A427"/></svg>