<svg width="367" height="318" fill="none" xmlns="http://www.w3.org/2000/svg"><path opacity=".05" fill-rule="evenodd" clip-rule="evenodd" d="M106.962 74.263c10.432 4.917 21.674-3.265 26.024-14.553 4.775-12.04 1.155-24.257-8.668-29.035-10.144-4.966-20.953 1.264-25.251 12.607-4.602 10.861-2.3 26.072 7.895 30.981Zm38.979 18.55c-1.444-5.021-4.649-9.159-9.011-11.673-9.614-5.494-20.576-1.085-26.056 10.443-5.283 10.734-3.726 25.569 6.261 31.307 9.967 5.693 22.072-1.583 26.944-12.311 2.811-5.89 3.455-12.205 1.862-17.767Zm-75.01-31.246c-4.326-.998-7.971-3.861-10.518-8.143-9.54-15.957.671-42.775 19.407-38.428 18.067 4.299 18.198 30.362 5.828 41.945-4.333 4.075-9.68 5.762-14.718 4.626Zm14.294 18.644c-18.84-6.338-48.8 30.401-53.93 44.835-5.872 20.377 13.115 27.971 31.17 34.07l.03.011c1.414.467 2.815.943 4.201 1.415 11.858 4.038 22.667 7.719 31.647 1.593 3.26-2.386 5.631-6.062 7.062-10.971 3.438-14.843-1.593-64.215-20.18-70.953ZM57.77 73.168c-.922 7.27-4.201 13.71-9.02 17.688-3.787 3.14-8.284 4.488-12.636 3.819-11.15-1.749-17.164-15.373-15.415-27.239.867-6.612 3.65-12.173 7.888-15.68 3.828-3.163 8.633-4.515 13.502-3.74 10.737 1.641 17.326 12.235 15.68 25.152ZM299.548 209.76c9.177-3.578 11.929-15.928 8.695-25.825-3.365-10.644-12.113-16.025-20.832-12.749-9.021 3.363-12.535 14.206-9.238 24.105 2.849 9.789 12.352 17.901 21.375 14.469Zm34.381-13.258c-3.567-2.24-7.777-2.796-11.857-1.589-8.966 2.691-13.54 12.484-10.891 23.257 2.353 10.144 11.188 18.496 20.519 15.72 9.294-2.791 13.07-15.124 10.461-25.001-1.347-5.511-4.284-9.902-8.232-12.387Zm-63.807 28.317c-3.254 2.14-7.067 2.668-10.939 1.6-14.458-3.95-22.22-27.384-8.112-36.636 13.66-8.853 27.539 7.487 25.876 22.702-.573 5.341-3.05 9.826-6.825 12.334ZM289 227.42c-15.227 8.064-14.658 50.389-10.25 62.768 7.087 16.598 23.071 9.231 37.677 1.52l.025-.013c1.137-.61 2.271-1.205 3.394-1.795l.002-.001c9.61-5.045 18.369-9.643 20.785-19.25.792-3.59.34-7.424-1.357-11.434-5.692-11.553-34.997-39.444-50.276-31.795Zm-21.03 13.135c3.267 5.171 4.61 11.328 3.68 16.919-.725 4.402-2.844 8.129-5.942 10.493-7.952 6.034-18.953 1.298-24.132-7.299-2.954-4.722-4.144-10.008-3.331-14.929.739-4.443 3.051-8.37 6.529-10.997 7.635-5.838 17.395-3.38 23.196 5.813Z" fill="#04A427"/></svg>