<svg width="190" height="69" fill="none" xmlns="http://www.w3.org/2000/svg"><path opacity=".05" fill-rule="evenodd" clip-rule="evenodd" d="M38.614 27.598c3.701 1.835 7.69-1.218 9.233-5.43 1.694-4.493.41-9.05-3.075-10.834-3.6-1.853-7.434.472-8.96 4.704-1.632 4.053-.815 9.729 2.802 11.56Zm13.829 6.92c-.512-1.874-1.65-3.417-3.197-4.356-3.411-2.05-7.3-.404-9.245 3.897-1.874 4.005-1.322 9.54 2.222 11.682 3.536 2.124 7.83-.591 9.559-4.594.997-2.198 1.226-4.554.66-6.63ZM25.83 22.86c-1.535-.373-2.828-1.441-3.732-3.039-3.384-5.954.239-15.96 6.886-14.338 6.41 1.604 6.456 11.329 2.068 15.65-1.538 1.521-3.435 2.15-5.222 1.727Zm5.072 6.958c-6.685-2.366-17.314 11.343-19.135 16.729-2.083 7.603 4.654 10.436 11.06 12.712l.01.004c.502.174.999.352 1.49.528 4.208 1.507 8.043 2.88 11.229.594 1.156-.89 1.997-2.261 2.505-4.093 1.22-5.538-.565-23.96-7.16-26.474Zm-9.742-2.629c-.328 2.713-1.491 5.115-3.2 6.6-1.344 1.172-2.94 1.675-4.484 1.425-3.956-.653-6.09-5.736-5.469-10.164.308-2.467 1.295-4.542 2.799-5.85 1.358-1.18 3.063-1.685 4.79-1.396 3.81.613 6.147 4.565 5.563 9.385ZM165.769 28.495c3.256-1.335 4.232-5.943 3.085-9.636-1.194-3.971-4.298-5.979-7.391-4.757-3.201 1.255-4.447 5.3-3.278 8.994 1.011 3.653 4.383 6.68 7.584 5.4Zm12.199-4.946a4.876 4.876 0 0 0-4.207-.593c-3.181 1.004-4.804 4.658-3.864 8.678.835 3.785 3.969 6.901 7.28 5.865 3.297-1.041 4.637-5.643 3.711-9.328-.478-2.056-1.52-3.695-2.92-4.622Zm-22.639 10.566c-1.155.799-2.507.996-3.881.597-5.129-1.473-7.883-10.217-2.878-13.67 4.846-3.303 9.771 2.794 9.181 8.471-.204 1.993-1.083 3.667-2.422 4.602Zm6.697.968c-5.402 3.009-5.2 18.802-3.637 23.42 2.515 6.194 8.186 3.445 13.368.568l.009-.005c.403-.228.806-.45 1.204-.67h.001c3.409-1.883 6.517-3.598 7.374-7.183.281-1.34.121-2.77-.481-4.266-2.02-4.31-12.417-14.718-17.838-11.864Zm-7.461 4.903c1.159 1.93 1.635 4.227 1.305 6.313-.257 1.643-1.009 3.033-2.108 3.915-2.821 2.252-6.724.485-8.562-2.723-1.048-1.762-1.47-3.734-1.181-5.57.262-1.658 1.082-3.124 2.316-4.104 2.709-2.178 6.172-1.26 8.23 2.17Z" fill="#04A427"/></svg>