<svg width="379" height="527" fill="none" xmlns="http://www.w3.org/2000/svg"><path opacity=".04" fill-rule="evenodd" clip-rule="evenodd" d="M340.368 44.898c7.167 2.938 14.757-2.261 17.615-9.313 3.14-7.524.55-15.066-6.2-17.925-6.971-2.972-14.285 1.01-17.107 8.097-3.033 6.79-1.313 16.204 5.692 19.14Zm26.781 11.09c-1.034-3.1-3.262-5.632-6.263-7.145-6.615-3.306-14.051-.452-17.678 6.762-3.499 6.718-2.291 15.909 4.581 19.362 6.856 3.425 15.045-1.222 18.264-7.932 1.86-3.686 2.237-7.612 1.096-11.046Zm-51.493-18.581c-2.961-.573-5.476-2.31-7.256-4.94-6.666-9.8.037-26.553 12.865-24.058 12.371 2.473 12.716 18.646 4.389 25.968-2.917 2.576-6.549 3.68-9.998 3.03Zm9.938 11.418c-12.918-3.73-33.001 19.394-36.36 28.407-3.806 12.71 9.225 17.217 21.605 20.807l.021.006c.969.275 1.929.555 2.88.833 8.131 2.378 15.543 4.546 21.611.647 2.201-1.516 3.782-3.823 4.711-6.885 2.199-9.249-1.719-39.834-14.468-43.815ZM306.79 44.75c-.558 4.522-2.732 8.553-5.981 11.075-2.553 1.989-5.608 2.874-8.585 2.506-7.626-.965-11.863-9.355-10.786-16.738.527-4.113 2.372-7.594 5.228-9.817 2.582-2.004 5.847-2.895 9.177-2.466 7.343.903 11.943 7.406 10.947 15.44Z" fill="#04A427"/><path opacity=".03" fill-rule="evenodd" clip-rule="evenodd" d="M245.947 453.383c7.615-1.419 11.17-9.904 9.745-17.379-1.444-8.023-7.711-12.954-14.932-11.694-7.469 1.284-11.453 8.598-9.979 16.081 1.135 7.35 7.688 14.326 15.166 12.992Zm28.513-5.212c-2.55-2.043-5.796-2.962-9.138-2.606-7.35.812-12.049 7.244-11.182 15.271.705 7.542 6.705 14.607 14.351 13.78 7.619-.842 11.977-9.188 11.041-16.571-.437-4.105-2.25-7.608-5.072-9.874Zm-53.336 12.326c-2.798 1.125-5.854 1.03-8.776-.213-10.916-4.616-14.373-22.327-2.243-27.19 11.733-4.633 20.797 8.766 17.774 19.434-1.053 3.746-3.505 6.645-6.755 7.969Zm14.542 4.2c-12.876 3.874-17.202 34.195-15.135 43.589 3.697 12.741 17.089 9.458 29.436 5.759l.022-.007c.963-.295 1.922-.58 2.871-.862 8.121-2.414 15.523-4.614 18.505-11.181 1.027-2.467 1.104-5.263.223-8.339-3.169-8.963-23.053-32.531-35.922-28.959Zm-18.007 6.779c1.984 4.101 2.345 8.667.983 12.548-1.066 3.056-3.152 5.457-5.852 6.762-6.93 3.327-15.041-1.423-18.141-8.209-1.789-3.741-2.128-7.666-.934-11.083 1.082-3.084 3.342-5.604 6.372-7.05 6.658-3.225 14.05-.258 17.572 7.032Z" fill="#04A427"/><path opacity=".07" fill-rule="evenodd" clip-rule="evenodd" d="M85.095 209.806c8.3 3.684 17.243-2.446 20.704-10.903 3.798-9.02.919-18.173-6.896-21.752-8.07-3.72-16.67.947-20.089 9.445-3.661 8.137-1.83 19.533 6.281 23.21Zm31.01 13.896c-1.148-3.761-3.698-6.861-7.168-8.745-7.648-4.115-16.37-.813-20.73 7.824-4.202 8.042-2.964 19.156 4.982 23.455 7.929 4.265 17.56-1.186 21.435-9.223 2.236-4.413 2.749-9.144 1.481-13.311Zm-59.676-23.409c-3.44-.748-6.34-2.893-8.367-6.101-7.589-11.954.534-32.046 15.44-28.789 14.373 3.22 14.477 22.747 4.637 31.424-3.448 3.053-7.702 4.317-11.71 3.466Zm11.373 13.971c-14.988-4.749-38.823 22.776-42.905 33.59-4.671 15.265 10.434 20.954 24.798 25.524l.024.008c1.124.35 2.238.707 3.34 1.06l.002.001c9.434 3.025 18.033 5.782 25.177 1.193 2.594-1.787 4.48-4.542 5.618-8.22 2.735-11.12-1.267-48.108-16.054-53.156Zm-21.843-5.278c-.734 5.447-3.342 10.271-7.176 13.252-3.013 2.352-6.59 3.362-10.053 2.86-8.87-1.31-13.654-11.517-12.263-20.406.69-4.954 2.905-9.12 6.275-11.748 3.046-2.37 6.869-3.382 10.742-2.801 8.542 1.229 13.784 9.166 12.475 18.843Z" fill="#04A427"/><path opacity=".05" fill-rule="evenodd" clip-rule="evenodd" d="M223.652 354.308c7.301-2.681 9.49-11.934 6.917-19.348-2.677-7.974-9.636-12.006-16.573-9.551-7.176 2.519-9.972 10.643-7.349 18.059 2.267 7.333 9.827 13.411 17.005 10.84Zm27.352-9.933c-2.837-1.678-6.187-2.095-9.432-1.191-7.134 2.017-10.772 9.354-8.665 17.424 1.872 7.6 8.9 13.858 16.324 11.778 7.394-2.091 10.398-11.331 8.322-18.731-1.071-4.128-3.408-7.418-6.549-9.28Zm-50.762 21.214c-2.589 1.603-5.622 1.999-8.702 1.199-11.502-2.959-17.678-20.516-6.454-27.447 10.867-6.633 21.909 5.609 20.586 17.007-.456 4.002-2.426 7.362-5.43 9.241Zm15.018 1.95c-12.114 6.04-11.661 37.75-8.154 47.024 5.638 12.435 18.354 6.916 29.974 1.139l.02-.01c.905-.457 1.808-.904 2.702-1.346 7.645-3.779 14.614-7.224 16.536-14.422.63-2.689.27-5.561-1.08-8.565-4.528-8.655-27.842-29.551-39.998-23.82Zm-16.73 9.839c2.599 3.874 3.667 8.486 2.927 12.675-.576 3.298-2.262 6.09-4.726 7.861-6.327 4.521-15.079.972-19.199-5.468-2.35-3.538-3.297-7.498-2.65-11.185a12.785 12.785 0 0 1 5.195-8.239c6.073-4.373 13.838-2.531 18.453 4.356Z" fill="#04A427"/></svg>