<svg width="96" height="118" fill="none" xmlns="http://www.w3.org/2000/svg"><path opacity=".06" fill-rule="evenodd" clip-rule="evenodd" d="M29.592 20.917c2.866 1.35 5.955-.898 7.15-4 1.312-3.308.318-6.665-2.381-7.977-2.788-1.365-5.758.347-6.939 3.464-1.264 2.984-.632 7.164 2.17 8.513Zm10.71 5.1c-.397-1.379-1.278-2.516-2.477-3.207-2.642-1.51-5.654-.298-7.16 2.87-1.451 2.95-1.023 7.026 1.721 8.603 2.739 1.564 6.065-.435 7.403-3.383.773-1.619.95-3.354.512-4.882Zm-20.61-8.586c-1.19-.274-2.19-1.061-2.89-2.238-2.622-4.384.184-11.753 5.332-10.559 4.965 1.181 5 8.343 1.602 11.526-1.191 1.12-2.66 1.583-4.045 1.27Zm3.926 5.122c-5.177-1.742-13.41 8.354-14.819 12.32-1.613 5.599 3.604 7.686 8.565 9.361l.008.003c.389.129.773.26 1.154.39 3.259 1.109 6.23 2.12 8.697.437.895-.655 1.547-1.666 1.94-3.015.945-4.078-.438-17.645-5.545-19.496Zm-7.544-1.934c-.254 1.997-1.155 3.767-2.479 4.86-1.04.863-2.276 1.233-3.472 1.05-3.064-.481-4.716-4.225-4.236-7.485.239-1.817 1.004-3.345 2.168-4.31 1.052-.868 2.372-1.24 3.71-1.027 2.95.451 4.76 3.362 4.309 6.912ZM76.94 86.563c2.59-1.01 3.367-4.496 2.454-7.29-.95-3.004-3.419-4.523-5.88-3.598-2.546.949-3.538 4.01-2.607 6.804.804 2.763 3.486 5.053 6.033 4.084Zm9.704-3.743a4.048 4.048 0 0 0-3.346-.448c-2.531.76-3.822 3.524-3.075 6.564.665 2.864 3.158 5.221 5.792 4.438 2.623-.788 3.69-4.269 2.953-7.057-.38-1.556-1.21-2.795-2.324-3.497Zm-18.012 7.992c-.918.604-1.994.753-3.087.452-4.081-1.115-6.272-7.73-2.29-10.341 3.856-2.5 7.773 2.113 7.304 6.408-.162 1.507-.861 2.773-1.927 3.481Zm5.33.737c-4.299 2.275-4.138 14.223-2.894 17.717 2 4.685 6.512 2.606 10.635.429l.007-.004c.321-.172.642-.34.959-.507 2.712-1.424 5.185-2.722 5.867-5.434.223-1.013.095-2.095-.384-3.227-1.606-3.26-9.878-11.134-14.19-8.974Zm-5.937 3.706c.922 1.46 1.301 3.198 1.039 4.776-.205 1.243-.803 2.295-1.677 2.962-2.245 1.703-5.35.366-6.812-2.06-.834-1.333-1.17-2.825-.94-4.215.208-1.254.861-2.362 1.843-3.104 2.155-1.647 4.91-.954 6.547 1.641Z" fill="#04A427"/></svg>