<svg width="235" height="480" fill="none" xmlns="http://www.w3.org/2000/svg"><path opacity=".09" fill-rule="evenodd" clip-rule="evenodd" d="M39.778 28.522c3.756 1.862 7.803-1.237 9.37-5.51 1.719-4.56.415-9.185-3.121-10.994-3.653-1.88-7.544.478-9.092 4.773-1.657 4.113-.828 9.872 2.843 11.73Zm14.035 7.023c-.52-1.901-1.673-3.468-3.244-4.42-3.461-2.08-7.408-.41-9.381 3.954-1.902 4.065-1.342 9.682 2.254 11.855 3.589 2.155 7.947-.6 9.7-4.662 1.013-2.23 1.245-4.621.671-6.727Zm-27.007-11.83c-1.557-.377-2.87-1.461-3.787-3.083-3.434-6.042.242-16.196 6.988-14.55 6.504 1.628 6.551 11.496 2.098 15.882-1.56 1.543-3.485 2.182-5.3 1.752Zm5.148 7.06c-6.783-2.4-17.57 11.51-19.417 16.976-2.114 7.715 4.722 10.59 11.222 12.9l.011.004c.51.177 1.014.357 1.513.536 4.269 1.529 8.16 2.922 11.394.603 1.173-.903 2.027-2.295 2.542-4.154 1.238-5.62-.573-24.315-7.265-26.866Zm-9.887-2.667c-.332 2.752-1.512 5.19-3.247 6.697-1.364 1.189-2.983 1.7-4.55 1.446-4.014-.662-6.18-5.82-5.55-10.314.313-2.504 1.315-4.61 2.84-5.937 1.379-1.198 3.109-1.71 4.862-1.416 3.865.621 6.238 4.633 5.645 9.524Z" fill="#04A427"/><path opacity=".04" fill-rule="evenodd" clip-rule="evenodd" d="M163.865 36.992c4.77-1.751 6.2-7.796 4.519-12.64-1.749-5.21-6.295-7.843-10.827-6.24-4.688 1.646-6.514 6.953-4.801 11.798 1.481 4.791 6.42 8.762 11.109 7.082Zm17.871-6.49c-1.854-1.096-4.042-1.368-6.163-.777-4.66 1.317-7.037 6.11-5.66 11.383 1.223 4.965 5.814 9.053 10.664 7.694 4.83-1.366 6.793-7.402 5.437-12.237-.7-2.697-2.227-4.846-4.278-6.062Zm-33.164 13.86c-1.691 1.047-3.673 1.306-5.685.783-7.514-1.933-11.549-13.403-4.216-17.93 7.099-4.334 14.313 3.663 13.448 11.11-.298 2.614-1.585 4.81-3.547 6.037Zm9.811 1.275c-7.914 3.946-7.618 24.662-5.327 30.721 3.683 8.124 11.991 4.518 19.582.744l.013-.006c.591-.3 1.181-.59 1.765-.88 4.995-2.468 9.547-4.719 10.803-9.421.411-1.757.176-3.634-.706-5.596-2.958-5.655-18.189-19.306-26.13-15.562Zm-10.928 6.428c1.698 2.53 2.395 5.544 1.912 8.28-.377 2.155-1.478 3.98-3.088 5.136-4.133 2.954-9.851.635-12.543-3.572-1.535-2.311-2.153-4.898-1.731-7.307a8.356 8.356 0 0 1 3.394-5.383c3.968-2.857 9.04-1.654 12.056 2.846Z" fill="#04A427"/><path opacity=".07" fill-rule="evenodd" clip-rule="evenodd" d="M204.989 427.679c4.064-1.667 5.282-7.419 3.85-12.028-1.49-4.957-5.364-7.463-9.225-5.938-3.995 1.567-5.551 6.617-4.091 11.227 1.261 4.559 5.47 8.337 9.466 6.739Zm15.225-6.172c-1.579-1.043-3.444-1.302-5.25-.739-3.971 1.253-5.997 5.814-4.823 10.831 1.042 4.725 4.954 8.615 9.086 7.322 4.116-1.3 5.788-7.044 4.633-11.644-.597-2.567-1.897-4.612-3.646-5.77Zm-28.257 13.187c-1.441.996-3.129 1.242-4.844.745-6.403-1.84-9.84-12.754-3.592-17.063 6.049-4.123 12.195 3.487 11.459 10.573-.254 2.488-1.351 4.577-3.023 5.745Zm8.36 1.212c-6.743 3.755-6.491 23.468-4.539 29.233 3.138 7.731 10.217 4.3 16.685.708l.011-.006c.504-.284 1.007-.561 1.504-.836 4.256-2.35 8.135-4.491 9.205-8.966.351-1.672.151-3.457-.601-5.325-2.52-5.38-15.498-18.37-22.265-14.808Zm-9.312 6.115c1.447 2.408 2.041 5.275 1.629 7.879-.321 2.05-1.259 3.786-2.631 4.887-3.522 2.811-8.394.605-10.687-3.399-1.308-2.199-1.835-4.661-1.475-6.953.327-2.069 1.351-3.899 2.891-5.122 3.381-2.719 7.704-1.574 10.273 2.708Z" fill="#04A427"/><path opacity=".04" fill-rule="evenodd" clip-rule="evenodd" d="M59.812 424.096c5.752 2.553 11.95-1.695 14.35-7.557 2.632-6.251.636-12.595-4.78-15.075-5.594-2.579-11.553.656-13.923 6.546-2.538 5.639-1.268 13.537 4.353 16.086Zm21.492 9.632a10.279 10.279 0 0 0-4.968-6.06c-5.3-2.853-11.345-.564-14.367 5.422-2.913 5.574-2.054 13.277 3.453 16.256 5.495 2.956 12.17-.822 14.856-6.392 1.55-3.059 1.905-6.338 1.026-9.226Zm-41.359-16.224c-2.385-.518-4.394-2.005-5.799-4.228-5.26-8.286.37-22.211 10.701-19.953 9.962 2.232 10.034 15.765 3.214 21.779-2.39 2.116-5.338 2.992-8.116 2.402Zm7.883 9.683c-10.388-3.292-26.908 15.785-29.737 23.28-3.237 10.58 7.232 14.523 17.187 17.69l.017.006c.78.242 1.552.489 2.316.735 6.538 2.096 12.498 4.007 17.45.826 1.797-1.238 3.105-3.147 3.894-5.696 1.895-7.707-.879-33.343-11.127-36.841Zm-15.14-3.655c-.508 3.775-2.316 7.118-4.973 9.184-2.088 1.631-4.567 2.331-6.967 1.983-6.148-.908-9.464-7.982-8.5-14.143.479-3.434 2.014-6.321 4.35-8.142a9.686 9.686 0 0 1 7.444-1.942c5.92.852 9.554 6.353 8.647 13.06Z" fill="#04A427"/></svg>