<svg width="234" height="106" fill="none" xmlns="http://www.w3.org/2000/svg"><path opacity=".07" fill-rule="evenodd" clip-rule="evenodd" d="M52.01 30.597c5.87-1.838 7.759-8.595 5.816-14.087-2.017-5.905-7.514-8.99-13.09-7.313-5.77 1.722-8.124 7.638-6.142 13.133 1.7 5.427 7.645 10.026 13.416 8.267Zm21.993-6.805c-2.241-1.283-4.91-1.65-7.515-1.044-5.727 1.353-8.743 6.677-7.182 12.642 1.38 5.616 6.897 10.338 12.857 8.944 5.936-1.403 8.475-8.135 6.929-13.608-.793-3.051-2.61-5.51-5.09-6.934Zm-40.858 14.67c-2.091 1.13-4.52 1.367-6.967.724-9.14-2.38-13.807-15.386-4.739-20.275 8.779-4.677 17.411 4.513 16.182 12.861-.425 2.931-2.049 5.364-4.476 6.69Zm11.964 1.7c-9.766 4.22-9.884 27.518-7.224 34.393 4.315 9.234 14.553 5.41 23.92 1.375l.016-.007c.73-.32 1.457-.631 2.178-.94 6.162-2.638 11.78-5.044 13.423-10.296.543-1.963.3-4.08-.733-6.31-3.485-6.439-21.787-22.205-31.58-18.214Zm-13.51 6.927c2.018 2.892 2.8 6.3 2.146 9.363-.51 2.412-1.899 4.432-3.893 5.689-5.12 3.206-12.056.443-15.249-4.361-1.823-2.641-2.519-5.566-1.947-8.263.52-2.434 2.033-4.562 4.273-5.958 4.917-3.103 11.09-1.611 14.67 3.53ZM193.812 46.24c4.123-3.479 4.018-10.012 1.238-14.216-2.934-4.544-7.91-5.507-11.842-2.26-4.071 3.345-4.523 9.288-1.712 13.482 2.577 4.225 8.252 6.374 12.316 2.995Zm15.464-12.964c-2.034-.415-4.187.112-6.066 1.472-4.124 3.008-5.226 8.641-2.632 13.383 2.373 4.492 7.746 6.885 12.04 3.766 4.275-3.118 4.68-9.837 2.211-14.15-1.322-2.428-3.301-4.009-5.553-4.47Zm-28.259 25.868c-1.358 1.657-3.185 2.637-5.231 2.85-7.636.815-14.27-9.121-8.378-16.296 5.717-6.897 14.54-1.571 15.525 6.15.351 2.708-.343 5.36-1.916 7.296Zm9.667-2.31c-6.588 6.81-1.272 27.303 2.386 32.494 5.486 6.737 12.533.124 18.855-6.395l.011-.011c.491-.513.983-1.018 1.469-1.517 4.163-4.276 7.958-8.173 8.013-13.307-.035-1.897-.715-3.678-2.033-5.308-4.195-4.546-22.038-12.572-28.701-5.955Zm-8.86 10.376c2.234 1.898 3.632 4.64 3.836 7.538.164 2.28-.443 4.495-1.697 6.233-3.224 4.443-9.24 4.22-12.829 1.017-2.026-1.74-3.244-4.087-3.427-6.636-.162-2.303.517-4.652 1.928-6.59 3.09-4.287 8.22-4.939 12.189-1.563Z" fill="#04A427"/></svg>