<svg width="184" height="159" fill="none" xmlns="http://www.w3.org/2000/svg"><path opacity=".05" fill-rule="evenodd" clip-rule="evenodd" d="M53.536 36.796c5.221 2.46 10.847-1.635 13.025-7.284 2.39-6.027.578-12.141-4.339-14.532-5.077-2.486-10.487.632-12.638 6.31-2.303 5.436-1.151 13.049 3.952 15.506Zm19.508 9.283c-.722-2.513-2.326-4.583-4.51-5.842-4.811-2.75-10.298-.543-13.04 5.227-2.645 5.372-1.866 12.797 3.133 15.67 4.988 2.849 11.047-.793 13.485-6.163 1.407-2.947 1.73-6.108.932-8.892ZM35.501 30.445c-2.165-.5-3.989-1.933-5.264-4.076-4.774-7.986.336-21.409 9.714-19.233 9.042 2.151 9.108 15.196 2.917 20.993-2.17 2.04-4.846 2.884-7.367 2.316Zm7.154 9.33c-9.43-3.173-24.425 15.215-26.993 22.44-2.938 10.198 6.565 13.999 15.601 17.051l.016.006c.707.233 1.408.472 2.102.709 5.935 2.02 11.345 3.863 15.84.796 1.631-1.194 2.818-3.033 3.534-5.49 1.72-7.43-.797-32.14-10.1-35.513ZM28.913 36.25c-.461 3.639-2.102 6.861-4.514 8.853-1.896 1.571-4.146 2.246-6.325 1.911-5.58-.875-8.59-7.694-7.715-13.633.434-3.31 1.828-6.093 3.948-7.848 1.916-1.583 4.321-2.26 6.758-1.872 5.374.822 8.672 6.124 7.848 12.59ZM149.925 104.612c4.593-1.791 5.97-7.972 4.351-12.926-1.684-5.327-6.062-8.02-10.426-6.38-4.515 1.683-6.274 7.11-4.624 12.064 1.426 4.9 6.183 8.96 10.699 7.242Zm17.207-6.636c-1.785-1.121-3.892-1.4-5.934-.796-4.488 1.347-6.777 6.249-5.451 11.641 1.178 5.077 5.6 9.257 10.27 7.868 4.651-1.397 6.542-7.57 5.235-12.514-.673-2.758-2.143-4.956-4.12-6.2Zm-31.936 14.174c-1.629 1.07-3.537 1.335-5.475.8-7.236-1.977-11.121-13.706-4.06-18.336 6.837-4.431 13.783 3.747 12.951 11.362-.287 2.673-1.527 4.918-3.416 6.174Zm9.45 1.302c-7.621 4.036-7.337 25.22-5.13 31.416 3.547 8.307 11.547 4.62 18.857.761l.013-.007c.569-.306 1.137-.604 1.699-.899 4.81-2.525 9.194-4.826 10.404-9.635.396-1.796.169-3.715-.68-5.722-2.848-5.783-17.516-19.742-25.163-15.914Zm-10.526 6.574c1.635 2.588 2.307 5.669 1.841 8.467-.362 2.204-1.423 4.069-2.973 5.252-3.98 3.02-9.487.65-12.079-3.653-1.478-2.363-2.074-5.009-1.667-7.472.37-2.224 1.527-4.189 3.268-5.504 3.821-2.922 8.706-1.692 11.61 2.91Z" fill="#04A427"/></svg>