<svg width="87" height="68" fill="none" xmlns="http://www.w3.org/2000/svg"><path opacity=".06" fill-rule="evenodd" clip-rule="evenodd" d="M28.717 19.738c2.8 1.32 5.819-.877 6.987-3.908 1.282-3.232.31-6.512-2.327-7.795-2.724-1.333-5.626.34-6.78 3.385-1.235 2.916-.617 7 2.12 8.318Zm10.464 4.979c-.388-1.348-1.248-2.459-2.42-3.134-2.58-1.475-5.523-.291-6.995 2.804-1.418 2.882-1 6.865 1.681 8.405 2.676 1.529 5.926-.425 7.234-3.305.755-1.581.928-3.277.5-4.77ZM19.043 16.33c-1.16-.268-2.14-1.037-2.823-2.186-2.561-4.284.18-11.484 5.21-10.317 4.85 1.154 4.886 8.151 1.565 11.26-1.164 1.095-2.6 1.548-3.952 1.243Zm3.838 5.006C17.823 19.633 9.78 29.496 8.402 33.373c-1.576 5.47 3.521 7.509 8.369 9.146l.008.003c.38.126.755.254 1.127.38 3.184 1.084 6.086 2.073 8.497.428.875-.64 1.512-1.627 1.896-2.946.923-3.984-.428-17.24-5.418-19.049Zm-7.371-1.893c-.248 1.952-1.128 3.68-2.422 4.749-1.016.843-2.223 1.205-3.392 1.025-2.994-.47-4.608-4.127-4.139-7.313.233-1.775.98-3.268 2.118-4.21A4.518 4.518 0 0 1 11.3 12.69c2.883.44 4.652 3.285 4.21 6.753ZM68.698 38.28c2.464-.96 3.203-4.277 2.335-6.934-.904-2.857-3.252-4.302-5.593-3.422-2.422.902-3.365 3.814-2.48 6.471.765 2.628 3.316 4.806 5.738 3.885Zm9.23-3.558a3.85 3.85 0 0 0-3.183-.427c-2.407.723-3.635 3.352-2.924 6.244.632 2.724 3.004 4.966 5.51 4.22 2.494-.748 3.508-4.06 2.807-6.711-.36-1.48-1.15-2.659-2.21-3.326Zm-17.13 7.6c-.874.574-1.898.716-2.937.43-3.882-1.061-5.965-7.353-2.178-9.837 3.667-2.376 7.394 2.01 6.947 6.095-.154 1.434-.819 2.639-1.832 3.312Zm5.067.701c-4.088 2.165-3.935 13.529-2.751 16.852 1.902 4.456 6.193 2.478 10.115.408l.007-.003c.305-.164.61-.324.911-.483 2.58-1.354 4.932-2.588 5.58-5.168.213-.963.092-1.993-.364-3.07-1.528-3.101-9.396-10.59-13.498-8.535ZM60.22 46.55c.877 1.388 1.238 3.04.988 4.542-.194 1.182-.764 2.182-1.595 2.817-2.135 1.62-5.089.348-6.479-1.96-.793-1.267-1.112-2.686-.894-4.008.198-1.193.819-2.247 1.753-2.952 2.05-1.568 4.67-.907 6.227 1.56Z" fill="#04A427"/></svg>