<svg width="208" height="270" fill="none" xmlns="http://www.w3.org/2000/svg"><path opacity=".04" fill-rule="evenodd" clip-rule="evenodd" d="M71.41 46.497c6.916 3.07 14.368-2.038 17.252-9.086 3.166-7.517.766-15.144-5.746-18.126-6.725-3.1-13.891.788-16.74 7.87-3.052 6.781-1.525 16.278 5.234 19.342ZM97.25 58.08c-.956-3.134-3.081-5.718-5.973-7.288-6.374-3.43-13.641-.677-17.275 6.52-3.502 6.702-2.47 15.964 4.152 19.546 6.607 3.554 14.633-.988 17.862-7.686 1.864-3.677 2.29-7.62 1.235-11.092ZM47.522 38.57c-2.867-.623-5.284-2.41-6.973-5.084-6.324-9.962.446-26.705 12.867-23.991C65.393 12.18 65.48 28.452 57.28 35.683c-2.873 2.544-6.418 3.597-9.758 2.888ZM57 50.213c-12.49-3.958-32.353 18.98-35.754 27.991-3.893 12.722 8.695 17.462 20.665 21.27l.02.007c.937.291 1.866.589 2.785.884 7.861 2.521 15.027 4.819 20.98.994 2.162-1.49 3.734-3.784 4.683-6.85 2.279-9.266-1.057-40.09-13.379-44.296Zm-18.203-4.395c-.611 4.539-2.785 8.559-5.98 11.043-2.51 1.96-5.491 2.802-8.377 2.384-7.392-1.092-11.38-9.598-10.22-17.006.576-4.128 2.421-7.6 5.23-9.79a11.65 11.65 0 0 1 8.951-2.334c7.119 1.025 11.487 7.638 10.396 15.703ZM162.707 202.421c6.083-2.233 7.908-9.944 5.764-16.123-2.231-6.645-8.031-10.004-13.811-7.959-5.981 2.099-8.31 8.869-6.125 15.049 1.889 6.111 8.19 11.176 14.172 9.033Zm22.793-8.276c-2.364-1.399-5.155-1.746-7.86-.992-5.945 1.68-8.977 7.794-7.221 14.519 1.56 6.334 7.417 11.548 13.603 9.815 6.162-1.742 8.666-9.442 6.936-15.609-.893-3.44-2.84-6.182-5.458-7.733Zm-42.302 17.679c-2.157 1.336-4.685 1.666-7.251.999-9.586-2.466-14.732-17.096-5.379-22.873 9.056-5.527 18.258 4.675 17.155 14.173-.38 3.335-2.022 6.135-4.525 7.701Zm12.515 1.625c-10.095 5.034-9.717 31.458-6.795 39.187 4.698 10.362 15.295 5.763 24.978.949l.017-.008c.755-.381 1.507-.753 2.252-1.122 6.371-3.149 12.178-6.02 13.78-12.018.524-2.241.225-4.635-.9-7.138-3.773-7.213-23.202-24.626-33.332-19.85Zm-13.941 8.198c2.166 3.229 3.056 7.072 2.44 10.563-.481 2.748-1.886 5.075-3.939 6.551-5.272 3.767-12.566.81-15.999-4.557-1.959-2.948-2.747-6.248-2.208-9.321a10.654 10.654 0 0 1 4.328-6.865c5.062-3.645 11.532-2.11 15.378 3.629Z" fill="#04A427"/></svg>