<svg width="259" height="78" fill="none" xmlns="http://www.w3.org/2000/svg"><path opacity=".06" fill-rule="evenodd" clip-rule="evenodd" d="M26.473 49.665c2.554 1.267 5.307-.84 6.373-3.748 1.17-3.101.283-6.248-2.123-7.478-2.484-1.28-5.131.325-6.184 3.247-1.127 2.797-.563 6.715 1.933 7.98Zm9.546 4.777c-.353-1.293-1.138-2.358-2.206-3.006-2.355-1.415-5.04-.28-6.382 2.69-1.294 2.764-.912 6.585 1.534 8.063 2.44 1.466 5.405-.408 6.598-3.17.689-1.518.846-3.144.456-4.577Zm-18.37-8.047c-1.06-.257-1.952-.994-2.576-2.097-2.336-4.11.165-11.017 4.753-9.897 4.425 1.107 4.457 7.82 1.428 10.803-1.062 1.05-2.371 1.484-3.605 1.191Zm3.5 4.802c-4.614-1.632-11.952 7.83-13.208 11.548-1.438 5.248 3.212 7.204 7.634 8.775l.007.002c.346.12.69.243 1.029.365 2.904 1.04 5.55 1.988 7.75.41.799-.614 1.38-1.561 1.73-2.825.841-3.823-.39-16.54-4.942-18.275Zm-6.724-1.814c-.226 1.872-1.029 3.53-2.209 4.555-.927.809-2.028 1.156-3.094.984-2.731-.45-4.204-3.96-3.775-7.016.212-1.703.894-3.135 1.931-4.038.938-.815 2.115-1.163 3.307-.963 2.63.422 4.243 3.15 3.84 6.478ZM234.111 20.773c3.288-1.348 4.273-6.001 3.115-9.73-1.205-4.01-4.339-6.037-7.463-4.803-3.231 1.267-4.49 5.352-3.309 9.082 1.021 3.687 4.425 6.743 7.657 5.45Zm12.317-4.996a4.924 4.924 0 0 0-4.248-.6c-3.212 1.015-4.85 4.704-3.901 8.763.843 3.822 4.008 6.968 7.35 5.922 3.33-1.051 4.682-5.697 3.748-9.419-.483-2.076-1.535-3.73-2.949-4.667Zm-22.859 10.668c-1.165.806-2.531 1.005-3.918.602-5.179-1.488-7.96-10.316-2.906-13.802 4.893-3.335 9.865 2.82 9.269 8.553-.205 2.012-1.092 3.702-2.445 4.647Zm6.763.978c-5.454 3.038-5.251 18.984-3.672 23.647 2.539 6.253 8.265 3.478 13.497.573l.009-.005c.408-.23.814-.454 1.217-.676 3.442-1.901 6.58-3.633 7.446-7.253.283-1.352.121-2.797-.487-4.307-2.038-4.353-12.536-14.86-18.01-11.979Zm-7.533 4.95c1.171 1.948 1.652 4.267 1.318 6.373-.259 1.659-1.018 3.063-2.128 3.953-2.849 2.274-6.79.49-8.645-2.75-1.058-1.778-1.484-3.77-1.193-5.624.264-1.674 1.093-3.153 2.339-4.143 2.735-2.2 6.231-1.273 8.309 2.19Z" fill="#04A427"/></svg>