<svg width="195" height="178" fill="none" xmlns="http://www.w3.org/2000/svg"><path opacity=".05" fill-rule="evenodd" clip-rule="evenodd" d="M56.842 41.088c5.544 2.748 11.518-1.825 13.83-8.134 2.537-6.73.614-13.557-4.607-16.227-5.39-2.775-11.135.706-13.419 7.046-2.445 6.07-1.222 14.571 4.196 17.315Zm20.714 10.366c-.767-2.806-2.47-5.118-4.788-6.524-5.11-3.07-10.935-.606-13.847 5.837-2.808 5.999-1.98 14.29 3.327 17.497 5.297 3.182 11.73-.885 14.319-6.88 1.493-3.292 1.836-6.822.989-9.93ZM37.694 33.99c-2.299-.557-4.236-2.158-5.59-4.55-5.069-8.919.358-23.907 10.315-21.477 9.6 2.402 9.67 16.969 3.097 23.442-2.303 2.277-5.145 3.22-7.822 2.585Zm7.597 10.42C35.279 40.87 19.358 61.404 16.631 69.47 13.51 80.858 23.6 85.102 33.196 88.51l.016.006c.751.261 1.495.528 2.232.792 6.302 2.256 12.046 4.313 16.818.89 1.733-1.334 2.992-3.388 3.753-6.132 1.827-8.296-.847-35.888-10.724-39.654ZM30.7 40.476c-.49 4.063-2.233 7.661-4.794 9.885-2.012 1.755-4.402 2.508-6.715 2.134-5.925-.977-9.121-8.591-8.192-15.223.461-3.696 1.94-6.804 4.192-8.764 2.035-1.767 4.588-2.523 7.175-2.09 5.707.918 9.208 6.838 8.334 14.058ZM159.186 116.814c4.877-2 6.339-8.902 4.621-14.434-1.788-5.948-6.437-8.956-11.071-7.125-4.794 1.88-6.661 7.94-4.909 13.472 1.514 5.471 6.564 10.005 11.359 8.087Zm18.271-7.408c-1.895-1.252-4.133-1.563-6.301-.888-4.765 1.504-7.195 6.977-5.787 12.997 1.25 5.67 5.945 10.338 10.904 8.786 4.939-1.559 6.945-8.452 5.559-13.972-.716-3.08-2.277-5.534-4.375-6.923Zm-33.908 15.825c-1.73 1.196-3.756 1.491-5.813.894-7.684-2.208-11.809-15.304-4.311-20.475 7.259-4.948 14.635 4.184 13.751 12.687-.305 2.985-1.621 5.492-3.627 6.894Zm10.032 1.454c-8.092 4.506-7.789 28.161-5.447 35.08 3.766 9.276 12.261 5.159 20.023.849l.013-.007c.605-.341 1.208-.674 1.805-1.004 5.107-2.819 9.762-5.389 11.046-10.758.42-2.007.18-4.149-.722-6.39-3.024-6.457-18.598-22.045-26.718-17.77Zm-11.176 7.338c1.737 2.89 2.45 6.331 1.956 9.456-.385 2.46-1.512 4.543-3.158 5.864-4.226 3.373-10.072.725-12.824-4.079-1.57-2.639-2.202-5.593-1.77-8.344.392-2.483 1.621-4.678 3.47-6.146 4.057-3.263 9.243-1.889 12.326 3.249Z" fill="#04A427"/></svg>