<svg width="181" height="96" fill="none" xmlns="http://www.w3.org/2000/svg"><path opacity=".07" fill-rule="evenodd" clip-rule="evenodd" d="M27.892 25.286c1.969-4.04-.81-9.178-4.838-11.639-4.294-2.68-8.798-1.889-10.705 1.907-1.982 3.919.095 8.764 4.144 11.206 3.868 2.54 9.438 2.47 11.399-1.474ZM35.311 10.2c-1.85.307-3.41 1.396-4.4 3.059-2.164 3.668-.752 8.47 3.344 11.414 3.81 2.815 9.23 3.031 11.49-.777 2.242-3.803-.193-9.247-4.008-11.89-2.092-1.509-4.377-2.143-6.426-1.806ZM22.65 39.493c-.439 1.736-1.543 3.081-3.144 3.889C13.541 46.41 3.97 40.617 5.876 33.099c1.876-7.243 11.353-5.782 15.348.02 1.406 2.035 1.927 4.351 1.426 6.374Zm7.024-4.843c-2.63 7.445 10.204 22.007 15.362 24.974 7.305 3.62 10.395-3.814 12.926-10.948l.004-.012c.194-.559.392-1.112.588-1.66 1.674-4.683 3.2-8.952 1.129-13.032-.81-1.491-2.106-2.688-3.866-3.567-5.336-2.289-23.37-3.072-26.142 4.245ZM26.64 45.626c2.627.805 4.91 2.539 6.273 4.769 1.076 1.753 1.488 3.696 1.169 5.463-.83 4.523-5.887 6.225-10.17 4.81-2.388-.745-4.361-2.222-5.563-4.183-1.083-1.772-1.49-3.843-1.124-5.818.783-4.358 4.748-6.474 9.415-5.041ZM143.38 41.008c4.922-1.466 6.199-7.739 4.266-12.994-2.017-5.646-6.865-8.796-11.544-7.467-4.842 1.36-6.559 6.822-4.592 12.08 1.721 5.183 7.029 9.777 11.87 8.38Zm18.446-5.414c-1.978-1.308-4.275-1.772-6.47-1.32-4.824 1.017-7.136 5.89-5.505 11.573 1.458 5.346 6.406 10.037 11.427 8.992 5-1.054 6.833-7.274 5.24-12.493-.829-2.906-2.503-5.301-4.692-6.752ZM127.66 47.566c-1.73.97-3.792 1.083-5.914.369-7.926-2.65-12.559-15.096-5.058-19.29 7.265-4.006 15.096 5.027 14.462 12.827-.217 2.739-1.483 4.955-3.49 6.094Zm10.303 2.135c-8.13 3.532-7.071 25.448-4.456 32.036 4.145 8.882 12.699 5.742 20.498 2.366l.013-.005c.608-.268 1.214-.529 1.814-.787 5.131-2.206 9.809-4.217 10.951-9.085.367-1.824.053-3.826-.94-5.97-3.297-6.215-19.714-21.87-27.88-18.555Zm-11.193 5.911c1.867 2.812 2.706 6.053 2.3 8.906-.316 2.246-1.402 4.085-3.042 5.178-4.214 2.788-10.275-.124-13.242-4.787-1.688-2.567-2.428-5.35-2.074-7.862.322-2.267 1.509-4.201 3.353-5.414 4.044-2.7 9.39-1.019 12.705 3.98Z" fill="#04A427"/></svg>