<svg width="130" height="113" fill="none" xmlns="http://www.w3.org/2000/svg"><path opacity=".05" fill-rule="evenodd" clip-rule="evenodd" d="M37.83 26.001c3.689 1.74 7.664-1.155 9.203-5.147 1.688-4.258.408-8.578-3.066-10.268-3.587-1.756-7.41.447-8.93 4.459-1.628 3.84-.813 9.22 2.792 10.956Zm13.784 6.558c-.51-1.775-1.644-3.238-3.187-4.128-3.4-1.943-7.277-.384-9.215 3.694-1.869 3.796-1.318 9.042 2.214 11.072 3.525 2.013 7.806-.56 9.53-4.354.993-2.083 1.221-4.317.658-6.284ZM25.086 21.51c-1.53-.353-2.819-1.366-3.72-2.88-3.373-5.644.238-15.128 6.864-13.59 6.39 1.52 6.436 10.737 2.061 14.834-1.532 1.44-3.423 2.037-5.205 1.636Zm5.055 6.594c-6.663-2.242-17.259 10.752-19.073 15.857-2.077 7.206 4.638 9.892 11.024 12.049l.01.004c.5.165.995.333 1.485.5h.001c4.194 1.428 8.017 2.73 11.193.563 1.152-.843 1.99-2.143 2.497-3.88 1.216-5.25-.563-22.71-7.137-25.093Zm-9.71-2.49c-.326 2.572-1.486 4.849-3.19 6.256-1.34 1.11-2.93 1.587-4.469 1.35-3.943-.618-6.07-5.436-5.451-9.633.306-2.338 1.29-4.305 2.79-5.545 1.353-1.119 3.053-1.597 4.774-1.323 3.798.58 6.128 4.327 5.546 8.896ZM105.939 73.917c3.246-1.265 4.219-5.633 3.075-9.134-1.19-3.764-4.284-5.667-7.367-4.508-3.19 1.19-4.433 5.024-3.267 8.525 1.007 3.462 4.368 6.33 7.559 5.117Zm12.16-4.688c-1.262-.792-2.751-.989-4.194-.562-3.171.952-4.788 4.415-3.851 8.225.832 3.588 3.956 6.542 7.256 5.56 3.287-.987 4.623-5.349 3.7-8.842-.476-1.949-1.515-3.502-2.911-4.38ZM95.532 79.243c-1.15.756-2.499.943-3.868.566-5.113-1.397-7.859-9.685-2.87-12.957 4.832-3.132 9.74 2.647 9.152 8.028-.203 1.89-1.078 3.476-2.414 4.363Zm6.677.921c-5.385 2.852-5.184 17.82-3.625 22.199 2.506 5.87 8.159 3.265 13.325.537l.009-.004c.402-.216.803-.427 1.201-.635 3.398-1.785 6.496-3.41 7.351-6.809.28-1.27.12-2.625-.48-4.043-2.013-4.086-12.377-13.95-17.781-11.245Zm-7.437 4.644c1.156 1.828 1.63 4.006 1.302 5.983-.257 1.557-1.006 2.875-2.102 3.711-2.812 2.134-6.703.459-8.534-2.581-1.045-1.67-1.466-3.54-1.178-5.28.26-1.572 1.079-2.96 2.309-3.89 2.7-2.064 6.152-1.195 8.203 2.057Z" fill="#04A427"/></svg>