<svg width="152" height="176" fill="none" xmlns="http://www.w3.org/2000/svg"><path opacity=".09" fill-rule="evenodd" clip-rule="evenodd" d="M48.031 34.901c4.62 2.29 9.598-1.52 11.525-6.778 2.114-5.607.511-11.297-3.839-13.522-4.492-2.313-9.279.588-11.182 5.872-2.038 5.058-1.019 12.142 3.496 14.428Zm17.263 8.64c-.64-2.338-2.058-4.265-3.99-5.436-4.258-2.559-9.112-.506-11.54 4.864-2.339 4.998-1.65 11.908 2.773 14.58 4.414 2.652 9.775-.737 11.932-5.733 1.245-2.744 1.53-5.685.825-8.275ZM32.075 28.99c-1.915-.465-3.53-1.799-4.657-3.793-4.225-7.432.297-19.922 8.595-17.897 8 2.002 8.058 14.14 2.58 19.535-1.919 1.898-4.287 2.684-6.518 2.155Zm6.331 8.682c-8.343-2.952-21.61 14.159-23.883 20.881-2.6 9.49 5.808 13.027 13.804 15.868l.013.004c.627.218 1.247.44 1.86.66 5.252 1.88 10.039 3.595 14.016.741 1.443-1.11 2.493-2.823 3.127-5.11 1.522-6.912-.706-29.906-8.937-33.044Zm-12.16-3.28c-.408 3.387-1.86 6.386-3.994 8.239-1.677 1.462-3.669 2.09-5.596 1.778-4.938-.814-7.601-7.16-6.827-12.686.384-3.08 1.617-5.67 3.493-7.303 1.696-1.473 3.824-2.103 5.98-1.741 4.755.764 7.673 5.698 6.944 11.714Z" fill="#04A427"/><path opacity=".07" fill-rule="evenodd" clip-rule="evenodd" d="M121.821 124.823c4.064-1.666 5.282-7.418 3.85-12.028-1.49-4.956-5.364-7.463-9.225-5.937-3.995 1.566-5.551 6.616-4.091 11.227 1.261 4.559 5.47 8.337 9.466 6.738Zm15.225-6.171c-1.579-1.043-3.444-1.302-5.25-.74-3.971 1.253-5.997 5.815-4.823 10.832 1.042 4.724 4.954 8.614 9.086 7.321 4.116-1.3 5.788-7.043 4.633-11.644-.596-2.566-1.897-4.611-3.646-5.769Zm-28.257 13.187c-1.441.996-3.129 1.242-4.844.745-6.402-1.84-9.84-12.754-3.592-17.063 6.049-4.123 12.196 3.487 11.459 10.573-.254 2.487-1.351 4.577-3.023 5.745Zm8.36 1.212c-6.743 3.755-6.491 23.467-4.539 29.233 3.139 7.73 10.217 4.299 16.685.708l.011-.006c.504-.284 1.007-.562 1.504-.836l.001-.001c4.255-2.349 8.134-4.491 9.204-8.965.351-1.672.151-3.458-.601-5.325-2.52-5.381-15.498-18.371-22.265-14.808Zm-9.312 6.114c1.447 2.409 2.041 5.276 1.629 7.88-.321 2.05-1.259 3.786-2.631 4.887-3.522 2.81-8.393.604-10.687-3.4-1.308-2.199-1.835-4.661-1.475-6.953.327-2.069 1.35-3.898 2.891-5.122 3.381-2.718 7.704-1.573 10.273 2.708Z" fill="#04A427"/></svg>