<svg width="313" height="271" fill="none" xmlns="http://www.w3.org/2000/svg"><path opacity=".05" fill-rule="evenodd" clip-rule="evenodd" d="M91.26 63.057c8.902 4.195 18.493-2.786 22.205-12.417 4.073-10.273.985-20.697-7.396-24.773-8.655-4.237-17.877 1.078-21.545 10.757-3.926 9.266-1.962 22.244 6.737 26.433Zm33.258 15.826c-1.231-4.284-3.966-7.814-7.687-9.96-8.203-4.686-17.556-.925-22.232 8.911-4.508 9.158-3.18 21.816 5.342 26.712 8.504 4.857 18.833-1.351 22.989-10.505 2.398-5.025 2.948-10.413 1.588-15.158Zm-64-26.66c-3.69-.851-6.8-3.294-8.974-6.947-8.139-13.615.573-36.497 16.56-32.788 15.414 3.668 15.525 25.906 4.972 35.788-3.698 3.477-8.26 4.916-12.558 3.947Zm12.196 15.909C56.64 62.724 31.077 94.07 26.7 106.386c-5.01 17.385 11.19 23.864 26.595 29.068l.026.01c1.206.398 2.401.805 3.584 1.208 10.117 3.445 19.34 6.585 27.002 1.358 2.781-2.035 4.804-5.172 6.025-9.361 2.933-12.664-1.36-54.788-17.218-60.537Zm-23.425-6.01c-.787 6.204-3.585 11.698-7.696 15.093-3.232 2.678-7.068 3.828-10.782 3.257-9.513-1.492-14.644-13.116-13.152-23.24.74-5.642 3.116-10.387 6.73-13.38 3.267-2.698 7.367-3.851 11.52-3.19 9.162 1.4 14.784 10.44 13.38 21.46ZM255.579 178.668c7.829-3.053 10.177-13.591 7.418-22.035-2.871-9.081-10.335-13.672-17.774-10.877-7.697 2.869-10.695 12.121-7.882 20.567 2.431 8.352 10.539 15.273 18.238 12.345Zm29.334-11.31c-3.044-1.911-6.636-2.386-10.117-1.356-7.65 2.296-11.552 10.652-9.292 19.843 2.008 8.656 9.545 15.782 17.507 13.413 7.929-2.381 11.152-12.904 8.925-21.331-1.149-4.702-3.655-8.449-7.023-10.569Zm-54.441 24.159c-2.777 1.826-6.03 2.276-9.333 1.365-12.336-3.37-18.959-23.364-6.922-31.258 11.655-7.554 23.497 6.388 22.078 19.369-.489 4.557-2.602 8.384-5.823 10.524Zm16.107 2.219c-12.992 6.88-12.506 42.993-8.745 53.555 6.046 14.161 19.684 7.876 32.146 1.297l.022-.011c.971-.521 1.939-1.03 2.897-1.533 8.2-4.304 15.673-8.227 17.735-16.425.675-3.062.289-6.333-1.159-9.754-4.856-9.858-29.86-33.655-42.896-27.129Zm-17.944 11.206c2.788 4.413 3.933 9.665 3.14 14.436-.618 3.756-2.427 6.936-5.069 8.953-6.785 5.148-16.172 1.107-20.591-6.228-2.52-4.029-3.535-8.539-2.841-12.738.63-3.791 2.602-7.142 5.57-9.383 6.514-4.981 14.842-2.883 19.791 4.96Z" fill="#04A427"/></svg>