<svg aria-hidden="true" style="width:0;height:0;position:absolute;overflow:hidden" xmlns="http://www.w3.org/2000/svg"><defs><symbol id="icon-burger" viewBox="0 0 74 32"><path d="M3.2 12.8h67.2a3.2 3.2 0 0 1 0 6.4H3.2a3.2 3.2 0 0 1 0-6.4zM28.8 0h41.6a3.2 3.2 0 0 1 0 6.4H28.8a3.2 3.2 0 0 1 0-6.4zM3.2 25.594h41.6a3.2 3.2 0 0 1 0 6.4H3.2a3.2 3.2 0 0 1 0-6.4z"/></symbol><symbol id="icon-call" viewBox="0 0 32 32"><path fill="#fff" style="fill:var(--color2,#fff)" d="M16.233.444c8.481 0 15.357 6.875 15.357 15.357 0 8.481-6.875 15.357-15.357 15.357-8.481 0-15.357-6.875-15.357-15.357C.876 7.32 7.751.444 16.233.444z"/><path stroke="#095119" style="stroke:var(--color3,#095119)" stroke-width=".83" d="M16.233.444c8.481 0 15.357 6.875 15.357 15.357 0 8.481-6.875 15.357-15.357 15.357-8.481 0-15.357-6.875-15.357-15.357C.876 7.32 7.751.444 16.233.444z"/><path fill="#095119" style="fill:var(--color3,#095119);stroke:var(--color3,#095119)" stroke="#095119" stroke-width=".332" d="M27.671 10.599a.512.512 0 0 0-.303-.22 1.398 1.398 0 0 0-.468-.043c-.649.03-1.615.343-2.026.638a.705.705 0 0 0-.259.358c-.039.108-.045.228-.166.315-.325.236-.632.383-.933.655-.692.627-1.091 1.252-1.242 2.064-.197 1.06.131 1.937.274 2.985.058.428-.351.75-.813.727-.307-.015-.429-.232-.471-.477a2.012 2.012 0 0 1 .069-.85c.236-.773.534-1.546.693-2.324.166-.81.183-1.626-.152-2.454-.711-1.758-2.767-2.295-4.466-2.02-.635.103-1.556.599-2.014 1.081-1.642 1.725-.964 3.846.163 5.618.315.495.609 1.079.918 1.578.245.396.366.952.303 1.47-.061.498-.295.965-.774 1.201-.963.475-2.217-.079-2.282-1.206-.057-.984.305-1.997.553-3.016.264-1.083.404-2.172-.114-3.24a4.566 4.566 0 0 0-.697-1.057c-.306-.345-.661-.513-1.093-.688-.664-.268-1.433-.318-2.129-.204-.848.139-1.549.595-2.1 1.296-.358.456-.529 1.064-.553 1.704-.036.935.241 1.935.657 2.59.284.446.682.915 1.045 1.393.344.453.657.912.789 1.369.134.466-.234.837-.579 1.047a1.365 1.365 0 0 1-.865.175c-.274-.038-.526-.171-.644-.439-.236-.536-.286-1.124-.389-1.7-.111-.627-.282-1.239-.754-1.773-.415-.471-1.047-.751-1.664-.816-.047-.005-.468-.051-.551-.057-.194-.014-.228.188-.228.196 0 .025.003.142.134.191.032.012.193.048.211.054.197.054.391.121.579.199.461.192.85.478 1.085.929.258.494.313 1.049.368 1.607.059.606.116 1.215.373 1.769.293.635.784 1.066 1.518 1.136.297.029.715.024 1.005-.038.333-.072.705-.229.987-.43.766-.545.917-1.503.791-2.375-.113-.78-.536-1.348-.933-2.002-.399-.656-.784-1.397-.975-2.143-.16-.626-.041-1.156.289-1.491.331-.337.865-.47 1.504-.332.645.139.885.557.967 1.056.061.372.041.786.024 1.179-.053 1.214-.518 2.584-.428 3.798.07.942.485 2.051 1.178 2.836.475.538 1.079.925 1.789 1.018.562.074 1.177-.06 1.699-.268 1.983-.789 2.9-3.409 2.186-5.354-.258-.702-.764-1.337-1.163-1.964-.317-.497-.586-1.109-.786-1.664-.193-.536 0-.991.358-1.305.38-.333.938-.516 1.444-.484.488.031.793.35.965.752a2.6 2.6 0 0 1 .154 1.383c-.128.777-.5 1.791-.602 2.742-.111 1.029.085 1.984 1.115 2.555.268.148.564.256.863.322.4.088.834.046 1.221-.083.305-.101.585-.249.841-.442.256-.192.459-.445.59-.738.29-.65.359-1.3.224-1.992-.098-.505-.272-.979-.351-1.45-.072-.429-.062-.858.192-1.31.248-.444.579-.616.956-.742.283-.094.59-.164.911-.281.463-.169.898-.487 1.308-.754.294-.192.565-.372.733-.573a.796.796 0 0 0 .21-.548.855.855 0 0 0-.079-.328.992.992 0 0 1 .181-.074c.154-.046.303-.078.44-.081a1.494 1.494 0 0 0-.422-.137l.008-.016c.077-.157.118-.317.11-.516a1.003 1.003 0 0 1-.218.317c-.078.079-.168.129-.265.185l-.022.012zm-.226.37a.564.564 0 0 1 .097.28c.004.138-.077.249-.19.358-.149.144-.356.276-.574.418-.385.252-.791.555-1.227.713-.318.116-.622.185-.901.278-.467.156-.87.376-1.177.925-.304.543-.323 1.056-.237 1.571.08.474.254.951.352 1.459.119.61.058 1.182-.197 1.754-.103.231-.263.43-.465.582a2.505 2.505 0 0 1-.727.382c-.32.106-.679.145-1.009.072a2.843 2.843 0 0 1-.757-.282c-.868-.481-1.006-1.297-.912-2.165.102-.944.472-1.949.599-2.72.079-.484.035-1.1-.181-1.604-.231-.538-.652-.95-1.306-.992-1.243-.079-2.705.93-2.202 2.322.21.581.492 1.221.825 1.743.385.602.877 1.211 1.125 1.887.646 1.758-.167 4.134-1.96 4.847-.462.183-1.003.308-1.5.243-.613-.081-1.132-.422-1.543-.887-.635-.72-1.014-1.738-1.079-2.602-.09-1.199.376-2.551.428-3.751.018-.42.036-.863-.029-1.261-.108-.655-.428-1.197-1.276-1.38-.797-.172-1.458.021-1.872.442-.415.422-.592 1.082-.391 1.869.2.784.601 1.563 1.021 2.251.369.607.774 1.128.879 1.852.105.728.012 1.539-.628 1.994a2.41 2.41 0 0 1-.84.365 3.267 3.267 0 0 1-.884.031c-.581-.056-.962-.404-1.194-.907-.237-.513-.283-1.079-.338-1.641-.052-.533-.112-1.062-.315-1.547.189.357.279.739.348 1.127.108.607.167 1.226.415 1.791.177.401.544.616.954.672a1.77 1.77 0 0 0 1.126-.229c.483-.295.942-.845.754-1.497-.144-.498-.479-1.004-.854-1.498-.356-.469-.748-.929-1.026-1.367-.38-.597-.628-1.509-.595-2.362.021-.552.159-1.079.468-1.473.487-.618 1.103-1.026 1.851-1.149.627-.102 1.319-.061 1.916.181.372.15.681.287.945.584.258.29.467.617.636.966.476.98.328 1.978.086 2.972-.258 1.058-.622 2.111-.564 3.133.082 1.416 1.646 2.137 2.855 1.54.606-.299.916-.88.993-1.51.075-.609-.071-1.263-.359-1.728-.311-.501-.605-1.086-.921-1.583-1.029-1.618-1.71-3.554-.21-5.13.407-.428 1.225-.871 1.79-.963 1.528-.247 3.395.196 4.034 1.776.303.75.282 1.49.131 2.224-.157.766-.451 1.527-.684 2.287-.074.242-.143.665-.08 1.034.073.426.31.781.844.807.72.035 1.318-.511 1.227-1.179-.137-1.004-.466-1.844-.277-2.859.135-.726.499-1.28 1.118-1.841.29-.262.587-.401.9-.628a.706.706 0 0 0 .257-.358c.039-.108.045-.227.166-.314.367-.264 1.232-.536 1.812-.564.112-.005.212-.002.294.016.044.01.082.017.103.042.044.053.082.103.113.152l.009.016.007.01z"/></symbol><symbol id="icon-logo" viewBox="0 0 35 32"><path d="M34.592 6.684a.675.675 0 0 0 .03-.702.716.716 0 0 0-.626-.364h-4.31a4.864 4.864 0 0 0-1.874.383c-.045.02-.086.035-.126.055a4.281 4.281 0 0 0-1.713 1.439l-.758 1.121c-.096-.025-.177-.045-.192-.05-.096-.025-.192-.045-.288-.065l-.066-.015a33.337 33.337 0 0 0-2.471-7.177 1.75 1.75 0 0 0-1.243-.961 18.48 18.48 0 0 0-3.279-.349h-.495c-.121 0-.237 0-.359.005-.116 0-.232.005-.354.01-.111.005-.227.01-.344.02-.111.01-.222.015-.333.025s-.217.015-.328.03c-.106.01-.212.025-.318.035-.101.01-.207.025-.308.04s-.197.025-.298.045l-.288.045c-.091.015-.187.03-.278.05a.721.721 0 0 0-.101.02l-.152.03a1.683 1.683 0 0 0-1.101.857l-.03.065c-.025.055-.051.105-.076.159l-.076.164c-.025.055-.056.11-.081.164-.025.06-.056.115-.081.174s-.056.12-.081.174c-.025.06-.056.12-.081.179s-.056.124-.081.184c-.03.06-.056.124-.081.189s-.056.13-.081.194c-.03.065-.056.13-.081.199-.03.07-.056.134-.086.199-.025.07-.056.139-.081.209s-.056.139-.081.209c-.025.07-.056.139-.081.214-.03.07-.056.144-.081.214-.03.075-.056.149-.081.224-.03.075-.056.149-.081.224s-.056.154-.081.229c-.025.075-.056.154-.081.234s-.056.159-.081.239c-.025.08-.056.159-.081.239l-.076.244-.076.249-.076.254-.076.254c-.025.09-.051.174-.076.259l-.076.264c-.025.09-.051.179-.071.269-.025.09-.051.179-.071.269-.025.09-.045.179-.071.274s-.045.184-.066.279c-.02.095-.045.189-.066.279a.523.523 0 0 1-.02.085c-.152.035-.384.09-.586.134l-.763-1.111a4.245 4.245 0 0 0-1.834-1.489 4.812 4.812 0 0 0-1.874-.383H.705c-.263 0-.505.139-.626.364s-.111.493.025.702l2.738 4.198c-.03.015-.061.03-.096.045a1.653 1.653 0 0 0-.935 1.18 18.05 18.05 0 0 0-.273 5.328c.02.209.045.413.071.623.005.055.015.11.02.164v.005c.02.139.04.279.066.418.01.05.015.105.025.154 0 .005 0 .01.005.02 0 .015.005.03.005.04.056.204.152.478.338.767.253.393.551.647.753.787l.096.045.288.135.071.035c.116.055.237.105.359.159s.248.105.374.159c.131.055.263.11.389.159a73.865 73.865 0 0 0 .828.323c.147.055.293.11.44.159.152.055.303.11.455.159.157.055.313.11.47.159.162.055.323.105.485.154.167.055.333.105.5.154.172.05.344.1.52.149s.354.1.531.144c.182.05.364.095.546.139l.561.134c.096.02.192.04.283.065a33.485 33.485 0 0 0 2.46 7.162c.243.508.712.872 1.268.981.93.184 2.026.324 3.259.344a17.911 17.911 0 0 0 1.43-.03c.222-.015.445-.03.667-.05.212-.02.419-.045.632-.07.197-.025.399-.055.596-.085.187-.03.369-.06.556-.1l.157-.03.066-.015c.141-.035.394-.12.611-.319a1.39 1.39 0 0 0 .207-.239c.035-.07.071-.139.106-.214.01-.025.025-.05.035-.075v-.005c.04-.08.076-.159.116-.239l.106-.224c.015-.035.035-.07.051-.11.056-.115.106-.234.162-.349.056-.125.111-.244.162-.369l.167-.384.167-.398.167-.418.167-.433c.056-.149.111-.299.162-.448.056-.154.111-.309.162-.463.056-.159.106-.319.162-.478.056-.164.106-.329.157-.498l.152-.508c.051-.174.101-.349.147-.523.051-.179.096-.359.141-.538l.136-.553c.025-.1.045-.199.071-.299a34.376 34.376 0 0 0 7.437-2.515c.414-.194.707-.568.798-1.011.197-.951.359-2.092.379-3.382l.005-.124v-.364c0-.12-.005-.234-.005-.354-.005-.115-.005-.229-.015-.344a7.702 7.702 0 0 0-.02-.339c-.005-.11-.015-.219-.025-.329l-.03-.324c-.01-.105-.025-.209-.035-.314-.01-.1-.025-.204-.04-.304l-.045-.294-.045-.284a3.801 3.801 0 0 0-.051-.274c-.005-.04-.015-.08-.02-.12l-.03-.149-.03-.149v-.005a1.445 1.445 0 0 0-.278-.508 1.738 1.738 0 0 0-.328-.294h-.005c-.045-.025-.091-.045-.136-.065l-.157-.075a.72.72 0 0 0-.091-.04l2.738-4.238zM21.638 25.126l-.025.05c-.04.09-.091.174-.141.264h-.005c-.728 1.111-1.935 1.893-3.259 2.137-.051.01-.101.015-.152.025l-.116.015c-.015 0-.03.005-.045.005-.106.01-.212.02-.318.025-.056.005-.111.005-.167.005h-.238c-.025 0-.056 0-.081-.005-.045-.005-.091-.005-.141-.01-1.602-.154-3.036-1.295-3.915-2.654-.005-.005-.005-.005-.005-.01l-.01-.025L.98 6.471h4.017a4.132 4.132 0 0 1 1.536.314l.106.045a3.419 3.419 0 0 1 1.359 1.141l1.591 2.321c.086-.249.202-.528.374-.812.056-.085.136-.209.147-.214a4.23 4.23 0 0 1 .627-.722 7.831 7.831 0 0 1 3.072-1.912c1.127-.369 4.077-1.056 7.099.603.94.518 1.718 1.315 2.268 2.117.005.005.01.015.02.025l.005.005c.232.319.48.712.697 1.175.04.085.076.174.116.264.106.254.187.493.258.722l2.415-3.566a3.397 3.397 0 0 1 1.359-1.145l.106-.045a4.153 4.153 0 0 1 1.536-.314h4.022L21.64 25.129z"/><path d="M21.264 21.614a2.992 2.992 0 0 1-.571 1.116c-.47.578-1.142.956-1.88 1.111-1.162.244-3.375.473-5.537-.667-.551-.289-1.698-.911-2.526-2.236-1.435-2.286-.753-4.771-.606-5.264.374.857 1.177 2.326 2.804 3.407.515.339 2.602 1.34 4.542 1.046.399-.06 1.207-.359 1.369-1.131.121-.568-.207-1.16-.333-1.325.243.035 1.354.209 2.142 1.2.116.149.985 1.28.596 2.744z"/><path d="M15.772 11.319c-.076-.115-.344-.075-.611.09-.263.159-.419.388-.344.503s.344.075.606-.085c.268-.169.424-.393.349-.508zm8.7 1.524c-.061-.105-.131-.209-.202-.319-.02-.025-.04-.055-.061-.085a.63.63 0 0 0-.076-.105l-.035-.05c-.056-.075-.111-.154-.177-.229a3.393 3.393 0 0 0-.147-.179 4.492 4.492 0 0 0-.243-.274v-.01c-.03-.11-.066-.219-.101-.334-.005-.01-.005-.025-.01-.035-.005-.005-.005-.015-.005-.02a2.83 2.83 0 0 0-.081-.219l-.015-.04v-.005c-.035-.095-.076-.184-.106-.274 0 0 0-.005-.005-.01a5.192 5.192 0 0 0-.167-.334c-.465-.867-1.283-1.912-2.43-2.54-2.804-1.539-5.547-.901-6.593-.558a7.114 7.114 0 0 0-1.93.991c-.051.04-.106.075-.157.115l-.045.03c-.232.174-.52.428-.803.762-.015.02-.03.035-.045.055-.02.02-.035.045-.056.07a.152.152 0 0 0-.025.035s0 .005-.005.005c-.01.01-.015.02-.025.03-.03.04-.061.085-.096.13-.01.015-.02.025-.025.04-.015.02-.025.04-.04.06-.005.005-.01.015-.015.02-.01.015-.02.025-.03.04l-.045.075c-.045.075-.091.149-.141.234 0 .005-.005.005-.005.01s-.005.005-.005.01l-.015.03-.015.03a5.503 5.503 0 0 0-.404 1.006 4.607 4.607 0 0 0-.137.653v.02c-.035.329-.04.662 0 1.001.081.752.344 1.365.606 1.818.177-.13.389-.194.935-.483.152-.08.531-.254.692-.339a.685.685 0 0 1 .232-.767c.248-.199.51-.428.783-.692.273-.269.51-.538.712-.792A3.134 3.134 0 0 1 15 10.543c.005 0 .005-.005.01-.005a3.655 3.655 0 0 1 1.081-.334c.657-.125 3.34-.578 5.997 1.016 2.016 1.21 2.93 2.938 3.254 3.636a8.096 8.096 0 0 0-.869-2.012zm.121 4.482a5.64 5.64 0 0 0-1.546-2.874c-1.591-1.594-3.617-1.708-4.102-1.728a9.106 9.106 0 0 1 2.764-.104 5.76 5.76 0 0 0-3.077-.209 4.957 4.957 0 0 0-1.718.742 6.99 6.99 0 0 1-2.253.996s-1.415.339-2.157-.11c-.035-.02-.071-.025-.141-.105-.293.164-.571.339-.874.513-.227.13-.495.274-.723.379.136.194.258.344.339.438 1.293 1.554 3.132 1.868 4.037 2.022a8.27 8.27 0 0 0 3.218-.09c1.566.085 2.925 1.021 3.481 2.381.667 1.654-.177 3.143-.288 3.332.379-.149 2.016-.832 2.784-2.59.576-1.3.359-2.485.258-2.993zm-13.692-2.908c-.116.03-.237.075-.339.08.066.115.136.219.197.309.051-.06.136-.144.202-.204s.47-.364.525-.398a4.67 4.67 0 0 1-.586.214zM10.532 9.912l-.045.085c.01-.02.02-.04.035-.065 0-.01.005-.015.01-.02zM10.831 9.441c-.035.055-.076.105-.111.159.035-.055.076-.11.111-.159zM11.033 9.174c-.035.045-.071.095-.111.139.04-.05.076-.1.111-.139z"/></symbol><symbol id="icon-logoTitle" viewBox="0 0 85 22"><path d="M9.41 10.008c-.244 1.33-1.595 2.48-2.968 2.48H2.65c-.148 0-.17-.015-.074-.147L9.07 1.522c.074-.073-.015-.241-.133-.241h-6.85c-.957 0-1.142-.073-1.068-.52C1.033.704.81.667.795.726l-.75 3.218c-.014.074.186.11.223.059 1.054-2.165 2.42-2.407 6.323-2.407.17 0 .17.015.096.147L.097 12.597c-.074.095 0 .241.097.241 2.798 0 6.189 0 8.986.037.112 0 .171-.11.171-.183l.267-2.684c0-.081-.185-.081-.207 0ZM17.856 1.068c-3.042 0-6.604 1.975-6.604 5.991 0 3.255 2.345 5.991 5.944 5.991 3.562 0 6.59-2.684 6.59-6.122 0-2.97-2.234-5.86-5.93-5.86Zm-.037 11.529c-2.456 0-4.26-2.59-4.26-6.218 0-3 1.255-4.806 3.548-4.806 2.723 0 4.37 2.516 4.37 5.903 0 3.285-1.573 5.12-3.658 5.12ZM32.23 1.068c-3.043 0-6.605 1.975-6.605 5.991 0 3.255 2.345 5.991 5.951 5.991 3.562 0 6.59-2.684 6.59-6.122-.008-2.97-2.241-5.86-5.937-5.86Zm-.038 11.529c-2.456 0-4.26-2.59-4.26-6.218 0-3 1.255-4.806 3.548-4.806 2.723 0 4.37 2.516 4.37 5.903 0 3.285-1.573 5.12-3.658 5.12ZM55.856 1.273c-.638 0-.98.059-1.67.059-.942 0-1.447-.059-2.1-.059-.074 0-.074.22 0 .22.935 0 1.35.98.846 2.311l-2.419 6.379L48.265 5.5l.69-1.828c.564-1.478 1.239-2.18 2.085-2.18.06 0 .06-.22 0-.22-.564 0-.846.059-1.462.059-1.128 0-.846-.059-1.217-.059-.074 0-.074.22 0 .22.623 0 .623.666.06 2.128l-.468 1.244-.824-1.719c-.653-1.368-.675-1.646 0-1.646.074 0 .074-.22 0-.22-.415 0-.86.06-2.27.06-.787 0-.787-.06-1.166-.06-.074 0-.074.22 0 .22.453 0 .81.498 1.203 1.317l2.085 4.345-1.18 3.05-3.376-7.066c-.653-1.368-.601-1.646.43-1.646.074 0 .074-.22 0-.22-.505 0-1.054.06-2.723.06-.935 0-.935-.06-1.373-.06-.074 0-.074.22 0 .22.712 0 .898.22 1.425 1.317l4.786 10.007c.037.095.378.095.415 0l1.893-5.011 2.404 5.01c.037.096.378.096.415 0l3.473-9.136c.527-1.353 1.388-2.18 2.308-2.18.03-.014.03-.234-.022-.234ZM61.334 12.611c-1.166 0-1.336-.205-1.336-1.28V2.8c0-1.053.185-1.316 1.336-1.316.074 0 .074-.22 0-.22-.639 0-1.448.06-2.405.06-.898 0-1.744-.06-2.404-.06-.06 0-.06.22 0 .22 1.143 0 1.373.22 1.373 1.28v8.566c0 1.075-.223 1.28-1.373 1.28-.06 0-.06.22 0 .22.653 0 1.499-.037 2.404-.037.957 0 1.744.036 2.405.036.074 0 .074-.219 0-.219ZM71.818 9.466c-.467 1.741-2.01 2.846-3.955 2.846h-.638c-.92 0-1.069-.147-1.069-1.054v-8.47c0-1.054.186-1.295 1.336-1.295.074 0 .074-.22 0-.22-.638 0-1.447.059-2.382.059-.898 0-1.78-.059-2.382-.059-.06 0-.06.22 0 .22 1.143 0 1.35.22 1.35 1.28v8.566c0 1.075-.207 1.28-1.35 1.28-.06 0-.06.22 0 .22h8.853c.208 0 .282-.074.282-.279 0-.965.096-2.238.17-3.05-.007-.08-.192-.117-.215-.044ZM78.238 1.236c-.772 0-1.974.095-2.887.095-.898 0-1.707-.058-2.367-.058-.074 0-.074.22 0 .22 1.128 0 1.336.219 1.336 1.28v8.565c0 1.075-.223 1.28-1.373 1.28-.06 0-.06.22 0 .22.653 0 1.499-.037 2.404-.037.995 0 2.345.11 3.154.11 3.361 0 6.189-2.348 6.189-6.05 0-3.182-2.568-5.625-6.456-5.625Zm.074 11.25c-1.573 0-1.915-.424-1.915-1.353V2.81c0-1.002.564-1.163 2.026-1.163 2.42 0 3.963 2.48 3.963 5.625 0 3.38-1.707 5.216-4.074 5.216ZM79.954 17.934h-.495l.17.37-1.322 2.69h.486l.077-.142a.337.337 0 0 1 .094-.101.641.641 0 0 1 .188-.093c.077-.034.17-.05.273-.076.11-.016.23-.025.367-.025h.93l.196.438h.494l-1.458-3.061Zm0 2.178c-.214 0-.384.016-.512.05a.837.837 0 0 0-.273.118l.674-1.438.665 1.27h-.554Zm-3.293.437h-.051c-.034 0-.069 0-.111-.009-.043-.008-.077-.025-.12-.042a.675.675 0 0 1-.128-.1 1.176 1.176 0 0 1-.145-.177l-.546-.807L76.567 18h-.537l-.777 1.127a.695.695 0 0 1-.281.092 1.767 1.767 0 0 1-.29.025h-.205v-1.244h-.444v3.01h.444v-1.32h.256c.077 0 .145-.008.222-.017.076-.008.145-.033.222-.059l.588.925c.068.11.137.202.205.261.068.059.128.11.188.143a.54.54 0 0 0 .187.059c.068.008.128.017.205.017h.162v-.446c-.017-.025-.034-.025-.051-.025Zm-5.195-2.565v3.01h.435v-3.01h-.435Zm-2.577 0v1.169a.616.616 0 0 1-.213.059c-.077.008-.145.017-.205.017-.068 0-.153-.009-.247-.017a3.81 3.81 0 0 1-.29-.034c-.094-.008-.188-.017-.273-.034-.085-.008-.145-.016-.188-.016-.068 0-.128.008-.196.017-.068.008-.128.033-.188.058v-1.236h-.443v3.01h.443V19.65a.538.538 0 0 1 .188-.059c.068-.017.128-.017.196-.017.043 0 .111.009.188.017.085.009.17.017.273.034.094.008.196.017.29.034.094.008.18.016.247.016.06 0 .128-.008.205-.017a.727.727 0 0 0 .205-.058v1.404h.443v-3.01h-.435v-.009Zm-4.802 0v3.01h.435v-3.01h-.435Zm-4.428 0 .188.446h.35c-.018.151-.035.303-.06.462-.026.152-.051.303-.086.454a2.288 2.288 0 0 1-.136.43c-.06.134-.12.268-.205.403-.06.092-.11.16-.162.21-.051.05-.094.093-.136.118a.46.46 0 0 1-.12.05c-.034.009-.077.009-.11.009h-.086v.445h.085c.043 0 .086 0 .145-.008.06-.009.12-.017.18-.034a.921.921 0 0 0 .187-.084.61.61 0 0 0 .18-.151c.119-.143.23-.311.315-.488.085-.185.154-.37.213-.572.06-.201.103-.403.145-.614.034-.21.06-.412.086-.605h.878v2.565h.444v-3.01h-2.295v-.026Zm-2.235 2.565h-.051c-.034 0-.077 0-.111-.009a1.043 1.043 0 0 1-.12-.042.672.672 0 0 1-.127-.1 1.176 1.176 0 0 1-.145-.177l-.546-.807L57.33 18h-.537l-.776 1.127a.738.738 0 0 1-.282.092 1.768 1.768 0 0 1-.29.025h-.205v-1.244h-.443v3.01h.443v-1.32h.256c.077 0 .145-.008.222-.017.077-.008.145-.033.222-.059l.588.925c.069.11.137.202.205.261.068.067.128.11.188.143a.54.54 0 0 0 .187.059c.069.008.128.017.205.017h.162v-.446c-.025-.025-.042-.025-.05-.025Zm-8.24-2.615h-.495l.17.37-1.322 2.69h.486l.077-.142a.338.338 0 0 1 .094-.101.641.641 0 0 1 .188-.093c.076-.034.17-.05.273-.076.11-.016.23-.025.366-.025h.93l.196.438h.504l-1.468-3.061Zm0 2.178c-.214 0-.384.016-.512.05a.835.835 0 0 0-.273.118l.673-1.438.666 1.27h-.555Zm-3.856-2.128v1.169a.626.626 0 0 1-.205.059c-.077.008-.145.017-.205.017-.068 0-.154-.009-.247-.017a3.81 3.81 0 0 1-.29-.034c-.094-.008-.188-.017-.273-.034-.086-.008-.145-.016-.188-.016-.068 0-.128.008-.196.017-.068.008-.128.033-.188.058v-1.236h-.444v3.01h.444V19.65a.538.538 0 0 1 .188-.059c.068-.017.128-.017.196-.017.043 0 .11.009.188.017.085.009.17.017.273.034.093.008.196.017.29.034.093.008.179.016.247.016.06 0 .128-.008.205-.017a.727.727 0 0 0 .205-.058v1.404h.443v-3.01h-.444v-.009Zm-4.172.496a.75.75 0 0 0-.46-.437 1.018 1.018 0 0 0-.367-.059h-1.57v3.01h.444v-1.16a.917.917 0 0 1 .29-.1c.102-.018.196-.026.298-.026h.538c.136 0 .255-.017.366-.059.111-.042.205-.1.282-.177a.784.784 0 0 0 .179-.277.976.976 0 0 0 .06-.362 1.18 1.18 0 0 0-.06-.353Zm-.836.79h-.537c-.103 0-.197.01-.299.018a.945.945 0 0 0-.282.1v-.967h1.127c.145 0 .255.034.332.093.077.059.111.168.111.32 0 .294-.153.437-.452.437Zm-4.837-1.336h-.495l.17.37-1.321 2.69h.486l.077-.142a.338.338 0 0 1 .093-.101.641.641 0 0 1 .188-.093c.077-.034.17-.05.273-.076.111-.016.23-.025.367-.025h.93l.196.438h.503l-1.467-3.061Zm0 2.178c-.213 0-.384.016-.503.05a.835.835 0 0 0-.273.118l.674-1.438.665 1.27h-.563Zm-3.856-2.128v1.169a.626.626 0 0 1-.204.059c-.077.008-.145.017-.205.017-.069 0-.154-.009-.248-.017-.093-.009-.187-.017-.29-.034-.093-.008-.187-.017-.273-.034-.085-.008-.145-.016-.187-.016-.069 0-.128.008-.197.017-.068.008-.128.033-.187.058l.008-1.236h-.443v3.01h.443V19.65a.538.538 0 0 1 .188-.059c.068-.017.128-.017.196-.017.043 0 .111.009.188.017.085.009.17.017.273.034.094.008.196.017.29.034.094.008.179.016.247.016.06 0 .128-.008.205-.017a.727.727 0 0 0 .205-.058v1.404h.443v-3.01h-.452v-.009Zm-4.803 0-1.791 2.321v-2.32h-.444v3.01h.444l1.791-2.321v2.32h.444v-3.01h-.444Zm-4.18.496a.75.75 0 0 0-.46-.437 1.24 1.24 0 0 0-.367-.059h-1.57v3.01h.444v-1.16a.917.917 0 0 1 .29-.1c.102-.018.196-.026.298-.026h.538c.136 0 .256-.017.367-.059.11-.042.204-.1.281-.177a.784.784 0 0 0 .18-.277.978.978 0 0 0 .068-.362 1.182 1.182 0 0 0-.069-.353Zm-.836.79h-.537c-.102 0-.196.01-.299.018a.945.945 0 0 0-.281.1v-.967h1.117c.145 0 .256.034.333.093.077.059.111.168.111.32.009.294-.145.437-.444.437Zm-5.391 1.279v-.765a.919.919 0 0 1 .281-.093 1.69 1.69 0 0 1 .29-.025h.666v-.446h-.666c-.102 0-.196.009-.298.017a.636.636 0 0 0-.282.1v-.916h1.707v-.445h-2.15v3.01h2.329v-.446h-1.877v.009Zm-4.846-2.565v.446h1.093v2.564h.434V18.43h1.075v-.446h-2.601ZM8.075 20.55v-.765a.92.92 0 0 1 .281-.093c.094-.017.197-.025.29-.025h.666v-.446h-.657c-.102 0-.196.009-.299.017a.636.636 0 0 0-.281.1v-.916H9.78v-.445H7.63v3.01h2.33v-.446H8.073v.009Zm-2.448-.665a1.057 1.057 0 0 0-.094-.218.647.647 0 0 0-.137-.16.803.803 0 0 0-.153-.1.485.485 0 0 0 .204-.245.932.932 0 0 0 .069-.353.9.9 0 0 0-.069-.353.819.819 0 0 0-.187-.26.695.695 0 0 0-.29-.16 1.23 1.23 0 0 0-.359-.05H3.066v3.01H4.62c.128 0 .256-.017.375-.043.128-.033.24-.075.342-.143a.733.733 0 0 0 .333-.63c0-.11-.018-.21-.043-.294ZM3.519 18.43h1.1c.136 0 .239.025.324.084.085.059.128.16.128.303 0 .142-.043.243-.12.31-.076.068-.187.102-.332.102h-.52c-.103 0-.197.008-.299.016a.948.948 0 0 0-.281.101v-.916Zm1.646 1.875a.348.348 0 0 1-.137.134.571.571 0 0 1-.179.076.772.772 0 0 1-.187.025H3.51v-.756a.945.945 0 0 1 .282-.101c.102-.017.196-.026.29-.026h.52c.077 0 .145.009.222.017a.67.67 0 0 1 .196.068c.06.033.102.075.136.134a.416.416 0 0 1 .052.219.27.27 0 0 1-.043.21Z" fill="fff"/></symbol><symbol id="icon-chekbox" viewBox="0 0 50 32"><path fill="currentColor" d="M47.954 4.706a3.084 3.084 0 0 1 0 4.583L27.897 27.34a3.084 3.084 0 0 1-4.125 0L3.715 9.289a3.082 3.082 0 0 1 0-4.583l1.557-1.402a3.084 3.084 0 0 1 4.125 0l14.374 12.937a3.084 3.084 0 0 0 4.125 0L42.27 3.304a3.084 3.084 0 0 1 4.125 0l1.557 1.402z"/></symbol><symbol id="icon-phone" viewBox="0 0 30 32"><path d="M5.94 14.019a23.35 23.35 0 0 0 10.153 10.154l3.39-3.39a1.532 1.532 0 0 1 1.572-.37c1.726.57 3.59.878 5.5.878.847 0 1.541.693 1.541 1.541v5.377c0 .847-.693 1.541-1.541 1.541C12.087 29.75.362 18.025.362 3.557c0-.847.693-1.541 1.541-1.541h5.393c.847 0 1.541.693 1.541 1.541a17.5 17.5 0 0 0 .878 5.5 1.55 1.55 0 0 1-.385 1.572l-3.39 3.39z"/></symbol><symbol id="icon-location" viewBox="0 0 26 32"><path stroke="currentColor" stroke-linejoin="round" stroke-linecap="round" stroke-width="2.072" d="M24.4 13.191c0 8.333-11.437 16.11-11.437 16.11S1.526 21.524 1.526 13.191c0-3.094 1.205-6.061 3.35-8.249s5.054-3.417 8.087-3.417c3.033 0 5.943 1.229 8.087 3.417s3.35 5.155 3.35 8.249z"/><path stroke="currentColor" stroke-linejoin="round" stroke-linecap="round" stroke-width="2.072" d="M12.961 15.964c1.504 0 2.723-1.244 2.723-2.778s-1.219-2.778-2.723-2.778c-1.504 0-2.723 1.244-2.723 2.778s1.219 2.778 2.723 2.778z"/></symbol><symbol id="icon-main-title-mobile" viewBox="0 0 45 32"><path opacity=".375" d="M36.732 17.617c-.899 0-2.299.111-3.362.111-1.046 0-1.988-.068-2.757-.068-.087 0-.087.256 0 .256 1.314 0 1.556.256 1.556 1.491v9.978c0 1.253-.259 1.491-1.599 1.491-.069 0-.069.256 0 .256.761 0 1.746-.043 2.801-.043 1.158 0 2.731.128 3.674.128 3.916 0 7.209-2.735 7.209-7.046 0-3.706-2.991-6.552-7.52-6.552zm.087 13.104c-1.833 0-2.23-.494-2.23-1.576v-9.696c0-1.167.657-1.355 2.36-1.355 2.818 0 4.616 2.889 4.616 6.552 0 3.937-1.988 6.075-4.745 6.075z"/><path opacity=".563" d="M33.413 27.217c-.545 2.028-2.342 3.314-4.607 3.314h-.743c-1.072 0-1.245-.17-1.245-1.227v-9.867c0-1.227.216-1.508 1.556-1.508.086 0 .086-.256 0-.256-.743 0-1.686.068-2.775.068-1.046 0-2.074-.068-2.775-.068-.069 0-.069.256 0 .256 1.331 0 1.573.256 1.573 1.491v9.978c0 1.253-.242 1.491-1.573 1.491-.069 0-.069.256 0 .256h10.312c.242 0 .328-.085.328-.324 0-1.125.112-2.607.199-3.553-.009-.094-.225-.136-.251-.051zM21.432 30.866c-1.357 0-1.556-.238-1.556-1.491V19.44c0-1.227.216-1.534 1.556-1.534.086 0 .086-.256 0-.256-.743 0-1.686.068-2.801.068-1.046 0-2.031-.068-2.801-.068-.069 0-.069.256 0 .256 1.331 0 1.599.256 1.599 1.491v9.978c0 1.253-.259 1.491-1.599 1.491-.069 0-.069.256 0 .256.761 0 1.746-.043 2.801-.043 1.115 0 2.031.043 2.801.043.086 0 .086-.256 0-.256z"/><path opacity=".338" d="M19.98 17.617c-.743 0-1.141.068-1.945.068-1.098 0-1.686-.068-2.446-.068-.086 0-.086.256 0 .256 1.089 0 1.573 1.142.985 2.692l-2.818 7.43-2.619-5.453.804-2.13c.657-1.721 1.444-2.539 2.429-2.539.069 0 .069-.256 0-.256-.657 0-.985.068-1.703.068-1.314 0-.985-.068-1.418-.068-.086 0-.086.256 0 .256.726 0 .726.775.069 2.479l-.545 1.448-.959-2.002c-.761-1.593-.787-1.917 0-1.917.086 0 .086-.256 0-.256-.484 0-1.003.068-2.645.068-.916 0-.916-.068-1.357-.068-.086 0-.086.256 0 .256.527 0 .942.579 1.4 1.534l2.429 5.061-1.374 3.553-3.933-8.231c-.761-1.593-.7-1.917.501-1.917.086 0 .086-.256 0-.256-.588 0-1.227.068-3.172.068-1.089 0-1.089-.068-1.599-.068-.086 0-.086.256 0 .256.83 0 1.046.256 1.66 1.534l5.575 11.656c.043.111.441.111.484 0l2.204-5.837 2.801 5.837c.043.111.441.111.484 0l4.045-10.642c.614-1.576 1.616-2.539 2.688-2.539.035-.017.035-.273-.026-.273zM35.586.581c-4.456 0-9.673 2.893-9.673 8.774 0 4.768 3.434 8.774 8.716 8.774 5.217 0 9.651-3.932 9.651-8.967-.011-4.35-3.282-8.581-8.695-8.581zm-.055 16.885c-3.597 0-6.238-3.792-6.238-9.106 0-4.393 1.837-7.039 5.195-7.039 3.989 0 6.401 3.685 6.401 8.646 0 4.81-2.304 7.499-5.358 7.499z"/><path opacity=".563" d="M20.324.581c-4.456 0-9.673 2.893-9.673 8.774 0 4.768 3.434 8.774 8.706 8.774 5.217 0 9.651-3.932 9.651-8.967 0-4.35-3.271-8.581-8.684-8.581zm-.054 16.885c-3.597 0-6.238-3.792-6.238-9.106 0-4.393 1.837-7.039 5.195-7.039 3.989 0 6.401 3.685 6.401 8.646 0 4.81-2.304 7.499-5.358 7.499z"/><path opacity=".75" d="M15.357 13.639c-.359 1.95-2.337 3.632-4.347 3.632H5.456c-.217 0-.25-.021-.109-.214l9.51-15.845c.109-.107-.022-.354-.196-.354H4.63C3.228.858 2.956.751 3.065.097c.022-.086-.304-.139-.326-.054L1.641 4.757c-.022.107.272.161.326.086 1.543-3.171 3.543-3.525 9.26-3.525.25 0 .25.021.141.214L1.717 17.431c-.109.139 0 .354.141.354 4.097 0 9.064 0 13.161.053.163 0 .25-.161.25-.268l.391-3.932c0-.118-.272-.118-.304 0z"/></symbol><symbol id="icon-message" viewBox="0 0 32 32"><path stroke-linecap="round" stroke-width="2.896" d="M9.607 11.583h12.356M9.607 17.761h9.267m6.178-13.9a4.632 4.632 0 0 1 4.633 4.633V20.85a4.632 4.632 0 0 1-4.633 4.633h-7.723l-7.723 4.633v-4.633H6.517a4.632 4.632 0 0 1-4.633-4.633V8.494a4.632 4.632 0 0 1 4.633-4.633h18.534z"/></symbol><symbol id="icon-play-video_none" viewBox="0 0 26 32"><path fill="#336703" style="fill:var(--color1,#336703)" d="M22.692 14.799a2.59 2.59 0 0 1 0 4.144l-16.134 12.1c-1.707 1.28-4.144.062-4.144-2.072V4.77c0-2.134 2.436-3.352 4.144-2.072l16.134 12.1z"/></symbol><symbol id="icon-play-video" viewBox="0 0 27 32"><path fill="#336703" style="fill:var(--color1,#336703)" d="M24.856 14.621a1.6 1.6 0 0 1 0 2.758L2.412 30.582a1.6 1.6 0 0 1-2.411-1.379V2.798c0-1.237 1.345-2.007 2.411-1.379l22.444 13.203z"/></symbol><symbol id="icon-learn-more-arrow" viewBox="0 0 27 32"><path fill="#fff" style="fill:var(--color1,#fff)" d="M3.414 1.752 2.417.521.07 2.649l.997 1.231 2.347-2.128zm20.895 30.072c.848.065 1.591-.608 1.66-1.505l1.122-14.602c.069-.896-.563-1.675-1.41-1.74s-1.591.608-1.66 1.505l-.997 12.98-12.28-.943c-.848-.065-1.591.609-1.66 1.505s.563 1.675 1.41 1.74l13.815 1.061zM1.067 3.88 23.26 31.266l2.347-2.128L3.414 1.752 1.067 3.88z"/></symbol><symbol id="icon-paw" viewBox="0 0 31 32"><path fill="#06631b" d="M20.091 11.39c2.636.38 4.731-1.989 5.094-4.58.417-2.772-1.078-5.07-3.568-5.458-2.573-.408-4.679 1.533-5.026 4.132-.443 2.518.919 5.513 3.5 5.906zm9.859 1.456c-.604-.947-1.559-1.605-2.686-1.859-2.482-.548-4.723 1.026-5.328 3.735-.604 2.533.568 5.496 3.148 6.072 2.573.568 4.915-1.667 5.426-4.173.312-1.385.109-2.725-.559-3.775zM11.225 10.96c-1.035.057-2.019-.312-2.833-1.04-3.043-2.71-2.21-8.857 2.276-9.099C15 .61 16.469 5.974 14.305 9.112c-.757 1.103-1.876 1.775-3.08 1.847zm4.27 2.975c-4.62-.162-9.38 9.229-9.746 12.516-.205 4.556 4.517 4.968 8.945 5.129h.008c.346.01.69.024 1.03.037 2.91.112 5.563.214 7.26-1.594.607-.69.941-1.591.994-2.69-.041-3.268-3.907-13.138-8.491-13.398zm-6.612.217c.192 1.554-.195 3.08-1.067 4.193-.685.877-1.629 1.428-2.653 1.554-2.623.317-4.739-2.126-4.998-4.678-.169-1.415.155-2.731.921-3.711a4.229 4.229 0 0 1 2.853-1.59c2.524-.314 4.602 1.469 4.943 4.232z"/></symbol><symbol id="icon_arrow_right_turned_45deg" viewBox="0 0 39 32"><path fill="#04a427" style="fill:var(--color1,#04a427);stroke:var(--color2,#dadc00)" stroke="#dadc00" stroke-width="1.283" d="M31.286 14.072 3.11 30.298.934 26.522 30.245 9.643 18.106 5.39l.755-3.898 18.684 6.545-3.761 19.42-3.754-1.316 2.472-12.771-1.217.701z"/></symbol><symbol id="icon-arrow-to-right" viewBox="0 0 49 32"><path style="stroke:var(--color2,#dadc00)" stroke="#dadc00" stroke-width="1.067" d="m37.822 18.334-36.237-.035.004-4.381 37.415.036-9.215-9.331 3.077-3.086 14.505 14.687L32.8 30.84l-3.064-3.104 9.37-9.401-1.283-.001z"/></symbol><symbol id="icon-secondary-logo" viewBox="0 0 119 32"><path fill="#06631b" style="fill:var(--color1,#06631b)" d="M8.07 7.807c5.521.121 5.521.121 5.763 1.132.161.566.121 1.415-.081 1.941-.161.485-1.773 2.992-3.546 5.54s-3.224 4.731-3.224 4.852c0 .121.806.202 1.813.202 1.531 0 1.813-.121 1.813-.809 0-.445.081-1.092.201-1.415.134-.404.739-.607 1.813-.607s1.679.202 1.813.607c.121.323.201 1.375.201 2.345 0 .93-.161 1.941-.322 2.224-.201.404-1.37.566-4.312.566-2.216 0-4.997 0-6.166-.04-2.055-.04-2.096-.081-2.096-1.253 0-.849 1.048-2.709 3.627-6.47 2.015-2.911 3.627-5.338 3.627-5.459s-.725-.202-1.612-.202c-1.451 0-1.652.121-2.015 1.213-.363 1.051-.604 1.213-1.813 1.213-1.33 0-1.41-.081-1.491-1.496 0-.849 0-1.901.04-2.345 0-.445.121-1.051.242-1.334.161-.364 1.531-.485 5.723-.404zm49.488.121.121 1.334c.04 1.011-.081 1.334-.725 1.496-.443.121-.806.526-.806.93 0 .364.564 2.507 1.249 4.731.645 2.224 1.29 3.963 1.37 3.841s.685-2.224 1.37-4.65 1.249-4.488 1.249-4.529c0-.081-.443-.202-1.007-.323-.725-.162-1.007-.485-1.007-1.092-.04-.526.201-1.173.484-1.415.363-.364 1.652-.485 7.375-.324l.121 1.334c.04 1.011-.081 1.334-.725 1.496-.443.121-.806.323-.806.526 0 .162.363 1.375.766 2.709s.967 3.194 1.209 4.165c.242.93.564 1.698.766 1.698.161 0 .766-1.82 1.41-4.044.604-2.224 1.088-4.246 1.088-4.448s-.443-.485-1.008-.607c-.846-.162-1.007-.404-.806-2.831H76.5l.121 1.334c.04 1.011-.121 1.375-.806 1.658-.766.283-1.169 1.173-2.297 5.54-.766 2.871-1.612 5.823-2.458 7.845l-5.441-.202-1.048-3.235c-1.007-3.033-1.088-3.154-1.491-2.224-.242.566-.725 2.062-1.693 5.661l-5.763-.202-1.128-3.639c-.604-1.981-1.491-4.893-1.934-6.47-.604-2.103-1.048-2.952-1.733-3.235-.524-.202-.967-.728-1.007-1.092-.081-.404.081-1.011.322-1.334.403-.526 1.209-.607 7.415-.404zm25.066-.202c3.103 0 3.385.081 3.708.93.202.485.202 1.173 0 1.617-.201.364-.645.687-.967.687-.524 0-.605.849-.605 5.257 0 4.974.04 5.257.806 5.257.484 0 .887.364 1.048.93.161.485.161 1.132 0 1.415-.161.324-1.41.485-4.07.485-3.305 0-3.869-.081-3.99-.687-.081-.404 0-1.051.201-1.415.202-.404.645-.728.967-.728s.685-.283.806-.607.201-2.467.201-4.731c0-2.305-.161-4.367-.323-4.61s-.604-.566-.967-.687c-.443-.162-.766-.768-.806-1.415s.081-1.294.282-1.415c.202-.162 1.854-.283 3.708-.283zm13.219.202.121 1.334c.04 1.011-.081 1.334-.725 1.496-.766.202-.806.526-.806 10.716l1.531-.081c1.29-.121 1.491-.243 1.612-1.213.081-1.011.242-1.132 3.305-1.132v5.257l-3.909.121c-2.176.04-4.957 0-6.166-.121-1.814-.162-2.217-.364-2.337-1.011-.081-.485.282-1.173.887-1.698 1.008-.89 1.048-1.132 1.048-5.176 0-2.345-.161-4.61-.403-5.055s-.685-.809-1.007-.809c-.363 0-.645-.445-.685-1.132-.04-.647.121-1.294.282-1.456.202-.162 1.894-.202 7.254-.04zm12.452-.162c4.03.121 5.118.323 6.287 1.011.766.445 1.773 1.456 2.176 2.224.443.768.887 2.467.967 3.801.121 1.334 0 3.356-.242 4.448-.363 1.496-.887 2.426-1.975 3.477-1.451 1.334-1.733 1.456-4.957 1.658-1.894.162-4.433.121-5.642 0-1.894-.242-2.217-.404-2.297-1.173a1.422 1.422 0 0 1 .685-1.415c.725-.485.806-.971.806-5.661 0-3.194-.161-5.176-.403-5.176s-.564-.364-.806-.809c-.282-.566-.242-1.092.04-1.658.443-.809.725-.849 5.36-.728zm.363 9.058c.081 3.68.161 4.044.887 4.165.443.081 1.169.041 1.612-.04.443-.121 1.048-.687 1.33-1.253.242-.566.484-2.305.484-3.882 0-2.305-.161-2.992-.806-3.639-.443-.445-1.33-.809-1.975-.809-.806 0-1.263.243-1.37.728-.121.364-.161 2.507-.161 4.731z"/><path fill="#f2cb15" style="fill:var(--color2,#f2cb15)" d="M18.493 1.71c.801-.04 2.323.439 3.565 1.037 1.202.638 2.604 1.596 3.124 2.234.521.598.841 1.237.721 1.476s-.681.399-1.322.399c-.601 0-2.043.279-3.204.598-1.121.319-2.684 1.117-3.405 1.795-.681.638-1.402 1.157-1.602 1.197-.16 0-.32-1.875-.36-4.149-.08-3.311.04-4.189.481-4.348.32-.12 1.242-.239 2.003-.239zm27.357-.04c1.202 0 1.562.199 1.883.997.2.558.401 2.513.401 7.779l-1.082-.239c-1.081-.279-1.081-.239-.481.479.36.399.881 1.396 1.202 2.154.28.758.521 2.394.521 3.591-.04 1.197-.361 2.832-.761 3.59-.361.758-1.081 1.835-1.562 2.314-.441.519-1.562 1.316-2.443 1.755-1.282.638-2.043.758-3.805.599-1.202-.12-2.563-.359-3.004-.519-.601-.199-1.081.12-3.204 2.633l.801.838c.441.439 1.282.798 1.923.758.601 0 1.722-.279 2.483-.598s1.562-.918 1.762-1.277c.16-.399.681-.838 1.081-.957.441-.159 1.041-.12 1.362.04.521.279.521.519.12 1.356-.28.558-1.362 1.596-2.403 2.234-1.442.918-2.403 1.197-3.805 1.197-1.081 0-2.563-.319-3.324-.678-1.322-.678-1.482-.678-2.804 0-.761.359-2.243.678-3.284.678-1.442 0-2.403-.279-3.725-1.117-1.001-.638-2.043-1.436-2.283-1.795-.28-.359-.441-.957-.32-1.277s.521-.598.921-.598c.361.04 1.282.559 2.003 1.197.681.678 1.883 1.316 2.604 1.436.681.159 1.762.159 2.403 0 .601-.12 1.161-.519 1.282-.838s-.28-1.316-.881-2.194c-.761-1.077-1.322-1.516-1.723-1.317-.32.12-1.402.399-2.403.638s-2.443.279-3.204.16c-.761-.16-2.123-.878-2.964-1.556-.841-.718-1.883-1.995-2.283-2.793-.481-.997-.761-2.394-.761-3.989-.04-1.995.2-2.992 1.081-4.668.761-1.436 1.562-2.394 2.523-2.912.761-.399 2.123-.838 3.004-.957 1.001-.16 2.363-.04 3.605.359 1.202.399 2.483 1.157 3.204 1.955.681.718 1.482 2.194 1.762 3.311.32 1.077.721 2.194.921 2.394.2.239.32-.04.32-.718 0-.598 0-1.197.04-1.396.04-.16.361-.918.761-1.676s1.242-1.875 1.883-2.434c.601-.559 1.722-1.237 2.443-1.476 1.162-.439 1.242-.559.801-1.277-.441-.678-.36-.918.681-2.035.681-.678 2.123-1.676 3.204-2.194 1.122-.519 2.684-.957 3.525-.957zM19.694 12.801c-.401.559-.841 1.596-1.001 2.234s-.2 1.795-.04 2.513c.12.678.681 1.835 1.242 2.473.561.678 1.642 1.356 2.483 1.596.841.199 1.562.319 1.642.279.04-.04-.2-.598-.521-1.277-.32-.638-.601-2.075-.601-3.192 0-1.077.24-2.434.521-2.992.36-.718.841-.997 1.682-.997 1.081 0 1.242.199 1.722 1.995.401 1.396.481 2.513.24 3.67-.2.957-.24 1.715-.08 1.715.2 0 .681-.598 1.122-1.277.441-.718.801-2.035.801-2.912s-.24-2.274-.601-3.072c-.441-1.117-1.041-1.715-2.323-2.314-.921-.439-1.963-.798-2.283-.798s-1.202.319-1.923.678c-.721.359-1.682 1.117-2.083 1.676zm16.703-.04c-.561.798-1.081 1.915-1.122 2.473s-.04 1.476-.04 2.114c.04.598.601 1.676 1.282 2.394l1.162 1.277c-.601-2.154-.761-3.311-.761-3.989 0-.638.361-1.795.801-2.473.481-.798 1.122-1.316 1.602-1.316.441 0 1.122.479 1.482 1.117.401.678.641 1.835.641 3.072-.04 1.117-.24 2.473-.481 3.112-.401.997-.361 1.077.601 1.077.561 0 1.522-.479 2.123-1.077.641-.638 1.322-1.835 1.562-2.713s.32-2.114.2-2.793c-.12-.638-.721-1.795-1.282-2.513-.601-.798-1.642-1.476-2.443-1.715-.761-.199-1.482-.359-1.602-.319-.12 0-.761.199-1.482.399-.721.239-1.642.997-2.243 1.875zm-6.289 8.737-1.202 1.716c4.646 0 6.008-.08 6.008-.2s-.441-.918-1.001-1.795-1.122-2.154-1.322-2.833c-.16-.678-.401-1.316-.521-1.396s-.361.519-.521 1.317c-.12.838-.761 2.274-1.442 3.231v-.04z"/></symbol><symbol id="icon-plus" viewBox="0 0 32 32"><path fill="#04a427" style="fill:var(--color1,#04a427)" d="M3.205 17.758c-.547 0-1.012-.107-1.395-.32-.328-.249-.492-.552-.492-.907v-2.028c0-.356.164-.64.492-.854.383-.249.848-.374 1.395-.374h24.62c.547 0 .985.125 1.313.374.383.213.575.498.575.854v2.028c0 .356-.192.658-.575.907-.328.213-.766.32-1.313.32H3.205z"/><path fill="#04a427" style="fill:var(--color1,#04a427)" d="M17.758 27.824c0 .547-.107 1.012-.32 1.395-.249.328-.552.492-.907.492h-2.028c-.356 0-.64-.164-.854-.492-.249-.383-.374-.848-.374-1.395V3.204c0-.547.125-.985.374-1.313.213-.383.498-.574.854-.574h2.028c.356 0 .658.192.907.574.213.328.32.766.32 1.313v24.62z"/></symbol><symbol id="icon-minus" viewBox="0 0 38 32"><path fill="#04a427" style="fill:var(--color1,#04a427)" d="M3.788 18.077c-.647 0-1.196-.126-1.649-.378-.388-.294-.582-.652-.582-1.072V14.23c0-.421.194-.757.582-1.009.453-.294 1.002-.442 1.649-.442h29.097c.647 0 1.164.147 1.552.442.453.252.679.589.679 1.009v2.397c0 .421-.226.778-.679 1.072-.388.252-.905.378-1.552.378H3.788z"/></symbol><symbol id="icon-instagram" viewBox="0 0 32 32"><path fill="#04a427" style="fill:var(--color1,#04a427);stroke:var(--color2,#d8eada)" stroke="#d8eada" stroke-width=".941" d="M23.876 6.337a1.805 1.805 0 0 0-1.67 1.116 1.803 1.803 0 0 0 .392 1.969 1.81 1.81 0 0 0 1.969.392 1.808 1.808 0 0 0-.691-3.477zm6.927 3.644a11.403 11.403 0 0 0-.693-3.659 7.434 7.434 0 0 0-1.747-2.665 7.083 7.083 0 0 0-2.665-1.732 11.009 11.009 0 0 0-3.659-.708c-1.596-.09-2.108-.09-6.204-.09s-4.608 0-6.204.09a10.979 10.979 0 0 0-3.659.708 7.188 7.188 0 0 0-2.665 1.732 7.083 7.083 0 0 0-1.732 2.665 11.009 11.009 0 0 0-.708 3.659c-.09 1.596-.09 2.108-.09 6.204s0 4.608.09 6.204c.026 1.251.265 2.489.708 3.659a7.076 7.076 0 0 0 1.732 2.665 7.2 7.2 0 0 0 2.665 1.732c1.171.442 2.408.682 3.659.708 1.596.09 2.108.09 6.204.09s4.608 0 6.204-.09a10.979 10.979 0 0 0 3.659-.708 7.076 7.076 0 0 0 2.665-1.732 7.309 7.309 0 0 0 1.747-2.665c.429-1.174.663-2.41.693-3.659 0-1.596.09-2.108.09-6.204s0-4.608-.09-6.204zm-2.711 12.228a8.447 8.447 0 0 1-.512 2.801 4.62 4.62 0 0 1-1.129 1.732 4.787 4.787 0 0 1-1.732 1.129 8.447 8.447 0 0 1-2.801.512c-1.506.075-2.063.09-6.024.09s-4.518 0-6.024-.09a8.6 8.6 0 0 1-2.921-.452 4.913 4.913 0 0 1-1.656-1.129 4.51 4.51 0 0 1-1.114-1.732 8.314 8.314 0 0 1-.602-2.861c0-1.506-.09-2.063-.09-6.024s0-4.518.09-6.024A8.344 8.344 0 0 1 4.104 7.3a4.506 4.506 0 0 1 1.19-1.656A4.728 4.728 0 0 1 6.95 4.439a8.642 8.642 0 0 1 2.861-.512c1.506 0 2.063-.09 6.024-.09s4.518 0 6.024.09a8.447 8.447 0 0 1 2.801.512 4.606 4.606 0 0 1 1.792 1.205A4.614 4.614 0 0 1 27.581 7.3c.335.917.508 1.885.512 2.861.075 1.506.09 2.063.09 6.024s-.015 4.518-.09 6.024zM15.835 8.46a7.722 7.722 0 0 0-5.442 13.192 7.73 7.73 0 0 0 8.417 1.668 7.72 7.72 0 0 0 4.765-7.135 7.718 7.718 0 0 0-2.263-5.472 7.703 7.703 0 0 0-5.476-2.253zm0 12.74a5.015 5.015 0 1 1 .002-10.032 5.015 5.015 0 0 1-.003 10.033z"/></symbol><symbol id="icon-facebook" viewBox="0 0 32 32"><path fill="none" stroke="#04a427" style="stroke:var(--color1,#04a427)" stroke-width="1.939" d="M9.527 1.161h13.576a7.758 7.758 0 0 1 7.758 7.758v13.576a7.758 7.758 0 0 1-7.758 7.758H9.527a7.758 7.758 0 0 1-7.758-7.758V8.919a7.758 7.758 0 0 1 7.758-7.758z"/><path fill="#04a427" style="fill:var(--color1,#04a427)" d="M13.351 12.428h.145V9.85c-.001-.255-.004-1.028.439-1.751.453-.739 1.393-1.456 3.386-1.456h2.726v2.769h-1.964c-.254 0-.497.12-.674.275-.172.151-.313.364-.313.575v2.153h2.936a34.537 34.537 0 0 1-.329 2.659h-2.622v8.732h-3.585v-8.732h-1.885v-2.647h1.74z"/></symbol><symbol id="icon-telegram" viewBox="0 0 32 32"><path fill="none" stroke="#04a427" style="stroke:var(--color1,#04a427)" stroke-width="1.939" d="M9.527 1.161h13.576a7.758 7.758 0 0 1 7.758 7.758v13.576a7.758 7.758 0 0 1-7.758 7.758H9.527a7.758 7.758 0 0 1-7.758-7.758V8.919a7.758 7.758 0 0 1 7.758-7.758z"/><path fill="#04a427" d="M23.357 7.574c.238-.094.5-.126.756-.094s.499.129.702.279c.203.15.36.348.453.574s.121.471.079.71l-2.188 12.431c-.212 1.199-1.617 1.887-2.792 1.29-.982-.5-2.441-1.27-3.754-2.073-.656-.402-2.666-1.69-2.419-2.606.212-.783 3.59-3.727 5.519-5.478.757-.688.412-1.084-.482-.452-2.221 1.57-5.788 3.959-6.967 4.631-1.04.593-1.582.694-2.231.593-1.183-.184-2.28-.47-3.176-.818-1.21-.47-1.151-2.028-.001-2.481l16.5-6.506z"/></symbol><symbol id="icon-subscribe_ceo" viewBox="0 0 36 32"><path fill="none" stroke="#04a427" style="stroke:var(--color1,#04a427)" stroke-linecap="round" stroke-width=".453" d="M10.567 17.351c.306-.727.643-1.541.494-2.223-.101-.466-.508-.881-.961-1.15a.833.833 0 0 0-.463-.141c-.044.002-.094.007-.118.045-.119.189-.012.849-.007.902.151 1.581.296 3.419 1.522 4.571.238.224.826.8 1.32.762.547-.042.624-1.041.509-1.221-.316-.497-1.916.859-2.207 1.113a5.052 5.052 0 0 0-.15.14c-.079.077-.068.071.043.005.641-.384 1.249-.852 1.821-1.29.973-.745 2.007-1.519 2.827-2.359.199-.204.287-.335.246-.531-.041-.198-.592-.406-.661-.019-.056.315.018.63.138.895.065.143.3.455.425.293.352-.458.309-1.263.321-1.675.02-.645-.065-1.254-.137-1.875-.034-.296.414.443.59.682.731.993 1.513 1.979 2.053 3.069.243.491.51 1.02-.44 1.436-.854.374-1.957.579-2.813.591-1.945.029-2.284-1.167-1.72-2.538.619-1.501 1.555-2.988 2.241-4.486.532-1.161.975-2.323 1.21-3.478.06-.295.194-1.108-.068-.841-.131.133.081.263.135.388.416.953.837 1.903 1.267 2.85.114.252.229.503.346.753.055.119.105.24.17.355.011.019.028.062.055.045.112-.075.143-.756.15-.796.026-.165-.019-1.244.359-.517 1.159 2.233 1.969 4.672 2.903 6.996.904 2.247 2.021 4.515 2.548 6.91.081.368.186.677-.426.779-.703.117-1.357-.029-1.894-.227-1.251-.462-1.548-1.446-1.409-2.602.112-.933.46-1.891.689-2.834.123-.507.172-.994.243-1.495"/><path fill="none" stroke="#04a427" style="stroke:var(--color1,#04a427)" stroke-linecap="round" stroke-width=".453" d="M18.492 13.791c-.135-.182-.841-.911-1.324-.542-.26.198-.413.562-.508.795-.19.464-.093.902.375 1.125.77.367 1.305-1.191 1.311-1.19.3.063.544.342.778-.038 1.06-1.719 1.614-3.686 1.622-5.366.003-.511-.099-1.378-.896-1.463-.332-.036.343.392.536.575 2.007 1.898 3.722 3.978 5.622 5.943.311.322.538.282-.132.593-1.781.826-3.58 1.639-5.406 2.371-1.072.429-2.561 1.091-3.711 1.107-.582.008-.88-.283-.852-.726.065-1.012.877-2.229 1.461-3.214.693-1.168 1.505-2.314 2.195-3.482.269-.456.487-.9.535-1.356.048-.445-.055-.353.043-.785.274-1.202 1.018-3.446 3.14-3.598.437-.031.845.041 1.234.111.173.031.439.054.538.17.206.242-.201.97-.302 1.194-1.124 2.497-2.571 4.977-3.642 7.477-.121.282.15.271.392.366 1.329.52 2.22 1.606 3.103 2.464.67.651 1.32 1.315 1.945 1.993.06.065.117.131.176.196.064.072.096.155.091.015-.147-4.456-.155-8.947-.469-13.364-.089-1.25-.256-2.465-.42-3.694-.043-.319.068-.042.109.04.615 1.237.882 2.621 1.425 3.888.298.694.629 1.296 1.336 1.748.318.203.684.341 1.029.516.226.115-.039.673-.07.865a6.136 6.136 0 0 0 .084 2.446"/><path fill="none" stroke="#04a427" style="stroke:var(--color1,#04a427)" stroke-linecap="round" stroke-width=".453" d="M29.803 10.997c-.188-.464.224-1.041.505-1.539.126-.224.35-.376.518-.582.036-.044.041-.095.101-.12M7.469 18.228c-.505-.519-2.116.29-2.548.787-1.198 1.378-.154 2.828.682 3.692 1.164 1.204 2.957 2.454 5.181 2.615.382.028.907.073 1.332-.167.404-.227.503-.605.588-.897.303-1.046.031-1.952-.382-2.809-.225-.467-.473-.99-.836-1.392-.091-.101-.15-.002-.244.085"/></symbol><symbol id="icon-arrow_all_services" viewBox="0 0 47 32"><path fill="#04a427" style="fill:var(--color1,#04a427);stroke:var(--color2,#dadc00)" stroke="#dadc00" stroke-width="1.298" d="M36.218 18.178.645 18.144l.004-4.027 37.039.036-9.205-9.248 2.852-2.838 14.111 14.176L31.27 30.351l-2.841-2.855 9.359-9.316-1.57-.002z"/></symbol><symbol id="icon-arrow_btn_call_deg45" viewBox="0 0 35 32"><path d="m32.652 19.646-4.72-.03-.018-10.887L5.281 31.318l-3.347-3.353L24.505 5.438l-10.754-.067-.007-4.717 18.878.118.029 18.876z"/></symbol><symbol id="icon_paw_item_vacancy" viewBox="0 0 29 32"><path fill="#04a427" style="fill:var(--color1,#04a427)" d="M9.392 12.096c1.637-.274 2.852-1.744 3.037-3.499.188-1.785.611-8.96-2.122-8.503-7.089 1.185-6.592 12.951-.914 12.003zm9.327 0c5.676.949 6.174-10.818-.916-12.003-2.732-.456-2.31 6.718-2.123 8.503.186 1.756 1.401 3.226 3.039 3.5zM6.479 17.64c0-.934-.338-1.78-.883-2.395-.896-1.154-3.744-3.487-4.443-2.889-1.46 1.251-1.413 4.329-.533 6.566.452 1.244 1.543 2.118 2.819 2.118 1.679 0 3.041-1.522 3.041-3.399zm20.476-5.285c-.698-.598-3.546 1.735-4.442 2.889a3.61 3.61 0 0 0-.883 2.395c0 1.877 1.363 3.399 3.041 3.399 1.276 0 2.368-.875 2.82-2.118.877-2.237.925-5.315-.535-6.566zm-5.717 10.58c-2.583-1.269-2.503-3.714-3.091-5.944-.467-1.779-2.122-3.095-4.092-3.095-.914-.002-1.804.287-2.536.826s-1.268 1.297-1.525 2.16c-.629 2.134-.25 4.619-3.066 6.037-2.287.735-3.214 1.807-3.214 4.342 0 2.06 1.794 4.265 4.11 4.539 2.583.384 4.599-.118 6.231-1.035 1.632.917 3.646 1.418 6.234 1.035 2.314-.274 4.109-2.471 4.109-4.539-.001-2.591-.868-3.556-3.16-4.326zm-3.048 3.098h-2.678l.003 2.77h-2.921l.004-2.77H9.756v-2.77h2.843l-.004-2.77h2.921l-.003 2.77h2.677v2.77z"/></symbol><symbol id="icon-arrow_leave_details" viewBox="0 0 49 32"><path fill="#fff" style="fill:var(--color2,#fff);stroke:var(--color1,#04a427)" stroke="#04a427" stroke-width="1.067" d="m37.822 18.333-36.237-.035.004-4.381 37.415.036-9.215-9.332 3.077-3.086 14.505 14.687L32.8 30.838l-3.064-3.104 9.37-9.401-1.283-.001z"/></symbol><symbol id="icon-btn_arrow_right" viewBox="0 0 32 32"><path fill="#04a427" style="fill:var(--color1,#04a427)" d="M30.735 16.307a.6.6 0 0 0 0-.85l-3.825-3.825a.6.6 0 1 0-.85.85l3.4 3.4-3.4 3.4a.6.6 0 1 0 .85.85l3.825-3.825zm-29.277.176H30.31v-1.202H1.458v1.202z"/></symbol><symbol id="icon-btn_arrow_left" viewBox="0 0 30 32"><path fill="#04a427" style="fill:var(--color1,#04a427)" d="M.911 16.425a.6.6 0 0 1 0-.85l3.825-3.825a.6.6 0 1 1 .85.85l-3.4 3.4 3.4 3.4a.6.6 0 1 1-.85.85L.911 16.425zm29.277.176H1.336v-1.202h28.852v1.202z"/></symbol><symbol id="icons_rating" viewBox="0 0 151 32"><path fill="#04a427" style="fill:var(--color1,#04a427)" d="M13.06 5.819c.321-1.155 1.959-1.155 2.28 0l1.463 5.263c.147.53.641.889 1.191.865l5.457-.235c1.198-.052 1.704 1.506.705 2.169l-4.553 3.017a1.183 1.183 0 0 0-.455 1.4l1.91 5.117c.419 1.123-.906 2.086-1.845 1.34l-4.277-3.398a1.184 1.184 0 0 0-1.472 0l-4.277 3.398c-.939.746-2.264-.217-1.845-1.34l1.91-5.117a1.182 1.182 0 0 0-.455-1.4l-4.553-3.017c-1-.662-.493-2.22.705-2.169l5.457.235a1.183 1.183 0 0 0 1.191-.865l1.463-5.263zM43.827 5.819c.321-1.155 1.959-1.155 2.28 0l1.463 5.263c.147.53.641.889 1.191.865l5.457-.235c1.198-.052 1.704 1.506.705 2.169l-4.553 3.017a1.183 1.183 0 0 0-.455 1.4l1.91 5.117c.419 1.123-.906 2.086-1.845 1.34l-4.277-3.398a1.184 1.184 0 0 0-1.472 0l-4.277 3.398c-.939.746-2.264-.217-1.845-1.34l1.91-5.117a1.183 1.183 0 0 0-.455-1.4l-4.553-3.017c-1-.662-.493-2.22.705-2.169l5.457.235a1.183 1.183 0 0 0 1.191-.865l1.463-5.263zM74.593 5.819c.321-1.155 1.959-1.155 2.28 0l1.463 5.263c.147.53.641.889 1.191.865l5.457-.235c1.198-.052 1.704 1.506.705 2.169l-4.553 3.017a1.183 1.183 0 0 0-.455 1.4l1.91 5.117c.419 1.123-.906 2.086-1.845 1.34l-4.277-3.398a1.184 1.184 0 0 0-1.472 0l-4.277 3.398c-.939.746-2.264-.217-1.845-1.34l1.91-5.117a1.182 1.182 0 0 0-.455-1.4l-4.553-3.017c-.999-.662-.493-2.22.705-2.169l5.457.235a1.183 1.183 0 0 0 1.191-.865l1.463-5.263zM105.36 5.819c.321-1.155 1.959-1.155 2.28 0l1.463 5.263c.147.53.641.889 1.191.865l5.457-.235c1.198-.052 1.704 1.506.705 2.169l-4.553 3.017a1.183 1.183 0 0 0-.455 1.4l1.91 5.117c.419 1.123-.906 2.086-1.845 1.34l-4.277-3.398a1.184 1.184 0 0 0-1.472 0l-4.277 3.398c-.939.746-2.264-.217-1.845-1.34l1.91-5.117a1.182 1.182 0 0 0-.455-1.4l-4.553-3.017c-.999-.662-.493-2.22.705-2.169l5.457.235a1.183 1.183 0 0 0 1.191-.865l1.463-5.263z"/><path fill="#e9e9e9" style="fill:var(--color2,#e9e9e9)" d="M136.126 5.819c.321-1.155 1.959-1.155 2.28 0l1.463 5.263c.147.53.641.889 1.191.865l5.457-.235c1.198-.052 1.704 1.506.705 2.169l-4.553 3.017a1.183 1.183 0 0 0-.455 1.4l1.91 5.117c.419 1.123-.906 2.086-1.845 1.34l-4.277-3.398a1.184 1.184 0 0 0-1.472 0l-4.277 3.398c-.939.746-2.264-.217-1.845-1.34l1.91-5.117a1.183 1.183 0 0 0-.455-1.4l-4.553-3.017c-.999-.662-.493-2.22.705-2.169l5.457.235a1.183 1.183 0 0 0 1.191-.865l1.463-5.263z"/></symbol><symbol id="icon-time" viewBox="0 0 32 32"><path d="M15.856 3.612c6.798 0 12.308 5.51 12.308 12.308s-5.51 12.308-12.308 12.308S3.548 22.718 3.548 15.92 9.058 3.612 15.856 3.612zm0 2.461a9.843 9.843 0 0 0-9.846 9.846 9.843 9.843 0 0 0 9.846 9.846 9.843 9.843 0 0 0 9.846-9.846 9.843 9.843 0 0 0-9.846-9.846zm0 2.462c.301 0 .592.111.818.311s.369.476.404.776l.009.144v5.644l3.332 3.332a1.235 1.235 0 0 1 .051 1.683 1.233 1.233 0 0 1-1.676.159l-.116-.102-3.692-3.692a1.237 1.237 0 0 1-.35-.709l-.011-.161V9.766a1.228 1.228 0 0 1 1.23-1.23z"/></symbol><symbol id="icon-location-clinic" viewBox="0 0 26 32"><path fill="none" stroke="#04a427" style="stroke:var(--color1,#04a427)" stroke-linejoin="round" stroke-linecap="round" stroke-width="1.707" d="M23.34 13.736c0 8.217-11.145 15.885-11.145 15.885S1.05 21.952 1.05 13.736c0-3.051 1.174-5.977 3.264-8.134s4.925-3.369 7.881-3.369c2.956 0 5.791 1.212 7.881 3.369s3.264 5.083 3.264 8.134z"/><path fill="#04a427" style="fill:var(--color1,#04a427);stroke:var(--color1,#04a427)" stroke="#04a427" stroke-linejoin="round" stroke-linecap="round" stroke-width="1.143" d="M12.199 16.478c1.466 0 2.654-1.226 2.654-2.739S13.665 11 12.199 11s-2.654 1.226-2.654 2.739 1.188 2.739 2.654 2.739z"/></symbol></defs></svg>