<svg aria-hidden="true" style="width:0;height:0;position:absolute;overflow:hidden" xmlns="http://www.w3.org/2000/svg"><defs><symbol id="icon-burger" viewBox="0 0 74 32"><path fill="#04a427" style="fill:var(--color1,#04a427)" d="M3.2 12.8h67.2a3.2 3.2 0 0 1 0 6.4H3.2a3.2 3.2 0 0 1 0-6.4zM28.8 0h41.6a3.2 3.2 0 0 1 0 6.4H28.8a3.2 3.2 0 0 1 0-6.4zM3.2 25.594h41.6a3.2 3.2 0 0 1 0 6.4H3.2a3.2 3.2 0 0 1 0-6.4z"/></symbol><symbol id="icon-call" viewBox="0 0 32 32"><path fill="#fff" style="fill:var(--color2,#fff)" d="M16.233.444c8.481 0 15.357 6.875 15.357 15.357 0 8.481-6.875 15.357-15.357 15.357-8.481 0-15.357-6.875-15.357-15.357C.876 7.32 7.751.444 16.233.444z"/><path stroke="#095119" style="stroke:var(--color3,#095119)" stroke-width=".83" d="M16.233.444c8.481 0 15.357 6.875 15.357 15.357 0 8.481-6.875 15.357-15.357 15.357-8.481 0-15.357-6.875-15.357-15.357C.876 7.32 7.751.444 16.233.444z"/><path fill="#095119" style="fill:var(--color3,#095119);stroke:var(--color3,#095119)" stroke="#095119" stroke-width=".332" d="M27.671 10.599a.512.512 0 0 0-.303-.22 1.398 1.398 0 0 0-.468-.043c-.649.03-1.615.343-2.026.638a.705.705 0 0 0-.259.358c-.039.108-.045.228-.166.315-.325.236-.632.383-.933.655-.692.627-1.091 1.252-1.242 2.064-.197 1.06.131 1.937.274 2.985.058.428-.351.75-.813.727-.307-.015-.429-.232-.471-.477a2.012 2.012 0 0 1 .069-.85c.236-.773.534-1.546.693-2.324.166-.81.183-1.626-.152-2.454-.711-1.758-2.767-2.295-4.466-2.02-.635.103-1.556.599-2.014 1.081-1.642 1.725-.964 3.846.163 5.618.315.495.609 1.079.918 1.578.245.396.366.952.303 1.47-.061.498-.295.965-.774 1.201-.963.475-2.217-.079-2.282-1.206-.057-.984.305-1.997.553-3.016.264-1.083.404-2.172-.114-3.24a4.566 4.566 0 0 0-.697-1.057c-.306-.345-.661-.513-1.093-.688-.664-.268-1.433-.318-2.129-.204-.848.139-1.549.595-2.1 1.296-.358.456-.529 1.064-.553 1.704-.036.935.241 1.935.657 2.59.284.446.682.915 1.045 1.393.344.453.657.912.789 1.369.134.466-.234.837-.579 1.047a1.365 1.365 0 0 1-.865.175c-.274-.038-.526-.171-.644-.439-.236-.536-.286-1.124-.389-1.7-.111-.627-.282-1.239-.754-1.773-.415-.471-1.047-.751-1.664-.816-.047-.005-.468-.051-.551-.057-.194-.014-.228.188-.228.196 0 .025.003.142.134.191.032.012.193.048.211.054.197.054.391.121.579.199.461.192.85.478 1.085.929.258.494.313 1.049.368 1.607.059.606.116 1.215.373 1.769.293.635.784 1.066 1.518 1.136.297.029.715.024 1.005-.038.333-.072.705-.229.987-.43.766-.545.917-1.503.791-2.375-.113-.78-.536-1.348-.933-2.002-.399-.656-.784-1.397-.975-2.143-.16-.626-.041-1.156.289-1.491.331-.337.865-.47 1.504-.332.645.139.885.557.967 1.056.061.372.041.786.024 1.179-.053 1.214-.518 2.584-.428 3.798.07.942.485 2.051 1.178 2.836.475.538 1.079.925 1.789 1.018.562.074 1.177-.06 1.699-.268 1.983-.789 2.9-3.409 2.186-5.354-.258-.702-.764-1.337-1.163-1.964-.317-.497-.586-1.109-.786-1.664-.193-.536 0-.991.358-1.305.38-.333.938-.516 1.444-.484.488.031.793.35.965.752a2.6 2.6 0 0 1 .154 1.383c-.128.777-.5 1.791-.602 2.742-.111 1.029.085 1.984 1.115 2.555.268.148.564.256.863.322.4.088.834.046 1.221-.083.305-.101.585-.249.841-.442.256-.192.459-.445.59-.738.29-.65.359-1.3.224-1.992-.098-.505-.272-.979-.351-1.45-.072-.429-.062-.858.192-1.31.248-.444.579-.616.956-.742.283-.094.59-.164.911-.281.463-.169.898-.487 1.308-.754.294-.192.565-.372.733-.573a.796.796 0 0 0 .21-.548.855.855 0 0 0-.079-.328.992.992 0 0 1 .181-.074c.154-.046.303-.078.44-.081a1.494 1.494 0 0 0-.422-.137l.008-.016c.077-.157.118-.317.11-.516a1.003 1.003 0 0 1-.218.317c-.078.079-.168.129-.265.185l-.022.012zm-.226.37a.564.564 0 0 1 .097.28c.004.138-.077.249-.19.358-.149.144-.356.276-.574.418-.385.252-.791.555-1.227.713-.318.116-.622.185-.901.278-.467.156-.87.376-1.177.925-.304.543-.323 1.056-.237 1.571.08.474.254.951.352 1.459.119.61.058 1.182-.197 1.754-.103.231-.263.43-.465.582a2.505 2.505 0 0 1-.727.382c-.32.106-.679.145-1.009.072a2.843 2.843 0 0 1-.757-.282c-.868-.481-1.006-1.297-.912-2.165.102-.944.472-1.949.599-2.72.079-.484.035-1.1-.181-1.604-.231-.538-.652-.95-1.306-.992-1.243-.079-2.705.93-2.202 2.322.21.581.492 1.221.825 1.743.385.602.877 1.211 1.125 1.887.646 1.758-.167 4.134-1.96 4.847-.462.183-1.003.308-1.5.243-.613-.081-1.132-.422-1.543-.887-.635-.72-1.014-1.738-1.079-2.602-.09-1.199.376-2.551.428-3.751.018-.42.036-.863-.029-1.261-.108-.655-.428-1.197-1.276-1.38-.797-.172-1.458.021-1.872.442-.415.422-.592 1.082-.391 1.869.2.784.601 1.563 1.021 2.251.369.607.774 1.128.879 1.852.105.728.012 1.539-.628 1.994a2.41 2.41 0 0 1-.84.365 3.267 3.267 0 0 1-.884.031c-.581-.056-.962-.404-1.194-.907-.237-.513-.283-1.079-.338-1.641-.052-.533-.112-1.062-.315-1.547.189.357.279.739.348 1.127.108.607.167 1.226.415 1.791.177.401.544.616.954.672a1.77 1.77 0 0 0 1.126-.229c.483-.295.942-.845.754-1.497-.144-.498-.479-1.004-.854-1.498-.356-.469-.748-.929-1.026-1.367-.38-.597-.628-1.509-.595-2.362.021-.552.159-1.079.468-1.473.487-.618 1.103-1.026 1.851-1.149.627-.102 1.319-.061 1.916.181.372.15.681.287.945.584.258.29.467.617.636.966.476.98.328 1.978.086 2.972-.258 1.058-.622 2.111-.564 3.133.082 1.416 1.646 2.137 2.855 1.54.606-.299.916-.88.993-1.51.075-.609-.071-1.263-.359-1.728-.311-.501-.605-1.086-.921-1.583-1.029-1.618-1.71-3.554-.21-5.13.407-.428 1.225-.871 1.79-.963 1.528-.247 3.395.196 4.034 1.776.303.75.282 1.49.131 2.224-.157.766-.451 1.527-.684 2.287-.074.242-.143.665-.08 1.034.073.426.31.781.844.807.72.035 1.318-.511 1.227-1.179-.137-1.004-.466-1.844-.277-2.859.135-.726.499-1.28 1.118-1.841.29-.262.587-.401.9-.628a.706.706 0 0 0 .257-.358c.039-.108.045-.227.166-.314.367-.264 1.232-.536 1.812-.564.112-.005.212-.002.294.016.044.01.082.017.103.042.044.053.082.103.113.152l.009.016.007.01z"/></symbol><symbol id="icon-logo" viewBox="0 0 35 32"><path fill="#fff" style="fill:var(--color1,#fff)" d="M34.592 6.684a.675.675 0 0 0 .03-.702.716.716 0 0 0-.626-.364h-4.31a4.864 4.864 0 0 0-1.874.383c-.045.02-.086.035-.126.055a4.281 4.281 0 0 0-1.713 1.439l-.758 1.121c-.096-.025-.177-.045-.192-.05-.096-.025-.192-.045-.288-.065l-.066-.015a33.337 33.337 0 0 0-2.471-7.177 1.75 1.75 0 0 0-1.243-.961 18.48 18.48 0 0 0-3.279-.349h-.495c-.121 0-.237 0-.359.005-.116 0-.232.005-.354.01-.111.005-.227.01-.344.02-.111.01-.222.015-.333.025s-.217.015-.328.03c-.106.01-.212.025-.318.035-.101.01-.207.025-.308.04s-.197.025-.298.045l-.288.045c-.091.015-.187.03-.278.05a.721.721 0 0 0-.101.02l-.152.03a1.683 1.683 0 0 0-1.101.857l-.03.065c-.025.055-.051.105-.076.159l-.076.164c-.025.055-.056.11-.081.164-.025.06-.056.115-.081.174s-.056.12-.081.174c-.025.06-.056.12-.081.179s-.056.124-.081.184c-.03.06-.056.124-.081.189s-.056.13-.081.194c-.03.065-.056.13-.081.199-.03.07-.056.134-.086.199-.025.07-.056.139-.081.209s-.056.139-.081.209c-.025.07-.056.139-.081.214-.03.07-.056.144-.081.214-.03.075-.056.149-.081.224-.03.075-.056.149-.081.224s-.056.154-.081.229c-.025.075-.056.154-.081.234s-.056.159-.081.239c-.025.08-.056.159-.081.239l-.076.244-.076.249-.076.254-.076.254c-.025.09-.051.174-.076.259l-.076.264c-.025.09-.051.179-.071.269-.025.09-.051.179-.071.269-.025.09-.045.179-.071.274s-.045.184-.066.279c-.02.095-.045.189-.066.279a.523.523 0 0 1-.02.085c-.152.035-.384.09-.586.134l-.763-1.111a4.245 4.245 0 0 0-1.834-1.489 4.812 4.812 0 0 0-1.874-.383H.705c-.263 0-.505.139-.626.364s-.111.493.025.702l2.738 4.198c-.03.015-.061.03-.096.045a1.653 1.653 0 0 0-.935 1.18 18.05 18.05 0 0 0-.273 5.328c.02.209.045.413.071.623.005.055.015.11.02.164v.005c.02.139.04.279.066.418.01.05.015.105.025.154 0 .005 0 .01.005.02 0 .015.005.03.005.04.056.204.152.478.338.767.253.393.551.647.753.787l.096.045.288.135.071.035c.116.055.237.105.359.159s.248.105.374.159c.131.055.263.11.389.159a73.865 73.865 0 0 0 .828.323c.147.055.293.11.44.159.152.055.303.11.455.159.157.055.313.11.47.159.162.055.323.105.485.154.167.055.333.105.5.154.172.05.344.1.52.149s.354.1.531.144c.182.05.364.095.546.139l.561.134c.096.02.192.04.283.065a33.485 33.485 0 0 0 2.46 7.162c.243.508.712.872 1.268.981.93.184 2.026.324 3.259.344a17.911 17.911 0 0 0 1.43-.03c.222-.015.445-.03.667-.05.212-.02.419-.045.632-.07.197-.025.399-.055.596-.085.187-.03.369-.06.556-.1l.157-.03.066-.015c.141-.035.394-.12.611-.319a1.39 1.39 0 0 0 .207-.239c.035-.07.071-.139.106-.214.01-.025.025-.05.035-.075v-.005c.04-.08.076-.159.116-.239l.106-.224c.015-.035.035-.07.051-.11.056-.115.106-.234.162-.349.056-.125.111-.244.162-.369l.167-.384.167-.398.167-.418.167-.433c.056-.149.111-.299.162-.448.056-.154.111-.309.162-.463.056-.159.106-.319.162-.478.056-.164.106-.329.157-.498l.152-.508c.051-.174.101-.349.147-.523.051-.179.096-.359.141-.538l.136-.553c.025-.1.045-.199.071-.299a34.376 34.376 0 0 0 7.437-2.515c.414-.194.707-.568.798-1.011.197-.951.359-2.092.379-3.382l.005-.124v-.364c0-.12-.005-.234-.005-.354-.005-.115-.005-.229-.015-.344a7.702 7.702 0 0 0-.02-.339c-.005-.11-.015-.219-.025-.329l-.03-.324c-.01-.105-.025-.209-.035-.314-.01-.1-.025-.204-.04-.304l-.045-.294-.045-.284a3.801 3.801 0 0 0-.051-.274c-.005-.04-.015-.08-.02-.12l-.03-.149-.03-.149v-.005a1.445 1.445 0 0 0-.278-.508 1.738 1.738 0 0 0-.328-.294h-.005c-.045-.025-.091-.045-.136-.065l-.157-.075a.72.72 0 0 0-.091-.04l2.738-4.238zM21.638 25.126l-.025.05c-.04.09-.091.174-.141.264h-.005c-.728 1.111-1.935 1.893-3.259 2.137-.051.01-.101.015-.152.025l-.116.015c-.015 0-.03.005-.045.005-.106.01-.212.02-.318.025-.056.005-.111.005-.167.005h-.238c-.025 0-.056 0-.081-.005-.045-.005-.091-.005-.141-.01-1.602-.154-3.036-1.295-3.915-2.654-.005-.005-.005-.005-.005-.01l-.01-.025L.98 6.471h4.017a4.132 4.132 0 0 1 1.536.314l.106.045a3.419 3.419 0 0 1 1.359 1.141l1.591 2.321c.086-.249.202-.528.374-.812.056-.085.136-.209.147-.214a4.23 4.23 0 0 1 .627-.722 7.831 7.831 0 0 1 3.072-1.912c1.127-.369 4.077-1.056 7.099.603.94.518 1.718 1.315 2.268 2.117.005.005.01.015.02.025l.005.005c.232.319.48.712.697 1.175.04.085.076.174.116.264.106.254.187.493.258.722l2.415-3.566a3.397 3.397 0 0 1 1.359-1.145l.106-.045a4.153 4.153 0 0 1 1.536-.314h4.022L21.64 25.129z"/><path d="M21.264 21.614a2.992 2.992 0 0 1-.571 1.116c-.47.578-1.142.956-1.88 1.111-1.162.244-3.375.473-5.537-.667-.551-.289-1.698-.911-2.526-2.236-1.435-2.286-.753-4.771-.606-5.264.374.857 1.177 2.326 2.804 3.407.515.339 2.602 1.34 4.542 1.046.399-.06 1.207-.359 1.369-1.131.121-.568-.207-1.16-.333-1.325.243.035 1.354.209 2.142 1.2.116.149.985 1.28.596 2.744z"/><path d="M15.772 11.319c-.076-.115-.344-.075-.611.09-.263.159-.419.388-.344.503s.344.075.606-.085c.268-.169.424-.393.349-.508zm8.7 1.524c-.061-.105-.131-.209-.202-.319-.02-.025-.04-.055-.061-.085a.63.63 0 0 0-.076-.105l-.035-.05c-.056-.075-.111-.154-.177-.229a3.393 3.393 0 0 0-.147-.179 4.492 4.492 0 0 0-.243-.274v-.01c-.03-.11-.066-.219-.101-.334-.005-.01-.005-.025-.01-.035-.005-.005-.005-.015-.005-.02a2.83 2.83 0 0 0-.081-.219l-.015-.04v-.005c-.035-.095-.076-.184-.106-.274 0 0 0-.005-.005-.01a5.192 5.192 0 0 0-.167-.334c-.465-.867-1.283-1.912-2.43-2.54-2.804-1.539-5.547-.901-6.593-.558a7.114 7.114 0 0 0-1.93.991c-.051.04-.106.075-.157.115l-.045.03c-.232.174-.52.428-.803.762-.015.02-.03.035-.045.055-.02.02-.035.045-.056.07a.152.152 0 0 0-.025.035s0 .005-.005.005c-.01.01-.015.02-.025.03-.03.04-.061.085-.096.13-.01.015-.02.025-.025.04-.015.02-.025.04-.04.06-.005.005-.01.015-.015.02-.01.015-.02.025-.03.04l-.045.075c-.045.075-.091.149-.141.234 0 .005-.005.005-.005.01s-.005.005-.005.01l-.015.03-.015.03a5.503 5.503 0 0 0-.404 1.006 4.607 4.607 0 0 0-.137.653v.02c-.035.329-.04.662 0 1.001.081.752.344 1.365.606 1.818.177-.13.389-.194.935-.483.152-.08.531-.254.692-.339a.685.685 0 0 1 .232-.767c.248-.199.51-.428.783-.692.273-.269.51-.538.712-.792A3.134 3.134 0 0 1 15 10.543c.005 0 .005-.005.01-.005a3.655 3.655 0 0 1 1.081-.334c.657-.125 3.34-.578 5.997 1.016 2.016 1.21 2.93 2.938 3.254 3.636a8.096 8.096 0 0 0-.869-2.012zm.121 4.482a5.64 5.64 0 0 0-1.546-2.874c-1.591-1.594-3.617-1.708-4.102-1.728a9.106 9.106 0 0 1 2.764-.104 5.76 5.76 0 0 0-3.077-.209 4.957 4.957 0 0 0-1.718.742 6.99 6.99 0 0 1-2.253.996s-1.415.339-2.157-.11c-.035-.02-.071-.025-.141-.105-.293.164-.571.339-.874.513-.227.13-.495.274-.723.379.136.194.258.344.339.438 1.293 1.554 3.132 1.868 4.037 2.022a8.27 8.27 0 0 0 3.218-.09c1.566.085 2.925 1.021 3.481 2.381.667 1.654-.177 3.143-.288 3.332.379-.149 2.016-.832 2.784-2.59.576-1.3.359-2.485.258-2.993zm-13.692-2.908c-.116.03-.237.075-.339.08.066.115.136.219.197.309.051-.06.136-.144.202-.204s.47-.364.525-.398a4.67 4.67 0 0 1-.586.214z"/><path fill="#fff" style="fill:var(--color1,#fff)" d="m10.532 9.912-.045.085c.01-.02.02-.04.035-.065 0-.01.005-.015.01-.02zM10.831 9.441c-.035.055-.076.105-.111.159.035-.055.076-.11.111-.159zM11.033 9.174c-.035.045-.071.095-.111.139.04-.05.076-.1.111-.139z"/></symbol><symbol id="icon-logoTitle" viewBox="0 0 85 22" fill="#fff"><path d="M9.41 10.008c-.244 1.33-1.595 2.48-2.968 2.48H2.65c-.148 0-.17-.015-.074-.147L9.07 1.522c.074-.073-.015-.241-.133-.241h-6.85c-.957 0-1.142-.073-1.068-.52C1.033.704.81.667.795.726l-.75 3.218c-.014.074.186.11.223.059 1.054-2.165 2.42-2.407 6.323-2.407.17 0 .17.015.096.147L.097 12.597c-.074.095 0 .241.097.241 2.798 0 6.189 0 8.986.037.112 0 .171-.11.171-.183l.267-2.684c0-.081-.185-.081-.207 0ZM17.856 1.068c-3.042 0-6.604 1.975-6.604 5.991 0 3.255 2.345 5.991 5.944 5.991 3.562 0 6.59-2.684 6.59-6.122 0-2.97-2.234-5.86-5.93-5.86Zm-.037 11.529c-2.456 0-4.26-2.59-4.26-6.218 0-3 1.255-4.806 3.548-4.806 2.723 0 4.37 2.516 4.37 5.903 0 3.285-1.573 5.12-3.658 5.12ZM32.23 1.068c-3.043 0-6.605 1.975-6.605 5.991 0 3.255 2.345 5.991 5.951 5.991 3.562 0 6.59-2.684 6.59-6.122-.008-2.97-2.241-5.86-5.937-5.86Zm-.038 11.529c-2.456 0-4.26-2.59-4.26-6.218 0-3 1.255-4.806 3.548-4.806 2.723 0 4.37 2.516 4.37 5.903 0 3.285-1.573 5.12-3.658 5.12ZM55.856 1.273c-.638 0-.98.059-1.67.059-.942 0-1.447-.059-2.1-.059-.074 0-.074.22 0 .22.935 0 1.35.98.846 2.311l-2.419 6.379L48.265 5.5l.69-1.828c.564-1.478 1.239-2.18 2.085-2.18.06 0 .06-.22 0-.22-.564 0-.846.059-1.462.059-1.128 0-.846-.059-1.217-.059-.074 0-.074.22 0 .22.623 0 .623.666.06 2.128l-.468 1.244-.824-1.719c-.653-1.368-.675-1.646 0-1.646.074 0 .074-.22 0-.22-.415 0-.86.06-2.27.06-.787 0-.787-.06-1.166-.06-.074 0-.074.22 0 .22.453 0 .81.498 1.203 1.317l2.085 4.345-1.18 3.05-3.376-7.066c-.653-1.368-.601-1.646.43-1.646.074 0 .074-.22 0-.22-.505 0-1.054.06-2.723.06-.935 0-.935-.06-1.373-.06-.074 0-.074.22 0 .22.712 0 .898.22 1.425 1.317l4.786 10.007c.037.095.378.095.415 0l1.893-5.011 2.404 5.01c.037.096.378.096.415 0l3.473-9.136c.527-1.353 1.388-2.18 2.308-2.18.03-.014.03-.234-.022-.234ZM61.334 12.611c-1.166 0-1.336-.205-1.336-1.28V2.8c0-1.053.185-1.316 1.336-1.316.074 0 .074-.22 0-.22-.639 0-1.448.06-2.405.06-.898 0-1.744-.06-2.404-.06-.06 0-.06.22 0 .22 1.143 0 1.373.22 1.373 1.28v8.566c0 1.075-.223 1.28-1.373 1.28-.06 0-.06.22 0 .22.653 0 1.499-.037 2.404-.037.957 0 1.744.036 2.405.036.074 0 .074-.219 0-.219ZM71.818 9.466c-.467 1.741-2.01 2.846-3.955 2.846h-.638c-.92 0-1.069-.147-1.069-1.054v-8.47c0-1.054.186-1.295 1.336-1.295.074 0 .074-.22 0-.22-.638 0-1.447.059-2.382.059-.898 0-1.78-.059-2.382-.059-.06 0-.06.22 0 .22 1.143 0 1.35.22 1.35 1.28v8.566c0 1.075-.207 1.28-1.35 1.28-.06 0-.06.22 0 .22h8.853c.208 0 .282-.074.282-.279 0-.965.096-2.238.17-3.05-.007-.08-.192-.117-.215-.044ZM78.238 1.236c-.772 0-1.974.095-2.887.095-.898 0-1.707-.058-2.367-.058-.074 0-.074.22 0 .22 1.128 0 1.336.219 1.336 1.28v8.565c0 1.075-.223 1.28-1.373 1.28-.06 0-.06.22 0 .22.653 0 1.499-.037 2.404-.037.995 0 2.345.11 3.154.11 3.361 0 6.189-2.348 6.189-6.05 0-3.182-2.568-5.625-6.456-5.625Zm.074 11.25c-1.573 0-1.915-.424-1.915-1.353V2.81c0-1.002.564-1.163 2.026-1.163 2.42 0 3.963 2.48 3.963 5.625 0 3.38-1.707 5.216-4.074 5.216ZM79.954 17.934h-.495l.17.37-1.322 2.69h.486l.077-.142a.337.337 0 0 1 .094-.101.641.641 0 0 1 .188-.093c.077-.034.17-.05.273-.076.11-.016.23-.025.367-.025h.93l.196.438h.494l-1.458-3.061Zm0 2.178c-.214 0-.384.016-.512.05a.837.837 0 0 0-.273.118l.674-1.438.665 1.27h-.554Zm-3.293.437h-.051c-.034 0-.069 0-.111-.009-.043-.008-.077-.025-.12-.042a.675.675 0 0 1-.128-.1 1.176 1.176 0 0 1-.145-.177l-.546-.807L76.567 18h-.537l-.777 1.127a.695.695 0 0 1-.281.092 1.767 1.767 0 0 1-.29.025h-.205v-1.244h-.444v3.01h.444v-1.32h.256c.077 0 .145-.008.222-.017.076-.008.145-.033.222-.059l.588.925c.068.11.137.202.205.261.068.059.128.11.188.143a.54.54 0 0 0 .187.059c.068.008.128.017.205.017h.162v-.446c-.017-.025-.034-.025-.051-.025Zm-5.195-2.565v3.01h.435v-3.01h-.435Zm-2.577 0v1.169a.616.616 0 0 1-.213.059c-.077.008-.145.017-.205.017-.068 0-.153-.009-.247-.017a3.81 3.81 0 0 1-.29-.034c-.094-.008-.188-.017-.273-.034-.085-.008-.145-.016-.188-.016-.068 0-.128.008-.196.017-.068.008-.128.033-.188.058v-1.236h-.443v3.01h.443V19.65a.538.538 0 0 1 .188-.059c.068-.017.128-.017.196-.017.043 0 .111.009.188.017.085.009.17.017.273.034.094.008.196.017.29.034.094.008.18.016.247.016.06 0 .128-.008.205-.017a.727.727 0 0 0 .205-.058v1.404h.443v-3.01h-.435v-.009Zm-4.802 0v3.01h.435v-3.01h-.435Zm-4.428 0 .188.446h.35c-.018.151-.035.303-.06.462-.026.152-.051.303-.086.454a2.288 2.288 0 0 1-.136.43c-.06.134-.12.268-.205.403-.06.092-.11.16-.162.21-.051.05-.094.093-.136.118a.46.46 0 0 1-.12.05c-.034.009-.077.009-.11.009h-.086v.445h.085c.043 0 .086 0 .145-.008.06-.009.12-.017.18-.034a.921.921 0 0 0 .187-.084.61.61 0 0 0 .18-.151c.119-.143.23-.311.315-.488.085-.185.154-.37.213-.572.06-.201.103-.403.145-.614.034-.21.06-.412.086-.605h.878v2.565h.444v-3.01h-2.295v-.026Zm-2.235 2.565h-.051c-.034 0-.077 0-.111-.009a1.043 1.043 0 0 1-.12-.042.672.672 0 0 1-.127-.1 1.176 1.176 0 0 1-.145-.177l-.546-.807L57.33 18h-.537l-.776 1.127a.738.738 0 0 1-.282.092 1.768 1.768 0 0 1-.29.025h-.205v-1.244h-.443v3.01h.443v-1.32h.256c.077 0 .145-.008.222-.017.077-.008.145-.033.222-.059l.588.925c.069.11.137.202.205.261.068.067.128.11.188.143a.54.54 0 0 0 .187.059c.069.008.128.017.205.017h.162v-.446c-.025-.025-.042-.025-.05-.025Zm-8.24-2.615h-.495l.17.37-1.322 2.69h.486l.077-.142a.338.338 0 0 1 .094-.101.641.641 0 0 1 .188-.093c.076-.034.17-.05.273-.076.11-.016.23-.025.366-.025h.93l.196.438h.504l-1.468-3.061Zm0 2.178c-.214 0-.384.016-.512.05a.835.835 0 0 0-.273.118l.673-1.438.666 1.27h-.555Zm-3.856-2.128v1.169a.626.626 0 0 1-.205.059c-.077.008-.145.017-.205.017-.068 0-.154-.009-.247-.017a3.81 3.81 0 0 1-.29-.034c-.094-.008-.188-.017-.273-.034-.086-.008-.145-.016-.188-.016-.068 0-.128.008-.196.017-.068.008-.128.033-.188.058v-1.236h-.444v3.01h.444V19.65a.538.538 0 0 1 .188-.059c.068-.017.128-.017.196-.017.043 0 .11.009.188.017.085.009.17.017.273.034.093.008.196.017.29.034.093.008.179.016.247.016.06 0 .128-.008.205-.017a.727.727 0 0 0 .205-.058v1.404h.443v-3.01h-.444v-.009Zm-4.172.496a.75.75 0 0 0-.46-.437 1.018 1.018 0 0 0-.367-.059h-1.57v3.01h.444v-1.16a.917.917 0 0 1 .29-.1c.102-.018.196-.026.298-.026h.538c.136 0 .255-.017.366-.059.111-.042.205-.1.282-.177a.784.784 0 0 0 .179-.277.976.976 0 0 0 .06-.362 1.18 1.18 0 0 0-.06-.353Zm-.836.79h-.537c-.103 0-.197.01-.299.018a.945.945 0 0 0-.282.1v-.967h1.127c.145 0 .255.034.332.093.077.059.111.168.111.32 0 .294-.153.437-.452.437Zm-4.837-1.336h-.495l.17.37-1.321 2.69h.486l.077-.142a.338.338 0 0 1 .093-.101.641.641 0 0 1 .188-.093c.077-.034.17-.05.273-.076.111-.016.23-.025.367-.025h.93l.196.438h.503l-1.467-3.061Zm0 2.178c-.213 0-.384.016-.503.05a.835.835 0 0 0-.273.118l.674-1.438.665 1.27h-.563Zm-3.856-2.128v1.169a.626.626 0 0 1-.204.059c-.077.008-.145.017-.205.017-.069 0-.154-.009-.248-.017-.093-.009-.187-.017-.29-.034-.093-.008-.187-.017-.273-.034-.085-.008-.145-.016-.187-.016-.069 0-.128.008-.197.017-.068.008-.128.033-.187.058l.008-1.236h-.443v3.01h.443V19.65a.538.538 0 0 1 .188-.059c.068-.017.128-.017.196-.017.043 0 .111.009.188.017.085.009.17.017.273.034.094.008.196.017.29.034.094.008.179.016.247.016.06 0 .128-.008.205-.017a.727.727 0 0 0 .205-.058v1.404h.443v-3.01h-.452v-.009Zm-4.803 0-1.791 2.321v-2.32h-.444v3.01h.444l1.791-2.321v2.32h.444v-3.01h-.444Zm-4.18.496a.75.75 0 0 0-.46-.437 1.24 1.24 0 0 0-.367-.059h-1.57v3.01h.444v-1.16a.917.917 0 0 1 .29-.1c.102-.018.196-.026.298-.026h.538c.136 0 .256-.017.367-.059.11-.042.204-.1.281-.177a.784.784 0 0 0 .18-.277.978.978 0 0 0 .068-.362 1.182 1.182 0 0 0-.069-.353Zm-.836.79h-.537c-.102 0-.196.01-.299.018a.945.945 0 0 0-.281.1v-.967h1.117c.145 0 .256.034.333.093.077.059.111.168.111.32.009.294-.145.437-.444.437Zm-5.391 1.279v-.765a.919.919 0 0 1 .281-.093 1.69 1.69 0 0 1 .29-.025h.666v-.446h-.666c-.102 0-.196.009-.298.017a.636.636 0 0 0-.282.1v-.916h1.707v-.445h-2.15v3.01h2.329v-.446h-1.877v.009Zm-4.846-2.565v.446h1.093v2.564h.434V18.43h1.075v-.446h-2.601ZM8.075 20.55v-.765a.92.92 0 0 1 .281-.093c.094-.017.197-.025.29-.025h.666v-.446h-.657c-.102 0-.196.009-.299.017a.636.636 0 0 0-.281.1v-.916H9.78v-.445H7.63v3.01h2.33v-.446H8.073v.009Zm-2.448-.665a1.057 1.057 0 0 0-.094-.218.647.647 0 0 0-.137-.16.803.803 0 0 0-.153-.1.485.485 0 0 0 .204-.245.932.932 0 0 0 .069-.353.9.9 0 0 0-.069-.353.819.819 0 0 0-.187-.26.695.695 0 0 0-.29-.16 1.23 1.23 0 0 0-.359-.05H3.066v3.01H4.62c.128 0 .256-.017.375-.043.128-.033.24-.075.342-.143a.733.733 0 0 0 .333-.63c0-.11-.018-.21-.043-.294ZM3.519 18.43h1.1c.136 0 .239.025.324.084.085.059.128.16.128.303 0 .142-.043.243-.12.31-.076.068-.187.102-.332.102h-.52c-.103 0-.197.008-.299.016a.948.948 0 0 0-.281.101v-.916Zm1.646 1.875a.348.348 0 0 1-.137.134.571.571 0 0 1-.179.076.772.772 0 0 1-.187.025H3.51v-.756a.945.945 0 0 1 .282-.101c.102-.017.196-.026.29-.026h.52c.077 0 .145.009.222.017a.67.67 0 0 1 .196.068c.06.033.102.075.136.134a.416.416 0 0 1 .052.219.27.27 0 0 1-.043.21Z" fill="fff"/></symbol></defs></svg>