<svg width="301" height="256" viewBox="0 0 301 256" fill="none" xmlns="http://www.w3.org/2000/svg">
<path opacity="0.45" fill-rule="evenodd" clip-rule="evenodd" d="M82.9383 57.1608C91.0017 60.9614 99.6907 54.6367 103.053 45.9119C106.744 36.6053 103.946 27.1626 96.3534 23.4698C88.5124 19.6313 80.1578 24.4463 76.8355 33.2144C73.2785 41.6091 75.058 53.3666 82.9383 57.1608ZM113.066 71.4992C111.951 67.6188 109.474 64.4209 106.102 62.4772C98.6708 58.2309 90.1978 61.6384 85.9617 70.5494C81.8783 78.8458 83.0817 90.313 90.8016 94.7481C98.5051 99.1485 107.862 93.5242 111.627 85.2319C113.8 80.6794 114.298 75.7983 113.066 71.4992ZM55.0876 47.3465C51.7444 46.5752 48.9272 44.3618 46.9581 41.0524C39.5848 28.7186 47.4772 7.98961 61.9594 11.3496C75.9239 14.6724 76.0248 34.8182 66.4641 43.7708C63.1144 46.9204 58.9812 48.2246 55.0876 47.3465ZM66.1369 61.7572C51.5748 56.8579 28.417 85.2556 24.4513 96.4124C19.9131 112.163 34.589 118.032 48.5442 122.746L48.5682 122.755C49.6608 123.116 50.7434 123.484 51.8148 123.849C60.9804 126.97 69.3351 129.815 76.2764 125.08C78.7961 123.236 80.6287 120.395 81.7349 116.6C84.3919 105.127 80.5033 66.9653 66.1369 61.7572ZM44.9145 56.3136C44.2016 61.9327 41.6672 66.9099 37.9427 69.9855C35.0152 72.4121 31.5399 73.4542 28.1754 72.9369C19.5568 71.5852 14.9088 61.0545 16.2607 51.8827C16.9312 46.7718 19.0828 42.4734 22.3574 39.7623C25.3165 37.3178 29.0307 36.2727 32.7939 36.8724C41.0933 38.1407 46.1863 46.3289 44.9145 56.3136Z" fill="#04A427"/>
<path opacity="0.4" fill-rule="evenodd" clip-rule="evenodd" d="M252.787 178.753C259.328 176.203 261.29 167.399 258.985 160.345C256.586 152.758 250.35 148.922 244.135 151.258C237.705 153.655 235.201 161.384 237.55 168.44C239.581 175.417 246.355 181.199 252.787 178.753ZM277.294 169.304C274.751 167.708 271.751 167.311 268.842 168.172C262.451 170.09 259.191 177.071 261.079 184.749C262.756 191.981 269.054 197.934 275.705 195.955C282.33 193.966 285.022 185.175 283.161 178.134C282.202 174.206 280.108 171.076 277.294 169.304ZM231.811 189.487C229.492 191.012 226.774 191.389 224.015 190.628C213.709 187.812 208.176 171.108 218.232 164.513C227.969 158.202 237.862 169.85 236.677 180.695C236.268 184.502 234.503 187.7 231.811 189.487ZM245.268 191.344C234.414 197.091 234.82 227.261 237.962 236.085C243.014 247.916 254.407 242.665 264.818 237.169L264.836 237.159C265.647 236.724 266.455 236.3 267.255 235.88L267.257 235.879C274.107 232.283 280.351 229.006 282.073 222.157C282.637 219.599 282.315 216.866 281.105 214.008C277.048 205.773 256.159 185.891 245.268 191.344ZM230.278 200.704C232.607 204.39 233.564 208.778 232.901 212.764C232.384 215.902 230.873 218.558 228.666 220.243C222.997 224.545 215.156 221.168 211.464 215.041C209.358 211.675 208.51 207.907 209.09 204.399C209.616 201.232 211.264 198.433 213.744 196.56C219.186 192.399 226.143 194.151 230.278 200.704Z" fill="white"/>
</svg>
