<svg width="92" height="109" viewBox="0 0 92 109" fill="none" xmlns="http://www.w3.org/2000/svg">
<path opacity="0.06" fill-rule="evenodd" clip-rule="evenodd" d="M62.6034 43.6509C70.0745 47.1723 78.1252 41.3122 81.2407 33.2283C84.6603 24.6053 82.068 15.8562 75.0331 12.4347C67.7681 8.87817 60.0272 13.3395 56.9489 21.4635C53.6532 29.2416 55.302 40.1354 62.6034 43.6509ZM90.5183 56.9342C89.4848 53.3388 87.1894 50.3758 84.0656 48.5749C77.1801 44.6405 69.3296 47.7977 65.4046 56.0541C61.6211 63.7411 62.7361 74.366 69.8889 78.4753C77.0266 82.5524 85.6963 77.3413 89.1848 69.6581C91.1979 65.44 91.6592 60.9174 90.5183 56.9342ZM36.7985 34.5579C33.7008 33.8432 31.0906 31.7924 29.2661 28.7261C22.4344 17.2983 29.7471 -1.908 43.1655 1.20517C56.1041 4.28391 56.1977 22.9498 47.3392 31.2448C44.2356 34.1631 40.406 35.3715 36.7985 34.5579ZM47.0362 47.9104C33.5438 43.371 12.0871 69.6827 8.41267 80.0199C4.20789 94.6131 17.8057 100.051 30.7358 104.419L30.758 104.427C31.7703 104.762 32.7732 105.103 33.7659 105.441L33.7662 105.441C42.2585 108.333 49.9995 110.969 56.4309 106.582C58.7655 104.873 60.4635 102.24 61.4884 98.7242C63.9502 88.0943 60.3473 52.736 47.0362 47.9104ZM27.3721 42.866C26.7116 48.0723 24.3634 52.6839 20.9124 55.5336C18.2 57.7819 14.98 58.7474 11.8627 58.2681C3.87713 57.0157 -0.429463 47.2586 0.823203 38.7605C1.44441 34.025 3.43792 30.0424 6.47206 27.5304C9.2138 25.2655 12.6551 24.2972 16.1419 24.8529C23.8317 26.028 28.5505 33.6147 27.3721 42.866Z" fill="#04A427"/>
</svg>
