<svg width="240" height="148" viewBox="0 0 240 148" fill="none" xmlns="http://www.w3.org/2000/svg">
<path opacity="0.05" fill-rule="evenodd" clip-rule="evenodd" d="M56.8421 88.0876C62.3859 90.8356 68.3598 86.2625 70.6716 79.954C73.2091 73.2248 71.2855 66.3972 66.0653 63.7271C60.6745 60.9516 54.9304 64.4332 52.6462 70.773C50.2007 76.8428 51.4242 85.3441 56.8421 88.0876ZM77.556 98.4538C76.7891 95.648 75.0858 93.3357 72.7678 91.9303C67.6586 88.86 61.8332 91.3238 58.9207 97.767C56.1132 103.766 56.9406 112.057 62.2482 115.264C67.5447 118.446 73.9779 114.379 76.5665 108.383C78.0603 105.092 78.4025 101.562 77.556 98.4538ZM37.694 80.9914C35.3954 80.4337 33.4585 78.8333 32.1047 76.4404C27.0354 67.5224 32.4616 52.5341 42.4185 54.9636C52.0195 57.3662 52.0889 71.9327 45.5156 78.4059C43.2126 80.6833 40.3709 81.6263 37.694 80.9914ZM45.291 91.4118C35.2791 87.8694 19.3575 108.402 16.6309 116.469C13.5108 127.858 23.6009 132.102 33.1955 135.51L33.212 135.517C33.9632 135.777 34.7075 136.044 35.4442 136.308C41.7458 138.564 47.4899 140.621 52.2622 137.198C53.9945 135.864 55.2545 133.81 56.015 131.066C57.8418 122.771 55.1683 95.1776 45.291 91.4118ZM30.6997 87.4746C30.2096 91.5376 28.4671 95.1363 25.9064 97.3602C23.8937 99.1148 21.5043 99.8682 19.1911 99.4942C13.2656 98.5168 10.0699 90.9026 10.9994 84.2709C11.4604 80.5754 12.9397 77.4674 15.1911 75.5071C17.2256 73.7396 19.7791 72.984 22.3665 73.4176C28.0725 74.3346 31.5741 80.2551 30.6997 87.4746Z" fill="#04A427"/>
<path opacity="0.05" fill-rule="evenodd" clip-rule="evenodd" d="M204.186 30.8138C209.063 28.8142 210.525 21.9117 208.807 16.3804C207.019 10.4322 202.37 7.42451 197.736 9.25544C192.942 11.1349 191.075 17.1949 192.827 22.7272C194.341 28.1981 199.391 32.7317 204.186 30.8138ZM222.457 23.4055C220.562 22.1537 218.324 21.843 216.156 22.5176C211.391 24.0217 208.961 29.4951 210.369 35.5154C211.619 41.1851 216.314 45.853 221.273 44.3014C226.212 42.7415 228.218 35.849 226.832 30.3285C226.116 27.2489 224.555 24.7945 222.457 23.4055ZM188.549 39.2309C186.819 40.4266 184.793 40.7218 182.736 40.1251C175.052 37.9175 170.927 24.8206 178.425 19.6498C185.684 14.7018 193.06 23.834 192.176 32.3373C191.871 35.3224 190.555 37.8293 188.549 39.2309ZM198.581 40.6851C190.489 45.1914 190.792 68.8465 193.134 75.7649C196.9 85.0411 205.395 80.9242 213.157 76.6144L213.17 76.6072C213.775 76.2659 214.378 75.9329 214.975 75.6033C220.082 72.784 224.737 70.2141 226.021 64.8446C226.441 62.8385 226.201 60.6958 225.299 58.4548C222.275 51.998 206.701 36.41 198.581 40.6851ZM187.405 48.0232C189.142 50.9133 189.855 54.3538 189.361 57.4787C188.976 59.939 187.849 62.022 186.203 63.3432C181.977 66.7156 176.131 64.0684 173.379 59.2639C171.809 56.6249 171.177 53.6708 171.609 50.9202C172.001 48.4371 173.23 46.2423 175.079 44.774C179.136 41.5114 184.322 42.8854 187.405 48.0232Z" fill="#04A427"/>
</svg>
