<svg width="201" height="117" viewBox="0 0 201 117" fill="none" xmlns="http://www.w3.org/2000/svg">
<path opacity="0.06" fill-rule="evenodd" clip-rule="evenodd" d="M49.2554 34.7741C54.0519 37.0349 59.2205 33.2727 61.2207 28.0828C63.4161 22.5467 61.7518 16.9297 57.2353 14.733C52.5712 12.4497 47.6014 15.314 45.6252 20.5296C43.5093 25.5232 44.5678 32.5171 49.2554 34.7741ZM67.179 43.3062C66.5155 40.998 65.0418 39.0957 63.0363 37.9395C58.6158 35.4136 53.5756 37.4405 51.0558 42.7412C48.6268 47.6763 49.3426 54.4976 53.9348 57.1359C58.5172 59.7534 64.0832 56.4078 66.3229 51.4751C67.6154 48.7671 67.9115 45.8635 67.179 43.3062ZM32.6877 28.9372C30.699 28.4784 29.0232 27.1618 27.8519 25.1932C23.4659 17.8564 28.1606 5.52576 36.7754 7.52445C45.0821 9.50102 45.1422 21.4847 39.455 26.8101C37.4624 28.6837 35.0038 29.4595 32.6877 28.9372ZM39.2611 37.5122C30.5989 34.5979 16.8235 51.4902 14.4645 58.1268C11.765 67.4958 20.4949 70.9871 28.7961 73.7916L28.8104 73.7966C29.4603 74.0112 30.1043 74.2304 30.7416 74.4475C36.1938 76.304 41.1636 77.9963 45.2926 75.1796C46.7914 74.0828 47.8816 72.3926 48.5396 70.1351C50.1201 63.3106 47.807 40.6103 39.2611 37.5122ZM26.6374 34.2717C26.2133 37.6142 24.7057 40.5749 22.4902 42.4044C20.7488 43.8479 18.6815 44.4677 16.6802 44.16C11.5534 43.3559 8.78848 37.0918 9.59271 31.636C9.99152 28.5957 11.2714 26.0388 13.2193 24.4261C14.9795 22.972 17.1889 22.3504 19.4275 22.7071C24.3643 23.4615 27.3939 28.3323 26.6374 34.2717Z" fill="#04A427"/>
<path opacity="0.06" fill-rule="evenodd" clip-rule="evenodd" d="M169.225 66.5333C173.444 64.8882 174.709 59.2096 173.223 54.6591C171.675 49.7656 167.653 47.2912 163.644 48.7975C159.497 50.3437 157.881 55.3292 159.397 59.8806C160.707 64.3814 165.076 68.1111 169.225 66.5333ZM185.034 60.4404C183.394 59.4106 181.459 59.155 179.583 59.7099C175.46 60.9473 173.357 65.4502 174.575 70.4031C175.657 75.0675 179.719 78.9077 184.009 77.6313C188.283 76.3479 190.019 70.6776 188.819 66.1359C188.2 63.6023 186.85 61.5831 185.034 60.4404ZM155.694 73.4598C154.198 74.4434 152.445 74.6863 150.665 74.1954C144.017 72.3792 140.448 61.6046 146.935 57.3507C153.215 53.28 159.597 60.793 158.832 67.7885C158.569 70.2443 157.43 72.3067 155.694 73.4598ZM164.376 74.6568C157.375 78.3641 157.636 97.8248 159.663 103.517C162.921 111.148 170.271 107.761 176.986 104.215L176.998 104.209C177.521 103.929 178.042 103.655 178.559 103.384L178.559 103.384C182.978 101.064 187.005 98.95 188.116 94.5325C188.48 92.8821 188.272 91.1194 187.492 89.2758C184.875 83.9638 171.401 71.1398 164.376 74.6568ZM154.706 80.6931C156.208 83.0707 156.825 85.9012 156.398 88.472C156.065 90.4961 155.09 92.2097 153.666 93.2966C150.01 96.0711 144.951 93.8933 142.57 89.9406C141.212 87.7696 140.665 85.3393 141.039 83.0764C141.378 81.0336 142.441 79.2279 144.041 78.02C147.551 75.3358 152.039 76.4662 154.706 80.6931Z" fill="#04A427"/>
</svg>
