<svg width="1440" height="2360" viewBox="0 0 1440 2360" fill="none" xmlns="http://www.w3.org/2000/svg">
<path opacity="0.04" fill-rule="evenodd" clip-rule="evenodd" d="M483.368 44.8976C490.535 47.8364 498.125 42.6369 500.983 35.5848C504.123 28.061 501.533 20.5186 494.783 17.6598C487.812 14.6876 480.498 18.6703 477.676 25.7566C474.643 32.5464 476.363 41.9615 483.368 44.8976ZM510.149 55.9889C509.115 52.8889 506.887 50.356 503.886 48.8425C497.271 45.5371 489.835 48.3914 486.208 55.6052C482.709 62.3234 483.917 71.5136 490.789 74.9666C497.645 78.3919 505.834 73.7454 509.053 67.0349C510.913 63.3494 511.29 59.4233 510.149 55.9889ZM458.656 37.4069C455.695 36.8344 453.18 35.0967 451.4 32.4671C444.734 22.6675 451.437 5.91398 464.265 8.40921C476.636 10.8818 476.981 27.0553 468.654 34.3769C465.737 36.9526 462.105 38.0575 458.656 37.4069ZM468.594 48.8252C455.676 45.0952 435.593 68.2193 432.234 77.2325C428.428 89.9416 441.459 94.4488 453.839 98.039L453.86 98.0454C454.829 98.3197 455.789 98.6005 456.74 98.8784L456.74 98.8785C464.871 101.256 472.283 103.424 478.351 99.5247C480.552 98.0091 482.133 95.7021 483.062 92.6397C485.261 83.3912 481.343 52.8059 468.594 48.8252ZM449.79 44.75C449.232 49.2715 447.058 53.3031 443.809 55.8246C441.256 57.8138 438.201 58.699 435.224 58.3308C427.598 57.366 423.361 48.976 424.438 41.5931C424.965 37.4802 426.81 33.999 429.666 31.7765C432.248 29.7724 435.513 28.8814 438.843 29.3103C446.186 30.2126 450.786 36.7156 449.79 44.75Z" fill="#04A427"/>
<path opacity="0.03" fill-rule="evenodd" clip-rule="evenodd" d="M388.947 453.384C396.562 451.965 400.117 443.479 398.692 436.005C397.248 427.981 390.981 423.05 383.76 424.31C376.291 425.595 372.307 432.908 373.781 440.392C374.916 447.741 381.469 454.717 388.947 453.384ZM417.46 448.172C414.91 446.129 411.664 445.209 408.322 445.566C400.972 446.377 396.273 452.809 397.14 460.837C397.845 468.379 403.845 475.444 411.491 474.617C419.11 473.775 423.468 465.429 422.532 458.046C422.095 453.94 420.282 450.438 417.46 448.172ZM364.124 460.497C361.326 461.623 358.27 461.527 355.348 460.284C344.432 455.668 340.975 437.957 353.105 433.095C364.838 428.461 373.902 441.861 370.879 452.528C369.826 456.275 367.374 459.173 364.124 460.497ZM378.666 464.698C365.79 468.572 361.464 498.892 363.531 508.286C367.228 521.027 380.62 517.745 392.967 514.045L392.989 514.039C393.952 513.744 394.911 513.459 395.86 513.177L395.86 513.176C403.981 510.763 411.383 508.563 414.365 501.996C415.392 499.529 415.469 496.733 414.588 493.656C411.419 484.694 391.535 461.126 378.666 464.698ZM360.659 471.476C362.643 475.577 363.004 480.143 361.642 484.024C360.576 487.08 358.49 489.481 355.79 490.787C348.86 494.113 340.749 489.364 337.649 482.577C335.86 478.836 335.521 474.911 336.715 471.494C337.797 468.411 340.057 465.891 343.087 464.444C349.745 461.219 357.137 464.187 360.659 471.476Z" fill="#04A427"/>
<path opacity="0.07" fill-rule="evenodd" clip-rule="evenodd" d="M228.095 209.807C236.395 213.49 245.338 207.36 248.799 198.904C252.597 189.883 249.718 180.731 241.903 177.151C233.833 173.431 225.233 178.098 221.814 186.596C218.153 194.733 219.985 206.129 228.095 209.807ZM259.105 223.703C257.957 219.941 255.407 216.842 251.937 214.958C244.289 210.842 235.568 214.145 231.208 222.782C227.005 230.823 228.243 241.938 236.189 246.237C244.118 250.502 253.749 245.05 257.624 237.013C259.86 232.601 260.373 227.869 259.105 223.703ZM199.429 200.293C195.988 199.546 193.089 197.4 191.062 194.193C183.473 182.238 191.596 162.146 206.502 165.403C220.875 168.624 220.979 188.15 211.139 196.828C207.691 199.88 203.437 201.144 199.429 200.293ZM210.802 214.264C195.814 209.516 171.979 237.04 167.897 247.854C163.226 263.12 178.331 268.809 192.695 273.378L192.719 273.387C193.843 273.736 194.957 274.093 196.059 274.446L196.061 274.447C205.495 277.472 214.094 280.23 221.238 275.64C223.832 273.853 225.718 271.099 226.856 267.421C229.591 256.301 225.589 219.312 210.802 214.264ZM188.959 208.987C188.226 214.433 185.617 219.257 181.783 222.238C178.77 224.59 175.193 225.6 171.73 225.099C162.86 223.789 158.076 213.582 159.467 204.692C160.157 199.738 162.372 195.572 165.742 192.944C168.788 190.575 172.611 189.562 176.484 190.143C185.026 191.373 190.268 199.309 188.959 208.987Z" fill="#04A427"/>
<path opacity="0.04" fill-rule="evenodd" clip-rule="evenodd" d="M286.095 1828.2C294.395 1831.89 303.338 1825.76 306.799 1817.3C310.597 1808.28 307.718 1799.13 299.903 1795.55C291.833 1791.83 283.234 1796.49 279.814 1804.99C276.153 1813.13 277.985 1824.53 286.095 1828.2ZM317.105 1842.1C315.957 1838.34 313.408 1835.24 309.937 1833.35C302.289 1829.24 293.568 1832.54 289.208 1841.18C285.005 1849.22 286.243 1860.33 294.189 1864.63C302.118 1868.9 311.749 1863.45 315.624 1855.41C317.86 1851 318.373 1846.27 317.105 1842.1ZM257.429 1818.69C253.988 1817.94 251.089 1815.8 249.062 1812.59C241.473 1800.63 249.596 1780.54 264.502 1783.8C278.875 1787.02 278.979 1806.55 269.139 1815.22C265.691 1818.28 261.437 1819.54 257.429 1818.69ZM268.802 1832.66C253.814 1827.91 229.979 1855.44 225.897 1866.25C221.226 1881.52 236.331 1887.21 250.695 1891.77L250.719 1891.78C251.843 1892.13 252.957 1892.49 254.059 1892.84L254.061 1892.84C263.495 1895.87 272.094 1898.63 279.238 1894.04C281.832 1892.25 283.718 1889.5 284.857 1885.82C287.591 1874.7 283.589 1837.71 268.802 1832.66ZM246.959 1827.38C246.226 1832.83 243.617 1837.65 239.783 1840.63C236.77 1842.99 233.193 1844 229.731 1843.5C220.86 1842.19 216.076 1831.98 217.467 1823.09C218.157 1818.13 220.372 1813.97 223.742 1811.34C226.788 1808.97 230.611 1807.96 234.484 1808.54C243.026 1809.77 248.268 1817.71 246.959 1827.38Z" fill="#04A427"/>
<path opacity="0.09" fill-rule="evenodd" clip-rule="evenodd" d="M184.842 2191.09C190.386 2193.84 196.36 2189.26 198.672 2182.95C201.209 2176.23 199.285 2169.4 194.065 2166.73C188.674 2163.95 182.93 2167.43 180.646 2173.77C178.201 2179.84 179.424 2188.34 184.842 2191.09ZM205.556 2201.45C204.789 2198.65 203.086 2196.34 200.768 2194.93C195.659 2191.86 189.833 2194.32 186.921 2200.77C184.113 2206.77 184.941 2215.06 190.248 2218.26C195.545 2221.45 201.978 2217.38 204.566 2211.38C206.06 2208.09 206.403 2204.56 205.556 2201.45ZM165.694 2183.99C163.395 2183.43 161.459 2181.83 160.105 2179.44C155.035 2170.52 160.462 2155.53 170.419 2157.96C180.019 2160.37 180.089 2174.93 173.516 2181.41C171.213 2183.68 168.371 2184.63 165.694 2183.99ZM173.291 2194.41C163.279 2190.87 147.357 2211.4 144.631 2219.47C141.511 2230.86 151.601 2235.1 161.196 2238.51L161.212 2238.52C161.963 2238.78 162.707 2239.04 163.444 2239.31L163.444 2239.31C169.746 2241.56 175.49 2243.62 180.262 2240.2C181.995 2238.86 183.255 2236.81 184.015 2234.07C185.842 2225.77 183.168 2198.18 173.291 2194.41ZM158.7 2190.47C158.21 2194.54 156.467 2198.14 153.906 2200.36C151.894 2202.12 149.504 2202.87 147.191 2202.49C141.266 2201.52 138.07 2193.9 138.999 2187.27C139.46 2183.58 140.94 2180.47 143.191 2178.51C145.226 2176.74 147.779 2175.98 150.366 2176.42C156.073 2177.33 159.574 2183.26 158.7 2190.47Z" fill="#04A427"/>
<path opacity="0.05" fill-rule="evenodd" clip-rule="evenodd" d="M366.652 354.308C373.953 351.628 376.142 342.375 373.569 334.96C370.892 326.987 363.933 322.955 356.996 325.409C349.82 327.929 347.024 336.052 349.647 343.468C351.914 350.802 359.474 356.879 366.652 354.308ZM394.004 344.375C391.167 342.697 387.817 342.281 384.572 343.185C377.438 345.201 373.8 352.538 375.907 360.609C377.779 368.209 384.807 374.466 392.231 372.386C399.625 370.295 402.629 361.056 400.553 353.655C399.482 349.527 397.145 346.237 394.004 344.375ZM343.242 365.59C340.653 367.193 337.62 367.588 334.54 366.788C323.038 363.829 316.862 346.273 328.086 339.341C338.953 332.708 349.995 344.95 348.672 356.349C348.216 360.35 346.246 363.711 343.242 365.59ZM358.26 367.539C346.146 373.58 346.599 405.289 350.106 414.564C355.744 426.998 368.46 421.479 380.08 415.702L380.1 415.693C381.005 415.235 381.908 414.789 382.802 414.347C390.447 410.568 397.416 407.123 399.338 399.925C399.968 397.236 399.608 394.363 398.258 391.359C393.73 382.704 370.416 361.808 358.26 367.539ZM341.53 377.378C344.129 381.252 345.197 385.865 344.457 390.053C343.881 393.351 342.195 396.144 339.731 397.915C333.404 402.435 324.652 398.887 320.532 392.446C318.182 388.909 317.235 384.949 317.882 381.262C318.469 377.933 320.309 374.991 323.077 373.023C329.15 368.649 336.915 370.491 341.53 377.378Z" fill="#04A427"/>
<path opacity="0.04" fill-rule="evenodd" clip-rule="evenodd" d="M395.652 2015.31C402.953 2012.63 405.142 2003.37 402.57 1995.96C399.893 1987.99 392.933 1983.95 385.997 1986.41C378.82 1988.93 376.025 1997.05 378.647 2004.47C380.914 2011.8 388.474 2017.88 395.652 2015.31ZM423.004 2005.38C420.167 2003.7 416.818 2003.28 413.572 2004.18C406.439 2006.2 402.8 2013.54 404.907 2021.61C406.779 2029.21 413.808 2035.47 421.231 2033.39C428.625 2031.3 431.629 2022.06 429.553 2014.66C428.482 2010.53 426.145 2007.24 423.004 2005.38ZM372.242 2026.59C369.654 2028.19 366.62 2028.59 363.54 2027.79C352.038 2024.83 345.863 2007.27 357.086 2000.34C367.954 1993.71 378.995 2005.95 377.672 2017.35C377.216 2021.35 375.246 2024.71 372.242 2026.59ZM387.261 2028.54C375.147 2034.58 375.599 2066.29 379.106 2075.56C384.744 2088 397.461 2082.48 409.08 2076.7L409.1 2076.69C410.006 2076.24 410.909 2075.79 411.802 2075.35C419.447 2071.57 426.416 2068.12 428.338 2060.92C428.968 2058.24 428.608 2055.36 427.258 2052.36C422.73 2043.7 399.416 2022.81 387.261 2028.54ZM370.53 2038.38C373.129 2042.25 374.198 2046.86 373.458 2051.05C372.881 2054.35 371.195 2057.14 368.731 2058.92C362.404 2063.44 353.652 2059.89 349.532 2053.45C347.182 2049.91 346.236 2045.95 346.882 2042.26C347.47 2038.93 349.309 2035.99 352.077 2034.02C358.15 2029.65 365.915 2031.49 370.53 2038.38Z" fill="#04A427"/>
<path opacity="0.07" fill-rule="evenodd" clip-rule="evenodd" d="M273.387 2298.99C278.264 2296.99 279.727 2290.09 278.008 2284.56C276.22 2278.61 271.571 2275.6 266.938 2277.44C262.144 2279.32 260.276 2285.38 262.028 2290.91C263.542 2296.38 268.593 2300.91 273.387 2298.99ZM291.658 2291.59C289.763 2290.33 287.526 2290.02 285.358 2290.7C280.593 2292.2 278.162 2297.68 279.57 2303.7C280.82 2309.37 285.515 2314.03 290.474 2312.48C295.413 2310.92 297.42 2304.03 296.033 2298.51C295.317 2295.43 293.756 2292.97 291.658 2291.59ZM257.75 2307.41C256.021 2308.61 253.995 2308.9 251.937 2308.31C244.254 2306.1 240.129 2293 247.626 2287.83C254.885 2282.88 262.261 2292.01 261.377 2300.52C261.072 2303.5 259.756 2306.01 257.75 2307.41ZM267.783 2308.87C259.691 2313.37 259.993 2337.03 262.335 2343.95C266.102 2353.22 274.596 2349.1 282.358 2344.79L282.371 2344.79C282.976 2344.45 283.579 2344.11 284.176 2343.78C289.283 2340.96 293.938 2338.39 295.222 2333.02C295.642 2331.02 295.402 2328.88 294.5 2326.63C291.476 2320.18 275.902 2304.59 267.783 2308.87ZM256.607 2316.2C258.343 2319.09 259.056 2322.53 258.562 2325.66C258.177 2328.12 257.05 2330.2 255.405 2331.52C251.179 2334.9 245.332 2332.25 242.58 2327.44C241.01 2324.81 240.378 2321.85 240.81 2319.1C241.202 2316.62 242.431 2314.42 244.28 2312.95C248.337 2309.69 253.524 2311.07 256.607 2316.2Z" fill="#04A427"/>
<path opacity="0.07" fill-rule="evenodd" clip-rule="evenodd" d="M1136.47 1983.34C1138.83 1978.5 1135.5 1972.33 1130.66 1969.38C1125.51 1966.16 1120.11 1967.11 1117.82 1971.67C1115.44 1976.37 1117.93 1982.18 1122.79 1985.11C1127.43 1988.16 1134.12 1988.08 1136.47 1983.34ZM1145.37 1965.24C1143.15 1965.61 1141.28 1966.91 1140.09 1968.91C1137.5 1973.31 1139.19 1979.07 1144.11 1982.61C1148.68 1985.98 1155.18 1986.24 1157.89 1981.67C1160.58 1977.11 1157.66 1970.58 1153.08 1967.4C1150.57 1965.59 1147.83 1964.83 1145.37 1965.24ZM1130.18 2000.39C1129.65 2002.47 1128.33 2004.09 1126.41 2005.06C1119.25 2008.69 1107.76 2001.74 1110.05 1992.72C1112.3 1984.03 1123.67 1985.78 1128.47 1992.74C1130.16 1995.18 1130.78 1997.96 1130.18 2000.39ZM1138.61 1994.58C1135.45 2003.51 1150.86 2020.99 1157.05 2024.55C1165.81 2028.89 1169.52 2019.97 1172.56 2011.41L1172.56 2011.4C1172.79 2010.72 1173.03 2010.06 1173.27 2009.4C1175.28 2003.78 1177.11 1998.66 1174.62 1993.76C1173.65 1991.98 1172.09 1990.54 1169.98 1989.48C1163.58 1986.74 1141.94 1985.8 1138.61 1994.58ZM1134.97 2007.75C1138.12 2008.72 1140.86 2010.8 1142.49 2013.47C1143.79 2015.58 1144.28 2017.91 1143.9 2020.03C1142.9 2025.46 1136.83 2027.5 1131.69 2025.8C1128.83 2024.91 1126.46 2023.13 1125.02 2020.78C1123.72 2018.65 1123.23 2016.17 1123.67 2013.8C1124.61 2008.57 1129.37 2006.03 1134.97 2007.75Z" fill="#04A427"/>
<path opacity="0.07" fill-rule="evenodd" clip-rule="evenodd" d="M1275.05 2002.22C1280.96 2000.46 1282.49 1992.93 1280.17 1986.62C1277.75 1979.85 1271.94 1976.07 1266.32 1977.66C1260.51 1979.3 1258.45 1985.85 1260.81 1992.16C1262.88 1998.38 1269.24 2003.89 1275.05 2002.22ZM1297.19 1995.72C1294.82 1994.15 1292.06 1993.59 1289.43 1994.13C1283.64 1995.35 1280.86 2001.2 1282.82 2008.02C1284.57 2014.44 1290.51 2020.06 1296.53 2018.81C1302.53 2017.55 1304.73 2010.08 1302.82 2003.82C1301.82 2000.33 1299.82 1997.46 1297.19 1995.72ZM1256.19 2010.08C1254.11 2011.24 1251.64 2011.38 1249.09 2010.52C1239.58 2007.34 1234.02 1992.41 1243.02 1987.38C1251.74 1982.57 1261.14 1993.41 1260.38 2002.77C1260.12 2006.05 1258.6 2008.71 1256.19 2010.08ZM1268.55 2012.64C1258.8 2016.88 1260.07 2043.18 1263.21 2051.09C1268.18 2061.75 1278.44 2057.98 1287.8 2053.93L1287.82 2053.92C1288.55 2053.6 1289.28 2053.29 1290 2052.98C1296.15 2050.33 1301.77 2047.92 1303.14 2042.07C1303.58 2039.89 1303.2 2037.48 1302.01 2034.91C1298.05 2027.45 1278.35 2008.67 1268.55 2012.64ZM1255.12 2019.74C1257.36 2023.11 1258.37 2027 1257.88 2030.42C1257.5 2033.12 1256.2 2035.33 1254.23 2036.64C1249.17 2039.98 1241.9 2036.49 1238.34 2030.89C1236.31 2027.81 1235.43 2024.47 1235.85 2021.46C1236.24 2018.74 1237.66 2016.42 1239.87 2014.96C1244.73 2011.72 1251.14 2013.74 1255.12 2019.74Z" fill="#04A427"/>
</svg>
