<svg width="768" height="2255" viewBox="0 0 768 2255" fill="none" xmlns="http://www.w3.org/2000/svg">
<path opacity="0.04" fill-rule="evenodd" clip-rule="evenodd" d="M440.939 501.986C444.714 503.371 448.572 500.582 449.939 496.923C451.444 493.017 449.97 489.197 446.412 487.845C442.738 486.439 439.003 488.601 437.656 492.277C436.193 495.805 437.247 500.599 440.939 501.986ZM455.052 507.217C454.462 505.647 453.261 504.386 451.675 503.661C448.18 502.079 444.362 503.664 442.599 507.419C440.893 510.919 441.677 515.605 445.308 517.259C448.93 518.899 453.109 516.383 454.669 512.893C455.574 510.974 455.703 508.957 455.052 507.217ZM427.97 498.56C426.42 498.316 425.083 497.468 424.113 496.151C420.482 491.243 423.684 482.551 430.395 483.615C436.868 484.675 437.321 492.953 433.116 496.841C431.643 498.209 429.773 498.836 427.97 498.56ZM433.325 504.242C426.546 502.547 416.497 514.725 414.903 519.398C413.139 525.97 419.99 528.061 426.486 529.694L426.498 529.697C427.006 529.821 427.51 529.949 428.009 530.076C432.277 531.158 436.167 532.144 439.255 530.046C440.374 529.234 441.157 528.026 441.588 526.442C442.575 521.668 440.021 506.069 433.325 504.242ZM423.483 502.468C423.269 504.793 422.207 506.894 420.561 508.24C419.267 509.301 417.694 509.805 416.14 509.666C412.159 509.299 409.814 505.073 410.249 501.273C410.453 499.158 411.354 497.344 412.801 496.159C414.109 495.089 415.792 494.578 417.53 494.743C421.363 495.082 423.865 498.336 423.483 502.468Z" fill="#04A427"/>
<path opacity="0.03" fill-rule="evenodd" clip-rule="evenodd" d="M324.12 365.317C330.466 364.152 333.429 357.185 332.241 351.049C331.038 344.462 325.815 340.414 319.797 341.448C313.574 342.503 310.254 348.507 311.482 354.651C312.428 360.684 317.889 366.411 324.12 365.317ZM347.88 361.036C345.754 359.358 343.05 358.604 340.265 358.896C334.14 359.563 330.224 364.843 330.947 371.433C331.534 377.625 336.534 383.425 342.906 382.746C349.254 382.055 352.887 375.203 352.106 369.142C351.742 365.772 350.232 362.896 347.88 361.036ZM303.436 371.156C301.104 372.08 298.557 372.001 296.122 370.981C287.025 367.191 284.145 352.651 294.253 348.659C304.031 344.856 311.584 355.856 309.065 364.614C308.187 367.689 306.144 370.069 303.436 371.156ZM315.553 374.604C304.823 377.784 301.218 402.676 302.941 410.388C306.022 420.848 317.181 418.153 327.471 415.116L327.489 415.111C328.29 414.868 329.089 414.635 329.879 414.403L329.882 414.403C336.649 412.421 342.817 410.615 345.302 405.224C346.158 403.199 346.222 400.903 345.488 398.378C342.847 391.02 326.277 371.671 315.553 374.604ZM300.546 380.171C302.2 383.538 302.5 387.286 301.366 390.472C300.477 392.981 298.739 394.952 296.489 396.024C290.714 398.755 283.955 394.855 281.371 389.284C279.881 386.213 279.598 382.991 280.593 380.186C281.494 377.654 283.378 375.585 285.903 374.398C291.451 371.75 297.611 374.186 300.546 380.171Z" fill="#04A427"/>
<path opacity="0.07" fill-rule="evenodd" clip-rule="evenodd" d="M189.169 19.8723C192.208 21.2014 195.483 18.9896 196.751 15.9385C198.142 12.6839 197.087 9.38176 194.225 8.09035C191.27 6.74802 188.12 8.43186 186.868 11.4981C185.527 14.4338 186.198 18.5455 189.169 19.8723ZM200.525 24.8864C200.104 23.5294 199.17 22.4111 197.899 21.7313C195.098 20.2464 191.904 21.438 190.307 24.5542C188.768 27.4555 189.222 31.4657 192.132 33.0167C195.036 34.5555 198.563 32.5887 199.982 29.6888C200.801 28.0968 200.989 26.3898 200.525 24.8864ZM178.669 16.4382C177.409 16.1685 176.347 15.3945 175.605 14.2372C172.825 9.92394 175.8 2.67488 181.26 3.84989C186.523 5.0119 186.562 12.057 182.958 15.1878C181.695 16.2892 180.137 16.7453 178.669 16.4382ZM182.834 21.4796C177.344 19.7663 168.615 29.6971 167.12 33.5987C165.409 39.1067 170.941 41.1592 176.202 42.8079L176.211 42.8109C176.623 42.937 177.031 43.0659 177.435 43.1935C180.89 44.2849 184.039 45.2798 186.656 43.6239C187.605 42.9791 188.296 41.9854 188.713 40.6583C189.715 36.6463 188.249 23.3009 182.834 21.4796ZM174.834 19.5763C174.565 21.5413 173.61 23.2818 172.206 24.3574C171.103 25.206 169.793 25.5704 168.524 25.3895C165.276 24.9168 163.523 21.2342 164.033 18.0267C164.286 16.2394 165.097 14.7362 166.331 13.7882C167.447 12.9333 168.847 12.5678 170.265 12.7776C173.394 13.2211 175.314 16.0845 174.834 19.5763Z" fill="#04A427"/>
<path opacity="0.05" fill-rule="evenodd" clip-rule="evenodd" d="M311.596 31.6754C313.922 30.8343 314.619 27.9308 313.8 25.6041C312.947 23.102 310.73 21.8369 308.521 22.607C306.235 23.3976 305.344 25.9467 306.18 28.2739C306.902 30.5752 309.31 32.4822 311.596 31.6754ZM320.309 28.5621C319.405 28.0356 318.338 27.9049 317.304 28.1886C315.032 28.8213 313.873 31.1237 314.544 33.6561C315.141 36.041 317.379 38.0046 319.744 37.3519C322.099 36.6957 323.056 33.7964 322.395 31.4743C322.054 30.1788 321.309 29.1464 320.309 28.5621ZM304.139 35.222C303.314 35.7249 302.348 35.8491 301.367 35.5981C297.703 34.6695 295.736 29.1603 299.311 26.9853C302.773 24.9039 306.29 28.7453 305.868 32.3222C305.723 33.5779 305.095 34.6324 304.139 35.222ZM308.922 35.8306C305.063 37.7262 305.208 47.6765 306.325 50.5867C308.12 54.4887 312.171 52.7569 315.872 50.9441L315.879 50.941C316.167 50.7975 316.455 50.6574 316.739 50.5188L316.739 50.5188C319.174 49.3328 321.394 48.2518 322.006 45.9932C322.207 45.1493 322.092 44.248 321.662 43.3054C320.22 40.5893 312.794 34.0323 308.922 35.8306ZM303.595 38.9183C304.423 40.134 304.763 41.5812 304.527 42.8957C304.344 43.9306 303.806 44.8068 303.022 45.3625C301.007 46.7811 298.219 45.6676 296.906 43.6466C296.158 42.5365 295.856 41.2939 296.062 40.1369C296.249 39.0924 296.835 38.1691 297.717 37.5515C299.652 36.1791 302.125 36.7571 303.595 38.9183Z" fill="#04A427"/>
<path opacity="0.09" fill-rule="evenodd" clip-rule="evenodd" d="M521.108 1558.52C524.864 1560.38 528.911 1557.29 530.478 1553.01C532.197 1548.45 530.893 1543.83 527.357 1542.02C523.704 1540.14 519.813 1542.5 518.265 1546.79C516.609 1550.9 517.437 1556.66 521.108 1558.52ZM535.143 1565.54C534.624 1563.64 533.47 1562.08 531.899 1561.13C528.438 1559.04 524.491 1560.71 522.518 1565.08C520.616 1569.14 521.176 1574.76 524.772 1576.93C528.361 1579.09 532.719 1576.33 534.473 1572.27C535.485 1570.04 535.717 1567.65 535.143 1565.54ZM508.136 1553.72C506.579 1553.34 505.266 1552.25 504.349 1550.63C500.915 1544.59 504.591 1534.44 511.337 1536.08C517.841 1537.71 517.888 1547.58 513.435 1551.96C511.875 1553.51 509.95 1554.15 508.136 1553.72ZM513.284 1560.77C506.501 1558.37 495.714 1572.29 493.867 1577.75C491.753 1585.47 498.589 1588.34 505.089 1590.65L505.1 1590.65C505.609 1590.83 506.114 1591.01 506.613 1591.19C510.882 1592.72 514.774 1594.11 518.007 1591.79C519.18 1590.89 520.034 1589.5 520.549 1587.64C521.787 1582.02 519.976 1563.33 513.284 1560.77ZM503.397 1558.11C503.065 1560.86 501.885 1563.3 500.15 1564.81C498.786 1565.99 497.168 1566.5 495.6 1566.25C491.586 1565.59 489.421 1560.43 490.051 1555.94C490.363 1553.43 491.365 1551.33 492.89 1550C494.269 1548.8 495.999 1548.29 497.752 1548.58C501.617 1549.21 503.99 1553.22 503.397 1558.11Z" fill="#04A427"/>
<path opacity="0.04" fill-rule="evenodd" clip-rule="evenodd" d="M645.195 1566.99C649.965 1565.24 651.395 1559.2 649.714 1554.35C647.966 1549.14 643.419 1546.51 638.887 1548.11C634.199 1549.76 632.373 1555.07 634.086 1559.91C635.567 1564.7 640.506 1568.67 645.195 1566.99ZM663.066 1560.5C661.212 1559.41 659.024 1559.13 656.903 1559.73C652.243 1561.04 649.866 1565.84 651.243 1571.11C652.466 1576.07 657.057 1580.16 661.907 1578.8C666.738 1577.44 668.7 1571.4 667.344 1566.57C666.644 1563.87 665.118 1561.72 663.066 1560.5ZM629.902 1574.36C628.211 1575.41 626.229 1575.67 624.217 1575.15C616.703 1573.21 612.668 1561.74 620.001 1557.21C627.1 1552.88 634.314 1560.88 633.45 1568.33C633.151 1570.94 631.864 1573.13 629.902 1574.36ZM639.713 1575.64C631.799 1579.58 632.095 1600.3 634.386 1606.36C638.069 1614.48 646.377 1610.88 653.968 1607.1L653.981 1607.1C654.572 1606.8 655.162 1606.51 655.746 1606.22C660.741 1603.75 665.293 1601.5 666.549 1596.79C666.96 1595.04 666.725 1593.16 665.843 1591.2C662.885 1585.54 647.654 1571.89 639.713 1575.64ZM628.785 1582.06C630.483 1584.6 631.18 1587.61 630.697 1590.35C630.32 1592.5 629.219 1594.32 627.609 1595.48C623.476 1598.43 617.758 1596.12 615.066 1591.91C613.531 1589.6 612.913 1587.01 613.335 1584.6C613.719 1582.43 614.921 1580.51 616.729 1579.22C620.697 1576.36 625.77 1577.57 628.785 1582.06Z" fill="#04A427"/>
<path opacity="0.07" fill-rule="evenodd" clip-rule="evenodd" d="M686.483 1957.75C690.547 1956.09 691.765 1950.34 690.333 1945.73C688.843 1940.77 684.969 1938.26 681.108 1939.79C677.113 1941.36 675.557 1946.41 677.017 1951.02C678.279 1955.58 682.487 1959.35 686.483 1957.75ZM701.709 1951.58C700.129 1950.54 698.265 1950.28 696.458 1950.84C692.487 1952.1 690.461 1956.66 691.635 1961.68C692.677 1966.4 696.589 1970.29 700.721 1969C704.837 1967.7 706.51 1961.95 705.354 1957.35C704.758 1954.79 703.457 1952.74 701.709 1951.58ZM673.451 1964.77C672.01 1965.77 670.322 1966.01 668.607 1965.52C662.205 1963.68 658.767 1952.76 665.015 1948.45C671.064 1944.33 677.211 1951.94 676.474 1959.03C676.22 1961.51 675.123 1963.6 673.451 1964.77ZM681.811 1965.98C675.068 1969.74 675.32 1989.45 677.272 1995.22C680.411 2002.95 687.489 1999.51 693.957 1995.92L693.969 1995.92C694.472 1995.63 694.975 1995.36 695.472 1995.08L695.473 1995.08C699.728 1992.73 703.607 1990.59 704.677 1986.12C705.028 1984.44 704.828 1982.66 704.076 1980.79C701.556 1975.41 688.578 1962.42 681.811 1965.98ZM672.499 1972.1C673.946 1974.51 674.54 1977.37 674.128 1979.98C673.807 1982.03 672.869 1983.76 671.497 1984.86C667.976 1987.67 663.104 1985.47 660.81 1981.46C659.502 1979.26 658.975 1976.8 659.335 1974.51C659.662 1972.44 660.686 1970.61 662.227 1969.39C665.608 1966.67 669.93 1967.82 672.499 1972.1Z" fill="#04A427"/>
<path opacity="0.04" fill-rule="evenodd" clip-rule="evenodd" d="M541.306 1954.17C547.058 1956.73 553.257 1952.48 555.655 1946.62C558.288 1940.36 556.292 1934.02 550.876 1931.54C545.283 1928.96 539.323 1932.2 536.953 1938.09C534.416 1943.73 535.685 1951.62 541.306 1954.17ZM562.799 1963.8C562.003 1961.2 560.236 1959.05 557.831 1957.74C552.529 1954.89 546.485 1957.18 543.463 1963.17C540.55 1968.74 541.409 1976.44 546.916 1979.42C552.411 1982.38 559.086 1978.6 561.772 1973.03C563.322 1969.97 563.677 1966.69 562.799 1963.8ZM521.44 1947.58C519.055 1947.06 517.045 1945.58 515.64 1943.35C510.381 1935.07 516.011 1921.14 526.342 1923.4C536.303 1925.63 536.375 1939.16 529.555 1945.18C527.165 1947.29 524.217 1948.17 521.44 1947.58ZM529.322 1957.26C518.934 1953.97 502.414 1973.05 499.586 1980.54C496.348 1991.12 506.817 1995.07 516.772 1998.23L516.789 1998.24C517.569 1998.48 518.341 1998.73 519.105 1998.97C525.644 2001.07 531.603 2002.98 536.555 1999.8C538.352 1998.56 539.66 1996.65 540.449 1994.1C542.344 1986.4 539.57 1960.76 529.322 1957.26ZM514.183 1953.61C513.674 1957.38 511.866 1960.73 509.209 1962.79C507.121 1964.42 504.642 1965.12 502.242 1964.78C496.094 1963.87 492.778 1956.79 493.743 1950.63C494.221 1947.2 495.756 1944.31 498.092 1942.49C500.203 1940.85 502.852 1940.15 505.537 1940.55C511.457 1941.4 515.09 1946.9 514.183 1953.61Z" fill="#04A427"/>
</svg>
