<svg width="1200" height="1945" viewBox="0 0 1200 1945" fill="none" xmlns="http://www.w3.org/2000/svg">
<path opacity="0.04" fill-rule="evenodd" clip-rule="evenodd" d="M402.806 37.4152C408.779 39.8642 415.104 35.5313 417.485 29.6545C420.102 23.3847 417.943 17.0994 412.319 14.717C406.509 12.2402 400.414 15.5592 398.063 21.4644C395.535 27.1225 396.969 34.9684 402.806 37.4152ZM425.125 46.6566C424.263 44.0733 422.407 41.9626 419.906 40.7013C414.394 37.9468 408.197 40.3254 405.175 46.3369C402.259 51.9354 403.265 59.5939 408.992 62.4714C414.706 65.3258 421.53 61.4537 424.212 55.8616C425.762 52.7904 426.076 49.5187 425.125 46.6566ZM382.215 31.1733C379.747 30.6962 377.651 29.2481 376.167 27.0568C370.612 18.8904 376.199 4.92919 386.889 7.00854C397.197 9.06906 397.485 22.547 390.546 28.6483C388.115 30.7947 385.088 31.7155 382.215 31.1733ZM390.497 40.6853C379.732 37.577 362.996 56.847 360.197 64.358C357.025 74.9489 367.884 78.705 378.2 81.6967L378.218 81.7021C379.026 81.9307 379.826 82.1648 380.618 82.3964L380.618 82.3964C387.394 84.3778 393.571 86.1839 398.627 82.9349C400.461 81.6719 401.779 79.7494 402.553 77.1974C404.386 69.4903 401.121 44.0026 390.497 40.6853ZM374.826 37.2926C374.361 41.0605 372.55 44.4201 369.842 46.5214C367.714 48.1791 365.169 48.9167 362.688 48.6099C356.333 47.8059 352.802 40.8142 353.699 34.6618C354.139 31.2344 355.676 28.3334 358.056 26.4813C360.207 24.8112 362.929 24.0687 365.703 24.4261C371.823 25.178 375.656 30.5972 374.826 37.2926Z" fill="#04A427"/>
<path opacity="0.03" fill-rule="evenodd" clip-rule="evenodd" d="M324.121 377.819C330.467 376.637 333.43 369.565 332.243 363.337C331.039 356.65 325.817 352.541 319.799 353.591C313.575 354.662 310.255 360.756 311.483 366.993C312.429 373.117 317.89 378.931 324.121 377.819ZM347.882 373.476C345.757 371.773 343.053 371.007 340.267 371.304C334.143 371.981 330.227 377.341 330.949 384.03C331.537 390.315 336.537 396.203 342.908 395.513C349.257 394.812 352.889 387.857 352.109 381.704C351.745 378.283 350.234 375.364 347.882 373.476ZM303.437 383.749C301.105 384.687 298.559 384.608 296.123 383.572C287.027 379.725 284.146 364.966 294.254 360.914C304.032 357.052 311.585 368.219 309.066 377.108C308.188 380.23 306.145 382.646 303.437 383.749ZM315.554 387.248C304.825 390.477 301.219 415.744 302.942 423.572C306.023 434.189 317.183 431.454 327.472 428.371L327.49 428.366C328.293 428.12 329.092 427.882 329.883 427.647L329.883 427.647C336.65 425.636 342.819 423.802 345.304 418.33C346.159 416.274 346.224 413.944 345.489 411.38C342.848 403.912 326.279 384.271 315.554 387.248ZM300.549 392.899C302.202 396.316 302.503 400.122 301.368 403.356C300.48 405.903 298.741 407.903 296.491 408.991C290.716 411.763 283.957 407.805 281.374 402.15C279.883 399.032 279.601 395.761 280.596 392.914C281.497 390.344 283.38 388.244 285.905 387.039C291.454 384.351 297.614 386.824 300.549 392.899Z" fill="#04A427"/>
<path opacity="0.07" fill-rule="evenodd" clip-rule="evenodd" d="M190.078 152.832C196.994 155.902 204.446 150.793 207.33 143.746C210.496 136.229 208.096 128.602 201.584 125.619C194.859 122.519 187.693 126.408 184.843 133.49C181.792 140.271 183.319 149.767 190.078 152.832ZM215.919 164.414C214.962 161.28 212.837 158.697 209.945 157.127C203.571 153.697 196.304 156.45 192.67 163.647C189.168 170.348 190.2 179.611 196.822 183.193C203.429 186.747 211.455 182.204 214.684 175.507C216.548 171.829 216.975 167.887 215.919 164.414ZM166.189 144.906C163.322 144.283 160.905 142.495 159.216 139.822C152.892 129.86 159.662 113.117 172.083 115.831C184.061 118.514 184.147 134.786 175.947 142.018C173.074 144.562 169.529 145.615 166.189 144.906ZM175.667 156.547C163.177 152.59 143.314 175.527 139.913 184.539C136.02 197.26 148.608 202.001 160.577 205.809L160.598 205.816C161.535 206.107 162.464 206.405 163.383 206.7C171.244 209.221 178.41 211.518 184.364 207.694C186.525 206.205 188.097 203.909 189.046 200.844C191.325 191.578 187.989 160.754 175.667 156.547ZM157.464 152.153C156.853 156.691 154.679 160.712 151.484 163.196C148.973 165.156 145.993 165.997 143.107 165.58C135.715 164.488 131.728 155.982 132.887 148.574C133.463 144.446 135.308 140.974 138.117 138.784C140.655 136.81 143.84 135.966 147.068 136.45C154.187 137.474 158.555 144.088 157.464 152.153Z" fill="#04A427"/>
<path opacity="0.04" fill-rule="evenodd" clip-rule="evenodd" d="M238.41 1501.5C245.326 1504.57 252.778 1499.46 255.663 1492.41C258.828 1484.9 256.428 1477.27 249.916 1474.29C243.191 1471.18 236.025 1475.07 233.175 1482.16C230.124 1488.94 231.651 1498.43 238.41 1501.5ZM264.251 1513.08C263.294 1509.95 261.169 1507.36 258.277 1505.79C251.903 1502.36 244.636 1505.12 241.003 1512.31C237.5 1519.01 238.532 1528.28 245.154 1531.86C251.761 1535.41 259.787 1530.87 263.016 1524.17C264.88 1520.5 265.307 1516.55 264.251 1513.08ZM214.521 1493.57C211.654 1492.95 209.237 1491.16 207.549 1488.49C201.224 1478.53 207.994 1461.78 220.415 1464.5C232.393 1467.18 232.479 1483.45 224.279 1490.68C221.406 1493.23 217.861 1494.28 214.521 1493.57ZM223.999 1505.21C211.509 1501.26 191.646 1524.19 188.245 1533.2C184.352 1545.93 196.94 1550.67 208.91 1554.48L208.93 1554.48C209.867 1554.77 210.796 1555.07 211.715 1555.37C219.576 1557.89 226.742 1560.18 232.696 1556.36C234.857 1554.87 236.429 1552.58 237.378 1549.51C239.657 1540.24 236.321 1509.42 223.999 1505.21ZM205.796 1500.82C205.185 1505.36 203.011 1509.38 199.816 1511.86C197.305 1513.82 194.325 1514.66 191.439 1514.25C184.047 1513.15 180.06 1504.65 181.22 1497.24C181.795 1493.11 183.64 1489.64 186.449 1487.45C188.987 1485.48 192.172 1484.63 195.4 1485.12C202.519 1486.14 206.887 1492.75 205.796 1500.82Z" fill="#04A427"/>
<path opacity="0.09" fill-rule="evenodd" clip-rule="evenodd" d="M154.031 1803.9C158.651 1806.19 163.629 1802.38 165.556 1797.12C167.67 1791.52 166.067 1785.83 161.717 1783.6C157.225 1781.29 152.438 1784.19 150.535 1789.47C148.497 1794.53 149.516 1801.62 154.031 1803.9ZM171.294 1812.54C170.655 1810.2 169.236 1808.28 167.304 1807.1C163.046 1804.55 158.192 1806.6 155.765 1811.97C153.425 1816.97 154.115 1823.88 158.538 1826.55C162.951 1829.2 168.312 1825.81 170.469 1820.82C171.714 1818.07 171.999 1815.13 171.294 1812.54ZM138.075 1797.99C136.16 1797.52 134.546 1796.19 133.418 1794.2C129.193 1786.77 133.715 1774.28 142.012 1776.3C150.013 1778.3 150.071 1790.44 144.593 1795.84C142.674 1797.73 140.306 1798.52 138.075 1797.99ZM144.406 1806.67C136.063 1803.72 122.795 1820.83 120.523 1827.55C117.923 1837.04 126.331 1840.58 134.327 1843.42L134.34 1843.43C134.967 1843.64 135.587 1843.87 136.201 1844.08C141.452 1845.97 146.239 1847.68 150.216 1844.83C151.659 1843.72 152.709 1842 153.343 1839.72C154.865 1832.8 152.637 1809.81 144.406 1806.67ZM132.246 1803.39C131.838 1806.78 130.386 1809.78 128.252 1811.63C126.575 1813.09 124.583 1813.72 122.656 1813.41C117.718 1812.59 115.055 1806.25 115.829 1800.72C116.214 1797.64 117.446 1795.05 119.322 1793.42C121.018 1791.95 123.146 1791.32 125.302 1791.68C130.057 1792.44 132.975 1797.38 132.246 1803.39Z" fill="#04A427"/>
<path opacity="0.05" fill-rule="evenodd" clip-rule="evenodd" d="M305.539 273.251C311.623 271.018 313.448 263.307 311.304 257.128C309.073 250.483 303.273 247.124 297.493 249.169C291.512 251.268 289.183 258.038 291.368 264.218C293.257 270.329 299.558 275.394 305.539 273.251ZM328.332 264.975C325.967 263.576 323.176 263.229 320.472 263.983C314.527 265.663 311.495 271.777 313.251 278.503C314.811 284.836 320.668 290.05 326.854 288.317C333.016 286.575 335.52 278.875 333.789 272.708C332.897 269.268 330.95 266.526 328.332 264.975ZM286.031 282.652C283.874 283.988 281.346 284.318 278.779 283.651C269.194 281.185 264.048 266.555 273.401 260.779C282.457 255.251 291.659 265.453 290.556 274.952C290.176 278.286 288.534 281.087 286.031 282.652ZM298.545 284.279C288.45 289.313 288.828 315.738 291.75 323.466C296.448 333.828 307.045 329.229 316.728 324.415L316.745 324.407C317.499 324.026 318.252 323.654 318.997 323.286C325.368 320.136 331.175 317.265 332.777 311.267C333.301 309.026 333.002 306.633 331.876 304.129C328.103 296.916 308.675 279.503 298.545 284.279ZM284.604 292.477C286.77 295.706 287.66 299.549 287.044 303.04C286.563 305.788 285.158 308.115 283.105 309.591C277.833 313.358 270.539 310.401 267.105 305.034C265.147 302.086 264.359 298.786 264.897 295.713C265.387 292.94 266.92 290.488 269.226 288.848C274.288 285.203 280.758 286.738 284.604 292.477Z" fill="#04A427"/>
<path opacity="0.04" fill-rule="evenodd" clip-rule="evenodd" d="M329.707 1657.42C335.79 1655.19 337.615 1647.48 335.471 1641.3C333.24 1634.65 327.44 1631.29 321.66 1633.34C315.679 1635.44 313.35 1642.21 315.535 1648.39C317.424 1654.5 323.725 1659.56 329.707 1657.42ZM352.5 1649.14C350.136 1647.75 347.345 1647.4 344.64 1648.15C338.695 1649.83 335.663 1655.95 337.419 1662.67C338.979 1669.01 344.836 1674.22 351.022 1672.49C357.184 1670.74 359.688 1663.04 357.958 1656.88C357.065 1653.44 355.118 1650.7 352.5 1649.14ZM310.198 1666.82C308.041 1668.16 305.513 1668.49 302.947 1667.82C293.361 1665.36 288.215 1650.73 297.568 1644.95C306.624 1639.42 315.826 1649.62 314.723 1659.12C314.343 1662.46 312.701 1665.26 310.198 1666.82ZM322.713 1668.45C312.618 1673.48 312.996 1699.91 315.918 1707.64C320.616 1718 331.213 1713.4 340.896 1708.58L340.913 1708.58C341.668 1708.2 342.42 1707.82 343.165 1707.46C349.536 1704.31 355.343 1701.44 356.945 1695.44C357.469 1693.2 357.17 1690.8 356.045 1688.3C352.272 1681.09 332.843 1663.67 322.713 1668.45ZM308.772 1676.65C310.938 1679.88 311.828 1683.72 311.212 1687.21C310.731 1689.96 309.326 1692.28 307.273 1693.76C302.001 1697.53 294.707 1694.57 291.274 1689.2C289.315 1686.26 288.527 1682.96 289.066 1679.88C289.555 1677.11 291.088 1674.66 293.394 1673.02C298.456 1669.37 304.926 1670.91 308.772 1676.65Z" fill="#04A427"/>
<path opacity="0.07" fill-rule="evenodd" clip-rule="evenodd" d="M227.821 1893.82C231.885 1892.16 233.103 1886.41 231.671 1881.8C230.181 1876.84 226.307 1874.33 222.446 1875.86C218.451 1877.42 216.895 1882.47 218.355 1887.08C219.616 1891.64 223.825 1895.42 227.821 1893.82ZM243.046 1887.65C241.467 1886.61 239.602 1886.35 237.796 1886.91C233.825 1888.17 231.799 1892.73 232.973 1897.74C234.015 1902.47 237.927 1906.36 242.059 1905.07C246.175 1903.77 247.847 1898.02 246.692 1893.42C246.096 1890.86 244.795 1888.81 243.046 1887.65ZM214.789 1900.84C213.348 1901.84 211.66 1902.08 209.945 1901.58C203.543 1899.74 200.105 1888.83 206.353 1884.52C212.402 1880.4 218.549 1888.01 217.812 1895.09C217.558 1897.58 216.461 1899.67 214.789 1900.84ZM223.149 1902.05C216.406 1905.81 216.658 1925.52 218.61 1931.28C221.749 1939.01 228.827 1935.58 235.295 1931.99L235.306 1931.99C235.81 1931.7 236.313 1931.42 236.81 1931.15L236.811 1931.15C241.066 1928.8 244.945 1926.66 246.015 1922.18C246.366 1920.51 246.166 1918.73 245.414 1916.86C242.894 1911.48 229.916 1898.49 223.149 1902.05ZM213.837 1908.17C215.284 1910.57 215.878 1913.44 215.466 1916.05C215.145 1918.1 214.207 1919.83 212.835 1920.93C209.313 1923.74 204.442 1921.54 202.148 1917.53C200.84 1915.33 200.313 1912.87 200.673 1910.58C201 1908.51 202.024 1906.68 203.564 1905.46C206.945 1902.74 211.268 1903.88 213.837 1908.17Z" fill="#04A427"/>
<rect x="421.668" y="175.834" width="5.83333" height="1.66667" fill="#D9D9D9"/>
<path opacity="0.07" fill-rule="evenodd" clip-rule="evenodd" d="M942.892 1604.29C944.861 1600.24 942.082 1595.11 938.054 1592.65C933.76 1589.97 929.256 1590.76 927.349 1594.55C925.367 1598.47 927.444 1603.32 931.493 1605.76C935.361 1608.3 940.931 1608.23 942.892 1604.29ZM950.311 1589.2C948.461 1589.51 946.901 1590.59 945.911 1592.26C943.747 1595.93 945.159 1600.73 949.255 1603.67C953.065 1606.49 958.485 1606.7 960.744 1602.89C962.987 1599.09 960.552 1593.65 956.737 1591C954.645 1589.5 952.36 1588.86 950.311 1589.2ZM937.65 1618.49C937.212 1620.23 936.108 1621.57 934.507 1622.38C928.541 1625.41 918.97 1619.62 920.876 1612.1C922.752 1604.85 932.229 1606.32 936.224 1612.12C937.63 1614.15 938.151 1616.47 937.65 1618.49ZM944.676 1613.65C942.044 1621.09 954.879 1635.66 960.037 1638.62C967.342 1642.24 970.432 1634.81 972.963 1627.68L972.967 1627.66C973.162 1627.1 973.359 1626.55 973.555 1626L973.555 1626C975.229 1621.32 976.754 1617.05 974.684 1612.97C973.873 1611.48 972.578 1610.28 970.818 1609.4C965.482 1607.12 947.448 1606.33 944.676 1613.65ZM941.639 1624.62C944.266 1625.43 946.55 1627.16 947.912 1629.39C948.988 1631.15 949.4 1633.09 949.081 1634.86C948.251 1639.38 943.194 1641.08 938.911 1639.67C936.523 1638.92 934.55 1637.44 933.348 1635.48C932.265 1633.71 931.857 1631.64 932.224 1629.67C933.007 1625.31 936.972 1623.19 941.639 1624.62Z" fill="#04A427"/>
<path opacity="0.07" fill-rule="evenodd" clip-rule="evenodd" d="M1058.38 1620.01C1063.3 1618.54 1064.58 1612.27 1062.65 1607.01C1060.63 1601.37 1055.78 1598.22 1051.1 1599.55C1046.26 1600.91 1044.54 1606.37 1046.51 1611.63C1048.23 1616.81 1053.54 1621.4 1058.38 1620.01ZM1076.83 1614.59C1074.85 1613.28 1072.55 1612.82 1070.36 1613.27C1065.53 1614.29 1063.22 1619.16 1064.85 1624.85C1066.31 1630.19 1071.26 1634.88 1076.28 1633.84C1081.28 1632.78 1083.11 1626.56 1081.52 1621.35C1080.69 1618.44 1079.01 1616.04 1076.83 1614.59ZM1042.66 1626.57C1040.93 1627.54 1038.87 1627.65 1036.75 1626.93C1028.82 1624.28 1024.19 1611.84 1031.69 1607.64C1038.95 1603.64 1046.78 1612.67 1046.15 1620.47C1045.93 1623.21 1044.67 1625.43 1042.66 1626.57ZM1052.96 1628.7C1044.83 1632.23 1045.89 1654.15 1048.51 1660.74C1052.65 1669.62 1061.21 1666.48 1069 1663.1L1069.02 1663.1C1069.63 1662.83 1070.23 1662.57 1070.83 1662.31C1075.96 1660.1 1080.64 1658.09 1081.78 1653.22C1082.15 1651.4 1081.84 1649.4 1080.84 1647.25C1077.55 1641.04 1061.13 1625.38 1052.96 1628.7ZM1041.77 1634.61C1043.64 1637.42 1044.48 1640.66 1044.07 1643.52C1043.75 1645.76 1042.67 1647.6 1041.03 1648.7C1036.81 1651.48 1030.75 1648.57 1027.79 1643.91C1026.1 1641.34 1025.36 1638.56 1025.71 1636.05C1026.03 1633.78 1027.22 1631.84 1029.06 1630.63C1033.11 1627.93 1038.46 1629.61 1041.77 1634.61Z" fill="#04A427"/>
</svg>
