<svg width="1920" height="2828" viewBox="0 0 1920 2828" fill="none" xmlns="http://www.w3.org/2000/svg">
<path opacity="0.04" fill-rule="evenodd" clip-rule="evenodd" d="M483.368 44.8976C490.535 47.8364 498.125 42.6369 500.983 35.5848C504.123 28.061 501.533 20.5186 494.783 17.6598C487.812 14.6876 480.498 18.6703 477.676 25.7566C474.643 32.5464 476.363 41.9615 483.368 44.8976ZM510.149 55.9889C509.115 52.8889 506.887 50.356 503.886 48.8425C497.271 45.5371 489.835 48.3914 486.208 55.6052C482.709 62.3234 483.917 71.5136 490.789 74.9666C497.645 78.3919 505.834 73.7454 509.053 67.0349C510.913 63.3494 511.29 59.4233 510.149 55.9889ZM458.656 37.4069C455.695 36.8344 453.18 35.0967 451.4 32.4671C444.734 22.6675 451.437 5.91398 464.265 8.40921C476.636 10.8818 476.981 27.0553 468.654 34.3769C465.737 36.9526 462.105 38.0575 458.656 37.4069ZM468.594 48.8252C455.676 45.0952 435.593 68.2193 432.234 77.2325C428.428 89.9416 441.459 94.4488 453.839 98.039L453.86 98.0454C454.829 98.3197 455.789 98.6005 456.74 98.8784L456.74 98.8785C464.871 101.256 472.283 103.424 478.351 99.5247C480.552 98.0091 482.133 95.7021 483.062 92.6397C485.261 83.3912 481.343 52.8059 468.594 48.8252ZM449.79 44.75C449.232 49.2715 447.058 53.3031 443.809 55.8246C441.256 57.8138 438.201 58.699 435.224 58.3308C427.598 57.366 423.361 48.976 424.438 41.5931C424.965 37.4802 426.81 33.999 429.666 31.7765C432.248 29.7724 435.513 28.8814 438.843 29.3103C446.186 30.2126 450.786 36.7156 449.79 44.75Z" fill="#04A427"/>
<path opacity="0.03" fill-rule="evenodd" clip-rule="evenodd" d="M388.948 453.384C396.562 451.965 400.118 443.479 398.693 436.005C397.249 427.981 390.982 423.05 383.761 424.31C376.292 425.595 372.308 432.908 373.782 440.392C374.917 447.741 381.47 454.717 388.948 453.384ZM417.461 448.172C414.911 446.129 411.665 445.209 408.323 445.566C400.973 446.377 396.274 452.809 397.141 460.837C397.846 468.379 403.846 475.444 411.492 474.617C419.111 473.775 423.469 465.429 422.533 458.046C422.096 453.94 420.283 450.438 417.461 448.172ZM364.125 460.497C361.327 461.623 358.271 461.527 355.349 460.284C344.433 455.668 340.976 437.957 353.106 433.095C364.839 428.461 373.903 441.861 370.88 452.528C369.827 456.275 367.375 459.173 364.125 460.497ZM378.667 464.698C365.791 468.572 361.465 498.892 363.532 508.286C367.229 521.027 380.621 517.745 392.968 514.045L392.99 514.039C393.953 513.744 394.912 513.459 395.861 513.177L395.861 513.176C403.982 510.763 411.384 508.563 414.366 501.996C415.393 499.529 415.47 496.733 414.589 493.656C411.42 484.694 391.536 461.126 378.667 464.698ZM360.66 471.476C362.644 475.577 363.005 480.143 361.643 484.024C360.577 487.08 358.491 489.481 355.79 490.787C348.861 494.113 340.75 489.364 337.65 482.577C335.861 478.836 335.522 474.911 336.716 471.494C337.798 468.411 340.057 465.891 343.087 464.444C349.746 461.219 357.138 464.187 360.66 471.476Z" fill="#04A427"/>
<path opacity="0.07" fill-rule="evenodd" clip-rule="evenodd" d="M228.095 209.806C236.395 213.49 245.338 207.36 248.799 198.903C252.597 189.883 249.718 180.73 241.903 177.151C233.833 173.431 225.233 178.098 221.814 186.596C218.153 194.733 219.985 206.129 228.095 209.806ZM259.105 223.702C257.957 219.941 255.407 216.841 251.937 214.957C244.289 210.842 235.568 214.144 231.208 222.781C227.005 230.823 228.243 241.937 236.189 246.236C244.118 250.501 253.749 245.05 257.624 237.013C259.86 232.6 260.373 227.869 259.105 223.702ZM199.429 200.293C195.988 199.545 193.089 197.4 191.062 194.192C183.473 182.238 191.596 162.146 206.502 165.403C220.875 168.623 220.979 188.15 211.139 196.827C207.691 199.88 203.437 201.144 199.429 200.293ZM210.802 214.264C195.814 209.515 171.979 237.04 167.897 247.854C163.226 263.119 178.331 268.808 192.695 273.378L192.719 273.386C193.843 273.736 194.957 274.093 196.059 274.446L196.061 274.447C205.495 277.472 214.094 280.229 221.238 275.64C223.832 273.853 225.718 271.098 226.856 267.42C229.591 256.3 225.589 219.312 210.802 214.264ZM188.959 208.986C188.226 214.433 185.617 219.257 181.783 222.238C178.77 224.59 175.193 225.6 171.73 225.098C162.86 223.788 158.076 213.581 159.467 204.692C160.157 199.738 162.372 195.572 165.742 192.944C168.788 190.574 172.611 189.562 176.484 190.143C185.026 191.372 190.268 199.309 188.959 208.986Z" fill="#04A427"/>
<path opacity="0.04" fill-rule="evenodd" clip-rule="evenodd" d="M286.095 1828.2C294.395 1831.89 303.338 1825.76 306.799 1817.3C310.597 1808.28 307.718 1799.13 299.903 1795.55C291.833 1791.83 283.234 1796.49 279.814 1804.99C276.153 1813.13 277.985 1824.53 286.095 1828.2ZM317.105 1842.1C315.957 1838.34 313.408 1835.24 309.937 1833.35C302.289 1829.24 293.568 1832.54 289.208 1841.18C285.005 1849.22 286.243 1860.33 294.189 1864.63C302.118 1868.9 311.749 1863.45 315.624 1855.41C317.86 1851 318.373 1846.27 317.105 1842.1ZM257.429 1818.69C253.988 1817.94 251.089 1815.8 249.062 1812.59C241.473 1800.63 249.596 1780.54 264.502 1783.8C278.875 1787.02 278.979 1806.55 269.139 1815.22C265.691 1818.28 261.437 1819.54 257.429 1818.69ZM268.802 1832.66C253.814 1827.91 229.979 1855.44 225.897 1866.25C221.226 1881.52 236.331 1887.2 250.695 1891.77L250.719 1891.78C251.843 1892.13 252.957 1892.49 254.059 1892.84L254.061 1892.84C263.495 1895.87 272.094 1898.63 279.238 1894.04C281.832 1892.25 283.718 1889.49 284.857 1885.82C287.591 1874.7 283.589 1837.71 268.802 1832.66ZM246.959 1827.38C246.226 1832.83 243.617 1837.65 239.783 1840.63C236.77 1842.99 233.193 1844 229.731 1843.49C220.86 1842.18 216.076 1831.98 217.467 1823.09C218.157 1818.13 220.372 1813.97 223.742 1811.34C226.788 1808.97 230.611 1807.96 234.484 1808.54C243.026 1809.77 248.268 1817.7 246.959 1827.38Z" fill="#04A427"/>
<path opacity="0.07" fill-rule="evenodd" clip-rule="evenodd" d="M263.841 2633.69C269.385 2636.44 275.359 2631.87 277.671 2625.56C280.208 2618.83 278.285 2612 273.064 2609.33C267.673 2606.56 261.929 2610.04 259.645 2616.38C257.2 2622.45 258.423 2630.95 263.841 2633.69ZM284.555 2644.06C283.788 2641.25 282.085 2638.94 279.767 2637.54C274.658 2634.47 268.832 2636.93 265.92 2643.37C263.112 2649.37 263.94 2657.66 269.247 2660.87C274.544 2664.05 280.977 2659.98 283.565 2653.99C285.059 2650.7 285.402 2647.17 284.555 2644.06ZM244.693 2626.6C242.394 2626.04 240.458 2624.44 239.104 2622.05C234.034 2613.13 239.461 2598.14 249.418 2600.57C259.019 2602.97 259.088 2617.54 252.515 2624.01C250.212 2626.29 247.37 2627.23 244.693 2626.6ZM252.29 2637.02C242.278 2633.47 226.356 2654.01 223.63 2662.07C220.51 2673.46 230.6 2677.71 240.195 2681.12L240.211 2681.12C240.962 2681.38 241.707 2681.65 242.443 2681.91L242.443 2681.91C248.745 2684.17 254.489 2686.23 259.261 2682.8C260.994 2681.47 262.254 2679.42 263.014 2676.67C264.841 2668.38 262.167 2640.78 252.29 2637.02ZM237.699 2633.08C237.209 2637.14 235.466 2640.74 232.905 2642.97C230.893 2644.72 228.503 2645.47 226.19 2645.1C220.265 2644.12 217.069 2636.51 217.998 2629.88C218.459 2626.18 219.939 2623.07 222.19 2621.11C224.225 2619.35 226.778 2618.59 229.366 2619.02C235.072 2619.94 238.573 2625.86 237.699 2633.08Z" fill="#04A427"/>
<path opacity="0.07" fill-rule="evenodd" clip-rule="evenodd" d="M1488.01 2339.6C1493.88 2337.76 1495.77 2331 1493.83 2325.51C1491.81 2319.61 1486.31 2316.52 1480.73 2318.2C1474.97 2319.92 1472.61 2325.84 1474.59 2331.33C1476.29 2336.76 1482.24 2341.36 1488.01 2339.6ZM1510 2332.79C1507.76 2331.51 1505.09 2331.14 1502.49 2331.75C1496.76 2333.1 1493.74 2338.43 1495.3 2344.39C1496.68 2350.01 1502.2 2354.73 1508.16 2353.33C1514.1 2351.93 1516.64 2345.2 1515.09 2339.73C1514.3 2336.67 1512.48 2334.22 1510 2332.79ZM1469.14 2347.46C1467.05 2348.59 1464.62 2348.83 1462.18 2348.19C1453.04 2345.81 1448.37 2332.8 1457.44 2327.91C1466.22 2323.23 1474.85 2332.42 1473.62 2340.77C1473.2 2343.7 1471.57 2346.14 1469.14 2347.46ZM1481.11 2349.16C1471.34 2353.38 1471.22 2376.68 1473.88 2383.56C1478.2 2392.79 1488.44 2388.96 1497.8 2384.93L1497.82 2384.92C1498.55 2384.6 1499.28 2384.29 1500 2383.98L1500 2383.98C1506.16 2381.34 1511.78 2378.94 1513.42 2373.69C1513.96 2371.72 1513.72 2369.61 1512.69 2367.38C1509.2 2360.94 1490.9 2345.17 1481.11 2349.16ZM1467.6 2356.09C1469.62 2358.98 1470.4 2362.39 1469.74 2365.45C1469.23 2367.86 1467.85 2369.88 1465.85 2371.14C1460.73 2374.35 1453.8 2371.58 1450.6 2366.78C1448.78 2364.14 1448.08 2361.21 1448.66 2358.52C1449.17 2356.08 1450.69 2353.95 1452.93 2352.56C1457.84 2349.46 1464.02 2350.95 1467.6 2356.09Z" fill="#04A427"/>
<path opacity="0.05" fill-rule="evenodd" clip-rule="evenodd" d="M368.652 419.691C375.953 417.01 378.142 407.757 375.569 400.343C372.892 392.369 365.933 388.337 358.996 390.792C351.82 393.311 349.024 401.434 351.647 408.85C353.914 416.184 361.474 422.261 368.652 419.691ZM396.004 409.758C393.167 408.079 389.817 407.663 386.572 408.567C379.438 410.583 375.8 417.921 377.907 425.991C379.779 433.591 386.807 439.848 394.231 437.768C401.625 435.677 404.629 426.438 402.553 419.038C401.482 414.909 399.145 411.619 396.004 409.758ZM345.242 430.972C342.653 432.575 339.62 432.971 336.54 432.171C325.038 429.211 318.862 411.655 330.086 404.724C340.953 398.091 351.995 410.333 350.672 421.731C350.216 425.733 348.246 429.093 345.242 430.972ZM360.26 432.921C348.146 438.962 348.599 470.672 352.106 479.946C357.744 492.381 370.46 486.862 382.08 481.085L382.1 481.075C383.005 480.617 383.908 480.171 384.802 479.729C392.447 475.95 399.416 472.505 401.338 465.307C401.968 462.618 401.608 459.746 400.258 456.742C395.73 448.086 372.416 427.191 360.26 432.921ZM343.53 442.761C346.129 446.635 347.197 451.247 346.457 455.436C345.881 458.734 344.195 461.526 341.731 463.297C335.404 467.818 326.652 464.269 322.532 457.829C320.182 454.291 319.235 450.331 319.882 446.644C320.469 443.315 322.309 440.373 325.077 438.405C331.15 434.032 338.915 435.873 343.53 442.761Z" fill="#04A427"/>
<path opacity="0.04" fill-rule="evenodd" clip-rule="evenodd" d="M426.652 2038.09C433.953 2035.41 436.142 2026.15 433.57 2018.74C430.893 2010.77 423.933 2006.73 416.997 2009.19C409.82 2011.71 407.025 2019.83 409.647 2027.25C411.914 2034.58 419.474 2040.66 426.652 2038.09ZM454.004 2028.15C451.167 2026.48 447.818 2026.06 444.572 2026.96C437.439 2028.98 433.8 2036.32 435.907 2044.39C437.779 2051.99 444.808 2058.24 452.231 2056.17C459.625 2054.07 462.629 2044.83 460.553 2037.43C459.482 2033.31 457.145 2030.02 454.004 2028.15ZM403.242 2049.37C400.654 2050.97 397.62 2051.37 394.54 2050.57C383.038 2047.61 376.863 2030.05 388.086 2023.12C398.954 2016.49 409.995 2028.73 408.672 2040.13C408.216 2044.13 406.246 2047.49 403.242 2049.37ZM418.261 2051.32C406.147 2057.36 406.599 2089.07 410.106 2098.34C415.744 2110.78 428.461 2105.26 440.08 2099.48L440.1 2099.47C441.006 2099.01 441.909 2098.57 442.802 2098.13C450.447 2094.35 457.416 2090.9 459.338 2083.7C459.968 2081.01 459.608 2078.14 458.258 2075.14C453.73 2066.48 430.416 2045.59 418.261 2051.32ZM401.53 2061.16C404.129 2065.03 405.198 2069.64 404.458 2073.83C403.881 2077.13 402.195 2079.92 399.731 2081.69C393.404 2086.21 384.652 2082.67 380.532 2076.23C378.182 2072.69 377.236 2068.73 377.882 2065.04C378.47 2061.71 380.309 2058.77 383.077 2056.8C389.15 2052.43 396.915 2054.27 401.53 2061.16Z" fill="#04A427"/>
<path opacity="0.07" fill-rule="evenodd" clip-rule="evenodd" d="M352.387 2741.6C357.264 2739.6 358.727 2732.7 357.008 2727.17C355.22 2721.22 350.571 2718.21 345.938 2720.04C341.144 2721.92 339.276 2727.98 341.028 2733.51C342.542 2738.98 347.593 2743.52 352.387 2741.6ZM370.658 2734.19C368.763 2732.94 366.526 2732.63 364.358 2733.3C359.593 2734.81 357.162 2740.28 358.57 2746.3C359.82 2751.97 364.515 2756.64 369.474 2755.09C374.413 2753.53 376.42 2746.63 375.033 2741.11C374.317 2738.03 372.756 2735.58 370.658 2734.19ZM336.75 2750.02C335.021 2751.21 332.995 2751.51 330.937 2750.91C323.254 2748.7 319.129 2735.61 326.626 2730.43C333.885 2725.49 341.261 2734.62 340.377 2743.12C340.072 2746.11 338.756 2748.61 336.75 2750.02ZM346.783 2751.47C338.691 2755.98 338.993 2779.63 341.335 2786.55C345.102 2795.83 353.596 2791.71 361.358 2787.4L361.371 2787.39C361.976 2787.05 362.579 2786.72 363.176 2786.39C368.283 2783.57 372.938 2781 374.222 2775.63C374.642 2773.62 374.402 2771.48 373.5 2769.24C370.476 2762.78 354.902 2747.2 346.783 2751.47ZM335.607 2758.81C337.343 2761.7 338.056 2765.14 337.562 2768.26C337.177 2770.72 336.05 2772.81 334.405 2774.13C330.179 2777.5 324.332 2774.85 321.58 2770.05C320.01 2767.41 319.378 2764.46 319.81 2761.71C320.202 2759.22 321.431 2757.03 323.28 2755.56C327.337 2752.3 332.524 2753.67 335.607 2758.81Z" fill="#04A427"/>
<path opacity="0.07" fill-rule="evenodd" clip-rule="evenodd" d="M1629.81 2355.24C1633.93 2351.76 1633.83 2345.23 1631.05 2341.02C1628.12 2336.48 1623.14 2335.52 1619.21 2338.76C1615.14 2342.11 1614.68 2348.05 1617.5 2352.25C1620.07 2356.47 1625.75 2358.62 1629.81 2355.24ZM1645.28 2342.28C1643.24 2341.86 1641.09 2342.39 1639.21 2343.75C1635.09 2346.76 1633.98 2352.39 1636.58 2357.13C1638.95 2361.62 1644.32 2364.02 1648.62 2360.9C1652.89 2357.78 1653.3 2351.06 1650.83 2346.75C1649.51 2344.32 1647.53 2342.74 1645.28 2342.28ZM1617.02 2368.14C1615.66 2369.8 1613.83 2370.78 1611.79 2370.99C1604.15 2371.81 1597.52 2361.87 1603.41 2354.7C1609.13 2347.8 1617.95 2353.13 1618.93 2360.85C1619.28 2363.56 1618.59 2366.21 1617.02 2368.14ZM1626.68 2365.83C1620.1 2372.64 1625.41 2393.14 1629.07 2398.33C1634.56 2405.07 1641.6 2398.45 1647.92 2391.93L1647.94 2391.92C1648.43 2391.41 1648.92 2390.9 1649.41 2390.4C1653.57 2386.13 1657.36 2382.23 1657.42 2377.1C1657.38 2375.2 1656.7 2373.42 1655.38 2371.79C1651.19 2367.24 1633.35 2359.22 1626.68 2365.83ZM1617.82 2376.21C1620.06 2378.11 1621.46 2380.85 1621.66 2383.75C1621.82 2386.03 1621.22 2388.24 1619.96 2389.98C1616.74 2394.42 1610.72 2394.2 1607.13 2391C1605.11 2389.26 1603.89 2386.91 1603.71 2384.36C1603.54 2382.06 1604.22 2379.71 1605.64 2377.77C1608.72 2373.48 1613.85 2372.83 1617.82 2376.21Z" fill="#04A427"/>
</svg>
