<svg width="235" height="95" viewBox="0 0 235 95" fill="none" xmlns="http://www.w3.org/2000/svg">
<path opacity="0.07" fill-rule="evenodd" clip-rule="evenodd" d="M204.989 42.6788C209.053 41.0124 210.271 35.2603 208.839 30.6509C207.349 25.6941 203.475 23.1877 199.614 24.7135C195.619 26.2797 194.063 31.3297 195.523 35.94C196.784 40.499 200.993 44.277 204.989 42.6788ZM220.214 36.5075C218.635 35.4643 216.77 35.2054 214.964 35.7675C210.993 37.021 208.967 41.5821 210.141 46.5991C211.183 51.3238 215.095 55.2137 219.227 53.9208C223.343 52.6208 225.015 46.8771 223.86 42.2767C223.263 39.7103 221.963 37.665 220.214 36.5075ZM191.957 49.694C190.516 50.6904 188.828 50.9364 187.113 50.4392C180.71 48.5995 177.273 37.6854 183.521 33.3764C189.57 29.253 195.716 36.8633 194.98 43.9493C194.726 46.4369 193.629 48.526 191.957 49.694ZM200.317 50.9061C193.574 54.6614 193.826 74.374 195.778 80.1393C198.916 87.8695 205.995 84.4387 212.463 80.8473L212.474 80.8412C212.978 80.557 213.481 80.2796 213.978 80.0051L213.978 80.0047C218.234 77.6553 222.113 75.5137 223.183 71.039C223.534 69.3673 223.334 67.5817 222.582 65.7143C220.062 60.3336 207.084 47.3436 200.317 50.9061ZM191.005 57.0206C192.452 59.429 193.046 62.2961 192.634 64.9002C192.313 66.9504 191.375 68.6863 190.003 69.7873C186.481 72.5976 181.609 70.3916 179.316 66.3878C178.008 64.1887 177.481 61.7269 177.841 59.4348C178.168 57.3655 179.192 55.5365 180.732 54.313C184.113 51.5941 188.436 52.7391 191.005 57.0206Z" fill="#04A427"/>
<path opacity="0.04" fill-rule="evenodd" clip-rule="evenodd" d="M59.8122 39.096C65.5642 41.6492 71.7625 37.4005 74.1611 31.5395C76.7939 25.2876 74.798 18.9443 69.3818 16.4636C63.7885 13.8851 57.8287 17.1197 55.4588 23.0097C52.9214 28.649 54.1908 36.5472 59.8122 39.096ZM81.3044 48.7284C80.5087 46.1217 78.7415 43.9735 76.3364 42.6678C71.0353 39.8153 64.9911 42.1043 61.9692 48.0904C59.0563 53.6636 59.9148 61.3669 65.4218 64.3462C70.9171 67.3022 77.5919 63.5241 80.2777 57.9536C81.8276 54.8954 82.1827 51.6164 81.3044 48.7284ZM39.9454 32.504C37.5605 31.9858 35.5509 30.499 34.1462 28.2758C28.8865 19.9904 34.5165 6.0654 44.8474 8.32252C54.8089 10.5547 54.8809 24.0879 48.0608 30.1019C45.6713 32.2177 42.7229 33.0938 39.9454 32.504ZM47.8278 42.1865C37.4399 38.8953 20.9203 57.9719 18.0914 65.4666C14.8541 76.047 25.3231 79.9898 35.278 83.1568L35.2951 83.1625C36.0746 83.4048 36.8468 83.6525 37.6111 83.8975C44.1494 85.9942 50.1092 87.9053 55.0608 84.7243C56.8582 83.4858 58.1655 81.577 58.9546 79.0276C60.8499 71.3207 58.076 45.6851 47.8278 42.1865ZM32.6886 38.5322C32.1801 42.3069 30.3721 45.6503 27.7152 47.7165C25.6269 49.3466 23.1478 50.0465 20.7478 49.6991C14.5997 48.791 11.284 41.7169 12.2484 35.5556C12.7267 32.1223 14.2615 29.2348 16.5975 27.4136C18.7084 25.7714 21.3579 25.0694 24.0424 25.4723C29.9627 26.3242 33.5958 31.8248 32.6886 38.5322Z" fill="#04A427"/>
</svg>
