<svg width="181" height="96" viewBox="0 0 181 96" fill="none" xmlns="http://www.w3.org/2000/svg">
<path opacity="0.07" fill-rule="evenodd" clip-rule="evenodd" d="M27.892 25.2862C29.8606 21.2454 27.0815 16.1075 23.0539 13.6471C18.76 10.9668 14.2562 11.758 12.3489 15.5543C10.3675 19.4729 12.4442 24.3179 16.493 26.7599C20.3611 29.2999 25.9305 29.2292 27.892 25.2862ZM35.3109 10.1995C33.4609 10.5062 31.9013 11.595 30.9114 13.2579C28.7474 16.926 30.1594 21.7287 34.255 24.6718C38.0649 27.4868 43.485 27.7034 45.7443 23.8947C47.9869 20.0921 45.5521 14.6484 41.7369 12.0045C39.6448 10.4963 37.3604 9.86212 35.3109 10.1995ZM22.6502 39.4932C22.2123 41.2291 21.1081 42.5742 19.5074 43.3819C13.5412 46.4107 3.96988 40.617 5.87555 33.0988C7.75211 25.8557 17.2288 27.3166 21.2242 33.1199C22.6302 35.1541 23.1507 37.47 22.6502 39.4932ZM29.6755 34.6501C27.0441 42.0953 39.8789 56.6568 45.0367 59.6237C52.3419 63.2432 55.432 55.8099 57.9629 48.6765L57.9674 48.6642C58.1615 48.1052 58.3592 47.5521 58.5548 47.0047L58.5549 47.0044C60.2287 42.3211 61.7545 38.0521 59.6835 33.9715C58.8731 32.4809 57.5779 31.2838 55.818 30.4049C50.4822 28.1164 32.4477 27.3331 29.6755 34.6501ZM26.6392 45.6257C29.2658 46.4308 31.5496 48.165 32.9123 50.3948C33.9877 52.1481 34.3997 54.0913 34.0808 55.8576C33.2514 60.3805 28.1944 62.0826 23.9114 60.6674C21.5228 59.9233 19.5497 58.4456 18.3483 56.4846C17.2652 54.713 16.8571 52.6415 17.2238 50.6673C18.0068 46.3094 21.9721 44.1925 26.6392 45.6257Z" fill="#04A427"/>
<path opacity="0.07" fill-rule="evenodd" clip-rule="evenodd" d="M143.38 41.0077C148.302 39.5418 149.579 33.2691 147.646 28.0144C145.629 22.3683 140.781 19.2179 136.102 20.5467C131.26 21.9079 129.543 27.3689 131.51 32.6273C133.231 37.81 138.539 42.4042 143.38 41.0077ZM161.826 35.5939C159.848 34.2857 157.551 33.8217 155.356 34.2749C150.532 35.2909 148.22 40.1646 149.851 45.8475C151.309 51.1933 156.257 55.8839 161.278 54.8392C166.278 53.7853 168.111 47.5648 166.518 42.3462C165.689 39.4395 164.015 37.0449 161.826 35.5939ZM127.66 47.5659C125.93 48.536 123.868 48.6493 121.746 47.9348C113.82 45.2853 109.187 32.8388 116.688 28.645C123.953 24.6385 131.784 33.6723 131.15 41.4722C130.933 44.2108 129.667 46.427 127.66 47.5659ZM137.963 49.7012C129.833 53.2332 130.892 75.1494 133.507 81.7372C137.652 90.6193 146.206 87.4794 154.005 84.1034L154.018 84.0977C154.626 83.8296 155.232 83.569 155.832 83.3111C160.963 81.1048 165.641 79.0938 166.783 74.2257C167.15 72.4023 166.836 70.4003 165.843 68.2551C162.546 62.0408 146.129 46.3854 137.963 49.7012ZM126.77 55.6124C128.637 58.4241 129.476 61.6646 129.07 64.5176C128.754 66.7642 127.668 68.6031 126.028 69.696C121.814 72.4836 115.753 69.5723 112.786 64.9086C111.098 62.3424 110.358 59.5585 110.712 57.047C111.034 54.7799 112.221 52.8455 114.065 51.6326C118.109 48.9332 123.455 50.6141 126.77 55.6124Z" fill="#04A427"/>
</svg>
