<svg width="152" height="176" viewBox="0 0 152 176" fill="none" xmlns="http://www.w3.org/2000/svg">
<path opacity="0.09" fill-rule="evenodd" clip-rule="evenodd" d="M48.0313 34.9014C52.6511 37.1915 57.6294 33.3806 59.5559 28.1235C61.6705 22.5158 60.0674 16.8261 55.7173 14.601C51.2249 12.2882 46.4382 15.1894 44.5347 20.4726C42.4968 25.5308 43.5164 32.6152 48.0313 34.9014ZM65.294 43.5409C64.6549 41.2028 63.2355 39.2759 61.3038 38.1047C57.0461 35.5461 52.1916 37.5993 49.7646 42.9686C47.425 47.9675 48.1145 54.8771 52.5375 57.5495C56.9512 60.2009 62.3122 56.812 64.4694 51.8155C65.7142 49.0724 65.9994 46.1313 65.294 43.5409ZM32.0753 28.9896C30.1599 28.5248 28.5458 27.1912 27.4176 25.1971C23.1931 17.7654 27.715 5.2752 36.0125 7.29974C44.0132 9.3019 44.0711 21.4407 38.5934 26.835C36.6742 28.7328 34.3061 29.5187 32.0753 28.9896ZM38.4063 37.6716C30.0631 34.7196 16.7951 51.8305 14.523 58.553C11.9229 68.0432 20.3312 71.5797 28.3268 74.4205L28.3405 74.4255C28.9665 74.6429 29.5868 74.865 30.2007 75.0848C35.452 76.9654 40.2387 78.6796 44.2157 75.8264C45.6593 74.7155 46.7093 73.0034 47.343 70.7167C48.8653 63.8039 46.6374 40.8098 38.4063 37.6716ZM26.2463 34.3929C25.8379 37.7787 24.3858 40.7777 22.2518 42.6309C20.5746 44.093 18.5834 44.7209 16.6558 44.4092C11.7178 43.5948 9.05479 37.2495 9.82939 31.7231C10.2135 28.6435 11.4462 26.0535 13.3224 24.42C15.0178 22.9471 17.1458 22.3174 19.3019 22.6787C24.057 23.4429 26.9749 28.3767 26.2463 34.3929Z" fill="#04A427"/>
<path opacity="0.07" fill-rule="evenodd" clip-rule="evenodd" d="M121.821 124.823C125.885 123.157 127.103 117.405 125.671 112.795C124.181 107.839 120.307 105.332 116.446 106.858C112.451 108.424 110.895 113.474 112.355 118.085C113.616 122.644 117.825 126.422 121.821 124.823ZM137.046 118.652C135.467 117.609 133.602 117.35 131.796 117.912C127.825 119.165 125.799 123.727 126.973 128.744C128.015 133.468 131.927 137.358 136.059 136.065C140.175 134.765 141.847 129.022 140.692 124.421C140.096 121.855 138.795 119.81 137.046 118.652ZM108.789 131.839C107.348 132.835 105.66 133.081 103.945 132.584C97.5425 130.744 94.105 119.83 100.353 115.521C106.402 111.398 112.549 119.008 111.812 126.094C111.558 128.581 110.461 130.671 108.789 131.839ZM117.149 133.051C110.406 136.806 110.658 156.518 112.61 162.284C115.749 170.014 122.827 166.583 129.295 162.992L129.306 162.986C129.81 162.702 130.313 162.424 130.81 162.15L130.811 162.149C135.066 159.8 138.945 157.658 140.015 153.184C140.366 151.512 140.166 149.726 139.414 147.859C136.894 142.478 123.916 129.488 117.149 133.051ZM107.837 139.165C109.284 141.574 109.878 144.441 109.466 147.045C109.145 149.095 108.207 150.831 106.835 151.932C103.313 154.742 98.4415 152.536 96.1479 148.532C94.8398 146.333 94.313 143.871 94.673 141.579C94.9999 139.51 96.0239 137.681 97.5644 136.457C100.945 133.739 105.268 134.884 107.837 139.165Z" fill="#04A427"/>
</svg>
