<svg width="235" height="480" viewBox="0 0 235 480" fill="none" xmlns="http://www.w3.org/2000/svg">
<path opacity="0.09" fill-rule="evenodd" clip-rule="evenodd" d="M39.778 28.5219C43.5339 30.3837 47.5812 27.2854 49.1475 23.0114C50.8666 18.4524 49.5633 13.8267 46.0267 12.0177C42.3744 10.1374 38.4828 12.4961 36.9353 16.7913C35.2785 20.9036 36.1074 26.6632 39.778 28.5219ZM53.8132 35.5446C53.2936 33.6437 52.1397 32.0772 50.5693 31.125C47.1078 29.0449 43.1611 30.7141 41.1879 35.0793C39.2859 39.1435 39.8464 44.7609 43.4423 46.9335C47.0306 49.0891 51.3891 46.334 53.1428 42.2718C54.1549 40.0417 54.3868 37.6506 53.8132 35.5446ZM26.8059 23.7157C25.2486 23.3378 23.9364 22.2536 23.0192 20.6324C19.5847 14.5905 23.261 4.436 30.0068 6.08194C36.5114 7.70969 36.5584 17.5784 32.105 21.964C30.5448 23.5069 28.6195 24.1458 26.8059 23.7157ZM31.9537 30.7741C25.1707 28.3741 14.3839 42.2852 12.5367 47.7506C10.4228 55.4661 17.2588 58.3413 23.7591 60.6508L23.7703 60.6549C24.2792 60.8316 24.7835 61.0122 25.2826 61.1909C29.5519 62.7198 33.4435 64.1134 36.6767 61.7938C37.8504 60.8906 38.704 59.4987 39.2193 57.6396C40.4569 52.0195 38.6456 33.3254 31.9537 30.7741ZM22.0673 28.1078C21.7353 30.8604 20.5547 33.2985 18.8199 34.8052C17.4563 35.9939 15.8374 36.5044 14.2703 36.251C10.2557 35.5888 8.09071 30.4302 8.72046 25.9372C9.03275 23.4335 10.0349 21.3279 11.5603 19.9998C12.9386 18.8023 14.6687 18.2904 16.4216 18.5842C20.2874 19.2054 22.6597 23.2166 22.0673 28.1078Z" fill="#04A427"/>
<path opacity="0.04" fill-rule="evenodd" clip-rule="evenodd" d="M163.865 36.992C168.635 35.2408 170.065 29.1959 168.384 24.3519C166.635 19.1428 162.089 16.5088 157.557 18.1123C152.869 19.7582 151.043 25.0652 152.756 29.9102C154.237 34.7013 159.176 38.6715 163.865 36.992ZM181.736 30.5026C179.882 29.4063 177.694 29.1342 175.573 29.725C170.913 31.0422 168.536 35.8355 169.913 41.1078C171.136 46.073 175.727 50.1609 180.577 48.8021C185.407 47.4361 187.37 41.4 186.014 36.5654C185.314 33.8684 183.787 31.719 181.736 30.5026ZM148.572 44.3623C146.881 45.4094 144.899 45.6679 142.887 45.1453C135.373 43.212 131.338 31.7424 138.671 27.2142C145.77 22.8809 152.984 30.8785 152.119 38.3252C151.821 40.9394 150.534 43.1348 148.572 44.3623ZM158.383 45.637C150.469 49.5834 150.765 70.2992 153.056 76.3581C156.739 84.4817 165.047 80.8763 172.638 77.102L172.651 77.0957C173.242 76.7968 173.832 76.5052 174.416 76.2166C179.411 73.7476 183.963 71.497 185.219 66.7946C185.63 65.0378 185.395 63.1613 184.513 61.1988C181.555 55.5443 166.324 41.8931 158.383 45.637ZM147.455 52.0648C149.153 54.5958 149.85 57.6088 149.367 60.3454C148.99 62.5 147.889 64.3242 146.279 65.4813C142.146 68.4346 136.428 66.1163 133.736 61.9088C132.201 59.5977 131.583 57.0107 132.005 54.6019C132.389 52.4273 133.591 50.5051 135.399 49.2193C139.367 46.3621 144.439 47.5654 147.455 52.0648Z" fill="#04A427"/>
<path opacity="0.07" fill-rule="evenodd" clip-rule="evenodd" d="M204.989 427.679C209.053 426.012 210.271 420.26 208.839 415.651C207.349 410.694 203.475 408.188 199.614 409.713C195.619 411.28 194.063 416.33 195.523 420.94C196.784 425.499 200.993 429.277 204.989 427.679ZM220.214 421.507C218.635 420.464 216.77 420.205 214.964 420.768C210.993 422.021 208.967 426.582 210.141 431.599C211.183 436.324 215.095 440.214 219.227 438.921C223.343 437.621 225.015 431.877 223.86 427.277C223.263 424.71 221.963 422.665 220.214 421.507ZM191.957 434.694C190.516 435.69 188.828 435.936 187.113 435.439C180.71 433.599 177.273 422.685 183.521 418.376C189.57 414.253 195.716 421.863 194.98 428.949C194.726 431.437 193.629 433.526 191.957 434.694ZM200.317 435.906C193.574 439.661 193.826 459.374 195.778 465.139C198.916 472.87 205.995 469.439 212.463 465.847L212.474 465.841C212.978 465.557 213.481 465.28 213.978 465.005L213.978 465.005C218.234 462.655 222.113 460.514 223.183 456.039C223.534 454.367 223.334 452.582 222.582 450.714C220.062 445.334 207.084 432.344 200.317 435.906ZM191.005 442.021C192.452 444.429 193.046 447.296 192.634 449.9C192.313 451.95 191.375 453.686 190.003 454.787C186.481 457.598 181.609 455.392 179.316 451.388C178.008 449.189 177.481 446.727 177.841 444.435C178.168 442.366 179.192 440.536 180.732 439.313C184.113 436.594 188.436 437.739 191.005 442.021Z" fill="#04A427"/>
<path opacity="0.04" fill-rule="evenodd" clip-rule="evenodd" d="M59.8122 424.096C65.5642 426.649 71.7625 422.401 74.1611 416.539C76.7939 410.288 74.798 403.944 69.3818 401.464C63.7885 398.885 57.8287 402.12 55.4588 408.01C52.9214 413.649 54.1908 421.547 59.8122 424.096ZM81.3044 433.728C80.5087 431.122 78.7415 428.973 76.3364 427.668C71.0353 424.815 64.9911 427.104 61.9692 433.09C59.0563 438.664 59.9148 446.367 65.4218 449.346C70.9171 452.302 77.5919 448.524 80.2777 442.954C81.8276 439.895 82.1827 436.616 81.3044 433.728ZM39.9454 417.504C37.5605 416.986 35.5509 415.499 34.1462 413.276C28.8865 404.99 34.5165 391.065 44.8474 393.323C54.8089 395.555 54.8809 409.088 48.0608 415.102C45.6713 417.218 42.7229 418.094 39.9454 417.504ZM47.8278 427.187C37.4399 423.895 20.9203 442.972 18.0914 450.467C14.8541 461.047 25.3231 464.99 35.278 468.157L35.2951 468.163C36.0746 468.405 36.8468 468.652 37.6111 468.898C44.1494 470.994 50.1092 472.905 55.0608 469.724C56.8582 468.486 58.1655 466.577 58.9546 464.028C60.8499 456.321 58.076 430.685 47.8278 427.187ZM32.6886 423.532C32.1801 427.307 30.3721 430.65 27.7152 432.716C25.6269 434.347 23.1478 435.047 20.7478 434.699C14.5997 433.791 11.284 426.717 12.2484 420.556C12.7267 417.122 14.2615 414.235 16.5975 412.414C18.7084 410.771 21.3579 410.069 24.0424 410.472C29.9627 411.324 33.5958 416.825 32.6886 423.532Z" fill="#04A427"/>
</svg>
