<svg width="234" height="106" viewBox="0 0 234 106" fill="none" xmlns="http://www.w3.org/2000/svg">
<path opacity="0.07" fill-rule="evenodd" clip-rule="evenodd" d="M52.0096 30.5967C57.8801 28.7589 59.7685 22.0022 57.8261 16.5101C55.8089 10.6055 50.3123 7.51929 44.736 9.19743C38.9667 10.919 36.6117 16.8353 38.5938 22.3295C40.2931 27.7566 46.2385 32.356 52.0096 30.5967ZM74.0027 23.7922C71.762 22.5087 69.0938 22.1427 66.4882 22.7485C60.7613 24.1014 57.7445 29.425 59.3055 35.3904C60.6854 41.0062 66.2034 45.7283 72.1629 44.3339C78.099 42.9309 80.638 36.1986 79.092 30.726C78.299 27.6746 76.4828 25.2161 74.0027 23.7922ZM33.145 38.4621C31.0536 39.5929 28.6255 39.829 26.1778 39.1862C17.0373 36.8061 12.3714 23.8003 21.439 18.9109C30.2177 14.2343 38.8501 23.424 37.6212 31.7723C37.1962 34.7032 35.5721 37.136 33.145 38.4621ZM45.1087 40.1628C35.3435 44.3821 35.2255 67.6804 37.8855 74.5551C42.1999 83.7895 52.4381 79.9644 61.8046 75.9298L61.8209 75.923C62.5505 75.6033 63.2782 75.2917 63.9985 74.9833L63.9989 74.9832C70.1611 72.3446 75.7782 69.9395 77.4219 64.6873C77.9654 62.7235 77.7217 60.6073 76.6889 58.3767C73.2042 51.9382 54.9022 36.172 45.1087 40.1628ZM31.5995 47.0893C33.6166 49.9814 34.3997 53.3881 33.7455 56.4515C33.2352 58.8635 31.8464 60.8841 29.852 62.1406C24.7316 65.3474 17.7961 62.5839 14.6031 57.7795C12.7801 55.139 12.0841 52.2135 12.6564 49.5169C13.1757 47.0827 14.6892 44.9547 16.929 43.5588C21.8455 40.4556 28.0181 41.9478 31.5995 47.0893Z" fill="#04A427"/>
<path opacity="0.07" fill-rule="evenodd" clip-rule="evenodd" d="M193.812 46.2408C197.935 42.7614 197.83 36.2285 195.05 32.0236C192.116 27.4803 187.14 26.5174 183.208 29.7632C179.137 33.1085 178.685 39.0517 181.496 43.2458C184.073 47.471 189.748 49.6198 193.812 46.2408ZM209.276 33.2761C207.242 32.8613 205.089 33.388 203.21 34.7481C199.086 37.7561 197.984 43.3893 200.578 48.1309C202.951 52.6233 208.324 55.0157 212.618 51.8973C216.893 48.7787 217.298 42.0605 214.829 37.7467C213.507 35.3195 211.528 33.7382 209.276 33.2761ZM181.017 59.144C179.659 60.8015 177.832 61.7806 175.786 61.9941C168.15 62.8094 161.516 52.8728 167.408 45.6978C173.125 38.8014 181.948 44.1266 182.933 51.8474C183.284 54.5559 182.59 57.2082 181.017 59.144ZM190.684 56.8347C184.096 63.6431 189.412 84.1374 193.07 89.3282C198.556 96.0651 205.603 89.4525 211.925 82.933L211.936 82.9219C212.427 82.4092 212.919 81.9043 213.405 81.4045C217.568 77.1292 221.363 73.2321 221.418 68.098C221.383 66.201 220.703 64.4204 219.385 62.7901C215.19 58.2444 197.347 50.2179 190.684 56.8347ZM181.824 67.2095C184.058 69.1078 185.456 71.8501 185.66 74.7478C185.824 77.0278 185.217 79.2434 183.963 80.9806C180.739 85.4237 174.723 85.2015 171.134 81.9978C169.108 80.2589 167.89 77.9113 167.707 75.3618C167.545 73.0593 168.224 70.7099 169.635 68.7724C172.725 64.485 177.855 63.8334 181.824 67.2095Z" fill="#04A427"/>
</svg>
