<svg width="208" height="270" viewBox="0 0 208 270" fill="none" xmlns="http://www.w3.org/2000/svg">
<path opacity="0.04" fill-rule="evenodd" clip-rule="evenodd" d="M71.4097 46.4973C78.3258 49.5671 85.7784 44.4586 88.6625 37.4115C91.8281 29.8944 89.4283 22.2674 82.916 19.2846C76.1907 16.1842 69.0248 20.0734 66.1752 27.1555C63.1243 33.936 64.6506 43.4327 71.4097 46.4973ZM97.2506 58.0798C96.2939 54.9455 94.169 52.3625 91.2772 50.7925C84.9033 47.3628 77.6359 50.115 74.0025 57.3126C70.5001 64.0137 71.5323 73.2759 78.1537 76.8582C84.7612 80.4125 92.7868 75.8697 96.0162 69.1718C97.8798 65.4948 98.3067 61.5522 97.2506 58.0798ZM47.5213 38.5711C44.6538 37.9481 42.2374 36.1603 40.5485 33.4873C34.2243 23.5251 40.9937 6.78197 53.4153 9.49587C65.3928 12.1798 65.4794 28.4518 57.2791 35.6829C54.406 38.2269 50.8609 39.2803 47.5213 38.5711ZM56.999 50.2126C44.5089 46.2553 24.6461 69.1925 21.2447 78.204C17.3522 90.9256 29.9399 95.6664 41.9095 99.4743L41.9301 99.4811C42.8673 99.7725 43.7958 100.07 44.7148 100.365C52.5763 102.886 59.7422 105.184 65.6958 101.359C67.857 99.8698 69.4288 97.5747 70.3776 94.5095C72.6566 85.2428 69.3213 54.4192 56.999 50.2126ZM38.7962 45.8181C38.1848 50.3568 36.011 54.3769 32.8164 56.8611C30.3055 58.8211 27.3246 59.6628 24.4389 59.245C17.0466 58.1532 13.0599 49.6474 14.2195 42.2392C14.7946 38.1111 16.64 34.6392 19.4487 32.4494C21.9868 30.4749 25.1725 29.6308 28.4003 30.1152C35.5188 31.1396 39.8871 37.7533 38.7962 45.8181Z" fill="#04A427"/>
<path opacity="0.04" fill-rule="evenodd" clip-rule="evenodd" d="M162.707 202.421C168.79 200.188 170.615 192.477 168.471 186.298C166.24 179.653 160.44 176.294 154.66 178.339C148.679 180.438 146.35 187.208 148.535 193.388C150.424 199.499 156.725 204.564 162.707 202.421ZM185.5 194.145C183.136 192.746 180.345 192.399 177.64 193.153C171.695 194.833 168.663 200.947 170.419 207.672C171.979 214.006 177.836 219.22 184.022 217.487C190.184 215.745 192.688 208.045 190.958 201.878C190.065 198.438 188.118 195.696 185.5 194.145ZM143.198 211.824C141.041 213.16 138.513 213.49 135.947 212.823C126.361 210.357 121.215 195.727 130.568 189.95C139.624 184.423 148.826 194.625 147.723 204.123C147.343 207.458 145.701 210.258 143.198 211.824ZM155.713 213.449C145.618 218.483 145.996 244.907 148.918 252.636C153.616 262.998 164.213 258.399 173.896 253.585L173.913 253.577C174.668 253.196 175.42 252.824 176.165 252.455C182.536 249.306 188.343 246.435 189.945 240.437C190.469 238.196 190.17 235.802 189.045 233.299C185.272 226.086 165.843 208.673 155.713 213.449ZM141.772 221.647C143.938 224.876 144.828 228.719 144.212 232.21C143.731 234.958 142.326 237.285 140.273 238.761C135.001 242.528 127.707 239.571 124.274 234.204C122.315 231.256 121.527 227.956 122.066 224.883C122.555 222.11 124.088 219.658 126.394 218.018C131.456 214.373 137.926 215.908 141.772 221.647Z" fill="#04A427"/>
</svg>
