<svg width="171" height="58" viewBox="0 0 171 58" fill="none" xmlns="http://www.w3.org/2000/svg">
<path opacity="0.07" fill-rule="evenodd" clip-rule="evenodd" d="M31.1645 19.8716C34.204 21.2007 37.4794 18.989 38.7469 15.9378C40.1381 12.6833 39.0834 9.38108 36.2213 8.08967C33.2657 6.74734 30.1164 8.43118 28.864 11.4974C27.5232 14.4331 28.194 18.5448 31.1645 19.8716ZM42.5223 24.8861C42.1018 23.5291 41.1679 22.4107 39.897 21.731C37.0958 20.2461 33.9019 21.4377 32.305 24.5539C30.7658 27.4552 31.2194 31.4654 34.1294 33.0164C37.0333 34.5552 40.5605 32.5884 41.9797 29.6885C42.7988 28.0965 42.9864 26.3895 42.5223 24.8861ZM20.6666 16.4389C19.4063 16.1691 18.3444 15.3951 17.6021 14.2378C14.8227 9.92458 17.7978 2.67553 23.2569 3.85053C28.5209 5.01255 28.5589 12.0576 24.955 15.1884C23.6923 16.2899 22.1343 16.746 20.6666 16.4389ZM24.831 21.4792C19.3418 19.7659 10.6123 29.6967 9.11746 33.5983C7.40679 39.1062 12.9389 41.1588 18.1994 42.8075L18.2084 42.8104C18.6203 42.9366 19.0284 43.0655 19.4322 43.1931C22.8873 44.2845 26.0366 45.2794 28.6531 43.6235C29.6029 42.9787 30.2938 41.985 30.7107 40.6579C31.7123 36.6458 30.2465 23.3005 24.831 21.4792ZM16.8322 19.5764C16.5635 21.5415 15.6081 23.282 14.2042 24.3576C13.1006 25.2062 11.7906 25.5706 10.5224 25.3897C7.27353 24.917 5.52144 21.2343 6.03107 18.0269C6.2838 16.2396 7.09484 14.7364 8.32924 13.7883C9.44469 12.9335 10.8447 12.568 12.2633 12.7777C15.3918 13.2212 17.3116 16.0847 16.8322 19.5764Z" fill="#04A427"/>
<path opacity="0.05" fill-rule="evenodd" clip-rule="evenodd" d="M153.594 31.6793C155.92 30.8381 156.617 27.9346 155.798 25.6079C154.945 23.1058 152.728 21.8407 150.519 22.6109C148.233 23.4015 147.342 25.9505 148.178 28.2777C148.9 30.579 151.308 32.486 153.594 31.6793ZM162.306 28.5641C161.402 28.0375 160.335 27.9068 159.302 28.1906C157.029 28.8233 155.87 31.1256 156.542 33.658C157.138 36.043 159.377 38.0065 161.741 37.3538C164.096 36.6977 165.053 33.7984 164.392 31.4762C164.051 30.1808 163.307 29.1484 162.306 28.5641ZM146.137 35.2206C145.313 35.7235 144.346 35.8477 143.365 35.5967C139.702 34.6681 137.735 29.159 141.31 26.9839C144.771 24.9025 148.288 28.744 147.867 32.3208C147.721 33.5765 147.094 34.631 146.137 35.2206ZM150.92 35.8318C147.062 37.7273 147.206 47.6777 148.323 50.5879C150.119 54.4899 154.169 52.7581 157.87 50.9452L157.877 50.9422C158.165 50.7987 158.453 50.6586 158.737 50.52L158.737 50.5199C161.173 49.334 163.392 48.253 164.004 45.9943C164.205 45.1505 164.091 44.2492 163.66 43.3065C162.218 40.5905 154.792 34.0335 150.92 35.8318ZM145.592 38.9198C146.42 40.1355 146.76 41.5827 146.524 42.8972C146.341 43.9321 145.803 44.8083 145.019 45.3641C143.004 46.7826 140.216 45.6691 138.903 43.6481C138.155 42.5381 137.853 41.2954 138.059 40.1384C138.246 39.0939 138.832 38.1707 139.714 37.5531C141.648 36.1806 144.122 36.7586 145.592 38.9198Z" fill="#04A427"/>
</svg>
