<svg width="171" height="58" viewBox="0 0 171 58" fill="none" xmlns="http://www.w3.org/2000/svg">
<path opacity="0.07" fill-rule="evenodd" clip-rule="evenodd" d="M31.1654 20.1715C34.2049 21.5207 37.4802 19.2756 38.7478 16.1784C40.139 12.8748 39.0843 9.52282 36.2222 8.21194C33.2666 6.84936 30.1172 8.5586 28.8649 11.6711C27.5241 14.651 28.1949 18.8247 31.1654 20.1715ZM42.5222 25.2616C42.1017 23.8841 41.1678 22.7489 39.8969 22.059C37.0957 20.5516 33.9018 21.7612 32.3049 24.9244C30.7657 27.8695 31.2193 31.9401 34.1293 33.5145C37.0332 35.0765 40.5604 33.08 41.9796 30.1364C42.7987 28.5204 42.9863 26.7877 42.5222 25.2616ZM20.6665 16.687C19.4062 16.4132 18.3443 15.6275 17.602 14.4528C14.8226 10.0745 17.7977 2.71616 23.2568 3.90888C28.5208 5.08842 28.5588 12.2397 24.9549 15.4177C23.6922 16.5358 22.1342 16.9987 20.6665 16.687ZM24.8319 21.8033C19.3426 20.0642 10.6132 30.1448 9.11834 34.1052C7.40768 39.6962 12.9398 41.7796 18.2003 43.4532L18.2093 43.4562C18.6209 43.5842 19.0287 43.7149 19.4324 43.8444L19.4331 43.8446C22.8882 44.9525 26.0375 45.9624 28.654 44.2815C29.6038 43.627 30.2946 42.6183 30.7116 41.2712C31.7132 37.1986 30.2474 23.6521 24.8319 21.8033ZM16.8321 19.8719C16.5634 21.8665 15.608 23.6333 14.2041 24.7251C13.1005 25.5865 11.7905 25.9564 10.5223 25.7728C7.27343 25.293 5.52135 21.5548 6.03098 18.299C6.28371 16.4847 7.09475 14.9589 8.32915 13.9965C9.4446 13.1288 10.8446 12.7578 12.2632 12.9707C15.3917 13.4209 17.3115 16.3275 16.8321 19.8719Z" fill="#04A427"/>
<path opacity="0.05" fill-rule="evenodd" clip-rule="evenodd" d="M153.594 32.1578C155.92 31.304 156.617 28.3567 155.798 25.9949C154.945 23.4551 152.728 22.1709 150.519 22.9527C148.233 23.7552 147.342 26.3427 148.178 28.7049C148.9 31.0409 151.308 32.9767 153.594 32.1578ZM162.306 28.9957C161.402 28.4611 160.335 28.3285 159.302 28.6165C157.029 29.2587 155.87 31.5958 156.542 34.1664C157.138 36.5873 159.377 38.5804 161.741 37.9179C164.096 37.2519 165.053 34.3089 164.392 31.9517C164.051 30.6367 163.307 29.5887 162.306 28.9957ZM146.137 35.7525C145.313 36.2631 144.346 36.3891 143.365 36.1343C139.702 35.1917 137.735 29.5995 141.31 27.3917C144.771 25.2789 148.288 29.1783 147.867 32.809C147.721 34.0836 147.094 35.154 146.137 35.7525ZM150.921 36.3729C147.062 38.2971 147.207 48.3974 148.324 51.3515C150.12 55.3124 154.17 53.5545 157.871 51.7143L157.878 51.7112C158.166 51.5655 158.454 51.4233 158.738 51.2826L158.738 51.2826C161.174 50.0787 163.393 48.9814 164.005 46.6887C164.206 45.8321 164.091 44.9172 163.661 43.9604C162.219 41.2034 154.793 34.5475 150.921 36.3729ZM145.592 39.5075C146.42 40.7415 146.76 42.2106 146.524 43.5449C146.341 44.5954 145.803 45.4848 145.019 46.0489C143.004 47.4889 140.216 46.3586 138.903 44.3071C138.155 43.1803 137.853 41.919 138.059 40.7445C138.246 39.6842 138.832 38.7471 139.714 38.1202C141.648 36.727 144.122 37.3137 145.592 39.5075Z" fill="#04A427"/>
</svg>
