<svg width="322" height="587" viewBox="0 0 322 587" fill="none" xmlns="http://www.w3.org/2000/svg">
<path opacity="0.04" fill-rule="evenodd" clip-rule="evenodd" d="M158.095 55.2027C166.395 58.8865 175.338 52.7563 178.799 44.2997C182.597 35.2792 179.718 26.1268 171.903 22.5475C163.833 18.827 155.234 23.494 151.814 31.9925C148.153 40.1291 149.985 51.5251 158.095 55.2027ZM189.105 69.0986C187.957 65.3374 185.408 62.2378 181.937 60.3539C174.289 56.2382 165.568 59.5409 161.208 68.1779C157.005 76.2192 158.243 87.3339 166.189 91.6327C174.118 95.8978 183.749 90.4464 187.624 82.409C189.86 77.9965 190.373 73.2654 189.105 69.0986ZM129.429 45.6893C125.988 44.9417 123.089 42.7964 121.062 39.5887C113.473 27.6341 121.596 7.54236 136.502 10.799C150.875 14.0197 150.979 33.5461 141.139 42.2235C137.691 45.2763 133.437 46.5404 129.429 45.6893ZM140.802 59.6602C125.814 54.9115 101.979 82.4362 97.897 93.25C93.226 108.516 108.331 114.205 122.695 118.774L122.719 118.783C123.843 119.132 124.957 119.489 126.059 119.842L126.061 119.843C135.495 122.868 144.094 125.626 151.238 121.036C153.832 119.249 155.718 116.495 156.857 112.817C159.591 101.697 155.589 64.7082 140.802 59.6602ZM118.959 54.3825C118.226 59.8289 115.617 64.653 111.783 67.6341C108.77 69.9861 105.193 70.9961 101.731 70.4947C92.8597 69.1846 88.0757 58.9777 89.4672 50.0878C90.1573 45.134 92.3718 40.9678 95.7423 38.3401C98.788 35.9707 102.611 34.9578 106.484 35.539C115.026 36.7683 120.268 44.7048 118.959 54.3825Z" fill="#04A427"/>
<path opacity="0.09" fill-rule="evenodd" clip-rule="evenodd" d="M56.8421 418.088C62.3859 420.836 68.3598 416.263 70.6716 409.954C73.2091 403.225 71.2855 396.397 66.0653 393.727C60.6745 390.952 54.9304 394.433 52.6462 400.773C50.2007 406.843 51.4242 415.344 56.8421 418.088ZM77.556 428.454C76.7891 425.648 75.0858 423.336 72.7678 421.93C67.6586 418.86 61.8332 421.324 58.9207 427.767C56.1132 433.766 56.9406 442.057 62.2482 445.264C67.5447 448.446 73.9779 444.379 76.5665 438.383C78.0603 435.092 78.4025 431.562 77.556 428.454ZM37.694 410.991C35.3954 410.434 33.4585 408.833 32.1047 406.44C27.0354 397.522 32.4616 382.534 42.4185 384.964C52.0195 387.366 52.0889 401.933 45.5156 408.406C43.2126 410.683 40.3709 411.626 37.694 410.991ZM45.291 421.412C35.2791 417.869 19.3575 438.402 16.6309 446.469C13.5108 457.858 23.6009 462.102 33.1955 465.51L33.212 465.517C33.9632 465.777 34.7075 466.044 35.4441 466.308L35.4442 466.308C41.7458 468.564 47.4899 470.621 52.2622 467.198C53.9945 465.864 55.2545 463.81 56.015 461.066C57.8418 452.771 55.1683 425.178 45.291 421.412ZM30.6997 417.475C30.2096 421.538 28.4671 425.136 25.9064 427.36C23.8937 429.115 21.5043 429.868 19.1911 429.494C13.2656 428.517 10.0699 420.903 10.9994 414.271C11.4604 410.575 12.9397 407.467 15.1911 405.507C17.2256 403.74 19.7791 402.984 22.3665 403.418C28.0725 404.335 31.5741 410.255 30.6997 417.475Z" fill="#04A427"/>
<path opacity="0.04" fill-rule="evenodd" clip-rule="evenodd" d="M267.652 242.308C274.953 239.627 277.142 230.374 274.57 222.96C271.893 214.986 264.933 210.954 257.997 213.409C250.82 215.928 248.025 224.051 250.647 231.468C252.914 238.801 260.474 244.878 267.652 242.308ZM295.004 232.375C292.167 230.697 288.818 230.28 285.572 231.184C278.439 233.201 274.8 240.538 276.907 248.608C278.779 256.208 285.808 262.466 293.231 260.386C300.625 258.295 303.629 249.055 301.553 241.655C300.482 237.527 298.145 234.237 295.004 232.375ZM244.242 253.589C241.654 255.192 238.62 255.588 235.54 254.788C224.038 251.829 217.863 234.272 229.086 227.341C239.954 220.708 250.995 232.95 249.672 244.349C249.216 248.35 247.246 251.711 244.242 253.589ZM259.261 255.539C247.147 261.579 247.599 293.289 251.106 302.563C256.744 314.998 269.461 309.479 281.08 303.702L281.1 303.692C282.006 303.235 282.909 302.788 283.802 302.347C291.447 298.567 298.416 295.122 300.338 287.924C300.968 285.235 300.608 282.363 299.258 279.359C294.73 270.704 271.416 249.808 259.261 255.539ZM242.53 265.378C245.129 269.252 246.198 273.864 245.458 278.053C244.881 281.351 243.195 284.144 240.731 285.915C234.404 290.435 225.652 286.887 221.532 280.446C219.182 276.909 218.236 272.949 218.882 269.262C219.47 265.933 221.309 262.991 224.077 261.023C230.15 256.649 237.915 258.491 242.53 265.378Z" fill="#04A427"/>
<path opacity="0.07" fill-rule="evenodd" clip-rule="evenodd" d="M145.387 525.994C150.264 523.994 151.727 517.091 150.008 511.56C148.22 505.612 143.571 502.604 138.938 504.435C134.144 506.315 132.276 512.375 134.028 517.907C135.542 523.378 140.593 527.911 145.387 525.994ZM163.658 518.585C161.763 517.333 159.526 517.023 157.358 517.697C152.593 519.201 150.162 524.675 151.57 530.695C152.82 536.365 157.515 541.033 162.474 539.481C167.413 537.921 169.42 531.029 168.033 525.508C167.317 522.429 165.756 519.974 163.658 518.585ZM129.75 534.411C128.021 535.606 125.995 535.901 123.937 535.305C116.254 533.097 112.129 520 119.626 514.83C126.885 509.881 134.261 519.014 133.377 527.517C133.072 530.502 131.756 533.009 129.75 534.411ZM139.783 535.865C131.691 540.371 131.993 564.026 134.335 570.945C138.102 580.221 146.596 576.104 154.358 571.794L154.371 571.787C154.976 571.446 155.579 571.113 156.176 570.783C161.283 567.964 165.938 565.394 167.222 560.024C167.642 558.018 167.402 555.875 166.5 553.635C163.476 547.178 147.902 531.59 139.783 535.865ZM128.607 543.203C130.343 546.093 131.056 549.534 130.562 552.658C130.177 555.119 129.05 557.202 127.405 558.523C123.179 561.895 117.332 559.248 114.58 554.444C113.01 551.805 112.378 548.851 112.81 546.1C113.202 543.617 114.431 541.422 116.28 539.954C120.337 536.691 125.524 538.065 128.607 543.203Z" fill="#04A427"/>
</svg>
