<svg width="379" height="527" viewBox="0 0 379 527" fill="none" xmlns="http://www.w3.org/2000/svg">
<path opacity="0.04" fill-rule="evenodd" clip-rule="evenodd" d="M340.368 44.8976C347.535 47.8364 355.125 42.6369 357.983 35.5848C361.123 28.061 358.533 20.5186 351.783 17.6598C344.812 14.6876 337.498 18.6703 334.676 25.7566C331.643 32.5464 333.363 41.9615 340.368 44.8976ZM367.149 55.9889C366.115 52.8889 363.887 50.356 360.886 48.8425C354.271 45.5371 346.835 48.3914 343.208 55.6052C339.709 62.3234 340.917 71.5136 347.789 74.9666C354.645 78.3919 362.834 73.7454 366.053 67.0349C367.913 63.3494 368.29 59.4233 367.149 55.9889ZM315.656 37.4069C312.695 36.8344 310.18 35.0967 308.4 32.4671C301.734 22.6675 308.437 5.91398 321.265 8.40921C333.636 10.8818 333.981 27.0553 325.654 34.3769C322.737 36.9526 319.105 38.0575 315.656 37.4069ZM325.594 48.8252C312.676 45.0952 292.593 68.2193 289.234 77.2325C285.428 89.9416 298.459 94.4488 310.839 98.039L310.86 98.0454C311.829 98.3197 312.789 98.6005 313.74 98.8784L313.74 98.8785C321.871 101.256 329.283 103.424 335.351 99.5247C337.552 98.0091 339.133 95.7021 340.062 92.6397C342.261 83.3912 338.343 52.8059 325.594 48.8252ZM306.79 44.75C306.232 49.2715 304.058 53.3031 300.809 55.8246C298.256 57.8138 295.201 58.699 292.224 58.3308C284.598 57.366 280.361 48.976 281.438 41.5931C281.965 37.4802 283.81 33.999 286.666 31.7765C289.248 29.7724 292.513 28.8814 295.843 29.3103C303.186 30.2126 307.786 36.7156 306.79 44.75Z" fill="#04A427"/>
<path opacity="0.03" fill-rule="evenodd" clip-rule="evenodd" d="M245.947 453.383C253.562 451.964 257.117 443.479 255.692 436.004C254.248 427.981 247.981 423.05 240.76 424.31C233.291 425.594 229.307 432.908 230.781 440.391C231.916 447.741 238.469 454.717 245.947 453.383ZM274.46 448.171C271.91 446.128 268.664 445.209 265.322 445.565C257.972 446.377 253.273 452.809 254.14 460.836C254.845 468.378 260.845 475.443 268.491 474.616C276.11 473.774 280.468 465.428 279.532 458.045C279.095 453.94 277.282 450.437 274.46 448.171ZM221.124 460.497C218.326 461.622 215.27 461.527 212.348 460.284C201.432 455.668 197.975 437.957 210.105 433.094C221.838 428.461 230.902 441.86 227.879 452.528C226.826 456.274 224.374 459.173 221.124 460.497ZM235.666 464.697C222.79 468.571 218.464 498.892 220.531 508.286C224.228 521.027 237.62 517.744 249.967 514.045L249.989 514.038C250.952 513.743 251.911 513.458 252.86 513.176L252.86 513.176C260.981 510.762 268.383 508.562 271.365 501.995C272.392 499.528 272.469 496.732 271.588 493.656C268.419 484.693 248.535 461.125 235.666 464.697ZM217.659 471.476C219.643 475.577 220.004 480.143 218.642 484.024C217.576 487.08 215.49 489.481 212.79 490.786C205.86 494.113 197.749 489.363 194.649 482.577C192.86 478.836 192.521 474.911 193.715 471.494C194.797 468.41 197.057 465.89 200.087 464.444C206.745 461.219 214.137 464.186 217.659 471.476Z" fill="#04A427"/>
<path opacity="0.07" fill-rule="evenodd" clip-rule="evenodd" d="M85.0953 209.806C93.3947 213.49 102.338 207.36 105.799 198.903C109.597 189.883 106.718 180.73 98.9029 177.151C90.8326 173.431 82.2335 178.098 78.814 186.596C75.1529 194.733 76.9845 206.129 85.0953 209.806ZM116.105 223.702C114.957 219.941 112.407 216.841 108.937 214.957C101.289 210.842 92.5677 214.144 88.2077 222.781C84.0048 230.823 85.2434 241.937 93.1891 246.236C101.118 250.501 110.749 245.05 114.624 237.013C116.86 232.6 117.373 227.869 116.105 223.702ZM56.4294 200.293C52.9884 199.545 50.0888 197.4 48.0621 194.192C40.4731 182.238 48.5964 162.146 63.5023 165.403C77.8753 168.623 77.9792 188.15 68.1387 196.827C64.6911 199.88 60.4369 201.144 56.4294 200.293ZM67.8021 214.264C52.8139 209.515 28.9786 237.04 24.8969 247.854C20.226 263.119 35.3312 268.808 49.6947 273.378L49.7194 273.386C50.8432 273.736 51.9567 274.093 53.0588 274.446L53.061 274.447C62.4948 277.472 71.0939 280.229 78.2383 275.64C80.8317 273.853 82.7179 271.098 83.8565 267.42C86.5912 256.3 82.5888 219.312 67.8021 214.264ZM45.9592 208.986C45.2255 214.433 42.6169 219.257 38.7834 222.238C35.7703 224.59 32.1933 225.6 28.7304 225.098C19.8596 223.788 15.0756 213.581 16.4672 204.692C17.1572 199.738 19.3717 195.572 22.7422 192.944C25.7879 190.574 29.6107 189.562 33.4841 190.143C42.0263 191.372 47.2682 199.309 45.9592 208.986Z" fill="#04A427"/>
<path opacity="0.05" fill-rule="evenodd" clip-rule="evenodd" d="M223.652 354.308C230.953 351.627 233.142 342.374 230.569 334.96C227.892 326.986 220.933 322.954 213.996 325.409C206.82 327.928 204.024 336.052 206.647 343.468C208.914 350.801 216.474 356.879 223.652 354.308ZM251.004 344.375C248.167 342.697 244.817 342.28 241.572 343.184C234.438 345.201 230.8 352.538 232.907 360.608C234.779 368.208 241.807 374.466 249.231 372.386C256.625 370.295 259.629 361.055 257.553 353.655C256.482 349.527 254.145 346.237 251.004 344.375ZM200.242 365.589C197.653 367.192 194.62 367.588 191.54 366.788C180.038 363.829 173.862 346.272 185.086 339.341C195.953 332.708 206.995 344.95 205.672 356.348C205.216 360.35 203.246 363.71 200.242 365.589ZM215.26 367.539C203.146 373.579 203.599 405.289 207.106 414.563C212.744 426.998 225.46 421.479 237.08 415.702L237.1 415.692C238.005 415.235 238.908 414.788 239.802 414.346C247.447 410.567 254.416 407.122 256.338 399.924C256.968 397.235 256.608 394.363 255.258 391.359C250.73 382.704 227.416 361.808 215.26 367.539ZM198.53 377.378C201.129 381.252 202.197 385.864 201.457 390.053C200.881 393.351 199.195 396.143 196.731 397.914C190.404 402.435 181.652 398.886 177.532 392.446C175.182 388.908 174.235 384.948 174.882 381.261C175.469 377.933 177.309 374.99 180.077 373.022C186.15 368.649 193.915 370.491 198.53 377.378Z" fill="#04A427"/>
</svg>
