<svg width="29" height="36" viewBox="0 0 29 36" fill="none" xmlns="http://www.w3.org/2000/svg">
<path opacity="0.07" fill-rule="evenodd" clip-rule="evenodd" d="M19.7873 14.1938C22.1072 15.3438 24.6071 13.4301 25.5745 10.7902C26.6364 7.9742 25.8314 5.11706 23.6469 3.9997C21.391 2.83827 18.9873 4.29518 18.0315 6.94819C17.0081 9.48822 17.5201 13.0458 19.7873 14.1938ZM28.4551 18.53C28.1342 17.3558 27.4214 16.3882 26.4514 15.8001C24.3133 14.5153 21.8756 15.5463 20.6568 18.2426C19.482 20.7528 19.8282 24.2226 22.0493 25.5645C24.2657 26.896 26.9578 25.1942 28.041 22.6851C28.6661 21.3077 28.8093 19.8307 28.4551 18.53ZM11.7749 11.2238C10.8131 10.9904 10.0025 10.3207 9.43601 9.31933C7.31465 5.58741 9.58536 -0.684681 13.752 0.331969C17.7697 1.33737 17.7987 7.43299 15.048 10.1418C14.0843 11.0948 12.8952 11.4895 11.7749 11.2238ZM14.9534 15.585C10.7637 14.1026 4.10103 22.695 2.96007 26.0708C1.6544 30.8364 5.87676 32.6123 9.89181 34.0388L9.8987 34.0414C10.2131 34.1505 10.5245 34.2621 10.8328 34.3725C13.4698 35.3168 15.8735 36.1776 17.8706 34.7449C18.5955 34.187 19.1228 33.3272 19.4411 32.179C20.2055 28.7076 19.0867 17.1608 14.9534 15.585ZM8.84726 13.9389C8.64217 15.6391 7.91299 17.1451 6.84141 18.0757C5.99915 18.8099 4.99927 19.1252 4.03129 18.9687C1.55163 18.5597 0.214354 15.3734 0.60333 12.5982C0.796225 11.0518 1.41525 9.75116 2.3574 8.93085C3.20876 8.19121 4.27734 7.875 5.36007 8.05645C7.74788 8.4402 9.21316 10.9178 8.84726 13.9389Z" fill="#04A427"/>
</svg>
