<svg width="84" height="34" viewBox="0 0 84 34" fill="none" xmlns="http://www.w3.org/2000/svg">
<path opacity="0.06" fill-rule="evenodd" clip-rule="evenodd" d="M19.5507 12.1062C21.7627 11.6603 22.4384 9.1263 21.6711 6.90861C20.8731 4.52763 18.7741 3.08134 16.6726 3.47871C14.4982 3.88418 13.6409 6.07113 14.4233 8.29138C15.0981 10.4728 17.3758 12.5262 19.5507 12.1062ZM27.8371 10.4677C26.9813 9.86828 25.969 9.60517 24.986 9.72173C22.8255 9.98613 21.7142 11.9132 22.3399 14.2971C22.8949 16.5372 25.0115 18.6187 27.2598 18.3488C29.4991 18.0744 30.4213 15.5794 29.8042 13.3873C29.4863 12.1682 28.7844 11.1325 27.8371 10.4677ZM12.4523 14.3C11.667 14.6434 10.7491 14.6247 9.81863 14.2643C6.34408 12.9262 4.50203 7.6716 7.90676 6.18769C11.2033 4.77319 14.5251 8.72838 14.1082 11.9094C13.9643 13.0265 13.3635 13.896 12.4523 14.3ZM16.9924 15.5028C13.3197 16.6952 13.4102 25.7232 14.4573 28.5096C16.1443 32.286 19.9985 31.2679 23.5214 30.129L23.5275 30.1271C23.8018 30.0363 24.0755 29.9486 24.3464 29.8618L24.3466 29.8617C26.6644 29.1185 28.7772 28.4411 29.369 26.4793C29.5634 25.7426 29.4588 24.9111 29.0549 23.9993C27.6981 21.3446 20.6772 14.4003 16.9924 15.5028ZM11.9185 17.574C12.699 18.787 13.0153 20.1434 12.7854 21.3015C12.6062 22.2135 12.0921 22.9338 11.3442 23.3305C9.42421 24.3413 6.78227 22.9547 5.54548 20.9469C4.83994 19.8403 4.55946 18.6744 4.76047 17.6549C4.94297 16.7346 5.50364 15.9783 6.34356 15.5388C8.187 14.5589 10.5327 15.4178 11.9185 17.574Z" fill="#04A427"/>
<path opacity="0.06" fill-rule="evenodd" clip-rule="evenodd" d="M66.0502 10.6893C66.9948 9.09315 65.8494 6.89662 64.103 5.75947C62.2421 4.52368 60.2279 4.70592 59.3148 6.20362C58.3666 7.74915 59.2051 9.80325 60.9612 10.9335C62.6354 12.0983 65.1105 12.2454 66.0502 10.6893ZM69.6075 4.73192C68.7804 4.79928 68.0687 5.19679 67.6002 5.84794C66.5753 7.28491 67.1192 9.3006 68.8874 10.638C70.531 11.9138 72.9348 12.1742 74.0045 10.6825C75.0666 9.1928 74.0795 6.88167 72.4306 5.67595C71.5275 4.9908 70.5237 4.65827 69.6075 4.73192ZM63.4748 16.3534C63.2502 17.0519 62.7364 17.5691 62.0113 17.8499C59.3086 18.9042 55.1575 16.2237 56.1344 13.1985C57.0936 10.2853 61.2778 11.1846 62.9519 13.6926C63.5412 14.572 63.7322 15.5389 63.4748 16.3534ZM66.6803 14.585C65.3823 17.5573 70.8309 23.9394 73.0706 25.3201C76.2528 27.0367 77.7544 24.0837 79.0023 21.2362L79.0045 21.2313C79.1005 21.008 79.1979 20.7872 79.2943 20.5687C80.119 18.6996 80.8708 16.9958 80.0217 15.2556C79.6875 14.6182 79.133 14.086 78.3665 13.6696C76.036 12.5616 68.0386 11.6697 66.6803 14.585ZM65.1409 18.995C66.2937 19.4085 67.2781 20.1925 67.8447 21.1507C68.292 21.9043 68.4413 22.7148 68.269 23.4296C67.8221 25.2596 65.5463 25.7982 63.6683 25.0819C62.6202 24.701 61.7694 24.0321 61.2697 23.1893C60.8193 22.428 60.674 21.5649 60.8711 20.7663C61.2945 19.0026 63.0926 18.2592 65.1409 18.995Z" fill="#04A427"/>
</svg>
