<svg width="57" height="129" viewBox="0 0 57 129" fill="none" xmlns="http://www.w3.org/2000/svg">
<path opacity="0.07" fill-rule="evenodd" clip-rule="evenodd" d="M42.0729 102.896C44.1136 102.059 44.7257 99.1707 44.0065 96.8561C43.2582 94.3669 41.3128 93.1083 39.3738 93.8745C37.3677 94.661 36.5864 97.1969 37.3194 99.512C37.9531 101.801 40.0664 103.699 42.0729 102.896ZM49.7195 99.799C48.9263 99.2751 47.9901 99.1451 47.0828 99.4274C45.0888 100.057 44.0716 102.347 44.6608 104.867C45.184 107.239 47.1487 109.193 49.2238 108.543C51.2906 107.891 52.1304 105.006 51.5501 102.696C51.2506 101.407 50.5975 100.38 49.7195 99.799ZM35.5289 106.421C34.8053 106.922 33.9574 107.045 33.0964 106.796C29.8812 105.872 28.155 100.391 31.2923 98.2273C34.3301 96.1566 37.4166 99.9782 37.0468 103.537C36.9192 104.786 36.3685 105.835 35.5289 106.421ZM39.7264 107.029C36.3402 108.915 36.4667 118.814 37.447 121.709C39.023 125.59 42.5776 123.868 45.8257 122.064L45.8313 122.061C46.0842 121.918 46.3365 121.779 46.5862 121.641L46.5865 121.641C48.7236 120.461 50.6716 119.386 51.2088 117.139C51.3848 116.299 51.2843 115.403 50.9069 114.465C49.6413 111.763 43.1242 105.24 39.7264 107.029ZM35.0505 110.1C35.777 111.309 36.0756 112.749 35.8688 114.057C35.7076 115.086 35.2362 115.958 34.5475 116.511C32.7791 117.922 30.3326 116.814 29.1808 114.804C28.5239 113.699 28.2594 112.463 28.4401 111.312C28.6043 110.273 29.1185 109.354 29.8921 108.74C31.5899 107.375 33.7604 107.95 35.0505 110.1Z" fill="#04A427"/>
<path opacity="0.05" fill-rule="evenodd" clip-rule="evenodd" d="M31.1764 22.5351C34.217 24.0424 37.4935 21.5342 38.7614 18.0742C40.1531 14.3834 39.0981 10.6387 36.235 9.17421C33.2783 7.65198 30.1279 9.56149 28.8751 13.0387C27.5338 16.3678 28.2048 21.0305 31.1764 22.5351ZM42.5369 28.2196C42.1162 26.6807 41.1821 25.4125 39.9107 24.6417C37.1085 22.9577 33.9134 24.309 32.316 27.8429C30.7762 31.133 31.23 35.6806 34.1411 37.4395C37.046 39.1845 40.5744 36.9541 41.9942 33.6656C42.8135 31.8602 43.0012 29.9245 42.5369 28.2196ZM20.6749 18.6424C19.4142 18.3366 18.3519 17.4588 17.6094 16.1464C14.829 11.2551 17.8051 3.03458 23.2662 4.36705C28.532 5.68479 28.57 13.674 24.9648 17.2244C23.7017 18.4735 22.1431 18.9907 20.6749 18.6424ZM24.8414 24.3584C19.3502 22.4155 10.6177 33.6773 9.12229 38.1017C7.41102 44.3478 12.9451 46.6754 18.2074 48.5451L18.2164 48.5484C18.6285 48.6915 19.0367 48.8376 19.4407 48.9823C22.8969 50.2201 26.0474 51.3483 28.6649 49.4704C29.615 48.7392 30.3061 47.6124 30.7232 46.1074C31.7251 41.5577 30.2587 26.4238 24.8414 24.3584ZM16.838 22.2C16.5692 24.4283 15.6135 26.4021 14.209 27.6219C13.1051 28.5842 11.7946 28.9974 10.5259 28.7923C7.27591 28.2562 5.52321 24.0801 6.03302 20.4428C6.28584 18.4159 7.09716 16.7113 8.332 15.6362C9.44784 14.6667 10.8484 14.2523 12.2675 14.4901C15.3971 14.9931 17.3175 18.2403 16.838 22.2Z" fill="#04A427"/>
</svg>
