<svg width="184" height="36" viewBox="0 0 184 36" fill="none" xmlns="http://www.w3.org/2000/svg">
<path opacity="0.06" fill-rule="evenodd" clip-rule="evenodd" d="M12.7983 14.6893C13.7428 13.0931 12.5975 10.8966 10.8511 9.75947C8.99019 8.52368 6.9759 8.70592 6.0628 10.2036C5.11468 11.7492 5.95312 13.8033 7.70928 14.9335C9.38341 16.0983 11.8586 16.2454 12.7983 14.6893ZM16.3555 8.73192C15.5284 8.79928 14.8168 9.19679 14.3482 9.84794C13.3233 11.2849 13.8673 13.3006 15.6355 14.638C17.2791 15.9138 19.6829 16.1742 20.7525 14.6825C21.8146 13.1928 20.8276 10.8817 19.1787 9.67595C18.2755 8.9908 17.2718 8.65827 16.3555 8.73192ZM10.2229 20.3534C9.99824 21.0519 9.4844 21.5691 8.75938 21.8499C6.05664 22.9042 1.90554 20.2237 2.88244 17.1985C3.84164 14.2853 8.02586 15.1846 9.69999 17.6926C10.2892 18.572 10.4803 19.5389 10.2229 20.3534ZM13.4284 18.585C12.1303 21.5573 17.579 27.9394 19.8186 29.3201C23.0008 31.0367 24.5024 28.0837 25.7504 25.2362L25.7526 25.2313C25.8485 25.008 25.9459 24.7872 26.0424 24.5687C26.8671 22.6996 27.6189 20.9958 26.7697 19.2556C26.4356 18.6182 25.881 18.086 25.1145 17.6696C22.7841 16.5616 14.7867 15.6697 13.4284 18.585ZM11.889 22.995C13.0417 23.4085 14.0261 24.1925 14.5928 25.1507C15.0401 25.9043 15.1893 26.7148 15.0171 27.4296C14.5702 29.2596 12.2943 29.7982 10.4164 29.0819C9.36826 28.701 8.51742 28.0321 8.01776 27.1893C7.56737 26.428 7.42206 25.5649 7.61915 24.7663C8.04255 23.0026 9.84067 22.2592 11.889 22.995Z" fill="#04A427"/>
<path opacity="0.06" fill-rule="evenodd" clip-rule="evenodd" d="M167.551 11.0466C169.763 10.6007 170.438 8.06673 169.671 5.84904C168.873 3.46806 166.774 2.02177 164.673 2.41914C162.498 2.82461 161.641 5.01156 162.423 7.23181C163.098 9.41328 165.376 11.4666 167.551 11.0466ZM175.837 9.40813C174.981 8.80871 173.969 8.5456 172.986 8.66216C170.826 8.92656 169.714 10.8537 170.34 13.2375C170.895 15.4776 173.012 17.5591 175.26 17.2892C177.499 17.0148 178.421 14.5198 177.804 12.3277C177.486 11.1086 176.784 10.0729 175.837 9.40813ZM160.452 13.2404C159.667 13.5838 158.749 13.5651 157.819 13.2047C154.344 11.8667 152.502 6.61203 155.907 5.12812C159.203 3.71361 162.525 7.66881 162.108 10.8499C161.964 11.967 161.364 12.8365 160.452 13.2404ZM164.992 14.4432C161.32 15.6356 161.41 24.6637 162.457 27.45C164.144 31.2264 167.998 30.2083 171.521 29.0695L171.527 29.0676C171.802 28.9767 172.076 28.889 172.347 28.8021C174.664 28.0589 176.777 27.3815 177.369 25.4198C177.563 24.683 177.459 23.8515 177.055 22.9397C175.698 20.285 168.677 13.3407 164.992 14.4432ZM159.919 16.5144C160.699 17.7274 161.015 19.0839 160.785 20.2419C160.606 21.1539 160.092 21.8743 159.344 22.2709C157.424 23.2817 154.782 21.8952 153.545 19.8873C152.84 18.7807 152.559 17.6148 152.76 16.5953C152.943 15.675 153.504 14.9187 154.344 14.4792C156.187 13.4993 158.533 14.3583 159.919 16.5144Z" fill="#04A427"/>
</svg>
