<svg width="157" height="117" viewBox="0 0 157 117" fill="none" xmlns="http://www.w3.org/2000/svg">
<path opacity="0.07" fill-rule="evenodd" clip-rule="evenodd" d="M37.9494 27.43C41.6506 29.2647 45.6389 26.2116 47.1824 21.9998C48.8764 17.5072 47.5922 12.9489 44.1071 11.1663C40.508 9.31334 36.6731 11.6377 35.1481 15.8703C33.5154 19.9227 34.3322 25.5984 37.9494 27.43ZM51.778 34.3495C51.266 32.4763 50.1289 30.9325 48.5813 29.9942C45.1703 27.9444 41.2811 29.5893 39.3366 33.8909C37.4623 37.8959 38.0147 43.4315 41.5582 45.5724C45.0942 47.6966 49.3892 44.9816 51.1174 40.9787C52.1147 38.781 52.3432 36.4247 51.778 34.3495ZM25.1663 22.6916C23.6317 22.3192 22.3386 21.2508 21.4348 19.6532C18.0503 13.6993 21.6731 3.69275 28.3206 5.31472C34.7304 6.91875 34.7767 16.6438 30.3883 20.9654C28.8507 22.4859 26.9535 23.1155 25.1663 22.6916ZM30.238 29.6494C23.5538 27.2844 12.9241 40.9929 11.1038 46.3786C9.02074 53.9817 15.7571 56.815 22.1628 59.0908L22.1738 59.0949C22.6753 59.2691 23.1722 59.447 23.664 59.6231C27.8711 61.1298 31.7061 62.5031 34.8922 60.2173C36.0488 59.3272 36.89 57.9555 37.3977 56.1236C38.6173 50.5854 36.8324 32.1636 30.238 29.6494ZM20.4959 27.023C20.1687 29.7355 19.0054 32.1382 17.2958 33.6229C15.952 34.7943 14.3568 35.2973 12.8125 35.0476C8.85643 34.3951 6.72293 29.3116 7.34351 24.8841C7.65126 22.4169 8.63885 20.3419 10.142 19.0332C11.5002 17.8531 13.2051 17.3486 14.9325 17.6381C18.742 18.2504 21.0797 22.2031 20.4959 27.023Z" fill="#04A427"/>
<path opacity="0.07" fill-rule="evenodd" clip-rule="evenodd" d="M132.833 77.5734C136.089 76.2384 137.066 71.6301 135.918 67.9373C134.724 63.9661 131.621 61.9581 128.527 63.1805C125.327 64.4353 124.08 68.4811 125.25 72.1746C126.26 75.8271 129.632 78.8538 132.833 77.5734ZM145.032 72.6307C143.766 71.795 142.273 71.5875 140.825 72.0379C137.644 73.0421 136.021 76.6963 136.961 80.7156C137.796 84.5009 140.931 87.6173 144.241 86.5814C147.539 85.54 148.878 80.9383 147.953 77.2527C147.475 75.1966 146.433 73.558 145.032 72.6307ZM122.392 83.1956C121.238 83.9938 119.885 84.1909 118.512 83.7925C113.382 82.3187 110.628 73.5748 115.633 70.1227C120.48 66.8192 125.404 72.9162 124.814 78.5932C124.611 80.5861 123.732 82.2598 122.392 83.1956ZM128.737 82.7784C123.335 85.7869 123.537 101.58 125.1 106.199C127.615 112.392 133.286 109.643 138.468 106.766L138.477 106.761C138.88 106.533 139.283 106.311 139.682 106.091C143.091 104.208 146.199 102.493 147.056 98.9079C147.337 97.5686 147.177 96.138 146.574 94.6419C144.555 90.3312 134.158 79.9242 128.737 82.7784ZM121.629 89.0645C122.789 90.994 123.265 93.291 122.935 95.3773C122.678 97.0198 121.926 98.4105 120.827 99.2926C118.006 101.544 114.102 99.7767 112.265 96.5691C111.217 94.8072 110.795 92.835 111.083 90.9986C111.345 89.3408 112.165 87.8755 113.4 86.8953C116.108 84.717 119.571 85.6344 121.629 89.0645Z" fill="#04A427"/>
</svg>
