<svg width="190" height="69" viewBox="0 0 190 69" fill="none" xmlns="http://www.w3.org/2000/svg">
<path opacity="0.05" fill-rule="evenodd" clip-rule="evenodd" d="M38.6139 27.5982C42.3151 29.4328 46.3035 26.3797 47.8469 22.168C49.541 17.6754 48.2567 13.1171 44.7716 11.3344C41.1725 9.48149 37.3376 11.8059 35.8127 16.0385C34.1799 20.0909 34.9968 25.7666 38.6139 27.5982ZM52.4426 34.5176C51.9306 32.6444 50.7935 31.1007 49.2459 30.1624C45.8348 28.1126 41.9456 29.7575 40.0012 34.0591C38.1268 38.064 38.6792 43.5996 42.2227 45.7406C45.7588 47.8648 50.0538 45.1498 51.782 41.1468C52.7793 38.9492 53.0078 36.5929 52.4426 34.5176ZM25.8309 22.8597C24.2963 22.4874 23.0032 21.4189 22.0993 19.8214C18.7149 13.8674 22.3376 3.8609 28.9851 5.48287C35.395 7.0869 35.4413 16.8119 31.0528 21.1336C29.5153 22.654 27.6181 23.2836 25.8309 22.8597ZM30.9026 29.8176C24.2184 27.4525 13.5887 41.161 11.7684 46.5468C9.68529 54.1498 16.4217 56.9832 22.8273 59.259L22.8383 59.2631C23.3399 59.4372 23.8368 59.6152 24.3286 59.7913C28.5357 61.2979 32.3706 62.6712 35.5567 60.3854C36.7133 59.4954 37.5545 58.1237 38.0623 56.2918C39.2818 50.7535 37.4969 32.3317 30.9026 29.8176ZM21.1605 27.1892C20.8333 29.9017 19.67 32.3044 17.9603 33.7891C16.6166 34.9605 15.0214 35.4635 13.4771 35.2138C9.52099 34.5613 7.38749 29.4778 8.00806 25.0503C8.31581 22.583 9.3034 20.5081 10.8065 19.1994C12.1648 18.0193 13.8696 17.5148 15.597 17.8043C19.4065 18.4166 21.7443 22.3693 21.1605 27.1892Z" fill="#04A427"/>
<path opacity="0.05" fill-rule="evenodd" clip-rule="evenodd" d="M165.769 28.4953C169.025 27.1603 170.001 22.552 168.854 18.8592C167.66 14.888 164.556 12.88 161.463 14.1023C158.262 15.3571 157.016 19.4029 158.185 23.0965C159.196 26.749 162.568 29.7757 165.769 28.4953ZM177.968 23.5487C176.702 22.7129 175.208 22.5055 173.761 22.9559C170.58 23.9601 168.957 27.6142 169.897 31.6336C170.732 35.4188 173.866 38.5353 177.177 37.4994C180.474 36.4579 181.814 31.8563 180.888 28.1707C180.41 26.1146 179.368 24.476 177.968 23.5487ZM155.329 34.1155C154.174 34.9137 152.822 35.1108 151.448 34.7125C146.319 33.2386 143.565 24.4947 148.57 21.0426C153.416 17.7391 158.341 23.8361 157.751 29.5131C157.547 31.506 156.668 33.1797 155.329 34.1155ZM162.026 35.0834C156.624 38.092 156.826 53.8847 158.389 58.5037C160.904 64.6967 166.575 61.9481 171.757 59.0708L171.766 59.066C172.169 58.8382 172.572 58.6159 172.97 58.396L172.971 58.3958C176.38 56.5135 179.488 54.7978 180.345 51.2129C180.626 49.8736 180.466 48.4431 179.864 46.947C177.844 42.6362 167.447 32.2292 162.026 35.0834ZM154.565 39.9864C155.724 41.9159 156.2 44.2129 155.87 46.2991C155.613 47.9417 154.861 49.3324 153.762 50.2144C150.941 52.4659 147.038 50.6986 145.2 47.4909C144.152 45.7291 143.73 43.7569 144.019 41.9205C144.281 40.2627 145.101 38.7974 146.335 37.8171C149.044 35.6389 152.507 36.5562 154.565 39.9864Z" fill="#04A427"/>
</svg>
