<svg width="140" height="51" viewBox="0 0 140 51" fill="none" xmlns="http://www.w3.org/2000/svg">
<path opacity="0.06" fill-rule="evenodd" clip-rule="evenodd" d="M29.8128 20.492C32.7205 21.8625 35.8538 19.5818 37.0664 16.4356C38.3973 13.0796 37.3883 9.67445 34.6504 8.34279C31.8229 6.95862 28.8101 8.69495 27.6121 11.8568C26.3294 14.884 26.9711 19.1238 29.8128 20.492ZM40.6791 25.6612C40.2769 24.2619 39.3836 23.1087 38.1678 22.4078C35.488 20.8765 32.4326 22.1053 30.905 25.3187C29.4325 28.3104 29.8665 32.4456 32.6503 34.0449C35.4283 35.6317 38.8024 33.6036 40.1602 30.6133C40.9437 28.9716 41.1232 27.2114 40.6791 25.6612ZM19.7696 16.9516C18.564 16.6735 17.5481 15.8753 16.8381 14.6819C14.1792 10.2343 17.0252 2.75925 22.2476 3.97089C27.2833 5.16912 27.3197 12.4338 23.872 15.6622C22.6641 16.798 21.1736 17.2683 19.7696 16.9516ZM23.7547 22.1516C18.5035 20.3849 10.1526 30.6253 8.72257 34.6485C7.08609 40.3281 12.3783 42.4446 17.4106 44.1447L17.4193 44.1478C17.813 44.2777 18.2031 44.4106 18.5892 44.542L18.5901 44.5423C21.8952 45.6678 24.908 46.6937 27.4111 44.9862C28.3197 44.3213 28.9805 43.2966 29.3794 41.9281C30.3376 37.791 28.9353 24.0297 23.7547 22.1516ZM16.1013 20.1852C15.8442 22.2115 14.9303 24.0063 13.5872 25.1154C12.5315 25.9904 11.2783 26.3662 10.0651 26.1796C6.95711 25.6922 5.281 21.8948 5.76853 18.5874C6.0103 16.7443 6.78617 15.1943 7.96704 14.2167C9.03412 13.3352 10.3735 12.9583 11.7305 13.1746C14.7233 13.6319 16.5599 16.5846 16.1013 20.1852Z" fill="#04A427"/>
<path opacity="0.06" fill-rule="evenodd" clip-rule="evenodd" d="M120.653 15.3675C123.211 14.3702 123.978 10.9278 123.076 8.16917C122.138 5.20264 119.7 3.70264 117.27 4.61578C114.755 5.55312 113.776 8.57539 114.695 11.3345C115.489 14.063 118.138 16.324 120.653 15.3675ZM130.236 11.6734C129.242 11.0491 128.069 10.8942 126.932 11.2306C124.432 11.9807 123.157 14.7105 123.896 17.713C124.552 20.5406 127.014 22.8686 129.615 22.0948C132.205 21.3168 133.258 17.8793 132.531 15.1261C132.155 13.5902 131.337 12.3662 130.236 11.6734ZM112.45 19.5666C111.543 20.1629 110.48 20.3101 109.401 20.0126C105.371 18.9115 103.207 12.3798 107.14 9.80101C110.947 7.33328 114.816 11.8878 114.352 16.1286C114.192 17.6173 113.502 18.8676 112.45 19.5666ZM117.713 20.2909C113.469 22.5383 113.627 34.3357 114.856 37.7861C116.831 42.4124 121.287 40.3592 125.358 38.2098L125.365 38.2062C125.682 38.036 125.998 37.8699 126.311 37.7055C128.99 36.2995 131.431 35.0178 132.105 32.3398C132.325 31.3394 132.199 30.2707 131.726 29.1531C130.14 25.9329 121.972 18.1588 117.713 20.2909ZM111.85 23.9529C112.761 25.3942 113.135 27.1101 112.876 28.6686C112.674 29.8956 112.083 30.9344 111.22 31.5934C109.003 33.2752 105.937 31.955 104.493 29.5589C103.67 28.2428 103.338 26.7695 103.565 25.3977C103.771 24.1593 104.415 23.0647 105.385 22.3324C107.513 20.7052 110.233 21.3905 111.85 23.9529Z" fill="#04A427"/>
</svg>
