<svg width="130" height="59" viewBox="0 0 130 59" fill="none" xmlns="http://www.w3.org/2000/svg">
<path opacity="0.06" fill-rule="evenodd" clip-rule="evenodd" d="M29.8128 28.5272C32.7205 29.8977 35.8538 27.617 37.0664 24.4708C38.3973 21.1147 37.3883 17.7096 34.6504 16.3779C31.8229 14.9938 28.8101 16.7301 27.6121 19.8919C26.3294 22.9191 26.9711 27.1589 29.8128 28.5272ZM40.6791 33.6963C40.2769 32.297 39.3836 31.1438 38.1678 30.4429C35.488 28.9117 32.4326 30.1405 30.905 33.3538C29.4325 36.3455 29.8665 40.4807 32.6503 42.0801C35.4283 43.6668 38.8024 41.6387 40.1602 38.6484C40.9437 37.0068 41.1232 35.2466 40.6791 33.6963ZM19.7696 24.9868C18.564 24.7086 17.5481 23.9105 16.8381 22.7171C14.1792 18.2694 17.0252 10.7944 22.2476 12.006C27.2833 13.2043 27.3197 20.469 23.872 23.6973C22.6641 24.8331 21.1736 25.3034 19.7696 24.9868ZM23.7547 30.1868C18.5035 28.42 10.1526 38.6605 8.72257 42.6837C7.08609 48.3633 12.3783 50.4798 17.4106 52.1799L17.4193 52.1829C17.813 52.3129 18.2031 52.4457 18.5892 52.5772L18.5901 52.5775C21.8952 53.703 24.908 54.7289 27.4111 53.0213C28.3197 52.3564 28.9805 51.3318 29.3794 49.9633C30.3376 45.8262 28.9353 32.0649 23.7547 30.1868ZM16.1013 28.2203C15.8442 30.2466 14.9303 32.0414 13.5872 33.1505C12.5315 34.0256 11.2783 34.4013 10.0651 34.2148C6.95711 33.7274 5.281 29.9299 5.76853 26.6225C6.0103 24.7795 6.78617 23.2295 7.96704 22.2518C9.03412 21.3703 10.3735 20.9935 11.7305 21.2097C14.7233 21.6671 16.5599 24.6198 16.1013 28.2203Z" fill="#04A427"/>
<path opacity="0.06" fill-rule="evenodd" clip-rule="evenodd" d="M110.819 15.6844C113.377 14.6871 114.144 11.2447 113.242 8.48607C112.304 5.51953 109.866 4.01954 107.436 4.93267C104.922 5.87001 103.942 8.89228 104.861 11.6514C105.655 14.3799 108.304 16.6409 110.819 15.6844ZM120.402 11.9903C119.408 11.366 118.235 11.2111 117.098 11.5475C114.598 12.2976 113.323 15.0274 114.062 18.0299C114.718 20.8575 117.18 23.1855 119.781 22.4117C122.371 21.6337 123.424 18.1962 122.697 15.443C122.321 13.9071 121.503 12.683 120.402 11.9903ZM102.616 19.8835C101.709 20.4798 100.646 20.627 99.5668 20.3295C95.537 19.2284 93.3734 12.6967 97.3056 10.1179C101.113 7.65017 104.982 12.2047 104.518 16.4455C104.358 17.9342 103.668 19.1845 102.616 19.8835ZM107.879 20.6078C103.635 22.8552 103.793 34.6526 105.022 38.103C106.997 42.7293 111.453 40.6761 115.524 38.5267L115.531 38.5231C115.848 38.3529 116.164 38.1868 116.477 38.0224C119.156 36.6163 121.597 35.3347 122.271 32.6567C122.491 31.6563 122.365 30.5876 121.892 29.47C120.306 26.2498 112.138 18.4757 107.879 20.6078ZM102.016 24.2698C102.927 25.7111 103.301 27.427 103.042 28.9855C102.84 30.2125 102.249 31.2513 101.386 31.9102C99.1693 33.5921 96.1029 32.2719 94.6594 29.8758C93.8361 28.5597 93.5044 27.0864 93.731 25.7146C93.9368 24.4762 94.5813 23.3816 95.5509 22.6493C97.6789 21.0221 100.399 21.7074 102.016 24.2698Z" fill="#04A427"/>
</svg>
