<svg width="229" height="99" viewBox="0 0 229 99" fill="none" xmlns="http://www.w3.org/2000/svg">
<path opacity="0.06" fill-rule="evenodd" clip-rule="evenodd" d="M54.1186 35.512C60.1716 34.2288 62.0208 26.9362 59.9211 20.554C57.7374 13.7018 51.9935 9.53956 46.2427 10.6832C40.2927 11.85 37.9467 18.1438 40.0875 24.5335C41.9343 30.8114 48.1672 36.7208 54.1186 35.512ZM76.7965 30.7948C74.4546 29.0698 71.6843 28.3126 68.9944 28.648C63.0823 29.4089 60.0413 34.9549 61.7534 41.8153C63.2722 48.262 69.0643 54.2524 75.2166 53.4756C81.3445 52.6859 83.8681 45.5057 82.1794 39.1971C81.3094 35.6886 79.3886 32.7079 76.7965 30.7948ZM34.6968 41.8232C32.548 42.8115 30.036 42.7577 27.4899 41.7205C17.9818 37.8698 12.9411 22.7476 22.258 18.4771C31.2791 14.4063 40.3689 25.7889 39.2282 34.9436C38.8344 38.1584 37.1904 40.6608 34.6968 41.8232ZM47.1196 45.2852C37.0692 48.7168 37.317 74.6984 40.1822 82.7172C44.7988 93.5852 55.3456 90.6553 64.9858 87.3778L65.0025 87.3723C65.7536 87.1109 66.5027 86.8583 67.2441 86.6083L67.2442 86.6083C73.5868 84.4696 79.3683 82.5201 80.9878 76.8744C81.5197 74.7542 81.2336 72.3611 80.1281 69.737C76.4155 62.0972 57.203 42.1123 47.1196 45.2852ZM33.2331 51.2484C35.3689 54.7393 36.2344 58.6429 35.6052 61.9756C35.1148 64.6003 33.708 66.6734 31.6616 67.8148C26.4075 70.7237 19.1779 66.7335 15.7935 60.9552C13.8628 57.7706 13.0952 54.4152 13.6453 51.4811C14.1447 48.8327 15.679 46.6561 17.9774 45.3913C23.0219 42.5712 29.4409 45.0432 33.2331 51.2484Z" fill="#04A427"/>
<path opacity="0.06" fill-rule="evenodd" clip-rule="evenodd" d="M181.368 31.4283C183.953 26.8349 180.818 20.5135 176.039 17.2409C170.947 13.6845 165.435 14.2089 162.936 18.5191C160.342 22.967 162.636 28.8785 167.442 32.1313C172.023 35.4833 178.796 35.9068 181.368 31.4283ZM191.104 14.2834C188.84 14.4772 186.893 15.6212 185.611 17.4952C182.806 21.6306 184.294 27.4315 189.133 31.2805C193.631 34.952 200.209 35.7013 203.136 31.4084C206.042 27.1213 203.341 20.4701 198.829 17.0002C196.357 15.0284 193.611 14.0715 191.104 14.2834ZM174.322 47.7289C173.708 49.7393 172.301 51.2276 170.317 52.0358C162.922 55.07 151.562 47.3558 154.235 38.6497C156.86 30.2657 168.31 32.8537 172.891 40.0717C174.504 42.6023 175.027 45.3849 174.322 47.7289ZM183.094 42.6471C179.542 51.2012 194.452 69.568 200.58 73.5417C209.288 78.4817 213.398 69.9835 216.812 61.7886L216.819 61.7745C217.081 61.1318 217.348 60.4965 217.612 59.8677C219.868 54.4885 221.926 49.5853 219.602 44.5772C218.688 42.7428 217.17 41.2111 215.073 40.0128C208.695 36.8242 186.811 34.2574 183.094 42.6471ZM178.88 55.3374C182.035 56.5274 184.729 58.7835 186.279 61.5412C187.503 63.7099 187.912 66.0424 187.44 68.0996C186.218 73.3661 179.99 74.9161 174.851 72.8548C171.983 71.7585 169.654 69.8336 168.287 67.4081C167.055 65.217 166.657 62.7332 167.196 60.4349C168.355 55.3591 173.275 53.2197 178.88 55.3374Z" fill="#04A427"/>
</svg>
