<svg width="195" height="178" viewBox="0 0 195 178" fill="none" xmlns="http://www.w3.org/2000/svg">
<path opacity="0.05" fill-rule="evenodd" clip-rule="evenodd" d="M56.8421 41.0876C62.3859 43.8356 68.3598 39.2625 70.6716 32.954C73.2091 26.2248 71.2855 19.3972 66.0653 16.7271C60.6745 13.9516 54.9304 17.4332 52.6462 23.773C50.2007 29.8428 51.4242 38.3441 56.8421 41.0876ZM77.556 51.4538C76.7891 48.648 75.0858 46.3357 72.7678 44.9303C67.6586 41.86 61.8332 44.3238 58.9207 50.767C56.1132 56.7657 56.9406 65.0572 62.2482 68.264C67.5447 71.4457 73.9779 67.3791 76.5665 61.3833C78.0603 58.0916 78.4025 54.5622 77.556 51.4538ZM37.694 33.9914C35.3954 33.4337 33.4585 31.8333 32.1047 29.4404C27.0354 20.5224 32.4616 5.53414 42.4185 7.96359C52.0195 10.3662 52.0889 24.9327 45.5156 31.4059C43.2126 33.6833 40.3709 34.6263 37.694 33.9914ZM45.291 44.4118C35.2791 40.8694 19.3575 61.4025 16.6309 69.4695C13.5108 80.8577 23.6009 85.1015 33.1955 88.5104L33.212 88.5165C33.9632 88.7773 34.7075 89.0439 35.4441 89.3077L35.4442 89.3077C41.7458 91.5644 47.4899 93.6214 52.2622 90.1976C53.9945 88.8644 55.2545 86.8099 56.015 84.0659C57.8418 75.7705 55.1683 48.1776 45.291 44.4118ZM30.6997 40.4746C30.2096 44.5376 28.4671 48.1363 25.9064 50.3602C23.8937 52.1148 21.5043 52.8682 19.1911 52.4942C13.2656 51.5168 10.0699 43.9026 10.9994 37.2709C11.4604 33.5754 12.9397 30.4674 15.1911 28.5071C17.2256 26.7396 19.7791 25.984 22.3665 26.4176C28.0725 27.3346 31.5741 33.2551 30.6997 40.4746Z" fill="#04A427"/>
<path opacity="0.05" fill-rule="evenodd" clip-rule="evenodd" d="M159.186 116.814C164.063 114.814 165.525 107.912 163.807 102.38C162.019 96.4322 157.37 93.4245 152.736 95.2554C147.942 97.1349 146.075 103.195 147.827 108.727C149.341 114.198 154.391 118.732 159.186 116.814ZM177.457 109.406C175.562 108.154 173.324 107.843 171.156 108.518C166.391 110.022 163.961 115.495 165.369 121.515C166.619 127.185 171.314 131.853 176.273 130.301C181.212 128.742 183.218 121.849 181.832 116.329C181.116 113.249 179.555 110.795 177.457 109.406ZM143.549 125.231C141.819 126.427 139.793 126.722 137.736 126.125C130.052 123.917 125.927 110.821 133.425 105.65C140.684 100.702 148.06 109.834 147.176 118.337C146.871 121.322 145.555 123.829 143.549 125.231ZM153.581 126.685C145.489 131.191 145.792 154.846 148.134 161.765C151.9 171.041 160.395 166.924 168.157 162.614L168.17 162.607C168.775 162.266 169.378 161.933 169.975 161.603C175.082 158.784 179.737 156.214 181.021 150.845C181.441 148.838 181.201 146.696 180.299 144.455C177.275 137.998 161.701 122.41 153.581 126.685ZM142.405 134.023C144.142 136.913 144.855 140.354 144.361 143.479C143.976 145.939 142.849 148.022 141.203 149.343C136.977 152.716 131.131 150.068 128.379 145.264C126.809 142.625 126.177 139.671 126.609 136.92C127.001 134.437 128.23 132.242 130.079 130.774C134.136 127.511 139.322 128.885 142.405 134.023Z" fill="#04A427"/>
</svg>
