<svg width="50" height="20" viewBox="0 0 50 20" fill="none" xmlns="http://www.w3.org/2000/svg">
<path d="M2.29289 9.2929C1.90237 9.68342 1.90237 10.3166 2.29289 10.7071L8.65685 17.0711C9.04738 17.4616 9.68054 17.4616 10.0711 17.0711C10.4616 16.6805 10.4616 16.0474 10.0711 15.6569L4.41421 10L10.0711 4.34315C10.4616 3.95262 10.4616 3.31946 10.0711 2.92894C9.68054 2.53841 9.04738 2.53841 8.65685 2.92894L2.29289 9.2929ZM49 9L3 9L3 11L49 11L49 9Z" fill="white"/>
<path d="M2.29289 9.2929C1.90237 9.68342 1.90237 10.3166 2.29289 10.7071L8.65685 17.0711C9.04738 17.4616 9.68054 17.4616 10.0711 17.0711C10.4616 16.6805 10.4616 16.0474 10.0711 15.6569L4.41421 10L10.0711 4.34315C10.4616 3.95262 10.4616 3.31946 10.0711 2.92894C9.68054 2.53841 9.04738 2.53841 8.65685 2.92894L2.29289 9.2929ZM49 9L3 9L3 11L49 11L49 9Z" fill="white"/>
</svg>
