<svg width="62" height="76" viewBox="0 0 62 76" fill="none" xmlns="http://www.w3.org/2000/svg">
<path opacity="0.02" fill-rule="evenodd" clip-rule="evenodd" d="M36.3871 23.1494C41.738 21.063 43.3428 13.8615 41.457 8.09052C39.4949 1.88456 34.394 -1.25343 29.31 0.656843C24.0498 2.61776 22.0011 8.94032 23.9232 14.7124C25.5847 20.4203 31.1259 25.1503 36.3871 23.1494ZM56.4337 15.4175C54.3538 14.1114 51.8991 13.7873 49.5202 14.491C44.2919 16.0603 41.6248 21.7709 43.1696 28.0521C44.5416 33.9675 49.693 38.8376 55.1339 37.2188C60.5532 35.5913 62.7553 28.4002 61.2336 22.6404C60.4485 19.4273 58.7358 16.8666 56.4337 15.4175ZM19.2279 31.9245C17.3306 33.172 15.1075 33.4799 12.8498 32.8574C4.41936 30.5541 -0.106794 16.8897 8.11941 11.4949C16.0846 6.33248 24.1777 15.8604 23.2079 24.7322C22.8734 27.8466 21.4294 30.4621 19.2279 31.9245ZM30.2362 33.446C21.3573 38.1476 21.6892 62.8277 24.2594 70.0459C28.3918 79.7241 37.7121 75.4287 46.2287 70.9322L46.2435 70.9247C46.907 70.5686 47.5688 70.2212 48.2238 69.8773C53.8273 66.9358 58.935 64.2545 60.3437 58.6523C60.8052 56.5594 60.5416 54.3238 59.552 51.9857C56.2335 45.2492 39.1454 28.9857 30.2362 33.446ZM17.9733 41.1054C19.8784 44.1207 20.6612 47.7104 20.1189 50.9706C19.6963 53.5376 18.4603 55.7108 16.6544 57.0893C12.0175 60.6078 5.60267 57.8459 2.58267 52.8331C0.860368 50.0799 0.166628 46.9978 0.640664 44.128C1.07114 41.5373 2.41938 39.2473 4.44782 37.7155C8.89959 34.3114 14.5905 35.745 17.9733 41.1054Z" fill="#04A427"/>
</svg>
