<svg width="343" height="254" viewBox="0 0 343 254" fill="none" xmlns="http://www.w3.org/2000/svg">
<path opacity="0.05" fill-rule="evenodd" clip-rule="evenodd" d="M70.4146 48.3985C77.2822 51.6355 84.6826 46.2488 87.5464 38.8178C90.6898 30.8914 88.3069 22.849 81.8402 19.7038C75.1621 16.4346 68.0464 20.5356 65.2168 28.0033C62.1873 35.1531 63.7029 45.1669 70.4146 48.3985ZM96.0753 60.6077C95.1253 57.3028 93.0153 54.5791 90.1438 52.9236C83.8146 49.3071 76.5981 52.2092 72.9902 59.7987C69.5124 66.8648 70.5373 76.6314 77.1123 80.4088C83.6735 84.1566 91.6428 79.3664 94.8495 72.3039C96.7001 68.4265 97.124 64.2692 96.0753 60.6077ZM46.6944 40.0397C43.847 39.3827 41.4476 37.4976 39.7705 34.679C33.4907 24.1743 40.2126 6.51938 52.5471 9.38108C64.4407 12.2111 64.5266 29.3693 56.3838 36.9942C53.5309 39.6767 50.0106 40.7875 46.6944 40.0397ZM56.1043 52.3138C43.7017 48.141 23.9782 72.3274 20.6007 81.8296C16.7355 95.244 29.2349 100.243 41.1206 104.258L41.141 104.265C42.0716 104.573 42.9936 104.887 43.9062 105.197C51.7125 107.856 58.8283 110.279 64.7401 106.246C66.8862 104.675 68.447 102.255 69.3891 99.023C71.6521 89.2517 68.3402 56.7496 56.1043 52.3138ZM38.0301 47.6781C37.4229 52.4639 35.2644 56.7029 32.0922 59.3224C29.5989 61.3892 26.6389 62.2767 23.7734 61.8361C16.4329 60.6848 12.4742 51.7159 13.6257 43.9043C14.1967 39.5513 16.0292 35.8903 18.8182 33.5813C21.3385 31.4993 24.5018 30.6093 27.707 31.12C34.7756 32.2002 39.1132 39.1741 38.0301 47.6781Z" fill="white"/>
<path opacity="0.05" fill-rule="evenodd" clip-rule="evenodd" d="M298.5 182.297C304.541 179.942 306.352 171.811 304.223 165.296C302.008 158.289 296.249 154.747 290.509 156.903C284.571 159.117 282.258 166.255 284.428 172.772C286.304 179.216 292.56 184.556 298.5 182.297ZM321.132 173.571C318.784 172.096 316.013 171.73 313.327 172.525C307.424 174.296 304.413 180.744 306.157 187.835C307.706 194.514 313.522 200.012 319.665 198.184C325.783 196.347 328.269 188.228 326.551 181.725C325.665 178.098 323.731 175.207 321.132 173.571ZM279.127 192.212C276.985 193.621 274.475 193.968 271.926 193.265C262.408 190.665 257.298 175.238 266.586 169.147C275.578 163.319 284.715 174.076 283.62 184.092C283.243 187.608 281.613 190.561 279.127 192.212ZM291.556 193.924C281.532 199.232 281.906 227.096 284.808 235.245C289.474 246.172 299.996 241.323 309.611 236.246L309.628 236.237C310.377 235.836 311.124 235.443 311.864 235.055C318.19 231.734 323.957 228.707 325.547 222.382C326.068 220.019 325.771 217.495 324.653 214.855C320.907 207.25 301.614 188.889 291.556 193.924ZM277.711 202.569C279.862 205.974 280.745 210.026 280.133 213.707C279.656 216.605 278.261 219.059 276.222 220.615C270.987 224.588 263.744 221.469 260.335 215.81C258.39 212.702 257.607 209.222 258.142 205.982C258.628 203.057 260.15 200.472 262.441 198.742C267.467 194.899 273.892 196.518 277.711 202.569Z" fill="white"/>
</svg>
