<svg width="184" height="159" viewBox="0 0 184 159" fill="none" xmlns="http://www.w3.org/2000/svg">
<path opacity="0.05" fill-rule="evenodd" clip-rule="evenodd" d="M53.5357 36.7957C58.757 39.2567 64.3833 35.1614 66.5607 29.5118C68.9505 23.4855 67.1388 17.371 62.2224 14.9798C57.1451 12.4943 51.7352 15.6122 49.584 21.2898C47.2807 26.7256 48.433 34.3389 53.5357 36.7957ZM73.0443 46.079C72.322 43.5663 70.7179 41.4956 68.5347 40.237C63.7227 37.4874 58.2362 39.6938 55.4932 45.464C52.8491 50.8361 53.6283 58.2615 58.6272 61.1334C63.6155 63.9827 69.6744 60.3409 72.1124 54.9713C73.5193 52.0235 73.8416 48.8628 73.0443 46.079ZM35.5011 30.4447C33.3363 29.9452 31.5121 28.512 30.237 26.3691C25.4626 18.3826 30.5732 4.95997 39.9508 7.13565C48.9932 9.28727 49.0585 22.3322 42.8677 28.1293C40.6987 30.1688 38.0223 31.0133 35.5011 30.4447ZM42.655 39.7742C33.2256 36.6018 18.2303 54.9901 15.6623 62.2145C12.7238 72.4131 22.2268 76.2137 31.2632 79.2665L31.2787 79.2719C31.9862 79.5055 32.6872 79.7442 33.381 79.9805C39.316 82.0014 44.7259 83.8436 49.2206 80.7774C50.8522 79.5835 52.0388 77.7436 52.7551 75.2862C54.4756 67.8573 51.9576 43.1466 42.655 39.7742ZM28.9133 36.2502C28.4517 39.8887 26.8106 43.1115 24.3988 45.1031C22.5032 46.6744 20.2528 47.3491 18.0743 47.0142C12.4934 46.1389 9.48372 39.32 10.3592 33.381C10.7933 30.0715 12.1865 27.2882 14.307 25.5327C16.2231 23.9498 18.628 23.2731 21.0649 23.6614C26.439 24.4827 29.7368 29.7848 28.9133 36.2502Z" fill="#04A427"/>
<path opacity="0.05" fill-rule="evenodd" clip-rule="evenodd" d="M149.925 104.612C154.518 102.821 155.895 96.6397 154.276 91.6862C152.592 86.3593 148.214 83.6658 143.85 85.3055C139.335 86.9887 137.576 92.4157 139.226 97.3701C140.652 102.27 145.409 106.33 149.925 104.612ZM167.132 97.9756C165.347 96.8545 163.24 96.5763 161.198 97.1804C156.71 98.5274 154.421 103.429 155.747 108.821C156.925 113.898 161.347 118.078 166.017 116.689C170.668 115.292 172.559 109.119 171.252 104.175C170.579 101.417 169.109 99.2195 167.132 97.9756ZM135.196 112.15C133.567 113.22 131.659 113.485 129.721 112.95C122.485 110.973 118.6 99.2444 125.661 94.6138C132.498 90.1826 139.444 98.361 138.612 105.976C138.325 108.649 137.085 110.894 135.196 112.15ZM144.646 113.452C137.025 117.488 137.309 138.672 139.516 144.868C143.063 153.175 151.063 149.488 158.373 145.629L158.386 145.622C158.955 145.316 159.523 145.018 160.085 144.723C164.895 142.198 169.279 139.897 170.489 135.088C170.885 133.292 170.658 131.373 169.809 129.366C166.961 123.583 152.293 109.624 144.646 113.452ZM134.12 120.026C135.755 122.614 136.427 125.695 135.961 128.493C135.599 130.697 134.538 132.562 132.988 133.745C129.008 136.765 123.501 134.395 120.909 130.092C119.431 127.729 118.835 125.083 119.242 122.62C119.612 120.396 120.769 118.431 122.51 117.116C126.331 114.194 131.216 115.424 134.12 120.026Z" fill="#04A427"/>
</svg>
