<svg width="100" height="80" viewBox="0 0 100 80" fill="none" xmlns="http://www.w3.org/2000/svg">
<path d="M11.0642 67.8701C10.7749 69.3368 9.17942 70.6019 7.55762 70.6019H3.07796C2.90263 70.6019 2.87633 70.5858 2.99029 70.4408L10.6609 58.5223C10.7486 58.4418 10.6434 58.2564 10.5032 58.2564H2.4117C1.28083 58.2564 1.06167 58.1758 1.14933 57.6843C1.16687 57.6198 0.903873 57.5795 0.88634 57.644L0.000926096 61.1897C-0.0166068 61.2703 0.220088 61.3106 0.26392 61.2542C1.50876 58.8689 3.12179 58.6029 7.73295 58.6029C7.93458 58.6029 7.93458 58.619 7.84691 58.7641L0.0622924 70.7228C-0.0253722 70.8276 0.0622914 70.9887 0.176255 70.9887C3.48121 70.9887 7.48749 70.9887 10.7924 71.029C10.9239 71.029 10.9941 70.9082 10.9941 70.8276L11.3097 67.8701C11.3097 67.7815 11.0905 67.7815 11.0642 67.8701Z" fill="white"/>
<path d="M21.0404 58.0234C17.4462 58.0234 13.2383 60.1992 13.2383 64.6233C13.2383 68.2093 16.0085 71.2231 20.2602 71.2231C24.4681 71.2231 28.0448 68.2657 28.0448 64.4782C28.0448 61.2065 25.4061 58.0234 21.0404 58.0234ZM20.9966 70.7235C18.0949 70.7235 15.9647 67.8708 15.9647 63.8739C15.9647 60.5699 17.4462 58.5795 20.155 58.5795C23.3723 58.5795 25.3185 61.3516 25.3185 65.0826C25.3185 68.7009 23.46 70.7235 20.9966 70.7235Z" fill="white"/>
<path d="M38.0209 58.0234C34.4267 58.0234 30.2188 60.1992 30.2188 64.6233C30.2188 68.2093 32.989 71.2231 37.2495 71.2231C41.4574 71.2231 45.0341 68.2657 45.0341 64.4782C45.0253 61.2065 42.3866 58.0234 38.0209 58.0234ZM37.9771 70.7235C35.0754 70.7235 32.9451 67.8708 32.9451 63.8739C32.9451 60.5699 34.4267 58.5795 37.1355 58.5795C40.3528 58.5795 42.2989 61.3516 42.2989 65.0826C42.2989 68.7009 40.4404 70.7235 37.9771 70.7235Z" fill="white"/>
<path d="M65.9336 58.248C65.1797 58.248 64.7764 58.3125 63.9611 58.3125C62.8478 58.3125 62.2517 58.248 61.4802 58.248C61.3926 58.248 61.3926 58.4898 61.4802 58.4898C62.5848 58.4898 63.0757 59.5696 62.4796 61.0363L59.6217 68.0632L56.9655 62.9058L57.7808 60.8912C58.447 59.2634 59.2448 58.4898 60.2442 58.4898C60.3143 58.4898 60.3143 58.248 60.2442 58.248C59.5779 58.248 59.2448 58.3125 58.5172 58.3125C57.1847 58.3125 57.5178 58.248 57.0795 58.248C56.9918 58.248 56.9918 58.4898 57.0795 58.4898C57.8159 58.4898 57.8159 59.2231 57.1496 60.8348L56.5973 62.2047L55.6242 60.311C54.8528 58.8041 54.8265 58.4979 55.6242 58.4979C55.7119 58.4979 55.7119 58.2561 55.6242 58.2561C55.1333 58.2561 54.6073 58.3206 52.9417 58.3206C52.0125 58.3206 52.0125 58.2561 51.5654 58.2561C51.4777 58.2561 51.4777 58.4979 51.5654 58.4979C52.1001 58.4979 52.5209 59.0458 52.9855 59.9484L55.4489 64.7351L54.055 68.0954L50.0663 60.311C49.2949 58.8041 49.3562 58.4979 50.5748 58.4979C50.6624 58.4979 50.6624 58.2561 50.5748 58.2561C49.9786 58.2561 49.3299 58.3206 47.3575 58.3206C46.2529 58.3206 46.2529 58.2561 45.7357 58.2561C45.648 58.2561 45.648 58.4979 45.7357 58.4979C46.5773 58.4979 46.7964 58.7396 47.4188 59.9484L53.0732 70.9723C53.117 71.0771 53.5203 71.0771 53.5641 70.9723L55.7996 65.4523L58.6399 70.9723C58.6837 71.0771 59.087 71.0771 59.1308 70.9723L63.2335 60.9073C63.856 59.4165 64.8729 58.5059 65.9599 58.5059C65.995 58.4898 65.995 58.248 65.9336 58.248Z" fill="white"/>
<path d="M72.4032 70.7389C71.0269 70.7389 70.8252 70.5132 70.8252 69.3286V59.9325C70.8252 58.7721 71.0444 58.482 72.4032 58.482C72.4909 58.482 72.4909 58.2402 72.4032 58.2402C71.6493 58.2402 70.6937 58.3047 69.5629 58.3047C68.5021 58.3047 67.5027 58.2402 66.7225 58.2402C66.6524 58.2402 66.6524 58.482 66.7225 58.482C68.0726 58.482 68.3443 58.7237 68.3443 59.8922V69.3286C68.3443 70.5132 68.0813 70.7389 66.7225 70.7389C66.6524 70.7389 66.6524 70.9806 66.7225 70.9806C67.494 70.9806 68.4933 70.9403 69.5629 70.9403C70.6937 70.9403 71.623 70.9806 72.4032 70.9806C72.4909 70.9806 72.4909 70.7389 72.4032 70.7389Z" fill="white"/>
<path d="M84.7896 67.2735C84.2373 69.1914 82.4139 70.4082 80.117 70.4082H79.3631C78.2761 70.4082 78.1008 70.247 78.1008 69.2478V59.9161C78.1008 58.7557 78.3199 58.4898 79.6787 58.4898C79.7664 58.4898 79.7664 58.248 79.6787 58.248C78.9248 58.248 77.9693 58.3125 76.8647 58.3125C75.8039 58.3125 74.7607 58.248 74.0506 58.248C73.9805 58.248 73.9805 58.4898 74.0506 58.4898C75.4007 58.4898 75.6461 58.7316 75.6461 59.9V69.3364C75.6461 70.521 75.4007 70.7467 74.0506 70.7467C73.9805 70.7467 73.9805 70.9884 74.0506 70.9884H84.509C84.7545 70.9884 84.8422 70.9078 84.8422 70.6822C84.8422 69.6185 84.9561 68.2163 85.0438 67.3218C85.035 67.2332 84.8159 67.1929 84.7896 67.2735Z" fill="white"/>
<path d="M92.3734 58.207C91.4617 58.207 90.0415 58.3118 88.9632 58.3118C87.9025 58.3118 86.947 58.2473 86.1667 58.2473C86.0791 58.2473 86.0791 58.4891 86.1667 58.4891C87.4992 58.4891 87.7447 58.7308 87.7447 59.8993V69.3357C87.7447 70.5203 87.4817 70.7459 86.1229 70.7459C86.0528 70.7459 86.0528 70.9877 86.1229 70.9877C86.8944 70.9877 87.8937 70.9474 88.9632 70.9474C90.138 70.9474 91.7335 71.0683 92.689 71.0683C96.6602 71.0683 100 68.4815 100 64.404C100 60.8985 96.967 58.207 92.3734 58.207ZM92.4611 70.6009C90.6026 70.6009 90.1993 70.1335 90.1993 69.1101V59.9396C90.1993 58.8356 90.8656 58.6583 92.5926 58.6583C95.4504 58.6583 97.2739 61.3901 97.2739 64.8552C97.2739 68.5782 95.2576 70.6009 92.4611 70.6009Z" fill="white"/>
<path d="M94.4034 76.5996H93.8188L94.0204 77.0072L92.4583 79.9717H93.0327L93.1235 79.8142C93.1436 79.7771 93.1839 79.7401 93.2343 79.703C93.2847 79.666 93.3653 79.6289 93.456 79.6011C93.5467 79.5641 93.6576 79.5455 93.7785 79.5177C93.9095 79.4992 94.0506 79.49 94.2119 79.49H95.3104L95.5421 79.9717H96.1267L94.4034 76.5996ZM94.4034 78.999C94.1514 78.999 93.9498 79.0175 93.7987 79.0546C93.6475 79.0916 93.5467 79.1379 93.4762 79.1842L94.2723 77.6001L95.0584 78.999H94.4034ZM90.5133 79.4807C90.4931 79.4807 90.473 79.4807 90.4528 79.4807C90.4125 79.4807 90.3722 79.4807 90.3218 79.4714C90.2714 79.4622 90.2311 79.4436 90.1807 79.4251C90.1303 79.3973 90.0799 79.3603 90.0295 79.3139C89.9792 79.2676 89.9187 79.2028 89.8582 79.1194L89.2132 78.2301L90.4024 76.6737H89.7675L88.8504 77.9151C88.7496 77.9707 88.6287 78.0077 88.5179 78.017C88.3969 78.0355 88.2861 78.0448 88.1752 78.0448H87.9333V76.6737H87.4093V79.9902H87.9333V78.5358H88.2357C88.3264 78.5358 88.407 78.5265 88.4977 78.5173C88.5884 78.508 88.669 78.4802 88.7597 78.4524L89.4551 79.4714C89.5357 79.5919 89.6163 79.6938 89.697 79.7586C89.7776 79.8235 89.8481 79.879 89.9187 79.9161C89.9892 79.9532 90.0699 79.9717 90.1404 79.9809C90.221 79.9902 90.2916 79.9995 90.3823 79.9995H90.5738V79.5085C90.5536 79.4807 90.5334 79.4807 90.5133 79.4807ZM84.3758 76.6552V79.9717H84.8898V76.6552H84.3758ZM81.3323 76.6552V77.9429C81.2517 77.9799 81.1711 77.9985 81.0804 78.0077C80.9897 78.017 80.909 78.0263 80.8385 78.0263C80.7579 78.0263 80.6571 78.017 80.5462 78.0077C80.4354 77.9985 80.3245 77.9892 80.2036 77.9707C80.0927 77.9614 79.9819 77.9521 79.8811 77.9336C79.7803 77.9244 79.7098 77.9151 79.6594 77.9151C79.5788 77.9151 79.5082 77.9244 79.4276 77.9336C79.347 77.9429 79.2764 77.9707 79.2059 77.9985V76.6367H78.6818V79.9532H79.2059V78.4895C79.2764 78.4524 79.357 78.4339 79.4276 78.4246C79.5082 78.4061 79.5788 78.4061 79.6594 78.4061C79.7098 78.4061 79.7904 78.4153 79.8811 78.4246C79.9819 78.4339 80.0827 78.4431 80.2036 78.4617C80.3145 78.4709 80.4354 78.4802 80.5462 78.4987C80.6571 78.508 80.7579 78.5173 80.8385 78.5173C80.909 78.5173 80.9897 78.508 81.0804 78.4987C81.1711 78.4895 81.2517 78.4617 81.3222 78.4339V79.9809H81.8463V76.6645H81.3323V76.6552ZM75.6585 76.6552V79.9717H76.1724V76.6552H75.6585ZM70.428 76.6552L70.6497 77.1462H71.0629C71.0428 77.3129 71.0226 77.4797 70.9924 77.6557C70.9622 77.8225 70.9319 77.9892 70.8916 78.156C70.8513 78.3227 70.8009 78.4802 70.7304 78.6284C70.6598 78.7766 70.5893 78.9249 70.4885 79.0731C70.418 79.175 70.3575 79.2491 70.297 79.3047C70.2366 79.3603 70.1862 79.4066 70.1358 79.4344C70.0854 79.4622 70.035 79.4807 69.9947 79.49C69.9544 79.4992 69.904 79.4992 69.8637 79.4992H69.7629V79.9902H69.8637C69.9141 79.9902 69.9645 79.9902 70.035 79.9809C70.1055 79.9717 70.1761 79.9624 70.2466 79.9439C70.3172 79.9254 70.3978 79.8883 70.4684 79.8513C70.549 79.8142 70.6195 79.7494 70.68 79.6845C70.8211 79.527 70.9521 79.3417 71.0529 79.1472C71.1536 78.9434 71.2343 78.7396 71.3048 78.5173C71.3754 78.2949 71.4258 78.0726 71.4761 77.841C71.5165 77.6094 71.5467 77.3871 71.5769 77.174H72.6149V79.9995H73.139V76.683H70.428V76.6552ZM67.7876 79.4807C67.7675 79.4807 67.7473 79.4807 67.7272 79.4807C67.6868 79.4807 67.6365 79.4807 67.5962 79.4714C67.5558 79.4622 67.5054 79.4436 67.4551 79.4251C67.4047 79.3973 67.3543 79.3603 67.3039 79.3139C67.2535 79.2676 67.193 79.2028 67.1326 79.1194L66.4876 78.2301L67.6768 76.6737H67.0419L66.1248 77.9151C66.0139 77.9707 65.9031 78.0077 65.7922 78.017C65.6713 78.0355 65.5604 78.0448 65.4496 78.0448H65.2077V76.6737H64.6836V79.9902H65.2077V78.5358H65.51C65.6007 78.5358 65.6813 78.5265 65.772 78.5173C65.8627 78.508 65.9434 78.4802 66.0341 78.4524L66.7294 79.4714C66.8101 79.5919 66.8907 79.6938 66.9713 79.7586C67.0519 79.8327 67.1225 79.879 67.193 79.9161C67.2636 79.9532 67.3442 79.9717 67.4147 79.9809C67.4954 79.9902 67.5659 79.9995 67.6566 79.9995H67.8481V79.5085C67.8179 79.4807 67.7977 79.4807 67.7876 79.4807ZM58.0524 76.5996H57.4679L57.6694 77.0072L56.1074 79.9717H56.6818L56.7725 79.8142C56.7926 79.7771 56.833 79.7401 56.8833 79.703C56.9337 79.666 57.0144 79.6289 57.1051 79.6011C57.1958 79.5641 57.3066 79.5455 57.4276 79.5177C57.5586 79.4992 57.6997 79.49 57.8609 79.49H58.9594L59.1912 79.9717H59.7858L58.0524 76.5996ZM58.0524 78.999C57.8004 78.999 57.5989 79.0175 57.4477 79.0546C57.2965 79.0916 57.1958 79.1379 57.1252 79.1842L57.9214 77.6001L58.7074 78.999H58.0524ZM53.4972 76.6552V77.9429C53.4166 77.9799 53.3359 77.9985 53.2553 78.0077C53.1646 78.017 53.084 78.0263 53.0134 78.0263C52.9328 78.0263 52.832 78.017 52.7212 78.0077C52.6103 77.9985 52.4995 77.9892 52.3785 77.9707C52.2677 77.9614 52.1568 77.9521 52.056 77.9336C51.9553 77.9244 51.8847 77.9151 51.8343 77.9151C51.7537 77.9151 51.6832 77.9244 51.6025 77.9336C51.5219 77.9429 51.4514 77.9707 51.3808 77.9985V76.6367H50.8568V79.9532H51.3808V78.4895C51.4514 78.4524 51.532 78.4339 51.6025 78.4246C51.6832 78.4061 51.7537 78.4061 51.8343 78.4061C51.8847 78.4061 51.9653 78.4153 52.056 78.4246C52.1568 78.4339 52.2576 78.4431 52.3785 78.4617C52.4894 78.4709 52.6103 78.4802 52.7212 78.4987C52.832 78.508 52.9328 78.5173 53.0134 78.5173C53.084 78.5173 53.1646 78.508 53.2553 78.4987C53.346 78.4895 53.4266 78.4617 53.4972 78.4339V79.9809H54.0212V76.6645H53.4972V76.6552ZM48.5691 77.2018C48.5187 77.0813 48.4482 76.9887 48.3575 76.9053C48.2668 76.8219 48.1559 76.7571 48.0249 76.72C47.8939 76.6737 47.7528 76.6552 47.5915 76.6552H45.7372V79.9717H46.2612V78.6933C46.3721 78.6377 46.483 78.6006 46.6039 78.5821C46.7248 78.5636 46.8357 78.5543 46.9566 78.5543H47.5915C47.7528 78.5543 47.8939 78.5358 48.0249 78.4895C48.1559 78.4431 48.2668 78.3783 48.3575 78.2949C48.4482 78.2115 48.5187 78.1096 48.5691 77.9892C48.6195 77.8688 48.6396 77.7391 48.6396 77.5909C48.6396 77.4519 48.6094 77.3222 48.5691 77.2018ZM47.5815 78.0726H46.9465C46.8256 78.0726 46.7148 78.0818 46.5938 78.0911C46.483 78.1096 46.3721 78.1467 46.2612 78.2023V77.1369H47.5915C47.7629 77.1369 47.8939 77.174 47.9846 77.2388C48.0753 77.3037 48.1156 77.4241 48.1156 77.5909C48.1156 77.9151 47.9342 78.0726 47.5815 78.0726ZM41.8673 76.5996H41.2828L41.4843 77.0072L39.9223 79.9717H40.4967L40.5874 79.8142C40.6075 79.7771 40.6479 79.7401 40.6983 79.703C40.7486 79.666 40.8293 79.6289 40.92 79.6011C41.0107 79.5641 41.1215 79.5455 41.2425 79.5177C41.3735 79.4992 41.5146 79.49 41.6758 79.49H42.7743L43.0061 79.9717H43.6007L41.8673 76.5996ZM41.8673 78.999C41.6153 78.999 41.4138 79.0175 41.2727 79.0546C41.1215 79.0916 41.0207 79.1379 40.9502 79.1842L41.7463 77.6001L42.5324 78.999H41.8673ZM37.3121 76.6552V77.9429C37.2315 77.9799 37.1508 77.9985 37.0702 78.0077C36.9795 78.017 36.8989 78.0263 36.8283 78.0263C36.7477 78.0263 36.6469 78.017 36.5361 78.0077C36.4252 77.9985 36.3144 77.9892 36.1934 77.9707C36.0826 77.9614 35.9717 77.9521 35.8709 77.9336C35.7702 77.9244 35.6996 77.9151 35.6492 77.9151C35.5686 77.9151 35.4981 77.9244 35.4174 77.9336C35.3368 77.9429 35.2663 77.9707 35.1957 77.9985L35.2058 76.6367H34.6817V79.9532H35.2058V78.4895C35.2763 78.4524 35.357 78.4339 35.4275 78.4246C35.5081 78.4061 35.5787 78.4061 35.6593 78.4061C35.7097 78.4061 35.7903 78.4153 35.881 78.4246C35.9818 78.4339 36.0826 78.4431 36.2035 78.4617C36.3144 78.4709 36.4353 78.4802 36.5462 78.4987C36.657 78.508 36.7578 78.5173 36.8384 78.5173C36.909 78.5173 36.9896 78.508 37.0803 78.4987C37.171 78.4895 37.2516 78.4617 37.3222 78.4339V79.9809H37.8462V76.6645H37.3121V76.6552ZM31.6382 76.6552L29.5219 79.212V76.6552H28.9978V79.9717H29.5219L31.6382 77.4148V79.9717H32.1623V76.6552H31.6382ZM26.7001 77.2018C26.6497 77.0813 26.5791 76.9887 26.4884 76.9053C26.3977 76.8219 26.2869 76.7571 26.1558 76.72C26.0248 76.683 25.8837 76.6552 25.7225 76.6552H23.8682V79.9717H24.3922V78.6933C24.5031 78.6377 24.6139 78.6006 24.7349 78.5821C24.8558 78.5636 24.9667 78.5543 25.0876 78.5543H25.7225C25.8837 78.5543 26.0248 78.5358 26.1558 78.4895C26.2869 78.4431 26.3977 78.3783 26.4884 78.2949C26.5791 78.2115 26.6497 78.1096 26.7001 77.9892C26.7504 77.8688 26.7807 77.7391 26.7807 77.5909C26.7706 77.4519 26.7504 77.3222 26.7001 77.2018ZM25.7124 78.0726H25.0775C24.9566 78.0726 24.8457 78.0818 24.7248 78.0911C24.6139 78.1096 24.5031 78.1467 24.3922 78.2023V77.1369H25.7124C25.8837 77.1369 26.0148 77.174 26.1055 77.2388C26.1962 77.3037 26.2365 77.4241 26.2365 77.5909C26.2466 77.9151 26.0651 78.0726 25.7124 78.0726ZM19.3432 79.4807V78.6377C19.454 78.5821 19.5649 78.5543 19.6758 78.5358C19.7866 78.5172 19.9076 78.508 20.0184 78.508H20.8045V78.017H20.0184C19.8975 78.017 19.7866 78.0263 19.6657 78.0355C19.5548 78.0448 19.444 78.0818 19.3331 78.1467V77.1369H21.3487V76.6459H18.8091V79.9624H21.5603V79.4714H19.3432V79.4807ZM13.619 76.6552V77.1462H14.9089V79.9717H15.4229V77.1462H16.6927V76.6552H13.619ZM9.48701 79.4807V78.6377C9.59787 78.5821 9.70873 78.5543 9.81958 78.5358C9.93044 78.5172 10.0514 78.508 10.1622 78.508H10.9483V78.017H10.1723C10.0514 78.017 9.94052 78.0263 9.81958 78.0355C9.70873 78.0448 9.59787 78.0818 9.48701 78.1467V77.1369H11.5026V76.6459H8.96296V79.9624H11.7142V79.4714H9.48701V79.4807ZM6.59466 78.7488C6.56442 78.6562 6.52411 78.5728 6.4838 78.508C6.43341 78.4339 6.38302 78.3783 6.32255 78.332C6.26209 78.2857 6.20162 78.2486 6.14115 78.2208C6.25201 78.156 6.33263 78.0726 6.38302 77.9522C6.43341 77.841 6.46365 77.702 6.46365 77.5631C6.46365 77.4148 6.43341 77.2851 6.38302 77.174C6.33263 77.0628 6.25201 76.9702 6.16131 76.8868C6.07061 76.8034 5.94967 76.7478 5.81866 76.7108C5.68765 76.6737 5.54655 76.6552 5.39539 76.6552H3.57129V79.9717H5.40547C5.55664 79.9717 5.7078 79.9532 5.84889 79.9254C6.00006 79.8883 6.13107 79.842 6.25201 79.7679C6.37294 79.6938 6.46365 79.6011 6.53419 79.49C6.60474 79.3788 6.64505 79.2398 6.64505 79.0731C6.64505 78.9527 6.62489 78.8415 6.59466 78.7488ZM4.10542 77.1462H5.40547C5.56671 77.1462 5.68765 77.174 5.78843 77.2388C5.8892 77.3037 5.93959 77.4148 5.93959 77.5723C5.93959 77.7298 5.8892 77.841 5.7985 77.9151C5.7078 77.9892 5.57679 78.0263 5.40547 78.0263H4.79071C4.66978 78.0263 4.55892 78.0355 4.43799 78.0448C4.32713 78.0633 4.21627 78.1004 4.10542 78.156V77.1462ZM6.05045 79.212C6.01014 79.2769 5.95975 79.3232 5.8892 79.3603C5.82874 79.3973 5.75819 79.4251 5.67757 79.4436C5.59695 79.4622 5.5264 79.4714 5.45586 79.4714H4.09534V78.6377C4.2062 78.5821 4.31705 78.545 4.42791 78.5265C4.54884 78.508 4.6597 78.4987 4.77056 78.4987H5.38531C5.47601 78.4987 5.55663 78.508 5.64733 78.5173C5.73803 78.5358 5.80858 78.5543 5.87913 78.5914C5.94967 78.6284 6.00006 78.6747 6.04037 78.7396C6.08068 78.8044 6.10084 78.8785 6.10084 78.9804C6.12099 79.0824 6.09076 79.1565 6.05045 79.212Z" fill="white"/>
<path d="M79.3379 10.8144C79.5834 10.476 79.6009 10.0327 79.3905 9.67817C79.1713 9.31554 78.7593 9.0899 78.3035 9.0899H70.8257C69.7036 9.09796 68.6077 9.29943 67.5733 9.7104C67.4944 9.74264 67.4243 9.76682 67.3541 9.79905C66.1794 10.2987 65.1538 11.1045 64.3823 12.1279L63.0673 13.9411C62.9008 13.9008 62.7605 13.8686 62.7342 13.8605C62.5676 13.8202 62.4011 13.788 62.2345 13.7557C62.1907 13.7477 62.1556 13.7396 62.1206 13.7316C60.9459 8.78369 59.2276 4.83506 57.8338 2.11937C57.4217 1.31353 56.624 0.741375 55.6772 0.56409C54.0554 0.265928 52.1443 0.0322337 49.9878 0C49.9176 0 49.8387 0 49.7686 0C49.5582 0 49.3478 0 49.1287 0C48.9183 0 48.7166 4.91727e-07 48.5062 0.00805892C48.3046 0.00805892 48.103 0.0161183 47.8926 0.0241768C47.6997 0.0322352 47.4981 0.0402931 47.2965 0.05641C47.1036 0.0725268 46.9107 0.0805853 46.7179 0.0967021C46.525 0.112819 46.3409 0.120878 46.1481 0.145053C45.964 0.16117 45.7799 0.185344 45.5958 0.201461C45.4204 0.217578 45.2363 0.241754 45.061 0.26593C44.8857 0.290105 44.7191 0.306221 44.5438 0.338455C44.3772 0.36263 44.2107 0.386805 44.0441 0.41098C43.8863 0.435156 43.7198 0.459331 43.562 0.491565C43.5006 0.499623 43.448 0.507681 43.3866 0.523798C43.299 0.539915 43.2113 0.556032 43.1236 0.572149C42.8343 0.636616 42.4486 0.765553 42.0541 1.03954C41.5807 1.36993 41.3265 1.74868 41.2125 1.9582C41.195 1.99043 41.1775 2.03072 41.1599 2.06296C41.1161 2.1516 41.0723 2.23219 41.0284 2.32083C40.9846 2.40947 40.9408 2.49811 40.8969 2.58676C40.8531 2.6754 40.8005 2.76404 40.7567 2.85269C40.7129 2.94939 40.6603 3.03803 40.6164 3.13473C40.5726 3.23143 40.52 3.32813 40.4762 3.41678C40.4323 3.51348 40.3797 3.61018 40.3359 3.70688C40.2921 3.80358 40.2395 3.90834 40.1956 4.00504C40.143 4.10174 40.0992 4.2065 40.0554 4.31126C40.0115 4.41602 39.9589 4.52078 39.9151 4.62554C39.8625 4.7303 39.8187 4.83506 39.7748 4.94788C39.7222 5.06069 39.6784 5.16545 39.6258 5.27021C39.582 5.38303 39.5294 5.49585 39.4855 5.60867C39.4417 5.72149 39.3891 5.8343 39.3453 5.94712C39.3014 6.05994 39.2489 6.17276 39.205 6.29363C39.1524 6.40645 39.1086 6.52733 39.0648 6.64015C39.0122 6.76102 38.9683 6.8819 38.9245 7.00278C38.8719 7.12365 38.8281 7.24453 38.7842 7.3654C38.7404 7.48628 38.6878 7.61521 38.644 7.73609C38.6001 7.85697 38.5475 7.9859 38.5037 8.11484C38.4599 8.24377 38.4073 8.37271 38.3634 8.50164C38.3196 8.63058 38.267 8.75951 38.2232 8.88844C38.1793 9.01738 38.1355 9.15437 38.0917 9.28331C38.0478 9.4203 38.004 9.54924 37.9602 9.68623C37.9163 9.82322 37.8725 9.96022 37.8287 10.0972C37.7849 10.2342 37.741 10.3712 37.6972 10.5082C37.6534 10.6532 37.6095 10.7902 37.5657 10.9272C37.5219 11.0723 37.478 11.2093 37.4342 11.3543C37.3904 11.4994 37.3465 11.6444 37.3115 11.7895C37.2676 11.9345 37.2238 12.0796 37.1887 12.2246C37.1449 12.3697 37.1098 12.5147 37.066 12.6678C37.0222 12.821 36.9871 12.966 36.952 13.1191C36.917 13.2722 36.8731 13.4253 36.8381 13.5704C36.8293 13.6187 36.8205 13.659 36.803 13.7074C36.54 13.7638 36.1368 13.8524 35.7861 13.925L34.4624 12.1279C33.6997 11.1126 32.674 10.3067 31.4993 9.80711C31.4292 9.77487 31.3503 9.74264 31.2801 9.71847C30.2545 9.30749 29.1586 9.10602 28.0278 9.09797H20.55C20.0941 9.09797 19.6733 9.3236 19.4629 9.68623C19.2525 10.0489 19.2701 10.484 19.5068 10.8225L24.2582 17.6157C24.2056 17.6399 24.153 17.6641 24.0916 17.6882C23.2501 18.0509 22.6452 18.76 22.4698 19.5981C22.1455 21.097 21.8912 22.8779 21.8562 24.8764C21.8474 25.2632 21.8474 25.65 21.8562 26.0448C21.8649 26.4155 21.8825 26.7862 21.9088 27.1569C21.9351 27.5115 21.9614 27.866 21.9964 28.2206C22.0315 28.5591 22.0753 28.8895 22.1192 29.2279C22.1279 29.3166 22.1455 29.4052 22.1542 29.4938C22.1542 29.4938 22.1542 29.4938 22.1542 29.5019C22.1893 29.7275 22.2244 29.9532 22.2682 30.1788C22.2857 30.2594 22.2945 30.348 22.312 30.4286C22.312 30.4367 22.312 30.4447 22.3208 30.4609C22.3208 30.485 22.3296 30.5092 22.3296 30.5253C22.426 30.8557 22.5926 31.2989 22.9169 31.7663C23.3553 32.4029 23.8725 32.8139 24.2231 33.0396C24.2757 33.0637 24.3371 33.0879 24.3897 33.1121C24.5563 33.1846 24.7228 33.2571 24.8894 33.3297L25.0121 33.3861C25.2137 33.4747 25.4241 33.5553 25.6345 33.6439C25.8449 33.7326 26.0641 33.8132 26.2832 33.9018C26.5112 33.9904 26.7391 34.0791 26.9583 34.1597C27.195 34.2483 27.4317 34.337 27.6596 34.4175C27.905 34.5062 28.1505 34.5948 28.396 34.6835C28.6502 34.7721 28.9044 34.8608 29.1586 34.9413C29.4216 35.03 29.6846 35.1186 29.9476 35.1992C30.2194 35.2879 30.4912 35.3765 30.7629 35.4571C31.0434 35.5457 31.324 35.6263 31.6045 35.7069C31.8938 35.7955 32.1831 35.8761 32.4724 35.9567C32.7704 36.0373 33.0685 36.1179 33.3753 36.1985C33.6821 36.279 33.989 36.3596 34.2958 36.4322C34.6114 36.5127 34.927 36.5853 35.2426 36.6578C35.5669 36.7303 35.8913 36.8028 36.2157 36.8754C36.3822 36.9076 36.5488 36.9398 36.7066 36.9801C37.8725 41.9119 39.5907 45.8525 40.9758 48.5681C41.3966 49.3901 42.2119 49.9784 43.1762 50.1556C44.7893 50.4538 46.6916 50.6794 48.8306 50.7117C49.2514 50.7197 49.6722 50.7197 50.1017 50.7117C50.505 50.7036 50.9082 50.6875 51.3115 50.6633C51.6972 50.6392 52.083 50.615 52.4687 50.5827C52.8369 50.5505 53.1963 50.5102 53.5645 50.4699C53.9064 50.4296 54.257 50.3813 54.5989 50.3329C54.9233 50.2846 55.2389 50.2362 55.5632 50.1718C55.6597 50.1557 55.7473 50.1395 55.835 50.1234C55.8701 50.1154 55.9051 50.1073 55.949 50.0992C56.1944 50.0428 56.6328 49.9058 57.0097 49.5835C57.1587 49.4546 57.2815 49.3176 57.3691 49.1967C57.4305 49.0839 57.4919 48.9711 57.5532 48.8502C57.5708 48.8099 57.5971 48.7696 57.6146 48.7293V48.7213C57.6847 48.5923 57.7461 48.4634 57.8162 48.3344C57.8776 48.2136 57.939 48.0927 58.0003 47.9718C58.0266 47.9154 58.0617 47.859 58.088 47.7945C58.1844 47.6092 58.2721 47.4158 58.3685 47.2304C58.4649 47.029 58.5614 46.8356 58.649 46.6341C58.7455 46.4246 58.8419 46.2231 58.9383 46.0136C59.0348 45.796 59.1312 45.5865 59.2276 45.3689C59.3241 45.1433 59.4205 44.9177 59.5169 44.692C59.6134 44.4583 59.7098 44.2247 59.8062 43.991C59.9026 43.7492 59.9991 43.5075 60.0867 43.2657C60.1832 43.0159 60.2796 42.7661 60.3673 42.5163C60.4637 42.2584 60.5514 42.0005 60.6478 41.7427C60.7442 41.4767 60.8319 41.2108 60.9196 40.9368C61.0072 40.6628 61.0949 40.3888 61.1826 40.1148C61.2702 39.8328 61.3579 39.5508 61.4368 39.2687C61.5244 38.9786 61.6033 38.6885 61.6822 38.3984C61.7611 38.1002 61.84 37.8021 61.9189 37.5039C61.9628 37.3428 61.9978 37.1816 62.0417 37.0204C67.5821 35.9084 71.9828 34.2564 74.9459 32.9509C75.6648 32.6366 76.1732 32.0323 76.331 31.3151C76.6729 29.7759 76.9534 27.9305 76.9885 25.8434L76.9973 25.6419C76.9973 25.4485 76.9973 25.2551 76.9973 25.0537C76.9973 24.8603 76.9885 24.6749 76.9885 24.4815C76.9797 24.2962 76.9797 24.1108 76.9622 23.9255C76.9534 23.7401 76.9447 23.5628 76.9271 23.3775C76.9184 23.2002 76.9008 23.0229 76.8833 22.8456C76.8658 22.6764 76.8482 22.4991 76.8307 22.3218C76.8132 22.1526 76.7869 21.9834 76.7693 21.8142C76.7518 21.653 76.7255 21.4838 76.6992 21.3226C76.6729 21.1614 76.6466 21.0083 76.6203 20.8472C76.594 20.694 76.5677 20.5409 76.5414 20.3878C76.5151 20.2347 76.4888 20.0897 76.4537 19.9446C76.445 19.8801 76.4274 19.8157 76.4187 19.7512C76.4011 19.6706 76.3836 19.59 76.3661 19.5095C76.3485 19.4289 76.331 19.3483 76.3135 19.2677V19.2596C76.2346 19.0179 76.0855 18.7197 75.8313 18.4377C75.6472 18.2362 75.4456 18.0831 75.2615 17.9622H75.2527C75.1738 17.9219 75.0949 17.8897 75.016 17.8575C74.9284 17.8172 74.8319 17.7769 74.7443 17.7366C74.6917 17.7124 74.6391 17.6882 74.5865 17.6721L79.3379 10.8144ZM56.8607 40.6548L56.8168 40.7353C56.7467 40.8804 56.6591 41.0174 56.5714 41.1624C56.5714 41.1624 56.5714 41.1624 56.5626 41.1624C55.3002 42.9595 53.2051 44.2246 50.9083 44.6195C50.8206 44.6356 50.7329 44.6437 50.6453 44.6598C50.5751 44.6679 50.5138 44.6759 50.4436 44.684C50.4173 44.684 50.391 44.692 50.3647 44.692C50.1806 44.7082 49.9965 44.7243 49.8124 44.7323C49.716 44.7404 49.6196 44.7404 49.5232 44.7404H49.2602C49.2076 44.7404 49.1637 44.7404 49.1111 44.7404C49.0673 44.7404 49.0147 44.7404 48.9709 44.7323C48.892 44.7243 48.8131 44.7243 48.7254 44.7162C45.9464 44.4664 43.4568 42.621 41.9314 40.4211C41.9226 40.413 41.9226 40.413 41.9226 40.405L41.9051 40.3647L21.0146 10.4679H27.9839C28.8957 10.476 29.8249 10.6532 30.6489 10.9756C30.7103 10.9998 30.7717 11.0239 30.833 11.0481C31.7623 11.443 32.5776 12.0876 33.1912 12.8935L35.9527 16.6487C36.1017 16.2458 36.3033 15.7945 36.6014 15.3352C36.6978 15.1982 36.8381 14.9967 36.8556 14.9887C37.215 14.4971 37.6008 14.1184 37.9426 13.8202C39.2664 12.5711 41.0986 11.3946 43.2727 10.7258C45.2276 10.1294 50.3472 9.01738 55.5895 11.7008C57.2201 12.5389 58.5701 13.8283 59.5257 15.1257C59.5345 15.1337 59.5432 15.1498 59.5608 15.166L59.5695 15.174C59.9728 15.6898 60.4023 16.3264 60.7793 17.0758C60.8494 17.2128 60.9108 17.3579 60.9809 17.5029C61.165 17.9139 61.3053 18.3007 61.428 18.6714L65.6184 12.9015C66.232 12.0876 67.0473 11.443 67.9766 11.0481C68.0379 11.0239 68.0993 10.9998 68.1607 10.9756C68.9935 10.6532 69.914 10.476 70.8257 10.4679H77.8038L56.8607 40.6548Z" fill="white"/>
<path d="M56.2126 34.975C56.0022 35.7083 55.634 36.3047 55.222 36.7801C54.4067 37.7149 53.2408 38.3273 51.9609 38.5771C49.9446 38.972 46.1049 39.3427 42.3528 37.4973C41.3973 37.0299 39.4073 36.0226 37.9696 33.8791C35.4799 30.1803 36.6634 26.1591 36.9176 25.3613C37.5663 26.7474 38.9602 29.1246 41.783 30.8733C42.6772 31.4213 46.2977 33.041 49.6641 32.5656C50.3566 32.4689 51.7592 31.9854 52.0398 30.7363C52.2502 29.8176 51.6804 28.8587 51.4612 28.5928C51.882 28.6492 53.8106 28.9312 55.1782 30.5348C55.3798 30.7766 56.8876 32.6059 56.2126 34.975Z" fill="url(#paint0_linear_1062_3030)"/>
<path d="M46.6825 18.3155C46.551 18.1302 46.0864 18.1947 45.6218 18.4606C45.1659 18.7185 44.8942 19.0892 45.0257 19.2745C45.1571 19.4598 45.6218 19.3954 46.0776 19.1375C46.5422 18.8635 46.814 18.5009 46.6825 18.3155ZM61.7784 20.7814C61.6732 20.6122 61.5504 20.443 61.4277 20.2657C61.3926 20.2254 61.3576 20.177 61.3225 20.1287C61.2874 20.0723 61.2436 20.0159 61.191 19.9595C61.1735 19.9353 61.1472 19.9031 61.1297 19.8789C61.0332 19.758 60.9368 19.6291 60.8228 19.5082C60.7439 19.4115 60.6563 19.3148 60.5686 19.2181C60.4283 19.0569 60.2881 18.9119 60.1478 18.7749C60.1478 18.7668 60.1478 18.7668 60.1478 18.7588C60.0952 18.5815 60.0338 18.4042 59.9725 18.2188C59.9637 18.2027 59.9637 18.1786 59.9549 18.1624C59.9462 18.1544 59.9462 18.1383 59.9462 18.1302C59.9023 18.0093 59.8585 17.8885 59.8059 17.7756C59.7971 17.7515 59.7884 17.7353 59.7796 17.7112V17.7031C59.7183 17.55 59.6481 17.4049 59.5955 17.2599C59.5955 17.2599 59.5955 17.2518 59.5867 17.2438C59.4903 17.0504 59.3939 16.865 59.2975 16.7039C58.4909 15.3017 57.0708 13.6094 55.0808 12.5941C50.2154 10.104 45.4552 11.1355 43.6406 11.6915C42.3869 12.0783 41.2561 12.6424 40.2918 13.2951C40.2041 13.3596 40.1077 13.416 40.02 13.4805C39.9937 13.4966 39.9674 13.5127 39.9411 13.5288C39.5378 13.8109 39.0382 14.2219 38.5472 14.7618C38.5209 14.794 38.4946 14.8182 38.4683 14.8504C38.4333 14.8827 38.407 14.9229 38.3719 14.9632C38.3544 14.9794 38.3368 15.0035 38.3281 15.0196C38.3281 15.0196 38.3281 15.0277 38.3193 15.0277C38.3018 15.0438 38.293 15.0599 38.2755 15.0761C38.2229 15.1405 38.1703 15.2131 38.1089 15.2856C38.0914 15.3098 38.0738 15.3259 38.0651 15.35C38.0388 15.3823 38.0212 15.4145 37.9949 15.4467C37.9862 15.4548 37.9774 15.4709 37.9686 15.479C37.9511 15.5032 37.9336 15.5193 37.916 15.5434C37.8898 15.5837 37.8634 15.624 37.8371 15.6643C37.7583 15.7852 37.6794 15.9061 37.5917 16.0431C37.5917 16.0511 37.5829 16.0511 37.5829 16.0592C37.5829 16.0672 37.5742 16.0672 37.5742 16.0753C37.5654 16.0914 37.5566 16.1075 37.5479 16.1237C37.5391 16.1398 37.5303 16.1559 37.5216 16.172C37.504 16.1962 37.4953 16.2123 37.4865 16.2365C37.4164 16.3573 37.355 16.4782 37.2936 16.5991C37.0832 17.0262 36.9342 17.4372 36.8202 17.7998C36.7676 17.9771 36.7238 18.1383 36.6887 18.2994C36.6449 18.5009 36.6098 18.6862 36.5835 18.8555C36.5835 18.8635 36.5835 18.8716 36.5835 18.8877C36.5222 19.4196 36.5134 19.9595 36.5835 20.5074C36.7238 21.7243 37.1797 22.7154 37.6355 23.4488C37.9423 23.2392 38.3105 23.1345 39.2573 22.6671C39.5203 22.5382 40.1778 22.2561 40.4583 22.1191C40.283 21.6759 40.4583 21.1763 40.8616 20.8781C41.2911 20.5558 41.747 20.1851 42.2204 19.758C42.6938 19.3228 43.1058 18.8877 43.4565 18.4767C43.9649 17.8804 44.6049 17.3888 45.3412 17.0584C45.35 17.0584 45.35 17.0504 45.3588 17.0504C46.0952 16.7119 46.7702 16.5749 47.2348 16.5105C48.3744 16.309 53.0294 15.5757 57.6406 18.1544C61.1384 20.1126 62.7251 22.9088 63.2862 24.037C63.0144 23.1425 62.5673 21.9902 61.7784 20.7814ZM61.9888 28.034C61.4803 25.6165 60.0163 24.0451 59.3062 23.3843C56.5448 20.8056 53.0294 20.6203 52.1879 20.588C52.7664 20.4833 53.4239 20.4027 54.134 20.3543C55.2035 20.2899 56.1678 20.3302 56.9831 20.4188C56.0626 20.1206 54.3093 19.6774 52.1616 19.9917C51.9862 20.0159 51.8109 20.0481 51.6443 20.0803C50.5748 20.2899 49.5754 20.717 48.6637 21.281C47.077 22.2642 45.6568 22.6913 44.7539 22.8927C44.7539 22.8927 42.2993 23.4407 41.0106 22.7154C40.9492 22.6832 40.8879 22.6752 40.7652 22.5462C40.2567 22.8121 39.7745 23.0942 39.2486 23.3762C38.8541 23.5858 38.3894 23.8195 37.9949 23.9887C38.2316 24.303 38.442 24.5447 38.5823 24.6978C40.8265 27.212 44.0175 27.7197 45.5867 27.9695C47.8134 28.3241 49.7595 28.1226 51.1709 27.8245C53.8886 27.9615 56.2467 29.4765 57.211 31.6764C58.3682 34.3518 56.9042 36.7613 56.7114 37.0675C57.3688 36.8258 60.2092 35.7217 61.5417 32.8771C62.5411 30.7739 62.1641 28.856 61.9888 28.034ZM38.2316 23.3279C38.03 23.3762 37.8196 23.4488 37.6443 23.4568C37.7583 23.6422 37.881 23.8114 37.9862 23.9564C38.0738 23.8597 38.2229 23.7228 38.3368 23.626C38.4508 23.5293 39.1521 23.0378 39.2486 22.9814C39.2047 23.0055 38.5297 23.2634 38.2316 23.3279Z" fill="url(#paint1_linear_1062_3030)"/>
<path d="M37.5926 16.0371C37.5663 16.0855 37.54 16.1258 37.5137 16.1741C37.5312 16.1419 37.5487 16.1096 37.575 16.0693C37.575 16.0532 37.5838 16.0452 37.5926 16.0371Z" fill="white"/>
<path d="M38.1089 15.2793C38.0475 15.3679 37.9774 15.4485 37.916 15.5372C37.9774 15.4485 38.0475 15.3599 38.1089 15.2793Z" fill="white"/>
<path d="M38.4595 14.8438C38.3981 14.9163 38.3367 14.9969 38.2666 15.0694C38.3367 14.9888 38.3981 14.9082 38.4595 14.8438Z" fill="white"/>
<defs>
<linearGradient id="paint0_linear_1062_3030" x1="18.917" y1="38.8989" x2="52.0537" y2="28.2582" gradientUnits="userSpaceOnUse">
<stop offset="1" stop-color="white"/>
</linearGradient>
<linearGradient id="paint1_linear_1062_3030" x1="40.5255" y1="9.18141" x2="59.2298" y2="39.4422" gradientUnits="userSpaceOnUse">
<stop offset="0.5901" stop-color="white"/>
</linearGradient>
</defs>
</svg>
