<svg width="41" height="48" viewBox="0 0 41 48" fill="none" xmlns="http://www.w3.org/2000/svg">
<path opacity="0.05" fill-rule="evenodd" clip-rule="evenodd" d="M27.6682 19.1408C30.952 20.6886 34.4906 18.1129 35.86 14.5598C37.363 10.7697 36.2236 6.92413 33.1315 5.42023C29.9383 3.85702 26.5358 5.81793 25.1829 9.38871C23.7343 12.8074 24.459 17.5956 27.6682 19.1408ZM39.9386 24.9821C39.4843 23.4018 38.4755 22.0995 37.1024 21.3079C34.076 19.5786 30.6254 20.9663 28.9003 24.5953C27.2373 27.974 27.7274 32.644 30.8713 34.4502C34.0086 36.2422 37.8192 33.9518 39.3525 30.5747C40.2373 28.7208 40.4401 26.7329 39.9386 24.9821ZM16.327 15.1436C14.9655 14.8295 13.8182 13.9281 13.0163 12.5804C10.0135 7.55744 13.2277 -0.884392 19.1255 0.483953C24.8125 1.83716 24.8536 10.0415 20.9601 13.6874C19.5959 14.9701 17.9127 15.5012 16.327 15.1436ZM20.8261 21.0151C14.8957 19.0199 5.46473 30.5848 3.8497 35.1284C2.00156 41.5426 7.97825 43.9329 13.6615 45.8528L13.6713 45.8563C14.1161 46.0031 14.5569 46.1532 14.9931 46.3018L14.9934 46.3019C18.7261 47.5729 22.1286 48.7315 24.9554 46.8031C25.9815 46.0522 26.7278 44.8951 27.1783 43.3496C28.2604 38.6773 26.6768 23.1361 20.8261 21.0151ZM12.1854 18.7985C11.8951 21.0868 10.8629 23.1138 9.3461 24.3663C8.1539 25.3546 6.73857 25.7789 5.36841 25.5683C1.85849 25.0178 -0.0344089 20.7292 0.516181 16.994C0.789222 14.9126 1.66544 13.1621 2.99905 12.058C4.20414 11.0625 5.7167 10.6369 7.24929 10.8811C10.6292 11.3976 12.7033 14.7322 12.1854 18.7985Z" fill="#04A427"/>
</svg>
