<svg width="65" height="74" viewBox="0 0 65 74" fill="none" xmlns="http://www.w3.org/2000/svg">
<path opacity="0.05" fill-rule="evenodd" clip-rule="evenodd" d="M37.8338 23.0925C43.4249 21.5184 44.9989 14.6949 42.9268 8.96541C40.7676 2.80949 35.3575 -0.641868 30.0441 0.784145C24.5462 2.24456 22.4919 8.18249 24.6023 13.916C26.4377 19.5661 32.3355 24.5915 37.8338 23.0925ZM58.7827 17.2788C56.5763 15.8458 53.9913 15.3304 51.5021 15.8141C46.0316 16.8988 43.3178 22.1947 45.0396 28.3889C46.5741 34.2155 52.0643 39.3441 57.7574 38.229C63.4277 37.1037 65.6296 30.3395 63.9403 24.6509C63.0649 21.4827 61.2248 18.8682 58.7827 17.2788ZM19.9373 30.1587C17.9627 31.2072 15.6311 31.3214 13.2486 30.5341C4.35215 27.6145 -0.618471 14.0433 7.94292 9.51066C16.2337 5.18092 24.8884 15.0508 24.0079 23.5399C23.705 26.5205 22.2283 28.9277 19.9373 30.1587ZM31.5298 32.5298C22.2716 36.3391 23.0063 60.2042 25.8204 67.388C30.3149 77.0766 40.0434 73.696 48.924 70.055L48.9394 70.0489C49.6307 69.7599 50.3203 69.4791 51.0029 69.2011L51.0044 69.2006C56.8476 66.8213 62.1738 64.6526 63.5668 59.3576C64.0191 57.3741 63.7071 55.1931 62.6305 52.8533C59.0374 46.073 40.8236 28.956 31.5298 32.5298ZM18.762 38.9157C20.8114 41.9851 21.6902 45.5168 21.1712 48.6211C20.7672 51.0656 19.5022 53.0628 17.6258 54.2454C12.8074 57.2616 6.02223 54.0652 2.76984 48.9746C0.916653 46.1733 0.139345 43.1392 0.592688 40.4064C1.00461 37.9396 2.38581 35.8389 4.49375 34.5265C9.11933 31.6056 15.1229 33.4593 18.762 38.9157Z" fill="#04A427"/>
</svg>
