<svg width="64" height="77" viewBox="0 0 64 77" fill="none" xmlns="http://www.w3.org/2000/svg">
<path opacity="0.05" fill-rule="evenodd" clip-rule="evenodd" d="M43.6646 30.7968C48.9187 33.2732 54.5804 29.1521 56.7714 23.4671C59.1762 17.4029 57.3532 11.2501 52.4058 8.84381C47.2967 6.34268 41.8528 9.48014 39.688 15.1934C37.3703 20.6633 38.5298 28.3245 43.6646 30.7968ZM63.2962 40.1382C62.5693 37.6097 60.9551 35.526 58.7583 34.2594C53.916 31.4926 48.3951 33.7129 45.6348 39.5192C42.9741 44.9251 43.7582 52.3972 48.7885 55.2871C53.8081 58.1543 59.9051 54.4896 62.3584 49.0863C63.7741 46.12 64.0985 42.9394 63.2962 40.1382ZM25.5175 24.4016C23.3391 23.899 21.5034 22.4568 20.2204 20.3004C15.416 12.2637 20.5586 -1.24319 29.9952 0.946166C39.0944 3.1113 39.1601 16.2382 32.9304 22.0717C30.7478 24.124 28.0546 24.9738 25.5175 24.4016ZM32.717 33.7918C23.2284 30.5994 8.13883 49.1032 5.55479 56.373C2.59776 66.6357 12.1605 70.4601 21.2537 73.5321L21.2693 73.5376C21.9808 73.7725 22.6856 74.0125 23.3833 74.2501L23.3848 74.2506C29.3571 76.2842 34.801 78.138 39.3239 75.0525C40.9657 73.8511 42.1598 71.9996 42.8806 69.5269C44.6119 62.0513 42.0781 37.1853 32.717 33.7918ZM18.8888 30.2447C18.4243 33.9061 16.7729 37.1492 14.346 39.1533C12.4385 40.7345 10.174 41.4134 7.9817 41.0764C2.36582 40.1956 -0.662811 33.3339 0.218131 27.3576C0.654998 24.0273 2.05695 21.2265 4.19072 19.4599C6.11886 17.8671 8.53896 17.1862 10.9911 17.5769C16.399 18.4033 19.7175 23.7387 18.8888 30.2447Z" fill="#04A427"/>
</svg>
