<svg width="41" height="41" viewBox="0 0 41 41" fill="none" xmlns="http://www.w3.org/2000/svg">
<path opacity="0.05" fill-rule="evenodd" clip-rule="evenodd" d="M24.2021 12.7565C27.673 11.7216 28.8869 7.95687 27.8347 4.9038C26.7452 1.62135 23.5711 -0.0853034 20.2751 0.860133C16.8653 1.83016 15.3912 5.12807 16.4666 8.18214C17.3773 11.1995 20.7906 13.7475 24.2021 12.7565ZM37.2041 8.92241C35.9106 8.21256 34.3519 8.01426 32.8147 8.3568C29.4355 9.12148 27.5827 12.0908 28.4039 15.4081C29.1243 18.5311 32.285 21.1483 35.8012 20.36C39.3038 19.567 40.8986 15.8145 40.0786 12.7715C39.6618 11.0747 38.6357 9.70995 37.2041 8.92241ZM13.0183 17.171C11.7742 17.8046 10.3468 17.941 8.92187 17.5882C3.60021 16.282 1.06979 9.0523 6.46339 6.31229C11.6843 3.69134 16.6006 8.78888 15.7483 13.4382C15.4529 15.0704 14.4622 16.4279 13.0183 17.171ZM20.0049 18.091C14.2128 20.4594 13.7759 33.4278 15.2271 37.249C17.6109 42.3802 23.6741 40.2302 29.2295 37.9654L29.2391 37.9616C29.672 37.7822 30.1035 37.6073 30.5306 37.4342L30.531 37.4341L30.531 37.434C34.1857 35.9528 37.517 34.6026 38.5636 31.6758C38.9132 30.5817 38.8037 29.4043 38.2334 28.1648C36.2919 24.5881 25.81 15.8497 20.0049 18.091ZM11.9739 21.9776C13.1109 23.5833 13.5163 25.4779 13.0844 27.1844C12.7471 28.528 11.9009 29.6555 10.7118 30.359C7.65899 32.1544 3.63619 30.6303 1.83992 27.9625C0.812733 26.4965 0.450849 24.8696 0.82892 23.3675C1.17185 22.0115 2.09279 20.8239 3.42805 20.0424C6.35964 18.305 9.95518 19.1231 11.9739 21.9776Z" fill="#04A427"/>
</svg>
