<svg width="367" height="318" viewBox="0 0 367 318" fill="none" xmlns="http://www.w3.org/2000/svg">
<path opacity="0.05" fill-rule="evenodd" clip-rule="evenodd" d="M106.962 74.2632C117.394 79.1802 128.636 70.9977 132.986 59.71C137.761 47.6695 134.141 35.453 124.318 30.6754C114.174 25.7094 103.365 31.9388 99.0667 43.2825C94.4647 54.1432 96.767 69.3544 106.962 74.2632ZM145.941 92.8121C144.497 87.7918 141.292 83.6545 136.93 81.1398C127.316 75.6462 116.354 80.0546 110.874 91.5832C105.591 102.317 107.148 117.152 117.135 122.89C127.102 128.583 139.207 121.307 144.079 110.579C146.89 104.689 147.534 98.3739 145.941 92.8121ZM70.9301 61.567C66.6048 60.5691 62.96 57.7055 60.4125 53.424C50.8733 37.4671 61.0841 10.649 79.8205 14.9959C97.887 19.2948 98.0176 45.3584 85.6484 56.9408C81.3148 61.0157 75.9674 62.703 70.9301 61.567ZM85.2253 80.2112C66.3856 73.8727 36.4252 110.612 31.2945 125.046C25.4233 145.423 44.4102 153.017 62.4648 159.116L62.4958 159.127C63.9094 159.594 65.3099 160.07 66.6961 160.542C78.5541 164.58 89.3631 168.261 98.3433 162.135C101.603 159.749 103.974 156.073 105.405 151.164C108.843 136.321 103.812 86.9492 85.2253 80.2112ZM57.7688 73.1685C56.8465 80.4382 53.5676 86.8774 48.749 90.8565C44.9616 93.9959 40.4653 95.344 36.1126 94.6748C24.9622 92.926 18.9488 79.302 20.698 67.436C21.5654 60.8237 24.3489 55.2626 28.5856 51.7552C32.4139 48.5926 37.219 47.2406 42.0878 48.0164C52.8251 49.6572 59.4141 60.2507 57.7688 73.1685Z" fill="#04A427"/>
<path opacity="0.05" fill-rule="evenodd" clip-rule="evenodd" d="M299.548 209.76C308.725 206.182 311.477 193.832 308.243 183.935C304.878 173.291 296.13 167.91 287.411 171.186C278.39 174.549 274.876 185.392 278.173 195.291C281.022 205.08 290.525 213.192 299.548 209.76ZM333.929 196.502C330.362 194.262 326.152 193.706 322.072 194.913C313.106 197.604 308.532 207.397 311.181 218.17C313.534 228.314 322.369 236.666 331.7 233.89C340.994 231.099 344.77 218.766 342.161 208.889C340.814 203.378 337.877 198.987 333.929 196.502ZM270.122 224.819C266.868 226.959 263.055 227.487 259.183 226.419C244.725 222.469 236.963 199.035 251.071 189.783C264.731 180.93 278.61 197.27 276.947 212.485C276.374 217.826 273.897 222.311 270.122 224.819ZM289 227.42C273.773 235.484 274.342 277.809 278.75 290.188C285.837 306.786 301.821 299.419 316.427 291.708L316.452 291.695C317.589 291.085 318.723 290.49 319.846 289.9L319.848 289.899C329.458 284.854 338.217 280.256 340.633 270.649C341.425 267.059 340.973 263.225 339.276 259.215C333.584 247.662 304.279 219.771 289 227.42ZM267.97 240.555C271.237 245.726 272.58 251.883 271.65 257.474C270.925 261.876 268.806 265.603 265.708 267.967C257.756 274.001 246.755 269.265 241.576 260.668C238.622 255.946 237.432 250.66 238.245 245.739C238.984 241.296 241.296 237.369 244.774 234.742C252.409 228.904 262.169 231.362 267.97 240.555Z" fill="#04A427"/>
</svg>
