<svg width="229" height="94" viewBox="0 0 229 94" fill="none" xmlns="http://www.w3.org/2000/svg">
<path opacity="0.06" fill-rule="evenodd" clip-rule="evenodd" d="M53.4993 33.7517C59.5523 32.5315 61.4015 25.5973 59.3018 19.5287C57.1181 13.0132 51.3742 9.05545 45.6233 10.1429C39.6733 11.2524 37.3274 17.2369 39.4682 23.3126C41.315 29.2821 47.5479 34.9011 53.4993 33.7517ZM76.1771 29.2649C73.8352 27.6246 71.065 26.9046 68.375 27.2236C62.463 27.9471 59.4219 33.2206 61.1341 39.7439C62.6529 45.8738 68.4449 51.5699 74.5973 50.8312C80.7252 50.0804 83.2488 43.253 81.5601 37.2543C80.6901 33.9182 78.7693 31.084 76.1771 29.2649ZM34.078 39.7511C31.9291 40.6909 29.4172 40.6396 26.871 39.6534C17.363 35.9919 12.3223 21.6128 21.6392 17.5521C30.6603 13.6813 39.7501 24.5046 38.6094 33.2095C38.2156 36.2664 36.5715 38.6458 34.078 39.7511ZM46.5007 43.0435C36.4503 46.3064 36.6981 71.0115 39.5633 78.6362C44.1799 88.9702 54.7267 86.1843 64.367 83.0678L64.3837 83.0626C65.1345 82.8141 65.8834 82.574 66.6247 82.3363L66.6253 82.3362C72.9679 80.3025 78.7494 78.4488 80.369 73.0805C80.9009 71.0644 80.6148 68.7889 79.5093 66.2938C75.7966 59.0294 56.5841 40.0264 46.5007 43.0435ZM32.6143 48.713C34.75 52.0323 35.6155 55.7442 34.9864 58.9131C34.496 61.4089 33.0891 63.3801 31.0428 64.4655C25.7886 67.2314 18.5591 63.4372 15.1746 57.9428C13.2439 54.9147 12.4764 51.7242 13.0264 48.9343C13.5259 46.416 15.0601 44.3464 17.3585 43.1437C22.4031 40.4622 28.822 42.8127 32.6143 48.713Z" fill="#04A427"/>
<path opacity="0.06" fill-rule="evenodd" clip-rule="evenodd" d="M180.749 29.8681C183.334 25.5004 180.199 19.4897 175.42 16.3779C170.328 12.9962 164.816 13.4949 162.317 17.5933C159.723 21.8226 162.017 27.4436 166.823 30.5366C171.404 33.7239 178.178 34.1266 180.749 29.8681ZM190.485 13.5647C188.221 13.7491 186.274 14.8369 184.992 16.6187C182.187 20.551 183.676 26.0668 188.514 29.7267C193.012 33.2178 199.59 33.9303 202.517 29.8483C205.423 25.7718 202.722 19.4475 198.21 16.1481C195.739 14.2732 192.992 13.3632 190.485 13.5647ZM173.703 45.3673C173.089 47.2789 171.683 48.694 169.699 49.4626C162.303 52.3477 150.943 45.0125 153.616 36.7341C156.241 28.7621 167.691 31.223 172.273 38.0863C173.885 40.4925 174.408 43.1385 173.703 45.3673ZM182.475 40.5354C178.923 48.6691 193.833 66.1335 199.962 69.9119C208.67 74.6092 212.779 66.5286 216.194 58.7363L216.2 58.7229C216.462 58.1124 216.728 57.5089 216.992 56.9115L216.993 56.9097C219.249 51.7949 221.307 47.1326 218.983 42.3706C218.069 40.6264 216.551 39.1699 214.454 38.0305C208.076 34.9986 186.192 32.5579 182.475 40.5354ZM178.262 52.6004C181.416 53.7319 184.11 55.8772 185.66 58.4994C186.884 60.5615 187.293 62.7794 186.821 64.7356C185.599 69.7433 179.371 71.2172 174.232 69.2571C171.364 68.2147 169.035 66.3843 167.668 64.078C166.436 61.9946 166.038 59.6329 166.577 57.4475C167.736 52.6211 172.656 50.5868 178.262 52.6004Z" fill="#04A427"/>
</svg>
