<svg width="72" height="65" viewBox="0 0 72 65" fill="none" xmlns="http://www.w3.org/2000/svg">
<path d="M71.4204 13.9211C71.7095 13.4937 71.7301 12.9341 71.4824 12.4864C71.2243 12.0285 70.7392 11.7436 70.2024 11.7436H61.3974C60.0762 11.7537 58.7859 12.0081 57.5678 12.5271C57.4749 12.5678 57.3923 12.5983 57.3098 12.639C55.9266 13.2699 54.7188 14.2874 53.8105 15.5796L52.2621 17.8691C52.066 17.8182 51.9008 17.7775 51.8699 17.7673C51.6737 17.7164 51.4776 17.6757 51.2815 17.635C51.2299 17.6249 51.1886 17.6147 51.1473 17.6045C49.7641 11.3569 47.7409 6.37103 46.0997 2.94196C45.6145 1.92444 44.6752 1.20199 43.5604 0.978137C41.6507 0.601653 39.4004 0.30657 36.8611 0.265869C36.7786 0.265869 36.6857 0.265869 36.6031 0.265869C36.3553 0.265869 36.1076 0.265869 35.8495 0.265869C35.6018 0.265869 35.3644 0.26587 35.1167 0.276045C34.8792 0.276045 34.6418 0.286222 34.3941 0.296397C34.167 0.306572 33.9296 0.316747 33.6922 0.337097C33.4651 0.357448 33.238 0.367623 33.0109 0.387974C32.7838 0.408324 32.567 0.4185 32.3399 0.449026C32.1232 0.469376 31.9064 0.4999 31.6896 0.520251C31.4832 0.540601 31.2664 0.571129 31.06 0.601655C30.8535 0.63218 30.6574 0.65253 30.4509 0.693231C30.2548 0.723757 30.0587 0.754282 29.8626 0.784808C29.6768 0.815334 29.4806 0.84586 29.2948 0.886561C29.2226 0.896736 29.1607 0.906911 29.0884 0.927261C28.9852 0.947612 28.8819 0.967963 28.7787 0.988313C28.4381 1.06972 27.9839 1.23252 27.5194 1.57848C26.962 1.99567 26.6626 2.4739 26.5284 2.73846C26.5078 2.77916 26.4872 2.83004 26.4665 2.87074C26.4149 2.98266 26.3633 3.08442 26.3117 3.19635C26.2601 3.30827 26.2085 3.4202 26.1568 3.53213C26.1052 3.64406 26.0433 3.75599 25.9917 3.86791C25.9401 3.99002 25.8781 4.10194 25.8265 4.22405C25.7749 4.34615 25.713 4.46825 25.6614 4.58018C25.6098 4.70229 25.5478 4.82439 25.4962 4.94649C25.4446 5.06859 25.3827 5.20087 25.331 5.32298C25.2691 5.44508 25.2175 5.57736 25.1659 5.70963C25.1143 5.84191 25.0523 5.97419 25.0007 6.10647C24.9388 6.23875 24.8872 6.37103 24.8356 6.51348C24.7736 6.65594 24.722 6.78821 24.6601 6.92049C24.6085 7.06295 24.5466 7.2054 24.4949 7.34785C24.4433 7.49031 24.3814 7.63276 24.3298 7.77521C24.2782 7.91766 24.2162 8.06012 24.1646 8.21275C24.1027 8.35521 24.0511 8.50783 23.9995 8.65029C23.9375 8.80292 23.8859 8.95554 23.8343 9.10817C23.7724 9.2608 23.7208 9.41343 23.6691 9.56606C23.6175 9.71869 23.5556 9.88149 23.504 10.0341C23.4524 10.1867 23.3904 10.3496 23.3388 10.5124C23.2872 10.6752 23.2253 10.838 23.1737 11.0008C23.1221 11.1636 23.0601 11.3264 23.0085 11.4892C22.9569 11.652 22.9053 11.825 22.8537 11.9878C22.8021 12.1608 22.7505 12.3236 22.6988 12.4965C22.6472 12.6695 22.5956 12.8425 22.544 13.0155C22.4924 13.1884 22.4408 13.3614 22.3892 13.5344C22.3376 13.7176 22.2859 13.8905 22.2343 14.0635C22.1827 14.2467 22.1311 14.4197 22.0795 14.6028C22.0279 14.786 21.9763 14.9691 21.935 15.1523C21.8834 15.3354 21.8318 15.5186 21.7905 15.7017C21.7389 15.8849 21.6976 16.0681 21.646 16.2614C21.5943 16.4547 21.5531 16.6379 21.5118 16.8312C21.4705 17.0245 21.4189 17.2179 21.3776 17.401C21.3673 17.4621 21.3569 17.5129 21.3363 17.574C21.0266 17.6452 20.5518 17.7571 20.1389 17.8487L18.5802 15.5796C17.6822 14.2976 16.4744 13.28 15.0913 12.6492C15.0087 12.6085 14.9158 12.5678 14.8332 12.5372C13.6255 12.0183 12.3352 11.7639 11.0036 11.7537H2.19861C1.66185 11.7537 1.16637 12.0386 0.918633 12.4965C0.670896 12.9544 0.69154 13.5039 0.970244 13.9312L6.56497 22.509C6.50304 22.5395 6.4411 22.57 6.36884 22.6006C5.3779 23.0585 4.66565 23.9539 4.45921 25.0121C4.07728 26.9047 3.77793 29.1534 3.73664 31.6769C3.72632 32.1653 3.72632 32.6537 3.73664 33.1523C3.74696 33.6204 3.76761 34.0884 3.79858 34.5565C3.82954 35.0042 3.86051 35.4519 3.9018 35.8996C3.94309 36.327 3.9947 36.7442 4.04631 37.1715C4.05663 37.2835 4.07728 37.3954 4.0876 37.5073C4.0876 37.5073 4.0876 37.5073 4.0876 37.5175C4.12889 37.8024 4.17018 38.0873 4.22179 38.3722C4.24244 38.474 4.25276 38.5859 4.2734 38.6877C4.2734 38.6978 4.2734 38.708 4.28372 38.7284C4.28372 38.7589 4.29405 38.7894 4.29405 38.8098C4.4076 39.2269 4.60372 39.7866 4.98565 40.3767C5.50177 41.1806 6.11079 41.6995 6.52368 41.9844C6.58561 42.015 6.65787 42.0455 6.71981 42.076C6.91593 42.1676 7.11206 42.2592 7.30818 42.3508L7.45269 42.422C7.69011 42.5339 7.93785 42.6357 8.18559 42.7476C8.43332 42.8595 8.69138 42.9613 8.94944 43.0732C9.21782 43.1851 9.4862 43.2971 9.74426 43.3988C10.023 43.5107 10.3017 43.6227 10.5701 43.7244C10.8591 43.8363 11.1481 43.9483 11.4371 44.0602C11.7365 44.1721 12.0358 44.284 12.3352 44.3858C12.6448 44.4977 12.9545 44.6097 13.2642 44.7114C13.5842 44.8233 13.9042 44.9353 14.2242 45.037C14.5545 45.1489 14.8848 45.2507 15.2151 45.3525C15.5558 45.4644 15.8964 45.5661 16.237 45.6679C16.588 45.7696 16.939 45.8714 17.3002 45.9731C17.6615 46.0749 18.0228 46.1767 18.3841 46.2682C18.7557 46.37 19.1273 46.4616 19.4989 46.5531C19.8808 46.6447 20.2628 46.7363 20.6447 46.8279C20.8408 46.8686 21.0369 46.9093 21.2227 46.9601C22.5956 53.1874 24.6188 58.1631 26.2497 61.5922C26.7452 62.63 27.7052 63.3728 28.8407 63.5967C30.74 63.9732 32.9799 64.2581 35.4986 64.2988C35.9941 64.309 36.4895 64.309 36.9953 64.2988C37.4702 64.2886 37.945 64.2683 38.4198 64.2377C38.874 64.2072 39.3282 64.1767 39.7824 64.136C40.2159 64.0953 40.6391 64.0444 41.0727 63.9935C41.4752 63.9426 41.8881 63.8816 42.2907 63.8206C42.6726 63.7595 43.0442 63.6984 43.4262 63.617C43.5397 63.5967 43.6429 63.5763 43.7462 63.556C43.7875 63.5458 43.8287 63.5356 43.8803 63.5255C44.1694 63.4542 44.6855 63.2813 45.1294 62.8742C45.3048 62.7114 45.4494 62.5385 45.5526 62.3858C45.6248 62.2434 45.6971 62.1009 45.7693 61.9483C45.79 61.8974 45.821 61.8465 45.8416 61.7957V61.7855C45.9242 61.6227 45.9964 61.4599 46.079 61.2971C46.1513 61.1445 46.2235 60.9918 46.2958 60.8392C46.3268 60.768 46.368 60.6967 46.399 60.6153C46.5126 60.3813 46.6158 60.1371 46.7293 59.9031C46.8429 59.6487 46.9564 59.4045 47.0596 59.1501C47.1732 58.8855 47.2867 58.6312 47.4003 58.3666C47.5138 58.0919 47.6274 57.8273 47.7409 57.5526C47.8545 57.2677 47.968 56.9828 48.0816 56.6979C48.1951 56.4028 48.3086 56.1077 48.4222 55.8126C48.5357 55.5074 48.6493 55.2021 48.7525 54.8968C48.8661 54.5814 48.9796 54.266 49.0828 53.9506C49.1964 53.6249 49.2996 53.2993 49.4132 52.9737C49.5267 52.6379 49.6299 52.3022 49.7331 51.9562C49.8364 51.6102 49.9396 51.2643 50.0428 50.9183C50.146 50.5622 50.2493 50.206 50.3422 49.8499C50.4454 49.4836 50.5383 49.1173 50.6312 48.751C50.7241 48.3745 50.817 47.998 50.9099 47.6215C50.9615 47.418 51.0028 47.2145 51.0544 47.011C57.5781 45.6068 62.76 43.5209 66.2489 41.8725C67.0954 41.4757 67.6941 40.7125 67.8799 39.8069C68.2824 37.8635 68.6128 35.5333 68.654 32.8979L68.6644 32.6436C68.6644 32.3993 68.6644 32.1551 68.6644 31.9008C68.6644 31.6566 68.654 31.4225 68.654 31.1783C68.6437 30.9443 68.6437 30.7103 68.6231 30.4762C68.6128 30.2422 68.6024 30.0183 68.5818 29.7843C68.5715 29.5604 68.5508 29.3366 68.5302 29.1127C68.5095 28.8991 68.4889 28.6752 68.4683 28.4513C68.4476 28.2377 68.4166 28.024 68.396 27.8103C68.3753 27.6068 68.3444 27.3931 68.3134 27.1896C68.2824 26.9861 68.2515 26.7928 68.2205 26.5893C68.1895 26.3959 68.1586 26.2026 68.1276 26.0093C68.0966 25.8159 68.0657 25.6328 68.0244 25.4496C68.0141 25.3682 67.9934 25.2868 67.9831 25.2054C67.9624 25.1037 67.9418 25.0019 67.9212 24.9002C67.9005 24.7984 67.8799 24.6967 67.8592 24.5949V24.5847C67.7663 24.2795 67.5909 23.903 67.2915 23.5469C67.0747 23.2925 66.8373 23.0992 66.6205 22.9465H66.6102C66.5173 22.8957 66.4244 22.855 66.3315 22.8143C66.2283 22.7634 66.1147 22.7125 66.0115 22.6616C65.9496 22.6311 65.8877 22.6006 65.8257 22.5802L71.4204 13.9211ZM44.9539 51.6001L44.9023 51.7018C44.8197 51.885 44.7165 52.0579 44.6132 52.2411C44.6132 52.2411 44.6132 52.2411 44.6029 52.2411C43.1165 54.5102 40.6495 56.1077 37.945 56.6063C37.8418 56.6266 37.7385 56.6368 37.6353 56.6572C37.5527 56.6673 37.4805 56.6775 37.3979 56.6877C37.3669 56.6877 37.336 56.6979 37.305 56.6979C37.0882 56.7182 36.8715 56.7386 36.6547 56.7487C36.5411 56.7589 36.4276 56.7589 36.3141 56.7589H36.0044C35.9425 56.7589 35.8908 56.7589 35.8289 56.7589C35.7773 56.7589 35.7154 56.7589 35.6637 56.7487C35.5708 56.7386 35.4779 56.7386 35.3747 56.7284C32.1025 56.413 29.171 54.0828 27.3749 51.305C27.3646 51.2948 27.3646 51.2948 27.3646 51.2846L27.3439 51.2338L2.74569 13.4835H10.952C12.0255 13.4937 13.1197 13.7176 14.09 14.1246C14.1622 14.1551 14.2345 14.1856 14.3068 14.2162C15.4009 14.7147 16.3609 15.5288 17.0835 16.5463L20.335 21.288C20.5105 20.7792 20.7479 20.2094 21.0989 19.6294C21.2124 19.4564 21.3776 19.202 21.3982 19.1919C21.8214 18.5712 22.2756 18.0929 22.6782 17.7164C24.2369 16.1393 26.3943 14.6537 28.9542 13.8091C31.2561 13.0562 37.2844 11.652 43.4571 15.0403C45.3771 16.0986 46.9667 17.7266 48.0919 19.3648C48.1022 19.375 48.1125 19.3954 48.1332 19.4157L48.1435 19.4259C48.6183 20.0771 49.1241 20.881 49.568 21.8272C49.6506 22.0002 49.7228 22.1834 49.8054 22.3665C50.0222 22.8855 50.1873 23.3739 50.3318 23.8419L55.2659 16.5565C55.9885 15.5288 56.9485 14.7147 58.0427 14.2162C58.1149 14.1856 58.1872 14.1551 58.2594 14.1246C59.24 13.7176 60.3239 13.4937 61.3974 13.4835H69.614L44.9539 51.6001Z" fill="#0B5594"/>
<path d="M44.1914 44.4247C43.9436 45.3507 43.5101 46.1037 43.025 46.704C42.065 47.8843 40.6921 48.6576 39.185 48.9731C36.8109 49.4717 32.2897 49.9397 27.8717 47.6096C26.7466 47.0194 24.4034 45.7475 22.7105 43.0409C19.779 38.3705 21.1725 33.293 21.4718 32.2856C22.2357 34.0358 23.877 37.0375 27.2008 39.2455C28.2536 39.9374 32.5168 41.9827 36.4806 41.3823C37.296 41.2602 38.9476 40.6497 39.2779 39.0725C39.5257 37.9126 38.8547 36.7017 38.5967 36.3659C39.0921 36.4371 41.3631 36.7933 42.9733 38.8182C43.2108 39.1234 44.9862 41.4332 44.1914 44.4247Z" fill="url(#paint0_linear_2_34192)"/>
<path d="M32.969 23.3937C32.8142 23.1597 32.2671 23.2411 31.72 23.5769C31.1833 23.9025 30.8633 24.3706 31.0181 24.6046C31.1729 24.8386 31.72 24.7572 32.2568 24.4316C32.8039 24.0856 33.1239 23.6278 32.969 23.3937ZM50.7442 26.5074C50.6203 26.2937 50.4758 26.08 50.3313 25.8561C50.29 25.8053 50.2487 25.7442 50.2074 25.6832C50.1661 25.6119 50.1145 25.5407 50.0526 25.4695C50.0319 25.439 50.001 25.3983 49.9803 25.3677C49.8668 25.2151 49.7532 25.0523 49.619 24.8997C49.5261 24.7776 49.4229 24.6555 49.3197 24.5334C49.1545 24.3299 48.9894 24.1467 48.8242 23.9737C48.8242 23.9635 48.8242 23.9635 48.8242 23.9534C48.7623 23.7295 48.69 23.5057 48.6178 23.2716C48.6074 23.2513 48.6074 23.2207 48.5971 23.2004C48.5868 23.1902 48.5868 23.1699 48.5868 23.1597C48.5352 23.0071 48.4836 22.8544 48.4216 22.712C48.4113 22.6815 48.401 22.6611 48.3907 22.6306V22.6204C48.3184 22.4271 48.2358 22.2439 48.1739 22.0608C48.1739 22.0608 48.1739 22.0506 48.1636 22.0404C48.05 21.7962 47.9365 21.5622 47.8229 21.3587C46.8733 19.5882 45.2011 17.4514 42.8579 16.1693C37.129 13.0251 31.5239 14.3276 29.3872 15.0297C27.9111 15.5181 26.5795 16.2303 25.444 17.0545C25.3408 17.1359 25.2273 17.2072 25.124 17.2886C25.0931 17.3089 25.0621 17.3293 25.0311 17.3496C24.5563 17.7058 23.9679 18.2247 23.3899 18.9064C23.3589 18.9471 23.3279 18.9777 23.297 19.0184C23.2557 19.0591 23.2247 19.1099 23.1834 19.1608C23.1628 19.1812 23.1421 19.2117 23.1318 19.232C23.1318 19.232 23.1318 19.2422 23.1215 19.2422C23.1008 19.2626 23.0905 19.2829 23.0699 19.3033C23.0079 19.3847 22.946 19.4763 22.8738 19.5678C22.8531 19.5984 22.8325 19.6187 22.8221 19.6492C22.7912 19.6899 22.7705 19.7306 22.7396 19.7713C22.7292 19.7815 22.7189 19.8019 22.7086 19.812C22.6879 19.8426 22.6673 19.8629 22.6467 19.8934C22.6157 19.9443 22.5847 19.9952 22.5538 20.0461C22.4609 20.1987 22.368 20.3513 22.2647 20.5243C22.2647 20.5345 22.2544 20.5345 22.2544 20.5447C22.2544 20.5548 22.2441 20.5548 22.2441 20.565C22.2338 20.5854 22.2234 20.6057 22.2131 20.6261C22.2028 20.6464 22.1925 20.6668 22.1822 20.6871C22.1615 20.7176 22.1512 20.738 22.1409 20.7685C22.0583 20.9211 21.986 21.0738 21.9138 21.2264C21.666 21.7657 21.4906 22.2846 21.3564 22.7425C21.2944 22.9664 21.2428 23.1699 21.2015 23.3734C21.1499 23.6278 21.1086 23.8618 21.0777 24.0755C21.0777 24.0856 21.0777 24.0958 21.0777 24.1162C21.0054 24.7877 20.9951 25.4695 21.0777 26.1614C21.2428 27.6979 21.7796 28.9494 22.3163 29.8754C22.6776 29.6108 23.1112 29.4785 24.226 28.8884C24.5357 28.7256 25.3098 28.3694 25.6401 28.1964C25.4337 27.6368 25.6401 27.0059 26.115 26.6295C26.6208 26.2225 27.1575 25.7544 27.7149 25.2151C28.2724 24.6656 28.7575 24.1162 29.1704 23.5972C29.7691 22.8443 30.5226 22.2236 31.3897 21.8064C31.4 21.8064 31.4 21.7962 31.4104 21.7962C32.2774 21.3689 33.0723 21.1959 33.6193 21.1145C34.9613 20.8601 40.4424 19.9341 45.872 23.1902C49.9906 25.6628 51.859 29.1936 52.5196 30.6182C52.1996 29.4887 51.6732 28.0336 50.7442 26.5074ZM50.9919 35.6651C50.3932 32.6125 48.6694 30.6283 47.8333 29.794C44.5817 26.5379 40.4424 26.3039 39.4515 26.2631C40.1328 26.1309 40.9069 26.0291 41.7431 25.9681C43.0024 25.8867 44.1378 25.9375 45.0978 26.0495C44.014 25.673 41.9495 25.1133 39.4205 25.5102C39.2141 25.5407 39.0076 25.5814 38.8115 25.6221C37.5522 25.8867 36.3754 26.426 35.3019 27.1382C33.4335 28.3796 31.7613 28.9189 30.6981 29.1733C30.6981 29.1733 27.8078 29.8652 26.2905 28.9494C26.2182 28.9087 26.1459 28.8985 26.0014 28.7357C25.4027 29.0715 24.835 29.4277 24.2157 29.7838C23.7512 30.0484 23.2041 30.3434 22.7396 30.5571C23.0183 30.9539 23.266 31.2592 23.4312 31.4525C26.0737 34.6272 29.831 35.2683 31.6787 35.5837C34.3006 36.0314 36.5922 35.777 38.2541 35.4005C41.454 35.5735 44.2307 37.4865 45.3662 40.2643C46.7288 43.6425 45.0049 46.6849 44.7778 47.0716C45.552 46.7663 48.8965 45.3723 50.4655 41.7804C51.6422 39.1247 51.1983 36.703 50.9919 35.6651ZM23.0183 29.7227C22.7808 29.7838 22.5331 29.8754 22.3267 29.8855C22.4609 30.1196 22.6054 30.3333 22.7292 30.5164C22.8325 30.3943 23.0079 30.2213 23.1421 30.0992C23.2763 29.9771 24.1021 29.3564 24.2157 29.2852C24.1641 29.3157 23.3692 29.6413 23.0183 29.7227Z" fill="url(#paint1_linear_2_34192)"/>
<path d="M22.2646 20.5159C22.2337 20.5768 22.2028 20.6275 22.1719 20.6884C22.1925 20.6478 22.2131 20.6072 22.244 20.5565C22.244 20.5362 22.2543 20.526 22.2646 20.5159Z" fill="white"/>
<path d="M22.8754 19.5588C22.8032 19.6707 22.7206 19.7723 22.6484 19.8842C22.7206 19.7723 22.8032 19.6605 22.8754 19.5588Z" fill="white"/>
<path d="M23.2875 19.0081C23.2153 19.0996 23.1431 19.2012 23.0605 19.2927C23.1431 19.1911 23.2153 19.0894 23.2875 19.0081Z" fill="white"/>
<defs>
<linearGradient id="paint0_linear_2_34192" x1="0.276404" y1="49.3793" x2="39.7758" y2="37.5513" gradientUnits="userSpaceOnUse">
<stop offset="0.0469805" stop-color="#0B5594"/>
<stop offset="0.5901" stop-color="#0A7040"/>
<stop offset="1" stop-color="#DBB14F"/>
</linearGradient>
<linearGradient id="paint1_linear_2_34192" x1="25.7193" y1="11.8602" x2="50.0378" y2="48.5492" gradientUnits="userSpaceOnUse">
<stop offset="0.0469805" stop-color="#0B5594"/>
<stop offset="0.5901" stop-color="#0A7040"/>
<stop offset="1" stop-color="#DBB14F"/>
</linearGradient>
</defs>
</svg>
