<svg width="51" height="47" viewBox="0 0 51 47" fill="none" xmlns="http://www.w3.org/2000/svg">
<path d="M50.8068 9.81654C51.0146 9.50932 51.0294 9.107 50.8513 8.78515C50.6658 8.45598 50.3171 8.25116 49.9312 8.25116H43.6014C42.6516 8.25847 41.724 8.44135 40.8484 8.8144C40.7816 8.84366 40.7222 8.86561 40.6628 8.89487C39.6685 9.34839 38.8003 10.0799 38.1473 11.0089L37.0342 12.6547C36.8932 12.6181 36.7744 12.5889 36.7522 12.5816C36.6112 12.545 36.4702 12.5157 36.3292 12.4865C36.2921 12.4791 36.2624 12.4718 36.2327 12.4645C35.2384 7.9732 33.7839 4.38892 32.6041 1.92381C32.2553 1.19232 31.58 0.672967 30.7786 0.51204C29.4058 0.24139 27.7881 0.0292594 25.9626 0C25.9032 0 25.8365 0 25.7771 0C25.599 0 25.4209 0 25.2354 0C25.0573 0 24.8866 4.46354e-07 24.7085 0.0073153C24.5379 0.0073153 24.3672 0.0146311 24.1891 0.0219459C24.0258 0.0292608 23.8552 0.0365752 23.6845 0.0512049C23.5212 0.0658346 23.358 0.0731495 23.1947 0.0877792C23.0315 0.102409 22.8756 0.109724 22.7124 0.131669C22.5566 0.146298 22.4007 0.168242 22.2449 0.182871C22.0965 0.197501 21.9406 0.219447 21.7922 0.241392C21.6438 0.263336 21.5028 0.277965 21.3544 0.307225C21.2134 0.329169 21.0724 0.351114 20.9314 0.373058C20.7979 0.395003 20.6569 0.416947 20.5233 0.446207C20.4714 0.453522 20.4268 0.460836 20.3749 0.475466C20.3007 0.490095 20.2265 0.504726 20.1523 0.519355C19.9074 0.577874 19.5809 0.694913 19.247 0.943618C18.8462 1.24353 18.631 1.58733 18.5346 1.77751C18.5197 1.80677 18.5049 1.84334 18.4901 1.8726C18.4529 1.95307 18.4158 2.02622 18.3787 2.10668C18.3416 2.18714 18.3045 2.26761 18.2674 2.34807C18.2303 2.42853 18.1858 2.509 18.1487 2.58946C18.1116 2.67724 18.0671 2.7577 18.03 2.84548C17.9929 2.93326 17.9483 3.02104 17.9112 3.1015C17.8741 3.18928 17.8296 3.27706 17.7925 3.36483C17.7554 3.45261 17.7109 3.54771 17.6738 3.63548C17.6293 3.72326 17.5922 3.81836 17.5551 3.91345C17.518 4.00854 17.4734 4.10364 17.4363 4.19873C17.3918 4.29382 17.3547 4.38892 17.3176 4.49132C17.2731 4.59373 17.236 4.68883 17.1914 4.78392C17.1543 4.88633 17.1098 4.98874 17.0727 5.09114C17.0356 5.19355 16.9911 5.29596 16.954 5.39836C16.9169 5.50077 16.8724 5.60318 16.8353 5.71291C16.7907 5.81531 16.7536 5.92504 16.7165 6.02744C16.672 6.13717 16.6349 6.24689 16.5978 6.35661C16.5533 6.46634 16.5162 6.57606 16.4791 6.68578C16.442 6.7955 16.3974 6.91254 16.3603 7.02226C16.3232 7.13199 16.2787 7.24902 16.2416 7.36606C16.2045 7.4831 16.16 7.60014 16.1229 7.71717C16.0858 7.83421 16.0413 7.95125 16.0041 8.06829C15.967 8.18532 15.9299 8.30968 15.8928 8.42672C15.8557 8.55107 15.8186 8.66811 15.7815 8.79246C15.7444 8.91681 15.7073 9.04116 15.6702 9.16552C15.6331 9.28987 15.596 9.41422 15.5589 9.53858C15.5218 9.67024 15.4847 9.7946 15.4476 9.91895C15.4105 10.0506 15.3734 10.175 15.3363 10.3066C15.2992 10.4383 15.2621 10.57 15.2324 10.7016C15.1953 10.8333 15.1582 10.965 15.1285 11.0966C15.0914 11.2283 15.0617 11.36 15.0246 11.499C14.9875 11.6379 14.9578 11.7696 14.9282 11.9086C14.8985 12.0476 14.8614 12.1866 14.8317 12.3182C14.8243 12.3621 14.8168 12.3987 14.802 12.4426C14.5794 12.4938 14.238 12.5742 13.9412 12.6401L12.8207 11.0089C12.1751 10.0872 11.3069 9.3557 10.3125 8.90218C10.2532 8.87292 10.1864 8.84366 10.127 8.82172C9.25881 8.44866 8.33123 8.26579 7.37398 8.25848H1.04419C0.658322 8.25848 0.302131 8.46329 0.124036 8.79246C-0.0540589 9.12163 -0.0392177 9.51663 0.161139 9.82385L4.18311 15.9903C4.13859 16.0122 4.09406 16.0342 4.04212 16.0561C3.32974 16.3853 2.81772 17.029 2.66931 17.7897C2.39474 19.1503 2.17954 20.7669 2.14986 22.581C2.14244 22.9321 2.14244 23.2832 2.14986 23.6416C2.15728 23.9781 2.17213 24.3146 2.19439 24.6511C2.21665 24.9729 2.23891 25.2948 2.26859 25.6166C2.29828 25.9239 2.33538 26.2238 2.37248 26.531C2.3799 26.6115 2.39474 26.6919 2.40216 26.7724C2.40216 26.7724 2.40216 26.7724 2.40216 26.7797C2.43185 26.9845 2.46153 27.1893 2.49863 27.3941C2.51347 27.4673 2.52089 27.5478 2.53574 27.6209C2.53574 27.6282 2.53573 27.6355 2.54315 27.6502C2.54315 27.6721 2.55058 27.694 2.55058 27.7087C2.6322 28.0086 2.7732 28.4109 3.04776 28.8352C3.41879 29.413 3.8566 29.7861 4.15343 29.9909C4.19795 30.0129 4.2499 30.0348 4.29442 30.0567C4.43541 30.1226 4.57641 30.1884 4.7174 30.2543L4.82128 30.3055C4.99196 30.3859 5.17005 30.4591 5.34815 30.5395C5.52624 30.62 5.71176 30.6931 5.89727 30.7736C6.09021 30.8541 6.28314 30.9345 6.46866 31.0077C6.66902 31.0881 6.86937 31.1686 7.06231 31.2418C7.27009 31.3222 7.47786 31.4027 7.68564 31.4831C7.90084 31.5636 8.11603 31.6441 8.33123 31.7172C8.55385 31.7977 8.77647 31.8781 8.99909 31.9513C9.22913 32.0318 9.45917 32.1122 9.68921 32.1854C9.92667 32.2658 10.1641 32.339 10.4016 32.4121C10.6465 32.4926 10.8913 32.5657 11.1362 32.6389C11.3885 32.712 11.6408 32.7852 11.9005 32.8583C12.1603 32.9315 12.42 33.0046 12.6797 33.0705C12.9469 33.1436 13.214 33.2095 13.4811 33.2753C13.7557 33.3411 14.0303 33.407 14.3048 33.4728C14.4458 33.502 14.5868 33.5313 14.7204 33.5679C15.7073 38.0446 17.1618 41.6215 18.3342 44.0866C18.6904 44.8328 19.3805 45.3667 20.1968 45.5277C21.5622 45.7983 23.1725 46.0031 24.9831 46.0324C25.3393 46.0397 25.6955 46.0397 26.0591 46.0324C26.4004 46.0251 26.7418 46.0105 27.0831 45.9885C27.4096 45.9666 27.7361 45.9446 28.0626 45.9154C28.3743 45.8861 28.6786 45.8495 28.9902 45.8129C29.2796 45.7764 29.5765 45.7325 29.8659 45.6886C30.1404 45.6447 30.4076 45.6008 30.6821 45.5423C30.7638 45.5277 30.838 45.513 30.9122 45.4984C30.9418 45.4911 30.9715 45.4838 31.0086 45.4765C31.2164 45.4253 31.5874 45.3009 31.9065 45.0083C32.0327 44.8913 32.1366 44.7669 32.2108 44.6572C32.2627 44.5548 32.3147 44.4524 32.3666 44.3427C32.3814 44.3061 32.4037 44.2695 32.4185 44.2329V44.2256C32.4779 44.1086 32.5299 43.9915 32.5892 43.8745C32.6412 43.7648 32.6931 43.6551 32.745 43.5453C32.7673 43.4941 32.797 43.4429 32.8193 43.3844C32.9009 43.2162 32.9751 43.0406 33.0567 42.8724C33.1383 42.6895 33.22 42.514 33.2942 42.3311C33.3758 42.1409 33.4574 41.958 33.5391 41.7678C33.6207 41.5703 33.7023 41.3801 33.7839 41.1826C33.8656 40.9778 33.9472 40.773 34.0288 40.5682C34.1104 40.3561 34.1921 40.1439 34.2737 39.9318C34.3553 39.7124 34.437 39.4929 34.5112 39.2735C34.5928 39.0467 34.6744 38.8199 34.7486 38.5932C34.8302 38.3591 34.9045 38.125 34.9861 37.891C35.0677 37.6496 35.1419 37.4082 35.2161 37.1595C35.2903 36.9108 35.3645 36.6621 35.4387 36.4134C35.5129 36.1573 35.5871 35.9013 35.6539 35.6453C35.7281 35.382 35.7949 35.1186 35.8617 34.8553C35.9285 34.5846 35.9953 34.314 36.0621 34.0433C36.0992 33.897 36.1288 33.7508 36.1659 33.6045C40.8558 32.595 44.5809 31.0955 47.0891 29.9105C47.6976 29.6252 48.128 29.0766 48.2615 28.4255C48.551 27.0284 48.7884 25.3533 48.8181 23.4587L48.8255 23.2759C48.8255 23.1003 48.8255 22.9248 48.8255 22.7419C48.8255 22.5663 48.8181 22.3981 48.8181 22.2225C48.8107 22.0543 48.8107 21.8861 48.7958 21.7178C48.7884 21.5496 48.781 21.3886 48.7662 21.2204C48.7587 21.0595 48.7439 20.8985 48.7291 20.7376C48.7142 20.584 48.6994 20.4231 48.6845 20.2622C48.6697 20.1085 48.6474 19.9549 48.6326 19.8013C48.6177 19.655 48.5955 19.5014 48.5732 19.3551C48.551 19.2088 48.5287 19.0698 48.5064 18.9235C48.4842 18.7846 48.4619 18.6456 48.4396 18.5066C48.4174 18.3676 48.3951 18.2359 48.3654 18.1043C48.358 18.0458 48.3432 17.9872 48.3358 17.9287C48.3209 17.8556 48.3061 17.7824 48.2912 17.7093C48.2764 17.6361 48.2616 17.563 48.2467 17.4898V17.4825C48.1799 17.2631 48.0538 16.9924 47.8386 16.7364C47.6827 16.5535 47.5121 16.4145 47.3562 16.3048H47.3488C47.282 16.2682 47.2152 16.239 47.1485 16.2097C47.0743 16.1732 46.9926 16.1366 46.9184 16.1C46.8739 16.0781 46.8294 16.0561 46.7849 16.0415L50.8068 9.81654ZM31.7804 36.9035L31.7433 36.9766C31.6839 37.1083 31.6097 37.2326 31.5355 37.3643C31.5355 37.3643 31.5355 37.3643 31.5281 37.3643C30.4595 38.9955 28.686 40.1439 26.7418 40.5024C26.6676 40.517 26.5934 40.5243 26.5192 40.5389C26.4598 40.5463 26.4078 40.5536 26.3485 40.5609C26.3262 40.5609 26.304 40.5682 26.2817 40.5682C26.1259 40.5828 25.97 40.5975 25.8142 40.6048C25.7326 40.6121 25.6509 40.6121 25.5693 40.6121H25.3467C25.3022 40.6121 25.2651 40.6121 25.2205 40.6121C25.1834 40.6121 25.1389 40.6121 25.1018 40.6048C25.035 40.5975 24.9682 40.5975 24.894 40.5901C22.5417 40.3634 20.4343 38.6883 19.1431 36.6913C19.1356 36.684 19.1356 36.684 19.1356 36.6767L19.1208 36.6401L1.43749 9.502H7.33687C8.10862 9.50932 8.8952 9.67024 9.59274 9.96284C9.64468 9.98478 9.69663 10.0067 9.74857 10.0287C10.5352 10.3871 11.2253 10.9723 11.7447 11.7038L14.0822 15.1125C14.2084 14.7468 14.379 14.3371 14.6313 13.9202C14.713 13.7958 14.8317 13.6129 14.8465 13.6056C15.1508 13.1594 15.4773 12.8156 15.7667 12.545C16.8872 11.4112 18.4381 10.3432 20.2784 9.73608C21.9332 9.19478 26.2669 8.18533 30.7044 10.6212C32.0846 11.3819 33.2274 12.5523 34.0362 13.73C34.0437 13.7373 34.0511 13.7519 34.0659 13.7666L34.0733 13.7739C34.4147 14.242 34.7783 14.8199 35.0974 15.5002C35.1568 15.6245 35.2087 15.7562 35.2681 15.8879C35.4239 16.2609 35.5426 16.612 35.6465 16.9485L39.1936 11.7111C39.713 10.9723 40.4031 10.3871 41.1897 10.0287C41.2417 10.0067 41.2936 9.98478 41.3455 9.96284C42.0505 9.67024 42.8297 9.50932 43.6014 9.502H49.5082L31.7804 36.9035Z" fill="url(#paint0_linear_2002_2983)"/>
<path d="M50.8068 9.81654C51.0146 9.50932 51.0294 9.107 50.8513 8.78515C50.6658 8.45598 50.3171 8.25116 49.9312 8.25116H43.6014C42.6516 8.25847 41.724 8.44135 40.8484 8.8144C40.7816 8.84366 40.7222 8.86561 40.6628 8.89487C39.6685 9.34839 38.8003 10.0799 38.1473 11.0089L37.0342 12.6547C36.8932 12.6181 36.7744 12.5889 36.7522 12.5816C36.6112 12.545 36.4702 12.5157 36.3292 12.4865C36.2921 12.4791 36.2624 12.4718 36.2327 12.4645C35.2384 7.9732 33.7839 4.38892 32.6041 1.92381C32.2553 1.19232 31.58 0.672967 30.7786 0.51204C29.4058 0.24139 27.7881 0.0292594 25.9626 0C25.9032 0 25.8365 0 25.7771 0C25.599 0 25.4209 0 25.2354 0C25.0573 0 24.8866 4.46354e-07 24.7085 0.0073153C24.5379 0.0073153 24.3672 0.0146311 24.1891 0.0219459C24.0258 0.0292608 23.8552 0.0365752 23.6845 0.0512049C23.5212 0.0658346 23.358 0.0731495 23.1947 0.0877792C23.0315 0.102409 22.8756 0.109724 22.7124 0.131669C22.5566 0.146298 22.4007 0.168242 22.2449 0.182871C22.0965 0.197501 21.9406 0.219447 21.7922 0.241392C21.6438 0.263336 21.5028 0.277965 21.3544 0.307225C21.2134 0.329169 21.0724 0.351114 20.9314 0.373058C20.7979 0.395003 20.6569 0.416947 20.5233 0.446207C20.4714 0.453522 20.4268 0.460836 20.3749 0.475466C20.3007 0.490095 20.2265 0.504726 20.1523 0.519355C19.9074 0.577874 19.5809 0.694913 19.247 0.943618C18.8462 1.24353 18.631 1.58733 18.5346 1.77751C18.5197 1.80677 18.5049 1.84334 18.4901 1.8726C18.4529 1.95307 18.4158 2.02622 18.3787 2.10668C18.3416 2.18714 18.3045 2.26761 18.2674 2.34807C18.2303 2.42853 18.1858 2.509 18.1487 2.58946C18.1116 2.67724 18.0671 2.7577 18.03 2.84548C17.9929 2.93326 17.9483 3.02104 17.9112 3.1015C17.8741 3.18928 17.8296 3.27706 17.7925 3.36483C17.7554 3.45261 17.7109 3.54771 17.6738 3.63548C17.6293 3.72326 17.5922 3.81836 17.5551 3.91345C17.518 4.00854 17.4734 4.10364 17.4363 4.19873C17.3918 4.29382 17.3547 4.38892 17.3176 4.49132C17.2731 4.59373 17.236 4.68883 17.1914 4.78392C17.1543 4.88633 17.1098 4.98874 17.0727 5.09114C17.0356 5.19355 16.9911 5.29596 16.954 5.39836C16.9169 5.50077 16.8724 5.60318 16.8353 5.71291C16.7907 5.81531 16.7536 5.92504 16.7165 6.02744C16.672 6.13717 16.6349 6.24689 16.5978 6.35661C16.5533 6.46634 16.5162 6.57606 16.4791 6.68578C16.442 6.7955 16.3974 6.91254 16.3603 7.02226C16.3232 7.13199 16.2787 7.24902 16.2416 7.36606C16.2045 7.4831 16.16 7.60014 16.1229 7.71717C16.0858 7.83421 16.0413 7.95125 16.0041 8.06829C15.967 8.18532 15.9299 8.30968 15.8928 8.42672C15.8557 8.55107 15.8186 8.66811 15.7815 8.79246C15.7444 8.91681 15.7073 9.04116 15.6702 9.16552C15.6331 9.28987 15.596 9.41422 15.5589 9.53858C15.5218 9.67024 15.4847 9.7946 15.4476 9.91895C15.4105 10.0506 15.3734 10.175 15.3363 10.3066C15.2992 10.4383 15.2621 10.57 15.2324 10.7016C15.1953 10.8333 15.1582 10.965 15.1285 11.0966C15.0914 11.2283 15.0617 11.36 15.0246 11.499C14.9875 11.6379 14.9578 11.7696 14.9282 11.9086C14.8985 12.0476 14.8614 12.1866 14.8317 12.3182C14.8243 12.3621 14.8168 12.3987 14.802 12.4426C14.5794 12.4938 14.238 12.5742 13.9412 12.6401L12.8207 11.0089C12.1751 10.0872 11.3069 9.3557 10.3125 8.90218C10.2532 8.87292 10.1864 8.84366 10.127 8.82172C9.25881 8.44866 8.33123 8.26579 7.37398 8.25848H1.04419C0.658322 8.25848 0.302131 8.46329 0.124036 8.79246C-0.0540589 9.12163 -0.0392177 9.51663 0.161139 9.82385L4.18311 15.9903C4.13859 16.0122 4.09406 16.0342 4.04212 16.0561C3.32974 16.3853 2.81772 17.029 2.66931 17.7897C2.39474 19.1503 2.17954 20.7669 2.14986 22.581C2.14244 22.9321 2.14244 23.2832 2.14986 23.6416C2.15728 23.9781 2.17213 24.3146 2.19439 24.6511C2.21665 24.9729 2.23891 25.2948 2.26859 25.6166C2.29828 25.9239 2.33538 26.2238 2.37248 26.531C2.3799 26.6115 2.39474 26.6919 2.40216 26.7724C2.40216 26.7724 2.40216 26.7724 2.40216 26.7797C2.43185 26.9845 2.46153 27.1893 2.49863 27.3941C2.51347 27.4673 2.52089 27.5478 2.53574 27.6209C2.53574 27.6282 2.53573 27.6355 2.54315 27.6502C2.54315 27.6721 2.55058 27.694 2.55058 27.7087C2.6322 28.0086 2.7732 28.4109 3.04776 28.8352C3.41879 29.413 3.8566 29.7861 4.15343 29.9909C4.19795 30.0129 4.2499 30.0348 4.29442 30.0567C4.43541 30.1226 4.57641 30.1884 4.7174 30.2543L4.82128 30.3055C4.99196 30.3859 5.17005 30.4591 5.34815 30.5395C5.52624 30.62 5.71176 30.6931 5.89727 30.7736C6.09021 30.8541 6.28314 30.9345 6.46866 31.0077C6.66902 31.0881 6.86937 31.1686 7.06231 31.2418C7.27009 31.3222 7.47786 31.4027 7.68564 31.4831C7.90084 31.5636 8.11603 31.6441 8.33123 31.7172C8.55385 31.7977 8.77647 31.8781 8.99909 31.9513C9.22913 32.0318 9.45917 32.1122 9.68921 32.1854C9.92667 32.2658 10.1641 32.339 10.4016 32.4121C10.6465 32.4926 10.8913 32.5657 11.1362 32.6389C11.3885 32.712 11.6408 32.7852 11.9005 32.8583C12.1603 32.9315 12.42 33.0046 12.6797 33.0705C12.9469 33.1436 13.214 33.2095 13.4811 33.2753C13.7557 33.3411 14.0303 33.407 14.3048 33.4728C14.4458 33.502 14.5868 33.5313 14.7204 33.5679C15.7073 38.0446 17.1618 41.6215 18.3342 44.0866C18.6904 44.8328 19.3805 45.3667 20.1968 45.5277C21.5622 45.7983 23.1725 46.0031 24.9831 46.0324C25.3393 46.0397 25.6955 46.0397 26.0591 46.0324C26.4004 46.0251 26.7418 46.0105 27.0831 45.9885C27.4096 45.9666 27.7361 45.9446 28.0626 45.9154C28.3743 45.8861 28.6786 45.8495 28.9902 45.8129C29.2796 45.7764 29.5765 45.7325 29.8659 45.6886C30.1404 45.6447 30.4076 45.6008 30.6821 45.5423C30.7638 45.5277 30.838 45.513 30.9122 45.4984C30.9418 45.4911 30.9715 45.4838 31.0086 45.4765C31.2164 45.4253 31.5874 45.3009 31.9065 45.0083C32.0327 44.8913 32.1366 44.7669 32.2108 44.6572C32.2627 44.5548 32.3147 44.4524 32.3666 44.3427C32.3814 44.3061 32.4037 44.2695 32.4185 44.2329V44.2256C32.4779 44.1086 32.5299 43.9915 32.5892 43.8745C32.6412 43.7648 32.6931 43.6551 32.745 43.5453C32.7673 43.4941 32.797 43.4429 32.8193 43.3844C32.9009 43.2162 32.9751 43.0406 33.0567 42.8724C33.1383 42.6895 33.22 42.514 33.2942 42.3311C33.3758 42.1409 33.4574 41.958 33.5391 41.7678C33.6207 41.5703 33.7023 41.3801 33.7839 41.1826C33.8656 40.9778 33.9472 40.773 34.0288 40.5682C34.1104 40.3561 34.1921 40.1439 34.2737 39.9318C34.3553 39.7124 34.437 39.4929 34.5112 39.2735C34.5928 39.0467 34.6744 38.8199 34.7486 38.5932C34.8302 38.3591 34.9045 38.125 34.9861 37.891C35.0677 37.6496 35.1419 37.4082 35.2161 37.1595C35.2903 36.9108 35.3645 36.6621 35.4387 36.4134C35.5129 36.1573 35.5871 35.9013 35.6539 35.6453C35.7281 35.382 35.7949 35.1186 35.8617 34.8553C35.9285 34.5846 35.9953 34.314 36.0621 34.0433C36.0992 33.897 36.1288 33.7508 36.1659 33.6045C40.8558 32.595 44.5809 31.0955 47.0891 29.9105C47.6976 29.6252 48.128 29.0766 48.2615 28.4255C48.551 27.0284 48.7884 25.3533 48.8181 23.4587L48.8255 23.2759C48.8255 23.1003 48.8255 22.9248 48.8255 22.7419C48.8255 22.5663 48.8181 22.3981 48.8181 22.2225C48.8107 22.0543 48.8107 21.8861 48.7958 21.7178C48.7884 21.5496 48.781 21.3886 48.7662 21.2204C48.7587 21.0595 48.7439 20.8985 48.7291 20.7376C48.7142 20.584 48.6994 20.4231 48.6845 20.2622C48.6697 20.1085 48.6474 19.9549 48.6326 19.8013C48.6177 19.655 48.5955 19.5014 48.5732 19.3551C48.551 19.2088 48.5287 19.0698 48.5064 18.9235C48.4842 18.7846 48.4619 18.6456 48.4396 18.5066C48.4174 18.3676 48.3951 18.2359 48.3654 18.1043C48.358 18.0458 48.3432 17.9872 48.3358 17.9287C48.3209 17.8556 48.3061 17.7824 48.2912 17.7093C48.2764 17.6361 48.2616 17.563 48.2467 17.4898V17.4825C48.1799 17.2631 48.0538 16.9924 47.8386 16.7364C47.6827 16.5535 47.5121 16.4145 47.3562 16.3048H47.3488C47.282 16.2682 47.2152 16.239 47.1485 16.2097C47.0743 16.1732 46.9926 16.1366 46.9184 16.1C46.8739 16.0781 46.8294 16.0561 46.7849 16.0415L50.8068 9.81654ZM31.7804 36.9035L31.7433 36.9766C31.6839 37.1083 31.6097 37.2326 31.5355 37.3643C31.5355 37.3643 31.5355 37.3643 31.5281 37.3643C30.4595 38.9955 28.686 40.1439 26.7418 40.5024C26.6676 40.517 26.5934 40.5243 26.5192 40.5389C26.4598 40.5463 26.4078 40.5536 26.3485 40.5609C26.3262 40.5609 26.304 40.5682 26.2817 40.5682C26.1259 40.5828 25.97 40.5975 25.8142 40.6048C25.7326 40.6121 25.6509 40.6121 25.5693 40.6121H25.3467C25.3022 40.6121 25.2651 40.6121 25.2205 40.6121C25.1834 40.6121 25.1389 40.6121 25.1018 40.6048C25.035 40.5975 24.9682 40.5975 24.894 40.5901C22.5417 40.3634 20.4343 38.6883 19.1431 36.6913C19.1356 36.684 19.1356 36.684 19.1356 36.6767L19.1208 36.6401L1.43749 9.502H7.33687C8.10862 9.50932 8.8952 9.67024 9.59274 9.96284C9.64468 9.98478 9.69663 10.0067 9.74857 10.0287C10.5352 10.3871 11.2253 10.9723 11.7447 11.7038L14.0822 15.1125C14.2084 14.7468 14.379 14.3371 14.6313 13.9202C14.713 13.7958 14.8317 13.6129 14.8465 13.6056C15.1508 13.1594 15.4773 12.8156 15.7667 12.545C16.8872 11.4112 18.4381 10.3432 20.2784 9.73608C21.9332 9.19478 26.2669 8.18533 30.7044 10.6212C32.0846 11.3819 33.2274 12.5523 34.0362 13.73C34.0437 13.7373 34.0511 13.7519 34.0659 13.7666L34.0733 13.7739C34.4147 14.242 34.7783 14.8199 35.0974 15.5002C35.1568 15.6245 35.2087 15.7562 35.2681 15.8879C35.4239 16.2609 35.5426 16.612 35.6465 16.9485L39.1936 11.7111C39.713 10.9723 40.4031 10.3871 41.1897 10.0287C41.2417 10.0067 41.2936 9.98478 41.3455 9.96284C42.0505 9.67024 42.8297 9.50932 43.6014 9.502H49.5082L31.7804 36.9035Z" fill="#06631B" fill-opacity="0.75"/>
<path d="M31.2317 31.7462C31.0536 32.4118 30.7419 32.9531 30.3932 33.3847C29.703 34.2332 28.7161 34.7891 27.6327 35.0159C25.9259 35.3743 22.6757 35.7108 19.4997 34.0357C18.6908 33.6114 17.0064 32.6971 15.7894 30.7513C13.6819 27.3938 14.6837 23.7437 14.8989 23.0195C15.448 24.2777 16.6279 26.4356 19.0173 28.0229C19.7743 28.5203 22.839 29.9906 25.6885 29.559C26.2747 29.4712 27.462 29.0323 27.6995 27.8985C27.8776 27.0646 27.3952 26.1942 27.2097 25.9528C27.5659 26.004 29.1984 26.26 30.356 27.7157C30.5267 27.9351 31.8031 29.5956 31.2317 31.7462Z" fill="url(#paint1_linear_2002_2983)"/>
<path d="M31.2317 31.7462C31.0536 32.4118 30.7419 32.9531 30.3932 33.3847C29.703 34.2332 28.7161 34.7891 27.6327 35.0159C25.9259 35.3743 22.6757 35.7108 19.4997 34.0357C18.6908 33.6114 17.0064 32.6971 15.7894 30.7513C13.6819 27.3938 14.6837 23.7437 14.8989 23.0195C15.448 24.2777 16.6279 26.4356 19.0173 28.0229C19.7743 28.5203 22.839 29.9906 25.6885 29.559C26.2747 29.4712 27.462 29.0323 27.6995 27.8985C27.8776 27.0646 27.3952 26.1942 27.2097 25.9528C27.5659 26.004 29.1984 26.26 30.356 27.7157C30.5267 27.9351 31.8031 29.5956 31.2317 31.7462Z" fill="#06631B" fill-opacity="0.75"/>
<path d="M23.1646 16.6249C23.0532 16.4567 22.66 16.5152 22.2667 16.7566C21.8808 16.9906 21.6507 17.3271 21.7621 17.4954C21.8734 17.6636 22.2667 17.6051 22.6525 17.371C23.0458 17.1223 23.2759 16.7931 23.1646 16.6249ZM35.9428 18.8632C35.8538 18.7096 35.7499 18.556 35.646 18.3951C35.6163 18.3585 35.5867 18.3146 35.557 18.2707C35.5273 18.2195 35.4902 18.1683 35.4457 18.1171C35.4308 18.0952 35.4086 18.0659 35.3937 18.044C35.3121 17.9343 35.2305 17.8172 35.134 17.7075C35.0672 17.6197 34.993 17.5319 34.9188 17.4442C34.8001 17.2979 34.6813 17.1662 34.5626 17.0418C34.5626 17.0345 34.5626 17.0345 34.5626 17.0272C34.5181 16.8663 34.4661 16.7054 34.4142 16.5371C34.4068 16.5225 34.4068 16.5005 34.3994 16.4859C34.3919 16.4786 34.3919 16.464 34.3919 16.4567C34.3548 16.3469 34.3177 16.2372 34.2732 16.1348C34.2658 16.1129 34.2584 16.0982 34.251 16.0763V16.069C34.199 15.93 34.1396 15.7983 34.0951 15.6667C34.0951 15.6667 34.0951 15.6593 34.0877 15.652C34.0061 15.4765 33.9244 15.3082 33.8428 15.1619C33.1601 13.8891 31.958 12.353 30.2735 11.4313C26.1551 9.17106 22.1257 10.1074 20.5896 10.6121C19.5285 10.9632 18.5712 11.4752 17.7549 12.0677C17.6807 12.1263 17.5991 12.1775 17.5249 12.236C17.5026 12.2506 17.4804 12.2652 17.4581 12.2799C17.1168 12.5359 16.6938 12.9089 16.2782 13.399C16.256 13.4283 16.2337 13.4502 16.2114 13.4795C16.1818 13.5088 16.1595 13.5453 16.1298 13.5819C16.115 13.5965 16.1001 13.6185 16.0927 13.6331C16.0927 13.6331 16.0927 13.6404 16.0853 13.6404C16.0704 13.6551 16.063 13.6697 16.0482 13.6843C16.0037 13.7428 15.9591 13.8087 15.9072 13.8745C15.8924 13.8965 15.8775 13.9111 15.8701 13.933C15.8478 13.9623 15.833 13.9915 15.8107 14.0208C15.8033 14.0281 15.7959 14.0428 15.7885 14.0501C15.7736 14.072 15.7588 14.0866 15.7439 14.1086C15.7217 14.1452 15.6994 14.1817 15.6772 14.2183C15.6104 14.328 15.5436 14.4378 15.4694 14.5621C15.4694 14.5694 15.462 14.5694 15.462 14.5767C15.462 14.5841 15.4545 14.5841 15.4545 14.5914C15.4471 14.606 15.4397 14.6206 15.4323 14.6353C15.4249 14.6499 15.4174 14.6645 15.41 14.6791C15.3952 14.7011 15.3877 14.7157 15.3803 14.7377C15.321 14.8474 15.269 14.9571 15.2171 15.0668C15.039 15.4545 14.9128 15.8276 14.8164 16.1567C14.7718 16.3177 14.7347 16.464 14.7051 16.6103C14.668 16.7931 14.6383 16.9614 14.616 17.115C14.616 17.1223 14.616 17.1296 14.616 17.1443C14.5641 17.627 14.5566 18.1171 14.616 18.6145C14.7347 19.7191 15.1206 20.6188 15.5065 21.2845C15.7662 21.0943 16.0779 20.9992 16.8793 20.5749C17.1019 20.4579 17.6585 20.2019 17.8959 20.0775C17.7475 19.6752 17.8959 19.2217 18.2373 18.951C18.6009 18.6584 18.9867 18.3219 19.3875 17.9343C19.7882 17.5393 20.1369 17.1443 20.4338 16.7712C20.8642 16.2299 21.4059 15.7837 22.0292 15.4838C22.0366 15.4838 22.0366 15.4765 22.044 15.4765C22.6674 15.1692 23.2388 15.0449 23.6321 14.9864C24.5967 14.8035 28.5371 14.1378 32.4403 16.4786C35.4011 18.2561 36.7443 20.7944 37.2192 21.8184C36.9892 21.0065 36.6107 19.9605 35.9428 18.8632ZM36.1209 25.4466C35.6905 23.2522 34.4513 21.8258 33.8502 21.2259C31.5127 18.8852 28.5371 18.7169 27.8247 18.6877C28.3145 18.5926 28.871 18.5194 29.4721 18.4756C30.3774 18.417 31.1937 18.4536 31.8838 18.5341C31.1046 18.2634 29.6205 17.8611 27.8024 18.1464C27.654 18.1683 27.5056 18.1976 27.3646 18.2269C26.4593 18.417 25.6134 18.8047 24.8416 19.3168C23.4985 20.2092 22.2963 20.5969 21.532 20.7797C21.532 20.7797 19.4542 21.2771 18.3634 20.6188C18.3115 20.5896 18.2595 20.5822 18.1556 20.4652C17.7252 20.7066 17.3171 20.9626 16.8719 21.2186C16.5379 21.4088 16.1447 21.6209 15.8107 21.7746C16.0111 22.0598 16.1892 22.2793 16.3079 22.4183C18.2076 24.7005 20.9087 25.1613 22.237 25.3881C24.1218 25.71 25.7692 25.5271 26.9639 25.2564C29.2643 25.3808 31.2604 26.756 32.0767 28.7529C33.0562 31.1815 31.817 33.3686 31.6537 33.6466C32.2103 33.4271 34.6146 32.425 35.7425 29.8428C36.5884 27.9337 36.2694 26.1927 36.1209 25.4466ZM16.0111 21.1747C15.8404 21.2186 15.6623 21.2845 15.5139 21.2918C15.6104 21.46 15.7143 21.6136 15.8033 21.7453C15.8775 21.6575 16.0037 21.5332 16.1001 21.4454C16.1966 21.3576 16.7902 20.9114 16.8719 20.8602C16.8348 20.8821 16.2634 21.1162 16.0111 21.1747Z" fill="url(#paint2_linear_2002_2983)"/>
<path d="M23.1646 16.6249C23.0532 16.4567 22.66 16.5152 22.2667 16.7566C21.8808 16.9906 21.6507 17.3271 21.7621 17.4954C21.8734 17.6636 22.2667 17.6051 22.6525 17.371C23.0458 17.1223 23.2759 16.7931 23.1646 16.6249ZM35.9428 18.8632C35.8538 18.7096 35.7499 18.556 35.646 18.3951C35.6163 18.3585 35.5867 18.3146 35.557 18.2707C35.5273 18.2195 35.4902 18.1683 35.4457 18.1171C35.4308 18.0952 35.4086 18.0659 35.3937 18.044C35.3121 17.9343 35.2305 17.8172 35.134 17.7075C35.0672 17.6197 34.993 17.5319 34.9188 17.4442C34.8001 17.2979 34.6813 17.1662 34.5626 17.0418C34.5626 17.0345 34.5626 17.0345 34.5626 17.0272C34.5181 16.8663 34.4661 16.7054 34.4142 16.5371C34.4068 16.5225 34.4068 16.5005 34.3994 16.4859C34.3919 16.4786 34.3919 16.464 34.3919 16.4567C34.3548 16.3469 34.3177 16.2372 34.2732 16.1348C34.2658 16.1129 34.2584 16.0982 34.251 16.0763V16.069C34.199 15.93 34.1396 15.7983 34.0951 15.6667C34.0951 15.6667 34.0951 15.6593 34.0877 15.652C34.0061 15.4765 33.9244 15.3082 33.8428 15.1619C33.1601 13.8891 31.958 12.353 30.2735 11.4313C26.1551 9.17106 22.1257 10.1074 20.5896 10.6121C19.5285 10.9632 18.5712 11.4752 17.7549 12.0677C17.6807 12.1263 17.5991 12.1775 17.5249 12.236C17.5026 12.2506 17.4804 12.2652 17.4581 12.2799C17.1168 12.5359 16.6938 12.9089 16.2782 13.399C16.256 13.4283 16.2337 13.4502 16.2114 13.4795C16.1818 13.5088 16.1595 13.5453 16.1298 13.5819C16.115 13.5965 16.1001 13.6185 16.0927 13.6331C16.0927 13.6331 16.0927 13.6404 16.0853 13.6404C16.0704 13.6551 16.063 13.6697 16.0482 13.6843C16.0037 13.7428 15.9591 13.8087 15.9072 13.8745C15.8924 13.8965 15.8775 13.9111 15.8701 13.933C15.8478 13.9623 15.833 13.9915 15.8107 14.0208C15.8033 14.0281 15.7959 14.0428 15.7885 14.0501C15.7736 14.072 15.7588 14.0866 15.7439 14.1086C15.7217 14.1452 15.6994 14.1817 15.6772 14.2183C15.6104 14.328 15.5436 14.4378 15.4694 14.5621C15.4694 14.5694 15.462 14.5694 15.462 14.5767C15.462 14.5841 15.4545 14.5841 15.4545 14.5914C15.4471 14.606 15.4397 14.6206 15.4323 14.6353C15.4249 14.6499 15.4174 14.6645 15.41 14.6791C15.3952 14.7011 15.3877 14.7157 15.3803 14.7377C15.321 14.8474 15.269 14.9571 15.2171 15.0668C15.039 15.4545 14.9128 15.8276 14.8164 16.1567C14.7718 16.3177 14.7347 16.464 14.7051 16.6103C14.668 16.7931 14.6383 16.9614 14.616 17.115C14.616 17.1223 14.616 17.1296 14.616 17.1443C14.5641 17.627 14.5566 18.1171 14.616 18.6145C14.7347 19.7191 15.1206 20.6188 15.5065 21.2845C15.7662 21.0943 16.0779 20.9992 16.8793 20.5749C17.1019 20.4579 17.6585 20.2019 17.8959 20.0775C17.7475 19.6752 17.8959 19.2217 18.2373 18.951C18.6009 18.6584 18.9867 18.3219 19.3875 17.9343C19.7882 17.5393 20.1369 17.1443 20.4338 16.7712C20.8642 16.2299 21.4059 15.7837 22.0292 15.4838C22.0366 15.4838 22.0366 15.4765 22.044 15.4765C22.6674 15.1692 23.2388 15.0449 23.6321 14.9864C24.5967 14.8035 28.5371 14.1378 32.4403 16.4786C35.4011 18.2561 36.7443 20.7944 37.2192 21.8184C36.9892 21.0065 36.6107 19.9605 35.9428 18.8632ZM36.1209 25.4466C35.6905 23.2522 34.4513 21.8258 33.8502 21.2259C31.5127 18.8852 28.5371 18.7169 27.8247 18.6877C28.3145 18.5926 28.871 18.5194 29.4721 18.4756C30.3774 18.417 31.1937 18.4536 31.8838 18.5341C31.1046 18.2634 29.6205 17.8611 27.8024 18.1464C27.654 18.1683 27.5056 18.1976 27.3646 18.2269C26.4593 18.417 25.6134 18.8047 24.8416 19.3168C23.4985 20.2092 22.2963 20.5969 21.532 20.7797C21.532 20.7797 19.4542 21.2771 18.3634 20.6188C18.3115 20.5896 18.2595 20.5822 18.1556 20.4652C17.7252 20.7066 17.3171 20.9626 16.8719 21.2186C16.5379 21.4088 16.1447 21.6209 15.8107 21.7746C16.0111 22.0598 16.1892 22.2793 16.3079 22.4183C18.2076 24.7005 20.9087 25.1613 22.237 25.3881C24.1218 25.71 25.7692 25.5271 26.9639 25.2564C29.2643 25.3808 31.2604 26.756 32.0767 28.7529C33.0562 31.1815 31.817 33.3686 31.6537 33.6466C32.2103 33.4271 34.6146 32.425 35.7425 29.8428C36.5884 27.9337 36.2694 26.1927 36.1209 25.4466ZM16.0111 21.1747C15.8404 21.2186 15.6623 21.2845 15.5139 21.2918C15.6104 21.46 15.7143 21.6136 15.8033 21.7453C15.8775 21.6575 16.0037 21.5332 16.1001 21.4454C16.1966 21.3576 16.7902 20.9114 16.8719 20.8602C16.8348 20.8821 16.2634 21.1162 16.0111 21.1747Z" fill="#06631B" fill-opacity="0.75"/>
<path d="M15.4691 14.5586C15.4469 14.6025 15.4246 14.6391 15.4023 14.6829C15.4172 14.6537 15.432 14.6244 15.4543 14.5879C15.4543 14.5732 15.4617 14.5659 15.4691 14.5586Z" fill="url(#paint3_linear_2002_2983)"/>
<path d="M15.4691 14.5586C15.4469 14.6025 15.4246 14.6391 15.4023 14.6829C15.4172 14.6537 15.432 14.6244 15.4543 14.5879C15.4543 14.5732 15.4617 14.5659 15.4691 14.5586Z" fill="#06631B" fill-opacity="0.75"/>
<path d="M15.9074 13.8672C15.8555 13.9477 15.7961 14.0208 15.7441 14.1013C15.7961 14.0208 15.8555 13.9403 15.9074 13.8672Z" fill="url(#paint4_linear_2002_2983)"/>
<path d="M15.9074 13.8672C15.8555 13.9477 15.7961 14.0208 15.7441 14.1013C15.7961 14.0208 15.8555 13.9403 15.9074 13.8672Z" fill="#06631B" fill-opacity="0.75"/>
<path d="M16.2043 13.4746C16.1523 13.5404 16.1004 13.6136 16.041 13.6794C16.1004 13.6063 16.1523 13.5331 16.2043 13.4746Z" fill="url(#paint5_linear_2002_2983)"/>
<path d="M16.2043 13.4746C16.1523 13.5404 16.1004 13.6136 16.041 13.6794C16.1004 13.6063 16.1523 13.5331 16.2043 13.4746Z" fill="#06631B" fill-opacity="0.75"/>
<defs>
<linearGradient id="paint0_linear_2002_2983" x1="7.60528" y1="-3.21182" x2="39.4643" y2="52.398" gradientUnits="userSpaceOnUse">
<stop offset="0.5901" stop-color="white"/>
</linearGradient>
<linearGradient id="paint1_linear_2002_2983" x1="16.9949" y1="22.1622" x2="24.4923" y2="38.4212" gradientUnits="userSpaceOnUse">
<stop offset="0.5901" stop-color="white"/>
</linearGradient>
<linearGradient id="paint2_linear_2002_2983" x1="17.9528" y1="8.33359" x2="35.4351" y2="34.7088" gradientUnits="userSpaceOnUse">
<stop offset="0.5901" stop-color="white"/>
</linearGradient>
<linearGradient id="paint3_linear_2002_2983" x1="15.4123" y1="14.5499" x2="15.5107" y2="14.6332" gradientUnits="userSpaceOnUse">
<stop offset="0.5901" stop-color="white"/>
</linearGradient>
<linearGradient id="paint4_linear_2002_2983" x1="15.7685" y1="13.8509" x2="15.9554" y2="14.0564" gradientUnits="userSpaceOnUse">
<stop offset="0.5901" stop-color="white"/>
</linearGradient>
<linearGradient id="paint5_linear_2002_2983" x1="16.0654" y1="13.4603" x2="16.2255" y2="13.6615" gradientUnits="userSpaceOnUse">
<stop offset="0.5901" stop-color="white"/>
</linearGradient>
</defs>
</svg>
