<svg width="56" height="111" viewBox="0 0 56 111" fill="none" xmlns="http://www.w3.org/2000/svg">
<path opacity="0.06" fill-rule="evenodd" clip-rule="evenodd" d="M22.1428 87.6645C24.2602 88.714 26.5418 86.9674 27.4248 84.558C28.3939 81.9879 27.6593 79.3801 25.6655 78.3603C23.6065 77.3003 21.4127 78.63 20.5403 81.0514C19.6062 83.3697 20.0735 86.6167 22.1428 87.6645ZM30.0543 91.624C29.7613 90.5524 29.1108 89.6692 28.2255 89.1324C26.2741 87.9598 24.0492 88.9008 22.9368 91.3617C21.8645 93.6528 22.1805 96.8196 24.2077 98.0444C26.2306 99.2596 28.6877 97.7064 29.6763 95.4164C30.2469 94.1592 30.3776 92.8112 30.0543 91.624ZM14.83 84.9544C13.9521 84.7414 13.2123 84.1301 12.6953 83.2162C10.7591 79.8101 12.8316 74.0855 16.6345 75.0134C20.3014 75.9311 20.3279 81.4945 17.8174 83.9669C16.9378 84.8367 15.8524 85.1969 14.83 84.9544ZM17.7298 88.9347C13.9059 87.5818 7.8249 95.4241 6.78354 98.5051C5.59187 102.855 9.44561 104.476 13.1101 105.778L13.1164 105.78C13.4033 105.879 13.6876 105.981 13.969 106.082C16.3758 106.944 18.5697 107.73 20.3924 106.422C21.054 105.913 21.5352 105.128 21.8257 104.08C22.5234 100.912 21.5023 90.373 17.7298 88.9347ZM12.1581 87.4304C11.9709 88.9821 11.3054 90.3566 10.3274 91.206C9.55866 91.8761 8.64606 92.1639 7.76259 92.0211C5.49941 91.6478 4.27888 88.7396 4.6339 86.2067C4.80995 84.7953 5.37494 83.6082 6.23484 82.8595C7.01187 82.1845 7.98717 81.8959 8.97537 82.0615C11.1547 82.4117 12.4921 84.673 12.1581 87.4304Z" fill="#04A427"/>
<path opacity="0.06" fill-rule="evenodd" clip-rule="evenodd" d="M37.4812 16.2586C39.9497 15.2464 40.69 11.7524 39.8201 8.95245C38.9149 5.94148 36.5617 4.41901 34.2162 5.34583C31.7895 6.29721 30.8444 9.36475 31.7311 12.1652C32.4976 14.9346 35.054 17.2294 37.4812 16.2586ZM46.7303 12.5077C45.7708 11.874 44.6384 11.7167 43.5409 12.0582C41.1289 12.8196 39.8985 15.5902 40.6111 18.6377C41.2441 21.5076 43.6206 23.8705 46.1307 23.0851C48.6308 22.2955 49.6467 18.8065 48.9447 16.0121C48.5825 14.4532 47.7924 13.2108 46.7303 12.5077ZM29.5646 20.5185C28.6893 21.1237 27.6637 21.2731 26.6222 20.9711C22.733 19.8536 20.6449 13.224 24.4399 10.6066C28.1145 8.10186 31.8481 12.7246 31.4008 17.0289C31.2464 18.54 30.5803 19.8089 29.5646 20.5185ZM34.6432 21.252C30.547 23.5331 30.7002 35.5072 31.8859 39.0094C33.7923 43.7049 38.0921 41.6209 42.0211 39.4394L42.0279 39.4357C42.334 39.263 42.6392 39.0944 42.9414 38.9276L42.9415 38.9276C45.5266 37.5004 47.8829 36.1995 48.5328 33.4815C48.7457 32.466 48.6241 31.3814 48.1676 30.247C46.6366 26.9786 38.7533 19.088 34.6432 21.252ZM28.9871 24.9687C29.8659 26.4317 30.2271 28.1733 29.9769 29.7551C29.7819 31.0005 29.2117 32.0549 28.3786 32.7237C26.2395 34.4308 23.2801 33.0908 21.8868 30.6587C21.0923 29.3229 20.7722 27.8275 20.9909 26.4352C21.1895 25.1783 21.8115 24.0672 22.7473 23.324C24.8011 21.6725 27.4265 22.368 28.9871 24.9687Z" fill="#04A427"/>
</svg>
