<svg width="96" height="118" viewBox="0 0 96 118" fill="none" xmlns="http://www.w3.org/2000/svg">
<path opacity="0.06" fill-rule="evenodd" clip-rule="evenodd" d="M29.5916 20.9168C32.4581 22.2679 35.547 20.0195 36.7424 16.9178C38.0544 13.6093 37.0598 10.2525 34.3606 8.93968C31.5732 7.57512 28.6031 9.28685 27.4221 12.4039C26.1576 15.3882 26.7902 19.5679 29.5916 20.9168ZM40.3011 26.0177C39.9046 24.6383 39.0239 23.5014 37.8254 22.8104C35.1835 21.3009 32.1714 22.5122 30.6655 25.6801C29.2138 28.6294 29.6416 32.706 32.386 34.2827C35.1246 35.847 38.451 33.8476 39.7895 30.8997C40.5619 29.2813 40.7389 27.546 40.3011 26.0177ZM19.6914 17.4309C18.5028 17.1567 17.5013 16.3699 16.8013 15.1934C14.1801 10.8087 16.9859 3.43962 22.1343 4.63409C27.0986 5.81534 27.1345 12.9771 23.7357 16.1597C22.5449 17.2794 21.0755 17.7431 19.6914 17.4309ZM23.6181 22.553C18.4413 20.8113 10.2088 30.9066 8.79898 34.8728C7.18568 40.472 12.4029 42.5585 17.364 44.2345L17.3725 44.2375C17.7607 44.3657 18.1453 44.4966 18.526 44.6263L18.5267 44.6265C21.785 45.736 24.7551 46.7474 27.2227 45.064C28.1184 44.4086 28.7699 43.3984 29.1632 42.0493C30.1077 37.9708 28.7253 24.4045 23.6181 22.553ZM16.0738 20.6188C15.8204 22.6164 14.9194 24.3858 13.5953 25.4792C12.5546 26.3418 11.3192 26.7122 10.1231 26.5284C7.05919 26.0478 5.40684 22.3042 5.88746 19.0436C6.1258 17.2267 6.89068 15.6987 8.05482 14.7349C9.10678 13.8659 10.4271 13.4943 11.765 13.7075C14.7154 14.1584 16.5259 17.0693 16.0738 20.6188Z" fill="#04A427"/>
<path opacity="0.06" fill-rule="evenodd" clip-rule="evenodd" d="M76.9401 86.5629C79.5304 85.553 80.3072 82.0669 79.3944 79.2733C78.4446 76.2691 75.9753 74.75 73.5142 75.6748C70.9679 76.624 69.9761 79.6846 70.9066 82.4788C71.7109 85.2419 74.3933 87.5316 76.9401 86.5629ZM86.6443 82.8203C85.6375 82.188 84.4492 82.0311 83.2976 82.3718C80.7667 83.1315 79.4756 85.8959 80.2234 88.9365C80.8876 91.8 83.3813 94.1575 86.0151 93.3739C88.6385 92.586 89.7045 89.105 88.9679 86.3168C88.5878 84.7614 87.7587 83.5218 86.6443 82.8203ZM68.6322 90.8122C67.7138 91.4161 66.6376 91.5652 65.5448 91.2638C61.4637 90.1489 59.2727 83.5342 63.2548 80.9227C67.1107 78.4236 71.0283 83.0359 70.5589 87.3306C70.397 88.8382 69.698 90.1043 68.6322 90.8122ZM73.9612 91.5486C69.6631 93.8245 69.8238 105.772 71.0679 109.266C73.0684 113.951 77.5801 111.872 81.7029 109.695L81.71 109.691C82.0311 109.519 82.3515 109.351 82.6685 109.184L82.6687 109.184C85.3812 107.76 87.8537 106.462 88.5356 103.75C88.759 102.737 88.6314 101.655 88.1524 100.523C86.546 97.2622 78.274 89.3894 73.9612 91.5486ZM68.0253 95.2554C68.9475 96.7151 69.3264 98.4527 69.0639 100.031C68.8594 101.274 68.2611 102.326 67.3869 102.993C65.1422 104.696 62.0369 103.359 60.575 100.933C59.7413 99.5997 59.4054 98.1078 59.6349 96.7185C59.8433 95.4644 60.496 94.3559 61.4779 93.6144C63.6329 91.9666 66.3878 92.6605 68.0253 95.2554Z" fill="#04A427"/>
</svg>
