<svg width="176" height="153" viewBox="0 0 176 153" fill="none" xmlns="http://www.w3.org/2000/svg">
<path opacity="0.06" fill-rule="evenodd" clip-rule="evenodd" d="M46.8448 33.4552C51.3292 35.6781 56.1616 31.9789 58.0316 26.8759C60.0842 21.4325 58.5282 15.9096 54.3055 13.7497C49.9448 11.5046 45.2984 14.3209 43.4507 19.4492C41.4725 24.3592 42.4622 31.236 46.8448 33.4552ZM63.6006 41.8408C62.9803 39.5712 61.6025 37.7008 59.7274 36.5639C55.5945 34.0803 50.8823 36.0733 48.5264 41.2852C46.2554 46.1377 46.9246 52.8447 51.218 55.4388C55.5024 58.0125 60.7063 54.723 62.8002 49.8729C64.0086 47.2102 64.2854 44.3552 63.6006 41.8408ZM31.3557 27.7159C29.4964 27.2647 27.9296 25.9702 26.8345 24.0345C22.7338 16.8206 27.1232 4.69651 35.1774 6.66172C42.9438 8.6052 42.9999 20.3882 37.6827 25.6245C35.8198 27.4666 33.5211 28.2295 31.3557 27.7159ZM37.4999 36.1429C29.4012 33.2774 16.522 49.8869 14.3164 56.4123C11.7926 65.6244 19.9545 69.0573 27.7157 71.8147L27.729 71.8197C28.3367 72.0307 28.9388 72.2463 29.5346 72.4597C34.6321 74.2851 39.2786 75.9491 43.1389 73.1795C44.5403 72.1011 45.5595 70.4392 46.1747 68.2196C47.6524 61.5093 45.4897 39.1891 37.4999 36.1429ZM25.6983 32.9607C25.3018 36.2472 23.8923 39.1583 21.8209 40.9572C20.1928 42.3765 18.26 42.9859 16.3889 42.6834C11.5956 41.8928 9.01064 35.7335 9.76254 30.3691C10.1354 27.3797 11.332 24.8657 13.1532 23.28C14.7989 21.8502 16.8645 21.239 18.9575 21.5897C23.5732 22.3315 26.4056 27.1207 25.6983 32.9607Z" fill="#04A427"/>
<path opacity="0.06" fill-rule="evenodd" clip-rule="evenodd" d="M146.618 103.609C150.563 101.991 151.746 96.4076 150.356 91.9333C148.91 87.1217 145.149 84.6888 141.401 86.1699C137.523 87.6902 136.013 92.5922 137.43 97.0673C138.655 101.493 142.74 105.16 146.618 103.609ZM161.398 97.617C159.865 96.6044 158.055 96.3531 156.301 96.8988C152.447 98.1155 150.481 102.543 151.619 107.413C152.631 111.999 156.429 115.775 160.44 114.52C164.435 113.258 166.058 107.683 164.937 103.217C164.358 100.726 163.095 98.7406 161.398 97.617ZM133.968 110.417C132.57 111.384 130.931 111.623 129.266 111.14C123.051 109.354 119.715 98.7599 125.779 94.5772C131.651 90.5747 137.618 97.9619 136.903 104.84C136.656 107.255 135.592 109.283 133.968 110.417ZM142.084 111.594C135.538 115.239 135.782 134.374 137.677 139.97C140.724 147.474 147.595 144.143 153.874 140.657L153.884 140.651C154.374 140.375 154.861 140.106 155.344 139.839C159.475 137.559 163.241 135.48 164.279 131.136C164.62 129.514 164.425 127.781 163.696 125.968C161.249 120.745 148.652 108.135 142.084 111.594ZM133.043 117.53C134.448 119.868 135.025 122.651 134.625 125.179C134.314 127.169 133.402 128.854 132.071 129.923C128.653 132.651 123.923 130.51 121.697 126.623C120.427 124.489 119.916 122.099 120.265 119.874C120.583 117.865 121.577 116.09 123.072 114.902C126.354 112.263 130.55 113.374 133.043 117.53Z" fill="#04A427"/>
</svg>
