<svg width="338" height="244" viewBox="0 0 338 244" fill="none" xmlns="http://www.w3.org/2000/svg">
<path opacity="0.05" fill-rule="evenodd" clip-rule="evenodd" d="M70.4146 48.3975C77.2822 51.6345 84.6826 46.2478 87.5464 38.8169C90.6898 30.8904 88.3069 22.848 81.8402 19.7028C75.1621 16.4336 68.0464 20.5346 65.2168 28.0024C62.1873 35.1521 63.7029 45.166 70.4146 48.3975ZM96.0753 60.6067C95.1253 57.3018 93.0153 54.5781 90.1438 52.9227C83.8146 49.3061 76.5981 52.2083 72.9902 59.7978C69.5124 66.8638 70.5373 76.6305 77.1123 80.4079C83.6735 84.1556 91.6428 79.3655 94.8495 72.3029C96.7001 68.4255 97.124 64.2682 96.0753 60.6067ZM46.6944 40.0387C43.847 39.3817 41.4476 37.4966 39.7705 34.678C33.4907 24.1733 40.2126 6.5184 52.5471 9.3801C64.4407 12.2101 64.5266 29.3683 56.3838 36.9932C53.5309 39.6758 50.0106 40.7866 46.6944 40.0387ZM56.1043 52.3128C43.7017 48.1401 23.9782 72.3264 20.6007 81.8286C16.7355 95.243 29.2349 100.242 41.1206 104.257L41.141 104.264C42.0716 104.572 42.9936 104.886 43.9062 105.196C51.7125 107.855 58.8283 110.278 64.7401 106.245C66.8862 104.674 68.447 102.254 69.3891 99.0221C71.6521 89.2508 68.3402 56.7486 56.1043 52.3128ZM38.0301 47.6771C37.4229 52.4629 35.2644 56.7019 32.0922 59.3215C29.5989 61.3882 26.6389 62.2757 23.7734 61.8351C16.4329 60.6839 12.4742 51.7149 13.6257 43.9033C14.1967 39.5503 16.0292 35.8894 18.8182 33.5803C21.3385 31.4983 24.5018 30.6083 27.707 31.119C34.7756 32.1992 39.1132 39.1731 38.0301 47.6771Z" fill="white"/>
<path opacity="0.05" fill-rule="evenodd" clip-rule="evenodd" d="M293.5 172.296C299.541 169.941 301.352 161.81 299.223 155.295C297.008 148.288 291.249 144.746 285.509 146.902C279.571 149.116 277.258 156.254 279.428 162.771C281.304 169.215 287.56 174.555 293.5 172.296ZM316.132 163.57C313.784 162.095 311.013 161.729 308.327 162.524C302.424 164.295 299.413 170.743 301.157 177.834C302.706 184.513 308.522 190.011 314.665 188.183C320.783 186.346 323.269 178.227 321.551 171.724C320.665 168.097 318.731 165.206 316.132 163.57ZM274.127 182.211C271.985 183.62 269.475 183.967 266.926 183.264C257.408 180.664 252.298 165.237 261.586 159.146C270.578 153.318 279.715 164.075 278.62 174.091C278.243 177.607 276.613 180.56 274.127 182.211ZM286.556 183.923C276.532 189.231 276.906 217.095 279.808 225.244C284.474 236.171 294.996 231.322 304.611 226.245L304.628 226.237C305.377 225.835 306.124 225.442 306.864 225.054C313.19 221.733 318.957 218.706 320.547 212.381C321.068 210.018 320.771 207.494 319.653 204.855C315.907 197.249 296.614 178.888 286.556 183.923ZM272.711 192.568C274.862 195.973 275.745 200.025 275.133 203.706C274.656 206.604 273.261 209.058 271.222 210.614C265.987 214.587 258.744 211.468 255.335 205.809C253.39 202.701 252.607 199.221 253.142 195.981C253.628 193.056 255.15 190.471 257.441 188.741C262.467 184.898 268.892 186.517 272.711 192.568Z" fill="white"/>
</svg>
