<svg width="76" height="94" viewBox="0 0 76 94" fill="none" xmlns="http://www.w3.org/2000/svg">
<path opacity="0.06" fill-rule="evenodd" clip-rule="evenodd" d="M44.2001 28.4865C50.7721 25.924 52.7431 17.079 50.427 9.99109C48.0171 2.36887 41.7522 -1.48522 35.5079 0.860989C29.0473 3.2694 26.531 11.0348 28.8918 18.1241C30.9324 25.1346 37.7382 30.9441 44.2001 28.4865ZM68.8229 18.9922C66.2684 17.388 63.2535 16.9899 60.3317 17.8543C53.9102 19.7817 50.6345 26.7955 52.5318 34.5101C54.2169 41.7754 60.5439 47.757 67.2265 45.7688C73.8825 43.7698 76.5871 34.9376 74.7182 27.8635C73.7539 23.9171 71.6504 20.7721 68.8229 18.9922ZM23.1248 39.2721C20.7946 40.8043 18.0641 41.1825 15.2913 40.4179C4.93692 37.589 -0.622141 20.8063 9.48135 14.1804C19.2643 7.83978 29.2042 19.5421 28.0132 30.4384C27.6023 34.2636 25.8288 37.476 23.1248 39.2721ZM36.6474 41.1335C25.7423 46.9081 26.1499 77.2202 29.3066 86.0858C34.3821 97.9725 45.8294 92.6969 56.2896 87.1743L56.3077 87.1651C57.1226 86.7278 57.9354 86.3011 58.74 85.8787C65.6221 82.2659 71.8954 78.9728 73.6256 72.0921C74.1924 69.5215 73.8687 66.7758 72.6532 63.9041C68.5774 55.6302 47.5897 35.6553 36.6474 41.1335ZM21.5859 50.5413C23.9257 54.2447 24.8872 58.6535 24.2211 62.6578C23.7021 65.8105 22.1841 68.4797 19.966 70.1728C14.271 74.4942 6.39222 71.1021 2.68303 64.9454C0.567685 61.5638 -0.284374 57.7783 0.297842 54.2536C0.826558 51.0717 2.48248 48.2591 4.97382 46.3777C10.4415 42.1968 17.4312 43.9575 21.5859 50.5413Z" fill="#04A427"/>
</svg>
