<svg width="335" height="327" viewBox="0 0 335 327" fill="none" xmlns="http://www.w3.org/2000/svg">
<path opacity="0.06" fill-rule="evenodd" clip-rule="evenodd" d="M76.6034 250.651C84.0745 254.172 92.1252 248.312 95.2407 240.228C98.6603 231.605 96.068 222.856 89.0331 219.435C81.7681 215.878 74.0272 220.34 70.9489 228.463C67.6532 236.242 69.302 247.135 76.6034 250.651ZM104.518 263.934C103.485 260.339 101.189 257.376 98.0656 255.575C91.1801 251.64 83.3296 254.798 79.4046 263.054C75.6211 270.741 76.7361 281.366 83.8889 285.475C91.0266 289.552 99.6963 284.341 103.185 276.658C105.198 272.44 105.659 267.917 104.518 263.934ZM50.7985 241.558C47.7008 240.843 45.0906 238.792 43.2661 235.726C36.4344 224.298 43.7471 205.092 57.1655 208.205C70.1041 211.284 70.1977 229.95 61.3392 238.245C58.2356 241.163 54.406 242.371 50.7985 241.558ZM61.0362 254.91C47.5438 250.371 26.0871 276.683 22.4127 287.02C18.2079 301.613 31.8057 307.051 44.7358 311.419L44.758 311.427C45.7703 311.762 46.7732 312.103 47.7659 312.441L47.7662 312.441C56.2585 315.333 63.9995 317.969 70.4309 313.582C72.7655 311.873 74.4635 309.24 75.4884 305.724C77.9502 295.094 74.3473 259.736 61.0362 254.91ZM41.3721 249.866C40.7116 255.072 38.3634 259.684 34.9124 262.534C32.2 264.782 28.98 265.747 25.8627 265.268C17.8771 264.016 13.5705 254.259 14.8232 245.761C15.4444 241.025 17.4379 237.042 20.4721 234.53C23.2138 232.266 26.6551 231.297 30.1419 231.853C37.8317 233.028 42.5505 240.615 41.3721 249.866Z" fill="#04A427"/>
<path opacity="0.06" fill-rule="evenodd" clip-rule="evenodd" d="M286.2 39.4865C292.772 36.924 294.743 28.079 292.427 20.9911C290.017 13.3689 283.752 9.51478 277.508 11.861C271.047 14.2694 268.531 22.0348 270.892 29.1241C272.932 36.1346 279.738 41.9441 286.2 39.4865ZM310.823 29.9922C308.268 28.388 305.254 27.9899 302.332 28.8543C295.91 30.7817 292.634 37.7955 294.532 45.5101C296.217 52.7754 302.544 58.757 309.227 56.7688C315.883 54.7698 318.587 45.9376 316.718 38.8635C315.754 34.9171 313.65 31.7721 310.823 29.9922ZM265.125 50.2721C262.795 51.8043 260.064 52.1825 257.291 51.4179C246.937 48.589 241.378 31.8063 251.481 25.1804C261.264 18.8398 271.204 30.5421 270.013 41.4384C269.602 45.2636 267.829 48.476 265.125 50.2721ZM278.647 52.1335C267.742 57.9081 268.15 88.2202 271.307 97.0858C276.382 108.973 287.829 103.697 298.29 98.1743L298.308 98.1651C299.123 97.7278 299.935 97.3011 300.74 96.8787C307.622 93.2659 313.895 89.9728 315.626 83.0921C316.192 80.5215 315.869 77.7758 314.653 74.9041C310.577 66.6302 289.59 46.6553 278.647 52.1335ZM263.586 61.5413C265.926 65.2447 266.887 69.6535 266.221 73.6578C265.702 76.8105 264.184 79.4797 261.966 81.1728C256.271 85.4942 248.392 82.1021 244.683 75.9454C242.568 72.5638 241.716 68.7783 242.298 65.2536C242.827 62.0717 244.482 59.2591 246.974 57.3777C252.442 53.1968 259.431 54.9575 263.586 61.5413Z" fill="#04A427"/>
</svg>
