<svg width="65" height="59" viewBox="0 0 65 59" fill="none" xmlns="http://www.w3.org/2000/svg">
<path d="M18.3221 30.9887C18.8774 29.6291 19.4861 28.1076 19.2046 26.8208C19.0123 25.9419 18.2593 25.1486 17.4225 24.6308C17.1914 24.4879 16.9126 24.3446 16.5681 24.3521C16.4879 24.3539 16.3956 24.3618 16.3512 24.4344C16.1352 24.7868 16.3388 26.0315 16.3486 26.1302C16.6448 29.1094 16.9347 32.5706 19.2033 34.7723C19.6439 35.1999 20.7329 36.3001 21.642 36.2417C22.6478 36.1771 22.7773 34.301 22.5638 33.9582C21.9761 33.0147 19.0485 35.5208 18.5165 35.9905C18.4211 36.0747 18.3313 36.1622 18.2422 36.2498C18.0971 36.3927 18.1181 36.3821 18.3207 36.2604C19.4949 35.5549 20.6084 34.6913 21.6559 33.8831C23.4369 32.509 25.3313 31.08 26.8298 29.5225C27.1936 29.1444 27.3533 28.9009 27.2767 28.5311C27.1993 28.1578 26.1825 27.7514 26.0599 28.477C25.96 29.0675 26.1004 29.662 26.3239 30.1641C26.4446 30.4354 26.8821 31.0285 27.1098 30.7269C27.7529 29.8754 27.6627 28.3602 27.6808 27.5848C27.7091 26.372 27.5468 25.224 27.4069 24.0529C27.3404 23.4957 28.1744 24.8969 28.501 25.3514C29.8577 27.2389 31.3097 29.1155 32.3154 31.1812C32.7684 32.1117 33.2665 33.1149 31.5225 33.8706C29.9551 34.5498 27.9277 34.9052 26.353 34.9052C22.7742 34.9053 22.1355 32.6465 23.1584 30.083C24.2786 27.2755 25.9833 24.5046 27.2295 21.7056C28.195 19.5368 28.9954 17.3629 29.415 15.1947C29.522 14.6419 29.7592 13.1148 29.2798 13.6101C29.0405 13.8575 29.4312 14.1065 29.5334 14.3443C30.3095 16.1485 31.097 17.948 31.8984 19.7417C32.1113 20.2182 32.3266 20.6938 32.5442 21.1684C32.6473 21.3932 32.7406 21.6227 32.8606 21.84C32.8808 21.8765 32.9136 21.9582 32.9623 21.9253C33.1676 21.7867 33.217 20.5072 33.2283 20.4321C33.275 20.122 33.1786 18.0905 33.8825 19.4696C36.0429 23.7023 37.5617 28.3132 39.3094 32.7118C40.999 36.9644 43.0828 41.2625 44.0801 45.7827C44.2334 46.4777 44.431 47.0616 43.3055 47.2369C42.0127 47.4383 40.8084 47.1446 39.8183 46.7571C37.5102 45.854 36.9531 43.9936 37.1934 41.8233C37.3875 40.0712 38.0169 38.278 38.4276 36.5107C38.6484 35.5601 38.7318 34.6444 38.8567 33.7056" stroke="#04A427" stroke-width="0.434174" stroke-linecap="round"/>
<path d="M32.8671 24.5087C32.6161 24.1626 31.3087 22.7717 30.4247 23.4516C29.9493 23.8173 29.672 24.4983 29.4992 24.9336C29.1546 25.8015 29.339 26.6279 30.2028 27.0608C31.6237 27.7727 32.5904 24.8552 32.6018 24.8578C33.1551 24.9838 33.6069 25.5154 34.0332 24.8072C35.9625 21.6018 36.9583 17.9176 36.9546 14.7567C36.9535 13.796 36.7556 12.1621 35.288 11.9789C34.6769 11.9025 35.9238 12.7265 36.2809 13.0751C39.9962 16.7022 43.177 20.6616 46.6971 24.4118C47.273 25.0253 47.6909 24.9578 46.4608 25.5242C43.1929 27.029 39.8917 28.509 36.5404 29.8348C34.5733 30.613 31.8406 31.8165 29.7237 31.8141C28.6532 31.813 28.1005 31.2579 28.1472 30.4241C28.254 28.5213 29.7344 26.2552 30.7982 24.4178C32.0589 22.2404 33.5409 20.1053 34.7951 17.9283C35.2848 17.0784 35.6801 16.2483 35.7643 15.3923C35.8465 14.5569 35.6586 14.7263 35.8348 13.9168C36.3255 11.6633 37.6661 7.46215 41.5709 7.23469C42.3756 7.18782 43.1268 7.3349 43.8425 7.47781C44.1606 7.54132 44.6511 7.59213 44.8345 7.8134C45.2172 8.27525 44.476 9.63294 44.2931 10.0519C42.2552 14.7188 39.6216 19.3443 37.6806 24.0182C37.4615 24.5459 37.9594 24.5322 38.4063 24.7173C40.8588 25.7326 42.5107 27.7996 44.1468 29.4393C45.3868 30.6819 46.5907 31.9494 47.7505 33.2433C47.8611 33.3666 47.9674 33.4925 48.0758 33.6172C48.1952 33.7544 48.2537 33.9116 48.2435 33.648C47.9204 25.2612 47.8505 16.8111 47.2197 8.49187C47.0411 6.13676 46.7186 3.84655 46.4026 1.53122C46.3205 0.929324 46.5266 1.45359 46.6029 1.60973C47.7487 3.95344 48.2567 6.56422 49.272 8.96291C49.8283 10.2772 50.4446 11.4194 51.752 12.288C52.3389 12.6779 53.0156 12.9485 53.6513 13.2872C54.0677 13.509 53.5878 14.5524 53.5328 14.9127C53.2807 16.5637 53.3705 18.0065 53.7165 19.5172" stroke="#04A427" stroke-width="0.434174" stroke-linecap="round"/>
<path d="M53.6448 19.5654C53.2927 18.6865 54.0449 17.6131 54.5558 16.6842C54.7851 16.2672 55.1952 15.9862 55.5016 15.6033C55.5665 15.5221 55.5751 15.425 55.6858 15.3807" stroke="#04A427" stroke-width="0.434174" stroke-linecap="round"/>
<path d="M12.6309 32.5486C11.6953 31.5578 8.74053 33.0359 7.95124 33.9593C5.76314 36.5192 7.70163 39.275 9.25015 40.9241C11.4071 43.2212 14.7202 45.6226 18.8161 45.9862C19.5195 46.0487 20.4859 46.1478 21.2656 45.7096C22.0063 45.2933 22.1843 44.5853 22.3362 44.0389C22.8813 42.0788 22.3695 40.3666 21.6004 38.7434C21.181 37.8579 20.7184 36.8678 20.0447 36.101C19.8754 35.9084 19.7683 36.0925 19.5967 36.2547" stroke="#04A427" stroke-width="0.434174" stroke-linecap="round"/>
</svg>
