<svg width="46" height="58" viewBox="0 0 46 58" fill="none" xmlns="http://www.w3.org/2000/svg">
<path opacity="0.06" fill-rule="evenodd" clip-rule="evenodd" d="M31.3166 22.6965C35.0536 24.5489 39.0806 21.4662 40.639 17.2137C42.3495 12.6776 41.0528 8.07516 37.5339 6.27525C33.9 4.40436 30.0279 6.75124 28.4882 11.0248C26.8397 15.1165 27.6644 20.8472 31.3166 22.6965ZM45.2809 29.6848C44.764 27.7935 43.6158 26.2348 42.0533 25.2874C38.6092 23.2178 34.6823 24.8786 32.7191 29.2219C30.8266 33.2656 31.3843 38.8548 34.9621 41.0165C38.5324 43.1613 42.869 40.42 44.6139 36.3782C45.6209 34.1593 45.8516 31.7802 45.2809 29.6848ZM18.4098 17.9128C16.8604 17.5368 15.5548 16.458 14.6422 14.845C11.2249 8.83339 14.8827 -1.27005 21.5946 0.367631C28.0666 1.9872 28.1133 11.8064 23.6823 16.1699C22.1299 17.7051 20.2143 18.3407 18.4098 17.9128ZM23.5292 24.9363C16.7802 22.5483 6.04758 36.3896 4.20965 41.8274C2.10641 49.5042 8.90803 52.3649 15.3757 54.6628L15.3868 54.6669C15.8932 54.8427 16.3949 55.0224 16.8915 55.2002C21.1394 56.7214 25.0114 58.1081 28.2284 55.8001C29.3962 54.9015 30.2455 53.5165 30.7582 51.6668C31.9896 46.0749 30.1874 27.4748 23.5292 24.9363ZM13.6952 22.2834C13.3648 25.0222 12.1902 27.4481 10.464 28.9472C9.10727 30.1299 7.4966 30.6378 5.93733 30.3857C1.94295 29.7269 -0.211209 24.5941 0.415375 20.1238C0.726101 17.6327 1.72326 15.5376 3.24093 14.2162C4.61236 13.0247 6.33369 12.5154 8.07781 12.8076C11.9242 13.4258 14.2846 17.4168 13.6952 22.2834Z" fill="#04A427"/>
</svg>
