<svg width="87" height="68" viewBox="0 0 87 68" fill="none" xmlns="http://www.w3.org/2000/svg">
<path opacity="0.06" fill-rule="evenodd" clip-rule="evenodd" d="M28.7171 19.7375C31.5179 21.0576 34.5359 18.8608 35.7038 15.8303C36.9857 12.5978 36.0139 9.31796 33.3767 8.03529C30.6532 6.70205 27.7513 8.3745 26.5974 11.42C25.3619 14.3358 25.98 18.4196 28.7171 19.7375ZM39.1808 24.7169C38.7933 23.3691 37.9329 22.2583 36.7618 21.5832C34.1806 20.1083 31.2376 21.2918 29.7662 24.3869C28.3479 27.2686 28.7659 31.2516 31.4473 32.7921C34.1231 34.3205 37.3731 32.367 38.6809 29.4868C39.4356 27.9055 39.6085 26.2101 39.1808 24.7169ZM19.0433 16.3299C17.8821 16.062 16.9035 15.2932 16.2196 14.1438C13.6586 9.85974 16.3999 2.65975 21.4301 3.8268C26.2805 4.98095 26.3156 11.9784 22.9948 15.0879C21.8313 16.1819 20.3957 16.6349 19.0433 16.3299ZM22.8812 21.3355C17.8232 19.6338 9.77962 29.4974 8.40217 33.3726C6.8259 38.8432 11.9234 40.8819 16.7706 42.5194L16.7789 42.5223C17.1583 42.6476 17.5342 42.7756 17.9062 42.9023L17.9066 42.9024C21.0902 43.9865 23.9921 44.9746 26.4031 43.3299C27.2783 42.6895 27.9148 41.7025 28.299 40.3844C29.2219 36.3995 27.8712 23.1445 22.8812 21.3355ZM15.51 19.443C15.2624 21.3947 14.3821 23.1235 13.0884 24.1918C12.0716 25.0346 10.8645 25.3966 9.69587 25.2169C6.70228 24.7474 5.08784 21.0897 5.55743 17.904C5.79031 16.1287 6.53763 14.6357 7.67505 13.6941C8.70287 12.845 9.99292 12.482 11.3001 12.6903C14.1828 13.1308 15.9517 15.9749 15.51 19.443Z" fill="#04A427"/>
<path opacity="0.06" fill-rule="evenodd" clip-rule="evenodd" d="M68.6985 38.2797C71.1622 37.3192 71.9011 34.0034 71.0328 31.3463C70.1294 28.4889 67.7808 27.0441 65.44 27.9236C63.0181 28.8265 62.0748 31.7375 62.9598 34.3951C63.7248 37.0232 66.2761 39.201 68.6985 38.2797ZM77.9286 34.722C76.9709 34.1206 75.8407 33.9714 74.7454 34.2954C72.3381 35.018 71.1101 37.6473 71.8214 40.5393C72.4531 43.2629 74.825 45.5052 77.3301 44.7599C79.8253 44.0105 80.8392 40.6995 80.1385 38.0476C79.7771 36.5682 78.9885 35.3892 77.9286 34.722ZM60.7977 42.3218C59.9241 42.8962 58.9005 43.038 57.861 42.7514C53.9794 41.6909 51.8955 35.3994 55.683 32.9155C59.3504 30.5386 63.0767 34.9255 62.6302 39.0103C62.4762 40.4443 61.8113 41.6485 60.7977 42.3218ZM65.8653 43.0235C61.7773 45.1883 61.9301 56.5516 63.1135 59.8751C65.0161 64.3311 69.3074 62.3534 73.2287 60.2831L73.2355 60.2797C73.541 60.1157 73.8457 59.9558 74.1473 59.7974C76.7273 58.4431 79.079 57.2086 79.7276 54.6292C79.9401 53.6655 79.8187 52.6362 79.3631 51.5597C77.8352 48.458 69.9674 40.9699 65.8653 43.0235ZM60.2193 46.5486C61.0964 47.9369 61.4568 49.5897 61.2072 51.0908C61.0126 52.2727 60.4435 53.2733 59.612 53.908C57.4771 55.528 54.5235 54.2563 53.133 51.9484C52.34 50.6807 52.0206 49.2616 52.2389 47.9403C52.4371 46.7474 53.0579 45.6931 53.9918 44.9878C56.0415 43.4205 58.6618 44.0805 60.2193 46.5486Z" fill="#04A427"/>
</svg>
