<svg width="259" height="78" viewBox="0 0 259 78" fill="none" xmlns="http://www.w3.org/2000/svg">
<path opacity="0.06" fill-rule="evenodd" clip-rule="evenodd" d="M26.4725 49.6653C29.0273 50.9317 31.7804 48.8242 32.8457 45.917C34.0151 42.8159 33.1286 39.6694 30.723 38.4389C28.2386 37.1599 25.5915 38.7643 24.5389 41.686C23.4119 44.4832 23.9757 48.401 26.4725 49.6653ZM36.0191 54.4423C35.6657 53.1493 34.8808 52.0837 33.8126 51.436C31.458 50.0211 28.7734 51.1565 27.4312 54.1258C26.1374 56.8902 26.5187 60.7113 28.9647 62.1891C31.4055 63.6554 34.3702 61.7813 35.5631 59.0182C36.2516 57.5013 36.4093 55.8748 36.0191 54.4423ZM17.6491 46.3954C16.5898 46.1383 15.6972 45.4008 15.0733 44.2981C12.7371 40.1883 15.2378 33.2811 19.8263 34.4007C24.2509 35.5079 24.2828 42.2207 21.2536 45.2039C20.1923 46.2534 18.8827 46.688 17.6491 46.3954ZM21.1486 51.1972C16.5347 49.5647 9.19734 59.0272 7.94084 62.7448C6.50297 67.993 11.1529 69.9487 15.5745 71.5197L15.5821 71.5225C15.9283 71.6427 16.2713 71.7655 16.6108 71.8871C19.5148 72.9271 22.1619 73.875 24.3612 72.2972C25.1595 71.6828 25.7402 70.736 26.0907 69.4715C26.9325 65.6486 25.7004 52.9326 21.1486 51.1972ZM14.4252 49.3827C14.1994 51.255 13.3964 52.9135 12.2163 53.9383C11.2887 54.7469 10.1876 55.0941 9.12162 54.9218C6.39087 54.4714 4.91818 50.9624 5.34655 47.9062C5.55898 46.2032 6.24068 44.7709 7.27823 43.8675C8.2158 43.053 9.39259 42.7048 10.585 42.9046C13.2145 43.3272 14.8282 46.0556 14.4252 49.3827Z" fill="#04A427"/>
<path opacity="0.06" fill-rule="evenodd" clip-rule="evenodd" d="M234.111 20.7726C237.399 19.4246 238.384 14.7717 237.226 11.0431C236.021 7.03349 232.887 5.00605 229.763 6.24026C226.532 7.50721 225.273 11.5922 226.454 15.3215C227.475 19.0094 230.879 22.0654 234.111 20.7726ZM246.428 15.7765C245.15 14.9327 243.642 14.7232 242.18 15.1779C238.968 16.1919 237.33 19.8814 238.279 23.9397C239.122 27.7616 242.287 30.9082 245.629 29.8623C248.959 28.8108 250.311 24.1646 249.377 20.4433C248.894 18.3673 247.842 16.7128 246.428 15.7765ZM223.569 26.4448C222.404 27.2508 221.038 27.4497 219.651 27.0475C214.472 25.5594 211.691 16.7308 216.745 13.2453C221.638 9.90985 226.61 16.0658 226.014 21.7978C225.809 23.8101 224.922 25.4999 223.569 26.4448ZM230.332 27.4233C224.878 30.461 225.081 46.4067 226.66 51.0704C229.199 57.3234 234.925 54.5482 240.157 51.643L240.166 51.6382C240.574 51.4082 240.98 51.1838 241.383 50.9617L241.383 50.9615C244.825 49.061 247.963 47.3286 248.829 43.7091C249.112 42.3568 248.95 40.9124 248.342 39.4018C246.304 35.0493 235.806 24.5416 230.332 27.4233ZM222.799 32.3724C223.97 34.3205 224.451 36.6398 224.117 38.7462C223.858 40.4047 223.099 41.8088 221.989 42.6995C219.14 44.9728 215.199 43.1883 213.344 39.9496C212.286 38.1707 211.86 36.1794 212.151 34.3252C212.415 32.6514 213.244 31.1718 214.49 30.1821C217.225 27.9828 220.721 28.909 222.799 32.3724Z" fill="#04A427"/>
</svg>
