<svg width="82" height="38" viewBox="0 0 82 38" fill="none" xmlns="http://www.w3.org/2000/svg">
<path opacity="0.06" fill-rule="evenodd" clip-rule="evenodd" d="M14.4387 18.6079C15.8272 19.2623 17.3235 18.1732 17.9025 16.6708C18.5381 15.0681 18.0563 13.4421 16.7488 12.8061C15.3985 12.1451 13.9598 12.9743 13.3877 14.4842C12.7752 15.9298 13.0816 17.9545 14.4387 18.6079ZM19.6267 21.0763C19.4346 20.408 19.008 19.8573 18.4275 19.5226C17.1478 18.7914 15.6887 19.3782 14.9592 20.9127C14.256 22.3414 14.4633 24.3161 15.7926 25.0798C17.1192 25.8376 18.7305 24.869 19.3789 23.4411C19.753 22.6571 19.8388 21.8166 19.6267 21.0763ZM9.64368 16.918C9.06796 16.7851 8.58283 16.404 8.24375 15.8341C6.97404 13.7102 8.33314 10.1406 10.827 10.7192C13.2318 11.2914 13.2491 14.7605 11.6027 16.3022C11.0259 16.8446 10.3142 17.0692 9.64368 16.918ZM11.5463 19.3996C9.03867 18.556 5.05082 23.4462 4.36791 25.3674C3.58643 28.0796 6.11365 29.0903 8.5168 29.9022L8.52092 29.9037C8.70904 29.9658 8.89541 30.0292 9.07987 30.092L9.08001 30.0921C10.6584 30.6295 12.0971 31.1194 13.2924 30.304C13.7263 29.9865 14.0419 29.4972 14.2324 28.8437C14.6899 26.8681 14.0203 20.2965 11.5463 19.3996ZM7.89192 18.4618C7.76916 19.4295 7.33272 20.2866 6.69134 20.8162C6.18723 21.2341 5.58876 21.4135 5.00939 21.3244C3.52523 21.0917 2.72482 19.2782 2.95764 17.6988C3.07309 16.8187 3.4436 16.0785 4.00751 15.6116C4.51708 15.1907 5.15666 15.0107 5.80471 15.114C7.2339 15.3324 8.11092 16.7424 7.89192 18.4618Z" fill="#04A427"/>
<path opacity="0.06" fill-rule="evenodd" clip-rule="evenodd" d="M65.9249 13.0929C67.9939 12.2862 68.6143 9.50169 67.8852 7.27035C67.1266 4.8708 65.1543 3.6575 63.1886 4.3961C61.1547 5.1543 60.3625 7.59892 61.1058 9.8307C61.7482 12.0377 63.8907 13.8665 65.9249 13.0929ZM73.6762 10.1043C72.872 9.59932 71.9229 9.47399 71.0031 9.74611C68.9815 10.3529 67.9503 12.5609 68.5476 14.9895C69.0781 17.2767 71.0699 19.1598 73.1736 18.5338C75.269 17.9046 76.1204 15.1241 75.5321 12.8971C75.2285 11.6547 74.5663 10.6646 73.6762 10.1043ZM59.2912 16.489C58.5576 16.9714 57.6981 17.0905 56.8251 16.8498C53.5655 15.9592 51.8154 10.6758 54.9961 8.58992C58.0759 6.59384 61.2051 10.2778 60.8301 13.7081C60.7008 14.9123 60.1424 15.9236 59.2912 16.489ZM63.5464 17.077C60.1133 18.8949 60.2416 28.4375 61.2354 31.2285C62.8332 34.9705 66.4369 33.3097 69.7299 31.5711L69.7356 31.5682C69.9921 31.4306 70.248 31.2963 70.5012 31.1633L70.5013 31.1633C72.6679 30.0259 74.6428 28.9892 75.1875 26.8231C75.3659 26.0139 75.264 25.1495 74.8813 24.2455C73.5983 21.6407 66.9911 15.3525 63.5464 17.077ZM58.8047 20.0374C59.5413 21.2033 59.8439 22.5912 59.6342 23.8518C59.4709 24.8443 58.993 25.6846 58.2947 26.2176C56.5019 27.578 54.0215 26.5101 52.8538 24.5719C52.1879 23.5074 51.9197 22.3157 52.103 21.2061C52.2694 20.2044 52.7907 19.319 53.575 18.7267C55.2963 17.4105 57.4967 17.9648 58.8047 20.0374Z" fill="#04A427"/>
</svg>
