<svg width="83" height="73" viewBox="0 0 83 73" fill="none" xmlns="http://www.w3.org/2000/svg">
<path d="M23.0484 38.5644C23.7692 36.8832 24.56 35.002 24.2207 33.4216C23.989 32.3422 23.0463 31.3754 21.9939 30.7491C21.7033 30.5761 21.3523 30.4034 20.9161 30.4173C20.8145 30.4205 20.6977 30.4315 20.6404 30.5213C20.3624 30.9581 20.6036 32.4877 20.6147 32.6091C20.9501 36.2729 21.2712 40.53 24.1136 43.2107C24.6656 43.7313 26.0295 45.0713 27.1811 44.9875C28.4551 44.8947 28.6439 42.5833 28.3781 42.1641C27.6467 41.0104 23.9078 44.1342 23.228 44.7195C23.1063 44.8244 22.9914 44.9332 22.8775 45.0423C22.6918 45.2201 22.7186 45.2068 22.9767 45.0543C24.4724 44.1703 25.8932 43.0924 27.2299 42.0836C29.5026 40.3685 31.9195 38.5844 33.837 36.6471C34.3025 36.1769 34.5079 35.875 34.4158 35.4208C34.3228 34.9622 33.0412 34.4753 32.8763 35.3702C32.7421 36.0985 32.9119 36.8285 33.1881 37.4436C33.3373 37.7761 33.8832 38.5004 34.1754 38.1262C35.0007 37.0694 34.9067 35.2053 34.9399 34.2505C34.9918 32.757 34.8015 31.3459 34.64 29.906C34.5632 29.2209 35.6003 30.9348 36.0078 31.4901C37.7001 33.7959 39.5132 36.087 40.7587 38.6168C41.3198 39.7564 41.9371 40.9849 39.7195 41.9382C37.7264 42.795 35.1553 43.2593 33.1621 43.2801C28.632 43.3273 27.8535 40.555 29.1822 37.3856C30.6374 33.9145 32.832 30.4808 34.4465 27.0185C35.6976 24.3359 36.7395 21.649 37.2994 18.9743C37.4421 18.2923 37.7627 16.4092 37.1493 17.0253C36.843 17.3329 37.3343 17.6344 37.4606 17.9257C38.4189 20.1366 39.392 22.3416 40.3826 24.5392C40.6458 25.1231 40.912 25.7057 41.1812 26.2871C41.3087 26.5626 41.4237 26.8438 41.5727 27.1097C41.5978 27.1545 41.6383 27.2545 41.7003 27.2134C41.962 27.0401 42.0416 25.4642 42.0569 25.3716C42.1201 24.9893 42.0251 22.4896 42.8978 24.1782C45.5763 29.3605 47.4377 35.0169 49.5916 40.4089C51.6739 45.622 54.2547 50.8859 55.4571 56.4374C55.642 57.291 55.8844 58.0072 54.4573 58.2379C52.8182 58.5028 51.2977 58.1571 50.0495 57.6932C47.1399 56.6119 46.4593 54.3288 46.7923 51.6539C47.0612 49.4943 47.8817 47.2784 48.425 45.0973C48.7172 43.9242 48.8348 42.7958 49.0054 41.6383" stroke="#04A427" stroke-width="0.67274" stroke-linecap="round"/>
<path d="M41.539 30.3955C41.2259 29.9728 39.5894 28.2776 38.4614 29.1264C37.8547 29.5828 37.4947 30.4249 37.2702 30.963C36.8225 32.0361 37.045 33.051 38.1327 33.5725C39.9219 34.4302 41.1842 30.8257 41.1985 30.8288C41.8973 30.9766 42.4622 31.6251 43.0112 30.7476C45.4958 26.776 46.8051 22.2273 46.8424 18.3361C46.8537 17.1534 46.6249 15.1445 44.7696 14.9382C43.997 14.8523 45.5645 15.8503 46.0119 16.2747C50.6667 20.691 54.6406 25.5235 59.0466 30.0938C59.7675 30.8416 60.2973 30.7529 58.7327 31.4665C54.5762 33.3621 50.3779 35.2276 46.1181 36.904C43.6179 37.888 40.1428 39.4056 37.4632 39.4306C36.1081 39.4433 35.4158 38.7673 35.4861 37.7402C35.6465 35.3962 37.5505 32.5869 38.9214 30.3109C40.5461 27.6137 42.4503 24.9657 44.0668 22.269C44.6979 21.2163 45.2093 20.1891 45.3272 19.1343C45.4424 18.1047 45.2022 18.3158 45.4361 17.3168C46.0871 14.536 47.8398 9.3464 52.7855 9.01489C53.8047 8.94658 54.7537 9.11775 55.6577 9.28424C56.0595 9.35823 56.6798 9.41431 56.9089 9.68429C57.3873 10.2478 56.4311 11.929 56.194 12.4472C53.5525 18.2195 50.1575 23.9486 47.6386 29.7282C47.3542 30.3808 47.9846 30.3573 48.5479 30.5792C51.6389 31.7968 53.7024 34.3198 55.7518 36.3168C57.3049 37.8302 58.812 39.3747 60.2629 40.9523C60.4012 41.1027 60.5342 41.2563 60.6698 41.4083C60.8191 41.5757 60.8909 41.7685 60.8816 41.4441C60.5838 31.1234 60.6073 20.7215 59.9192 10.4881C59.7244 7.5911 59.3465 4.7759 58.9773 1.92969C58.8813 1.18978 59.1352 1.83249 59.2297 2.0237C60.649 4.89392 61.2575 8.10132 62.5108 11.0409C63.1975 12.6516 63.9626 14.0496 65.6059 15.1017C66.3437 15.574 67.1967 15.8982 67.9968 16.3068C68.5209 16.5744 67.8997 17.8652 67.8253 18.3095C67.4843 20.3453 67.5789 22.1204 67.9968 23.9757" stroke="#04A427" stroke-width="0.67274" stroke-linecap="round"/>
<path d="M67.9114 24.033C67.4774 22.9557 68.4437 21.6243 69.1027 20.474C69.3986 19.9576 69.9214 19.6062 70.3143 19.1309C70.3976 19.0301 70.4097 18.9104 70.5504 18.8544" stroke="#04A427" stroke-width="0.67274" stroke-linecap="round"/>
<path d="M15.8239 40.5684C14.6528 39.361 10.8929 41.2197 9.8816 42.3669C7.07791 45.5472 9.49514 48.9142 11.4334 50.9241C14.1333 53.7236 18.2953 56.6362 23.4751 57.0299C24.3647 57.0975 25.5865 57.2067 26.5793 56.657C27.5224 56.1348 27.7571 55.2608 27.9567 54.586C28.6726 52.1658 28.0475 50.0647 27.0956 48.0765C26.5763 46.992 26.0039 45.7792 25.1613 44.8441C24.9496 44.6091 24.8116 44.8372 24.5922 45.0392" stroke="#04A427" stroke-width="0.67274" stroke-linecap="round"/>
</svg>
