<svg width="136" height="44" viewBox="0 0 136 44" fill="none" xmlns="http://www.w3.org/2000/svg">
<path d="M48.5084 9.37245C48.7068 9.07913 48.7209 8.69501 48.5509 8.38772C48.3738 8.07344 48.0408 7.87789 47.6724 7.87789H41.6289C40.7221 7.88487 39.8365 8.05947 39.0004 8.41565C38.9367 8.44359 38.88 8.46454 38.8233 8.49248C37.8739 8.92548 37.045 9.62387 36.4215 10.5108L35.3588 12.0822C35.2242 12.0473 35.1108 12.0194 35.0896 12.0124C34.9549 11.9775 34.8203 11.9495 34.6857 11.9216C34.6503 11.9146 34.622 11.9076 34.5936 11.9006C33.6442 7.6125 32.2556 4.19037 31.1291 1.83678C30.7961 1.13838 30.1514 0.642523 29.3862 0.488876C28.0755 0.23047 26.531 0.0279358 24.7881 0C24.7314 0 24.6677 0 24.611 0C24.4409 0 24.2709 0 24.0938 0C23.9237 0 23.7608 4.26162e-07 23.5907 0.00698437C23.4278 0.00698437 23.2648 0.0139692 23.0948 0.0209531C22.9389 0.027937 22.776 0.0349206 22.613 0.0488884C22.4572 0.0628563 22.3013 0.0698403 22.1454 0.0838082C21.9896 0.097776 21.8408 0.10476 21.6849 0.125712C21.5361 0.13968 21.3873 0.160631 21.2386 0.174599C21.0969 0.188566 20.9481 0.20952 20.8064 0.230471C20.6647 0.251423 20.5301 0.265391 20.3884 0.293326C20.2537 0.314278 20.1191 0.33523 19.9845 0.356181C19.857 0.377133 19.7224 0.398085 19.5949 0.426021C19.5453 0.433005 19.5028 0.439988 19.4532 0.453956C19.3823 0.467924 19.3115 0.481892 19.2406 0.49586C19.0068 0.551732 18.6951 0.663476 18.3762 0.90093C17.9937 1.18727 17.7882 1.51552 17.6961 1.6971C17.6819 1.72503 17.6678 1.75995 17.6536 1.78789C17.6182 1.86471 17.5827 1.93455 17.5473 2.01138C17.5119 2.0882 17.4765 2.16502 17.441 2.24185C17.4056 2.31867 17.3631 2.39549 17.3277 2.47232C17.2923 2.55612 17.2497 2.63295 17.2143 2.71676C17.1789 2.80056 17.1364 2.88437 17.101 2.96119C17.0655 3.045 17.023 3.12881 16.9876 3.21261C16.9522 3.29642 16.9097 3.38721 16.8742 3.47102C16.8317 3.55483 16.7963 3.64562 16.7609 3.73641C16.7255 3.8272 16.683 3.91799 16.6475 4.00878C16.605 4.09958 16.5696 4.19037 16.5342 4.28814C16.4917 4.38592 16.4562 4.47671 16.4137 4.5675C16.3783 4.66527 16.3358 4.76305 16.3004 4.86083C16.2649 4.9586 16.2224 5.05637 16.187 5.15415C16.1516 5.25192 16.1091 5.3497 16.0737 5.45446C16.0311 5.55224 15.9957 5.65699 15.9603 5.75477C15.9178 5.85953 15.8824 5.96429 15.8469 6.06905C15.8044 6.17381 15.769 6.27857 15.7336 6.38332C15.6982 6.48808 15.6556 6.59982 15.6202 6.70458C15.5848 6.80934 15.5423 6.92109 15.5069 7.03283C15.4714 7.14457 15.4289 7.25632 15.3935 7.36806C15.3581 7.4798 15.3156 7.59154 15.2801 7.70329C15.2447 7.81503 15.2093 7.93376 15.1739 8.0455C15.1384 8.16423 15.103 8.27597 15.0676 8.3947C15.0322 8.51343 14.9967 8.63215 14.9613 8.75088C14.9259 8.86961 14.8905 8.98833 14.855 9.10706C14.8196 9.23277 14.7842 9.3515 14.7488 9.47023C14.7133 9.59594 14.6779 9.71466 14.6425 9.84038C14.6071 9.96609 14.5716 10.0918 14.5433 10.2175C14.5079 10.3432 14.4725 10.4689 14.4441 10.5946C14.4087 10.7204 14.3804 10.8461 14.3449 10.9788C14.3095 11.1115 14.2812 11.2372 14.2528 11.3699C14.2245 11.5026 14.1891 11.6352 14.1607 11.761C14.1536 11.8029 14.1466 11.8378 14.1324 11.8797C13.9198 11.9286 13.5939 12.0054 13.3105 12.0683L12.2407 10.5108C11.6243 9.63086 10.7954 8.93246 9.84601 8.49946C9.78933 8.47152 9.72557 8.44359 9.66889 8.42264C8.83995 8.06645 7.95434 7.89186 7.04039 7.88487H0.996956C0.62854 7.88487 0.288463 8.08042 0.118425 8.3947C-0.0516134 8.70898 -0.0374435 9.08611 0.153849 9.37943L3.99387 15.2669C3.95136 15.2879 3.90885 15.3088 3.85926 15.3298C3.17911 15.644 2.69025 16.2586 2.54855 16.9849C2.28641 18.284 2.08095 19.8274 2.05261 21.5594C2.04552 21.8947 2.04552 22.2299 2.05261 22.5721C2.05969 22.8934 2.07386 23.2146 2.09512 23.5359C2.11637 23.8432 2.13763 24.1505 2.16597 24.4578C2.19431 24.7511 2.22973 25.0374 2.26515 25.3308C2.27224 25.4076 2.28641 25.4844 2.29349 25.5612C2.29349 25.5612 2.29349 25.5612 2.29349 25.5682C2.32183 25.7638 2.35017 25.9593 2.3856 26.1549C2.39977 26.2247 2.40685 26.3015 2.42102 26.3714C2.42102 26.3784 2.42102 26.3853 2.42811 26.3993C2.42811 26.4203 2.43519 26.4412 2.43519 26.4552C2.51313 26.7415 2.64774 27.1256 2.90988 27.5307C3.26413 28.0824 3.68214 28.4386 3.96553 28.6342C4.00804 28.6551 4.05764 28.6761 4.10015 28.697C4.23476 28.7599 4.36938 28.8227 4.50399 28.8856L4.60317 28.9345C4.76613 29.0113 4.93617 29.0811 5.10621 29.158C5.27624 29.2348 5.45336 29.3046 5.63049 29.3814C5.81469 29.4583 5.9989 29.5351 6.17603 29.6049C6.36732 29.6818 6.55861 29.7586 6.74282 29.8284C6.9412 29.9052 7.13958 29.9821 7.33795 30.0589C7.54342 30.1357 7.74888 30.2125 7.95434 30.2824C8.16689 30.3592 8.37943 30.436 8.59198 30.5059C8.81161 30.5827 9.03125 30.6595 9.25088 30.7293C9.4776 30.8062 9.70431 30.876 9.93103 30.9458C10.1648 31.0227 10.3986 31.0925 10.6324 31.1623C10.8733 31.2322 11.1142 31.302 11.3622 31.3719C11.6102 31.4417 11.8581 31.5115 12.1061 31.5744C12.3612 31.6442 12.6162 31.7071 12.8713 31.77C13.1334 31.8328 13.3956 31.8957 13.6577 31.9585C13.7923 31.9865 13.9269 32.0144 14.0545 32.0493C14.9967 36.3235 16.3854 39.7386 17.5048 42.0922C17.8449 42.8046 18.5038 43.3144 19.2831 43.4681C20.5867 43.7265 22.1242 43.922 23.8529 43.9499C24.193 43.9569 24.533 43.9569 24.8802 43.9499C25.2061 43.943 25.532 43.929 25.8579 43.908C26.1697 43.8871 26.4814 43.8661 26.7931 43.8382C27.0907 43.8103 27.3812 43.7753 27.6787 43.7404C27.9551 43.7055 28.2385 43.6636 28.5148 43.6217C28.7769 43.5798 29.032 43.5379 29.2941 43.482C29.372 43.4681 29.4429 43.4541 29.5137 43.4401C29.5421 43.4331 29.5704 43.4262 29.6058 43.4192C29.8042 43.3703 30.1585 43.2515 30.4631 42.9722C30.5836 42.8605 30.6827 42.7417 30.7536 42.637C30.8032 42.5392 30.8528 42.4414 30.9024 42.3367C30.9165 42.3017 30.9378 42.2668 30.952 42.2319V42.2249C31.0086 42.1132 31.0582 42.0014 31.1149 41.8897C31.1645 41.7849 31.2141 41.6802 31.2637 41.5754C31.285 41.5265 31.3133 41.4776 31.3346 41.4218C31.4125 41.2611 31.4833 41.0935 31.5613 40.9329C31.6392 40.7583 31.7171 40.5907 31.788 40.4161C31.8659 40.2345 31.9439 40.0599 32.0218 39.8783C32.0997 39.6897 32.1777 39.5082 32.2556 39.3196C32.3335 39.124 32.4115 38.9285 32.4894 38.7329C32.5673 38.5304 32.6453 38.3279 32.7232 38.1253C32.8011 37.9158 32.8791 37.7063 32.9499 37.4968C33.0279 37.2803 33.1058 37.0638 33.1766 36.8473C33.2546 36.6238 33.3254 36.4003 33.4034 36.1768C33.4813 35.9464 33.5521 35.7159 33.623 35.4784C33.6938 35.241 33.7647 35.0035 33.8355 34.7661C33.9064 34.5216 33.9772 34.2772 34.041 34.0327C34.1118 33.7813 34.1756 33.5299 34.2394 33.2785C34.3031 33.0201 34.3669 32.7617 34.4307 32.5033C34.4661 32.3636 34.4944 32.2239 34.5299 32.0842C39.0075 31.1204 42.5641 29.6887 44.9589 28.5573C45.5398 28.285 45.9507 27.7612 46.0783 27.1396C46.3546 25.8057 46.5813 24.2063 46.6096 22.3975L46.6167 22.2229C46.6167 22.0553 46.6167 21.8877 46.6167 21.7131C46.6167 21.5455 46.6096 21.3848 46.6096 21.2172C46.6025 21.0566 46.6026 20.896 46.5884 20.7353C46.5813 20.5747 46.5742 20.421 46.56 20.2604C46.553 20.1068 46.5388 19.9531 46.5246 19.7995C46.5104 19.6528 46.4963 19.4992 46.4821 19.3455C46.4679 19.1989 46.4467 19.0522 46.4325 18.9055C46.4183 18.7659 46.3971 18.6192 46.3758 18.4795C46.3546 18.3398 46.3333 18.2071 46.3121 18.0675C46.2908 17.9348 46.2696 17.8021 46.2483 17.6694C46.227 17.5367 46.2058 17.411 46.1775 17.2853C46.1704 17.2294 46.1562 17.1735 46.1491 17.1176C46.1349 17.0478 46.1208 16.978 46.1066 16.9081C46.0924 16.8383 46.0783 16.7684 46.0641 16.6986V16.6916C46.0003 16.4821 45.8799 16.2237 45.6744 15.9793C45.5256 15.8047 45.3627 15.672 45.2139 15.5672H45.2068C45.1431 15.5323 45.0793 15.5044 45.0155 15.4764C44.9447 15.4415 44.8667 15.4066 44.7959 15.3717C44.7534 15.3507 44.7109 15.3298 44.6684 15.3158L48.5084 9.37245ZM30.3427 35.234L30.3072 35.3038C30.2506 35.4295 30.1797 35.5483 30.1089 35.674C30.1089 35.674 30.1089 35.674 30.1018 35.674C29.0816 37.2314 27.3883 38.3279 25.532 38.6701C25.4612 38.6841 25.3903 38.691 25.3195 38.705C25.2628 38.712 25.2132 38.719 25.1565 38.726C25.1353 38.726 25.114 38.7329 25.0927 38.7329C24.944 38.7469 24.7952 38.7609 24.6464 38.7679C24.5685 38.7748 24.4905 38.7748 24.4126 38.7748H24.2001C24.1575 38.7748 24.1221 38.7748 24.0796 38.7748C24.0442 38.7748 24.0017 38.7748 23.9662 38.7679C23.9025 38.7609 23.8387 38.7609 23.7679 38.7539C21.5219 38.5374 19.5098 36.9381 18.2771 35.0315C18.27 35.0245 18.27 35.0245 18.27 35.0175L18.2558 34.9826L1.37246 9.07214H7.00496C7.74179 9.07913 8.49279 9.23277 9.15877 9.51213C9.20837 9.53308 9.25797 9.55404 9.30756 9.57499C10.0586 9.9172 10.7175 10.4759 11.2134 11.1743L13.4451 14.4288C13.5656 14.0796 13.7285 13.6885 13.9694 13.2904C14.0474 13.1717 14.1607 12.9971 14.1749 12.9901C14.4654 12.5641 14.7771 12.2359 15.0534 11.9775C16.1232 10.8949 17.604 9.8753 19.361 9.29563C20.941 8.77882 25.0786 7.81503 29.3154 10.1407C30.6331 10.867 31.7242 11.9844 32.4965 13.1089C32.5036 13.1158 32.5107 13.1298 32.5248 13.1438L32.5319 13.1508C32.8578 13.5977 33.205 14.1495 33.5096 14.799C33.5663 14.9177 33.6159 15.0434 33.6726 15.1691C33.8214 15.5253 33.9347 15.8605 34.0339 16.1818L37.4205 11.1813C37.9164 10.4759 38.5753 9.9172 39.3263 9.57499C39.3759 9.55404 39.4255 9.53308 39.4751 9.51213C40.1482 9.23277 40.8921 9.07913 41.6289 9.07214H47.2685L30.3427 35.234Z" fill="#0B5594"/>
<path d="M29.8192 30.3104C29.6492 30.9459 29.3516 31.4627 29.0186 31.8748C28.3597 32.6849 27.4174 33.2157 26.383 33.4322C24.7535 33.7744 21.6503 34.0957 18.618 32.4963C17.8457 32.0913 16.2374 31.2183 15.0755 29.3605C13.0634 26.1549 14.0199 22.6699 14.2253 21.9785C14.7496 23.1798 15.8761 25.24 18.1575 26.7555C18.8801 27.2304 21.8062 28.6342 24.5268 28.2222C25.0865 28.1384 26.2201 27.7193 26.4468 26.6368C26.6168 25.8406 26.1563 25.0095 25.9792 24.7791C26.3193 24.828 27.878 25.0724 28.9832 26.4622C29.1462 26.6717 30.3648 28.2571 29.8192 30.3104Z" fill="url(#paint0_linear_900_3002)"/>
<path d="M22.1177 15.8733C22.0115 15.7127 21.636 15.7686 21.2605 15.999C20.892 16.2225 20.6724 16.5438 20.7787 16.7044C20.885 16.865 21.2605 16.8092 21.6289 16.5857C22.0044 16.3482 22.224 16.0339 22.1177 15.8733ZM34.318 18.0104C34.2329 17.8637 34.1337 17.7171 34.0346 17.5634C34.0062 17.5285 33.9779 17.4866 33.9495 17.4447C33.9212 17.3958 33.8858 17.3469 33.8433 17.298C33.8291 17.2771 33.8078 17.2492 33.7937 17.2282C33.7157 17.1234 33.6378 17.0117 33.5457 16.9069C33.4819 16.8231 33.4111 16.7393 33.3402 16.6555C33.2269 16.5158 33.1135 16.3901 33.0002 16.2714C33.0002 16.2644 33.0002 16.2644 33.0002 16.2574C32.9577 16.1038 32.9081 15.9501 32.8585 15.7895C32.8514 15.7755 32.8514 15.7546 32.8443 15.7406C32.8372 15.7336 32.8372 15.7197 32.8372 15.7127C32.8018 15.6079 32.7664 15.5032 32.7238 15.4054C32.7168 15.3844 32.7097 15.3705 32.7026 15.3495V15.3425C32.653 15.2098 32.5963 15.0841 32.5538 14.9584C32.5538 14.9584 32.5538 14.9514 32.5467 14.9445C32.4688 14.7768 32.3909 14.6162 32.3129 14.4765C31.6611 13.2613 30.5134 11.7947 28.9051 10.9147C24.973 8.75668 21.1258 9.65063 19.6593 10.1325C18.6461 10.4677 17.7322 10.9566 16.9528 11.5223C16.882 11.5782 16.804 11.6271 16.7332 11.6829C16.7119 11.6969 16.6907 11.7109 16.6694 11.7249C16.3435 11.9693 15.9397 12.3255 15.5429 12.7934C15.5217 12.8213 15.5004 12.8423 15.4792 12.8702C15.4508 12.8982 15.4296 12.9331 15.4012 12.968C15.3871 12.982 15.3729 13.0029 15.3658 13.0169C15.3658 13.0169 15.3658 13.0239 15.3587 13.0239C15.3446 13.0378 15.3375 13.0518 15.3233 13.0658C15.2808 13.1216 15.2383 13.1845 15.1887 13.2474C15.1745 13.2683 15.1603 13.2823 15.1533 13.3032C15.132 13.3312 15.1178 13.3591 15.0966 13.387C15.0895 13.394 15.0824 13.408 15.0753 13.415C15.0612 13.4359 15.047 13.4499 15.0328 13.4708C15.0116 13.5058 14.9903 13.5407 14.9691 13.5756C14.9053 13.6804 14.8415 13.7851 14.7707 13.9038C14.7707 13.9108 14.7636 13.9108 14.7636 13.9178C14.7636 13.9248 14.7565 13.9248 14.7565 13.9318C14.7494 13.9457 14.7423 13.9597 14.7353 13.9737C14.7282 13.9877 14.7211 14.0016 14.714 14.0156C14.6998 14.0365 14.6927 14.0505 14.6857 14.0715C14.629 14.1762 14.5794 14.281 14.5298 14.3857C14.3598 14.7559 14.2393 15.1121 14.1472 15.4263C14.1047 15.58 14.0693 15.7197 14.0409 15.8594C14.0055 16.0339 13.9772 16.1946 13.9559 16.3412C13.9559 16.3482 13.9559 16.3552 13.9559 16.3692C13.9063 16.8301 13.8992 17.298 13.9559 17.7729C14.0693 18.8275 14.4377 19.6865 14.8061 20.3221C15.0541 20.1405 15.3516 20.0497 16.1168 19.6446C16.3294 19.5329 16.8607 19.2885 17.0874 19.1697C16.9457 18.7856 17.0874 18.3526 17.4133 18.0942C17.7605 17.8149 18.1289 17.4936 18.5115 17.1234C18.8941 16.7463 19.2271 16.3692 19.5105 16.013C19.9214 15.4962 20.4386 15.0702 21.0337 14.7838C21.0408 14.7838 21.0408 14.7768 21.0479 14.7768C21.643 14.4835 22.1886 14.3648 22.5641 14.3089C23.4851 14.1343 27.2472 13.4988 30.9739 15.7336C33.8008 17.4307 35.0831 19.8542 35.5366 20.8319C35.3169 20.0567 34.9556 19.058 34.318 18.0104ZM34.488 24.296C34.0771 22.2008 32.8939 20.8389 32.32 20.2662C30.0883 18.0314 27.2472 17.8707 26.5671 17.8428C27.0347 17.752 27.566 17.6822 28.1399 17.6403C29.0043 17.5844 29.7836 17.6193 30.4425 17.6961C29.6986 17.4377 28.2816 17.0536 26.5458 17.326C26.4041 17.3469 26.2624 17.3749 26.1278 17.4028C25.2634 17.5844 24.4558 17.9545 23.7189 18.4434C22.4366 19.2955 21.2888 19.6656 20.5591 19.8402C20.5591 19.8402 18.5753 20.3151 17.5338 19.6866C17.4842 19.6586 17.4346 19.6516 17.3354 19.5399C16.9245 19.7704 16.5348 20.0148 16.1097 20.2592C15.7909 20.4408 15.4154 20.6433 15.0966 20.79C15.2879 21.0624 15.4579 21.2719 15.5713 21.4046C17.385 23.5836 19.9639 24.0236 21.2321 24.2401C23.0317 24.5474 24.6045 24.3728 25.7452 24.1144C27.9415 24.2331 29.8474 25.5461 30.6267 27.4527C31.5619 29.7714 30.3787 31.8596 30.2229 32.125C30.7542 31.9154 33.0498 30.9586 34.1267 28.4933C34.9343 26.6705 34.6297 25.0083 34.488 24.296ZM15.2879 20.2173C15.1249 20.2592 14.9549 20.3221 14.8132 20.3291C14.9053 20.4897 15.0045 20.6364 15.0895 20.7621C15.1603 20.6783 15.2808 20.5595 15.3729 20.4757C15.465 20.3919 16.0318 19.9659 16.1097 19.917C16.0743 19.938 15.5288 20.1615 15.2879 20.2173Z" fill="url(#paint1_linear_900_3002)"/>
<path d="M14.7698 13.8984C14.7486 13.9403 14.7273 13.9753 14.7061 14.0172C14.7202 13.9892 14.7344 13.9613 14.7557 13.9264C14.7557 13.9124 14.7627 13.9054 14.7698 13.8984Z" fill="white"/>
<path d="M15.1881 13.2422C15.1385 13.319 15.0818 13.3888 15.0322 13.4657C15.0818 13.3888 15.1385 13.312 15.1881 13.2422Z" fill="white"/>
<path d="M15.4723 12.8652C15.4227 12.9281 15.3731 12.9979 15.3164 13.0608C15.3731 12.9909 15.4227 12.9211 15.4723 12.8652Z" fill="white"/>
<path d="M63.3833 20.6214C63.1495 21.8925 61.8601 22.9889 60.5494 22.9889H56.929C56.7873 22.9889 56.766 22.975 56.8581 22.8493L63.0574 12.52C63.1283 12.4502 63.0432 12.2895 62.9299 12.2895H56.3905C55.4766 12.2895 55.2994 12.2197 55.3703 11.7937C55.3844 11.7378 55.1719 11.7029 55.1577 11.7588L54.4422 14.8317C54.428 14.9015 54.6193 14.9365 54.6547 14.8876C55.6608 12.8203 56.9644 12.5899 60.6911 12.5899C60.854 12.5899 60.854 12.6038 60.7832 12.7295L54.4917 23.0937C54.4209 23.1845 54.4917 23.3242 54.5839 23.3242C57.2549 23.3242 60.4927 23.3242 63.1637 23.3591C63.27 23.3591 63.3266 23.2543 63.3266 23.1845L63.5817 20.6214C63.5817 20.5446 63.4046 20.5446 63.3833 20.6214Z" fill="#0A7040"/>
<path d="M71.4462 12.0859C68.5414 12.0859 65.1406 13.9716 65.1406 17.8058C65.1406 20.9136 67.3795 23.5256 70.8156 23.5256C74.2164 23.5256 77.107 20.9625 77.107 17.6801C77.107 14.8446 74.9745 12.0859 71.4462 12.0859ZM71.4108 23.0926C69.0657 23.0926 67.344 20.6203 67.344 17.1563C67.344 14.2929 68.5414 12.5678 70.7306 12.5678C73.3308 12.5678 74.9036 14.9703 74.9036 18.2039C74.9036 21.3397 73.4016 23.0926 71.4108 23.0926Z" fill="#0A7040"/>
<path d="M85.1689 12.0859C82.264 12.0859 78.8633 13.9716 78.8633 17.8058C78.8633 20.9136 81.1021 23.5256 84.5454 23.5256C87.9461 23.5256 90.8368 20.9625 90.8368 17.6801C90.8297 14.8446 88.6971 12.0859 85.1689 12.0859ZM85.1334 23.0926C82.7883 23.0926 81.0667 20.6203 81.0667 17.1563C81.0667 14.2929 82.264 12.5678 84.4533 12.5678C87.0534 12.5678 88.6263 14.9703 88.6263 18.2039C88.6263 21.3397 87.1243 23.0926 85.1334 23.0926Z" fill="#0A7040"/>
<path d="M107.728 12.2832C107.119 12.2832 106.793 12.3391 106.134 12.3391C105.234 12.3391 104.753 12.2832 104.129 12.2832C104.058 12.2832 104.058 12.4927 104.129 12.4927C105.022 12.4927 105.419 13.4286 104.937 14.6996L102.627 20.7896L100.48 16.3199L101.139 14.5739C101.678 13.1632 102.323 12.4927 103.13 12.4927C103.187 12.4927 103.187 12.2832 103.13 12.2832C102.592 12.2832 102.323 12.3391 101.735 12.3391C100.658 12.3391 100.927 12.2832 100.573 12.2832C100.502 12.2832 100.502 12.4927 100.573 12.4927C101.168 12.4927 101.168 13.1283 100.629 14.525L100.183 15.7123L99.3965 14.0711C98.773 12.7651 98.7518 12.4997 99.3965 12.4997C99.4673 12.4997 99.4673 12.2902 99.3965 12.2902C98.9997 12.2902 98.5746 12.3461 97.2285 12.3461C96.4775 12.3461 96.4775 12.2902 96.1162 12.2902C96.0453 12.2902 96.0453 12.4997 96.1162 12.4997C96.5483 12.4997 96.8884 12.9746 97.2639 13.7568L99.2548 17.9053L98.1283 20.8176L94.9046 14.0711C94.2812 12.7651 94.3308 12.4997 95.3156 12.4997C95.3864 12.4997 95.3864 12.2902 95.3156 12.2902C94.8338 12.2902 94.3095 12.3461 92.7154 12.3461C91.8227 12.3461 91.8227 12.2902 91.4047 12.2902C91.3339 12.2902 91.3339 12.4997 91.4047 12.4997C92.0849 12.4997 92.262 12.7092 92.765 13.7568L97.3348 23.3108C97.3702 23.4016 97.6961 23.4016 97.7315 23.3108L99.5382 18.5268L101.834 23.3108C101.869 23.4016 102.195 23.4016 102.23 23.3108L105.546 14.5879C106.049 13.2959 106.871 12.5067 107.75 12.5067C107.778 12.4927 107.778 12.2832 107.728 12.2832Z" fill="#0A7040"/>
<path d="M112.957 23.1075C111.844 23.1075 111.681 22.9119 111.681 21.8853V13.742C111.681 12.7363 111.859 12.4849 112.957 12.4849C113.028 12.4849 113.028 12.2754 112.957 12.2754C112.347 12.2754 111.575 12.3313 110.661 12.3313C109.804 12.3313 108.996 12.2754 108.366 12.2754C108.309 12.2754 108.309 12.4849 108.366 12.4849C109.457 12.4849 109.676 12.6944 109.676 13.7071V21.8853C109.676 22.9119 109.464 23.1075 108.366 23.1075C108.309 23.1075 108.309 23.317 108.366 23.317C108.989 23.317 109.797 23.2821 110.661 23.2821C111.575 23.2821 112.326 23.317 112.957 23.317C113.028 23.317 113.028 23.1075 112.957 23.1075Z" fill="#0A7040"/>
<path d="M122.968 20.1052C122.521 21.7674 121.048 22.822 119.191 22.822H118.582C117.704 22.822 117.562 22.6823 117.562 21.8163V13.7289C117.562 12.7232 117.739 12.4927 118.837 12.4927C118.908 12.4927 118.908 12.2832 118.837 12.2832C118.228 12.2832 117.456 12.3391 116.563 12.3391C115.706 12.3391 114.862 12.2832 114.289 12.2832C114.232 12.2832 114.232 12.4927 114.289 12.4927C115.38 12.4927 115.578 12.7022 115.578 13.7149V21.8931C115.578 22.9197 115.38 23.1153 114.289 23.1153C114.232 23.1153 114.232 23.3248 114.289 23.3248H122.741C122.939 23.3248 123.01 23.255 123.01 23.0594C123.01 22.1375 123.102 20.9223 123.173 20.1471C123.166 20.0703 122.989 20.0354 122.968 20.1052Z" fill="#0A7040"/>
<path d="M129.096 12.2461C128.359 12.2461 127.211 12.3369 126.34 12.3369C125.483 12.3369 124.71 12.281 124.08 12.281C124.009 12.281 124.009 12.4905 124.08 12.4905C125.157 12.4905 125.355 12.7001 125.355 13.7127V21.8909C125.355 22.9176 125.143 23.1131 124.044 23.1131C123.988 23.1131 123.988 23.3226 124.044 23.3226C124.668 23.3226 125.476 23.2877 126.34 23.2877C127.289 23.2877 128.579 23.3925 129.351 23.3925C132.561 23.3925 135.26 21.1506 135.26 17.6167C135.26 14.5787 132.808 12.2461 129.096 12.2461ZM129.167 22.9874C127.665 22.9874 127.339 22.5823 127.339 21.6954V13.7476C127.339 12.7908 127.877 12.6372 129.273 12.6372C131.583 12.6372 133.056 15.0048 133.056 18.0078C133.056 21.2344 131.427 22.9874 129.167 22.9874Z" fill="#0A7040"/>
<path d="M126.128 29.6621H125.717L125.859 29.9694L124.76 32.2043H125.164L125.228 32.0855C125.242 32.0576 125.271 32.0297 125.306 32.0017C125.341 31.9738 125.398 31.9459 125.462 31.9249C125.526 31.897 125.604 31.883 125.689 31.8621C125.781 31.8481 125.88 31.8411 125.993 31.8411H126.765L126.928 32.2043H127.339L126.128 29.6621ZM126.128 31.471C125.951 31.471 125.809 31.4849 125.703 31.5129C125.596 31.5408 125.526 31.5757 125.476 31.6106L126.036 30.4164L126.588 31.471H126.128ZM123.393 31.8341C123.379 31.8341 123.365 31.8341 123.351 31.8341C123.322 31.8341 123.294 31.8341 123.258 31.8271C123.223 31.8201 123.195 31.8062 123.159 31.7922C123.124 31.7713 123.088 31.7433 123.053 31.7084C123.018 31.6735 122.975 31.6246 122.933 31.5617L122.479 30.8913L123.315 29.718H122.869L122.224 30.6538C122.153 30.6957 122.068 30.7237 121.99 30.7307C121.905 30.7446 121.827 30.7516 121.749 30.7516H121.579V29.718H121.211V32.2182H121.579V31.1218H121.792C121.856 31.1218 121.912 31.1148 121.976 31.1078C122.04 31.1008 122.096 31.0798 122.16 31.0589L122.649 31.8271C122.706 31.9179 122.762 31.9948 122.819 32.0436C122.876 32.0925 122.925 32.1344 122.975 32.1624C123.025 32.1903 123.081 32.2043 123.131 32.2112C123.188 32.2182 123.237 32.2252 123.301 32.2252H123.436V31.8551C123.421 31.8341 123.407 31.8341 123.393 31.8341ZM119.078 29.704V32.2043H119.44V29.704H119.078ZM116.939 29.704V30.6748C116.882 30.7027 116.825 30.7167 116.762 30.7237C116.698 30.7307 116.641 30.7376 116.592 30.7376C116.535 30.7376 116.464 30.7307 116.386 30.7237C116.308 30.7167 116.23 30.7097 116.145 30.6957C116.067 30.6888 115.989 30.6818 115.918 30.6678C115.848 30.6608 115.798 30.6538 115.763 30.6538C115.706 30.6538 115.656 30.6608 115.6 30.6678C115.543 30.6748 115.493 30.6957 115.444 30.7167V29.69H115.075V32.1903H115.444V31.0868C115.493 31.0589 115.55 31.0449 115.6 31.038C115.656 31.024 115.706 31.024 115.763 31.024C115.798 31.024 115.855 31.031 115.918 31.038C115.989 31.0449 116.06 31.0519 116.145 31.0659C116.223 31.0729 116.308 31.0798 116.386 31.0938C116.464 31.1008 116.535 31.1078 116.592 31.1078C116.641 31.1078 116.698 31.1008 116.762 31.0938C116.825 31.0868 116.882 31.0659 116.932 31.0449V32.2112H117.3V29.711H116.939V29.704ZM112.95 29.704V32.2043H113.311V29.704H112.95ZM109.273 29.704L109.429 30.0742H109.719C109.705 30.1999 109.691 30.3256 109.67 30.4583C109.648 30.584 109.627 30.7097 109.599 30.8354C109.57 30.9611 109.535 31.0799 109.485 31.1916C109.436 31.3033 109.386 31.4151 109.315 31.5268C109.266 31.6037 109.223 31.6595 109.181 31.7014C109.138 31.7433 109.103 31.7783 109.067 31.7992C109.032 31.8202 108.996 31.8341 108.968 31.8411C108.94 31.8481 108.904 31.8481 108.876 31.8481H108.805V32.2182H108.876C108.911 32.2182 108.947 32.2182 108.996 32.2112C109.046 32.2043 109.096 32.1973 109.145 32.1833C109.195 32.1694 109.252 32.1414 109.301 32.1135C109.358 32.0855 109.407 32.0367 109.45 31.9878C109.549 31.869 109.641 31.7294 109.712 31.5827C109.783 31.429 109.84 31.2754 109.889 31.1078C109.939 30.9402 109.974 30.7726 110.01 30.598C110.038 30.4234 110.059 30.2557 110.08 30.0951H110.81V32.2252H111.179V29.725H109.273V29.704ZM107.417 31.8341C107.402 31.8341 107.388 31.8341 107.374 31.8341C107.346 31.8341 107.31 31.8341 107.282 31.8271C107.254 31.8201 107.218 31.8062 107.183 31.7922C107.147 31.7713 107.112 31.7433 107.076 31.7084C107.041 31.6735 106.999 31.6246 106.956 31.5617L106.503 30.8913L107.339 29.718H106.892L106.248 30.6538C106.17 30.6957 106.092 30.7237 106.014 30.7307C105.929 30.7446 105.851 30.7516 105.773 30.7516H105.603V29.718H105.234V32.2182H105.603V31.1218H105.815C105.879 31.1218 105.936 31.1148 106 31.1078C106.063 31.1008 106.12 31.0798 106.184 31.0589L106.673 31.8271C106.729 31.9179 106.786 31.9948 106.843 32.0436C106.899 32.0995 106.949 32.1344 106.999 32.1624C107.048 32.1903 107.105 32.2043 107.154 32.2112C107.211 32.2182 107.261 32.2252 107.324 32.2252H107.459V31.8551C107.438 31.8341 107.424 31.8341 107.417 31.8341ZM100.573 29.6621H100.162L100.303 29.9694L99.2051 32.2043H99.609L99.6727 32.0855C99.6869 32.0576 99.7153 32.0297 99.7507 32.0017C99.7861 31.9738 99.8428 31.9459 99.9065 31.9249C99.9703 31.897 100.048 31.883 100.133 31.8621C100.225 31.8481 100.325 31.8411 100.438 31.8411H101.21L101.373 32.2043H101.791L100.573 29.6621ZM100.573 31.471C100.395 31.471 100.254 31.4849 100.147 31.5129C100.041 31.5408 99.9703 31.5757 99.9207 31.6106L100.48 30.4164L101.033 31.471H100.573ZM97.3701 29.704V30.6748C97.3135 30.7027 97.2568 30.7167 97.2001 30.7237C97.1363 30.7307 97.0797 30.7376 97.0301 30.7376C96.9734 30.7376 96.9025 30.7307 96.8246 30.7237C96.7467 30.7167 96.6687 30.7097 96.5837 30.6957C96.5058 30.6888 96.4279 30.6818 96.357 30.6678C96.2862 30.6608 96.2366 30.6538 96.2011 30.6538C96.1445 30.6538 96.0949 30.6608 96.0382 30.6678C95.9815 30.6748 95.9319 30.6957 95.8823 30.7167V29.69H95.5139V32.1903H95.8823V31.0868C95.9319 31.0589 95.9886 31.0449 96.0382 31.038C96.0949 31.024 96.1445 31.024 96.2011 31.024C96.2366 31.024 96.2932 31.031 96.357 31.038C96.4279 31.0449 96.4987 31.0519 96.5837 31.0659C96.6617 31.0729 96.7467 31.0798 96.8246 31.0938C96.9025 31.1008 96.9734 31.1078 97.0301 31.1078C97.0797 31.1078 97.1363 31.1008 97.2001 31.0938C97.2639 31.0868 97.3206 31.0659 97.3701 31.0449V32.2112H97.7386V29.711H97.3701V29.704ZM93.9056 30.1161C93.8702 30.0253 93.8206 29.9554 93.7568 29.8926C93.6931 29.8297 93.6151 29.7808 93.523 29.7529C93.4309 29.718 93.3317 29.704 93.2184 29.704H91.9148V32.2043H92.2832V31.2405C92.3611 31.1986 92.439 31.1706 92.5241 31.1567C92.6091 31.1427 92.687 31.1357 92.772 31.1357H93.2184C93.3317 31.1357 93.4309 31.1218 93.523 31.0868C93.6151 31.0519 93.6931 31.003 93.7568 30.9402C93.8206 30.8773 93.8702 30.8005 93.9056 30.7097C93.941 30.6189 93.9552 30.5211 93.9552 30.4094C93.9552 30.3046 93.934 30.2069 93.9056 30.1161ZM93.2113 30.7726H92.765C92.6799 30.7726 92.602 30.7795 92.517 30.7865C92.439 30.8005 92.3611 30.8284 92.2832 30.8703V30.0672H93.2184C93.3388 30.0672 93.4309 30.0951 93.4947 30.144C93.5585 30.1929 93.5868 30.2837 93.5868 30.4094C93.5868 30.6538 93.4593 30.7726 93.2113 30.7726ZM89.1942 29.6621H88.7832L88.9249 29.9694L87.8268 32.2043H88.2306L88.2944 32.0855C88.3085 32.0576 88.3369 32.0297 88.3723 32.0017C88.4077 31.9738 88.4644 31.9459 88.5282 31.9249C88.5919 31.897 88.6699 31.883 88.7549 31.8621C88.847 31.8481 88.9462 31.8411 89.0595 31.8411H89.8318L89.9948 32.2043H90.4128L89.1942 29.6621ZM89.1942 31.471C89.017 31.471 88.8753 31.4849 88.7761 31.5129C88.6699 31.5408 88.599 31.5757 88.5494 31.6106L89.1091 30.4164L89.6618 31.471H89.1942ZM85.9918 29.704V30.6748C85.9351 30.7027 85.8784 30.7167 85.8217 30.7237C85.758 30.7307 85.7013 30.7376 85.6517 30.7376C85.595 30.7376 85.5242 30.7307 85.4462 30.7237C85.3683 30.7167 85.2904 30.7097 85.2054 30.6957C85.1274 30.6888 85.0495 30.6818 84.9786 30.6678C84.9078 30.6608 84.8582 30.6538 84.8228 30.6538C84.7661 30.6538 84.7165 30.6608 84.6598 30.6678C84.6031 30.6748 84.5535 30.6957 84.5039 30.7167L84.511 29.69H84.1426V32.1903H84.511V31.0868C84.5606 31.0589 84.6173 31.0449 84.6669 31.038C84.7236 31.024 84.7732 31.024 84.8299 31.024C84.8653 31.024 84.922 31.031 84.9857 31.038C85.0566 31.0449 85.1274 31.0519 85.2124 31.0659C85.2904 31.0729 85.3754 31.0798 85.4533 31.0938C85.5313 31.1008 85.6021 31.1078 85.6588 31.1078C85.7084 31.1078 85.7651 31.1008 85.8288 31.0938C85.8926 31.0868 85.9493 31.0659 85.9989 31.0449V32.2112H86.3673V29.711H85.9918V29.704ZM82.003 29.704L80.5151 31.6316V29.704H80.1467V32.2043H80.5151L82.003 30.2767V32.2043H82.3714V29.704H82.003ZM78.5314 30.1161C78.4959 30.0253 78.4463 29.9554 78.3826 29.8926C78.3188 29.8297 78.2409 29.7808 78.1488 29.7529C78.0567 29.725 77.9575 29.704 77.8441 29.704H76.5405V32.2043H76.9089V31.2405C76.9868 31.1986 77.0648 31.1706 77.1498 31.1567C77.2348 31.1427 77.3128 31.1357 77.3978 31.1357H77.8441C77.9575 31.1357 78.0567 31.1218 78.1488 31.0868C78.2409 31.0519 78.3188 31.003 78.3826 30.9402C78.4463 30.8773 78.4959 30.8005 78.5314 30.7097C78.5668 30.6189 78.588 30.5211 78.588 30.4094C78.581 30.3046 78.5668 30.2069 78.5314 30.1161ZM77.837 30.7726H77.3907C77.3057 30.7726 77.2277 30.7795 77.1427 30.7865C77.0648 30.8005 76.9868 30.8284 76.9089 30.8703V30.0672H77.837C77.9575 30.0672 78.0496 30.0951 78.1133 30.144C78.1771 30.1929 78.2055 30.2837 78.2055 30.4094C78.2125 30.6538 78.085 30.7726 77.837 30.7726ZM73.3594 31.8341V31.1986C73.4373 31.1567 73.5152 31.1357 73.5932 31.1218C73.6711 31.1078 73.7561 31.1008 73.8341 31.1008H74.3867V30.7307H73.8341C73.749 30.7307 73.6711 30.7376 73.5861 30.7446C73.5082 30.7516 73.4302 30.7795 73.3523 30.8284V30.0672H74.7693V29.697H72.9839V32.1973H74.9181V31.8271H73.3594V31.8341ZM69.3351 29.704V30.0742H70.242V32.2043H70.6033V30.0742H71.496V29.704H69.3351ZM66.4303 31.8341V31.1986C66.5083 31.1567 66.5862 31.1357 66.6641 31.1218C66.7421 31.1078 66.8271 31.1008 66.905 31.1008H67.4576V30.7307H66.9121C66.8271 30.7307 66.7491 30.7376 66.6641 30.7446C66.5862 30.7516 66.5083 30.7795 66.4303 30.8284V30.0672H67.8473V29.697H66.0619V32.1973H67.9961V31.8271H66.4303V31.8341ZM64.397 31.2824C64.3757 31.2125 64.3474 31.1497 64.319 31.1008C64.2836 31.0449 64.2482 31.003 64.2057 30.9681C64.1632 30.9332 64.1206 30.9053 64.0781 30.8843C64.1561 30.8354 64.2128 30.7726 64.2482 30.6818C64.2836 30.598 64.3049 30.4932 64.3049 30.3884C64.3049 30.2767 64.2836 30.1789 64.2482 30.0951C64.2128 30.0113 64.1561 29.9415 64.0923 29.8786C64.0285 29.8158 63.9435 29.7739 63.8514 29.7459C63.7593 29.718 63.6601 29.704 63.5539 29.704H62.2715V32.2043H63.5609C63.6672 32.2043 63.7735 32.1903 63.8727 32.1693C63.9789 32.1414 64.0711 32.1065 64.1561 32.0506C64.2411 31.9948 64.3049 31.9249 64.3545 31.8411C64.404 31.7573 64.4324 31.6525 64.4324 31.5268C64.4324 31.436 64.4182 31.3522 64.397 31.2824ZM62.647 30.0742H63.5609C63.6743 30.0742 63.7593 30.0951 63.8302 30.144C63.901 30.1929 63.9364 30.2767 63.9364 30.3954C63.9364 30.5142 63.901 30.598 63.8372 30.6538C63.7735 30.7097 63.6814 30.7376 63.5609 30.7376H63.1288C63.0437 30.7376 62.9658 30.7446 62.8808 30.7516C62.8029 30.7656 62.7249 30.7935 62.647 30.8354V30.0742ZM64.0144 31.6316C63.986 31.6805 63.9506 31.7154 63.901 31.7433C63.8585 31.7713 63.8089 31.7922 63.7522 31.8062C63.6956 31.8202 63.646 31.8271 63.5964 31.8271H62.6399V31.1986C62.7178 31.1567 62.7958 31.1287 62.8737 31.1148C62.9587 31.1008 63.0367 31.0938 63.1146 31.0938H63.5468C63.6105 31.0938 63.6672 31.1008 63.731 31.1078C63.7947 31.1218 63.8443 31.1357 63.8939 31.1637C63.9435 31.1916 63.9789 31.2265 64.0073 31.2754C64.0356 31.3243 64.0498 31.3802 64.0498 31.457C64.064 31.5338 64.0427 31.5897 64.0144 31.6316Z" fill="#0B5594"/>
<defs>
<linearGradient id="paint0_linear_900_3002" x1="-0.322474" y1="33.711" x2="26.7885" y2="25.5927" gradientUnits="userSpaceOnUse">
<stop offset="0.0469805" stop-color="#0B5594"/>
<stop offset="0.5901" stop-color="#0A7040"/>
<stop offset="1" stop-color="#DBB14F"/>
</linearGradient>
<linearGradient id="paint1_linear_900_3002" x1="17.1417" y1="7.95709" x2="33.8332" y2="33.1391" gradientUnits="userSpaceOnUse">
<stop offset="0.0469805" stop-color="#0B5594"/>
<stop offset="0.5901" stop-color="#0A7040"/>
<stop offset="1" stop-color="#DBB14F"/>
</linearGradient>
</defs>
</svg>
