<svg width="247" height="210" viewBox="0 0 247 210" fill="none" xmlns="http://www.w3.org/2000/svg">
<path opacity="0.06" fill-rule="evenodd" clip-rule="evenodd" d="M67.95 46.8414C74.5461 49.9504 81.6539 44.7767 84.4046 37.6395C87.4237 30.0264 85.135 22.3019 78.9239 19.281C72.5098 16.141 65.6754 20.0799 62.9577 27.2525C60.0479 34.1196 61.5036 43.7376 67.95 46.8414ZM92.5952 58.5696C91.6827 55.3953 89.6562 52.7793 86.8982 51.1892C80.8191 47.7156 73.8879 50.5031 70.4227 57.7925C67.0823 64.5793 68.0667 73.9599 74.3818 77.5879C80.6836 81.1876 88.3379 76.5868 91.4179 69.8033C93.1953 66.0793 93.6025 62.0863 92.5952 58.5696ZM45.1662 38.8121C42.4313 38.1811 40.1268 36.3705 38.516 33.6633C32.4844 23.5738 38.9407 6.61685 50.7876 9.36543C62.211 12.0836 62.2935 28.5635 54.4725 35.887C51.7324 38.4635 48.3513 39.5304 45.1662 38.8121ZM54.2053 50.5985C42.293 46.5907 23.3492 69.821 20.1051 78.9476C16.3928 91.8317 28.3981 96.633 39.8139 100.49L39.8335 100.497C40.7273 100.792 41.6129 101.093 42.4894 101.392C49.9872 103.945 56.8216 106.272 62.4998 102.398C64.561 100.89 66.0601 98.5658 66.965 95.4614C69.1385 86.0763 65.9575 54.8589 54.2053 50.5985ZM36.8436 46.1448C36.2605 50.7415 34.1872 54.8129 31.1404 57.3289C28.7457 59.314 25.9027 60.1664 23.1505 59.7432C16.1002 58.6375 12.2979 50.023 13.4039 42.5202C13.9524 38.3393 15.7124 34.8231 18.3912 32.6053C20.8119 30.6056 23.8501 29.7507 26.9286 30.2413C33.7178 31.2788 37.884 37.977 36.8436 46.1448Z" fill="#04A427"/>
<path opacity="0.06" fill-rule="evenodd" clip-rule="evenodd" d="M206.889 146.306C212.24 144.22 213.845 137.018 211.959 131.247C209.997 125.041 204.896 121.903 199.812 123.814C194.552 125.774 192.503 132.097 194.425 137.869C196.087 143.577 201.628 148.307 206.889 146.306ZM226.936 138.574C224.856 137.268 222.401 136.944 220.022 137.648C214.794 139.217 212.127 144.928 213.672 151.209C215.044 157.124 220.195 161.994 225.636 160.376C231.055 158.748 233.257 151.557 231.736 145.797C230.95 142.584 229.238 140.023 226.936 138.574ZM189.73 155.081C187.833 156.329 185.609 156.637 183.352 156.014C174.921 153.711 170.395 140.046 178.621 134.652C186.587 129.489 194.68 139.017 193.71 147.889C193.375 151.003 191.931 153.619 189.73 155.081ZM200.738 156.603C191.859 161.304 192.191 185.984 194.761 193.203C198.894 202.881 208.214 198.585 216.731 194.089L216.745 194.081C217.409 193.725 218.071 193.378 218.726 193.034C224.329 190.093 229.437 187.411 230.846 181.809C231.307 179.716 231.044 177.481 230.054 175.142C226.735 168.406 209.647 152.142 200.738 156.603ZM188.475 164.262C190.38 167.277 191.163 170.867 190.621 174.127C190.198 176.694 188.962 178.868 187.156 180.246C182.519 183.765 176.105 181.003 173.085 175.99C171.362 173.237 170.669 170.154 171.143 167.285C171.573 164.694 172.921 162.404 174.95 160.872C179.402 157.468 185.092 158.902 188.475 164.262Z" fill="#04A427"/>
</svg>
