<svg width="32" height="32" viewBox="0 0 32 32" fill="none" xmlns="http://www.w3.org/2000/svg">
<path fill-rule="evenodd" clip-rule="evenodd" d="M29.0317 8.85749C29.0407 8.8527 29.0497 8.8479 29.0581 8.84311C29.1756 8.77658 29.2835 8.71545 29.3775 8.62076C29.4848 8.51288 29.5723 8.39721 29.6407 8.23899C29.6508 8.47812 29.6005 8.6717 29.5082 8.86049C29.5046 8.86708 29.5016 8.87367 29.498 8.88026C29.6838 8.91203 29.86 8.97136 30.0068 9.04568C29.842 9.04867 29.6622 9.08763 29.477 9.14277C29.3979 9.16674 29.3248 9.19611 29.2595 9.23147C29.3224 9.37351 29.3518 9.50536 29.3548 9.62703C29.362 9.87275 29.2697 10.0891 29.1019 10.2875C28.8987 10.529 28.5727 10.746 28.2185 10.9773C27.7246 11.2997 27.2002 11.6821 26.6422 11.8859C26.2551 12.0273 25.8847 12.1112 25.5443 12.2245C25.09 12.3761 24.692 12.5835 24.393 13.1181C24.0873 13.6635 24.0747 14.1795 24.1616 14.6967C24.2569 15.2642 24.4661 15.8342 24.5842 16.4431C24.746 17.2768 24.6627 18.0601 24.3139 18.8428C24.1563 19.1952 23.9117 19.5003 23.6037 19.7316C23.295 19.9641 22.9576 20.1421 22.5908 20.2638C22.1245 20.419 21.6019 20.47 21.1201 20.3633C20.7599 20.2836 20.4027 20.1541 20.0803 19.9755C18.8391 19.2875 18.6029 18.1368 18.7366 16.8974C18.86 15.7509 19.3077 14.5295 19.4618 13.5939C19.5445 13.0911 19.5007 12.4516 19.276 11.9284C19.0686 11.4448 18.7012 11.06 18.1133 11.0228C17.5032 10.9839 16.8307 11.2044 16.3734 11.606C15.9419 11.9848 15.7088 12.5331 15.9419 13.1786C16.1835 13.8469 16.5065 14.584 16.8889 15.1833C17.3695 15.9379 17.979 16.7032 18.2895 17.5489C19.1501 19.8916 18.0444 23.0488 15.6561 23.9988C15.0268 24.2493 14.286 24.4099 13.6088 24.3212C12.7535 24.2085 12.0254 23.7429 11.4536 23.0944C10.6188 22.1481 10.1189 20.8128 10.035 19.6777C9.92594 18.2147 10.4863 16.5648 10.5504 15.1024C10.5708 14.6296 10.5948 14.1309 10.5211 13.6826C10.4222 13.0815 10.1333 12.5787 9.35658 12.4109C8.58645 12.2449 7.94338 12.4055 7.54423 12.8112C7.14628 13.2158 7.00303 13.8534 7.19602 14.608C7.42616 15.507 7.88944 16.3994 8.3707 17.1893C8.84955 17.9768 9.35838 18.6612 9.49502 19.6009C9.64725 20.6516 9.46507 21.8065 8.54211 22.4627C8.20229 22.7042 7.75459 22.8936 7.35305 22.9805C7.00364 23.0554 6.50021 23.0614 6.14182 23.0267C5.25782 22.9422 4.66689 22.4238 4.31328 21.6584C4.00463 20.9914 3.93571 20.2572 3.86439 19.5272C3.79847 18.8554 3.73133 18.1865 3.42089 17.5914C3.13741 17.0484 2.66935 16.7032 2.11377 16.4725C1.88723 16.3784 1.65289 16.2975 1.41615 16.2328C1.39338 16.2262 1.1998 16.1824 1.16144 16.168C1.00262 16.1087 0.999029 15.9685 0.999628 15.9379C0.999628 15.9283 1.04159 15.6844 1.27472 15.7018C1.37541 15.7095 1.88243 15.7647 1.93876 15.7707C2.68192 15.8492 3.44307 16.1872 3.94351 16.7542C4.51286 17.3972 4.71783 18.135 4.85208 18.8901C4.97554 19.5848 5.03547 20.2932 5.32015 20.9386C5.46219 21.2617 5.76604 21.4217 6.09567 21.4672C6.45406 21.5164 6.84601 21.4349 7.13729 21.2569C7.55261 21.004 7.99612 20.5563 7.8343 19.9953C7.67548 19.4451 7.2985 18.892 6.88437 18.3466C6.44747 17.7706 5.96741 17.2055 5.6258 16.6679C5.12476 15.8786 4.79154 14.6739 4.83469 13.5478C4.86406 12.7771 5.06963 12.0441 5.50115 11.4951C6.1646 10.6519 7.00964 10.1017 8.03088 9.93448C8.86994 9.79723 9.79648 9.85716 10.596 10.1802C11.1174 10.3912 11.5441 10.5937 11.9133 11.0091C12.2537 11.392 12.5294 11.8217 12.7523 12.2826C13.3768 13.5694 13.2084 14.8807 12.8902 16.1854C12.5911 17.4128 12.156 18.633 12.2243 19.8185C12.3023 21.176 13.8137 21.843 14.9734 21.2713C15.5512 20.9866 15.8323 20.4244 15.906 19.8245C15.9827 19.2 15.8371 18.53 15.5416 18.0535C15.1688 17.4518 14.8146 16.7482 14.4352 16.1518C13.0778 14.0177 12.2615 11.4627 14.2393 9.3843C14.7912 8.80415 15.9006 8.20603 16.6659 8.08197C18.7132 7.75054 21.1902 8.39721 22.0466 10.5152C22.45 11.5125 22.4296 12.4948 22.23 13.4711C22.0382 14.4084 21.6799 15.3392 21.3952 16.2705C21.3221 16.5102 21.2501 16.9292 21.3125 17.2948C21.3634 17.5896 21.5108 17.8509 21.8806 17.8689C22.4368 17.8959 22.93 17.5087 22.8599 16.9927C22.6879 15.7299 22.293 14.6727 22.5303 13.3962C22.7119 12.4181 23.1925 11.6659 24.0268 10.9102C24.3894 10.5817 24.7592 10.4055 25.1505 10.1209C25.2962 10.0154 25.3034 9.87095 25.3501 9.7409C25.407 9.58507 25.4867 9.43644 25.6623 9.30938C26.1574 8.95338 27.3207 8.57701 28.1028 8.54045C28.3257 8.52967 28.5199 8.54705 28.6668 8.59259C28.8022 8.63395 28.9041 8.70047 28.9724 8.78317C28.9934 8.80835 29.0132 8.83292 29.0317 8.85749ZM28.759 9.30399C28.8346 9.42745 28.8729 9.53773 28.8759 9.64081C28.8807 9.80742 28.7836 9.94107 28.6476 10.0717C28.4678 10.2449 28.2191 10.4043 27.956 10.5757C27.4921 10.879 27.0024 11.244 26.478 11.4352C26.0951 11.5748 25.7289 11.6575 25.3927 11.7696C24.8305 11.9572 24.345 12.2221 23.9747 12.8837C23.6085 13.5382 23.5851 14.1555 23.6888 14.7764C23.7847 15.3476 23.9944 15.9217 24.1131 16.5342C24.2563 17.269 24.1832 17.9582 23.8758 18.6474C23.7517 18.9255 23.5587 19.1658 23.3154 19.3486C23.0487 19.5494 22.7568 19.7034 22.4398 19.8089C22.0538 19.9372 21.6223 19.9833 21.2238 19.8952C20.9079 19.8251 20.5951 19.7124 20.3122 19.556C19.267 18.9765 19.1004 17.993 19.213 16.9483C19.3359 15.8114 19.7818 14.6002 19.9352 13.6719C20.0311 13.0887 19.9778 12.3467 19.7171 11.739C19.4384 11.0912 18.9314 10.5943 18.1439 10.544C16.6467 10.4493 14.8847 11.6647 15.4906 13.3416C15.7436 14.0416 16.084 14.813 16.4843 15.4411C16.9476 16.1668 17.5403 16.8998 17.8394 17.7143C18.6179 19.8323 17.638 22.6941 15.4787 23.5535C14.9225 23.7746 14.2698 23.9245 13.6711 23.8459C12.9321 23.7483 12.3076 23.3377 11.8126 22.7768C11.0473 21.9089 10.5906 20.6833 10.5133 19.6417C10.4054 18.1973 10.9664 16.5684 11.0293 15.1234C11.0515 14.6176 11.073 14.0842 10.9939 13.6047C10.8639 12.8154 10.4779 12.1622 9.45727 11.9422C8.49655 11.7348 7.70065 11.968 7.20202 12.475C6.70218 12.9838 6.48882 13.7785 6.73154 14.7267C6.97307 15.6712 7.45612 16.6091 7.96135 17.4386C8.40605 18.1698 8.89391 18.7973 9.02037 19.6699C9.14742 20.5473 9.03474 21.5242 8.26401 22.072C7.97514 22.2775 7.59338 22.4375 7.25176 22.5119C6.94491 22.5778 6.50201 22.5796 6.18737 22.5496C5.48796 22.4825 5.02828 22.063 4.74839 21.4571C4.46252 20.8392 4.40798 20.1571 4.34145 19.4805C4.27852 18.8386 4.206 18.2015 3.96148 17.6172C4.18922 18.0469 4.2971 18.5078 4.3804 18.9747C4.51045 19.7064 4.58178 20.4514 4.88084 21.1322C5.0942 21.6159 5.5359 21.8742 6.03034 21.9419C6.49661 22.0066 7.00784 21.8976 7.38721 21.6662C7.96915 21.3114 8.52172 20.6486 8.29518 19.8623C8.12197 19.2617 7.71864 18.6522 7.26675 18.0571C6.83763 17.4919 6.36536 16.9382 6.03094 16.4108C5.57365 15.6916 5.2746 14.5924 5.31415 13.5658C5.33932 12.9011 5.50593 12.2652 5.87811 11.7918C6.46424 11.0468 7.20682 10.5554 8.1082 10.4073C8.86334 10.2839 9.697 10.3342 10.4168 10.6249C10.8651 10.8059 11.2373 10.9707 11.5549 11.3279C11.8659 11.6779 12.1171 12.0711 12.3208 12.4918C12.8938 13.6718 12.7164 14.8753 12.4245 16.0721C12.1135 17.3463 11.6748 18.6157 11.7455 19.8461C11.8438 21.5523 13.728 22.4202 15.185 21.7016C15.9156 21.3414 16.2889 20.642 16.3818 19.8826C16.4723 19.1485 16.2967 18.3616 15.9491 17.8012C15.5751 17.1977 15.2204 16.4929 14.8398 15.8947C13.5998 13.9451 12.7799 11.6132 14.5869 9.71512C15.0771 9.19911 16.0624 8.66571 16.7426 8.55544C18.5832 8.25757 20.8324 8.79097 21.6019 10.695C21.9675 11.5988 21.9412 12.49 21.7602 13.3746C21.5714 14.2975 21.2166 15.2139 20.9367 16.1303C20.8474 16.4215 20.7641 16.9316 20.8402 17.3757C20.9283 17.8893 21.213 18.3166 21.8573 18.3478C22.7251 18.3897 23.4449 17.7323 23.3352 16.928C23.1698 15.7179 22.7742 14.7069 23.0014 13.4837C23.1638 12.6087 23.6025 11.941 24.3486 11.2656C24.698 10.9497 25.0558 10.7831 25.4328 10.5086C25.6072 10.3816 25.6863 10.2329 25.7427 10.0771C25.7894 9.94706 25.7966 9.80382 25.9428 9.69834C26.3851 9.3801 27.4268 9.05227 28.1256 9.01931C28.2604 9.01272 28.3815 9.01751 28.4798 9.03849C28.5331 9.05047 28.5786 9.05947 28.6032 9.08883C28.6566 9.15296 28.7015 9.21349 28.7393 9.27162C28.7423 9.27822 28.7465 9.28481 28.7507 9.29141C28.7537 9.2956 28.7561 9.29979 28.759 9.30399Z" fill="#095119" stroke="#095119" stroke-width="0.4"/>
</svg>
