<svg aria-hidden="true" style="position: absolute; width: 0; height: 0; overflow: hidden;" version="1.1" xmlns="http://www.w3.org/2000/svg" xmlns:xlink="http://www.w3.org/1999/xlink">
<defs>
<symbol id="icon-burger" viewBox="0 0 74 32">
<path fill="#04a427" style="fill: var(--color1, #04a427)" d="M3.2 12.8h67.2c1.767 0 3.2 1.433 3.2 3.2s-1.433 3.2-3.2 3.2h-67.2c-1.767 0-3.2-1.433-3.2-3.2s1.433-3.2 3.2-3.2z"></path>
<path fill="#04a427" style="fill: var(--color1, #04a427)" d="M28.8 0h41.6c1.767 0 3.2 1.433 3.2 3.2s-1.433 3.2-3.2 3.2h-41.6c-1.767 0-3.2-1.433-3.2-3.2s1.433-3.2 3.2-3.2z"></path>
<path fill="#04a427" style="fill: var(--color1, #04a427)" d="M3.2 25.594h41.6c1.767 0 3.2 1.433 3.2 3.2s-1.433 3.2-3.2 3.2h-41.6c-1.767 0-3.2-1.433-3.2-3.2s1.433-3.2 3.2-3.2z"></path>
</symbol>
<symbol id="icon-call" viewBox="0 0 32 32">
<path fill="#fff" style="fill: var(--color2, #fff)" d="M16.233 0.444h0c8.481 0 15.357 6.875 15.357 15.357v0c0 8.481-6.875 15.357-15.357 15.357h-0c-8.481 0-15.357-6.875-15.357-15.357v-0c0-8.481 6.875-15.357 15.357-15.357z"></path>
<path stroke="#095119" style="stroke: var(--color3, #095119)" stroke-linejoin="miter" stroke-linecap="butt" stroke-miterlimit="4" stroke-width="0.8301" d="M16.233 0.444h0c8.481 0 15.357 6.875 15.357 15.357v0c0 8.481-6.875 15.357-15.357 15.357h-0c-8.481 0-15.357-6.875-15.357-15.357v-0c0-8.481 6.875-15.357 15.357-15.357z"></path>
<path fill="#095119" style="fill: var(--color3, #095119); stroke: var(--color3, #095119)" stroke="#095119" stroke-linejoin="miter" stroke-linecap="butt" stroke-miterlimit="4" stroke-width="0.332" d="M27.671 10.599c-0.015-0.020-0.032-0.041-0.049-0.062-0.057-0.069-0.141-0.124-0.254-0.158-0.122-0.038-0.283-0.052-0.468-0.043-0.649 0.030-1.615 0.343-2.026 0.638-0.146 0.105-0.212 0.229-0.259 0.358-0.039 0.108-0.045 0.228-0.166 0.315-0.325 0.236-0.632 0.383-0.933 0.655-0.692 0.627-1.091 1.252-1.242 2.064-0.197 1.060 0.131 1.937 0.274 2.985 0.058 0.428-0.351 0.75-0.813 0.727-0.307-0.015-0.429-0.232-0.471-0.477-0.052-0.303 0.008-0.651 0.069-0.85 0.236-0.773 0.534-1.546 0.693-2.324 0.166-0.81 0.183-1.626-0.152-2.454-0.711-1.758-2.767-2.295-4.466-2.020-0.635 0.103-1.556 0.599-2.014 1.081-1.642 1.725-0.964 3.846 0.163 5.618 0.315 0.495 0.609 1.079 0.918 1.578 0.245 0.396 0.366 0.952 0.303 1.47-0.061 0.498-0.295 0.965-0.774 1.201-0.963 0.475-2.217-0.079-2.282-1.206-0.057-0.984 0.305-1.997 0.553-3.016 0.264-1.083 0.404-2.172-0.114-3.24-0.185-0.383-0.414-0.739-0.697-1.057-0.306-0.345-0.661-0.513-1.093-0.688-0.664-0.268-1.433-0.318-2.129-0.204-0.848 0.139-1.549 0.595-2.1 1.296-0.358 0.456-0.529 1.064-0.553 1.704-0.036 0.935 0.241 1.935 0.657 2.59 0.284 0.446 0.682 0.915 1.045 1.393 0.344 0.453 0.657 0.912 0.789 1.369 0.134 0.466-0.234 0.837-0.579 1.047-0.242 0.148-0.567 0.215-0.865 0.175-0.274-0.038-0.526-0.171-0.644-0.439-0.236-0.536-0.286-1.124-0.389-1.7-0.111-0.627-0.282-1.239-0.754-1.773-0.415-0.471-1.047-0.751-1.664-0.816-0.047-0.005-0.468-0.051-0.551-0.057-0.194-0.014-0.228 0.188-0.228 0.196-0 0.025 0.003 0.142 0.134 0.191 0.032 0.012 0.193 0.048 0.211 0.054 0.197 0.054 0.391 0.121 0.579 0.199 0.461 0.192 0.85 0.478 1.085 0.929 0.258 0.494 0.313 1.049 0.368 1.607 0.059 0.606 0.116 1.215 0.373 1.769 0.293 0.635 0.784 1.066 1.518 1.136 0.297 0.029 0.715 0.024 1.005-0.038 0.333-0.072 0.705-0.229 0.987-0.43 0.766-0.545 0.917-1.503 0.791-2.375-0.113-0.78-0.536-1.348-0.933-2.002-0.399-0.656-0.784-1.397-0.975-2.143-0.16-0.626-0.041-1.156 0.289-1.491 0.331-0.337 0.865-0.47 1.504-0.332 0.645 0.139 0.885 0.557 0.967 1.056 0.061 0.372 0.041 0.786 0.024 1.179-0.053 1.214-0.518 2.584-0.428 3.798 0.070 0.942 0.485 2.051 1.178 2.836 0.475 0.538 1.079 0.925 1.789 1.018 0.562 0.074 1.177-0.060 1.699-0.268 1.983-0.789 2.9-3.409 2.186-5.354-0.258-0.702-0.764-1.337-1.163-1.964-0.317-0.497-0.586-1.109-0.786-1.664-0.193-0.536 0-0.991 0.358-1.305 0.38-0.333 0.938-0.516 1.444-0.484 0.488 0.031 0.793 0.35 0.965 0.752 0.187 0.434 0.223 0.965 0.154 1.383-0.128 0.777-0.5 1.791-0.602 2.742-0.111 1.029 0.085 1.984 1.115 2.555 0.268 0.148 0.564 0.256 0.863 0.322 0.4 0.088 0.834 0.046 1.221-0.083 0.305-0.101 0.585-0.249 0.841-0.442 0.256-0.192 0.459-0.445 0.59-0.738 0.29-0.65 0.359-1.3 0.224-1.992-0.098-0.505-0.272-0.979-0.351-1.45-0.072-0.429-0.062-0.858 0.192-1.31 0.248-0.444 0.579-0.616 0.956-0.742 0.283-0.094 0.59-0.164 0.911-0.281 0.463-0.169 0.898-0.487 1.308-0.754 0.294-0.192 0.565-0.372 0.733-0.573 0.139-0.165 0.216-0.344 0.21-0.548-0.002-0.101-0.027-0.21-0.079-0.328 0.054-0.029 0.115-0.054 0.181-0.074 0.154-0.046 0.303-0.078 0.44-0.081-0.122-0.062-0.268-0.111-0.422-0.137 0.003-0.005 0.005-0.011 0.008-0.016 0.077-0.157 0.118-0.317 0.11-0.516-0.057 0.131-0.129 0.227-0.218 0.317-0.078 0.079-0.168 0.129-0.265 0.185-0.007 0.004-0.015 0.008-0.022 0.012zM27.445 10.969c0.063 0.102 0.095 0.194 0.097 0.28 0.004 0.138-0.077 0.249-0.19 0.358-0.149 0.144-0.356 0.276-0.574 0.418-0.385 0.252-0.791 0.555-1.227 0.713-0.318 0.116-0.622 0.185-0.901 0.278-0.467 0.156-0.87 0.376-1.177 0.925-0.304 0.543-0.323 1.056-0.237 1.571 0.080 0.474 0.254 0.951 0.352 1.459 0.119 0.61 0.058 1.182-0.197 1.754-0.103 0.231-0.263 0.43-0.465 0.582-0.221 0.167-0.464 0.295-0.727 0.382-0.32 0.106-0.679 0.145-1.009 0.072-0.262-0.058-0.522-0.152-0.757-0.282-0.868-0.481-1.006-1.297-0.912-2.165 0.102-0.944 0.472-1.949 0.599-2.72 0.079-0.484 0.035-1.1-0.181-1.604-0.231-0.538-0.652-0.95-1.306-0.992-1.243-0.079-2.705 0.93-2.202 2.322 0.21 0.581 0.492 1.221 0.825 1.743 0.385 0.602 0.877 1.211 1.125 1.887 0.646 1.758-0.167 4.134-1.96 4.847-0.462 0.183-1.003 0.308-1.5 0.243-0.613-0.081-1.132-0.422-1.543-0.887-0.635-0.72-1.014-1.738-1.079-2.602-0.090-1.199 0.376-2.551 0.428-3.751 0.018-0.42 0.036-0.863-0.029-1.261-0.108-0.655-0.428-1.197-1.276-1.38-0.797-0.172-1.458 0.021-1.872 0.442-0.415 0.422-0.592 1.082-0.391 1.869 0.2 0.784 0.601 1.563 1.021 2.251 0.369 0.607 0.774 1.128 0.879 1.852 0.105 0.728 0.012 1.539-0.628 1.994-0.24 0.171-0.557 0.303-0.84 0.365-0.255 0.055-0.622 0.056-0.884 0.031-0.581-0.056-0.962-0.404-1.194-0.907-0.237-0.513-0.283-1.079-0.338-1.641-0.052-0.533-0.112-1.062-0.315-1.547 0.189 0.357 0.279 0.739 0.348 1.127 0.108 0.607 0.167 1.226 0.415 1.791 0.177 0.401 0.544 0.616 0.954 0.672 0.387 0.054 0.811-0.037 1.126-0.229 0.483-0.295 0.942-0.845 0.754-1.497-0.144-0.498-0.479-1.004-0.854-1.498-0.356-0.469-0.748-0.929-1.026-1.367-0.38-0.597-0.628-1.509-0.595-2.362 0.021-0.552 0.159-1.079 0.468-1.473 0.487-0.618 1.103-1.026 1.851-1.149 0.627-0.102 1.319-0.061 1.916 0.181 0.372 0.15 0.681 0.287 0.945 0.584 0.258 0.29 0.467 0.617 0.636 0.966 0.476 0.98 0.328 1.978 0.086 2.972-0.258 1.058-0.622 2.111-0.564 3.133 0.082 1.416 1.646 2.137 2.855 1.54 0.606-0.299 0.916-0.88 0.993-1.51 0.075-0.609-0.071-1.263-0.359-1.728-0.311-0.501-0.605-1.086-0.921-1.583-1.029-1.618-1.71-3.554-0.21-5.13 0.407-0.428 1.225-0.871 1.79-0.963 1.528-0.247 3.395 0.196 4.034 1.776 0.303 0.75 0.282 1.49 0.131 2.224-0.157 0.766-0.451 1.527-0.684 2.287-0.074 0.242-0.143 0.665-0.080 1.034 0.073 0.426 0.31 0.781 0.844 0.807 0.72 0.035 1.318-0.511 1.227-1.179-0.137-1.004-0.466-1.844-0.277-2.859 0.135-0.726 0.499-1.28 1.118-1.841 0.29-0.262 0.587-0.401 0.9-0.628 0.145-0.105 0.21-0.229 0.257-0.358 0.039-0.108 0.045-0.227 0.166-0.314 0.367-0.264 1.232-0.536 1.812-0.564 0.112-0.005 0.212-0.002 0.294 0.016 0.044 0.010 0.082 0.017 0.103 0.042 0.044 0.053 0.082 0.103 0.113 0.152 0.002 0.005 0.006 0.011 0.009 0.016 0.002 0.003 0.004 0.007 0.007 0.010z"></path>
</symbol>
<symbol id="icon-logo" viewBox="0 0 35 32">
<path fill="#fff" style="fill: var(--color1, #fff)" d="M34.592 6.684c0.141-0.209 0.152-0.483 0.030-0.702-0.126-0.224-0.364-0.364-0.626-0.364h-4.31c-0.647 0.005-1.278 0.13-1.874 0.383-0.045 0.020-0.086 0.035-0.126 0.055-0.677 0.309-1.268 0.807-1.713 1.439l-0.758 1.121c-0.096-0.025-0.177-0.045-0.192-0.050-0.096-0.025-0.192-0.045-0.288-0.065-0.025-0.005-0.045-0.010-0.066-0.015-0.677-3.058-1.667-5.498-2.471-7.177-0.237-0.498-0.697-0.852-1.243-0.961-0.935-0.184-2.036-0.329-3.279-0.349-0.040 0-0.086 0-0.126 0-0.121 0-0.243 0-0.369 0-0.121 0-0.237 0-0.359 0.005-0.116 0-0.232 0.005-0.354 0.010-0.111 0.005-0.227 0.010-0.344 0.020-0.111 0.010-0.222 0.015-0.333 0.025s-0.217 0.015-0.328 0.030c-0.106 0.010-0.212 0.025-0.318 0.035-0.101 0.010-0.207 0.025-0.308 0.040s-0.197 0.025-0.298 0.045c-0.096 0.015-0.192 0.030-0.288 0.045-0.091 0.015-0.187 0.030-0.278 0.050-0.035 0.005-0.066 0.010-0.101 0.020-0.051 0.010-0.101 0.020-0.152 0.030-0.167 0.040-0.389 0.12-0.616 0.289-0.273 0.204-0.419 0.438-0.485 0.568-0.010 0.020-0.020 0.045-0.030 0.065-0.025 0.055-0.051 0.105-0.076 0.159s-0.051 0.11-0.076 0.164c-0.025 0.055-0.056 0.11-0.081 0.164-0.025 0.060-0.056 0.115-0.081 0.174s-0.056 0.12-0.081 0.174c-0.025 0.060-0.056 0.12-0.081 0.179s-0.056 0.124-0.081 0.184c-0.030 0.060-0.056 0.124-0.081 0.189s-0.056 0.13-0.081 0.194c-0.030 0.065-0.056 0.13-0.081 0.199-0.030 0.070-0.056 0.134-0.086 0.199-0.025 0.070-0.056 0.139-0.081 0.209s-0.056 0.139-0.081 0.209c-0.025 0.070-0.056 0.139-0.081 0.214-0.030 0.070-0.056 0.144-0.081 0.214-0.030 0.075-0.056 0.149-0.081 0.224-0.030 0.075-0.056 0.149-0.081 0.224s-0.056 0.154-0.081 0.229c-0.025 0.075-0.056 0.154-0.081 0.234s-0.056 0.159-0.081 0.239c-0.025 0.080-0.056 0.159-0.081 0.239s-0.051 0.164-0.076 0.244c-0.025 0.085-0.051 0.164-0.076 0.249s-0.051 0.169-0.076 0.254c-0.025 0.085-0.051 0.169-0.076 0.254-0.025 0.090-0.051 0.174-0.076 0.259-0.025 0.090-0.051 0.174-0.076 0.264s-0.051 0.179-0.071 0.269c-0.025 0.090-0.051 0.179-0.071 0.269-0.025 0.090-0.045 0.179-0.071 0.274s-0.045 0.184-0.066 0.279c-0.020 0.095-0.045 0.189-0.066 0.279-0.005 0.030-0.010 0.055-0.020 0.085-0.152 0.035-0.384 0.090-0.586 0.134l-0.763-1.111c-0.44-0.628-1.031-1.126-1.708-1.434-0.040-0.020-0.086-0.040-0.126-0.055-0.591-0.254-1.223-0.378-1.874-0.383h-4.31c-0.263 0-0.505 0.139-0.626 0.364s-0.111 0.493 0.025 0.702l2.738 4.198c-0.030 0.015-0.061 0.030-0.096 0.045-0.485 0.224-0.834 0.662-0.935 1.18-0.187 0.926-0.333 2.027-0.354 3.262-0.005 0.239-0.005 0.478 0 0.722 0.005 0.229 0.015 0.458 0.030 0.687 0.015 0.219 0.030 0.438 0.051 0.657 0.020 0.209 0.045 0.413 0.071 0.623 0.005 0.055 0.015 0.11 0.020 0.164 0 0 0 0 0 0.005 0.020 0.139 0.040 0.279 0.066 0.418 0.010 0.050 0.015 0.105 0.025 0.154 0 0.005 0 0.010 0.005 0.020 0 0.015 0.005 0.030 0.005 0.040 0.056 0.204 0.152 0.478 0.338 0.767 0.253 0.393 0.551 0.647 0.753 0.787 0.030 0.015 0.066 0.030 0.096 0.045 0.096 0.045 0.192 0.090 0.288 0.135l0.071 0.035c0.116 0.055 0.237 0.105 0.359 0.159s0.248 0.105 0.374 0.159c0.131 0.055 0.263 0.11 0.389 0.159 0.136 0.055 0.273 0.11 0.404 0.159 0.141 0.055 0.283 0.11 0.424 0.164 0.147 0.055 0.293 0.11 0.44 0.159 0.152 0.055 0.303 0.11 0.455 0.159 0.157 0.055 0.313 0.11 0.47 0.159 0.162 0.055 0.323 0.105 0.485 0.154 0.167 0.055 0.333 0.105 0.5 0.154 0.172 0.050 0.344 0.1 0.52 0.149s0.354 0.1 0.531 0.144c0.182 0.050 0.364 0.095 0.546 0.139 0.187 0.045 0.374 0.090 0.561 0.134 0.096 0.020 0.192 0.040 0.283 0.065 0.672 3.048 1.662 5.483 2.46 7.162 0.243 0.508 0.712 0.872 1.268 0.981 0.93 0.184 2.026 0.324 3.259 0.344 0.243 0.005 0.485 0.005 0.733 0 0.232-0.005 0.465-0.015 0.697-0.030 0.222-0.015 0.445-0.030 0.667-0.050 0.212-0.020 0.419-0.045 0.632-0.070 0.197-0.025 0.399-0.055 0.596-0.085 0.187-0.030 0.369-0.060 0.556-0.1 0.056-0.010 0.106-0.020 0.157-0.030 0.020-0.005 0.040-0.010 0.066-0.015 0.141-0.035 0.394-0.12 0.611-0.319 0.086-0.080 0.157-0.164 0.207-0.239 0.035-0.070 0.071-0.139 0.106-0.214 0.010-0.025 0.025-0.050 0.035-0.075v-0.005c0.040-0.080 0.076-0.159 0.116-0.239 0.035-0.075 0.071-0.149 0.106-0.224 0.015-0.035 0.035-0.070 0.051-0.11 0.056-0.115 0.106-0.234 0.162-0.349 0.056-0.125 0.111-0.244 0.162-0.369 0.056-0.13 0.111-0.254 0.167-0.384 0.056-0.134 0.111-0.264 0.167-0.398 0.056-0.139 0.111-0.279 0.167-0.418 0.056-0.144 0.111-0.289 0.167-0.433 0.056-0.149 0.111-0.299 0.162-0.448 0.056-0.154 0.111-0.309 0.162-0.463 0.056-0.159 0.106-0.319 0.162-0.478 0.056-0.164 0.106-0.329 0.157-0.498s0.101-0.339 0.152-0.508c0.051-0.174 0.101-0.349 0.147-0.523 0.051-0.179 0.096-0.359 0.141-0.538 0.045-0.184 0.091-0.369 0.136-0.553 0.025-0.1 0.045-0.199 0.071-0.299 3.193-0.687 5.729-1.708 7.437-2.515 0.414-0.194 0.707-0.568 0.798-1.011 0.197-0.951 0.359-2.092 0.379-3.382l0.005-0.124c0-0.12 0-0.239 0-0.364 0-0.12-0.005-0.234-0.005-0.354-0.005-0.115-0.005-0.229-0.015-0.344-0.005-0.115-0.010-0.224-0.020-0.339-0.005-0.11-0.015-0.219-0.025-0.329-0.010-0.105-0.020-0.214-0.030-0.324-0.010-0.105-0.025-0.209-0.035-0.314-0.010-0.1-0.025-0.204-0.040-0.304s-0.030-0.194-0.045-0.294c-0.015-0.095-0.030-0.189-0.045-0.284s-0.030-0.184-0.051-0.274c-0.005-0.040-0.015-0.080-0.020-0.12-0.010-0.050-0.020-0.1-0.030-0.149s-0.020-0.1-0.030-0.149v-0.005c-0.045-0.149-0.131-0.334-0.278-0.508-0.106-0.125-0.222-0.219-0.328-0.294h-0.005c-0.045-0.025-0.091-0.045-0.136-0.065-0.051-0.025-0.106-0.050-0.157-0.075-0.030-0.015-0.061-0.030-0.091-0.040l2.738-4.238zM21.638 25.126l-0.025 0.050c-0.040 0.090-0.091 0.174-0.141 0.264 0 0 0 0-0.005 0-0.728 1.111-1.935 1.893-3.259 2.137-0.051 0.010-0.101 0.015-0.152 0.025-0.040 0.005-0.076 0.010-0.116 0.015-0.015 0-0.030 0.005-0.045 0.005-0.106 0.010-0.212 0.020-0.318 0.025-0.056 0.005-0.111 0.005-0.167 0.005h-0.152c-0.030 0-0.056 0-0.086 0-0.025 0-0.056 0-0.081-0.005-0.045-0.005-0.091-0.005-0.141-0.010-1.602-0.154-3.036-1.295-3.915-2.654-0.005-0.005-0.005-0.005-0.005-0.010l-0.010-0.025-12.040-18.477h4.017c0.525 0.005 1.061 0.115 1.536 0.314 0.035 0.015 0.071 0.030 0.106 0.045 0.536 0.244 1.005 0.642 1.359 1.141l1.591 2.321c0.086-0.249 0.202-0.528 0.374-0.812 0.056-0.085 0.136-0.209 0.147-0.214 0.207-0.304 0.429-0.538 0.627-0.722 0.763-0.772 1.819-1.499 3.072-1.912 1.127-0.369 4.077-1.056 7.099 0.603 0.94 0.518 1.718 1.315 2.268 2.117 0.005 0.005 0.010 0.015 0.020 0.025l0.005 0.005c0.232 0.319 0.48 0.712 0.697 1.175 0.040 0.085 0.076 0.174 0.116 0.264 0.106 0.254 0.187 0.493 0.258 0.722l2.415-3.566c0.354-0.503 0.823-0.901 1.359-1.145 0.035-0.015 0.071-0.030 0.106-0.045 0.48-0.199 1.011-0.309 1.536-0.314h4.022l-12.070 18.656z"></path>
<path d="M21.264 21.614c-0.121 0.453-0.333 0.822-0.571 1.116-0.47 0.578-1.142 0.956-1.88 1.111-1.162 0.244-3.375 0.473-5.537-0.667-0.551-0.289-1.698-0.911-2.526-2.236-1.435-2.286-0.753-4.771-0.606-5.264 0.374 0.857 1.177 2.326 2.804 3.407 0.515 0.339 2.602 1.34 4.542 1.046 0.399-0.060 1.207-0.359 1.369-1.131 0.121-0.568-0.207-1.16-0.333-1.325 0.243 0.035 1.354 0.209 2.142 1.2 0.116 0.149 0.985 1.28 0.596 2.744z"></path>
<path d="M15.772 11.319c-0.076-0.115-0.344-0.075-0.611 0.090-0.263 0.159-0.419 0.388-0.344 0.503s0.344 0.075 0.606-0.085c0.268-0.169 0.424-0.393 0.349-0.508zM24.472 12.843c-0.061-0.105-0.131-0.209-0.202-0.319-0.020-0.025-0.040-0.055-0.061-0.085-0.020-0.035-0.045-0.070-0.076-0.105-0.010-0.015-0.025-0.035-0.035-0.050-0.056-0.075-0.111-0.154-0.177-0.229-0.045-0.060-0.096-0.12-0.147-0.179-0.081-0.1-0.162-0.189-0.243-0.274 0-0.005 0-0.005 0-0.010-0.030-0.11-0.066-0.219-0.101-0.334-0.005-0.010-0.005-0.025-0.010-0.035-0.005-0.005-0.005-0.015-0.005-0.020-0.025-0.075-0.051-0.149-0.081-0.219-0.005-0.015-0.010-0.025-0.015-0.040v-0.005c-0.035-0.095-0.076-0.184-0.106-0.274 0 0 0-0.005-0.005-0.010-0.056-0.12-0.111-0.234-0.167-0.334-0.465-0.867-1.283-1.912-2.43-2.54-2.804-1.539-5.547-0.901-6.593-0.558-0.722 0.239-1.374 0.588-1.93 0.991-0.051 0.040-0.106 0.075-0.157 0.115-0.015 0.010-0.030 0.020-0.045 0.030-0.232 0.174-0.52 0.428-0.803 0.762-0.015 0.020-0.030 0.035-0.045 0.055-0.020 0.020-0.035 0.045-0.056 0.070-0.010 0.010-0.020 0.025-0.025 0.035 0 0 0 0.005-0.005 0.005-0.010 0.010-0.015 0.020-0.025 0.030-0.030 0.040-0.061 0.085-0.096 0.13-0.010 0.015-0.020 0.025-0.025 0.040-0.015 0.020-0.025 0.040-0.040 0.060-0.005 0.005-0.010 0.015-0.015 0.020-0.010 0.015-0.020 0.025-0.030 0.040-0.015 0.025-0.030 0.050-0.045 0.075-0.045 0.075-0.091 0.149-0.141 0.234 0 0.005-0.005 0.005-0.005 0.010s-0.005 0.005-0.005 0.010c-0.005 0.010-0.010 0.020-0.015 0.030s-0.010 0.020-0.015 0.030c-0.010 0.015-0.015 0.025-0.020 0.040-0.040 0.075-0.076 0.149-0.111 0.224-0.121 0.264-0.207 0.518-0.273 0.742-0.030 0.11-0.056 0.209-0.076 0.309-0.025 0.124-0.045 0.239-0.061 0.344 0 0.005 0 0.010 0 0.020-0.035 0.329-0.040 0.662 0 1.001 0.081 0.752 0.344 1.365 0.606 1.818 0.177-0.13 0.389-0.194 0.935-0.483 0.152-0.080 0.531-0.254 0.692-0.339-0.101-0.274 0-0.583 0.232-0.767 0.248-0.199 0.51-0.428 0.783-0.692 0.273-0.269 0.51-0.538 0.712-0.792 0.293-0.369 0.662-0.672 1.086-0.877 0.005 0 0.005-0.005 0.010-0.005 0.424-0.209 0.813-0.294 1.081-0.334 0.657-0.125 3.34-0.578 5.997 1.016 2.016 1.21 2.93 2.938 3.254 3.636-0.157-0.553-0.414-1.265-0.869-2.012zM24.593 17.325c-0.293-1.494-1.137-2.465-1.546-2.874-1.591-1.594-3.617-1.708-4.102-1.728 0.333-0.065 0.712-0.115 1.122-0.144 0.616-0.040 1.172-0.015 1.642 0.040-0.531-0.184-1.541-0.458-2.779-0.264-0.101 0.015-0.202 0.035-0.298 0.055-0.616 0.129-1.192 0.393-1.718 0.742-0.914 0.608-1.733 0.872-2.253 0.996 0 0-1.415 0.339-2.157-0.11-0.035-0.020-0.071-0.025-0.141-0.105-0.293 0.164-0.571 0.339-0.874 0.513-0.227 0.13-0.495 0.274-0.723 0.379 0.136 0.194 0.258 0.344 0.339 0.438 1.293 1.554 3.132 1.868 4.037 2.022 1.283 0.219 2.405 0.095 3.218-0.090 1.566 0.085 2.925 1.021 3.481 2.381 0.667 1.654-0.177 3.143-0.288 3.332 0.379-0.149 2.016-0.832 2.784-2.59 0.576-1.3 0.359-2.485 0.258-2.993zM10.901 14.417c-0.116 0.030-0.237 0.075-0.339 0.080 0.066 0.115 0.136 0.219 0.197 0.309 0.051-0.060 0.136-0.144 0.202-0.204s0.47-0.364 0.525-0.398c-0.025 0.015-0.414 0.174-0.586 0.214z"></path>
<path fill="#fff" style="fill: var(--color1, #fff)" d="M10.532 9.912c-0.015 0.030-0.030 0.055-0.045 0.085 0.010-0.020 0.020-0.040 0.035-0.065 0-0.010 0.005-0.015 0.010-0.020z"></path>
<path fill="#fff" style="fill: var(--color1, #fff)" d="M10.831 9.441c-0.035 0.055-0.076 0.105-0.111 0.159 0.035-0.055 0.076-0.11 0.111-0.159z"></path>
<path fill="#fff" style="fill: var(--color1, #fff)" d="M11.033 9.174c-0.035 0.045-0.071 0.095-0.111 0.139 0.040-0.050 0.076-0.1 0.111-0.139z"></path>
</symbol>
<symbol id="icon-logoTitle" viewBox="0 0 85 22" fill="#fff">
<path d="M9.41052 10.0075C9.16564 11.3388 7.81509 12.4872 6.44228 12.4872H2.65034C2.50193 12.4872 2.47967 12.4726 2.57614 12.3409L9.06917 1.52227C9.14338 1.44912 9.05433 1.28088 8.9356 1.28088H2.08637C1.12912 1.28088 0.943601 1.20774 1.01781 0.76153C1.03265 0.703011 0.81003 0.666437 0.795188 0.724956L0.0457058 3.94349C0.0308646 4.01664 0.231221 4.05321 0.268324 4.00201C1.32205 1.83681 2.68745 1.59542 6.59069 1.59542C6.76136 1.59542 6.76136 1.61005 6.68716 1.74171L0.097651 12.597C0.0234449 12.6921 0.0976501 12.8384 0.194118 12.8384C2.99169 12.8384 6.38291 12.8384 9.18048 12.8749C9.29179 12.8749 9.35116 12.7652 9.35116 12.6921L9.6183 10.0075C9.6183 9.92704 9.43278 9.92704 9.41052 10.0075Z" fill="fff"/>
<path d="M17.8563 1.06836C14.8138 1.06836 11.252 3.04337 11.252 7.05923C11.252 10.3143 13.5969 13.0501 17.1959 13.0501C20.7578 13.0501 23.7854 10.3655 23.7854 6.92756C23.7854 3.95773 21.5518 1.06836 17.8563 1.06836ZM17.8192 12.5966C15.363 12.5966 13.5598 10.0071 13.5598 6.37894C13.5598 3.37985 14.8138 1.57309 17.1068 1.57309C19.8302 1.57309 21.4776 4.08939 21.4776 7.47617C21.4776 10.7605 19.9044 12.5966 17.8192 12.5966Z" fill="fff"/>
<path d="M32.2293 1.06836C29.1869 1.06836 25.625 3.04337 25.625 7.05923C25.625 10.3143 27.9699 13.0501 31.5763 13.0501C35.1382 13.0501 38.1658 10.3655 38.1658 6.92756C38.1584 3.95773 35.9248 1.06836 32.2293 1.06836ZM32.1922 12.5966C29.736 12.5966 27.9328 10.0071 27.9328 6.37894C27.9328 3.37985 29.1869 1.57309 31.4799 1.57309C34.2032 1.57309 35.8506 4.08939 35.8506 7.47617C35.8506 10.7605 34.2774 12.5966 32.1922 12.5966Z" fill="fff"/>
<path d="M55.8559 1.27344C55.2177 1.27344 54.8763 1.33195 54.1862 1.33195C53.2438 1.33195 52.7392 1.27344 52.0862 1.27344C52.012 1.27344 52.012 1.49288 52.0862 1.49288C53.0212 1.49288 53.4367 2.47307 52.9321 3.80438L50.513 10.1829L48.2646 5.50142L48.9547 3.67271C49.5187 2.1951 50.1939 1.49288 51.0399 1.49288C51.0993 1.49288 51.0993 1.27344 51.0399 1.27344C50.4759 1.27344 50.1939 1.33195 49.578 1.33195C48.4501 1.33195 48.7321 1.27344 48.3611 1.27344C48.2868 1.27344 48.2868 1.49288 48.3611 1.49288C48.9844 1.49288 48.9844 2.15853 48.4204 3.6215L47.9529 4.86503L47.1292 3.14604C46.4762 1.77816 46.454 1.5002 47.1292 1.5002C47.2034 1.5002 47.2034 1.28075 47.1292 1.28075C46.7137 1.28075 46.2684 1.33926 44.8585 1.33926C44.0719 1.33926 44.0719 1.28075 43.6935 1.28075C43.6193 1.28075 43.6193 1.5002 43.6935 1.5002C44.1461 1.5002 44.5023 1.99761 44.8956 2.81687L46.9808 7.1619L45.8009 10.2122L42.4246 3.14604C41.7715 1.77816 41.8235 1.5002 42.855 1.5002C42.9292 1.5002 42.9292 1.28075 42.855 1.28075C42.3504 1.28075 41.8012 1.33926 40.1316 1.33926C39.1966 1.33926 39.1966 1.28075 38.7588 1.28075C38.6846 1.28075 38.6846 1.5002 38.7588 1.5002C39.4712 1.5002 39.6567 1.71964 40.1835 2.81687L44.9698 12.8236C45.0069 12.9187 45.3483 12.9187 45.3854 12.8236L47.2776 7.81291L49.6819 12.8236C49.719 12.9187 50.0604 12.9187 50.0975 12.8236L53.5703 3.68734C54.0972 2.33409 54.958 1.50751 55.8781 1.50751C55.9078 1.49288 55.9078 1.27344 55.8559 1.27344Z" fill="fff"/>
<path d="M61.3336 12.611C60.1685 12.611 59.9978 12.4062 59.9978 11.3309V2.80175C59.9978 1.74841 60.1834 1.48507 61.3336 1.48507C61.4078 1.48507 61.4078 1.26562 61.3336 1.26562C60.6954 1.26562 59.8865 1.32415 58.9293 1.32415C58.0314 1.32415 57.1854 1.26562 56.525 1.26562C56.4656 1.26562 56.4656 1.48507 56.525 1.48507C57.6678 1.48507 57.8978 1.70452 57.8978 2.76517V11.3309C57.8978 12.4062 57.6752 12.611 56.525 12.611C56.4656 12.611 56.4656 12.8304 56.525 12.8304C57.178 12.8304 58.024 12.7938 58.9293 12.7938C59.8865 12.7938 60.6731 12.8304 61.3336 12.8304C61.4078 12.8304 61.4078 12.611 61.3336 12.611Z" fill="fff"/>
<path d="M71.8184 9.46608C71.3509 11.207 69.8074 12.3116 67.8632 12.3116H67.225C66.3049 12.3116 66.1564 12.1653 66.1564 11.2582V2.78761C66.1564 1.73427 66.342 1.49288 67.4922 1.49288C67.5664 1.49288 67.5664 1.27344 67.4922 1.27344C66.854 1.27344 66.0451 1.33195 65.1101 1.33195C64.2122 1.33195 63.3292 1.27344 62.7281 1.27344C62.6688 1.27344 62.6688 1.49288 62.7281 1.49288C63.8709 1.49288 64.0787 1.71233 64.0787 2.77298V11.3387C64.0787 12.414 63.8709 12.6188 62.7281 12.6188C62.6688 12.6188 62.6688 12.8382 62.7281 12.8382H71.5809C71.7887 12.8382 71.8629 12.7651 71.8629 12.5603C71.8629 11.5947 71.9594 10.3219 72.0336 9.50997C72.0261 9.4295 71.8406 9.39293 71.8184 9.46608Z" fill="fff"/>
<path d="M78.2378 1.23633C77.466 1.23633 76.2639 1.33142 75.3511 1.33142C74.4533 1.33142 73.6444 1.2729 72.984 1.2729C72.9098 1.2729 72.9098 1.49235 72.984 1.49235C74.1119 1.49235 74.3197 1.71179 74.3197 2.77245V11.3381C74.3197 12.4134 74.0971 12.6182 72.9469 12.6182C72.8875 12.6182 72.8875 12.8377 72.9469 12.8377C73.5999 12.8377 74.4458 12.8011 75.3511 12.8011C76.3455 12.8011 77.6961 12.9108 78.5049 12.9108C81.8664 12.9108 84.6937 10.5628 84.6937 6.86145C84.6937 3.67948 82.1262 1.23633 78.2378 1.23633ZM78.312 12.4866C76.7388 12.4866 76.3975 12.0623 76.3975 11.1333V2.80902C76.3975 1.80689 76.9614 1.64596 78.4233 1.64596C80.8424 1.64596 82.3859 4.1257 82.3859 7.27109C82.3859 10.6506 80.6791 12.4866 78.312 12.4866Z" fill="fff"/>
<path d="M79.9537 17.9336H79.4589L79.6295 18.3036L78.3072 20.9945H78.7935L78.8703 20.8516C78.8873 20.8179 78.9215 20.7843 78.9641 20.7507C79.0068 20.717 79.075 20.6834 79.1518 20.6582C79.2286 20.6245 79.3224 20.6077 79.4248 20.5825C79.5357 20.5657 79.6551 20.5572 79.7916 20.5572H80.7214L80.9176 20.9945H81.4124L79.9537 17.9336ZM79.9537 20.1116C79.7404 20.1116 79.5698 20.1284 79.4418 20.162C79.3139 20.1956 79.2286 20.2377 79.1688 20.2797L79.8428 18.8418L80.5082 20.1116H79.9537ZM76.6608 20.5488C76.6438 20.5488 76.6267 20.5488 76.6096 20.5488C76.5755 20.5488 76.5414 20.5488 76.4987 20.5404C76.4561 20.532 76.422 20.5152 76.3793 20.4984C76.3367 20.4732 76.294 20.4395 76.2513 20.3975C76.2087 20.3554 76.1575 20.2966 76.1063 20.2209L75.5604 19.4136L76.567 18.0009H76.0296L75.2533 19.1277C75.1679 19.1782 75.0656 19.2118 74.9717 19.2202C74.8694 19.237 74.7755 19.2454 74.6817 19.2454H74.477V18.0009H74.0334V21.0113H74.477V19.6911H74.7329C74.8097 19.6911 74.8779 19.6827 74.9547 19.6743C75.0315 19.6659 75.0997 19.6406 75.1765 19.6154L75.7651 20.5404C75.8333 20.6497 75.9016 20.7423 75.9698 20.8011C76.0381 20.86 76.0978 20.9104 76.1575 20.9441C76.2172 20.9777 76.2855 20.9945 76.3452 21.0029C76.4134 21.0113 76.4731 21.0198 76.5499 21.0198H76.712V20.5741C76.6949 20.5488 76.6779 20.5488 76.6608 20.5488ZM71.4656 17.9841V20.9945H71.9007V17.9841H71.4656ZM68.8893 17.9841V19.1529C68.8211 19.1866 68.7529 19.2034 68.6761 19.2118C68.5993 19.2202 68.5311 19.2286 68.4713 19.2286C68.4031 19.2286 68.3178 19.2202 68.224 19.2118C68.1301 19.2034 68.0363 19.195 67.9339 19.1781C67.8401 19.1697 67.7462 19.1613 67.6609 19.1445C67.5756 19.1361 67.5159 19.1277 67.4732 19.1277C67.405 19.1277 67.3453 19.1361 67.277 19.1445C67.2088 19.1529 67.1491 19.1782 67.0894 19.2034V17.9672H66.6458V20.9777H67.0894V19.6491C67.1491 19.6154 67.2173 19.5986 67.277 19.5902C67.3453 19.5734 67.405 19.5734 67.4732 19.5734C67.5159 19.5734 67.5841 19.5818 67.6609 19.5902C67.7462 19.5986 67.8315 19.607 67.9339 19.6238C68.0277 19.6322 68.1301 19.6406 68.224 19.6575C68.3178 19.6659 68.4031 19.6743 68.4713 19.6743C68.5311 19.6743 68.5993 19.6659 68.6761 19.6575C68.7529 19.6491 68.8211 19.6238 68.8808 19.5986V21.0029H69.3244V17.9925H68.8893V17.9841ZM64.0866 17.9841V20.9945H64.5216V17.9841H64.0866ZM59.6591 17.9841L59.8468 18.4297H60.1966C60.1795 18.5811 60.1624 18.7325 60.1368 18.8922C60.1112 19.0436 60.0857 19.195 60.0515 19.3463C60.0174 19.4977 59.9748 19.6406 59.915 19.7752C59.8553 19.9097 59.7956 20.0443 59.7103 20.1788C59.6506 20.2713 59.5994 20.3386 59.5482 20.3891C59.497 20.4395 59.4544 20.4816 59.4117 20.5068C59.3691 20.532 59.3264 20.5488 59.2923 20.5572C59.2582 20.5657 59.2155 20.5657 59.1814 20.5657H59.0961V21.0113H59.1814C59.2241 21.0113 59.2667 21.0113 59.3264 21.0029C59.3861 20.9945 59.4459 20.9861 59.5056 20.9693C59.5653 20.9525 59.6335 20.9188 59.6932 20.8852C59.7615 20.8516 59.8212 20.7927 59.8724 20.7338C59.9918 20.5909 60.1027 20.4227 60.188 20.2461C60.2733 20.0611 60.3416 19.8761 60.4013 19.6743C60.461 19.4725 60.5037 19.2706 60.5463 19.0604C60.5804 18.8502 60.606 18.6484 60.6316 18.455H61.5103V21.0198H61.9539V18.0093H59.6591V17.9841ZM57.4241 20.5488C57.407 20.5488 57.39 20.5488 57.3729 20.5488C57.3388 20.5488 57.2961 20.5488 57.262 20.5404C57.2279 20.532 57.1852 20.5152 57.1426 20.4984C57.0999 20.4732 57.0573 20.4395 57.0146 20.3975C56.972 20.3554 56.9208 20.2966 56.8696 20.2209L56.3236 19.4136L57.3302 18.0009H56.7928L56.0165 19.1277C55.9227 19.1782 55.8288 19.2118 55.735 19.2202C55.6326 19.237 55.5388 19.2454 55.445 19.2454H55.2402V18.0009H54.7966V21.0113H55.2402V19.6911H55.4961C55.5729 19.6911 55.6412 19.6827 55.7179 19.6743C55.7947 19.6659 55.863 19.6406 55.9397 19.6154L56.5283 20.5404C56.5966 20.6497 56.6648 20.7423 56.7331 20.8011C56.8013 20.8684 56.8611 20.9104 56.9208 20.9441C56.9805 20.9777 57.0487 20.9945 57.1084 21.0029C57.1767 21.0113 57.2364 21.0198 57.3132 21.0198H57.4753V20.5741C57.4497 20.5488 57.4326 20.5488 57.4241 20.5488ZM49.1834 17.9336H48.6886L48.8592 18.3036L47.537 20.9945H48.0232L48.1 20.8516C48.1171 20.8179 48.1512 20.7843 48.1938 20.7507C48.2365 20.717 48.3047 20.6834 48.3815 20.6582C48.4583 20.6245 48.5521 20.6077 48.6545 20.5825C48.7654 20.5657 48.8848 20.5572 49.0213 20.5572H49.9512L50.1474 20.9945H50.6507L49.1834 17.9336ZM49.1834 20.1116C48.9701 20.1116 48.7995 20.1284 48.6716 20.162C48.5436 20.1956 48.4583 20.2377 48.3986 20.2797L49.0725 18.8418L49.7379 20.1116H49.1834ZM45.3275 17.9841V19.1529C45.2593 19.1866 45.191 19.2034 45.1228 19.2118C45.046 19.2202 44.9778 19.2286 44.9181 19.2286C44.8498 19.2286 44.7645 19.2202 44.6707 19.2118C44.5768 19.2034 44.483 19.195 44.3806 19.1781C44.2868 19.1697 44.1929 19.1613 44.1076 19.1445C44.0223 19.1361 43.9626 19.1277 43.92 19.1277C43.8517 19.1277 43.792 19.1361 43.7238 19.1445C43.6555 19.1529 43.5958 19.1782 43.5361 19.2034V17.9672H43.0925V20.9777H43.5361V19.6491C43.5958 19.6154 43.664 19.5986 43.7238 19.5902C43.792 19.5734 43.8517 19.5734 43.92 19.5734C43.9626 19.5734 44.0309 19.5818 44.1076 19.5902C44.1929 19.5986 44.2783 19.607 44.3806 19.6238C44.4745 19.6322 44.5768 19.6406 44.6707 19.6575C44.7645 19.6659 44.8498 19.6743 44.9181 19.6743C44.9778 19.6743 45.046 19.6659 45.1228 19.6575C45.1996 19.6491 45.2678 19.6238 45.3275 19.5986V21.0029H45.7711V17.9925H45.3275V17.9841ZM41.156 18.4802C41.1134 18.3709 41.0536 18.2868 40.9769 18.2111C40.9001 18.1354 40.8063 18.0766 40.6954 18.0429C40.5845 18.0009 40.465 17.9841 40.3285 17.9841H38.7589V20.9945H39.2025V19.8341C39.2963 19.7836 39.3902 19.75 39.4925 19.7331C39.5949 19.7163 39.6887 19.7079 39.7911 19.7079H40.3285C40.465 19.7079 40.5845 19.6911 40.6954 19.6491C40.8063 19.607 40.9001 19.5482 40.9769 19.4725C41.0536 19.3968 41.1134 19.3043 41.156 19.195C41.1987 19.0856 41.2157 18.9679 41.2157 18.8334C41.2157 18.7072 41.1901 18.5895 41.156 18.4802ZM40.32 19.2706H39.7826C39.6802 19.2706 39.5864 19.2791 39.484 19.2875C39.3902 19.3043 39.2963 19.3379 39.2025 19.3884V18.4213H40.3285C40.4736 18.4213 40.5845 18.455 40.6612 18.5138C40.738 18.5727 40.7721 18.682 40.7721 18.8334C40.7721 19.1277 40.6186 19.2706 40.32 19.2706ZM35.4831 17.9336H34.9883L35.1589 18.3036L33.8367 20.9945H34.3229L34.3997 20.8516C34.4168 20.8179 34.4509 20.7843 34.4935 20.7507C34.5362 20.717 34.6044 20.6834 34.6812 20.6582C34.758 20.6245 34.8518 20.6077 34.9542 20.5825C35.0651 20.5657 35.1845 20.5572 35.321 20.5572H36.2509L36.4471 20.9945H36.9504L35.4831 17.9336ZM35.4831 20.1116C35.2698 20.1116 35.0992 20.1284 34.9798 20.162C34.8518 20.1956 34.7665 20.2377 34.7068 20.2797L35.3807 18.8418L36.0461 20.1116H35.4831ZM31.6272 17.9841V19.1529C31.559 19.1866 31.4907 19.2034 31.4225 19.2118C31.3457 19.2202 31.2775 19.2286 31.2177 19.2286C31.1495 19.2286 31.0642 19.2202 30.9703 19.2118C30.8765 19.2034 30.7827 19.195 30.6803 19.1781C30.5865 19.1697 30.4926 19.1613 30.4073 19.1445C30.322 19.1361 30.2623 19.1277 30.2196 19.1277C30.1514 19.1277 30.0917 19.1361 30.0234 19.1445C29.9552 19.1529 29.8955 19.1782 29.8358 19.2034L29.8443 17.9672H29.4007V20.9777H29.8443V19.6491C29.904 19.6154 29.9723 19.5986 30.032 19.5902C30.1002 19.5734 30.1599 19.5734 30.2282 19.5734C30.2708 19.5734 30.3391 19.5818 30.4159 19.5902C30.5012 19.5986 30.5865 19.607 30.6888 19.6238C30.7827 19.6322 30.885 19.6406 30.9789 19.6575C31.0727 19.6659 31.158 19.6743 31.2263 19.6743C31.286 19.6743 31.3542 19.6659 31.431 19.6575C31.5078 19.6491 31.576 19.6238 31.6357 19.5986V21.0029H32.0793V17.9925H31.6272V17.9841ZM26.8244 17.9841L25.033 20.305V17.9841H24.5894V20.9945H25.033L26.8244 18.6736V20.9945H27.268V17.9841H26.8244ZM22.6444 18.4802C22.6017 18.3709 22.542 18.2868 22.4652 18.2111C22.3885 18.1354 22.2946 18.0766 22.1837 18.0429C22.0728 18.0093 21.9534 17.9841 21.8169 17.9841H20.2473V20.9945H20.6908V19.8341C20.7847 19.7836 20.8785 19.75 20.9809 19.7331C21.0833 19.7163 21.1771 19.7079 21.2795 19.7079H21.8169C21.9534 19.7079 22.0728 19.6911 22.1837 19.6491C22.2946 19.607 22.3885 19.5482 22.4652 19.4725C22.542 19.3968 22.6017 19.3043 22.6444 19.195C22.687 19.0856 22.7126 18.9679 22.7126 18.8334C22.7041 18.7072 22.687 18.5895 22.6444 18.4802ZM21.8084 19.2706H21.2709C21.1686 19.2706 21.0747 19.2791 20.9724 19.2875C20.8785 19.3043 20.7847 19.3379 20.6908 19.3884V18.4213H21.8084C21.9534 18.4213 22.0643 18.455 22.1411 18.5138C22.2178 18.5727 22.252 18.682 22.252 18.8334C22.2605 19.1277 22.1069 19.2706 21.8084 19.2706ZM16.417 20.5488V19.7836C16.5108 19.7331 16.6046 19.7079 16.6985 19.6911C16.7923 19.6743 16.8947 19.6659 16.9885 19.6659H17.6539V19.2202H16.9885C16.8862 19.2202 16.7923 19.2286 16.6899 19.237C16.5961 19.2454 16.5023 19.2791 16.4084 19.3379V18.4213H18.1146V17.9756H15.9648V20.9861H18.2937V20.5404H16.417V20.5488ZM11.5715 17.9841V18.4297H12.6635V20.9945H13.0985V18.4297H14.1734V17.9841H11.5715ZM8.07393 20.5488V19.7836C8.16777 19.7331 8.26161 19.7079 8.35544 19.6911C8.44928 19.6743 8.55165 19.6659 8.64549 19.6659H9.31089V19.2202H8.65402C8.55165 19.2202 8.45781 19.2286 8.35544 19.237C8.26161 19.2454 8.16777 19.2791 8.07393 19.3379V18.4213H9.78007V17.9756H7.63033V20.9861H9.95922V20.5404H8.07393V20.5488ZM5.62562 19.8845C5.60003 19.8004 5.56591 19.7247 5.53178 19.6659C5.48913 19.5986 5.44647 19.5482 5.39529 19.5061C5.3441 19.4641 5.29292 19.4304 5.24174 19.4052C5.33557 19.3463 5.40382 19.2707 5.44648 19.1613C5.48913 19.0604 5.51472 18.9343 5.51472 18.8081C5.51472 18.6736 5.48913 18.5559 5.44648 18.455C5.40382 18.3541 5.33558 18.27 5.2588 18.1943C5.18202 18.1186 5.07965 18.0681 4.96875 18.0345C4.85785 18.0009 4.73842 17.9841 4.61046 17.9841H3.06641V20.9945H4.619C4.74696 20.9945 4.87491 20.9777 4.99434 20.9525C5.1223 20.9188 5.2332 20.8768 5.33557 20.8095C5.43794 20.7422 5.51472 20.6582 5.57444 20.5572C5.63415 20.4563 5.66827 20.3302 5.66827 20.1788C5.66827 20.0695 5.65121 19.9686 5.62562 19.8845ZM3.51853 18.4297H4.619C4.75549 18.4297 4.85785 18.455 4.94316 18.5138C5.02847 18.5727 5.07112 18.6736 5.07112 18.8166C5.07112 18.9595 5.02847 19.0604 4.95169 19.1277C4.87491 19.195 4.76402 19.2286 4.619 19.2286H4.09862C3.99625 19.2286 3.90241 19.237 3.80005 19.2454C3.70621 19.2622 3.61237 19.2959 3.51853 19.3463V18.4297ZM5.16496 20.305C5.13084 20.3638 5.08818 20.4059 5.02847 20.4395C4.97728 20.4732 4.91757 20.4984 4.84933 20.5152C4.78108 20.532 4.72136 20.5404 4.66165 20.5404H3.51V19.7836C3.60384 19.7331 3.69768 19.6995 3.79152 19.6827C3.89388 19.6659 3.98772 19.6575 4.08156 19.6575H4.60193C4.67871 19.6575 4.74695 19.6659 4.82373 19.6743C4.90051 19.6911 4.96023 19.7079 5.01994 19.7416C5.07966 19.7752 5.12231 19.8172 5.15643 19.8761C5.19055 19.935 5.20761 20.0022 5.20761 20.0947C5.22467 20.1872 5.19908 20.2545 5.16496 20.305Z" fill="fff"/>
</symbol>

<symbol id="icon-chekbox" viewBox="0 0 50 32">
<path fill="#fff" style="fill: var(--color1, #fff)" d="M47.954 4.706c1.36 1.225 1.36 3.359 0 4.583l-20.057 18.051c-1.173 1.055-2.953 1.055-4.125 0l-20.057-18.051c-1.361-1.225-1.361-3.359 0-4.583l1.557-1.402c1.173-1.055 2.953-1.055 4.125 0l14.374 12.937c1.173 1.055 2.953 1.055 4.125 0l14.374-12.937c1.173-1.055 2.953-1.055 4.125 0l1.557 1.402z"></path>
</symbol>

<symbol id="icon-phone" viewBox="0 0 30 32">
<path fill="#f6fff8" style="fill: var(--color2, #f6fff8)" d="M5.94 14.019c2.219 4.36 5.793 7.919 10.153 10.154l3.39-3.39c0.416-0.416 1.032-0.555 1.572-0.37 1.726 0.57 3.59 0.878 5.5 0.878 0.847 0 1.541 0.693 1.541 1.541v5.377c0 0.847-0.693 1.541-1.541 1.541-14.468 0-26.193-11.725-26.193-26.193 0-0.847 0.693-1.541 1.541-1.541h5.393c0.847 0 1.541 0.693 1.541 1.541 0 1.926 0.308 3.775 0.878 5.5 0.169 0.539 0.046 1.14-0.385 1.572l-3.39 3.39z"></path>
</symbol>

<symbol id="icon-location" viewBox="0 0 26 32">
<path fill="none" stroke="#fff" style="stroke: var(--color1, #fff)" stroke-linejoin="round" stroke-linecap="round" stroke-miterlimit="4" stroke-width="2.0719" d="M24.4 13.191c0 8.333-11.437 16.11-11.437 16.11s-11.437-7.777-11.437-16.11c0-3.094 1.205-6.061 3.35-8.249s5.054-3.417 8.087-3.417c3.033 0 5.943 1.229 8.087 3.417s3.35 5.155 3.35 8.249z"></path>
<path fill="#fff" style="fill: var(--color1, #fff); stroke: var(--color1, #fff)" stroke="#fff" stroke-linejoin="round" stroke-linecap="round" stroke-miterlimit="4" stroke-width="2.0719" d="M12.961 15.964c1.504 0 2.723-1.244 2.723-2.778s-1.219-2.778-2.723-2.778c-1.504 0-2.723 1.244-2.723 2.778s1.219 2.778 2.723 2.778z"></path>
</symbol>

</defs>
</svg>
