<svg width="626" height="266" viewBox="0 0 626 266" fill="none" xmlns="http://www.w3.org/2000/svg">
<g style="mix-blend-mode:overlay">
<path d="M497.649 8.52344C432.323 8.52344 355.844 50.93 355.844 137.157C355.844 207.049 406.193 265.79 483.628 265.79C560.108 265.79 625.115 208.148 625.115 134.33C624.956 70.5626 576.997 8.52344 497.649 8.52344ZM496.853 256.052C444.114 256.052 405.396 200.452 405.396 122.55C405.396 58.1548 432.323 19.3607 481.557 19.3607C540.032 19.3607 575.403 73.3897 575.403 146.109C575.403 216.63 541.625 256.052 496.853 256.052Z" fill="white"/>
<path d="M273.915 8.52344C208.589 8.52344 132.109 50.93 132.109 137.157C132.109 207.049 182.458 265.79 259.734 265.79C336.214 265.79 401.221 208.148 401.221 134.33C401.221 70.5626 353.262 8.52344 273.915 8.52344ZM273.118 256.052C220.379 256.052 181.662 200.452 181.662 122.55C181.662 58.1548 208.589 19.3607 257.822 19.3607C316.297 19.3607 351.669 73.3897 351.669 146.109C351.669 216.63 317.891 256.052 273.118 256.052Z" fill="white"/>
<path d="M201.094 199.947C195.836 228.532 166.838 253.191 137.361 253.191H55.9424C52.7558 253.191 52.2778 252.877 54.3491 250.05L193.765 17.756C195.358 16.1854 193.446 12.5731 190.897 12.5731H43.8332C23.2793 12.5731 19.296 11.0025 20.8893 1.4218C21.208 0.165305 16.428 -0.620002 16.1094 0.636489L0.016832 69.7435C-0.301832 71.3141 4.00013 72.0993 4.79679 70.9999C27.422 24.5097 56.7391 19.3266 140.548 19.3266C144.212 19.3266 144.212 19.6408 142.619 22.4679L1.13218 255.547C-0.461145 257.589 1.13216 260.73 3.20347 260.73C63.2717 260.73 136.086 260.73 196.155 261.515C198.545 261.515 199.819 259.159 199.819 257.589L205.555 199.947C205.555 198.22 201.572 198.22 201.094 199.947Z" fill="white"/>
</g>
</svg>
