<svg width="816" height="252" viewBox="0 0 816 252" fill="none" xmlns="http://www.w3.org/2000/svg">
<g style="mix-blend-mode:overlay">
<path d="M395.058 245.212C370.043 245.212 366.378 240.814 366.378 217.726V34.5923C366.378 11.9754 370.361 6.32122 395.058 6.32122C396.651 6.32122 396.651 1.60938 395.058 1.60938C381.355 1.60938 363.988 2.86594 343.434 2.86594C324.155 2.86594 305.991 1.60938 291.81 1.60938C290.536 1.60938 290.536 6.32122 291.81 6.32122C316.348 6.32122 321.287 11.0331 321.287 33.807V217.726C321.287 240.814 316.507 245.212 291.81 245.212C290.536 245.212 290.536 249.924 291.81 249.924C305.832 249.924 323.996 249.138 343.434 249.138C363.988 249.138 380.877 249.924 395.058 249.924C396.651 249.924 396.651 245.212 395.058 245.212Z" fill="white"/>
<path d="M677.092 0.980469C660.521 0.980469 634.71 3.02215 615.112 3.02215C595.833 3.02215 578.465 1.76578 564.285 1.76578C562.692 1.76578 562.692 6.47762 564.285 6.47762C588.503 6.47762 592.965 11.1895 592.965 33.9634V217.882C592.965 240.97 588.185 245.368 563.488 245.368C562.214 245.368 562.214 250.08 563.488 250.08C577.509 250.08 595.673 249.294 615.112 249.294C636.462 249.294 665.461 251.65 682.828 251.65C755.005 251.65 815.711 201.234 815.711 121.761C815.711 53.4388 760.582 0.980469 677.092 0.980469ZM678.685 242.541C644.907 242.541 637.578 233.431 637.578 213.484V34.7487C637.578 13.2313 649.687 9.77587 681.075 9.77587C733.017 9.77587 766.159 63.0197 766.159 130.556C766.159 203.118 729.512 242.541 678.685 242.541Z" fill="white"/>
<path d="M615.907 177.956C605.869 215.336 572.728 239.052 530.983 239.052H517.281C497.524 239.052 494.337 235.911 494.337 216.436V34.5585C494.337 11.9417 498.32 6.75872 523.017 6.75872C524.61 6.75872 524.61 2.04688 523.017 2.04688C509.314 2.04688 491.947 3.30325 471.871 3.30325C452.592 3.30325 433.631 2.04688 420.726 2.04688C419.451 2.04688 419.451 6.75872 420.726 6.75872C445.263 6.75872 449.724 11.4706 449.724 34.2444V218.163C449.724 241.251 445.263 245.649 420.726 245.649C419.451 245.649 419.451 250.361 420.726 250.361H610.809C615.27 250.361 616.864 248.79 616.864 244.392C616.864 223.66 618.935 196.332 620.528 178.898C620.369 177.17 616.385 176.385 615.907 177.956Z" fill="white"/>
<path d="M368.296 0.980469C354.594 0.980469 347.264 2.23684 332.446 2.23684C312.211 2.23684 301.377 0.980469 287.355 0.980469C285.762 0.980469 285.762 5.69231 287.355 5.69231C307.431 5.69231 316.354 26.7385 305.519 55.3237L253.577 192.281L205.299 91.7618L220.117 52.4965C232.226 20.7701 246.726 5.69231 264.89 5.69231C266.164 5.69231 266.164 0.980469 264.89 0.980469C252.78 0.980469 246.726 2.23684 233.501 2.23684C209.283 2.23684 215.337 0.980469 207.371 0.980469C205.777 0.980469 205.777 5.69231 207.371 5.69231C220.755 5.69231 220.755 19.9849 208.645 51.3971L198.607 78.0976L180.922 41.1881C166.9 11.8177 166.422 5.84933 180.922 5.84933C182.515 5.84933 182.515 1.13749 180.922 1.13749C171.999 1.13749 162.439 2.39387 132.166 2.39387C115.277 2.39387 115.277 1.13749 107.151 1.13749C105.558 1.13749 105.558 5.84933 107.151 5.84933C116.87 5.84933 124.518 16.5295 132.963 34.1204L177.735 127.415L152.401 192.909L79.905 41.1881C65.8838 11.8177 66.9992 5.84933 89.1463 5.84933C90.7396 5.84933 90.7396 1.13749 89.1463 1.13749C78.3117 1.13749 66.5211 2.39387 30.6714 2.39387C10.5956 2.39387 10.5956 1.13749 1.19499 1.13749C-0.39833 1.13749 -0.39833 5.84933 1.19499 5.84933C16.4909 5.84933 20.4742 10.5612 31.7868 34.1204L134.556 248.98C135.353 251.022 142.682 251.022 143.479 248.98L184.108 141.393L235.732 248.98C236.529 251.022 243.858 251.022 244.654 248.98L319.222 52.8107C330.534 23.7544 349.017 6.00636 368.774 6.00636C369.411 5.69223 369.411 0.980469 368.296 0.980469Z" fill="white"/>
</g>
</svg>
