<svg width="130" height="113" viewBox="0 0 130 113" fill="none" xmlns="http://www.w3.org/2000/svg">
<path opacity="0.05" fill-rule="evenodd" clip-rule="evenodd" d="M37.8292 26.0013C41.5186 27.7403 45.4942 24.8465 47.0328 20.8544C48.7215 16.5961 47.4413 12.2756 43.9673 10.5859C40.3796 8.82965 36.5569 11.0328 35.0368 15.0446C33.4093 18.8856 34.2235 24.2653 37.8292 26.0013ZM51.6137 32.5592C51.1033 30.7837 49.9698 29.3205 48.4272 28.4312C45.027 26.4883 41.1501 28.0474 39.2119 32.1246C37.3435 35.9207 37.8941 41.1675 41.4264 43.1968C44.9512 45.2102 49.2325 42.6368 50.9552 38.8427C51.9493 36.7597 52.1771 34.5263 51.6137 32.5592ZM25.0861 21.5087C23.5564 21.1557 22.2674 20.143 21.3665 18.6288C17.9928 12.9854 21.604 3.50083 28.2303 5.0382C34.6198 6.55856 34.666 15.7763 30.2914 19.8726C28.7588 21.3137 26.8676 21.9104 25.0861 21.5087ZM30.1411 28.103C23.4782 25.8613 12.8823 38.8548 11.0678 43.9596C8.99137 51.1661 15.7063 53.8516 22.0916 56.0087L22.1025 56.0126C22.6021 56.1775 23.0971 56.3461 23.587 56.5129L23.588 56.5132C27.7818 57.9413 31.6045 59.243 34.7805 57.0764C35.9334 56.2328 36.7719 54.9326 37.278 53.1962C38.4937 47.9469 36.7145 30.486 30.1411 28.103ZM20.4312 25.6136C20.105 28.1846 18.9454 30.4619 17.2412 31.8692C15.9018 32.9795 14.3116 33.4562 12.7722 33.2196C8.82873 32.6011 6.70202 27.7828 7.32062 23.5862C7.62739 21.2477 8.61184 19.2809 10.1102 18.0405C11.4641 16.922 13.1635 16.4438 14.8854 16.7182C18.6828 17.2985 21.0131 21.045 20.4312 25.6136Z" fill="#04A427"/>
<path opacity="0.05" fill-rule="evenodd" clip-rule="evenodd" d="M105.939 73.917C109.185 72.6516 110.158 68.2836 109.014 64.7834C107.824 61.0194 104.73 59.1161 101.647 60.2748C98.4564 61.4641 97.2138 65.2989 98.3796 68.7997C99.3873 72.2617 102.748 75.1306 105.939 73.917ZM118.099 69.2291C116.837 68.4369 115.348 68.2403 113.905 68.6671C110.734 69.619 109.117 73.0825 110.054 76.8922C110.886 80.48 114.01 83.4339 117.31 82.452C120.597 81.4649 121.933 77.1033 121.01 73.6099C120.534 71.6611 119.495 70.108 118.099 69.2291ZM95.5324 79.2427C94.3816 79.9993 93.0333 80.1861 91.664 79.8085C86.5507 78.4115 83.8055 70.1237 88.7949 66.8517C93.6259 63.7205 98.5346 69.4995 97.9464 74.8803C97.7435 76.7693 96.8677 78.3557 95.5324 79.2427ZM102.209 80.1641C96.8236 83.0158 97.0249 97.9847 98.5838 102.363C101.09 108.233 106.743 105.628 111.909 102.9L111.918 102.896C112.32 102.68 112.721 102.469 113.119 102.261C116.517 100.476 119.615 98.8502 120.47 95.4523C120.75 94.1829 120.59 92.827 119.99 91.4089C117.977 87.323 107.613 77.4589 102.209 80.1641ZM94.7724 84.8076C95.9278 86.6364 96.4026 88.8136 96.0737 90.791C95.8174 92.3479 95.0678 93.666 93.9724 94.5021C91.1601 96.6362 87.2693 94.961 85.4376 91.9207C84.393 90.2507 83.9722 88.3814 84.2598 86.6408C84.5209 85.0695 85.3386 83.6806 86.5689 82.7515C89.269 80.6868 92.7207 81.5563 94.7724 84.8076Z" fill="#04A427"/>
</svg>
