<svg width="76" height="66" viewBox="0 0 76 66" fill="none" xmlns="http://www.w3.org/2000/svg">
<path opacity="0.05" fill-rule="evenodd" clip-rule="evenodd" d="M22.1083 15.1956C24.2645 16.2119 26.588 14.5206 27.4872 12.1875C28.4741 9.69887 27.7259 7.17381 25.6956 6.18631C23.5988 5.15988 21.3647 6.44746 20.4763 8.79211C19.5252 11.0369 20.001 14.181 22.1083 15.1956ZM30.1654 19.0283C29.8671 17.9906 29.2046 17.1355 28.3031 16.6157C26.3159 15.4802 24.0501 16.3914 22.9173 18.7743C21.8254 20.9928 22.1472 24.0592 24.2116 25.2452C26.2716 26.4219 28.7737 24.9179 29.7805 22.7005C30.3615 21.4831 30.4946 20.1778 30.1654 19.0283ZM14.6603 12.5709C13.7663 12.3646 13.013 11.7727 12.4864 10.8878C10.5148 7.58961 12.6253 2.04652 16.4979 2.945C20.2321 3.83355 20.2591 9.22069 17.7025 11.6147C16.8068 12.4569 15.7015 12.8057 14.6603 12.5709ZM17.6155 16.4234C13.7215 15.1133 7.52891 22.707 6.46845 25.6904C5.25491 29.9022 9.17934 31.4717 12.9111 32.7324L12.9175 32.7346C13.2097 32.8311 13.4992 32.9296 13.7857 33.0272C16.2366 33.8618 18.4708 34.6226 20.3269 33.3563C21.0007 32.8633 21.4907 32.1035 21.7865 31.0887C22.497 28.0208 21.4572 17.8161 17.6155 16.4234ZM11.9402 14.9682C11.7496 16.4708 11.0718 17.8018 10.0759 18.6242C9.29303 19.2731 8.3637 19.5518 7.46402 19.4134C5.15932 19.052 3.91641 16.236 4.27794 13.7834C4.45722 12.4167 5.03257 11.2673 5.90824 10.5423C6.69953 9.88861 7.69271 9.60915 8.69905 9.76951C10.9184 10.1087 12.2803 12.2983 11.9402 14.9682Z" fill="#04A427"/>
<path opacity="0.05" fill-rule="evenodd" clip-rule="evenodd" d="M61.9119 43.204C63.8086 42.4644 64.3774 39.9117 63.709 37.866C63.0135 35.6662 61.2054 34.5539 59.4032 35.231C57.5386 35.9261 56.8124 38.1673 57.4938 40.2133C58.0827 42.2366 60.0469 43.9132 61.9119 43.204ZM69.0179 40.4636C68.2806 40.0006 67.4105 39.8857 66.5672 40.1352C64.7139 40.6914 63.7685 42.7157 64.3161 44.9422C64.8025 47.039 66.6285 48.7653 68.5571 48.1915C70.4781 47.6146 71.2587 45.0656 70.7193 43.0239C70.441 41.885 69.8339 40.9773 69.0179 40.4636ZM55.8297 46.3161C55.1571 46.7583 54.3691 46.8675 53.5688 46.6468C50.5805 45.8303 48.9761 40.9867 51.892 39.0744C54.7155 37.2445 57.5842 40.6219 57.2405 43.7666C57.1219 44.8706 56.61 45.7977 55.8297 46.3161ZM59.7308 46.8542C56.5835 48.5208 56.7012 57.2692 57.6122 59.8278C59.077 63.2584 62.3808 61.7359 65.3997 60.142L65.4049 60.1393C65.64 60.0132 65.8744 59.8901 66.1065 59.7683L66.1069 59.7681C68.0932 58.7254 69.9037 57.775 70.403 55.7891C70.5666 55.0472 70.4732 54.2548 70.1224 53.426C68.9461 51.0381 62.8889 45.2732 59.7308 46.8542ZM55.3851 49.5678C56.0604 50.6366 56.3379 51.909 56.1457 53.0647C55.9959 53.9746 55.5577 54.7449 54.9176 55.2336C53.274 56.4808 51.0001 55.5018 49.9296 53.7249C49.3191 52.7489 49.0732 51.6564 49.2412 50.6392C49.3938 49.7208 49.8717 48.9091 50.5907 48.3661C52.1687 47.1595 54.186 47.6676 55.3851 49.5678Z" fill="#04A427"/>
</svg>
