<svg width="58" height="51" viewBox="0 0 58 51" fill="none" xmlns="http://www.w3.org/2000/svg">
<path opacity="0.05" fill-rule="evenodd" clip-rule="evenodd" d="M16.913 11.6263C18.5626 12.4038 20.3401 11.11 21.028 9.32504C21.7831 7.42111 21.2107 5.48933 19.6574 4.73385C18.0533 3.94859 16.3441 4.93364 15.6645 6.72739C14.9368 8.44477 15.3008 10.8501 16.913 11.6263ZM23.076 14.5601C22.8478 13.7662 22.341 13.112 21.6513 12.7144C20.131 11.8457 18.3976 12.5428 17.531 14.3658C16.6956 16.063 16.9418 18.409 18.5211 19.3163C20.0971 20.2165 22.0113 19.0659 22.7816 17.3695C23.2261 16.4382 23.3279 15.4396 23.076 14.5601ZM11.2153 9.61907C10.5314 9.46127 9.95502 9.00847 9.55219 8.33143C8.04377 5.8082 9.65838 1.56749 12.6211 2.25487C15.478 2.93465 15.4986 7.05604 13.5427 8.88755C12.8574 9.53189 12.0119 9.79871 11.2153 9.61907ZM13.475 12.567C10.4959 11.5647 5.75834 17.3742 4.94704 19.6567C4.01864 22.8788 7.02099 24.0796 9.87594 25.044L9.88084 25.0458C10.1043 25.1195 10.3257 25.1949 10.5448 25.2695L10.545 25.2696L10.545 25.2696C12.4201 25.9081 14.1293 26.4901 15.5493 25.5214C16.0648 25.1442 16.4397 24.5629 16.666 23.7865C17.2096 21.4395 16.4141 13.6324 13.475 12.567ZM9.1335 11.453C8.98766 12.6026 8.46917 13.6208 7.70721 14.25C7.10831 14.7464 6.39733 14.9596 5.70904 14.8538C3.94585 14.5773 2.99497 12.4229 3.27155 10.5466C3.40871 9.50098 3.84888 8.62162 4.51881 8.06699C5.12418 7.5669 5.884 7.3531 6.65389 7.47579C8.35177 7.73525 9.39367 9.41038 9.1335 11.453Z" fill="#04A427"/>
<path opacity="0.05" fill-rule="evenodd" clip-rule="evenodd" d="M47.367 33.0501C48.8181 32.4843 49.2533 30.5314 48.7419 28.9664C48.2098 27.2834 46.8265 26.4324 45.4478 26.9505C44.0213 27.4822 43.4657 29.1968 43.987 30.7621C44.4376 32.31 45.9403 33.5927 47.367 33.0501ZM52.804 30.954C52.2399 30.5998 51.5743 30.5119 50.9291 30.7027C49.5113 31.1283 48.788 32.6769 49.2069 34.3803C49.579 35.9845 50.976 37.3052 52.4515 36.8662C53.9211 36.4248 54.5183 34.4747 54.1056 32.9127C53.8927 32.0414 53.4283 31.347 52.804 30.954ZM42.7139 35.4308C42.1993 35.7691 41.5965 35.8526 40.9842 35.6838C38.698 35.0591 37.4706 31.3536 39.7014 29.8906C41.8615 28.4906 44.0562 31.0744 43.7932 33.4803C43.7025 34.3249 43.3109 35.0342 42.7139 35.4308ZM45.699 35.8419C43.2912 37.1169 43.3812 43.8097 44.0782 45.7672C45.1988 48.3918 47.7264 47.2269 50.036 46.0076L50.04 46.0055C50.2198 45.909 50.3992 45.8148 50.5768 45.7216L50.577 45.7215C52.0966 44.9238 53.4817 44.1967 53.8637 42.6774C53.9889 42.1099 53.9174 41.5036 53.649 40.8696C52.7491 39.0427 48.1151 34.6323 45.699 35.8419ZM42.3746 37.9187C42.8912 38.7364 43.1035 39.7098 42.9565 40.594C42.8419 41.2901 42.5067 41.8794 42.017 42.2533C40.7595 43.2074 39.0199 42.4584 38.2009 41.0991C37.7338 40.3524 37.5457 39.5166 37.6743 38.7383C37.791 38.0358 38.1566 37.4148 38.7067 36.9994C39.914 36.0762 41.4573 36.465 42.3746 37.9187Z" fill="#04A427"/>
</svg>
