<svg width="313" height="271" viewBox="0 0 313 271" fill="none" xmlns="http://www.w3.org/2000/svg">
<path opacity="0.05" fill-rule="evenodd" clip-rule="evenodd" d="M91.2607 63.0567C100.162 67.252 109.753 60.2706 113.465 50.6397C117.538 40.3666 114.45 29.9433 106.069 25.867C97.4137 21.6299 88.1915 26.945 84.5242 36.6236C80.5978 45.89 82.5621 58.8685 91.2607 63.0567ZM124.518 78.8827C123.287 74.5993 120.552 71.0693 116.831 68.9237C108.628 64.2365 99.2749 67.9978 94.5989 77.8342C90.0914 86.9921 91.4198 99.6503 99.9413 104.546C108.445 109.403 118.774 103.195 122.93 94.0415C125.328 89.0163 125.878 83.6282 124.518 78.8827ZM60.5178 52.2232C56.8274 51.3718 53.7177 48.9286 51.5441 45.2755C43.4051 31.6608 52.1171 8.7792 68.1032 12.4881C83.5179 16.156 83.6293 38.3938 73.0757 48.2761C69.3782 51.7529 64.8157 53.1925 60.5178 52.2232ZM72.7144 68.1317C56.64 62.7236 31.0773 94.0703 26.6998 106.386C21.6904 123.771 37.8903 130.25 53.2947 135.454L53.3212 135.464C54.5273 135.862 55.7223 136.269 56.905 136.672C67.0224 140.117 76.2448 143.257 83.9069 138.03C86.6882 135.995 88.7111 132.858 89.9322 128.669C92.8651 116.005 88.5727 73.8807 72.7144 68.1317ZM49.2888 62.1229C48.5019 68.3256 45.7043 73.8196 41.593 77.2146C38.3615 79.8932 34.5253 81.0435 30.8114 80.4725C21.2978 78.9804 16.1671 67.3561 17.6594 57.2319C18.3995 51.5902 20.7745 46.8454 24.3893 43.8528C27.6557 41.1544 31.7555 40.0008 35.9096 40.6628C45.0708 42.0628 50.6927 51.1013 49.2888 62.1229Z" fill="#04A427"/>
<path opacity="0.05" fill-rule="evenodd" clip-rule="evenodd" d="M255.579 178.668C263.408 175.615 265.756 165.077 262.997 156.633C260.126 147.552 252.662 142.961 245.223 145.756C237.526 148.625 234.528 157.877 237.341 166.323C239.772 174.675 247.88 181.596 255.579 178.668ZM284.913 167.358C281.869 165.447 278.277 164.972 274.796 166.002C267.146 168.298 263.244 176.654 265.504 185.845C267.512 194.501 275.049 201.627 283.011 199.258C290.94 196.877 294.163 186.354 291.936 177.927C290.787 173.225 288.281 169.478 284.913 167.358ZM230.472 191.517C227.695 193.343 224.442 193.793 221.139 192.882C208.803 189.512 202.18 169.518 214.217 161.624C225.872 154.07 237.714 168.012 236.295 180.993C235.806 185.55 233.693 189.377 230.472 191.517ZM246.579 193.736C233.587 200.616 234.073 236.729 237.834 247.291C243.88 261.452 257.518 255.167 269.98 248.588L270.002 248.577C270.973 248.056 271.941 247.547 272.899 247.044C281.099 242.74 288.572 238.817 290.634 230.619C291.309 227.557 290.923 224.286 289.475 220.865C284.619 211.007 259.615 187.21 246.579 193.736ZM228.635 204.942C231.423 209.355 232.568 214.607 231.775 219.378C231.157 223.134 229.348 226.314 226.706 228.331C219.921 233.479 210.534 229.438 206.115 222.103C203.595 218.074 202.58 213.564 203.274 209.365C203.904 205.574 205.876 202.223 208.844 199.982C215.358 195.001 223.686 197.099 228.635 204.942Z" fill="#04A427"/>
</svg>
