<svg width="120" height="104" viewBox="0 0 120 104" fill="none" xmlns="http://www.w3.org/2000/svg">
<path opacity="0.05" fill-rule="evenodd" clip-rule="evenodd" d="M34.9433 24.0168C38.3513 25.6231 42.0237 22.95 43.4448 19.2625C45.0047 15.3291 43.8222 11.3381 40.6132 9.77736C37.2992 8.15504 33.7681 10.1901 32.364 13.8959C30.8606 17.4439 31.6127 22.4132 34.9433 24.0168ZM47.6779 30.0746C47.2065 28.4346 46.1594 27.083 44.7345 26.2615C41.5937 24.4668 38.0126 25.907 36.2222 29.6732C34.4963 33.1796 35.005 38.0262 38.2677 39.9007C41.5236 41.7605 45.4784 39.3834 47.0696 35.8787C47.988 33.9546 48.1983 31.8916 47.6779 30.0746ZM23.1726 19.8697C21.7596 19.5437 20.5689 18.6083 19.7367 17.2096C16.6203 11.9967 19.956 3.23564 26.0769 4.65573C31.9789 6.06011 32.0216 14.5747 27.9808 18.3584C26.5651 19.6896 24.8182 20.2409 23.1726 19.8697ZM27.8424 25.9591C21.6878 23.8884 11.9002 35.8907 10.2241 40.606C8.30607 47.2628 14.5088 49.7435 20.4069 51.736L20.417 51.7396C20.8788 51.8921 21.3364 52.0479 21.7892 52.2021C25.663 53.5212 29.1941 54.7236 32.1278 52.7222C33.1928 51.943 33.9673 50.742 34.4349 49.1381C35.5578 44.2892 33.9143 28.1603 27.8424 25.9591ZM18.873 23.6584C18.5718 26.0333 17.5006 28.1369 15.9264 29.4368C14.6891 30.4624 13.2203 30.9028 11.7983 30.6842C8.15568 30.1128 6.19121 25.6621 6.76262 21.7857C7.04598 19.6255 7.95534 17.8088 9.33937 16.663C10.59 15.6298 12.1598 15.1881 13.7503 15.4416C17.258 15.9776 19.4106 19.4384 18.873 23.6584Z" fill="#04A427"/>
<path opacity="0.05" fill-rule="evenodd" clip-rule="evenodd" d="M97.857 68.2841C100.855 67.1152 101.754 63.0805 100.697 59.8473C99.5981 56.3704 96.7403 54.6124 93.892 55.6826C90.9449 56.7812 89.7971 60.3234 90.874 63.5573C91.8049 66.7551 94.9093 69.4051 97.857 68.2841ZM109.088 63.955C107.923 63.2232 106.548 63.0416 105.215 63.4359C102.286 64.3151 100.792 67.5145 101.657 71.0336C102.426 74.3476 105.312 77.0762 108.36 76.1692C111.396 75.2574 112.63 71.2286 111.777 68.0017C111.338 66.2015 110.378 64.7669 109.088 63.955ZM88.2439 73.2041C87.181 73.903 85.9355 74.0755 84.6706 73.7268C79.9474 72.4363 77.4116 64.7808 82.0204 61.7584C86.4829 58.8661 91.0171 64.2041 90.4738 69.1745C90.2864 70.9194 89.4774 72.3848 88.2439 73.2041ZM94.4106 74.0549C89.4361 76.689 89.6221 90.5161 91.062 94.5601C93.3772 99.9824 98.599 97.5759 103.37 95.0567L103.379 95.0525C103.75 94.853 104.121 94.6583 104.488 94.4657C107.628 92.8177 110.489 91.3155 111.278 88.1769C111.537 87.0043 111.389 85.7518 110.835 84.4419C108.976 80.6677 99.402 71.556 94.4106 74.0549ZM87.5411 78.3442C88.6084 80.0336 89.047 82.0447 88.7432 83.8712C88.5064 85.3094 87.814 86.5269 86.8022 87.2992C84.2044 89.2705 80.6105 87.7231 78.9185 84.9147C77.9536 83.3722 77.5649 81.6454 77.8305 80.0376C78.0717 78.5862 78.827 77.3032 79.9634 76.445C82.4576 74.5379 85.6459 75.341 87.5411 78.3442Z" fill="#04A427"/>
</svg>
